<?xml version="1.0" encoding="UTF-8"?>
<svg id="Layer_2" data-name="Layer 2" xmlns="http://www.w3.org/2000/svg" viewBox="0 0 131.77 124.6">
  <defs>
    <style>
      .cls-1 {
        fill: #fe828c;
        stroke-width: 0px;
      }
    </style>
  </defs>
  <g id="Layer_8" data-name="Layer 8">
    <g id="logo-icon-ring">
      <g id="bottle">
        <path class="cls-1" d="M58.19,45.25c2.59-4.34,6.39-6.88,11.4-7.59,1.86-.27,2.28-.71,2.42-2.64.15-2.06.38-4.1,1.19-6.02.87-2.07,2.15-3.77,4.29-4.68,2.71-1.15,4.72.06,5,2.98.02.27,0,.55,0,.82-.15,2.79-.47,5.56-1.67,8.15-.77,1.66-.58,2.22,1.06,3.07,4.61,2.36,7.48,6.07,8.72,11.06.4,1.61.25,1.77-1.39,1.49-10.11-1.71-20.22-3.43-30.32-5.15-1.22-.2-1.35-.41-.7-1.49Z"/>
        <path class="cls-1" d="M90.63,63.91c-.14-1.66-.2-1.81-1.85-2.1-3.87-.66-7.74-1.32-11.6-1.97-6.94-1.17-13.87-2.35-20.79-3.53-1.04-.17-1.86.04-2.63.82-1.88,1.91-3.13,4.11-3.7,6.74-1.4,6.49-2.87,12.95-4.29,19.43-.31,1.4-.61,2.82-.76,4.24-.54,4.91.97,7.69,5.47,10.02,6.14,3.17,12.66,4.85,19.42,4.89,3.19,0,6.16-.34,9.08-.97,4.16-.89,6.93-3.19,7.87-7.54.68-3.14,1.57-6.25,2.16-9.41,1.26-6.8,2.21-13.64,1.63-20.6ZM70.41,66.91c-.24.94-.99.82-1.7.67-1.71-.35-3.43-.67-5.13-1.06-.86-.19-1.32-.03-1.44.93-.14,1.23-.41,2.45-.65,3.67-.18.91.2,1.41,1.08,1.6,1.17.25,2.36.49,3.53.73.63.13.97.47.9,1.13-.08.7-.54.89-1.18.89-1.21-.25-2.42-.51-3.64-.75-1.27-.26-1.51-.09-1.75,1.15-.25,1.34-.47,2.68-.84,3.98-.24.9.12,1.23.89,1.38,1.3.24,2.6.47,3.89.72.72.13,1.28.46,1.13,1.32-.15.86-.83.86-1.45.75-1.35-.21-2.69-.42-4-.76-.78-.2-1.06.08-1.28.72-1.19,3.44-.99,3.8,2.54,4.71.9.23,1.8.48,2.68.76.64.2,1,.64.76,1.34-.23.64-.73.7-1.33.55-2.26-.59-4.51-1.15-6.76-1.74-.8-.2-1.02-.72-.86-1.51,1.54-7.55,3.07-15.12,4.61-22.68.23-1.15.79-1.57,1.89-1.35,2.32.47,4.63.99,6.95,1.48.75.16,1.4.44,1.17,1.38ZM81.87,93.75c-1.08-.51-2.06-1.22-2.97-2-.33-.27-.4-.64-.19-1.04.21-.42.6-.73,1.03-.58,1.32.47,2.49,1.21,3.37,2.34.1.12.12.28.16.39-.26.68-.68,1.22-1.4.89ZM83.21,89.5c-1.18-.38-2.25-1.09-2.92-2.3-.16-.31-.14-.68.16-.96.29-.27.66-.51,1.04-.31,1.05.56,2.17,1.08,2.71,2.24.38.83,0,1.4-1,1.33ZM85.44,85.08c-.17.32-.38.58-.89.6-.16-.08-.43-.14-.64-.3-.86-.6-1.71-1.2-2.55-1.83-.48-.37-.48-.85-.18-1.34.32-.55.73-.59,1.28-.32,1.06.51,1.95,1.23,2.81,2.03.35.32.42.71.17,1.15ZM85.79,80.93c-.26.29-.56.36-.94.2-1.24-.49-2.19-1.34-2.93-2.4-.45-.64.03-1.35.81-1.34.85.02,3.09,1.77,3.32,2.57.11.38-.02.69-.26.96ZM86.92,77.24c-.31.34-.69.38-1.05.15-1.02-.64-2.01-1.32-3.01-1.99-.38-.25-.43-.64-.27-1.03.15-.38.45-.63,1.17-.59,1.16.41,2.42,1.15,3.4,2.3.3.34.09.81-.24,1.15ZM87.37,73.06c-.27.29-.6.53-1.02.32-1.05-.51-2.04-1.12-2.87-1.96-.28-.3-.34-.62-.15-.95.18-.36.43-.65.89-.65.49-.02,3.25,1.84,3.42,2.3.13.38-.02.69-.26.95ZM88.32,69.09c-.19.34-.56.38-1,.36-1.32-.36-2.43-1.18-3.33-2.28-.23-.28-.11-.67.11-.98.25-.37.66-.5,1.03-.34,1.16.51,2.33,1.06,3.1,2.16.24.35.31.72.1,1.09Z"/>
        <path class="cls-1" d="M92.66,56.14c-.14.88-.28,1.76-.46,2.64-.2,1.05-.81,1.5-1.92,1.31-6.35-1.09-12.7-2.15-19.05-3.22-5.24-.89-10.49-1.78-15.73-2.67-1.05-.18-1.91-.55-1.72-1.88.13-.89.22-1.77.4-2.64.23-1.12.83-1.53,2.19-1.35,2.15.29,4.29.68,6.43,1.04,9.07,1.53,18.15,3.06,27.21,4.6.54.09,1.07.21,1.58.37.89.28,1.22.9,1.08,1.8Z"/>
      </g>
      <path id="ring" class="cls-1" d="M117.47,102.59c8.92-10.65,14.3-24.4,14.3-39.39,0-16.9-6.83-32.23-17.89-43.33,1.66-2.09,2.64-4.74,2.64-7.61,0-6.77-5.49-12.26-12.27-12.26-4.61,0-8.63,2.55-10.72,6.32-7.14-2.91-14.96-4.52-23.16-4.52-16.96,0-32.3,6.87-43.42,17.98-7.97,7.97-13.76,18.12-16.39,29.48h0c-3.97.06-7.41,2.27-9.21,5.52-.34.59-.61,1.21-.82,1.86-.35,1.05-.53,2.17-.53,3.33,0,5.49,4.11,10,9.41,10.64,3.66,30.42,29.56,53.99,60.96,53.99,13.01,0,25.06-4.04,34.98-10.94h.01c.46.46.98.85,1.54,1.18,1.22.71,2.64,1.12,4.15,1.12,4.54,0,8.23-3.69,8.23-8.24,0-1.37-.34-2.66-.94-3.79-.25-.48-.54-.93-.87-1.34ZM115.81,100.96s-.03.03-.04.05c-1.33-.96-2.96-1.51-4.72-1.51-4.55,0-8.23,3.69-8.23,8.22,0,1.5.4,2.9,1.1,4.11-9.53,6.6-21.08,10.45-33.55,10.45-30.11,0-54.96-22.52-58.62-51.64h0c2.27-.22,4.34-1.14,5.97-2.55.51-.45.98-.94,1.4-1.47,1.45-1.82,2.31-4.14,2.31-6.65,0-5.16-3.66-9.48-8.54-10.48h0c2.57-10.82,8.1-20.47,15.7-28.07,10.7-10.69,25.45-17.3,41.78-17.3,7.86,0,15.37,1.53,22.23,4.33-.4,1.2-.61,2.48-.61,3.81,0,6.78,5.49,12.27,12.26,12.27,3.07,0,5.87-1.12,8.02-2.98,10.61,10.68,17.18,25.42,17.18,41.65,0,14.34-5.13,27.52-13.64,37.76Z"/>
    </g>
  </g>
</svg>