<?xml version="1.0" encoding="UTF-8"?>
<svg id="Layer_2" data-name="Layer 2" xmlns="http://www.w3.org/2000/svg" viewBox="0 0 55.08 50.85">
  <defs>
    <style>
      .cls-1 {
        fill: #337c80;
      }

      .cls-1, .cls-2 {
        stroke-width: 0px;
      }

      .cls-2 {
        fill: #fe828c;
      }
    </style>
  </defs>
  <g id="account-verified">
    <g id="_215573168" data-name=" 215573168">
      <path id="_215572616" data-name=" 215572616" class="cls-1" d="M11.41,28.02c3.15,0,6,1.28,8.07,3.34,2.07,2.07,3.34,4.92,3.34,8.07s-1.28,6-3.34,8.07c-2.07,2.07-4.92,3.34-8.07,3.34s-6-1.28-8.07-3.34c-2.07-2.07-3.34-4.92-3.34-8.07s1.28-6,3.34-8.07c2.07-2.07,4.92-3.34,8.07-3.34h0ZM16.61,37.48c.46-.44.47-1.17.03-1.62-.44-.46-1.17-.47-1.62-.03l-5.26,5.08-1.91-1.98c-.44-.46-1.17-.47-1.62-.03-.46.44-.47,1.17-.03,1.62l2.66,2.75s.04.04.06.06c.44.46,1.17.47,1.63.03h0s6.08-5.88,6.08-5.88h0Z"/>
      <path id="_215572592" data-name=" 215572592" class="cls-2" d="M20.6,20.82c-2.52,1.42-4.7,3.54-6.33,6.12-.05.07-.09.15-.14.23,2.32.51,4.45,1.67,6.16,3.38,2.36,2.36,3.68,5.54,3.68,8.88,0,1.54-.28,3.04-.81,4.45h27.07c1.39,0,2.64-.64,3.52-1.66.81-.94,1.32-2.22,1.32-3.61v-.32c0-4.19-1.18-8.09-3.17-11.27-1.62-2.59-3.78-4.72-6.3-6.15-.67,1.37-1.56,2.63-2.71,3.73-6.84,6.6-18.03,4.49-22.3-3.77h0ZM33.07,26.37h-.01c-2.64,0-5.8-1.08-8.22-3.41-1.93-1.86-3.39-4.51-3.73-8.02-.03-.26-.04-.71-.06-1.2-.02-.65-.03-1.44-.03-1.82-.04-4.53,1.43-7.48,3.74-9.36C27,.74,29.94.07,33.02,0h0c.1,0,.19,0,.28,0,3.01.09,5.88.77,8.08,2.55,2.31,1.88,3.77,4.83,3.74,9.36,0,.38-.01,1.17-.03,1.82-.01.49-.03.94-.06,1.2-.35,3.61-1.69,6.26-3.61,8.11-2.24,2.16-5.2,3.17-8.24,3.31h0s-.07,0-.1,0h0s0,0,0,0Z"/>
    </g>
  </g>
</svg>