<?xml version="1.0" encoding="UTF-8"?>
<svg id="Layer_2" data-name="Layer 2" xmlns="http://www.w3.org/2000/svg" viewBox="0 0 308.77 308.77">
  <defs>
    <style>
      .cls-1 {
        fill: #6470a5;
      }

      .cls-1, .cls-2, .cls-3, .cls-4, .cls-5, .cls-6, .cls-7, .cls-8, .cls-9, .cls-10, .cls-11, .cls-12, .cls-13, .cls-14, .cls-15, .cls-16, .cls-17, .cls-18, .cls-19 {
        stroke-width: 0px;
      }

      .cls-2 {
        fill: #a4919c;
      }

      .cls-3 {
        fill: #83707d;
      }

      .cls-4 {
        fill: #f3e7dd;
      }

      .cls-5 {
        fill: #7c6775;
      }

      .cls-6, .cls-20, .cls-21 {
        fill: none;
      }

      .cls-7 {
        fill: #957e8b;
      }

      .cls-8 {
        fill: #b6a7b0;
      }

      .cls-9 {
        fill: #c5846c;
      }

      .cls-10 {
        fill: #c8b6c0;
      }

      .cls-11 {
        fill: #372d31;
      }

      .cls-12 {
        fill: #fff;
      }

      .cls-13 {
        fill: #564957;
      }

      .cls-20 {
        stroke: #8f8685;
        stroke-width: 2px;
      }

      .cls-20, .cls-21 {
        stroke-miterlimit: 10;
      }

      .cls-14 {
        fill: #d2a593;
      }

      .cls-15 {
        fill: #c49786;
      }

      .cls-16 {
        fill: #8b94ca;
      }

      .cls-21 {
        stroke: #b17d69;
        stroke-linecap: round;
        stroke-width: .5px;
      }

      .cls-17 {
        fill: #c88276;
      }

      .cls-18 {
        fill: #e8cb86;
      }

      .cls-19 {
        fill: #b17d69;
      }
    </style>
  </defs>
  <g id="Layer_8" data-name="Layer 8">
    <g>
      <g id="BACKGROUND">
        <rect class="cls-6" width="308.77" height="308.77"/>
      </g>
      <g id="OBJECTS">
        <g>
          <path class="cls-4" d="M251.47,102.21c5.6,7.58,9.23,16.75,10.39,26.12,2.22,17.99-3.82,36.34-13.99,51.34-9.87,14.56-23.81,26.54-40.16,33.04-14.41,5.73-31.93,6.78-47.36,7.71-17.09,1.03-36.27-6.81-51.23-14.36-15.24-7.69-31.2-16.1-43.9-27.63-18.6-16.89-31.26-40.87-32.16-65.98-1.56-43.69,35-82.53,79.69-75.68,9.31,1.43,21.32,3.58,29.19,9.04,9.35,6.49,18.27,14.24,26.47,22.07,5.71,5.45,13.71,9.17,21.28,11.14,13.71,3.56,28.58,2.13,41.74,7.37,8.08,3.21,14.89,8.85,20.05,15.83Z"/>
          <line class="cls-20" x1="281.75" y1="224.65" x2="29.75" y2="224.65"/>
          <g>
            <path class="cls-13" d="M140.38,48.57c.57-.13,1.12-.31,1.64-.57,2.77-1.41,5.92-1.96,9.02-1.99,6.38-.08,12.84,2.27,17.41,6.76,7.21,7.08,9.19,18.94,4.66,27.98-1.16,2.32-2.74,4.6-2.8,7.19-.08,3.88,2.73,7.01,4.16,10.39,1.56,3.67,3.76,7.24,4.22,11.31.45,3.98-1.06,8.46-4.6,10.32-1.04.54-2.2.85-3.17,1.51-1.08.75-1.82,1.89-2.68,2.89-4.08,4.69-10.04,4.36-15.65,5.23-4.23.65-7.67-1.72-11.83-1.9-1.59-.07-3.18.21-4.77.1-3.31-.22-6.33-2.12-8.58-4.55-2-2.15-3.22-4.68-4.79-7.12-1.27-1.97-3.39-3.07-4.46-5.26-1.11-2.27-1.16-4.93-.73-7.42s1.3-4.88,1.96-7.32c1.56-5.74,1.93-11.85.84-17.71-.45-2.44-1.71-4.58-2.15-6.92-.5-2.66-.01-5.9.66-8.49,1.71-6.61,6.46-12.33,13.32-13.9,2.64-.6,5.71.02,8.33-.55Z"/>
            <path class="cls-14" d="M162.46,104.63c-2.61,8.89-1.48,18.81,3.06,26.88-2.8,3.44-7.61,4.49-12,5.08-8.65,1.17-17.89.44-25.36-4.06,3.64-2.5,6.08-8,6.07-12.41-.03-12.16-1.01-11.08-1.14-15.5,8.53,1.63,21.67,4,29.37,0Z"/>
            <path class="cls-14" d="M167.52,73.94s3.46,42.62-19.69,42.62-22.07-42.62-22.07-42.62c0,0,3.42-11.25,20.97-11.25s20.79,11.25,20.79,11.25Z"/>
            <path class="cls-14" d="M164.02,95.49c1.89.56,4.02-.29,5.31-1.79s1.82-3.53,1.84-5.5c.01-1.21-.23-2.56-1.19-3.3-.64-.49-1.5-.62-2.3-.53s-1.56.4-2.31.69c-.46,3.11-.9,7.31-1.35,10.43Z"/>
            <path class="cls-14" d="M130.72,95.49c-1.89.56-4.02-.29-5.31-1.79s-1.82-3.53-1.84-5.5c-.01-1.21.23-2.56,1.19-3.3.64-.49,1.5-.62,2.3-.53s1.56.4,2.31.69c.46,3.11.9,7.31,1.35,10.43Z"/>
            <path class="cls-13" d="M123.44,78.77c7.35-2.08,13.62-7.69,16.48-14.78,1.03,1.01,2.36,1.81,3.71,2.32,3.22,1.23,6.59,2.01,9.89,3.01s6.58,2.23,9.37,4.24,5.08,4.91,5.78,8.29c1.38-4.51.49-10.33-2.26-14.16-2.75-3.83-6.99-6.44-11.53-7.71s-9.36-1.25-14.01-.5c-4.89.79-9.81,2.48-13.39,5.9s-5.71,8.71-4.04,13.37Z"/>
            <path class="cls-12" d="M130.66,131.47c10.96,3.77,23.29,3.4,34.01-1.02-1.37,32.92-5.01,65.52-11.09,97.91-4.98-1.22-10.09-1.89-15.21-1.99.12,0-.01-15.94-.04-17.39-.12-5.71-1.01-11.18-1.78-16.83-1.57-11.63-2.72-23.31-3.43-35.03-.13-2.22-.3-4.45-.36-6.68-.05-1.72.34-3.26.12-4.98-.59-4.68-1.42-9.35-2.22-14Z"/>
            <g>
              <g>
                <path class="cls-7" d="M164.21,135.16c-1.61,8.72-5.24,17.02-10.53,24.14-1.51,2.02-3.15,3.94-4.91,5.75-.32.33.18.83.5.5,6.25-6.42,10.97-14.27,13.74-22.79.79-2.43,1.42-4.91,1.88-7.42.08-.45-.6-.64-.69-.19Z"/>
                <path class="cls-7" d="M148.52,164.95c-5.59-4.09-10.17-9.52-13.29-15.71-.88-1.76-1.65-3.57-2.28-5.43-.15-.43-.83-.25-.69.19,2.31,6.71,6.23,12.85,11.35,17.76,1.43,1.37,2.95,2.64,4.55,3.8.37.27.73-.35.36-.61Z"/>
              </g>
              <path class="cls-18" d="M149.6,166.1s0,0,0,0c-.09-.43-.19-.87-.26-1.3-.05-.29-.36-.31-.55-.16-.2-.08-.43-.05-.6.15-.13.14-.18.35-.25.53-.08.21-.16.43-.23.65-.14.42-.25.85-.33,1.29-.14.7-.33,1.56-.05,2.25.29.72,1.08.97,1.76.63.72-.36.91-1.17.88-1.92.03-.71-.15-1.43-.36-2.1Z"/>
            </g>
            <path class="cls-16" d="M139.89,197.94c-1.51-12.9-3.02-25.79-4.53-38.69-.69-5.92-.83-11.83-1.37-17.77-.27-3.01-.47-6.02-.52-9.04-.05-2.87.02-5.59.3-8.44-3.11,3.6-8.59,5.12-12.94,6.54-4.69,1.52-9.51,2.81-14.38,3.64-3.82.65-8.02,1.45-10.76,4.46-1.73,1.9-2.84,4.27-3.83,6.63-7.7,18.36-9.84,38.59-10.06,58.49-.06,5.75.05,11.64,2.1,17.01,2.17,5.7,8.52,14.15,15.41,10.84,2.63-1.26,5.36-4.71,7.24-6.94,11.73.31,22.98.04,34.7.35.55.01.87,1.74,1.24,1.34.44-.47.32-1.22.16-1.84-2.15-8.78-1.64-17.57-2.77-26.58Z"/>
            <path class="cls-16" d="M197.19,141.48c-.3,11.84-.6,23.68-1.32,35.5-.39,6.35-.91,12.69-1.61,19.01-.35,3.16-.75,6.31-1.21,9.46-.29,2.01-.19,5.16-1.55,6.82-1.39,1.7-4.61,2.46-6.54,3.28-2.85,1.22-5.73,2.37-8.63,3.45-5.69,2.13-11.47,4.01-17.32,5.63-1.18.33-2.5.63-3.59.08-1.82-.92-1.84-3.47-1.6-5.5.83-7.09,1.66-14.19,2.49-21.28,1.51-12.9,3.02-25.79,4.53-38.69.69-5.92,1.54-11.83,2.08-17.77.27-3.01.47-6.02.52-9.04.05-2.87-.73-5.59-1.01-8.44,3.11,3.6,8.59,5.12,12.94,6.54,4.86,1.58,9.82,2.82,14.85,3.72,2.43.43,5.22.23,6.39,2.41.65,1.21.63,3.44.6,4.81Z"/>
            <path class="cls-15" d="M119.59,84.32c.28.68,1.12,3.06,1.22,3.37.3.95.21,1.76.41,2.73.41,2,.64,4.03.87,6.05.46,3.92.93,7.96,2.8,11.51,1.17,2.22,2.84,4.13,4.14,6.28.94,1.55,1.71,3.3,1.86,5.13.1,1.2.48,3.78-.36,4.76-.61.72-1.79.38-2.6-.12-2.59-1.6-4.41-4.23-5.58-7.05-1.17-2.81-1.74-5.83-2.3-8.83-.64-3.42-1.29-6.84-1.93-10.25-.51-2.73-.94-5.47-.56-8.25.23-1.66,1.02-3.97,2.01-5.33Z"/>
            <path class="cls-3" d="M123.28,81.41c2.22,6.17,10.56,28.67,12.78,34.66.3.82-.79,1.74-1.56,2.07l-.74.32c-.8.34-1.71-.07-2.02-.91l-12.78-34.66c-.3-.81.07-1.73.84-2.07l.74-.33c.8-.36,2.44.06,2.75.91Z"/>
            <path class="cls-14" d="M119.94,133c1.39-5.06-.38-10.41-2.38-15.26-2-4.85-4.29-9.85-3.94-15.08.25-3.79,1.89-7.3,3.93-10.45,1.04-1.61,2.2-3.15,3.38-4.66.52-.67,2.19-2.2,2.43-.46.27,2.07-.47,4.14-1.32,6.05s-1.83,3.81-2.08,5.89c1.2-1.06,2.96-1.32,4.52-.95,1.56.36,2.96,1.21,4.32,2.04.7.42,1.49,1.07,1.31,1.86-.13.59-.79.93-1.4.95s-1.19-.2-1.79-.32c-1.53-.32-3.19-.02-4.51.84s-2.27,2.24-2.6,3.78c3.59-2.02,7.76-2.37,11.71-1.19.43.13.91.33,1.07.75.17.46-.15.98-.57,1.22s-.93.27-1.42.33c-2.19.24-4.33.95-6.22,2.08-1.63.97-1.1,2-.6,3.83s1.93,3.26,3.42,4.43,3.13,2.21,4.33,3.68c1.89,2.31,2.5,5.46,2.28,8.44s-1.19,5.84-2.16,8.66c-2.63-.31-5.17-.84-7.67-1.73-1.17-.42-2.36-.93-3.17-1.86-.31-.36-.55-.77-.72-1.21"/>
            <path class="cls-14" d="M149.56,240.57c-6.22,1.79-12.11,4.74-17.27,8.64-1.95,1.48-3.8,3.09-5.87,4.4s-4.4,2.31-6.85,2.39c-.6.49-1.35.68-2.12.68-.32,0-.67-.05-.9-.28-.23-.23-.29-.58-.3-.9-.02-.9.3-1.77.75-2.55.45-.77,1.04-1.46,1.62-2.14-1.06,1.2-2.65,2.71-3.87,3.75-.56.48-1.3.96-1.99.69-.36-.14-.63-.48-.75-.85s-.13-.77-.09-1.16c.11-1.24.62-2.44,1.42-3.39-.37.15-.92-.03-.98-.42-.3-2.04.69-4.04,1.8-5.77,2.39-3.73,5.5-7,9.12-9.56,6.19-4.39,12.33-7.57,19.81-8.87,1.57,4.83,4.3,10.75,6.48,15.33Z"/>
            <path class="cls-16" d="M196.59,136.67c2.92,2.95,4.84,6.73,6.61,10.49,8.84,18.76,15.18,38.7,18.82,59.11,1.12,6.27,1.84,13.27-1.76,18.52-2.83,4.14-7.75,6.26-12.46,7.98-18.99,6.92-39.7,10.25-59.9,10.58-3.6-6.31-5.7-13.47-6.08-20.72,17.01-5.84,34.25-12.51,51.26-18.35.07-21.74,2.4-45.91,3.52-67.62Z"/>
            <path class="cls-16" d="M119.73,203.84c7.44-21.5,12.1-43.82,13.76-66.51-3.39-2.77-10.14-6.81-17.65-9.09-4.14,14.89-10.97,29.16-18.23,42.8-4.37,8.21-6.41,12.39-9.3,21.23-2.89,8.85-4.34,18.3-2.98,27.51.47,3.23,1.33,6.49,3.25,9.13s5.08,4.55,8.33,4.26c2.61-.23,4.9-1.79,6.92-3.46,8.24-6.8,12.39-15.77,15.89-25.87Z"/>
            <g>
              <path class="cls-13" d="M138.23,77.68c.36-.06.73-.12,1.08-.02.52.15.9.65.93,1.19.03.53-.28,1.07-.74,1.33-.52.29-1.16.26-1.76.23-1.41-.06-2.83-.02-4.23.13-.72.07-1.43.17-2.14.3-.36.06-1.45.5-1.77.31-.59-.34.32-1.08.67-1.33.93-.69,2.24-.88,3.34-1.16,1.53-.39,3.07-.72,4.62-.98Z"/>
              <path class="cls-13" d="M155.07,77.68c-.36-.06-.73-.12-1.08-.02-.52.15-.9.65-.93,1.19-.03.53.28,1.07.74,1.33.52.29,1.16.26,1.76.23,1.41-.06,2.83-.02,4.23.13.72.07,1.43.17,2.14.3.36.06,1.45.5,1.77.31.59-.34-.32-1.08-.67-1.33-.93-.69-2.24-.88-3.34-1.16-1.53-.39-3.07-.72-4.62-.98Z"/>
              <g>
                <path class="cls-12" d="M162.82,85.11c.23.12.47.28.53.53.08.3-.13.59-.33.82-.86.99-1.83,1.88-2.9,2.64-.46.33-1.07.64-1.56.36-.37-.21-.5-.68-.56-1.11-.14-1.07-.17-3.43.87-4.14.98-.66,3.07.43,3.94.9Z"/>
                <path class="cls-12" d="M140.16,85.11c.23.12.47.28.53.53.08.3-.13.59-.33.82-.86.99-1.83,1.88-2.9,2.64-.46.33-1.07.64-1.56.36-.37-.21-.5-.68-.56-1.11-.14-1.07-.17-3.43.87-4.14.98-.66,3.07.43,3.94.9Z"/>
                <path class="cls-13" d="M163.01,85.72c-.92-.72-2.1-1.13-3.26-1.34.63.73.87,1.75.75,2.71-.13,1.1-.7,2.18-1.74,2.65-1.06.48-2.28.23-3.21-.43-.48-.34-.9-.78-1.19-1.29-.23-.39-.33-.77-.38-1.22-.06-.51-.16-1.65.35-2.05.01-.09.06-.17.14-.23,1.27-.97,3.04-1.12,4.59-.95,1.58.18,3.18.66,4.45,1.64.36.28-.15.78-.5.5Z"/>
                <path class="cls-13" d="M140.32,85.72c-.92-.72-2.1-1.13-3.27-1.34.63.73.87,1.75.76,2.71-.13,1.1-.7,2.18-1.75,2.65-1.05.48-2.28.23-3.21-.43-.48-.34-.89-.78-1.19-1.29-.22-.39-.32-.77-.38-1.22-.06-.51-.15-1.65.35-2.05.02-.09.06-.17.14-.23,1.28-.97,3.04-1.12,4.59-.95,1.58.18,3.18.66,4.44,1.64.36.28-.14.78-.5.5Z"/>
              </g>
              <path class="cls-19" d="M146.81,99.15c-.17,0-.34,0-.51-.03-.73-.08-1.36-.37-1.76-.82-.45-.5-.67-1.23-.61-2.06.04-.63.22-1.24.39-1.83l.06-.22c.78-2.69,1.2-5.47,1.23-8.27,0-.1.08-.18.18-.18h0c.1,0,.18.08.18.18-.04,2.83-.46,5.65-1.25,8.37l-.06.22c-.17.57-.34,1.16-.38,1.76-.03.43,0,1.23.52,1.8.34.38.89.63,1.53.71.6.07,1.21-.01,1.8-.09.09,0,.19.06.2.15.01.1-.06.19-.15.2-.45.06-.91.12-1.38.12Z"/>
              <g>
                <path class="cls-19" d="M152.81,103.21c-.02.38-.14.76-.26,1.12-.22.7-.39,1.43-.72,2.09-.51,1.01-1.33,1.94-2.42,2.34-1.12.42-2.35.25-3.42-.22-1.11-.49-2.09-1.29-2.89-2.21-.63-.72-1.14-1.58-1.3-2.52-.04-.21-.06-.43-.06-.64,0-.18.11-.28.26-.32.06-.15.21-.26.41-.23,1.73.31,3.46.54,5.23.47.87-.04,1.74-.13,2.61-.21.68-.07,1.4-.15,2.01-.48.2-.11.46-.02.52.21.05.2.06.41.04.6Z"/>
                <path class="cls-12" d="M152.81,103.21c-1.36,1.59-3.52,2.37-5.61,2.33-1.84-.04-3.59-.68-5.17-1.59-.08-.04-.16-.09-.23-.14-.04-.21-.06-.43-.06-.64,0-.18.11-.28.26-.32.06-.15.21-.26.41-.23,1.73.31,3.46.54,5.23.47.87-.04,1.74-.13,2.61-.21.68-.07,1.4-.15,2.01-.48.2-.11.46-.02.52.21.05.2.06.41.04.6Z"/>
              </g>
              <path class="cls-9" d="M162.88,93.14c.5.18,1.01.46,1.26.93.41.77-.05,1.78-.79,2.25-.74.47-1.66.52-2.53.51-.63,0-1.26-.05-1.86-.25-.59-.2-1.15-.59-1.43-1.15-1.45-2.89,3.94-2.8,5.35-2.28Z"/>
              <path class="cls-9" d="M135,93.14c.5.18,1.01.46,1.26.93.41.77-.05,1.78-.79,2.25-.74.47-1.66.52-2.53.51-.63,0-1.26-.05-1.86-.25-.59-.2-1.15-.59-1.43-1.15-1.45-2.89,3.94-2.8,5.35-2.28Z"/>
              <path class="cls-19" d="M169.74,90.65s-.03,0-.05,0c-.1-.02-.15-.12-.13-.22.13-.5.28-1.07.31-1.63.03-.6-.08-1.13-.32-1.53-.28-.47-.75-.77-1.23-.8-.1,0-.17-.09-.17-.19,0-.1.09-.18.19-.17.59.03,1.17.4,1.51.97.28.47.41,1.07.37,1.74-.03.6-.19,1.18-.32,1.7-.02.08-.09.13-.17.13Z"/>
              <path class="cls-19" d="M148.04,116.74c-.07,0-.14,0-.21,0-5.03-.05-8.54-1.94-10.6-3.51-2.24-1.71-3.27-3.38-3.31-3.45-.05-.08-.02-.19.06-.24.08-.05.19-.02.24.06.04.07,4.2,6.69,13.62,6.79,4.92.04,8.15-1.8,9.99-3.36,1.99-1.69,2.83-3.4,2.84-3.42.04-.09.15-.12.24-.08.09.04.13.15.08.24-.04.07-.88,1.8-2.93,3.53-1.86,1.58-5.11,3.44-10.02,3.44Z"/>
            </g>
            <g>
              <path class="cls-11" d="M172.22,105.38c-.74-1.44-1.41-2.91-1.69-4.52-.08-.45-.76-.26-.69.19.81,4.76,5.62,8.88,3.58,13.96-.48,1.19-1.32,2.2-2.42,2.86-.39.23-.04.85.36.61,2.03-1.22,3.16-3.43,3.27-5.76.14-2.67-1.24-5.04-2.42-7.34Z"/>
              <path class="cls-11" d="M169.66,110.97c-.11-.44-.8-.26-.69.19.47,1.85.49,3.83-.14,5.65-.54,1.55-1.61,2.86-1.85,4.52-.07.45.62.64.69.19.26-1.74,1.44-3.13,1.94-4.79.57-1.88.53-3.87.05-5.76Z"/>
              <path class="cls-11" d="M163.98,118.2c-.33,1.24-.62,2.54-.51,3.84.02.19.15.36.36.36.18,0,.37-.16.36-.36-.11-1.24.17-2.46.49-3.65.12-.44-.57-.63-.69-.19Z"/>
              <path class="cls-11" d="M164.23,74.6c-1.45-1.25-2.94-2.45-4.68-3.27-1.86-.87-3.85-1.42-5.82-1.95-2.24-.6-4.43-1.29-6.63-2.04-1.2-.41-2.36-.79-3.44-1.47-1-.63-1.94-1.38-2.97-1.97-.4-.23-.76.38-.36.61,1.79,1.04,3.31,2.41,5.3,3.08,2.18.73,4.34,1.51,6.56,2.12,1.96.54,3.94,1.02,5.84,1.75.93.36,1.84.79,2.69,1.31.79.49,1.49,1.08,2.21,1.67,1.29,1.05,2.49,2.18,3.29,3.66.28.51.58,1.11,1.14,1.28.14.04.32.04.42-.07.14-.16.03-.41-.08-.58-.95-1.5-2.14-2.96-3.48-4.12Z"/>
              <path class="cls-11" d="M166.06,72.47c-.85-1.22-1.37-2.66-2.48-3.7-1.12-1.06-2.57-1.69-3.96-2.3-1.53-.67-3.11-1.24-4.72-1.67-1.63-.43-3.29-.74-4.93-1.11-1.87-.43-3.72-.95-5.45-1.81-.41-.2-.77.41-.36.61,2.94,1.46,6.18,1.96,9.35,2.7,1.6.37,3.17.85,4.7,1.45,1.45.57,2.99,1.19,4.26,2.12,1.43,1.05,1.99,2.65,2.97,4.06.26.37.88.02.61-.36Z"/>
              <path class="cls-11" d="M170.93,74.03c-.54-2.46-1.92-4.64-3.78-6.32-1.06-.96-2.27-1.75-3.54-2.4-.41-.21-.77.4-.36.61,2.1,1.08,4.03,2.56,5.37,4.53,1.46,2.15,2.1,4.78,1.83,7.36-.16,1.59-.67,3.12-1.23,4.61-.16.43.53.61.69.19,1.04-2.79,1.68-5.61,1.02-8.57Z"/>
              <path class="cls-11" d="M139.16,64.72c-.74,2.5-2,4.88-3.8,6.79-.95,1-2.06,1.79-3.18,2.58-1.12.79-2.28,1.51-3.59,1.91-1.29.4-2.64.67-3.72,1.53-.36.29.15.79.5.5,1-.8,2.34-1.01,3.53-1.39,1.33-.42,2.51-1.15,3.64-1.94,1.11-.78,2.22-1.56,3.18-2.54.92-.94,1.71-2.01,2.37-3.15.75-1.29,1.34-2.68,1.76-4.11.13-.44-.56-.63-.68-.19Z"/>
              <path class="cls-11" d="M136.65,62.51c-.34,1.98-1.63,3.59-3.14,4.85-1.51,1.26-3.29,2.24-5.16,2.84-.43.14-.25.83.19.69,1.99-.65,3.87-1.68,5.47-3.03,1.59-1.33,2.97-3.08,3.32-5.16.08-.45-.61-.64-.69-.19Z"/>
              <path class="cls-11" d="M139.64,50.54c-.11-.44-.79-.26-.69.19.77,3.19,1.75,6.81.64,10.03-.15.43.54.62.69.19,1.16-3.34.16-7.1-.64-10.41Z"/>
              <path class="cls-11" d="M170.7,61.11c-1.57-3.4-3.82-6.54-6.99-8.62-3.28-2.15-7.33-3.44-11.22-3.81-2.43-.23-4.86.04-7.22.66-.44.12-.25.8.19.69,2.02-.53,4.08-.81,6.17-.7,2.03.1,4.04.54,5.98,1.15,1.78.56,3.53,1.29,5.13,2.25,1.58.95,2.96,2.17,4.15,3.57,1.33,1.55,2.34,3.33,3.2,5.17.19.41.81.05.61-.36Z"/>
              <path class="cls-11" d="M169.95,65.58c-1.13-2.09-2.34-4.1-4.1-5.72-.34-.31-.84.19-.5.5,1.72,1.58,2.89,3.54,3.99,5.57.22.4.83.04.61-.36Z"/>
            </g>
            <g>
              <path class="cls-21" d="M123.39,112.28c.07,1.79,1.01,3.46,2.2,4.8s2.64,2.43,3.99,3.61c1.35,1.18,2.64,2.51,3.37,4.15,1.06,2.37.83,5.08.59,7.66"/>
              <path class="cls-21" d="M123.17,86.88c.38,2.05-.32,4.14-1.17,6.04s-1.84,3.79-2.1,5.86"/>
              <path class="cls-21" d="M120.06,106.52c.74-1.88,2.48-3.34,4.46-3.74,1.54-.32,3.14-.03,4.69.26"/>
              <path class="cls-21" d="M123.71,110.94c2.45-1.58,5.26-2.6,8.16-2.93"/>
            </g>
            <g>
              <path class="cls-21" d="M119.85,255.6c2.3-3.14,4.99-6,7.97-8.5"/>
              <path class="cls-21" d="M118.84,250.51c2.22-2.54,4.6-4.94,7.12-7.18"/>
              <path class="cls-21" d="M113.66,249.64c3-4,6.48-7.63,10.34-10.79"/>
            </g>
            <path class="cls-1" d="M181,146.97c-.41-1.14-1.16-2.14-1.93-3.07-.81-.98-1.7-1.88-2.52-2.85-1.01-1.18-1.98-2.39-2.97-3.58-2.11-2.53-4.2-5.07-6.03-7.8-.45-.67-.88-1.35-1.29-2.04-.23-.39-.85-.04-.61.36,1.65,2.76,3.6,5.31,5.63,7.8,1.88,2.31,3.74,4.65,5.74,6.86,1.56,1.72,3.67,3.71,3.5,6.23-.1,1.37-.57,2.71-1.04,3.99-.48,1.28-.99,2.54-1.44,3.83-2.17,6.34-3.95,12.8-5.83,19.24-1.87,6.42-3.84,12.82-6.34,19.03-2.44,6.05-4.28,12.31-6.21,18.53-.23.75-.47,1.5-.7,2.25-.14.44.55.62.69.19,1.97-6.27,3.78-12.6,6.11-18.75,1.18-3.11,2.43-6.19,3.5-9.35,1.09-3.21,2.09-6.45,3.05-9.7,1.92-6.51,3.7-13.06,5.83-19.5.46-1.4.94-2.79,1.48-4.16.52-1.32,1.05-2.64,1.37-4.03.26-1.13.42-2.36.02-3.47Z"/>
            <path class="cls-1" d="M137.78,220.31c-1.32-4.13-2.53-8.28-4.1-12.32-1.54-3.97-3.25-7.87-4.86-11.81-.91-2.22-1.78-4.46-2.56-6.73-.15-.43-.84-.25-.69.19,2.78,8.04,6.64,15.65,9.29,23.74.77,2.37,1.48,4.76,2.23,7.13.14.43.83.25.69-.19Z"/>
            <path class="cls-1" d="M196.72,204.71c-2.65,1-5.38,1.74-8.06,2.64-2.74.92-5.48,1.86-8.23,2.75-2.76.9-5.52,1.79-8.26,2.76-2.69.96-5.46,1.66-8.16,2.57-3.03,1.02-5.98,2.23-9.09,3.01-.44.11-.26.8.19.69,2.77-.69,5.44-1.71,8.12-2.67,2.69-.96,5.46-1.65,8.15-2.57,2.75-.93,5.48-1.89,8.24-2.78,2.76-.9,5.52-1.79,8.25-2.74,2.99-1.04,6.06-1.85,9.03-2.97.42-.16.24-.85-.19-.69Z"/>
            <path class="cls-1" d="M196.02,138.76c-.94,6.66-1.69,13.35-2.23,20.05-.04.46.67.45.71,0,.54-6.64,1.27-13.27,2.2-19.87.06-.45-.62-.64-.69-.19Z"/>
            <path class="cls-1" d="M193.28,165.91c-.45,10.11-.81,20.22-1.08,30.33-.07,2.84-.14,5.68-.2,8.52,0,.46.7.46.71,0,.21-10.11.51-20.23.91-30.33.11-2.84.23-5.67.36-8.51.02-.46-.69-.46-.71,0Z"/>
            <path class="cls-1" d="M198.64,194.53c-.62,2.96-1.68,5.81-3.16,8.45-.22.4.39.76.61.36,1.5-2.69,2.6-5.6,3.23-8.62.09-.45-.59-.64-.69-.19Z"/>
            <path class="cls-1" d="M204.11,200.93c-1.95.44-3.82,1.18-5.53,2.19-.39.23-.04.85.36.61,1.67-.98,3.47-1.7,5.36-2.12.45-.1.26-.79-.19-.69Z"/>
            <path class="cls-1" d="M133.5,140.04c-.87,5.8-1.74,11.59-2.69,17.37-.95,5.81-1.99,11.61-3.18,17.37-1.18,5.72-2.52,11.41-4.09,17.04-1.57,5.62-3.38,11.18-5.48,16.63-1.9,4.92-4.11,9.88-7.68,13.84-.43.48-.88.94-1.35,1.39-.33.32.17.82.5.5,3.83-3.64,6.3-8.4,8.29-13.23,2.21-5.36,4.06-10.89,5.69-16.46,1.66-5.66,3.07-11.39,4.31-17.16,1.24-5.78,2.31-11.6,3.29-17.43.98-5.84,1.87-11.69,2.75-17.54.11-.72.21-1.43.32-2.15.07-.45-.62-.64-.69-.19Z"/>
            <path class="cls-1" d="M113.16,134.31c-1.94,6.35-4.14,12.63-6.6,18.8-2.46,6.2-5.18,12.29-8.15,18.26-1.67,3.36-3.41,6.68-5.23,9.96-.22.4.39.76.61.36,3.25-5.86,6.26-11.85,9.02-17.95,2.74-6.06,5.23-12.22,7.47-18.48,1.27-3.56,2.46-7.14,3.56-10.75.13-.44-.55-.63-.69-.19Z"/>
            <path class="cls-1" d="M90.49,185.32c-1.7,2.76-2.68,5.91-2.84,9.15-.02.46.69.46.71,0,.15-3.12,1.1-6.14,2.74-8.79.24-.39-.37-.75-.61-.36Z"/>
            <path class="cls-1" d="M93.39,196.67c-.82-2.85-.92-5.87-.26-8.77.1-.45-.58-.64-.69-.19-.68,3.02-.6,6.17.26,9.14.13.44.81.25.69-.19Z"/>
            <path class="cls-18" d="M169.68,93.92c-.32-.64-.97-1.07-1.6-1.36-.18-.08-.38-.05-.49.13-.09.15-.05.41.13.49.47.21.97.49,1.26.94.34.53.24,1.19,0,1.75-.22.5-.58.96-1.09,1.19-.46.21-1.07.21-1.47-.11-.15-.12-.36-.15-.5,0-.12.12-.15.38,0,.5.59.47,1.38.59,2.1.32.7-.26,1.24-.83,1.55-1.49.35-.73.5-1.6.12-2.35Z"/>
          </g>
          <g>
            <path class="cls-7" d="M64.16,215.01l-4.81,30.44s-5.9,3.57-15.53,0l-2.8-30.44s10.41,3.26,23.14,0Z"/>
            <ellipse class="cls-5" cx="52.59" cy="215.01" rx="11.57" ry="2.35"/>
            <path class="cls-8" d="M63.19,198.67l-3.25,17.2c-.89.14-1.76.25-2.61.34.81-5.15,2.76-18.11,2.76-18.11l3.1.56Z"/>
            <g>
              <path class="cls-16" d="M50.07,216.4c-1.34-.07-2.56-.19-3.65-.32l-3.79-16.18.02-.31.2-3.59.15-2.67,1.51,2.44,1.97,3.19.04.17,3.55,17.27Z"/>
              <path class="cls-4" d="M46.52,199.13c-.8.33-2.07.63-2.32.67-.59.1-1.15.13-1.55-.22l.2-3.59.15-2.67,1.51,2.44,1.97,3.19.04.17Z"/>
              <path class="cls-5" d="M44.51,195.76c-.51.17-1.11.25-1.66.23l.15-2.67,1.51,2.44Z"/>
            </g>
            <g>
              <path class="cls-18" d="M56.99,193.17l-.02.4-1.11,24.07c-1.11.08-2.18.11-3.21.12l.57-24.73v-.14s1.13-3.63,1.13-3.63l.85-2.75.96,3.57.83,3.09Z"/>
              <path class="cls-4" d="M56.99,193.17l-.02.4c-.06.02-.1.03-.16.04-1.16.26-2.69.12-3.58-.59v-.14s1.13-3.63,1.13-3.63l.85-2.75.96,3.57.83,3.09Z"/>
              <path class="cls-5" d="M56.17,190.08c-.31.15-.76.05-1.37-.43-.15-.12-.29-.25-.43-.4l.85-2.75.96,3.57Z"/>
            </g>
            <path class="cls-17" d="M64.16,215.01l-4.82,30.44s-5.9,3.57-15.53,0l-2.79-30.44s2.03.64,5.4,1.07c1.09.14,2.31.25,3.65.32.82.04,1.69.06,2.59.06,1.03,0,2.09-.04,3.21-.12.48-.03.97-.07,1.46-.12.85-.09,1.72-.2,2.61-.34,1.37-.22,2.79-.5,4.23-.87Z"/>
          </g>
          <g>
            <g>
              <path class="cls-2" d="M290.88,218.9c-1.16-2.55-68.5.46-70.82,2.31-1.21.97-8.76,15.06-15.69,28.28-12.73.24-40.42-1.54-51.33-1.05,0,0,.25,2.75,0,3.09-1.02,1.39,37.17,20.76,39.25,21.29.41.45,1.45.46,1.99.53,2.19.26,4.41.28,6.62.3,3.29.03,6.58-.02,9.88-.1,3.93-.1,7.86-.24,11.79-.41,4.12-.18,8.23-.39,12.35-.62,3.85-.22,7.71-.46,11.56-.74,3.14-.22,6.29-.47,9.42-.76,1.16-.11,2.33-.22,3.49-.36,1.41-.16,2.69-.19,3.36-1.71.51-1.15.69-2.5,1.07-3.71.29-.94.64-1.86,1.01-2.77,1.45-3.52,3.29-6.87,5.2-10.16,2.2-3.78,4.55-7.47,6.95-11.13,2.29-3.49,4.63-6.95,6.95-10.41,1.77-2.64,3.57-5.28,5.22-8,.5-.83,1.01-1.68,1.41-2.56.15-.33.5-.95.33-1.33Z"/>
              <path class="cls-8" d="M220.76,246.13s-66.69.93-67.71,2.31c-1.02,1.39,37.17,20.76,39.25,21.29,2.07.54,28.47-23.61,28.47-23.61Z"/>
              <path class="cls-10" d="M208.43,251.96c-.59.15-34.48.29-35.07,1.33s25.64,12.67,25.64,12.67l9.43-14Z"/>
              <path class="cls-8" d="M192.29,269.73s25.46-49.76,27.77-51.61c2.31-1.85,71.51-4.86,72.67-2.31,2.03,4.47-29.6,51.13-29.62,51.15-2.55,1.39-68.5,5.32-70.82,2.78Z"/>
              <path class="cls-10" d="M243.85,244.94c1.51-.02,2.96-.64,4.27-1.4,1.23-.71,2.42-1.58,3.18-2.78s1.02-2.79.38-4.06c-2.05-4.06-8.1-1.14-10.61.81-3.27,2.53-1.37,7.48,2.79,7.42Z"/>
            </g>
            <path class="cls-2" d="M203.71,247.41c-3.13,5.47-6.09,11.03-8.88,16.69-.79,1.6-1.57,3.21-2.33,4.83-.17.36.36.67.53.31,2.69-5.7,5.55-11.32,8.59-16.84.86-1.57,1.73-3.12,2.62-4.67.2-.35-.34-.66-.53-.31Z"/>
            <path class="cls-2" d="M192.46,263.39c-5.05-2.15-9.95-4.66-14.64-7.51-1.35-.82-2.68-1.66-3.99-2.54-.33-.22-.64.31-.31.53,4.57,3.04,9.36,5.75,14.32,8.11,1.42.68,2.86,1.32,4.31,1.94.36.15.68-.38.31-.53Z"/>
            <path class="cls-2" d="M197.52,255.1c-1.1-.57-2.16-1.2-3.2-1.88.93,0,1.87,0,2.8,0,.4,0,.4-.62,0-.62l-16.33.03h-4.68c-.4.01-.4.63,0,.63l16.33-.03h.91c.01.07.05.14.13.2.93.63,1.9,1.2,2.89,1.75-2.86.02-5.71.11-8.56.25-1.04-.68-2.07-1.35-3.1-2.04-.33-.22-.64.31-.31.53.79.53,1.59,1.04,2.38,1.57-2.45.13-4.89.29-7.34.51-.39.03-.4.65,0,.62,2.73-.24,5.46-.42,8.2-.56,1.58,1.03,3.17,2.04,4.77,3.03-1.22.05-2.44.09-3.67.14-.4.02-.4.63,0,.62,1.54-.06,3.07-.12,4.61-.18.25.16.5.32.76.47.33.2.63-.29.34-.51l1.88-.07c.4-.02.4-.63,0-.62-.94.04-1.87.07-2.81.11-1.62-.99-3.23-2-4.82-3.03,2.62-.12,5.24-.19,7.86-.21.22,0,.31-.19.29-.35.12.07.25.14.37.21.35.18.66-.35.31-.53Z"/>
          </g>
        </g>
      </g>
    </g>
  </g>
</svg>