<?xml version="1.0" encoding="UTF-8"?>
<svg id="Layer_2" data-name="Layer 2" xmlns="http://www.w3.org/2000/svg" viewBox="0 0 320.19 298.94">
  <defs>
    <style>
      .cls-1 {
        fill: #b16769;
      }

      .cls-1, .cls-2, .cls-3, .cls-4, .cls-5, .cls-6, .cls-7, .cls-8, .cls-9, .cls-10, .cls-11, .cls-12, .cls-13, .cls-14, .cls-15 {
        stroke-width: 0px;
      }

      .cls-2 {
        fill: #e0e1e0;
      }

      .cls-3 {
        fill: #384850;
      }

      .cls-4 {
        fill: #f4908f;
      }

      .cls-5 {
        fill: #f7a7a8;
      }

      .cls-6, .cls-11, .cls-15 {
        fill: #010101;
      }

      .cls-7 {
        fill: #f1f0f0;
      }

      .cls-8 {
        fill: #fafbfc;
      }

      .cls-9, .cls-12 {
        fill: #fff;
      }

      .cls-16, .cls-12 {
        opacity: .6;
      }

      .cls-10 {
        fill: #465b65;
      }

      .cls-11, .cls-12, .cls-15 {
        isolation: isolate;
      }

      .cls-11, .cls-17 {
        opacity: .15;
      }

      .cls-13 {
        fill: #7a7ba6;
      }

      .cls-18 {
        opacity: .2;
      }

      .cls-14 {
        fill: #273339;
      }

      .cls-15 {
        opacity: .1;
      }
    </style>
  </defs>
  <g id="Layer_7" data-name="Layer 7">
    <g>
      <g id="Floor">
        <ellipse id="Floor-2" data-name="Floor" class="cls-7" cx="160.1" cy="206.51" rx="160.1" ry="92.43"/>
      </g>
      <g id="Shadow">
        <ellipse id="Shadow-2" data-name="Shadow" class="cls-2" cx="126.97" cy="244.68" rx="55.21" ry="31.87"/>
      </g>
      <g id="Plants">
        <g id="Plants-2" data-name="Plants">
          <g>
            <path class="cls-13" d="M283.96,204.81l-6.47-3.74s-1.59-13.86-.53-24.6c1.48-15.09,11.23-33.24,22.85-28.98,11.62,4.26-5.33,19.63-9.1,32.43-3.77,12.8-6.74,24.89-6.74,24.89Z"/>
            <path class="cls-11" d="M283.96,204.81l-6.47-3.74s-1.59-13.86-.53-24.6c1.48-15.09,11.23-33.24,22.85-28.98,11.62,4.26-5.33,19.63-9.1,32.43-3.77,12.8-6.74,24.89-6.74,24.89Z"/>
            <path class="cls-9" d="M280.56,203.23h.01c.22,0,.39-.19.38-.41-1.14-33.52,15.55-50.39,15.72-50.55.15-.15.16-.4,0-.55-.15-.15-.4-.16-.55,0-.17.17-17.1,17.27-15.95,51.14,0,.21.18.38.39.38Z"/>
          </g>
          <g>
            <path class="cls-13" d="M288.03,207.14l-4.61-2.66s-.78-9.51,3.88-21.07c4.06-10.06,14.14-18.41,19.2-16.65s4.94,5.35,2.47,9.12c-2.47,3.77-17.5,12.75-20.95,31.27Z"/>
            <path class="cls-9" d="M285.6,206.13h0c.22,0,.39-.18.39-.39-.09-21.2,19.81-35.52,20.01-35.67.18-.13.22-.37.09-.55-.12-.18-.37-.22-.55-.09-.2.14-20.44,14.71-20.34,36.31,0,.22.18.39.39.39Z"/>
          </g>
        </g>
        <g id="Plants-3" data-name="Plants">
          <g>
            <path class="cls-13" d="M44.34,196.48l5.98-4.03s2.63-15.66.19-29.42c-3.44-19.34-16.78-25.78-21.54-23.76-4.76,2.02-5.78,7.79,3.1,18.83,5.24,6.51,12.08,20.37,12.27,38.38Z"/>
            <g class="cls-17">
              <path class="cls-6" d="M44.34,196.48l5.98-4.03s2.63-15.66.19-29.42c-3.44-19.34-16.78-25.78-21.54-23.76-4.76,2.02-5.78,7.79,3.1,18.83,5.24,6.51,12.08,20.37,12.27,38.38Z"/>
            </g>
            <path class="cls-9" d="M46.39,188.73s-.04,0-.06,0c-.24-.03-.41-.24-.38-.48,2.16-18.21-5.53-37.97-13.89-45.83-.17-.16-.18-.44-.02-.61.16-.17.44-.18.61-.02,8.51,8,16.35,28.08,14.16,46.56-.03.22-.21.38-.42.38Z"/>
          </g>
          <g>
            <path class="cls-13" d="M28.68,207.04c-.95.57-3.72-1.49-4.49-1.98-1.31-.84-2.39-2.06-3.11-3.44-.84-1.61-1.08-3.34-.86-5.14.11-.93.36-1.84.6-2.75.24-.89.48-1.78.71-2.68.23-.88.47-1.79.34-2.69-.27-1.82-1.91-3.06-3.4-4.13-1.65-1.18-3.37-2.76-3.4-4.95-.03-1.69.82-3.28,1.84-4.62,1.02-1.35,2.24-2.54,3.16-3.96.66-1.02,1.17-2.22,1.04-3.42-.08-.75-.41-1.45-.78-2.11-.8-1.41-1.85-2.7-2.41-4.22-.56-1.52-.52-3.43.65-4.55.96-.92,2.42-1.07,3.75-1.01,1.23.06,2.44.59,3.53,1.17,3.51,1.87,5.58,5.95,9.3,7.36,1.43.55,3,.64,4.49,1.01s3.02,1.09,3.73,2.45c1.41,2.68-1.04,6.06-.03,8.92.89,2.53,3.38,3.45,4.81,5.71.63.99.79,2.15.71,3.31-.13,1.98-.39,3.43-1.29,5.65-.75,1.83-2.97,5.35-2.97,5.35,0,0-15.76,10.64-15.91,10.73Z"/>
            <path class="cls-9" d="M37.87,201.4h-.01c-.25,0-.43-.2-.43-.44.38-17.2-8.08-36.03-14.08-41.43-.18-.16-.19-.43-.03-.61.16-.18.43-.19.61-.03,6.12,5.51,14.75,24.64,14.37,42.09,0,.23-.19.42-.43.42Z"/>
            <path class="cls-9" d="M34.7,180.45s-.09,0-.13-.02c-5.56-1.6-12.45-1.77-12.51-1.77-.24,0-.43-.2-.42-.44,0-.24.18-.43.44-.42.07,0,7.07.17,12.73,1.8.23.07.36.31.3.54-.06.19-.22.31-.41.31Z"/>
          </g>
        </g>
      </g>
      <g id="Speech_Bubble" data-name="Speech Bubble">
        <g id="Speach_Bubble" data-name="Speach Bubble">
          <g>
            <path class="cls-10" d="M194.86,184.65l-2.58-1.49c-.81-.47-1.47-1.61-1.47-2.55v-107.04c0-.94.66-2.08,1.47-2.55l71.59-41.33c.81-.47,2.13-.47,2.94,0l2.58,1.49c.81.47,1.47,1.61,1.47,2.55v107.04c0,.94-.66,2.08-1.47,2.55l-71.59,41.33c-.81.47-2.13.47-2.94,0Z"/>
            <path class="cls-10" d="M270.85,33.49c-.1-.76-.72-1.04-1.46-.61l-71.58,41.34c-.41.24-.77.63-1.04,1.09l-5.52-3.19c.27-.46.63-.86,1.04-1.1l71.59-41.33c.81-.47,2.13-.47,2.94,0l2.58,1.49c.75.43,1.37,1.43,1.46,2.31Z"/>
            <path class="cls-14" d="M197.55,184.77c-.82.35-1.96.31-2.69-.12l-2.58-1.5c-.81-.47-1.47-1.61-1.47-2.55v-107.04c0-.47.16-.99.43-1.45l5.52,3.19c-.27.46-.43.99-.43,1.45v107.04c0,.84.53,1.23,1.22.96Z"/>
            <path class="cls-3" d="M196.33,76.76v107.04c0,.94.66,1.32,1.47.85l71.59-41.33c.81-.47,1.47-1.61,1.47-2.55V33.73c0-.94-.66-1.32-1.47-.85l-71.59,41.34c-.81.47-1.47,1.61-1.47,2.55Z"/>
            <path class="cls-10" d="M179.61,117.56c-.92-.55-5.21-2.99-5.44-3.12-.68-.41-.92-1.42-.29-2.1l16.93-18.16,5.52,3.17-16.92,18.16c-.61.65-.41,1.6.2,2.05Z"/>
            <path class="cls-3" d="M196.33,97.36l-16.92,18.16c-.85.91-.13,2.39,1.11,2.28l15.82-1.3v-19.14Z"/>
          </g>
          <g>
            <path class="cls-13" d="M233.6,64.68c8.34-4.82,15.11-.91,15.11,8.72s-6.76,21.35-15.11,26.17c-8.34,4.82-15.11.91-15.11-8.72,0-9.63,6.76-21.35,15.11-26.17Z"/>
            <path class="cls-9" d="M233.49,72.26c2.71-1.56,4.9-.3,4.9,2.83s-2.19,6.93-4.9,8.49c-2.71,1.56-4.9.3-4.9-2.83s2.19-6.93,4.9-8.49Z"/>
            <path class="cls-9" d="M243.15,88.93c0-5.14-3.61-7.22-8.05-4.65l-2.78,1.61c-4.45,2.57-8.05,8.81-8.05,13.95v1.4c.8.27,1.67.4,2.6.4,2.03,0,4.31-.66,6.74-2.06,3.62-2.09,6.95-5.49,9.55-9.45v-1.19Z"/>
          </g>
          <path class="cls-13" d="M224.03,147.27l19.14-11.05c.81-.47,1.47-.09,1.47.85v6.16c0,.94-.66,2.08-1.47,2.55l-19.14,11.05c-.81.47-1.47.09-1.47-.85v-6.16c0-.94.66-2.08,1.47-2.55Z"/>
          <path class="cls-8" d="M214.66,133.5l37.87-21.87c.98-.56,1.77-.11,1.77,1.02v2.29c0,1.13-.79,2.5-1.77,3.06l-37.87,21.87c-.98.56-1.77.11-1.77-1.02v-2.29c0-1.13.79-2.5,1.76-3.06Z"/>
          <g>
            <path class="cls-8" d="M219.09,117.67c.52-.3.92-.34,1.2-.13.29.21.43.67.43,1.4s-.14,1.36-.43,1.9c-.29.55-.69.97-1.2,1.26l-1.02.59v2.19c0,.07-.02.14-.05.22-.03.07-.07.12-.12.15l-.52.3s-.09.03-.12,0c-.03-.03-.05-.08-.05-.16v-6.36c0-.07.02-.14.05-.22.03-.07.07-.12.12-.15l1.71-.99ZM218.07,121.46l.99-.57c.24-.14.44-.33.58-.56.14-.23.22-.53.22-.9s-.07-.58-.22-.64c-.15-.06-.34-.02-.58.13l-.99.57v1.97Z"/>
            <path class="cls-8" d="M223.57,115.08c.07-.04.12-.04.15,0,.03.04.06.1.09.2l1.57,5.31s0,.04,0,.07c0,.07-.02.14-.05.22-.03.07-.07.12-.12.15l-.46.27c-.08.05-.15.06-.18.02-.03-.04-.06-.08-.07-.12l-.27-.93-2.02,1.17-.27,1.25c-.01.06-.04.13-.07.2-.03.08-.09.14-.18.19l-.46.27s-.09.02-.12,0c-.03-.03-.05-.08-.05-.16,0-.03,0-.05,0-.07l1.57-7.12c.03-.13.06-.23.09-.3.03-.07.08-.13.15-.17l.7-.41ZM223.92,119.2l-.7-2.4-.7,3.21,1.41-.81Z"/>
            <path class="cls-8" d="M227.76,112.56c.29-.16.54-.25.75-.26.22,0,.4.04.54.13.14.09.25.23.33.4.07.17.12.35.13.53,0,.08-.01.15-.05.22-.04.07-.08.12-.13.15l-.45.26c-.07.04-.13.05-.16.03-.04-.02-.07-.06-.1-.11-.06-.13-.16-.21-.29-.26-.13-.05-.32,0-.58.15-.11.06-.22.14-.32.24-.1.09-.19.2-.26.31-.07.11-.13.23-.18.35-.04.12-.06.25-.06.37,0,.15.02.26.06.33.04.07.11.11.2.13.1.01.22,0,.38-.03s.35-.08.59-.13c.26-.06.48-.09.66-.08.18,0,.34.06.45.15.12.09.2.23.26.41.06.18.09.4.09.67,0,.3-.04.59-.13.9-.08.3-.21.59-.36.86-.16.27-.35.53-.58.76-.23.24-.49.44-.77.6-.24.14-.47.23-.68.26-.22.04-.41.02-.58-.05-.17-.07-.3-.19-.41-.37-.1-.18-.16-.41-.17-.69,0-.08.01-.15.05-.22.04-.07.08-.12.12-.15l.45-.26c.07-.04.13-.05.17-.04.04.02.07.06.1.12.03.07.07.13.11.19.04.06.1.1.17.13.07.02.16.03.27,0,.11-.02.24-.08.41-.17.13-.07.25-.16.37-.26.12-.1.22-.21.31-.33.09-.12.16-.25.22-.38.06-.13.08-.28.08-.43,0-.14-.03-.24-.09-.3-.06-.06-.15-.08-.27-.08-.12,0-.27.03-.45.07-.18.04-.39.09-.62.13-.21.04-.4.06-.56.04s-.29-.07-.4-.17-.18-.24-.23-.42c-.05-.18-.08-.42-.08-.72s.04-.59.13-.89c.08-.3.2-.58.35-.84.15-.26.33-.51.53-.73.21-.22.43-.4.67-.54Z"/>
            <path class="cls-8" d="M232.22,109.99c.29-.16.54-.25.75-.26.22,0,.4.04.54.13.14.09.25.23.33.4.07.17.12.35.13.53,0,.08-.01.15-.05.22-.04.07-.08.12-.13.15l-.45.26c-.07.04-.13.05-.16.03-.04-.02-.07-.06-.1-.11-.06-.13-.16-.21-.29-.26-.13-.05-.32,0-.58.15-.11.06-.22.14-.32.24-.1.09-.19.2-.26.31s-.13.23-.18.35-.06.25-.06.37c0,.15.02.26.06.33.04.07.11.11.2.13.1.01.22,0,.38-.03s.35-.08.59-.13c.26-.06.48-.09.66-.08.18,0,.34.06.45.15.12.09.21.23.26.41.06.18.09.4.09.67,0,.29-.04.59-.13.9-.08.3-.21.59-.36.86-.16.27-.35.53-.58.76-.23.24-.49.44-.77.6-.24.14-.47.23-.68.26-.22.04-.41.02-.58-.05-.17-.07-.3-.19-.41-.37-.1-.18-.16-.41-.17-.69,0-.08.01-.15.05-.22.04-.07.08-.12.12-.15l.45-.26c.07-.04.13-.05.17-.04.04.02.07.06.1.12.03.07.07.13.11.19.04.06.1.1.17.13.07.02.16.03.27,0,.11-.02.24-.08.41-.17.13-.07.25-.16.37-.26.12-.1.22-.21.31-.33.09-.12.16-.25.22-.38.06-.13.08-.28.08-.43s-.03-.24-.09-.3c-.06-.06-.15-.08-.27-.08s-.27.03-.45.07c-.18.04-.39.09-.62.13-.21.04-.4.06-.56.04-.16-.02-.29-.07-.4-.17-.1-.1-.18-.24-.23-.42-.05-.18-.08-.42-.08-.72s.04-.59.13-.89.2-.58.35-.84c.15-.26.33-.5.53-.73.21-.22.43-.4.67-.54Z"/>
            <path class="cls-8" d="M237.18,110.84l-.55,3.26c-.02.11-.05.21-.08.29-.03.08-.08.14-.14.18l-.52.3c-.06.04-.11.04-.15,0-.04-.04-.06-.11-.07-.2l-.82-5.74s0-.06,0-.07c0-.07.02-.14.05-.22.03-.07.07-.12.12-.15l.47-.27s.08-.03.12-.01c.04.02.06.07.08.16l.54,3.86.47-2.9c0-.05.03-.12.06-.21.03-.09.09-.16.16-.2l.52-.3c.08-.04.13-.04.16.01s.05.1.06.14l.47,2.35.54-4.48c.01-.11.04-.19.08-.25.04-.06.08-.1.12-.13l.47-.27s.09-.02.12,0c.03.03.05.08.05.16,0,.02,0,.05,0,.08l-.82,6.68c-.01.11-.04.2-.07.28-.04.08-.09.14-.15.18l-.52.3c-.06.04-.11.03-.14-.01s-.06-.11-.08-.2l-.55-2.62Z"/>
            <path class="cls-8" d="M240.36,107.96c.01-.37.06-.75.14-1.12s.2-.72.35-1.05.35-.63.57-.9c.23-.27.5-.5.82-.68.31-.18.58-.27.81-.26.23,0,.42.08.58.24.15.15.27.37.35.64.08.28.13.6.14.96,0,.12,0,.26,0,.41,0,.15,0,.3,0,.47s0,.32,0,.47c0,.15,0,.29,0,.42-.01.38-.06.75-.14,1.12-.08.37-.2.72-.35,1.05s-.35.63-.58.9c-.23.27-.5.5-.81.68-.32.18-.59.27-.82.27-.23,0-.42-.08-.57-.23-.15-.15-.27-.36-.35-.64-.08-.28-.12-.6-.14-.96,0-.12,0-.26,0-.41,0-.15,0-.3,0-.46s0-.32,0-.47c0-.15,0-.29,0-.42ZM243.25,106.34c-.02-.46-.12-.77-.3-.93-.18-.15-.42-.15-.72.03-.3.17-.54.44-.72.8-.18.36-.28.79-.3,1.27,0,.25-.01.53-.01.84s0,.58.01.82c.02.46.12.77.3.92.18.15.42.14.72-.03.3-.17.54-.44.72-.8.18-.36.28-.78.3-1.26,0-.25.01-.53.01-.84s0-.58-.01-.82Z"/>
            <path class="cls-8" d="M247.1,101.5c.53-.31.94-.35,1.21-.13.28.22.42.67.42,1.34,0,.48-.07.93-.21,1.35-.14.42-.35.79-.63,1.12l.88,1.92s.02.06.02.1c0,.06-.01.12-.04.18-.03.06-.06.1-.1.12l-.54.31c-.08.05-.15.05-.19.02-.04-.04-.07-.08-.09-.12l-.84-1.81-.85.49v2.29c0,.07-.02.14-.05.22-.03.07-.07.12-.12.15l-.52.3s-.09.02-.12,0c-.03-.03-.05-.08-.05-.16v-6.36c0-.07.02-.14.05-.22.03-.07.07-.12.12-.15l1.65-.95ZM246.14,105.15l.93-.53c.24-.14.44-.32.58-.53.14-.21.22-.51.22-.87s-.07-.57-.22-.61c-.15-.04-.34,0-.58.15l-.93.53v1.87Z"/>
            <path class="cls-8" d="M251.63,98.88c.32-.18.59-.28.82-.28.23,0,.43.06.58.21.16.15.27.36.36.65.08.29.13.63.15,1.03.02.48.02.96,0,1.46-.02.42-.07.83-.15,1.21-.08.38-.2.74-.35,1.06-.15.32-.34.62-.57.88-.23.26-.49.48-.8.66l-1.61.93s-.09.02-.12,0c-.03-.03-.05-.08-.05-.16v-6.36c0-.07.02-.14.05-.22.03-.07.07-.12.12-.15l1.58-.91ZM252.68,100.99c0-.2-.04-.38-.08-.54-.04-.15-.11-.27-.2-.36-.09-.08-.2-.13-.33-.13-.13,0-.29.05-.47.16l-.86.49v4.43l.89-.51c.17-.1.33-.23.45-.38.13-.15.23-.31.32-.49.08-.18.15-.38.2-.58.04-.21.07-.42.08-.64.02-.5.02-.98,0-1.46Z"/>
          </g>
        </g>
      </g>
      <g id="Question_Marks" data-name="Question Marks">
        <g id="Question_Marks-2" data-name="Question Marks">
          <path class="cls-13" d="M158.31.26c1.19.26,2.31.68,3.36,1.26,1.05.58,1.94,1.29,2.67,2.12.73.84,1.25,1.79,1.57,2.85.32,1.06.34,2.22.07,3.45-.22,1.01-.58,1.85-1.06,2.53-.48.68-1.03,1.26-1.66,1.74-.62.48-1.28.91-1.97,1.27-.69.36-1.34.71-1.96,1.04-.62.33-1.17.69-1.67,1.08-.5.39-.85.86-1.05,1.4-.11.27-.28.48-.5.64-.22.16-.47.21-.75.15l-2.88-.64c-.28-.06-.5-.22-.67-.47-.17-.25-.21-.51-.13-.78.27-.97.67-1.79,1.2-2.46.53-.66,1.12-1.24,1.77-1.72.65-.48,1.32-.89,2.02-1.24.7-.35,1.35-.69,1.96-1.02.6-.33,1.12-.68,1.54-1.05.43-.37.7-.82.82-1.35.21-.96-.02-1.84-.69-2.64-.67-.8-1.68-1.34-3.02-1.64-2.15-.48-3.96.25-5.45,2.17-.19.25-.37.43-.54.54-.17.11-.42.13-.75.05l-3.07-.68c-.23-.05-.41-.17-.54-.36-.13-.19-.17-.41-.11-.66.22-.88.69-1.72,1.41-2.53.72-.81,1.6-1.49,2.64-2.04,1.04-.55,2.2-.94,3.48-1.16,1.28-.22,2.59-.18,3.93.12ZM155.06,22.12c.28.06.5.22.65.46.16.25.21.51.14.79l-.74,3.33c-.06.28-.22.5-.46.65-.25.16-.51.21-.79.14l-3.26-.72c-.28-.06-.5-.22-.65-.46-.16-.25-.21-.51-.14-.79l.74-3.34c.06-.28.22-.5.46-.65.25-.16.51-.21.79-.14l3.26.72Z"/>
          <path class="cls-13" d="M161.94,32.13c.83-.14,1.65-.15,2.48-.05.82.1,1.57.33,2.26.68.68.35,1.26.83,1.74,1.43.48.6.79,1.33.93,2.2.11.71.1,1.34-.03,1.89-.14.56-.34,1.07-.62,1.54-.28.47-.59.91-.94,1.32-.35.41-.68.8-.99,1.17-.31.37-.58.74-.79,1.12-.22.38-.32.77-.31,1.16,0,.2-.06.38-.16.54-.1.16-.25.26-.44.29l-2.01.33c-.19.03-.38-.01-.55-.13-.17-.12-.27-.27-.28-.47-.08-.69-.03-1.32.14-1.88.17-.56.4-1.08.7-1.55.29-.47.62-.91.98-1.31.36-.4.69-.79.99-1.15.3-.36.54-.72.72-1.07.18-.35.24-.7.18-1.08-.11-.67-.48-1.17-1.12-1.51-.64-.34-1.42-.43-2.35-.28-1.5.24-2.48,1.17-2.94,2.79-.06.21-.13.37-.21.48-.08.11-.24.19-.47.23l-2.14.35c-.16.03-.3,0-.44-.09-.13-.09-.21-.22-.24-.4-.08-.62,0-1.28.26-1.98.26-.7.65-1.36,1.17-1.98.52-.62,1.17-1.16,1.93-1.63.77-.47,1.62-.78,2.55-.93ZM165.45,46.98c.19-.03.37.01.54.13.16.12.26.27.29.47l.38,2.33c.03.19-.01.37-.13.54-.12.16-.27.26-.47.29l-2.27.37c-.19.03-.37-.01-.54-.13-.16-.12-.26-.27-.29-.47l-.38-2.33c-.03-.19.01-.37.13-.54.12-.16.27-.26.47-.29l2.28-.37Z"/>
          <g class="cls-18">
            <path class="cls-6" d="M161.94,32.13c.83-.14,1.65-.15,2.48-.05.82.1,1.57.33,2.26.68.68.35,1.26.83,1.74,1.43.48.6.79,1.33.93,2.2.11.71.1,1.34-.03,1.89-.14.56-.34,1.07-.62,1.54-.28.47-.59.91-.94,1.32-.35.41-.68.8-.99,1.17-.31.37-.58.74-.79,1.12-.22.38-.32.77-.31,1.16,0,.2-.06.38-.16.54-.1.16-.25.26-.44.29l-2.01.33c-.19.03-.38-.01-.55-.13-.17-.12-.27-.27-.28-.47-.08-.69-.03-1.32.14-1.88.17-.56.4-1.08.7-1.55.29-.47.62-.91.98-1.31.36-.4.69-.79.99-1.15.3-.36.54-.72.72-1.07.18-.35.24-.7.18-1.08-.11-.67-.48-1.17-1.12-1.51-.64-.34-1.42-.43-2.35-.28-1.5.24-2.48,1.17-2.94,2.79-.06.21-.13.37-.21.48-.08.11-.24.19-.47.23l-2.14.35c-.16.03-.3,0-.44-.09-.13-.09-.21-.22-.24-.4-.08-.62,0-1.28.26-1.98.26-.7.65-1.36,1.17-1.98.52-.62,1.17-1.16,1.93-1.63.77-.47,1.62-.78,2.55-.93ZM165.45,46.98c.19-.03.37.01.54.13.16.12.26.27.29.47l.38,2.33c.03.19-.01.37-.13.54-.12.16-.27.26-.47.29l-2.27.37c-.19.03-.37-.01-.54-.13-.16-.12-.26-.27-.29-.47l-.38-2.33c-.03-.19.01-.37.13-.54.12-.16.27-.26.47-.29l2.28-.37Z"/>
          </g>
          <path class="cls-13" d="M181.16,35.79c.19.14.3.32.35.56.04.24,0,.45-.14.64l-1.62,2.28c-.14.19-.32.31-.56.34-.24.04-.45,0-.64-.14l-2.22-1.58c-.19-.14-.3-.32-.34-.56-.04-.24,0-.45.14-.64l1.62-2.28c.13-.19.32-.3.56-.34.24-.04.45,0,.64.14l2.22,1.58ZM190.57,20.36c.81.58,1.52,1.25,2.13,2.02.61.77,1.05,1.59,1.34,2.45.28.86.38,1.75.28,2.65-.1.91-.45,1.78-1.05,2.63-.49.69-1.02,1.21-1.6,1.57-.58.36-1.18.62-1.8.78-.63.17-1.26.28-1.89.33-.64.05-1.24.11-1.81.16-.57.05-1.1.14-1.6.28-.5.14-.91.38-1.23.72-.17.17-.36.27-.58.33-.22.05-.42.01-.61-.12l-1.97-1.4c-.19-.13-.31-.32-.36-.57-.05-.24,0-.45.15-.63.51-.65,1.08-1.14,1.69-1.47.61-.33,1.24-.57,1.88-.73.64-.15,1.28-.25,1.92-.29.64-.04,1.24-.09,1.8-.14.56-.06,1.06-.16,1.5-.3.44-.14.79-.39,1.04-.76.47-.66.57-1.39.32-2.21-.25-.81-.83-1.55-1.75-2.2-1.47-1.04-3.07-1.08-4.8-.1-.22.13-.41.21-.57.23-.16.03-.36-.04-.58-.2l-2.1-1.49c-.15-.11-.25-.26-.29-.44-.04-.18,0-.36.13-.53.45-.59,1.07-1.08,1.87-1.46s1.68-.61,2.64-.7c.96-.09,1.95,0,2.99.24,1.03.24,2.01.69,2.92,1.34Z"/>
          <g class="cls-16">
            <path class="cls-9" d="M181.16,35.79c.19.14.3.32.35.56.04.24,0,.45-.14.64l-1.62,2.28c-.14.19-.32.31-.56.34-.24.04-.45,0-.64-.14l-2.22-1.58c-.19-.14-.3-.32-.34-.56-.04-.24,0-.45.14-.64l1.62-2.28c.13-.19.32-.3.56-.34.24-.04.45,0,.64.14l2.22,1.58ZM190.57,20.36c.81.58,1.52,1.25,2.13,2.02.61.77,1.05,1.59,1.34,2.45.28.86.38,1.75.28,2.65-.1.91-.45,1.78-1.05,2.63-.49.69-1.02,1.21-1.6,1.57-.58.36-1.18.62-1.8.78-.63.17-1.26.28-1.89.33-.64.05-1.24.11-1.81.16-.57.05-1.1.14-1.6.28-.5.14-.91.38-1.23.72-.17.17-.36.27-.58.33-.22.05-.42.01-.61-.12l-1.97-1.4c-.19-.13-.31-.32-.36-.57-.05-.24,0-.45.15-.63.51-.65,1.08-1.14,1.69-1.47.61-.33,1.24-.57,1.88-.73.64-.15,1.28-.25,1.92-.29.64-.04,1.24-.09,1.8-.14.56-.06,1.06-.16,1.5-.3.44-.14.79-.39,1.04-.76.47-.66.57-1.39.32-2.21-.25-.81-.83-1.55-1.75-2.2-1.47-1.04-3.07-1.08-4.8-.1-.22.13-.41.21-.57.23-.16.03-.36-.04-.58-.2l-2.1-1.49c-.15-.11-.25-.26-.29-.44-.04-.18,0-.36.13-.53.45-.59,1.07-1.08,1.87-1.46s1.68-.61,2.64-.7c.96-.09,1.95,0,2.99.24,1.03.24,2.01.69,2.92,1.34Z"/>
          </g>
        </g>
      </g>
      <g id="Character">
        <g id="Character-2" data-name="Character">
          <path class="cls-14" d="M130.55,95.95h-24.14v-58.5c0-10.58,8.58-19.16,19.16-19.16h2.23c10.58,0,19.16,8.58,19.16,19.16v42.1c0,9.06-7.34,16.4-16.4,16.4Z"/>
          <g>
            <g>
              <path class="cls-14" d="M104.06,236.77c-.2,1.47-.62,3.18-.7,7.34-.08,4.46-.9,6.04-1.01,9.7-.12,4.18.6,5.74,2.29,8.09,1.7,2.35,6.15,4.48,8.03.51,1.9-4.02,1.64-6.57,1.04-10.67-.62-4.24-.7-6.58-1.06-9.81-.32-2.85-.7-5.01-.7-5.01l-7.89-.14Z"/>
              <path class="cls-5" d="M116.71,207.16l-14.68-.27c.22,9.8,1.78,20.68,2.03,29.87.05,1.73-.04,13.45.61,17.01.98,5.35,7.33,4.63,7.67,1.43.34-3.2-.41-16.88-.39-18.29-.06-5.9,2.71-15.85,4.16-26.44.07-.52.54-2.81.6-3.31Z"/>
            </g>
            <g>
              <path class="cls-14" d="M135.57,229.14s-.58-.31-.7.31c-.14.74-.35,2.25-.66,3.46-.42,1.68-.78,4.44-.52,5.81s3.44,3.13,5.52,3.77c3.06.94,5.15,2.47,6.83,4.05,2.05,1.93,6.48,3.75,9.49,3.73,3.57-.03,6.05-1.19,7.23-3.1,1.23-1.99-1.07-2.14-5.15-4.79-.93-.6-1.98-1.28-3.16-2.05-6.46-4.22-8.82-6.48-10.65-10.7l-8.22-.49Z"/>
              <path class="cls-5" d="M143.84,226.53c-.11-3.03,1.97-28.78,1.97-28.78l-13.94,6.36c2.99,17.82,3.62,22.02,3.68,24.94h0c-.02.07-.08.32-.08.75.01,3.46,3.92,5.33,6.97,7.64,1.2.91,4.71,3.6,8.24,5.38,2.21,1.11,6.71,1.21,7.27-.21-3.71-2.83-9.1-7.07-12.05-10.31-1.41-1.55-1.94-2.73-2.05-5.77Z"/>
            </g>
            <path class="cls-10" d="M108.05,111.54c-5.35,11.75-5.35,20.84-4.47,35.84.81,13.76,2.11,25.87,2.11,25.87-.21,2.44-3.6,7.21-4.04,17.99-.41,10.09.69,22.91.69,22.91,0,0,7.62,4.22,13.25-.04,0,0,5.43-25.95,7.03-38.58,1.39-11.02,3.8-25.1,3.8-25.1l5.12,25.04s-1.95,6.17-2.4,10.87c-.72,7.43,3.43,22.01,3.43,22.01,0,0,7.87,2.35,12.68-1.91,0,0,1.8-23.71,2.47-32.65.9-11.98-.99-44.41-2.47-61.58l-37.2-.67Z"/>
            <path class="cls-14" d="M126.42,150.44l2.11-18.85s9.47-1.27,13.77-5.3c0,0-3.22,5.91-11.16,7.05l-3.06,17.54,3.46,24.59-5.12-25.04Z"/>
          </g>
          <g>
            <path class="cls-5" d="M164.78,106.91c.59-5.78.57-9.62.52-10.36-.21-2.99-.74-3.48-4.92-8.78-5.64-7.15-10.46-13.58-15.56-19.98-3.64-4.57-7.46-5.27-11.2-5.06-2.61.14,2.48,12.7,5.05,20.12l14.65,15.75c.45.62.66,1.39.58,2.15l-.9,13.41,4.39,5.87s6.64-5.73,7.4-13.12Z"/>
            <path class="cls-13" d="M119.51,63.13h0c-2.83.2-7.98.65-7.98.65-2.97,1.66-3.72,3.02-4.28,6.97-.24,1.68,1.13,6.16,2.31,12.53l2.23,11.81-.24,5.86c-1.16,3.57-3.78,8.01-6.08,14.56,11.35,6.33,20.86,6.57,29.49,5.46,6.58-.84,10.06-2.44,11.22-4.01-.24-6.47-.7-10.46-.81-17.22-.05-2.84.12-5.7.23-8.97,4.42-3.63,4.47-9.66,2.06-13.56-5.59-9.06-11.03-14.76-14.64-14.47l-13.51.4Z"/>
            <path class="cls-12" d="M119.51,63.13h0c-2.83.2-7.98.65-7.98.65-2.97,1.66-3.72,3.02-4.28,6.97-.24,1.68,1.13,6.16,2.31,12.53l2.23,11.81-.24,5.86c-1.16,3.57-3.78,8.01-6.08,14.56,11.35,6.33,20.86,6.57,29.49,5.46,6.58-.84,10.06-2.44,11.22-4.01-.24-6.47-.7-10.46-.81-17.22-.05-2.84.12-5.7.23-8.97,4.42-3.63,4.47-9.66,2.06-13.56-5.59-9.06-11.03-14.76-14.64-14.47l-13.51.4Z"/>
            <path class="cls-15" d="M136.82,90.86s-5.18,4.02-11.1,1.92c-5.91-2.1-6.78-7.27-6.78-7.27,0,0-.63,6.76,6.83,9.07,7.2,2.22,11.04-3.72,11.04-3.72Z"/>
            <g>
              <path class="cls-5" d="M143.85,44.57c-.22,9.81-3.41,12.24-5,12.93-1.6.7-4.68.27-7.66-.22v5.89s3.45,3.62,3.19,6.31c-.26,2.7-5.42,3-9.29.36-2.83-1.93-4.85-4.13-5.73-5.17-.32-.38-.49-.86-.49-1.35v-13.85s-1.64,1.73-4.54-.25c-2.89-1.98-3.14-5.67-1.37-7.76,1.26-1.48,4.47-1.59,6.01.72.86,1.69.98,3.39,1.95,2.69,2.59-1.86,1.2-6.09,4.32-8.18,0,0,0,0,.01,0,.93-.5,1.99-.98,3.18-1.39,5.57-1.92,10.39-3.54,11.55-7.34,2.19,1.3,4.15,5.06,3.88,16.63Z"/>
              <circle class="cls-1" cx="132.88" cy="52.05" r="1.29"/>
              <path class="cls-14" d="M132.01,43.08c.04.78-.54,1.44-1.28,1.47-.75.04-1.39-.57-1.43-1.34-.04-.78.54-1.44,1.29-1.47.75-.03,1.39.57,1.43,1.34Z"/>
              <path class="cls-14" d="M142.31,43.22c.04.71-.49,1.31-1.17,1.34-.75.04-1.26-.44-1.3-1.22-.04-.71.49-1.31,1.17-1.34.68-.03,1.26.52,1.3,1.22Z"/>
              <path class="cls-10" d="M130.27,46.58c-2.44,0-4.42-1.98-4.42-4.42,0-3,3.1-3,4.42-3s4.42,0,4.42,3c0,2.44-1.98,4.42-4.42,4.42ZM130.27,39.85c-2.68,0-3.72.65-3.72,2.31,0,2.05,1.67,3.72,3.72,3.72s3.72-1.67,3.72-3.72c0-1.66-1.04-2.31-3.72-2.31Z"/>
              <path class="cls-10" d="M141.49,46.58c-2.44,0-4.42-1.98-4.42-4.42,0-3,3.1-3,4.42-3s4.42,0,4.42,3c0,2.44-1.98,4.42-4.42,4.42ZM141.49,39.85c-2.68,0-3.72.65-3.72,2.31,0,2.05,1.67,3.72,3.72,3.72s3.72-1.67,3.72-3.72c0-1.66-1.04-2.31-3.72-2.31Z"/>
              <polygon class="cls-4" points="135.37 40.73 135.59 48.99 139.94 47.64 135.37 40.73"/>
              <path class="cls-4" d="M131.18,57.28c-3.16-.41-9.65-2.28-10.66-4.84,0,0,.34,1.61,2.28,3.27,1.94,1.66,8.38,3.53,8.38,3.53v-1.96Z"/>
              <path class="cls-14" d="M131.33,36.73l-2.88,1.75c-.47-.83-.21-1.89.59-2.38.8-.48,1.82-.21,2.29.62Z"/>
              <path class="cls-14" d="M143.05,38.68l-3.21-1.12c.28-.9,1.22-1.39,2.11-1.08.89.31,1.38,1.29,1.1,2.2Z"/>
              <path class="cls-10" d="M134.34,42.51c-.19,0-.35-.16-.35-.35,0-.57,1.12-.93,2.12-.93s1.65.37,1.65.93c0,.19-.16.35-.35.35s-.35-.16-.35-.35c-.03-.06-.35-.23-.96-.23s-1.39.17-1.43.24c0,.19-.15.35-.35.35Z"/>
              <path class="cls-10" d="M126.21,42.22s-.03,0-.04,0l-7.77-.71c-.14-.13-.51-.51-1.27-.83l9.12.84c.19.02.33.19.31.39-.02.18-.17.31-.35.31Z"/>
            </g>
          </g>
          <g>
            <path class="cls-5" d="M94.32,50.31c2.54-3.39,4.27-5.96,6.59-8.87,1.32-1.65,2.16-2.83,3.42-4.53.87-1.17,1.38-2.15,2.35-2.51,1.09-.41,2.14-1.21,2.84-1.95.5-.53.91-1.13,1.34-1.71,1.45-1.96,3.19-3.7,5.13-5.17,2.04-1.54,4.32-2.72,6.41-4.18,1.25-.88,2.59-2.33,1.07-3.69-.45-.41-1.03-.65-1.63-.78-3.7-.81-6.92.47-10.54,1.39-1.57.4-3.12.91-4.61,1.56-.72.32-1.44.66-2.04,1.17-.93.8-1.49,1.93-2.1,3-1.63,2.87-4.99,5.39-7.37,7.62-2.78,2.62-5.27,5.02-8.44,7.9-2.86,2.6-5.65,4.99-8.27,7.83-2.17,2.35-1.38,4.18-1.07,4.82,1.77,3.63,3.74,4.93,6.1,7.18,4.09,3.9,18.18,15.11,22.85,18.8,1,.79,1.79,1.82,2.29,2.99l.89,2.07c5.33.98,8.88-7.02,4.47-16.65-.72-1.56-1.85-2.89-3.24-3.9-5.56-4.06-16.48-12.41-16.48-12.41Z"/>
            <path class="cls-4" d="M94.32,50.31s-2.41,3.22-6.51,4.48c0,0,3.4.87,8.05-3.31l-1.54-1.17Z"/>
          </g>
          <g>
            <g>
              <path class="cls-10" d="M163.4,99.82h.02s-.87-.75-.87-.75h0c-.2-.15-.5-.2-.9-.09l-9.44,2.57c-.87.24-1.82,1.12-2.12,1.98l-6.79,19.59c-.16.45-.09.8.13,1h0s.9.78.9.78h0c.2.15.5.2.9.1l9.44-2.57c.87-.24,1.82-1.13,2.12-1.98,1.33-3.85,5.46-15.74,6.79-19.59.17-.48.08-.85-.17-1.03Z"/>
              <path class="cls-13" d="M144.18,123.87l6.79-19.59c.3-.86,1.25-1.74,2.12-1.98l9.44-2.57c.87-.24,1.34.26,1.05,1.12-1.33,3.85-5.46,15.74-6.79,19.59-.3.86-1.25,1.74-2.12,1.98l-9.44,2.57c-.87.24-1.34-.27-1.05-1.12Z"/>
              <path class="cls-3" d="M152.06,102.84c-.49.39-.91.92-1.09,1.44l-6.79,19.58c-.15.44-.1.78.09.98l-.84-.72h0c-.22-.21-.28-.55-.13-1.01l6.79-19.59c.16-.48.55-.97,1.01-1.36l.96.68Z"/>
            </g>
            <path class="cls-4" d="M160.81,108.75c-.67,2-3.04,3.33-6.93,4.25-3.9.92-6.06,5.06-5.43,6.32.63,1.26,6.93,2.43,9.45,2.07,2.52-.36,5.05-4,5.82-5.13s1.65-9,.84-10.08c-.81-1.08-2.51-.91-2.51-.91l-1.23,3.48Z"/>
          </g>
        </g>
      </g>
    </g>
  </g>
</svg>