<?xml version="1.0" encoding="UTF-8"?>
<svg id="Layer_2" data-name="Layer 2" xmlns="http://www.w3.org/2000/svg" viewBox="0 0 64 64">
  <defs>
    <style>
      .cls-1 {
        fill: #feb4ba;
      }

      .cls-1, .cls-2, .cls-3, .cls-4, .cls-5, .cls-6, .cls-7, .cls-8 {
        stroke-width: 0px;
      }

      .cls-2 {
        fill: #afa1c8;
      }

      .cls-3 {
        fill: none;
      }

      .cls-4 {
        fill: #cb6870;
      }

      .cls-5 {
        fill: #f5e5ba;
      }

      .cls-6 {
        fill: #337c80;
      }

      .cls-7 {
        fill: #837996;
      }

      .cls-8 {
        fill: #fe828c;
      }
    </style>
  </defs>
  <g id="icon-set">
    <g id="receive_milk">
      <rect id="background" class="cls-3" x=".08" width="63.92" height="64"/>
      <g id="receive-milk">
        <g id="milk_basket">
          <g id="bottles">
            <g>
              <path class="cls-1" d="M27.75,11.47c.22,1.71-1.2,3.28-3.19,3.5s-3.76-.98-3.98-2.69,1.2-3.28,3.19-3.5,3.76.98,3.98,2.69Z"/>
              <path class="cls-6" d="M29.54,14.01c.17,1.31-.97,2.53-2.54,2.71l-4.39.5c-1.57.18-2.98-.75-3.15-2.06l-.04-.32c-.17-1.31.97-2.53,2.54-2.71l4.39-.5c1.57-.18,2.98.75,3.15,2.06l.04.32Z"/>
              <path class="cls-2" d="M34.51,40.1c.17,1.31-.64,2.49-1.8,2.62l-8.62.98c-1.16.13-2.25-.83-2.41-2.15l-3.08-24.04c-.17-1.31.64-2.49,1.8-2.62l8.64-.98c1.16-.13,2.25.83,2.41,2.15l3.08,24.04h-.01Z"/>
              <path class="cls-7" d="M20.67,14.86c-.22,0-.73.04-1.2.36-.58.39-.75.95-.82,1.19-.16.53-.09,1-.03,1.26l3.01,23.88c.03.21.08.55.29.91.13.23.43.76,1.09,1.05.58.26,1.12.18,1.36.14l-3.69-28.79h-.01Z"/>
              <path class="cls-1" d="M25.59,8.98c.11.85-.53,1.63-1.45,1.73h0c-.9.1-1.73-.5-1.84-1.36l-.3-2.32c-.11-.85.53-1.63,1.45-1.73h0c.9-.1,1.73.5,1.84,1.36l.3,2.33h0Z"/>
              <polygon class="cls-5" points="28.96 20.92 32.01 20.57 32.07 21.05 29.03 21.39 28.96 20.92"/>
              <polygon class="cls-5" points="29.43 24.57 32.48 24.23 32.54 24.71 29.49 25.05 29.43 24.57"/>
              <polygon class="cls-5" points="29.84 27.74 32.88 27.4 32.94 27.88 29.9 28.22 29.84 27.74"/>
              <polygon class="cls-5" points="30.31 31.39 33.35 31.05 33.41 31.52 30.37 31.87 30.31 31.39"/>
              <polygon class="cls-5" points="30.6 33.69 33.64 33.35 33.71 33.82 30.66 34.17 30.6 33.69"/>
              <polygon class="cls-5" points="31.07 37.35 34.11 37 34.17 37.48 31.13 37.83 31.07 37.35"/>
            </g>
            <g>
              <path class="cls-1" d="M42.96,11.55c.01,1.72-1.59,3.13-3.59,3.14s-3.62-1.37-3.63-3.09,1.59-3.13,3.59-3.14,3.62,1.37,3.63,3.09Z"/>
              <path class="cls-6" d="M44.44,14.27c.01,1.32-1.26,2.41-2.84,2.42l-4.42.03c-1.58.01-2.87-1.06-2.88-2.38v-.32c-.01-1.32,1.26-2.41,2.84-2.42l4.42-.03c1.58-.01,2.87,1.06,2.88,2.38v.32Z"/>
              <path class="cls-2" d="M46.25,40.72c.01,1.32-.94,2.41-2.1,2.42l-8.69.06c-1.17,0-2.13-1.06-2.14-2.39l-.19-24.22c-.01-1.32.94-2.41,2.1-2.42l8.7-.06c1.17,0,2.13,1.06,2.14,2.39l.19,24.22h-.01Z"/>
              <path class="cls-7" d="M35.52,14.18c-.22-.02-.73-.04-1.24.23-.62.32-.86.86-.96,1.1-.22.51-.21.98-.18,1.25l.14,24.05c0,.21.02.56.18.94.1.24.34.8.96,1.16.55.32,1.09.3,1.33.28l-.22-29h-.01Z"/>
              <path class="cls-1" d="M41.11,8.85c0,.85-.73,1.56-1.65,1.57h0c-.91,0-1.66-.68-1.67-1.55l-.02-2.34c0-.85.73-1.56,1.65-1.57h0c.91,0,1.66.68,1.67,1.55l.02,2.35h0Z"/>
              <rect class="cls-5" x="43.04" y="21.06" width="3.07" height=".48" transform="translate(-.14 .31) rotate(-.39)"/>
              <rect class="cls-5" x="43.07" y="24.74" width="3.07" height=".48" transform="translate(-.17 .31) rotate(-.39)"/>
              <rect class="cls-5" x="43.09" y="27.93" width="3.07" height=".48" transform="translate(-.19 .31) rotate(-.39)"/>
              <rect class="cls-5" x="43.12" y="31.61" width="3.07" height=".48" transform="translate(-.22 .31) rotate(-.39)"/>
              <rect class="cls-5" x="43.14" y="33.92" width="3.07" height=".48" transform="translate(-.23 .31) rotate(-.39)"/>
              <rect class="cls-5" x="43.17" y="37.61" width="3.07" height=".48" transform="translate(-.26 .31) rotate(-.39)"/>
            </g>
            <g>
              <path class="cls-1" d="M53.85,10.58c-.11,1.72-1.8,3.03-3.8,2.92s-3.52-1.59-3.41-3.31,1.8-3.03,3.8-2.92,3.52,1.59,3.41,3.31Z"/>
              <path class="cls-6" d="M55.13,13.38c-.08,1.32-1.43,2.33-3,2.24l-4.41-.24c-1.58-.09-2.79-1.23-2.71-2.55l.02-.32c.08-1.32,1.43-2.33,3-2.24l4.41.24c1.58.09,2.79,1.23,2.71,2.55l-.02.32Z"/>
              <path class="cls-2" d="M55.11,39.88c-.08,1.32-1.1,2.35-2.27,2.28l-8.67-.47c-1.17-.06-2.05-1.19-1.97-2.51l1.49-24.18c.08-1.32,1.1-2.35,2.27-2.28l8.68.47c1.17.06,2.05,1.19,1.97,2.51l-1.49,24.18h-.01Z"/>
              <path class="cls-7" d="M46.24,12.75c-.21-.03-.72-.08-1.25.16-.64.29-.91.81-1.03,1.03-.26.5-.28.97-.27,1.24l-1.52,24c-.01.21-.02.55.11.95.09.25.28.82.88,1.21.52.35,1.07.37,1.31.36l1.78-28.95h-.01Z"/>
              <path class="cls-1" d="M52.19,7.77c-.05.85-.83,1.52-1.75,1.47h0c-.91-.05-1.61-.78-1.56-1.65l.14-2.33c.05-.85.83-1.52,1.75-1.47h0c.91.05,1.61.78,1.56,1.65l-.14,2.35h0Z"/>
              <polygon class="cls-5" points="53.26 20.08 56.32 20.25 56.29 20.73 53.23 20.56 53.26 20.08"/>
              <polygon class="cls-5" points="53.04 23.76 56.1 23.92 56.07 24.4 53.01 24.24 53.04 23.76"/>
              <polygon class="cls-5" points="52.84 26.94 55.9 27.11 55.87 27.59 52.81 27.42 52.84 26.94"/>
              <polygon class="cls-5" points="52.61 30.61 55.67 30.78 55.65 31.26 52.58 31.09 52.61 30.61"/>
              <polygon class="cls-5" points="52.47 32.93 55.53 33.09 55.5 33.57 52.44 33.4 52.47 32.93"/>
              <polygon class="cls-5" points="52.25 36.6 55.31 36.77 55.28 37.25 52.22 37.08 52.25 36.6"/>
            </g>
          </g>
          <g id="basket">
            <rect class="cls-8" x="15.87" y="25.5" width="44.38" height="3.73"/>
            <polygon class="cls-8" points="54.65 46.19 21.46 46.19 18.21 29.23 57.9 29.23 54.65 46.19"/>
            <polygon class="cls-4" points="57.51 31.26 57.9 29.23 18.21 29.23 18.6 31.26 57.51 31.26"/>
            <path class="cls-2" d="M54.7,45.64l-18.04-16.97c-.77-.73-.77-1.9,0-2.63h0c.77-.73,2.02-.73,2.8,0l18.04,16.97c.77.73.77,1.9,0,2.63h0c-.77.73-2.02.73-2.8,0Z"/>
            <ellipse class="cls-7" cx="38.06" cy="27.36" rx=".9" ry=".85"/>
          </g>
        </g>
        <g id="hand">
          <path class="cls-6" d="M17.76,55.01c-.02.23-.22.28-.39.36-2.26,1.32-4.52,2.63-6.77,3.98-.36.21-.51.17-.71-.18C6.64,53.42,3.37,47.66.11,41.91c-.21-.36-.1-.49.25-.66,2.31-1.09,4.6-2.2,6.88-3.31.39-.2.56-.15.77.22,3.17,5.49,6.34,10.98,9.53,16.46.08.14.15.27.22.39Z"/>
          <path class="cls-1" d="M62.32,39.29c-1.28-.81-2.68-.92-4.01-.21-2.91,1.55-5.85,3.04-8.68,4.71-1.94,1.15-3.7,2.53-5.65,3.65-4.95,2.85-9.95,2.86-14.94.06-.21-.04-.39-.17-.48-.35.27,0,.53.08.76.22,1.13.26,2.28.44,3.44.54,3.16.2,6.17-.28,8.97-1.73.99-.46,1.85-1.15,2.49-1.99.76-1.07.5-1.98-.72-2.55-.85-.36-1.77-.56-2.71-.59-2.18-.11-4.35-.39-6.48-.83-1.39-.32-2.84-.6-3.86-1.64-2.17-2.23-4.96-3.17-8.04-3.37-5.08-.33-9.39,1.56-13.33,4.4-.29.21-.2.36-.08.57.77,1.34,1.54,2.68,2.31,4.02,1.67,2.94,3.35,5.87,5.04,8.82.11.2.17.53.57.35,1.19-.54,2.29-.28,3.38.28,2.42,1.25,4.96,2.28,7.58,3.08,2.03.6,4.08,1.08,6.24.93,4.15-.33,8.21-1.3,12.03-2.85,6.26-2.48,11.94-6.08,16.74-10.6.56-.48.92-1.13,1.01-1.83.14-1.34-.46-2.34-1.59-3.06Z"/>
        </g>
      </g>
    </g>
  </g>
</svg>