<?xml version="1.0" encoding="UTF-8"?>
<svg id="Layer_2" data-name="Layer 2" xmlns="http://www.w3.org/2000/svg" viewBox="0 0 383.02 180.59">
  <defs>
    <style>
      .cls-1 {
        fill: #a9312d;
      }

      .cls-1, .cls-2, .cls-3, .cls-4, .cls-5, .cls-6, .cls-7, .cls-8, .cls-9, .cls-10, .cls-11, .cls-12, .cls-13, .cls-14, .cls-15, .cls-16, .cls-17, .cls-18, .cls-19, .cls-20, .cls-21, .cls-22, .cls-23, .cls-24, .cls-25, .cls-26, .cls-27, .cls-28, .cls-29, .cls-30, .cls-31, .cls-32, .cls-33, .cls-34, .cls-35, .cls-36, .cls-37, .cls-38 {
        stroke-width: 0px;
      }

      .cls-2 {
        fill: #e0eaf7;
      }

      .cls-3 {
        fill: #e9955c;
      }

      .cls-4 {
        fill: #2b488c;
      }

      .cls-5 {
        fill: #e3915a;
      }

      .cls-39 {
        opacity: .5;
      }

      .cls-6 {
        fill: #c75548;
      }

      .cls-7 {
        fill: #fab17e;
      }

      .cls-8 {
        isolation: isolate;
        opacity: .3;
      }

      .cls-8, .cls-14 {
        fill: #243962;
      }

      .cls-9 {
        fill: #f89748;
      }

      .cls-10 {
        fill: #1c478a;
      }

      .cls-11 {
        fill: #a2c2dd;
      }

      .cls-12 {
        fill: #ee9960;
      }

      .cls-13 {
        fill: #ea6a61;
      }

      .cls-15 {
        fill: #eef4fb;
      }

      .cls-16 {
        fill: #cb7d45;
      }

      .cls-17 {
        fill: #e2ebf7;
      }

      .cls-18 {
        fill: #b2c1e3;
      }

      .cls-19 {
        fill: #fff;
      }

      .cls-20 {
        fill: #b74d42;
      }

      .cls-21 {
        fill: #18487f;
      }

      .cls-22 {
        fill: #a1afd9;
      }

      .cls-23 {
        fill: #ecf3fb;
      }

      .cls-24 {
        fill: #0c2442;
      }

      .cls-25 {
        fill: #cee0f3;
      }

      .cls-26 {
        fill: #b2cbea;
      }

      .cls-27 {
        fill: #abd19a;
      }

      .cls-28 {
        fill: #f7fcfe;
      }

      .cls-29 {
        fill: #183660;
      }

      .cls-30 {
        fill: #c0d6ef;
      }

      .cls-31 {
        fill: #ab453f;
      }

      .cls-32 {
        fill: #9eb9e0;
      }

      .cls-33 {
        fill: #82a6d7;
      }

      .cls-34 {
        fill: #ec7e2a;
      }

      .cls-35 {
        fill: #2e3652;
      }

      .cls-36 {
        fill: #f89e59;
      }

      .cls-37 {
        fill: #d35d2b;
      }

      .cls-38 {
        fill: #182944;
      }
    </style>
  </defs>
  <g id="Layer_3" data-name="Layer 3">
    <g>
      <path class="cls-15" d="M380.51,131.96c-.25,12.34-2.99,24.46-7.3,35.98-.62,1.63-4.07,12.08-5.64,12.08-2.45,0-4.9,0-7.35,0-27.17,0-54.35,0-81.52.01-53.55,0-107.1.01-160.65.02-31.71,0-63.43.02-95.14,0-2.08,0-3.81-2.69-5.01-4.11-2.2-2.61-3.73-5.58-4.66-8.73-1.27-4.29-2.06-10.64.29-18.71,1.27-4.36,3.99-8.75,6.04-12.06,4.42-7.09,10.17-13.17,16.52-18.56,7.3-6.19,16.69-11.89,20.28-21.22,5.32-13.8-3.81-27.34-2.56-41.25,2.08-23.18,25.11-40.51,45.35-48.33C114.85,1.04,132.23-.43,148.91.1c8.16.26,16.31,1.07,24.36,2.43,7.35,1.25,16.02,2.53,22.76,5.9,14.47,5.35,26.99,14.05,37.6,25.18,5.15,5.4,9.73,11.47,15.35,16.41,6.71,5.89,13.58,5.68,21.94,4.06,15.91-3.12,31.45-6.52,47.57-2.6,15.61,3.8,29.04,13.28,40.12,24.65,14.65,15.03,22.29,34.87,21.89,55.83-.02.8.1-4.97,0,0Z"/>
      <path class="cls-17" d="M82.19,128.93s-12.18-3.02-16.97,4.55c-4.79,7.56-14.36,7.86-19.38,13.93-5.03,6.08-8.85,17.02,2.63,22.44,11.49,5.42,40.06-2.53,40.06-2.53l5.46-35.24-11.8-3.14Z"/>
      <path class="cls-27" d="M100.29,94.85s-1.63-10.05-10.25-14.15c-5.17-2.46-20.7-4.29-20.23,6.72.38,8.75-8.38,7.68-4.95,17.85,2.95,8.76,13,5.36,13,5.36l22.42-15.78Z"/>
      <path class="cls-27" d="M363.54,153.79c-11.45-9.14-28.08,1.91-31.27-10.53-3.19-12.44-18.26-13.38-18.26-13.38l-15.39,50.16c20.54,0,41.07,0,61.61,0,2.45,0,4.9,0,7.35,0,1.57,0,5.01-10.45,5.64-12.08.06-.15.11-.29.16-.44-1.4-3.92-4.52-9.47-9.84-13.71Z"/>
      <rect class="cls-32" x="212.37" y="54.97" width="101.64" height="125.19"/>
      <rect class="cls-15" x="222.5" y="61.09" width="91.5" height="13.64"/>
      <rect class="cls-19" x="147.16" y="83.55" width="114.79" height="97.04"/>
      <rect class="cls-19" x="144.32" y="80.02" width="119.42" height="3.53"/>
      <rect class="cls-19" x="210.32" y="53.21" width="105.58" height="3.53"/>
      <rect class="cls-36" x="147.16" y="92.32" width="74.27" height="18.04"/>
      <rect class="cls-26" x="77.87" y="95.05" width="69.28" height="38.43"/>
      <rect class="cls-26" x="77.87" y="141.47" width="69.28" height="38.43"/>
      <rect class="cls-33" x="87.48" y="133.47" width="59.68" height="8"/>
      <g>
        <path class="cls-19" d="M157.26,107.82c-1.74,0-3.37-.68-4.6-1.9-1.23-1.23-1.9-2.86-1.9-4.6s.68-3.37,1.9-4.6c1.23-1.23,2.86-1.9,4.6-1.9s3.37.68,4.6,1.9c1.23,1.23,1.9,2.86,1.9,4.6s-.68,3.37-1.9,4.6c-1.23,1.23-2.86,1.9-4.6,1.9ZM157.26,95.41c-1.58,0-3.06.61-4.17,1.73s-1.73,2.6-1.73,4.17.61,3.06,1.73,4.17,2.6,1.73,4.17,1.73,3.06-.61,4.17-1.73c1.11-1.11,1.73-2.6,1.73-4.17s-.61-3.06-1.73-4.17c-1.11-1.11-2.6-1.73-4.17-1.73Z"/>
        <polygon class="cls-19" points="161.46 100.26 158.32 100.26 158.32 97.12 156.2 97.12 156.2 100.26 153.06 100.26 153.06 102.38 156.2 102.38 156.2 105.52 158.32 105.52 158.32 102.38 161.46 102.38 161.46 100.26"/>
      </g>
      <g>
        <path class="cls-19" d="M168.92,98.2h1.38v2.48h2.55v-2.48h1.38v6.27h-1.38v-2.52h-2.55v2.52h-1.38v-6.27Z"/>
        <path class="cls-19" d="M175.45,101.34c0-1.78,1.41-3.24,3.34-3.24s3.33,1.44,3.33,3.24-1.41,3.24-3.34,3.24c-1.94,0-3.33-1.44-3.33-3.24ZM180.67,101.34c0-1.08-.79-1.97-1.9-1.97s-1.88.88-1.88,1.97.79,1.97,1.9,1.97,1.88-.88,1.88-1.97Z"/>
        <path class="cls-19" d="M182.87,103.56l.82-.98c.56.47,1.16.76,1.87.76.56,0,.91-.22.91-.61,0-.35-.22-.53-1.26-.8-1.26-.32-2.08-.67-2.08-1.94,0-1.14.91-1.89,2.2-1.89.91,0,1.69.29,2.33.8l-.72,1.04c-.56-.39-1.1-.62-1.63-.62s-.81.24-.81.56c0,.41.27.55,1.35.82,1.27.33,1.99.79,1.99,1.9,0,1.25-.95,1.94-2.3,1.94-.95,0-1.91-.33-2.66-1Z"/>
        <path class="cls-19" d="M189.04,98.2h2.56c1.5,0,2.4.89,2.4,2.19,0,1.45-1.13,2.2-2.54,2.2h-1.05v1.88h-1.38v-6.27h0ZM191.51,101.37c.69,0,1.09-.41,1.09-.97,0-.62-.43-.95-1.12-.95h-1.07v1.92h1.09Z"/>
        <path class="cls-19" d="M195.09,98.2h1.38v6.27h-1.38v-6.27Z"/>
        <path class="cls-19" d="M199.5,99.48h-1.91v-1.27h5.2v1.27h-1.91v5h-1.38v-5Z"/>
        <path class="cls-19" d="M205.19,98.16h1.27l2.69,6.32h-1.44l-.57-1.41h-2.65l-.57,1.41h-1.41l2.69-6.32ZM206.64,101.85l-.83-2.03-.83,2.03h1.67Z"/>
        <path class="cls-19" d="M210.12,98.2h1.38v5.02h3.13v1.25h-4.51v-6.27h0Z"/>
      </g>
      <rect class="cls-26" x="267.72" y="134.18" width="46.29" height="30.55"/>
      <rect class="cls-26" x="267.72" y="89.2" width="46.29" height="30.55"/>
      <rect class="cls-26" x="223.47" y="61.82" width="90.54" height="12.04"/>
      <polygon class="cls-2" points="147.16 84.76 261.95 88.22 261.95 83.55 147.16 83.55 147.16 84.76"/>
      <rect class="cls-19" x="73.54" y="94.82" width="73.62" height="3.8"/>
      <path class="cls-27" d="M73.43,164.19c-8.99,2.04-11.38,9.34-17.07,4.96-5.69-4.38-12.88-1.46-16.77-1.27-3.89.19-3.3-8.95-11.68-11.86-4.04-1.4-10.79-1.65-15.62-1.44-.64,5.23.03,9.49.96,12.64.93,3.15,2.46,6.12,4.66,8.73,1.02,1.21,2.43,3.34,4.11,3.94h65.79c3.29-7.93-5.39-17.75-14.38-15.71Z"/>
      <path class="cls-28" d="M49.48,40.27s6.09-7.15,20.64-6.35c0,0,21.13-11.91,43.67-1.59,0,0,23.95-2.56,41.69,2.21,11.83,3.18,15.73,6.52,15.73,6.52l-121.73-.79Z"/>
      <path class="cls-28" d="M180.66,31.51c0-2.59,2.1-4.69,4.69-4.69s4.69,2.1,4.69,4.69-2.1,4.69-4.69,4.69-4.69-2.1-4.69-4.69Z"/>
      <path class="cls-28" d="M119.72,61.22s3.33-3.91,11.31-3.48c0,0,11.57-6.52,23.92-.87,0,0,13.12-1.4,22.84,1.21,6.48,1.74,8.62,3.57,8.62,3.57l-66.68-.43Z"/>
      <g>
        <rect class="cls-32" x="165.02" y="137.45" width="80.66" height="42.14"/>
        <rect class="cls-19" x="167.73" y="140.4" width="75.61" height="39.33"/>
        <rect class="cls-26" x="170.59" y="142.89" width="70.04" height="9.04"/>
        <rect class="cls-26" x="170.59" y="154.38" width="20.48" height="25.18"/>
        <rect class="cls-26" x="193.02" y="154.38" width="25.18" height="25.18"/>
        <rect class="cls-26" x="219.94" y="154.38" width="20.7" height="25.18"/>
        <polygon class="cls-25" points="201.28 154.38 218.21 154.38 218.21 163.7 215.19 179.56 196.48 179.56 201.28 154.38"/>
        <g>
          <g>
            <rect class="cls-19" x="196.33" y="159.17" width="18.84" height="20.42"/>
            <rect class="cls-32" x="197.22" y="160.09" width="17.04" height="19.5"/>
            <rect class="cls-19" x="205.43" y="160.09" width=".64" height="19.5"/>
          </g>
          <g>
            <path class="cls-19" d="M203.91,169.84c0-.22.18-.4.4-.4s.4.18.4.4-.18.4-.4.4-.4-.18-.4-.4Z"/>
            <path class="cls-19" d="M206.78,169.84c0-.22.18-.4.4-.4s.4.18.4.4-.18.4-.4.4-.4-.18-.4-.4Z"/>
          </g>
        </g>
        <polygon class="cls-25" points="177.11 154.38 187.48 154.38 184.17 179.56 173.8 179.56 177.11 154.38"/>
        <polygon class="cls-25" points="188.99 142.89 187.8 151.92 177.43 151.92 178.62 142.89 188.99 142.89"/>
        <polygon class="cls-25" points="224.84 154.38 235.21 154.38 231.9 179.56 221.53 179.56 224.84 154.38"/>
        <polygon class="cls-25" points="236.72 142.89 235.53 151.92 225.16 151.92 226.35 142.89 236.72 142.89"/>
        <polygon class="cls-25" points="222.16 142.89 220.44 151.92 201.74 151.92 203.46 142.89 222.16 142.89"/>
      </g>
      <polygon class="cls-25" points="219.95 156.23 219.99 156.23 219.95 156.44 219.95 156.23"/>
      <path class="cls-27" d="M159.34,179.57s-.5-4.41,3.97-5.52,6.22-5.11,11.41-1.76c5.19,3.35,3.54,7.28,3.54,7.28h-18.92Z"/>
      <polygon class="cls-30" points="289.35 119.75 274.04 119.75 280.74 89.2 296.05 89.2 289.35 119.75"/>
      <polygon class="cls-25" points="302.92 164.73 287.61 164.73 294.31 134.18 309.62 134.18 302.92 164.73"/>
      <polygon class="cls-25" points="281.14 134.18 274.44 164.73 267.72 164.73 267.72 134.18 281.14 134.18"/>
      <polygon class="cls-25" points="314.01 89.2 314.01 119.75 297.17 119.75 304.65 89.2 314.01 89.2"/>
      <rect class="cls-15" x="245.64" y="61.82" width="1.28" height="12.04"/>
      <rect class="cls-15" x="271.4" y="61.82" width="1.28" height="12.04"/>
      <rect class="cls-15" x="296.53" y="61.82" width="1.28" height="12.04"/>
      <g class="cls-39">
        <g>
          <rect class="cls-32" x="85.99" y="108.84" width="7.68" height="12.11"/>
          <g>
            <path class="cls-19" d="M93.98,121.34h-8.46v-12.9h8.46v12.9ZM86.31,120.56h6.89v-11.33h-6.89v11.33Z"/>
            <rect class="cls-19" x="86.21" y="112.89" width="7.09" height=".59"/>
            <rect class="cls-19" x="86.21" y="116.92" width="7.09" height=".59"/>
            <rect class="cls-19" x="89.46" y="108.78" width=".59" height="12.17"/>
          </g>
        </g>
        <g>
          <rect class="cls-32" x="108.15" y="108.84" width="7.68" height="12.11"/>
          <g>
            <path class="cls-19" d="M116.14,121.34h-8.46v-12.9h8.46v12.9ZM108.47,120.56h6.89v-11.33h-6.89v11.33Z"/>
            <rect class="cls-19" x="108.37" y="112.89" width="7.09" height=".59"/>
            <rect class="cls-19" x="108.37" y="116.92" width="7.09" height=".59"/>
            <rect class="cls-19" x="111.62" y="108.78" width=".59" height="12.17"/>
          </g>
        </g>
        <g>
          <rect class="cls-32" x="130.31" y="108.84" width="7.68" height="12.11"/>
          <g>
            <path class="cls-19" d="M138.31,121.34h-8.46v-12.9h8.46v12.9ZM130.63,120.56h6.89v-11.33h-6.89v11.33Z"/>
            <rect class="cls-19" x="130.53" y="112.89" width="7.09" height=".59"/>
            <rect class="cls-19" x="130.53" y="116.92" width="7.09" height=".59"/>
            <rect class="cls-19" x="133.79" y="108.78" width=".59" height="12.17"/>
          </g>
        </g>
      </g>
      <g class="cls-39">
        <g>
          <rect class="cls-32" x="85.99" y="150.38" width="7.68" height="12.11"/>
          <g>
            <path class="cls-19" d="M93.98,162.88h-8.46v-12.9h8.46v12.9ZM86.31,162.1h6.89v-11.33h-6.89v11.33Z"/>
            <rect class="cls-19" x="86.21" y="154.43" width="7.09" height=".59"/>
            <rect class="cls-19" x="86.21" y="158.46" width="7.09" height=".59"/>
            <rect class="cls-19" x="89.46" y="150.32" width=".59" height="12.17"/>
          </g>
        </g>
        <g>
          <rect class="cls-32" x="108.15" y="150.38" width="7.68" height="12.11"/>
          <g>
            <path class="cls-19" d="M116.14,162.88h-8.46v-12.9h8.46v12.9ZM108.47,162.1h6.89v-11.33h-6.89v11.33Z"/>
            <rect class="cls-19" x="108.37" y="154.43" width="7.09" height=".59"/>
            <rect class="cls-19" x="108.37" y="158.46" width="7.09" height=".59"/>
            <rect class="cls-19" x="111.62" y="150.32" width=".59" height="12.17"/>
          </g>
        </g>
        <g>
          <rect class="cls-32" x="130.31" y="150.38" width="7.68" height="12.11"/>
          <g>
            <path class="cls-19" d="M138.31,162.88h-8.46v-12.9h8.46v12.9ZM130.63,162.1h6.89v-11.33h-6.89v11.33Z"/>
            <rect class="cls-19" x="130.53" y="154.43" width="7.09" height=".59"/>
            <rect class="cls-19" x="130.53" y="158.46" width="7.09" height=".59"/>
            <rect class="cls-19" x="133.79" y="150.32" width=".59" height="12.17"/>
          </g>
        </g>
      </g>
      <rect class="cls-2" x="145.37" y="124.71" width="119.96" height="4.22"/>
      <path class="cls-27" d="M105.91,94.82s2.07-6.75,7.18-6.59c5.11.15,6.7,4.85,8.46,4.1,1.75-.75,6.86-.32,7.18,2.5h-22.81Z"/>
      <g>
        <g>
          <path class="cls-14" d="M349.05,156.33v2.86c0,.25-.06.5-.17.72-.26.53-.81.89-1.43.89h-.51c-.88,0-1.6-.72-1.6-1.6v-2.86c0-.3.09-.58.23-.82h0c.28-.47.79-.78,1.37-.78h.51c.88,0,1.6.72,1.6,1.6Z"/>
          <path class="cls-8" d="M348.89,159.9c-.26.53-.81.89-1.43.89h-.51c-.88,0-1.6-.72-1.6-1.6v-2.86c0-.3.09-.58.23-.82.03.18.71,4.1,3.32,4.4Z"/>
        </g>
        <polygon class="cls-38" points="323.65 177.26 331.57 177.26 331.57 169.27 323.31 169.27 323.65 177.26"/>
        <path class="cls-19" d="M348.63,160.36l-38.91.96v-20.52h25.55c2.44,0,4.67,1.36,5.78,3.53l1.67,3.26,5.91,12.76Z"/>
        <path class="cls-14" d="M326.52,175.96c0,2.17,1.12,4.56,1.12,4.56h1.89c1.66,0,3.01-2.04,3.01-4.56s-3.24-4.56-4.91-4.56-1.12,2.04-1.12,4.56Z"/>
        <path class="cls-4" d="M324.63,175.96c0,2.52,1.35,4.56,3.01,4.56s3.01-2.04,3.01-4.56-1.35-4.56-3.01-4.56-3.01,2.04-3.01,4.56Z"/>
        <path class="cls-26" d="M325.41,175.96c0,1.9,1.02,3.44,2.27,3.44s2.27-1.54,2.27-3.44-1.02-3.44-2.27-3.44-2.27,1.54-2.27,3.44Z"/>
        <path class="cls-14" d="M348.31,175.96c0,2.17,1.12,4.56,1.12,4.56h1.89c1.66,0,3.01-2.04,3.01-4.56s-3.24-4.56-4.91-4.56-1.12,2.04-1.12,4.56Z"/>
        <path class="cls-4" d="M346.41,175.96c0,2.52,1.35,4.56,3.01,4.56s3.01-2.04,3.01-4.56-1.35-4.56-3.01-4.56-3.01,2.04-3.01,4.56Z"/>
        <path class="cls-14" d="M298.28,175.96c0,2.17,1.12,4.56,1.12,4.56h1.89c1.66,0,3.01-2.04,3.01-4.56s-3.24-4.56-4.91-4.56-1.12,2.04-1.12,4.56Z"/>
        <path class="cls-4" d="M296.38,175.96c0,2.52,1.35,4.56,3.01,4.56s3.01-2.04,3.01-4.56-1.35-4.56-3.01-4.56-3.01,2.04-3.01,4.56Z"/>
        <path class="cls-19" d="M357.34,173.81c0,1.91-1.54,3.45-3.45,3.45h-22.32c.06-.37.1-.76.1-1.16,0-2.95-1.77-5.35-3.95-5.35s-3.95,2.39-3.95,5.35c0,.4.03.79.09,1.16h-13.04s-.53-5.82-.46-8.74c.05-2.54.05-7.52-.1-8.73,0-.18,12.58-.2,15.75-.22.43,0,.69,0,.72,0l.04.03.05.03c.59.41,3.87,2.71,5.9,4.06,1.8,1.18,15.05,1.67,20.25,1.81,1.29.03,2.09.05,2.09.05,0,0,.71.73,1.34,1.88.48.89.91,2.04.92,3.29,0,.78,0,1.72,0,2.64,0,.15,0,.3,0,.45Z"/>
        <path class="cls-32" d="M345.49,159.56h-17.49c-.4,0-.77-.24-.94-.6l-4.33-9.63c-.14-.31.09-.67.44-.67h18.45c.4,0,.78.24.94.62l3.1,7.08.78,1.77c.29.68-.2,1.43-.94,1.43Z"/>
        <path class="cls-2" d="M337.34,173.35c0,.3-.02.59-.03.84-.13,1.68-1.81,3.07-1.81,3.07h-3.93c.06-.37.1-.76.1-1.16,0-1-.21-1.94-.56-2.74-.69-1.56-1.95-2.6-3.39-2.6s-2.7,1.04-3.4,2.6c-.35.8-.56,1.74-.56,2.74,0,.4.03.79.1,1.16h-14.15v-36.45h11.36l.05,6.79s.19,1.02.58,1.93c.35.81.81,1.89,1.31,3.07,1.03,2.41,2.24,5.23,3,6.97.38.88.65,1.48.71,1.61.21.4,3.36,2.11,6.03,3.63.66.38,1.3.74,1.85,1.07.78.47,1.4.87,1.69,1.13.73.66,1.09,4.06,1.05,6.34Z"/>
        <polygon class="cls-19" points="355.06 165.55 334.34 165.55 326.77 159.59 326.73 159.56 347.63 159.56 353.59 164.35 355.06 165.55"/>
        <path class="cls-1" d="M337.02,169.04l-1.87-.19c-.65-.06-1.18-.56-1.3-1.2l-.43-2.37s-.01-.07,0-.11c1.34.77,2.46,1.45,2.89,1.83.31.28.56,1.06.73,2.03Z"/>
        <path class="cls-19" d="M342.72,147.6h-21.59s-.08-1.38-.63-2.96c-.48-1.39-1.32-2.95-2.77-3.83h17.64c2.88,0,5.42,1.54,6.44,3.83.05.1.09.19.13.29.3.8.58,1.69.79,2.67Z"/>
        <path class="cls-11" d="M337.03,169.04l-1.88-.19c-.65-.06-1.18-.56-1.3-1.2l-.43-2.37s-.01-.08,0-.12c1.34.77,2.46,1.46,2.89,1.84.31.28.56,1.06.73,2.03Z"/>
        <path class="cls-14" d="M357.34,173.81c0,1.91-1.62,3.45-3.61,3.45h-22.15c.06-.37.1-.76.1-1.16,0-1-.21-1.94-.56-2.74h26.22c0,.15,0,.3,0,.45Z"/>
        <path class="cls-14" d="M323.77,176.1c0,.4.03.79.09,1.16h-14.15v-3.91h14.61c-.35.8-.56,1.74-.56,2.74Z"/>
        <path class="cls-14" d="M342.75,165.71h8.48c.27,0,.48.37.44.77l-.3,2.95c-.04.43-.29.75-.58.75h-6.98c-.45,0-.84-.44-.97-1.09l-.5-2.5c-.09-.43.13-.87.43-.87Z"/>
        <path class="cls-26" d="M345.66,156.36c-10-.51-16.76-5.86-18.8-7.7h14.76c.4,0,.78.24.94.62l3.1,7.08Z"/>
        <rect class="cls-19" x="275.9" y="140.81" width="37.81" height="36.46"/>
        <path class="cls-2" d="M342.72,147.6h-21.59s-.08-1.38-.63-2.96h21.31c.05.1.09.19.13.29.3.8.58,1.69.79,2.67Z"/>
        <path class="cls-14" d="M356.4,167.42c-.12.2-.28.33-.44.36l-2.91.54c-.25.05-.44-.38-.37-.82l.28-1.96v-.05s.06-.4.06-.4c.05-.34.2-.61.39-.68l.17-.06,1.48,1.19s.71.73,1.34,1.88Z"/>
        <rect class="cls-13" x="275.9" y="164.8" width="60.39" height="3.07"/>
        <rect class="cls-13" x="275.9" y="147.12" width="37.81" height="3.07"/>
        <g>
          <path class="cls-13" d="M289.43,157.43c0-2.97,2.41-5.38,5.38-5.38s5.38,2.41,5.38,5.38-2.41,5.38-5.38,5.38-5.38-2.41-5.38-5.38Z"/>
          <g>
            <path class="cls-19" d="M294.81,162.2c-1.27,0-2.47-.5-3.37-1.4-.9-.9-1.4-2.1-1.4-3.37s.5-2.47,1.4-3.37c.9-.9,2.1-1.4,3.37-1.4s2.47.5,3.37,1.4c.9.9,1.4,2.1,1.4,3.37s-.5,2.47-1.4,3.37c-.9.9-2.1,1.4-3.37,1.4ZM294.81,153.1c-1.16,0-2.24.45-3.06,1.27-.82.82-1.27,1.9-1.27,3.06s.45,2.24,1.27,3.06c.82.82,1.9,1.27,3.06,1.27s2.24-.45,3.06-1.27,1.27-1.9,1.27-3.06-.45-2.24-1.27-3.06-1.9-1.27-3.06-1.27Z"/>
            <polygon class="cls-19" points="297.89 156.65 295.59 156.65 295.59 154.35 294.03 154.35 294.03 156.65 291.73 156.65 291.73 158.21 294.03 158.21 294.03 160.51 295.59 160.51 295.59 158.21 297.89 158.21 297.89 156.65"/>
          </g>
        </g>
        <path class="cls-14" d="M340.58,169.4l-3.55-.35h0l-1.87-.19c-.65-.06-1.18-.56-1.3-1.2l-.43-2.37s-.01-.07,0-.11h0c-.02-.5.44-.91.95-.81l5.53,1.12c.35.07.63.34.73.68l.65,2.4c.12.44-.24.87-.69.82Z"/>
        <path class="cls-32" d="M321.2,150.39l3.72,9.17h-6.39s-1.31-.22-1.48-2.9c-.18-2.86-.18-7.8-.18-7.8h2.81c1.07.15,1.24.74,1.52,1.52Z"/>
        <path class="cls-14" d="M323.03,154.85s.32,3.71-1.51,4.72h3.42l-1.91-4.72Z"/>
        <path class="cls-14" d="M323.53,157.34s-.77-.55-.84-1v2.59h1.01l-.17-1.59Z"/>
        <path class="cls-14" d="M322.69,156.33v2.86c0,.25-.06.5-.17.72-.26.53-.81.89-1.43.89h-.51c-.88,0-1.6-.72-1.6-1.6v-2.86c0-.3.09-.58.23-.82h0c.28-.47.79-.78,1.37-.78h.51c.88,0,1.6.72,1.6,1.6Z"/>
        <path class="cls-14" d="M313.75,176.1c0,.4.06.79.17,1.16h-26.03v-3.91h26.89c-.65.8-1.03,1.74-1.03,2.74Z"/>
        <path class="cls-14" d="M301.76,176.1c0,.4.06.79.17,1.16h-26.03v-3.91h26.89c-.65.8-1.03,1.74-1.03,2.74Z"/>
        <path class="cls-38" d="M288.25,177.26h-9.3c-.2-.84-.79-6.82,4.42-6.82,4.74,0,5.09,5.45,4.88,6.82Z"/>
        <g>
          <path class="cls-14" d="M281.86,175.96c0,2.17,1.12,4.56,1.12,4.56h1.89c1.66,0,3.01-2.04,3.01-4.56s-3.24-4.56-4.91-4.56-1.12,2.04-1.12,4.56Z"/>
          <path class="cls-4" d="M279.97,175.96c0,2.52,1.35,4.56,3.01,4.56s3.01-2.04,3.01-4.56-1.35-4.56-3.01-4.56-3.01,2.04-3.01,4.56Z"/>
          <path class="cls-26" d="M280.75,175.96c0,1.9,1.02,3.44,2.27,3.44s2.27-1.54,2.27-3.44-1.02-3.44-2.27-3.44-2.27,1.54-2.27,3.44Z"/>
        </g>
      </g>
      <g>
        <path class="cls-29" d="M220.85,138.49c-.19-.37,4.2-1.71,4.27,1.96,0,0,8.24-.2,4.3-4.79-1.36-1.59-1.22-2.9-1.18-4.13.04-1.22-.85-4.78-3.9-4.42,0,0-.8-.32-1.79.19-2.27,1.18-7.34,12.54-1.71,11.19Z"/>
        <path class="cls-7" d="M234.31,142.59s.54-.82.97-.83c.43-.02,1.23-.24,1.17-.08-.06.16-.56.18-.61.27-.05.1.74.24.96.26.22.02.75,0,.74.11-.02.11-.95.58-1.61.51-.66-.06-1.48.19-1.48.19l-.14-.43Z"/>
        <path class="cls-29" d="M226.56,142.85s.29.58.82,1.24c.64.8,1.62,1.72,2.85,1.9.59.09,1.17-.04,1.69-.28,0,0,0,0,0,0,1.5-.66,2.62-2.19,2.62-2.19.26-.72-.17-1.21-.17-1.21,0,0-3.02.68-3.31.54-.29-.14-1.97-4.98-2.37-5.59-.4-.61-1.76-.92-1.76-.92l-.38,6.52Z"/>
        <path class="cls-14" d="M215.28,175.5s-.92.84-.74,1.44,1.01,1,1.13,1.73.56,1.13.97,1.13h1.93s.3-.51-.42-.67c-.72-.16-.99-1.01-.95-1.81.05-.8-.07-1.86-.07-1.86l-1.53-.35-.32.4Z"/>
        <path class="cls-14" d="M223.09,175.86s-.33,3.57.07,3.77h5.19s0-.61-.83-.74c-.83-.13-2.3-.62-2.54-1.71-.25-1.09-1.88-1.32-1.88-1.32Z"/>
        <path class="cls-7" d="M219.39,150.26c1.07-2.39,1.72-3.08,1.6-3.82-.09-.55.28-10.31.28-10.31.13-.04.38-.07.52-.11.44-.1.8-.4.95-.83.18-.51.33-1.26.32-2.2l.14.03,2.3.46s-.05.72-.05,1.4c0,0,0,.01,0,.02,0,.59.39,1.11.95,1.28.29.08.54.16.54.16,0,0,.84,2.41,1.01,4.88.16,2.47-1.53,3.55.01,8.5,1.58,5.05-9.16,1.87-8.57.54Z"/>
        <path class="cls-3" d="M225.5,133.48s-.05.72-.05,1.4c-1.29-.04-1.97-1.21-2.24-1.86l2.3.46Z"/>
        <path class="cls-7" d="M225.93,134.13s-3.04.05-3.04-1.85c0-1.9-.4-3.17,1.55-3.28s2.32.61,2.48,1.24c.15.63-.19,3.82-.98,3.88Z"/>
        <path class="cls-29" d="M225.81,128.96s-.83,2.22-2.11,2.55c-1.28.33-1.83-.01-1.83-.01,0,0,.98-.78,1.18-2.14,0,0,2.13-1.46,2.76-.4Z"/>
        <path class="cls-29" d="M225.61,129.14s.62.23.87.68c.25.44.46,1.02.41,1.74,0,0,.63-1.51-.08-2.37-.75-.91-1.21-.06-1.21-.06Z"/>
        <path class="cls-23" d="M225.26,132.95s.21.28.63.26c.34-.02.47-.31.47-.31,0,0-.62-.15-1.1.05Z"/>
        <path class="cls-29" d="M219.81,140.45s.01,1.44.09,2.75c.05.87.13,1.67.26,1.96.31.72.66.84.66.84l2.72.67.96.23,3.02-.9s1.37-3.84.82-6c-.55-2.16-1.4-3.66-1.4-3.66,0,0-2.46,2.41-5.67-.2l-1.46,4.32Z"/>
        <path class="cls-34" d="M227.32,146.58s1.5,4.65,1.59,6.24c.1,1.58-2.86,22.51-2.98,23.24-.11.69-.97,1.13-.97,1.13,0,0-.39.23-.95.07-.78-.22-1.02-.48-1.02-.48,0,0-1.16-14.92-.44-20.25.72-5.33.73-9.94.73-9.94h4.05Z"/>
        <path class="cls-9" d="M220.99,146.44s-2.28,3.06-2.49,5.13c-.21,2.07-.33,9.33-.79,11.35-.45,2.02-2.12,5.9-2.12,12.19,0,0,.17.36.71.55.17.06.4.12.62.17.44.1.89-.11,1.09-.52,1.12-2.26,4.71-9.57,4.89-11.09.13-1.07,1.26-8.18,3.73-12.34.59-1-.36-4.98-.36-4.98l-5.28-.46Z"/>
        <path class="cls-19" d="M225.33,133s.05.22.61.19c0,0,.47-.03.45-.27,0,0-.45-.17-1.06.09Z"/>
        <path class="cls-14" d="M227.56,145.86s-.6.47-1.79.5c-1.42.03-4.95-.36-4.95-.36,0,0-.16.44-.15.9,0,0,4.31,1.09,6.81.16,0,0,.32-.61.09-1.2Z"/>
        <path class="cls-19" d="M225.46,146.85c0-.41.29-.74.65-.74s.65.33.65.74-.29.74-.65.74-.65-.33-.65-.74ZM225.67,146.85c0,.29.19.52.43.52s.43-.23.43-.52-.19-.52-.43-.52-.43.23-.43.52Z"/>
        <rect class="cls-29" x="217.17" y="149.16" width="3.89" height="6.94" transform="translate(23.73 334.65) rotate(-77.83)"/>
        <path class="cls-21" d="M222.91,151.45s-1.9,1.59-4,1.04-2.78-2.5-2.78-2.5l6.78,1.46Z"/>
        <path class="cls-21" d="M221.58,151.21c0-.21.17-.38.38-.38s.38.17.38.38-.17.38-.38.38-.38-.17-.38-.38ZM221.71,151.21c0,.14.11.25.25.25s.25-.11.25-.25-.11-.25-.25-.25-.25.11-.25.25Z"/>
        <path class="cls-7" d="M216.44,151.68s0,.55-.11.82c-.1.27-.42.62-.52.62s.1-.55.04-.54-.3.92-.49.94c-.18.02-.35-1.02-.25-1.43.1-.41.51-.9.51-.9l.82.49Z"/>
        <path class="cls-29" d="M221.27,136.13s-1.68.23-2.59,2.01c-.7,1.38-1.18,5.72-1.67,7.08-.47,1.31-1.13,3.83-1.49,5.86-.03.16.06.31.21.37l.62.25c.13.05.29,0,.36-.12.55-.92,2.72-4.62,3.47-6.76.88-2.5,2.53-4.06,2.53-4.06l-1.43-4.63Z"/>
        <path class="cls-24" d="M222.08,150.91c0-.06.4-6.25.32-9.73-.04-1.83-.32-3.11-.55-3.87-.25-.83-.63-1.17-.64-1.18l-.13.04s1.05,1.58,1.12,5.02c.07,3.47-.32,9.65-.32,9.71h.19Z"/>
      </g>
      <g>
        <g>
          <path class="cls-7" d="M116.8,176.52l-.96-.31s-.2-2.61.23-5.74c.27-1.98.77-4.13,1.67-5.85.41-.78.9-1.47,1.49-2.03,0,0,.74-1.71,1.71-4,1.09-2.54,7.88-3.29,4,2.04-.8,1.09-1.65,3.02-2.67,4.19-1.75,2-2.98,4.33-3.83,6.39-1.21,2.94-1.63,5.31-1.63,5.31Z"/>
          <path class="cls-7" d="M114.61,176.66c-.29.47.34.93,1.12,1.37.78.44.46.48,1.45,1.22,1,.74,1.58.66,1.73.55.14-.1-.27-.55-.7-1.05-.05-.06-.11-.13-.16-.19-.48-.57-.55-1.29-.77-2.03-.21-.7.12-2.45.12-2.45l-1.33-1.06s-.27,1.59-.42,2.25c-.09.39-.41.72-.66.96-.14.13-.28.27-.38.43Z"/>
          <path class="cls-10" d="M115.72,178.03c.78.44.46.48,1.45,1.22,1,.74,1.58.66,1.73.55.14-.1-.27-.55-.7-1.05h-.01s-.9-.12-1.67-.8c-.63-.56-1.11-1.34-1.54-1.72-.14.13-.28.27-.38.43-.29.47.34.93,1.12,1.37Z"/>
        </g>
        <g>
          <path class="cls-7" d="M111.12,178.21l-1.11.57s-.66-.86-1.25-1.91c-.41-.73-.79-1.55-.89-2.22-.23-1.63-1.95-4.31-1.77-4.76s3.6-1.24,3.6-1.24c0,0,.67,4.58,1.11,7.54.13.86.24,1.59.31,2.02Z"/>
          <path class="cls-4" d="M110.27,171.82c-.63.31-1.22.48-1.73.58-.75.15-1.32.12-1.57.1-.09,0-.14-.02-.14-.02,0,0-.62-.44-1.33-1.48-.65-.95-1.14-2.3-1.14-2.32l5.22-.51.68,3.64Z"/>
          <path class="cls-14" d="M108.55,172.41c-.75.15-1.32.12-1.57.1l.59-2.28s.76,1.19.98,2.18Z"/>
          <path class="cls-19" d="M111.12,178.21l-1.11.57s-.66-.86-1.25-1.91c.46-.03,1.26-.17,2.05-.69.13.86.24,1.59.31,2.02Z"/>
          <path class="cls-7" d="M108.6,169.7s-1.4,1.98-2.25,4.75c-.2.65-.88,1.47-1.57,2.19-.67.7-1.34,1.32-1.59,1.62l-1.13-.54s.4-1.14.98-2.17c.22-.38.46-.75.72-1.04.36-.4.24-5.48.6-5.82.36-.33,4.23,1.01,4.23,1.01Z"/>
          <path class="cls-4" d="M109.26,168.52l-2.07,4.2s-1.54.05-2.63-.56c-.62-.35-.9-.76-.9-.76l.64-2.88h4.95Z"/>
          <path class="cls-20" d="M105.56,154.5s-.7-1.48-2.4-.6c-1.7.88-.04,4.23-.94,5.06-.89.83.32,1.37.14,1.97s.34,1.27,1.52,1.19c1.19-.08,2.44-.02,2.98-1.05.54-1.04.41-3.33.21-3.65s-1.51-2.92-1.51-2.92Z"/>
          <path class="cls-7" d="M105.42,160.64h0s0,0,0,0Z"/>
          <path class="cls-7" d="M108.31,162.39l-2.89-1.74s.07-.09.29-.72c.09-.27.14-.5.16-.68,0-.02,0-.04,0-.05.03-.27,0-.42,0-.42l.63.23,1.17.42c-.01.3.03.51.09.65.15.35.44.35.45.35l.08,1.96Z"/>
          <path class="cls-12" d="M107.79,160.07c-1.13.1-1.77-.64-1.91-.83-.02-.03-.03-.04-.03-.04,0,0,.01,0,.04-.01.09-.03.34-.1.64-.19l1.17.42c-.01.3.03.51.09.65Z"/>
          <path class="cls-7" d="M107.85,159.67s-2.51.28-2.56-1.42c-.05-1.7-.42-2.48,1.32-2.63,1.74-.15,2.15.47,2.25,1.05.32,1.8-.3,2.92-1,3Z"/>
          <path class="cls-37" d="M103.16,153.9c-.04-.08-.06-.13-.06-.13.03.04.05.08.06.13Z"/>
          <path class="cls-7" d="M108.65,160.59s2.41-1.85,2.67-2.46c.26-.61,1.36-2.86,1.65-3.08,0,0,.6-.08.68.34s-.57,2.87-1.03,3.62c-.46.74-2.65,3.26-3.37,3.63l-.61-2.03Z"/>
          <path class="cls-7" d="M114.51,153.91c-.04.21-.13.44-.23.56-.14.16-.35.48-.48.68-.09.13-.14.22-.14.22l-.68-.33s-.02-1.16.44-1.41c.02,0,.02-.02.04-.02.19-.1.37-.17.53-.22.21-.06.38-.06.48,0,.09.05.1.28.06.52Z"/>
          <path class="cls-20" d="M106.73,156.45c-.89-.22-.55,1.35-.77,1.24-.25-.12-.68-.12-.61.18.07.3.17.41.22.6.05.19,0,.56-.21.49s-2.13-2.27-.77-3.98c1.36-1.71,5.4-.66,4.13,1.13-.22.31-1.35.49-1.98.33Z"/>
          <path class="cls-9" d="M109.96,169.14s-.75.4-1.94.38c-.76-.01-2.36-.34-3.4-.71-.59-.21-.99-.44-.94-.63.07-.27.57-2.38,1.04-4.33.43-1.78.82-3.43.82-3.43,0,0,1.18.84,1.86.54.69-.3.6-.63.6-.63,0,0,.45-.18.66-.11.21.07.81-.27.81-.27,0,0,.66.51.68,1.6,0,.16,0,.34-.03.53l-.48.55s1.01,3.18.32,6.52Z"/>
          <path class="cls-31" d="M112.95,179.57h-3.31s-.06-.54.01-1c0-.06.04-.11.08-.15.19.07.48.11.79,0,.26-.09.45-.23.59-.36.03.03.72.68,1.03.68.32,0,.82.16.8.83Z"/>
          <path class="cls-19" d="M104.78,176.64c-.67.7-1.34,1.32-1.59,1.62l-1.13-.54s.4-1.14.98-2.17c.2.31.73.96,1.73,1.09Z"/>
          <path class="cls-31" d="M103.44,177.97s-.04.72.2.81c.24.1.69.33.69.79h-1.66s-1.14-.56-1.3-.8c-.15-.24.76-1.26.76-1.26,0,0,.56.62,1.31.46Z"/>
          <path class="cls-7" d="M106.18,166.3s.73-.14,1.01.05c.28.19.37.48.16.6-.64.37-1.29-.04-1.29-.04l.12-.61Z"/>
          <path class="cls-7" d="M105.56,160.65s-2.23.47-3.12,3.95c-.09.34,0,.7.24.96.41.45,1.3,1.11,3.38,1.35.23.03.26-.55.26-.55-.02.05-1.41-.9-2-1.4-.11-.09-.1-.28-.03-.4.2-.3.53-.83.65-1.1.16-.39,1.25-2.62.62-2.8Z"/>
          <path class="cls-9" d="M105.54,160.42s-1.31.09-2.39,1.52c0,0,.36,1.31,2.06,1.66,0,0,1.05-2.37.32-3.19Z"/>
        </g>
        <path class="cls-20" d="M123.45,126.48s-2.34-.29-3.52,1.9c-1.18,2.18-1.08,5.34-2.23,6.83-1.14,1.49.19,2.9.19,2.9l8.9.3s.62-1.67,0-3.67c-.62-2,2.4-7.97-3.34-8.27Z"/>
        <path class="cls-3" d="M130.99,152.96c-.09.35-.39,1.13-.62,1.13-.19,0-.26-.96-.5-1.17-.35-.3-.64-.92-.69-1.07-.09-.31-.18-.38-.18-.38h0s0,0,0,0c0,0-2.82-5.15-3.04-6.46-.07-.43-.26-1.29-.47-2.25-.24-1.05-.51-2.22-.71-3.1.9-.18,1.89-.24,2.7-.25.17,1.07.31,2.16.44,3.1.19,1.41.33,2.5.42,2.74.24.64.92,4.11,1.56,5.91.07.18.28.64.51.79.28.2.68.66.59,1Z"/>
        <path class="cls-7" d="M125.89,147.88c-1.56-4.97,1.58-4.91,1.41-7.39-.16-2.49-2.09-5.16-2.09-5.16,0,0-.07,0-.19-.02-.07,0-.12-.05-.15-.11-.07-.2-.09-.63-.09-1.08,0-.68.05-1.41.05-1.41l-2.31-.46-.14-.03c0,1.16-.22,2.04-.45,2.52-.11.23-.33.39-.59.43-.5.07-1.37.22-1.96.46-.29.12-.5.26-.58.43-.63,1.39-1.27,4.91-1.71,7.43-.25,1.4-.44,2.49-.54,2.72-.28.64-1.12,4.18-1.84,5.92l.92.28s3.03-5.02,3.3-6.33c.09-.43.31-1.28.57-2.23.04-.14.08-.29.12-.44.45,1.23.69,1.8.67,2.33-.02.76-.53,1.44-1.6,3.84-.59,1.33,8.77,3.39,7.18-1.69Z"/>
        <path class="cls-3" d="M124.84,132.71s-.05.73-.05,1.41c-1.29-.04-1.98-1.22-2.26-1.87l2.31.46Z"/>
        <path class="cls-7" d="M125.27,133.36s-3.06.05-3.06-1.85c0-1.9-.4-3.18,1.55-3.29,1.95-.11,2.33.61,2.49,1.25.16.64-.19,3.84-.98,3.9Z"/>
        <path class="cls-7" d="M129.54,177.75l-.98.24s-1.54-2.11-2.83-5c-.81-1.83-1.52-3.91-1.66-5.85-.06-.88-.01-1.72.2-2.5,0,0-.27-1.84-.65-4.3-.42-2.74-.96-6.23-1.38-8.8l.26-.08,4.17-2.44s1.92,4.37,1.43,10.95c-.1,1.35.19,3.44-.07,4.97-.44,2.62-.26,5.26.1,7.45.52,3.14,1.41,5.37,1.41,5.37Z"/>
        <path class="cls-16" d="M119.45,142.91c.57,1.58.87,2.23.85,2.83,1.83-2.83,5.13-3.26,5.13-3.26l-6.27-.72c.06.39.15.77.29,1.14Z"/>
        <path class="cls-20" d="M126.16,128.4c-.47-.57-.83-.45-1.03-.28-1.64-.91-2.75.44-2.75.44-.2,1.37-1.19,2.15-1.19,2.15,0,0,.54.29,1.84.01,1.54-.33,1.96-2.06,2.03-2.29.19.17.55.53.67.89.15.49.22,1.48.51,1.45,0,0,.63-1.52-.08-2.38Z"/>
        <path class="cls-7" d="M114.79,151.98s-.28.66-.57.84c-.29.18-.7.63-.63.98s.15.9.52.9,1.22-1.62,1.33-1.93c.11-.31.2-.37.2-.37l-.85-.43Z"/>
        <path class="cls-19" d="M129.2,166.43c-3.69,2.11-13.41-1.25-13.4-1.44.05-1.03.99-7.25,2.08-13.18.67-3.65,2.47-5.01,2.18-5.24h0c-1.11-.79-.63-2.14-.56-2.62-.34.09-1.44.3-2.69-.39.52-2.53,1.25-6.07,1.99-7.48.04-.07.1-.13.18-.19,0,0,0,0,0,0,.69-.5,2.1-.66,2.1-.66,0,0,.76,1.86.99,2.16,1.51,1.88,4.21,1.03,3.85-.14-.13-.43-.82-1.77-.9-1.92,0,0,.19.02.19.02.45.06.78.11,1.01.15.45.08.57.13.68.22.4.4.92,1.39.96,3.16.02.66.7,7.91-1.51,7.79-.05,0,0,.12.09.34.31.72,1.2,2.52,1.46,4.83.84,7.52,1.31,14.63,1.31,14.63Z"/>
        <path class="cls-19" d="M124.39,132.23s.06.23.64.19c0,0,.49-.04.47-.29,0,0-.48-.18-1.12.1Z"/>
        <path class="cls-7" d="M115.45,152.77s-.1.74-.3.91c-.2.17-.22.48-.42.31-.2-.17.72-1.22.72-1.22Z"/>
        <path class="cls-7" d="M127.75,179.03c0,.55.78.62,1.67.58.89-.04.64.17,1.88.27,1.24.11,1.69-.27,1.76-.45.06-.15-.52-.33-1.15-.53-.08-.02-.16-.05-.24-.08-.71-.23-1.14-.81-1.72-1.32-.55-.49-1.19-2.15-1.19-2.15l-1.69-.2s.61,1.5.83,2.14c.13.38.03.82-.06,1.16-.05.19-.1.37-.1.57Z"/>
        <path class="cls-10" d="M129.42,179.61c.89-.04.64.17,1.88.27,1.24.11,1.69-.27,1.76-.45.06-.15-.52-.33-1.15-.53h0s-.83.38-1.84.21c-.82-.14-1.65-.55-2.22-.65-.05.19-.1.37-.1.57,0,.55.78.62,1.67.58Z"/>
        <path class="cls-9" d="M129.2,166.43c-3.69,2.11-13.41-1.25-13.4-1.44.05-1.03.99-7.25,2.08-13.18.67-3.65,2.47-5.01,2.18-5.24.07.06,1.11.9,3.02.78,1.71-.1,3.03-.32,3.35-.37.31.72,1.2,2.52,1.46,4.83.84,7.52,1.31,14.63,1.31,14.63Z"/>
        <path class="cls-34" d="M120.06,146.56s3.02,1.26,6.29.07l.17.51s-3.36,1.17-6.58-.16l.13-.42Z"/>
      </g>
      <path class="cls-35" d="M382.59,180.59H.43c-.24,0-.43-.2-.43-.43v-.15c0-.24.2-.43.43-.43h382.15c.24,0,.43.2.43.43v.15c0,.24-.2.43-.43.43Z"/>
      <g>
        <path class="cls-14" d="M253.33,179.94h-3.27c.02-.17.11-.69.26-1.18.05-.17.12-.33.19-.47.32-.64,2.34-.23,2.34-.23,0,0,.19.16.33.78.07.27.12.63.15,1.1Z"/>
        <path class="cls-22" d="M247.32,129.91s-2.61.46-3.2,2c-.59,1.54-3.92,26.42-3.92,26.42,0,0,1.65,1.31,5.19.84s1.93-29.26,1.93-29.26Z"/>
        <path class="cls-14" d="M243.44,178.9c0,.45-.06.87-.23,1.03h-6.48c.08-.23.32-.59.98-.69.76-.12,1.93-.49,2.62-1.21.25-.26.43-.56.51-.92.3-1.36,2.52.42,2.52.42,0,0,.09.71.08,1.38Z"/>
        <path class="cls-14" d="M240.65,178.24c.72.23,2.11.94,2.99.6.57-.21,3.74-9.4,3.95-13.42.02-.29.07-.7.16-1.2.19-1.04.52-2.46.9-4.03,1.02-4.21,2.39-9.48,2.36-11.17-.05-2.61-7.79-.55-7.79-.55,0,0-.53,2.14-.64,5.25-.21,6.16-.79,16.57-2.36,23.8-.07.31.14.61.44.71Z"/>
        <path class="cls-4" d="M246.02,149.04l4.09,29.67s1.8.43,3.2.09c0,0,1.2-15.78,1.1-19.6-.1-3.82.86-10.21-.22-10.91-1.08-.7-8.17.75-8.17.75Z"/>
        <path class="cls-19" d="M254.71,131.27s-4.3-2.78-7.39-1.36c-.49.23-1.05.86-1.45,1.3-1.12,1.23-3.29,20.75-3.29,20.75,0,0,6.19,2.1,12.14-.71v-19.99Z"/>
        <path class="cls-22" d="M247.08,129.84s-4.36,1.79-4.95,3.16c-.59,1.37-2.51,9.79-2.51,10.78s3.34.22,3.88-1.37c.45-1.32,1.95-5.39,2.75-7.96l.83-4.61Z"/>
        <g>
          <path class="cls-7" d="M247.98,131.2c.95.19,2.35-.01,3.37-.69-.46-1.1-.65-1.97-.72-2.54,0-.03,0-.06,0-.09-.03-.29-.03-.49-.01-.58h-2.46s-.67.31-.67.52c0,.11,0,.22,0,.33,0,.28-.02.53-.03.74-.05.69-.13,1.01-.13,1.01,0,0-.3,1.1.66,1.29Z"/>
          <path class="cls-5" d="M247.45,128.9c1.86.36,2.94-.66,3.19-.92.03-.04.05-.06.05-.06-.02,0-.04-.02-.06-.03-.69-.28-2.27-.06-3.15.26,0,.28-.02.53-.03.74Z"/>
          <path class="cls-7" d="M251.24,126.91c-.33,1.79-2.64,1.73-3.64,1.62-.28-.03-.46-.07-.46-.07-.32-.08-.49-.58-.58-1.24-.16-1.29.04-3.19.26-3.68.33-.73.95-1.52,3.28-.95,2.33.57,1.57,2.02,1.14,4.32Z"/>
          <path class="cls-14" d="M246.74,122.54c.32-.44.99-.98,1.61-1.31,1.32-.71,3,.02,3.01.03,1.9.84,2.4,2.29,1.39,4.56-1.07,2.4-2.08,2.13-2.08,2.13,0,0,.22-.13.2-.88,0-.04,0-.08,0-.11,0-.15.04-.31.16-.41.24-.21.35-.85.15-1.03-.24-.21-.57.05-.68.25-.09.14-.26.19-.42.09-.59-.37-.21-1.12-.77-1.58-.57-.46-1.71-.07-2.56-.44-1.11-.41-.23-.96,0-1.29Z"/>
        </g>
        <path class="cls-18" d="M246.47,160.16c.37.1.75.18,1.11.24.33.06.65.1.98.12,1.84.16,3.69-.1,5.85-.72.49-.14.99-.3,1.51-.47.06-.02-.14-5.73-.37-11.63-.02-.61-.05-1.22-.07-1.83-.01-.26-.02-.51-.03-.77-.21-5.21-.41-9.92-.46-10.18-.1-.57-.19-1.06-.29-1.49-.29-1.24-.66-1.91-1.46-2.5-.08-.06-.72-.38-1.28-.66-.47-.23-.88-.43-.88-.43h0c-.19.09-.41.52-.64,1.11-.43,1.1-.89,2.78-1.21,4.04,0,0,0,0,0,0h0c-.21.81-.36,1.44-.4,1.63-.07.31-.17.9-.28,1.7-.15,1.09-.33,2.58-.52,4.26-.02.17-.04.35-.06.53-.02.2-.05.41-.07.61,0,.07-.01.13-.02.2-.07.67-.15,1.36-.22,2.06-.06.58-.94,1-1,1.59-.03.35-.11,3.53-.2,4.55-.07.73-.02,7.69,0,8.03Z"/>
        <path class="cls-22" d="M252.82,137.03s.15,5.27-3.81,5.91c-3.96.64-1.33.81-1.33.81,0,0,7.45-.32,7.57-.51.12-.2-2.43-6.21-2.43-6.21Z"/>
        <path class="cls-22" d="M249.48,145.2s.07.05.22.14c0,0,0,0,0,0,.6.39,2.4,1.44,5,2.14.27.07.56.14.85.21-.02-.61-.05-1.22-.07-1.83.34-.03.67-.07.98-.14-.01-.08-.02-.16-.03-.24-.33-.14-.66-.27-.98-.39-.26-.1-.51-.2-.75-.29-1.07-.41-1.87-.68-1.87-.68l-3.17,1-.19.06Z"/>
        <path class="cls-18" d="M248.64,145.11s.41.1,1.06.23c0,0,0,0,0,0,1.2.24,3.21.58,5.01.56.27,0,.53-.01.78-.03.34-.03.67-.07.98-.14.66-.14,1.21-.37,1.57-.74,2.67-2.72-1.46-12.49-2.33-13.45-1.01-1.11-2.87-1.5-3.89-1.63-.04,0-.08-.01-.12-.02-.36-.04-.59-.05-.6-.05h0s.08.26.21.69c.05.17.11.37.18.58.63,2.06,1.84,6.1,2.37,8.38.2.83.3,1.43.25,1.61-.21.78-2.37,1.18-3.74,1.36-.57.07-1,.11-1.1.12,0,0-.01,0-.02,0l-.08.32-.19.78-.19.76-.16.66Z"/>
        <polygon class="cls-9" points="241.18 149.79 250.36 149.41 248.5 137.97 239.32 138.35 241.18 149.79"/>
        <path class="cls-7" d="M249.25,142.59s-1.79-.12-1.88.29c-.21.97,1.54,1.77,2.1,1.71.57-.05.19-2.07-.23-2.01Z"/>
        <path class="cls-7" d="M239.82,140.68s1.71-.53,1.89-.15c.43.9-1.09,2.08-1.65,2.15-.56.08-.66-1.97-.25-2Z"/>
        <path class="cls-22" d="M250.91,129.28s.85.15,1.23.69c0,0-2.91,5.09-2.89,5.04s.95-5.11,1.67-5.73Z"/>
        <path class="cls-22" d="M247.41,129.34c-.25.09-.72.58-.83.85l-.33,4.26s.71-3.13,1.08-4.54c.09-.36.08-.47.09-.57Z"/>
        <path class="cls-6" d="M245.46,138.1s-.07-.32-.49-.28c-.42.04-2.77.15-2.77.15,0,0-.45,0-.41.28l3.67-.15Z"/>
      </g>
    </g>
  </g>
</svg>