<?xml version="1.0" encoding="UTF-8"?>
<svg id="Layer_2" data-name="Layer 2" xmlns="http://www.w3.org/2000/svg" viewBox="0 0 314.81 206.09">
  <defs>
    <style>
      .cls-1 {
        fill: #a86d55;
      }

      .cls-1, .cls-2, .cls-3, .cls-4, .cls-5, .cls-6, .cls-7, .cls-8, .cls-9, .cls-10, .cls-11, .cls-12, .cls-13, .cls-14, .cls-15 {
        stroke-width: 0px;
      }

      .cls-2 {
        fill: #f79f86;
      }

      .cls-3 {
        fill: #7c533d;
      }

      .cls-4 {
        fill: #d85165;
      }

      .cls-5 {
        fill: #ec7d6b;
      }

      .cls-6 {
        fill: #fab18f;
      }

      .cls-7 {
        fill: #ee9497;
      }

      .cls-8 {
        fill: #fff;
      }

      .cls-9 {
        fill: #fdded6;
      }

      .cls-10 {
        fill: #94b8b1;
      }

      .cls-11 {
        fill: #ffd581;
      }

      .cls-12 {
        fill: #f06b78;
      }

      .cls-13 {
        fill: #febf32;
      }

      .cls-14 {
        fill: #729f95;
      }

      .cls-15 {
        fill: #382b2b;
      }
    </style>
  </defs>
  <g id="Layer_1-2" data-name="Layer 1">
    <g>
      <g>
        <path class="cls-10" d="M305.24,195.53c4.84-3.61,8.26-9.02,9.31-17.15.62-4.76.14-9.67-1.39-14.22-4.22-12.59-13.95-22.83-27.43-25.07-1.59-.26-3.26-.43-4.64-1.28-1.12-.68-1.93-1.75-2.77-2.75-8.75-10.48-22.18-16.28-35.73-17.97s-27.29.37-40.6,3.41c-4.69,1.07-9.42,2.28-14.23,2.27-4.57-.01-9.05-1.13-13.49-2.18-10.16-2.4-20.39-4.51-30.67-6.32-16.24-2.86-32.84-4.99-49.19-2.8-10.16,1.37-20.23,4.52-29.02,9.86-4.23,2.57-8.69,5.69-11.91,9.51-2.67,3.16-4.2,6.98-8.02,9.16-2.04,1.16-4.41,1.55-6.7,2.07-17.33,3.98-34.26,18.85-38.31,36.56-3.95,17.28,18.96,22.45,31.13,23.06,12.58.64,25.17-.79,37.68-2.22,9.43-1.07,18.86-2.17,28.29-3.22,8.04-.9,16.54.3,24.72.3h57.17c14.54,0,28.56,2.89,43.02,4.33,15.47,1.54,31.03,2.2,46.57,1.98,2.49-.04,4.97-.1,7.46-.18,10.62-.35,21.34-1.64,28.74-7.16Z"/>
        <g>
          <path class="cls-14" d="M88.39,180.79c-8.92-2.89-18.07-5.06-27.34-6.48-9.27-1.42-18.66-2.08-28.04-1.99-5.3.05-10.6.35-15.87.89-.67.07-.2.54.27.49,9.24-.94,18.56-1.13,27.84-.56,9.27.56,18.5,1.88,27.56,3.94,5.09,1.15,10.12,2.54,15.08,4.15.36.12,1.13-.24.51-.44Z"/>
          <path class="cls-14" d="M79.96,158.76c-9.47-3.31-19.17-5.9-29.02-7.77-.47-.09-.93.37-.27.49,9.77,1.86,19.39,4.44,28.78,7.72.36.12,1.12-.23.51-.44Z"/>
          <path class="cls-14" d="M290.93,161.85c-7.54-.16-15.1.49-22.51,1.93-7.4,1.44-14.65,3.65-21.59,6.61-3.93,1.67-7.75,3.59-11.45,5.73-.49.28.43.53.71.36,12.93-7.48,27.43-12.14,42.29-13.63,4.17-.42,8.36-.57,12.55-.49.6.01.6-.5,0-.51Z"/>
          <path class="cls-14" d="M246.22,142.15c-.18-.14-.52-.08-.71,0-5.4,2.25-10.22,5.76-14.02,10.21-.3.36.65.5.87.26,3.76-4.41,8.51-7.88,13.86-10.11.22-.09.14-.25,0-.36Z"/>
        </g>
      </g>
      <g>
        <g>
          <path class="cls-1" d="M125.74,64.16c-.08.11-.16.22-.23.32-2.8,3.74-5.03,7.85-7.07,12.11-3.62,7.57-5.85,15.8-6.53,24.16-.18,2.2-.25,4.45.41,6.56,1.64,5.26,7.88,6.09,12.67,6.27,5.54.21,11.05-1.15,16.17-3.28,7.52-3.14,14.25-8.09,19.63-14.2,2.69-3.06,4.66-6.45,6.93-9.79,2.25-3.31,5.19-5.85,8.11-8.54,7.06-6.51,12.39-14.88,15.33-24.02.34-1.07.66-2.18.53-3.29-.11-1.03-.59-1.98-1.05-2.91-2.48-5.03-4.65-10.21-6.47-15.51-4.21-12.24-8.51-27.22-22.69-31.07-2.79-.76-6.2-1.22-9.08-.79-7.02,1.05-13.31,7.16-16.33,13.41-1.42,2.94-2.08,6.18-2.57,9.4-1.44,9.49-1.47,19.17-3.41,28.59-.84,4.09-1.88,9.09-4.34,12.59Z"/>
          <g>
            <path class="cls-9" d="M226.73,174.96c-.23,6.54-1.32,12.69-6.55,17.83-2.83,2.78-6.24,4.91-9.76,6.75-2.84,1.48-5.86,2.81-9.05,3.06-4.6.36-4.69-5.6-6.16-8.76-3.26-7.01-9.16-10.94-16.53-12.89-5.27-1.4-10.75-1.9-16.01-3.34-.5-.14-1.05-.32-1.32-.76-.23-.36-.22-.81-.21-1.24.24-7.67-.69-19.3,5.39-25.07,1.76-1.67,4.01-2.71,6.27-3.62,13.08-5.25,27.79-6.78,41.47-3.41,2.38.59,4.78,1.34,6.75,2.81,2.8,2.07,4.46,5.4,5.21,8.79s.68,6.92.6,10.4c-.07,3.19.02,6.36-.09,9.45Z"/>
            <path class="cls-6" d="M100.79,187.23c-.35.12-.7.24-1.04.38-.8.32-1.59.7-2.19,1.31-2,2.03-.18,3.67,1.8,4.52,1.77.76,3.5,1.57,5.26,2.35,3.85,1.72,7.84,3.23,12.03,3.9,5.66.91,11.83.12,16.39-3.36,1.08-.82,2.07-1.8,2.73-2.98.69-1.23.86-2.43.71-3.8-.25-2.28,1.23-4.79-1.39-6.33-.83-.49-1.82-.62-2.78-.71-2.66-.26-5.25.39-7.73,1.27-2.58.91-5.27,1.41-7.94,2.02-1.54.35-3.09.7-4.67.77-1.88.09-3.75-.21-5.63-.22-1.88,0-3.76.29-5.55.88Z"/>
            <path class="cls-6" d="M119.71,191.36c-1.42.4-2.87.9-3.92,1.94-.65.63-1.1,1.44-1.48,2.26-.22.47-.41.97-.41,1.49,0,2.65,3.81,2.97,5.68,3.51,2.87.82,5.76,1.52,8.68,2.12,5.84,1.19,11.77,1.93,17.72,2.22,1.69.08,3.42.12,5.05-.32,2.83-.76,5.21-3.04,6.09-5.83.75-2.37.45-5.25-.94-7.34-1.14-1.7-3.69-2.36-5.61-2.4-1.69-.03-3.33.24-5.02.1-2.03-.17-4.09-.1-6.12-.08-4.3.04-8.6.24-12.85.88-2.32.35-4.61.82-6.87,1.46Z"/>
            <path class="cls-9" d="M185.1,176.64c2.06-.06,4.12.05,6.17.4,1.88.32,3.75.85,5.41,1.79,3.53,2,5.83,5.73,6.98,9.62.97,3.29,1.31,7.31-.15,10.52-1.61,3.54-5.23,5.14-8.85,5.81-7.57,1.41-15.34,1.32-23.04,1.22-9.35-.12-18.7-.23-28.06-.35-1.29-.02-2.79-.14-3.51-1.2-.43-.62-.47-1.42-.49-2.17-.1-4.11.25-8.38,1.84-12.21.66-1.59,1.58-3.81,3.21-4.53,1.77-.78,4.07-.29,5.95-.58,5.86-.92,11.47-2.91,17.1-4.7,5.66-1.8,11.55-3.44,17.43-3.62Z"/>
            <path class="cls-7" d="M183.42,176.95c-3.31.11-6.6.65-9.77,1.61-.88.27-1.76.57-2.62.9-.1.04-.21.12-.11.22.09.09.32.1.43.06,3.01-1.16,6.16-1.92,9.37-2.27.9-.1,1.8-.16,2.7-.19.1,0,.31-.03.31-.16,0-.13-.22-.17-.31-.16Z"/>
            <path class="cls-5" d="M135.02,188.88c-1.99.03-3.98.38-5.85,1.07-.53.19-1.06.41-1.57.66-.12.06-.11.17,0,.22.13.07.31.06.44,0,2.18-1.04,4.57-1.6,6.98-1.63.1,0,.31-.03.31-.16,0-.13-.23-.16-.31-.16Z"/>
          </g>
          <path class="cls-12" d="M230.35,164.19c-.03,2.05-.1,4.09-.2,6.14-.28,5.4-10.77,4.22-14.6,4.22-5.97,0-11.95-.22-17.86-1.06-8.35-1.19-16.49-3.58-24.83-4.81-2.92-.43-5.87-.72-8.82-.86-2.88-.14-4.55-.74-7.16-2.01-4.15-2.02-7.87-4.78-11.96-6.8-3.6-1.77-6.92-4.08-9.88-6.79-5.88-5.38-10.34-12.31-12.86-19.86-4.06-12.14-3.25-25.67,1.32-37.64,1.75-4.59,4.04-8.97,5.98-13.48,1.48-3.43,2.79-6.98,4.99-9.99,2.9-3.97,7.1-6.66,11.22-9.22,4.3-2.67,7.93-5.61,11.8-8.82.24-.2.48-.39.73-.59,5.71-4.47,12.94-7.25,20.19-7.45,3.06-.09,6.23.07,9.36.53,9.02,1.33,17.1,5.31,22.83,12.61,10.03,12.8,13.91,31.53,15.95,47.27,1.37,10.58.47,21.37,2.01,31.84,1.31,8.85,1.9,17.81,1.77,26.76Z"/>
          <g>
            <path class="cls-6" d="M102.79,176.91c2.38-.11,4.76-.21,7.13-.31,1.62-.07,4.71.14,6-.94.76-.64,1.22-1.55,1.66-2.44,2.56-5.18,5.12-10.38,7.2-15.77,1.82-4.72,4.29-10.67,3.86-15.81-.32-3.87-3.8-9.27-8.43-8.07-1.53.4-2.77,1.56-3.67,2.86-1.97,2.84-2.6,6.38-3.18,9.79-.96,5.65-1.92,11.3-2.88,16.94-.16.96-.36,1.98-1.05,2.68-.66.66-1.62.87-2.53,1.05-8.05,1.58-17.73,2.58-22.51,10.02h18.4Z"/>
            <path class="cls-5" d="M108.13,172.78c-.13-.07-.32-.06-.44,0-1.65.79-3.53.75-5.32.7-.92-.03-1.93-.13-2.78.3-.28.14-.54.36-.67.64-.08-.08-.26-.07-.35-.07-1.81.19-3.62.38-5.41.72-.89.17-1.77.37-2.65.61-.86.23-1.71.48-2.58.66-.42.09-.84.17-1.26.22-.11.01-.21.03-.32.04-.04,0-.11.02-.15.01-.09-.08-.04-.25,0-.35.13-.31.41-.54.64-.77.26-.26.54-.51.82-.75,1.15-.99,2.44-1.8,3.83-2.41,1.54-.68,3.2-1.11,4.88-1.25.09,0,.27-.07.22-.2-.05-.13-.28-.12-.39-.11-3.19.27-6.29,1.53-8.77,3.55-.31.25-.62.52-.91.8-.27.25-.56.51-.78.81-.16.22-.32.59-.09.82.14.14.35.17.54.17.24,0,.5-.04.74-.07,1.86-.25,3.64-.89,5.47-1.29,2.09-.46,4.22-.68,6.34-.91.03,0,.07-.01.11-.03,0,0,0,.01,0,.02-.07.41.24.73.56.93.86.56,1.93.87,2.95.97.11,0,.33.01.39-.11.06-.12-.13-.19-.22-.2-.86-.08-1.69-.33-2.44-.75-.31-.17-.67-.42-.61-.83.05-.37.41-.62.73-.74.4-.15.83-.17,1.25-.16.42,0,.85.03,1.27.04.88.02,1.75.03,2.62-.06.97-.1,1.93-.32,2.8-.74.12-.06.11-.17,0-.23Z"/>
          </g>
          <path class="cls-6" d="M180.87,72.12c-3.47,12.94-7.06,26.23-7.67,28.47-2.01,7.47-7.08,15.51-14.12,19.17-2.22,1.16-4.66,1.95-7.16,2.03-6.9.22-11.07-3.51-11.07-10.34,0-5.03,1.03-10,2.05-14.93.98-4.72,1.95-9.44,2.93-14.16,1.13-5.47,2.27-10.96,4.09-16.25.89-2.6,1.85-5.55,3.38-7.86,1.33-2.01,3.32-3.8,4.94-5.62,5.71-4.47,12.94-7.25,20.19-7.45,2.98-.08,6.42-.21,9.32.55.15.04-3.29,13.02-6.88,26.38Z"/>
          <g>
            <path class="cls-6" d="M66.65,186.38c1.31-3.16,2.87-6.18,4.57-9.16.78-1.36,1.2-2.78,2.03-4.14.97-1.59,1.87-3.24,2.37-5.05.7-2.51.55-5.39-1.04-7.46-1.14-1.48-2.87-2.39-4.64-2.99-2.64-.9-5.74-1.15-8.04.43-1.89,1.3-3.12,3.6-3.89,5.68-1.07,2.91-2.14,5.81-3.21,8.72-1.14,3.08-2.28,6.18-3.15,9.34-.48,1.73-.9,3.54-.78,5.34.11,1.56.54,1.85,1.96,2.14,3.59.73,7.15,1.63,10.83.86.5-.11,1.02-.24,1.41-.56.47-.39.7-.99.92-1.56.21-.54.42-1.07.64-1.6Z"/>
            <path class="cls-6" d="M50.6,185.42c-.1.08-.2.17-.31.25-1.9,1.53-3.81,3.05-5.73,4.54-3.84,3-7.73,5.93-11.67,8.79-1.6,1.16-3.24,2.11-4.97,3.07-.52.29-1.05.58-1.44,1.03-.4.44-.64,1.07-.47,1.64.25.86,1.03,1.02,1.79,1.11,1.86.21,3.6.38,5.45.02,2.35-.46,4.63-1.2,6.95-1.8,2.27-.59,4.56-1.04,6.87-1.42,4.48-.74,8.79-.92,13.3-1.08,1.75-.06,3.52-.22,5.15-.89,1.62-.67,3.09-1.94,3.66-3.64.32-.96.34-2.01.29-3.03-.15-2.9-1.04-5.37-1.95-8.07-.7-2.08-2.44-2.94-4.52-3.33-2.35-.44-5.08-.95-7.43-.35-1.85.47-3.47,1.93-4.96,3.16Z"/>
            <path class="cls-9" d="M83.12,89.98c-1.6,2.17-2.49,4.76-3.36,7.31-3.44,10.07-6.87,20.15-10.31,30.22-1.72,5.04-3.44,10.07-5.16,15.11-1.99,5.83-3.7,11.76-5.69,17.57-1.96,5.75-4.7,11.33-5.72,17.37,1.44.35,3.37-.35,4.89-.37,2-.02,4.01-.04,6.02-.07,4.01-.04,8.02-.08,12.03-.12,2.71-.03,2.36-1.59,3.47-3.43,1.41-2.35,2.94-4.62,4.28-7.01,2.6-4.61,4.93-9.36,7.33-14.07,1.41-2.78,2.77-5.59,4.13-8.39,2.5-5.16,4.98-10.37,6.72-15.84,1.65-5.21,2.1-10.3,2.26-15.72.24-8.49-.31-17.84-6.1-24.06-4.57-4.9-11-3.61-14.79,1.51Z"/>
            <path class="cls-9" d="M173.4,165.87c5.48,12.42-11.53,14-19.69,12.77-5.28-.79-11.27-1.38-16.03-3.87-5.39-2.81-10.47-6.23-15.12-10.14-5.48-4.6-9.02-10.84-13.07-16.68-2.69-3.88-4.32-8.96-6.18-13.28-1.84-4.28-3.67-8.58-5.78-12.74-3.01-5.94-6.9-11.45-9.4-17.63-.88-2.18-1.55-4.43-2-6.74-.45-2.3-1.32-4.5-1.35-6.88-.02-1.7.47-2.88,1.89-3.87,2.61-1.82,5.84-2.64,9.03-2.66,2.7-.02,6.29.29,8.73,1.55,2.14,1.1,4.17,3.11,5.94,4.74,5.21,4.79,9.75,10.24,14.27,15.68,14.8,17.79,29.6,35.58,44.39,53.38,1.65,1.99,3.32,4.01,4.37,6.37Z"/>
            <path class="cls-7" d="M101.73,120.76c-.27-2.23-.72-4.44-1.33-6.6-.35-1.22-.75-2.42-1.2-3.61-.07-.19-.69-.15-.6.09.8,2.09,1.43,4.24,1.89,6.43.46,2.19.76,4.42.88,6.66.07,1.25.08,2.51.03,3.77,0,.22.62.22.63,0,.08-2.25-.02-4.51-.3-6.74Z"/>
            <path class="cls-5" d="M34.15,201.12c-.13-.04-.32-.03-.43.06-.88.71-2.08.75-3.13,1.04-.54.15-1.15.34-1.48.83-.17.24-.24.54-.28.83-.04.3-.05.61.07.89.24.54.87.79,1.4.91.13.03.32.05.43-.06.09-.1,0-.19-.11-.22-.42-.09-.89-.27-1.1-.68-.13-.26-.11-.56-.07-.84.04-.28.12-.56.29-.79.31-.41.9-.54,1.37-.65.51-.12,1.03-.21,1.54-.34.57-.15,1.13-.38,1.6-.75.11-.09-.03-.19-.12-.22Z"/>
          </g>
          <g>
            <path class="cls-2" d="M142.98,33.43c-1.35-.49-3.14-.06-3.04,1.78.03.57.27,1.09.54,1.57,1.28,2.3,3.26,4.49,5.81,5.48.58.23,1.57.37,2.03-.34.34-.53,0-1.36-.15-1.84-.56-1.79-1.72-3.31-2.89-4.72-.55-.67-1.14-1.34-1.92-1.76-.12-.06-.25-.12-.38-.17Z"/>
            <path class="cls-6" d="M182.01,51.71c-.05.09-.11.18-.17.26-1.25,1.94-2.9,3.62-4.81,4.92-3.32,2.25-7.36,3.35-11.38,3.37-1.09,0-2.25-.08-3.15-.69-.52-.34-.92-.83-1.3-1.32-1.48-1.86-2.89-3.79-4.21-5.78-.5-.74-.99-1.54-1.07-2.43-.16-1.78,1.2-3.94,2.41-5.15,1.23-1.23,2.78-2.09,4.29-2.96,2.37-1.36,4.7-2.81,6.88-4.46,1.08-.82,2.13-1.7,3.11-2.64.62-.59,1.77-2.89,2.83-2.15.34.24.51.64.67,1.02.83,2.02,1.61,4.06,2.67,5.96,1.06,1.9,2.43,3.67,4.23,4.91.53.37,1.13.72,1.4,1.3.3.65-.11,1.02-.42,1.51-.28.45-.4.93-.59,1.44-.36,1-.83,1.97-1.39,2.88Z"/>
            <path class="cls-5" d="M174.52,44.58c-.27,1.89-.93,3.72-1.98,5.29-2.06,3.09-5.85,5.07-9.57,4.7-2.2-.21-4.09-.64-5.24-2.69-.88-1.57-.58-3.3.01-4.91,1.07-2.94,2.66-5.7,4.65-8.12,2.13-2.59,3.75-3.18,7.12-2.96.96.06,1.95.13,2.79.59,1.04.57,1.71,1.68,1.99,2.83.41,1.7.49,3.51.23,5.27Z"/>
            <path class="cls-6" d="M175.98,31.54c-.04,2.92-.31,5.83-1.06,8.64-1.44,5.45-5.11,11.94-11.21,12.6-5.18.56-10.36-1.91-14.04-5.59-3.68-3.69-6.05-8.48-7.9-13.35-1.66-4.38-2.98-9.01-2.7-13.68.28-4.68,2.37-9.44,6.3-11.99,5.28-3.42,12.44-2.49,18.04-.54,1.66.58,3.29,1.25,4.75,2.23,3.02,2.02,5.1,5.25,6.26,8.7,1.16,3.45,1.48,7.12,1.54,10.76.02.75.02,1.49,0,2.24Z"/>
            <path class="cls-1" d="M170.12,19.81c-2.2-.56-4.59-.42-6.75.25-1.61.5-3.14,1.32-4.81,1.58-1.67.27-3.62-.18-4.48-1.64.12.94.4,1.85.83,2.69-1.19.32-2.38.65-3.57.97-1.07.29-2.3.56-3.23-.04-.65-.42-.99-1.18-1.27-1.9-1.1-2.84-1.67-5.8-2.16-8.79-1.8,4.03-1.34,8.66-1.42,13.07-.02,1.07-.48,1.57-1.04,2.4-.64.95-1.2,1.98-1.81,2.95-.31.49-.62.99-1.08,1.35-.46.36-1.08.55-1.62.35-.56-.21-.9-.8-.99-1.39-.33-2.24.21-4.86.46-7.1.31-2.73.7-5.46,1.24-8.16.56-2.82,1.3-5.66,2.88-8.06,1.81-2.76,4.62-4.73,7.58-6.18,2.19-1.07,4.64-1.5,7.06-1.56,2.54-.07,3.9.39,6.04,1.55,4.38,2.38,8.27,5.23,11.42,9.14,1.39,1.73,4.03,8.07.97,9.26-.87.34-1.86.16-2.71-.22-.5-.22-1.01-.4-1.54-.53Z"/>
            <path class="cls-6" d="M174.65,32.15c-.61-.18-.92-1.14-1.14-1.66-.8-1.92-.97-4.06-1.07-6.11-.05-.97-.07-1.97.22-2.9.05-.15.1-.29.17-.43.58-1.16,1.89-1.74,3.18-1.08,2.25,1.15,2.06,4.28,1.85,6.4-.13,1.26-1.16,6.4-3.21,5.78Z"/>
            <g>
              <g>
                <path class="cls-15" d="M147.92,34.1c.09-.3.29-.56.63-.72.31-.14.67-.21,1.01-.18.34.03.65.17.87.44.23.3.4.67.51,1.03.01.04.02.08.03.12,0,0,0,.02,0,.02.25.64.21,1.46-.46,1.82-.13.07-.26.12-.4.15-.2.06-.41.06-.61.02-.39-.07-.76-.27-1.03-.57-.16-.18-.28-.39-.37-.61-.22-.47-.35-1.05-.2-1.52Z"/>
                <path class="cls-15" d="M163.41,27.92c.11-.29.33-.54.68-.67.32-.12.69-.16,1.02-.1s.64.21.84.51c.21.31.35.7.44,1.07,0,.04.02.08.02.12,0,0,0,.02,0,.02.21.66.1,1.47-.59,1.78-.13.06-.27.1-.41.12-.21.04-.41.03-.61-.03-.38-.09-.74-.32-.98-.65-.15-.19-.25-.41-.33-.64-.19-.48-.27-1.07-.09-1.53Z"/>
                <path class="cls-5" d="M152.9,28.38c.13-.06.3-.06.42.02,1.64,1,2.42,2.88,2.82,4.68.25,1.15.39,2.32.64,3.46.21.96.47,2,1.11,2.77.37.44.84.66,1.4.74.66.1,1.34.09,2.01.03.09,0,.3,0,.31.12.01.13-.2.18-.28.18-.61.06-1.22.06-1.83,0-.55-.05-1.1-.13-1.57-.42-.82-.5-1.21-1.47-1.48-2.35-.66-2.17-.63-4.51-1.59-6.59-.45-.98-1.11-1.88-2.05-2.45-.12-.08,0-.19.09-.22Z"/>
                <path class="cls-1" d="M160.28,22.24s-.1.05-.14.08c-.44.24-2.63,1.62-1.22,2.03.79.23,1.96-.31,2.69-.54,1.06-.32,2.12-.61,3.21-.81,1.01-.19,2.03-.24,3.05-.36.09,0,.18-.02.26-.07.61-.36-.92-.78-1.08-.81-1.05-.22-2.12-.37-3.19-.35-1.23.02-2.47.27-3.57.83Z"/>
                <path class="cls-1" d="M148.88,26.85c.05-.01.11-.02.16-.04.49-.11,3.05-.47,2.25.76-.46.69-1.69,1.03-2.4,1.34-1.01.44-2.01.91-2.97,1.46-.71.41-1.4.86-2.05,1.38-.29.23-.48.44-.88.48-.08,0-.18,0-.2-.08,0-.03,0-.05,0-.08.4-1.39,1.73-2.65,2.82-3.53.95-.78,2.06-1.4,3.26-1.68Z"/>
              </g>
              <path class="cls-8" d="M164.82,43.82c.5-.52.91-1.13,1.19-1.79.11-.27.2-.55.16-.84-.1-.58-.59-.65-1.02-.39-.54.32-1.08.65-1.62.97-.7.42-1.4.84-2.18,1.08-1.19.36-2.47.26-3.67.59-1.47.4-.35,1.33.48,1.63,1.46.53,2.9.75,4.41.21.85-.3,1.62-.81,2.25-1.45Z"/>
            </g>
            <g>
              <path class="cls-3" d="M151.9,19.39c-1.64-2.37-2.67-5.15-2.98-8.01-.09-.8-.11-1.61-.09-2.42,0-.18-.5-.18-.5,0-.1,2.88.54,5.79,1.82,8.37.37.74.79,1.45,1.26,2.13.06.09.21.1.31.09.05,0,.24-.07.18-.16Z"/>
              <path class="cls-3" d="M156.06,16.74c-1.98-1.27-3.53-3.2-4.39-5.39-.24-.62-.43-1.27-.56-1.93-.04-.18-.53-.16-.5,0,.46,2.38,1.69,4.58,3.46,6.23.51.47,1.05.89,1.63,1.26.14.09.59-.03.36-.18Z"/>
              <path class="cls-3" d="M165.65,16.01c-2.29-1.12-4.01-3.08-5.4-5.17-.4-.6-.78-1.22-1.14-1.85-.09-.15-.57-.09-.48.07,1.28,2.21,2.77,4.4,4.82,5.98.58.44,1.2.83,1.85,1.15.1.05.25.06.35,0,.09-.05.1-.13,0-.18Z"/>
              <path class="cls-3" d="M141.3,8.94c-1.37,2.15-2.5,4.45-3.37,6.85-.87,2.39-1.47,4.87-1.8,7.39-.18,1.42-.28,2.85-.29,4.28,0,.18.5.18.5,0,.01-2.53.31-5.06.87-7.53.56-2.47,1.4-4.88,2.49-7.18.61-1.29,1.31-2.55,2.08-3.75.1-.15-.39-.21-.48-.07Z"/>
              <path class="cls-3" d="M125.66,68.97c-.1-.02-.24,0-.31.09-1.18,1.67-2.22,3.44-3.12,5.28-.9,1.84-1.66,3.75-2.26,5.7-.34,1.1-.63,2.21-.87,3.34-.03.16.46.18.5,0,.43-2,1.02-3.96,1.76-5.87.73-1.89,1.61-3.73,2.63-5.48.57-.99,1.19-1.96,1.85-2.9.07-.09-.12-.15-.18-.16Z"/>
              <path class="cls-3" d="M125.32,73.84c-.77,2.04-1.54,4.08-2.31,6.12-.22.58-.44,1.17-.66,1.75-.07.18.42.22.48.07.77-2.04,1.54-4.08,2.31-6.12.22-.58.44-1.17.66-1.75.07-.18-.42-.22-.48-.07Z"/>
              <path class="cls-3" d="M136.61,43.39c-.13,3.64-.87,7.26-2.19,10.65-.37.96-.79,1.9-1.24,2.82-.08.17.41.22.48.07,1.63-3.28,2.71-6.84,3.19-10.47.13-1.02.22-2.04.26-3.07,0-.17-.5-.18-.5,0Z"/>
              <path class="cls-3" d="M184.77,40.17c-.66-2.25-1.53-4.44-2.59-6.53-.3-.6-.62-1.19-.96-1.78-.09-.15-.57-.09-.48.07,1.17,2.03,2.15,4.17,2.93,6.39.22.63.43,1.27.62,1.92.05.16.54.13.48-.07Z"/>
            </g>
          </g>
        </g>
        <g>
          <path class="cls-8" d="M198.31,162.78c-.67,1.29-1.62,2.39-2.68,3.38-1.05.97-2.22,1.84-3.39,2.67-3.3,2.36-7,4.79-10.91,5.9-3.05.87-6.24.94-9.45-.45-5.79-2.5-10.83-6.67-14.41-11.85-.89-1.29-1.8-2.58-2.7-3.87-.36-.51-.72-1.03-1.08-1.54-2.68-3.82-5.33-7.66-7.65-11.71-1.75-3.05-3.26-6.24-4.51-9.52-1.04-2.71-2.92-6.31-1.76-9.14.85-2.07,2.52-3.45,4.82-4.52,3.62-1.68,6.52-4.51,10.65-5.07,5.52-.76,11.16,1.22,16.08,4.16.28.17.55.33.82.51.42.26.83.53,1.24.81.34.23.68.46,1.01.7,1.26.9,2.44,1.84,3.55,2.8,4.27,3.68,7.91,8.05,10.82,12.88.83,1.38,1.82,2.63,2.85,3.84,0,.01.02.02.03.04,2.33,2.72,4.87,5.26,6.42,8.68.04.08.07.17.11.25.57,1.31.98,2.71,1.18,4.13.34,2.39.08,4.82-1.03,6.94Z"/>
          <g>
            <g>
              <path class="cls-6" d="M154.27,120.47c-1.32,1.13-2.77,2.11-4.24,3.04-2.56,1.61-5.22,2.88-8.24,3.3-1.06.15-2.14.19-3.22.23-1.75.07-3.95.56-5.65.09-1.51-.42-3.03-1.17-4.23-2.16-1.16-.96-2.13-2.12-3.05-3.32-1.94-2.54-3.69-5.31-4.5-8.41-1.57-6.04.82-13.35,6.1-16.81,1-.66,2.11-1.13,3.23-1.57,1.29-.5,2.6-.95,3.95-1.25,1.43-.31,2.97-1.12,4.45-.97,1.62.16,3.19.71,4.55,1.61,1.51.99,2.73,2.37,4.1,3.55,1.37,1.18,3,2.21,4.81,2.28.89.03,1.9-.13,2.55.47.42.38.55.98.55,1.55,0,.56-.12,1.12-.13,1.69,0,.15,0,.3.08.43.1.17.29.25.46.33,1.72.81,2.92,2.35,3.41,4.17.25.94.22,1.83.25,2.79.03,1.17-.03,2.21-.46,3.33-.19.51-.44.99-.72,1.45-.54.88-1.2,1.67-1.92,2.39-.67.68-1.43,1.18-2.15,1.79Z"/>
              <path class="cls-5" d="M156.74,104.7c-.4-.22-.84-.43-1.3-.61.07-.4.11-.82.15-1.21.06-.6.06-1.22-.11-1.8-.14-.48-.45-.85-.9-1.07-.41-.2-.84-.27-1.28-.23-.51.05-1.03-.05-1.53-.12-.56-.07-1.11-.25-1.61-.51-1.07-.53-1.97-1.34-2.84-2.14-1.73-1.59-3.54-3.17-5.76-4.04-1.13-.44-2.34-.68-3.55-.62-.14,0-.3.07-.38.18-.06.09-.04.2.09.2,2.29-.12,4.44.87,6.25,2.18,1,.72,1.91,1.55,2.82,2.38.88.81,1.78,1.63,2.86,2.17.52.26,1.08.45,1.66.54.27.04.54.04.8.09.74.16,1.47-.03,2.18.29.44.2.76.54.89,1.02.14.5.15,1.03.11,1.55-.03.31-.13.66-.17,1-1.08-.37-2.24-.52-3.29-.16-.36.12-.54.63-.02.45,1.02-.35,2.34-.06,3.48.45,0,0,.02,0,.02.01.55.25,1.05.54,1.45.84,1.41,1.04,2.1,2.9,2.36,4.58.51,3.26-.78,6.55-3.32,8.64-.4.33.29.33.52.14,2.8-2.29,4.19-5.95,3.46-9.52-.39-1.89-1.28-3.73-3.02-4.69Z"/>
              <path class="cls-3" d="M144.89,123.13c.58,2.51-2.58,4.01-4.45,4.72-1.2.46-2.46.8-3.73,1.01-1.61.26-3.65-.28-5.19-.76-3.27-1.02-5.88-3.46-8.36-5.83-.64-.61-1.28-1.23-1.7-2-.48-.89-.62-1.91-.99-2.84-.34-.86-.87-1.65-1.15-2.53-.52-1.6-.23-3.34-.34-4.99-.09-1.38.22-2.77.62-4.1.32-1.1.65-2.19.97-3.29.31-1.05.63-2.11,1.22-3.03.91-1.39,2.37-2.31,3.59-3.44,1.36-1.26,2.53-2.88,4.3-3.44,1.01-.32,2.12-.26,3.13-.61,1.12-.39,2.01-1.24,3.07-1.75.81-.39,1.72-.57,2.62-.52,1.35.08,2.68,1.49,2.45,2.9-.13.78-.65,1.45-1.29,1.92-.37.27-.8.49-1.06.87-.37.55-.28,1.28-.33,1.94-.09,1.12-.62,2.15-1.06,3.18s-.79,2.19-.49,3.27c.18.66.59,1.24.82,1.89.35,1.02.22,2.14.02,3.2-.17.9-.38,1.89.05,2.7.72,1.38,1.46,2.16,1.38,3.84-.03.76-.27,1.54-.03,2.26.19.57.65,1.01,1.14,1.36.81.58,1.72.98,2.57,1.5s1.65,1.18,2.05,2.09c.08.16.13.32.17.49Z"/>
              <path class="cls-15" d="M147.75,100.6c-.28-.1-.57-.11-.78.06-.31.26-.36.82-.19,1.2.22.5.75.85,1.29.95.07.01.15.02.21,0,.06-.02.11-.06.15-.1.27-.24.43-.61.36-1-.06-.31-.26-.61-.52-.83-.14-.12-.32-.23-.52-.3Z"/>
              <path class="cls-3" d="M145.18,97.42c-.31-.09-.65-.03-.92.12-.66.36-.99,1.16-1.2,1.84-.25.8-.33,1.64-.24,2.49,0,.07.04.11.1.1,0,.04.03.06.07.07.1,0,.18-.14.2-.21.24-.71.51-1.41.9-2.06.18-.31.39-.6.63-.87.12-.14.25-.26.39-.38.14-.13.33-.23.44-.38.09-.13.15-.31.05-.45-.08-.13-.26-.22-.41-.26Z"/>
            </g>
            <path class="cls-6" d="M143.91,117.55c.07-.27.11-.55.12-.83.08-2.12-1.11-3.72-3.07-4.27-2.01-.57-5.46-1.17-6,1.63-.24,1.25.05,2.6.8,3.63s1.92,1.75,3.19,1.92c.5.07,1.01.06,1.52.03,1.01-.05,2.1-.2,2.8-.92.32-.33.53-.74.64-1.19Z"/>
            <g>
              <path class="cls-1" d="M138.96,92.3c-.05-.38-.18-.77-.36-1.11-.16-.31-.38-.55-.71-.68-.1-.04-.27-.03-.34.05-.08.08.01.15.09.18.27.1.43.4.54.65.15.34.28.71.29,1.09.02.7-.4,1.31-.79,1.86-.06.09.12.15.18.16.1.02.24,0,.31-.09.44-.62.89-1.3.8-2.1Z"/>
              <path class="cls-1" d="M136.56,92.08c-.07-.15-.56-.11-.48.07.45.94,0,1.95-.6,2.7-.07.09.13.15.18.16.11.02.24,0,.31-.09.63-.79,1.07-1.85.6-2.83Z"/>
              <path class="cls-1" d="M125,99.04c-.1-.06-.25-.05-.35,0-1.56.76-2.65,2.26-2.86,3.99-.06.53-.04,1.06.06,1.59.04.18.53.16.5,0-.22-1.12-.06-2.3.48-3.31.48-.9,1.25-1.64,2.17-2.08.09-.05.08-.13,0-.18Z"/>
              <path class="cls-1" d="M124.34,100.77c-.82,1.18-1.1,2.7-.75,4.09.05.18.54.15.5,0-.34-1.38-.07-2.86.74-4.03.1-.14-.38-.21-.48-.07Z"/>
              <path class="cls-1" d="M130.35,105.53c-.71-.69-.95-1.81-.58-2.72.07-.18-.42-.22-.48-.07-.4,1-.14,2.18.63,2.92.08.08.24.08.34.05.08-.03.18-.1.09-.18Z"/>
              <path class="cls-1" d="M123.04,116.43c-1.44-1.17-1.28-3.22-.79-4.81.06-.19-.43-.22-.48-.07-.29.93-.48,1.92-.32,2.89.14.82.52,1.6,1.17,2.12.09.07.24.08.34.05.07-.02.18-.1.09-.18Z"/>
              <path class="cls-1" d="M125.24,115.61c-1.07-.44-1.22-1.73-1.23-2.73,0-.18-.5-.18-.5,0,0,1.1.22,2.44,1.37,2.91.11.04.25.06.35,0,.08-.05.1-.14,0-.18Z"/>
              <path class="cls-1" d="M131.8,113.85c-.17-.04-.26-.08-.42-.17-.14-.07-.25-.16-.37-.27-.23-.21-.41-.48-.53-.78-.01-.04-.08-.07-.12-.08-.06-.02-.13-.02-.19-.01-.08.01-.21.05-.18.16.25.67.85,1.19,1.54,1.37.11.03.26.03.34-.05.08-.08-.01-.16-.09-.18Z"/>
              <path class="cls-1" d="M133.63,125.53c-1.34.06-2.66-.64-3.41-1.75-.1-.14-.58-.08-.48.07.86,1.26,2.37,2,3.89,1.94.07,0,.25-.02.25-.13s-.18-.13-.25-.13Z"/>
              <path class="cls-1" d="M136.47,123.58c-.04-.1-.23-.1-.31-.09-.67.08-1.35-.23-1.8-.75-.11-.12-.59-.05-.43.13.58.67,1.5.97,2.37.87.07,0,.21-.06.17-.16Z"/>
            </g>
          </g>
          <g>
            <path class="cls-6" d="M225.35,184.86c.4-.13.79-.27,1.18-.41,1.2-.42,2.41-.87,3.44-1.6,1.56-1.1,3.67-4.5.66-5.2-1.29-.3-2.6-.55-3.92-.69-2.16-.23-4.15-1.18-6.3-1.43-1.2-.14-2.43-.09-3.6.21-.86.22-1.71.59-2.35,1.21-1.46,1.41-.97,3.79-.9,5.61.05,1.08.2,2.24.96,3.01.83.85,2.15.97,3.34.92,2.56-.12,5.05-.82,7.48-1.64Z"/>
            <path class="cls-8" d="M214.22,181.75c1.84.04,3.58-1.25,5.04-2.29,1-.72,2.1-1.51,2.67-2.64.5-.98.27-2.39-.07-3.4-.31-.89-.81-1.7-1.29-2.51-2.27-3.9-3.87-8.15-6.04-12.1-2.1-3.82-6.59-8.71-11.26-8.91-5.57-.25-10.64,6.97-9.74,12.11.63,3.59,3.59,5.72,6.26,7.81,3.53,2.76,6.83,5.89,9.93,9.12.92.96,1.85,1.96,3.06,2.5.48.21.96.31,1.43.33Z"/>
          </g>
          <g>
            <path class="cls-8" d="M209.75,153.24c-.46-1.42-1.07-2.8-1.79-4.1-.34-.61-.71-1.21-1.11-1.79-.9-1.32-1.98-2.57-3.41-3.29-1.08-.54-2.29-.74-3.49-.92-2.81-.42-5.93-.85-8.76-.34-2.87.52-5.88,2.14-8.49,3.4-4.89,2.35-9.84,5.61-11.68,10.72-2,5.54-.12,14.56,5.68,17.18,1.06.48,2.24.65,3.41.66,1.98.02,3.93-.41,5.85-.88,4.16-1.02,8.29-2.29,12.09-4.25,3.42-1.77,6.91-4.2,9.65-6.92.92-.91,1.8-1.92,2.28-3.13.81-2,.44-4.29-.23-6.34Z"/>
            <path class="cls-6" d="M238.38,164.18c.29-.3.58-.59.88-.89.88-.91,1.77-1.85,2.37-2.97.91-1.68,1.27-5.67-1.73-4.95-1.28.31-2.57.67-3.81,1.13-2.04.75-4.24.8-6.28,1.53-1.14.41-2.22,1-3.13,1.8-.67.58-1.26,1.29-1.56,2.14-.68,1.91.82,3.83,1.7,5.42.52.94,1.18,1.91,2.2,2.26,1.13.39,2.36-.09,3.4-.67,2.24-1.25,4.15-2.98,5.96-4.81Z"/>
            <path class="cls-8" d="M230.95,159.73c-.1,1.26-.81,2.41-1.46,3.46-.54.86-1.07,1.71-1.69,2.52-.51.66-1.09,1.31-1.85,1.63-.06.03-.13.05-.19.07-1.05.36-2.23.08-3.29-.28-1.74-.61-3.39-1.44-5-2.36h0c-1.81-1.04-3.56-2.19-5.31-3.25-.8-.49-1.64-.89-2.5-1.25-2.65-1.1-5.49-1.76-8.04-3.07-.79-.4-1.54-.86-2.28-1.34h0c-1.07-.7-2.11-1.44-3.2-2.12-.46-.29-.93-.57-1.41-.82-1.63-.87-3.4-1.52-4.86-2.65-4.08-3.14-1.8-6.35,1.76-7.47.08-.03.16-.05.24-.07h0c.58-.17,1.2-.27,1.82-.32,4.42-.31,8.89-.56,13.29-.72,3.44-.12,7.65,2.12,10.25,4.22,2,1.61,3.87,3.38,5.76,5.11.3.28.61.55.91.83.16.14.31.28.47.42.31.27.62.55.94.82.61.53,1.24,1.04,1.87,1.53.08.06.16.12.23.18.02.01.03.03.05.04h0c.73.56,1.49,1.1,2.09,1.79.71.8,1.46,2.02,1.37,3.12Z"/>
          </g>
          <g>
            <path class="cls-5" d="M165.47,99.77c-.06,0-.13,0-.2-.02-.16-.04-.28-.13-.39-.22-1.09-.87-1.8-1.89-2.41-2.87-.55-.89-1.06-1.82-1.55-2.73l-.24-.44c-.12-.21-.25-.46-.32-.73-.02-.09-.04-.17-.05-.25-.07-.55.16-1.01.59-1.23.46-.23,1.03-.14,1.45.25.3.28.51.61.71.94.05.08.1.16.15.23-.02-.18-.06-.37-.09-.53-.02-.1-.04-.19-.05-.28-.03-.2-.07-.41-.11-.61-.07-.38-.14-.77-.18-1.17-.02-.18-.04-.36-.07-.54-.09-.62-.17-1.2.11-1.92.26-.66.66-.79.94-.79.61,0,1.17.66,1.51,1.21.04-.95.3-1.8,1.06-2.11.41-.16.82-.13,1.13.11.05.04.09.09.12.14.27.31.44.69.55,1.06.05-.28.16-.57.41-.82.43-.42,1.2-.68,1.77-.32.06.04.11.09.14.14.09.07.19.18.32.38.15.23.21.53.26.77l.02.08c.05.23.09.45.11.68.1-.27.22-.54.49-.72.3-.2.65-.26.95-.17.15.01.24.07.3.12.41.38.54.91.61,1.32.27,1.63.29,3.34.05,5.09-.39,2.8-1.27,4.46-2.7,5.06-.64.27-1.33.35-1.93.41-.25.02-.51.03-.76.04-.32.01-.62.02-.91.06-.31.04-.63.12-.94.19-.19.05-.39.09-.59.13-.08.02-.18.04-.29.04ZM161.44,91.78c-.09,0-.18.02-.24.05-.2.1-.29.31-.26.6,0,.05.02.1.03.16h0c.06.2.17.41.27.59l.24.44c.48.9.98,1.82,1.53,2.69.58.93,1.25,1.9,2.27,2.71.05.04.12.09.16.1.05.01.13,0,.2-.02.19-.04.38-.08.57-.13.33-.08.67-.16,1.01-.2.32-.04.65-.05.97-.07.24,0,.49-.02.73-.04.55-.05,1.18-.13,1.74-.36,1.21-.51,1.97-2,2.32-4.57.23-1.68.21-3.33-.05-4.9-.05-.3-.14-.67-.38-.93h-.03l-.06-.02c-.13-.05-.31,0-.43.09s-.19.22-.26.43c-.23.65-.47,1.69-.43,2.43l-.62.03h0l-.09-1.73c-.03-.5-.05-1.02-.16-1.51l-.02-.08c-.04-.2-.09-.42-.18-.56-.05-.08-.15-.2-.19-.23.04.03.15.07.26.04.1-.04.18-.12.2-.22l-.61-.12c-.02.09.03.18.08.21-.28-.18-.74-.02-1,.23-.25.25-.26.54-.26,1.01,0,.15,0,.3-.01.45-.07.87-.11,1.66-.13,2.41l-.63-.02h0c.01-.52-.07-1.11-.15-1.68-.03-.2-.06-.4-.08-.58-.09-.74-.21-1.44-.64-1.9l-.05-.05c-.16-.08-.35-.03-.46.01-1.03.41-.62,2.87-.43,4.05.03.18.06.34.07.47l-.62.1c-.13-.77-.33-1.54-.6-2.27-.19-.53-.85-1.4-1.24-1.41h0c-.16,0-.27.21-.35.39-.22.56-.16,1.02-.08,1.6.03.18.05.36.07.56.04.37.11.75.17,1.12.04.21.08.42.11.63.01.08.03.17.05.26.1.51.21,1.15-.02,1.59l-.19.36-.3-.28c-.29-.27-.5-.6-.69-.92-.19-.3-.37-.59-.6-.81-.16-.15-.34-.21-.5-.21Z"/>
            <path class="cls-6" d="M160.67,92.68c-.02-.07-.03-.14-.04-.2-.11-.96.88-1.31,1.52-.71.53.49.78,1.24,1.3,1.74.23-.42.01-1.19-.06-1.65-.09-.59-.22-1.17-.28-1.76-.08-.85-.31-1.48.03-2.31.53-1.34,1.75.01,2,.84.18.59.34,1.19.47,1.8.07.32.14.66.32.93.12-.28-.13-.96-.18-1.27-.08-.51-.14-1.02-.15-1.53-.02-.78.03-1.94.87-2.27.27-.11.58-.12.82.06.02.02.03.04.03.05,0,.07.22.28.27.36.1.17.18.35.24.53.13.38.17.78.19,1.18.04.74-.09,1.64.17,2.35.22-.15.11-.77.12-1.01.02-.48.06-.96.09-1.44.05-.6-.1-1.2.37-1.66.34-.33.94-.55,1.38-.28.05.03.07.07.06.11.02-.09.3.31.3.31.13.21.19.51.24.75.24,1.06-.02,2.16.18,3.22.23-.25.11-.78.17-1.11.08-.47.2-.93.35-1.38.08-.23.18-.44.38-.58.2-.14.48-.21.72-.12.06,0,.11,0,.14.04.32.3.45.72.52,1.15.28,1.65.28,3.34.05,4.99-.24,1.74-.79,4.09-2.51,4.81-.58.24-1.21.32-1.83.38-.56.05-1.13.03-1.69.11-.51.07-1.04.22-1.56.32-.11.02-.23.04-.34.01-.1-.03-.19-.09-.28-.16-.99-.79-1.67-1.73-2.34-2.79-.64-1.02-1.2-2.09-1.77-3.15-.12-.21-.23-.43-.3-.66Z"/>
          </g>
          <path class="cls-8" d="M178.21,120.52c-.06.26-.13.53-.2.79-.04.16-.09.31-.14.47-.06.18-.12.37-.18.55-.14.4-.3.8-.48,1.19-.2.45-.43.89-.69,1.33-.12.21-.25.41-.38.62-.48.74-1,1.44-1.57,2.11-.06.07-.11.13-.17.19t0,0c-1.95,2.23-4.39,4.03-7.12,5.17-5.49,2.3-11.2,4.57-16.73.9-1.5-1-2.81-2.4-3.34-4.13-.78-2.57.66-4.94,2.5-6.62,2.11-1.93,4.45-3.58,6.9-5.06.63-.38,1.27-.75,1.91-1.13h0c1.84-1.1,3.65-2.31,4.93-4.03,1.98-2.67,1.56-6.39.83-9.47-.23-.97-.68-2.39-.36-3.39.32-1,1.68-1.79,2.58-2.16,1.14-.48,2.38-.65,3.61-.78.86-.09,2.15-.23,2.91.3.55.39.78,1.38,1.13,1.97,1.12,1.9,2.4,3.73,3.14,5.82.94,2.68,1.25,5.55,1.37,8.36.11,2.45.06,4.76-.45,6.98Z"/>
          <g>
            <path class="cls-9" d="M217.16,163.71c-2.32-.77-4.56-1.76-6.69-2.96-.15-.08-.29-.17-.44-.25.06-.1-.16-.18-.22-.18-.03,0-.07,0-.1,0-.34-.2-.68-.41-1.02-.63-.12-.07-.33-.07-.44,0-.12.07-.11.16,0,.22.35.23.71.44,1.07.66-2.12,2.67-4.67,5-7.53,6.86-.81.53-1.65,1.02-2.5,1.47-.11.06-.11.17,0,.23.12.07.32.07.44,0,3.11-1.65,5.96-3.8,8.38-6.37.58-.62,1.14-1.26,1.67-1.92,1.63.94,3.33,1.75,5.09,2.44.66.26,1.32.5,1.99.72.12.04.33.04.43-.06.1-.1-.01-.18-.11-.22Z"/>
            <path class="cls-9" d="M190.46,142.88c-.1-.1-.31-.09-.43-.06-1.56.42-3.09.98-4.55,1.68-1.47.71-2.86,1.55-4.26,2.37-.82.48-1.64.96-2.46,1.44-.11.06-.11.16,0,.22.12.07.32.07.44,0,1.43-.84,2.85-1.68,4.29-2.5,1.38-.79,2.78-1.52,4.27-2.09.85-.32,1.71-.6,2.59-.84.1-.03.21-.12.11-.22Z"/>
            <path class="cls-9" d="M148.89,131.58c-1.07-1.76-.92-3.91-.77-5.88.02-.21-.61-.23-.63,0-.16,1.99-.29,4.18.8,5.96.11.18.72.11.6-.09Z"/>
            <path class="cls-9" d="M167.8,113.39c-.94-.64-1.75-1.48-2.34-2.45-.07-.12-.26-.13-.39-.11-.07,0-.29.08-.22.2.61,1,1.44,1.87,2.41,2.53.12.08.29.1.43.06.08-.02.24-.14.11-.22Z"/>
            <path class="cls-9" d="M172.17,99.55c-2.02.01-4.03.37-5.92,1.08-.54.2-1.07.43-1.59.68-.12.06-.11.17,0,.22.13.07.32.06.44,0,1.71-.84,3.57-1.37,5.47-1.57.53-.06,1.07-.09,1.6-.09.1,0,.31-.03.31-.16,0-.13-.23-.16-.31-.16Z"/>
          </g>
          <g>
            <g>
              <path class="cls-11" d="M194.94,166.06c-1.27-2.42-3.17-5.02-6.28-4.44-1.21.22-2.17,1.07-2.63,2.2-.66,1.64-.23,3.4.2,5.03.14.52,1.53.42,1.42,0-.51-1.95-1.25-5.13.98-6.36,1.12-.62,2.41.2,3.17,1.01.75.79,1.26,1.79,1.77,2.75.22.43,1.62.28,1.37-.19Z"/>
              <path class="cls-9" d="M193.16,166.59c-.77-1.39-2.11-3.12-3.93-2.64-1.76.47-1.3,2.74-.9,4.01.14.44,1.54.35,1.37-.19-.25-.8-.62-2.18-.06-2.94.34-.46.89.21,1.16.52.39.44.71.92.99,1.43.24.43,1.63.27,1.37-.19Z"/>
            </g>
            <g>
              <path class="cls-11" d="M172.28,171.92c1.58-2.23,3.03-5.1,1.1-7.62-.75-.98-1.94-1.45-3.16-1.34-1.76.15-3.13,1.34-4.39,2.46-.4.36.32,1.56.65,1.27,1.5-1.34,4-3.44,6.11-2.02,1.06.71.91,2.24.54,3.29-.37,1.03-1.02,1.94-1.64,2.82-.28.4.49,1.57.8,1.13Z"/>
              <path class="cls-9" d="M170.99,170.57c.88-1.32,1.82-3.3.56-4.7-1.22-1.35-3.03.08-3.99,1.02-.33.32.38,1.54.79,1.13.6-.59,1.66-1.55,2.59-1.39.56.09.21.89.07,1.27-.21.55-.5,1.05-.83,1.54-.27.4.5,1.57.8,1.13Z"/>
            </g>
            <g>
              <path class="cls-11" d="M162.46,159.64c.02.54-1.3.07-1.32-.41-.05-1.08-.08-2.2-.42-3.24-.35-1.06-1.16-2.36-2.43-2.27-2.34.15-3.12,2.87-3.52,4.85-.36-.51-.72-1.03-1.08-1.54.29-1.2.75-2.36,1.68-3.22.9-.83,2.13-1.18,3.32-.87,3.06.81,3.66,3.98,3.78,6.7Z"/>
              <path class="cls-9" d="M160.62,159.36c-.11-1.58-.57-3.73-2.43-4.07-1.79-.33-2.35,1.92-2.53,3.24-.06.46,1.24.98,1.32.41.12-.83.37-2.24,1.2-2.69.5-.27.71.58.83.96.17.56.24,1.14.28,1.72.03.48,1.36.94,1.32.41Z"/>
            </g>
            <g>
              <path class="cls-11" d="M170.22,146.74c-.12-2.73-.71-5.89-3.77-6.7-1.19-.32-2.42.04-3.32.87-1.3,1.2-1.66,2.97-1.98,4.63-.1.53,1.2,1.04,1.28.61.37-1.98,1.07-5.17,3.61-5.33,1.27-.08,2.09,1.21,2.43,2.27.34,1.04.37,2.16.42,3.24.02.49,1.34.95,1.32.41Z"/>
              <path class="cls-9" d="M168.38,146.46c-.11-1.58-.57-3.73-2.42-4.07-1.79-.33-2.35,1.92-2.53,3.24-.06.46,1.24.98,1.32.41.12-.83.37-2.24,1.2-2.69.5-.27.71.58.83.96.17.56.24,1.14.28,1.72.03.48,1.36.94,1.32.41Z"/>
            </g>
            <g>
              <path class="cls-11" d="M189.01,149.67c-2.28-1.51-5.19-2.88-7.65-.87-.95.78-1.39,1.98-1.25,3.2.2,1.75,1.43,3.09,2.59,4.32.37.39,1.55-.37,1.25-.68-1.38-1.46-3.56-3.89-2.2-6.05.68-1.08,2.21-.98,3.27-.64,1.04.33,1.97.96,2.87,1.56.41.26,1.56-.54,1.11-.83Z"/>
              <path class="cls-9" d="M187.7,150.99c-1.34-.84-3.36-1.72-4.72-.42-1.32,1.26.18,3.03,1.14,3.95.33.32,1.52-.43,1.11-.83-.61-.58-1.6-1.61-1.47-2.55.08-.57.89-.24,1.27-.11.55.19,1.07.47,1.56.78.41.26,1.56-.55,1.11-.83Z"/>
            </g>
            <g>
              <path class="cls-11" d="M162.21,125.25c-2.28-1.51-5.19-2.88-7.65-.87-.95.78-1.39,1.98-1.25,3.2.2,1.75,1.43,3.09,2.59,4.32.37.39,1.55-.37,1.25-.68-1.38-1.46-3.56-3.89-2.2-6.05.68-1.08,2.21-.98,3.27-.64,1.04.33,1.97.96,2.87,1.56.4.27,1.56-.53,1.11-.83Z"/>
              <path class="cls-9" d="M160.91,126.58c-1.34-.84-3.36-1.72-4.72-.42-1.32,1.26.18,3.03,1.14,3.95.33.32,1.52-.43,1.11-.83-.61-.58-1.6-1.61-1.47-2.55.08-.57.89-.24,1.27-.11.55.19,1.07.47,1.56.78.41.26,1.56-.55,1.11-.83Z"/>
            </g>
            <g>
              <path class="cls-11" d="M178.21,120.52c-.06.26-.13.53-.2.79-.04.16-.09.31-.14.47-.71-.46-1.44-.89-2.24-1.14-1.06-.34-2.59-.44-3.27.64-.09.15-.17.3-.23.45-.83,2.04,1.14,4.24,2.43,5.6.07.07.06.16,0,.26-.04.06-.09.13-.17.19t0,0c-.3.26-.85.47-1.08.23-1.16-1.23-2.39-2.56-2.6-4.31-.1-.89.1-1.76.59-2.48.18-.26.4-.51.66-.72,1.98-1.61,4.24-1.04,6.24.03Z"/>
              <path class="cls-9" d="M177.69,122.33c-.14.4-.3.8-.48,1.19,0,0,0,0,0,0-.5-.31-1.01-.58-1.56-.78-.38-.13-1.19-.46-1.27.11-.02.13-.01.25,0,.38.13.83.94,1.67,1.47,2.17.41.4-.78,1.15-1.11.83-.9-.87-2.27-2.47-1.36-3.7.06-.09.14-.17.22-.25,1.16-1.11,2.8-.63,4.09.06Z"/>
            </g>
            <g>
              <path class="cls-11" d="M166.49,109.01c2.38,1.33,5.39,2.49,7.69.31.89-.85,1.24-2.08,1.01-3.28-.33-1.73-1.65-2.98-2.9-4.11-.4-.36-1.52.48-1.19.77,1.49,1.35,3.83,3.62,2.64,5.87-.6,1.13-2.13,1.14-3.21.88-1.06-.26-2.03-.82-2.98-1.34-.42-.24-1.51.64-1.04.9Z"/>
              <path class="cls-9" d="M167.69,107.59c1.4.74,3.47,1.47,4.74.07,1.22-1.35-.4-3.01-1.43-3.86-.36-.29-1.49.54-1.05.91.65.54,1.71,1.49,1.65,2.43-.03.57-.87.3-1.26.2-.56-.15-1.1-.39-1.62-.66-.43-.23-1.51.66-1.04.91Z"/>
            </g>
            <g>
              <path class="cls-11" d="M212.47,152.56c-1.09-2.5-2.79-5.24-5.94-4.89-1.22.14-2.24.91-2.78,2-.78,1.58-.48,3.37-.17,5.03.1.53,1.5.54,1.42.11-.37-1.98-.87-5.2,1.45-6.27,1.16-.54,2.38.38,3.09,1.25.69.85,1.13,1.88,1.56,2.87.19.44,1.59.4,1.38-.09Z"/>
              <path class="cls-9" d="M210.65,152.96c-.67-1.44-1.88-3.27-3.73-2.92-1.79.34-1.5,2.63-1.2,3.94.11.45,1.51.47,1.38-.09-.19-.82-.46-2.22.16-2.94.37-.43.87.28,1.12.6.36.46.64.97.89,1.5.2.44,1.6.39,1.38-.09Z"/>
            </g>
            <g>
              <path class="cls-11" d="M217.98,172.59c-1.09-2.5-2.79-5.24-5.94-4.89-1.22.13-2.24.91-2.78,2-.78,1.58-.48,3.37-.17,5.03.1.53,1.5.54,1.42.11-.37-1.98-.87-5.2,1.45-6.27,1.16-.54,2.38.38,3.09,1.24.69.85,1.13,1.88,1.56,2.87.19.44,1.59.4,1.38-.09Z"/>
              <path class="cls-9" d="M216.16,173c-.67-1.44-1.88-3.27-3.73-2.92-1.79.34-1.5,2.63-1.2,3.94.11.45,1.51.47,1.38-.09-.19-.82-.46-2.22.16-2.94.37-.43.87.28,1.12.6.36.46.64.97.89,1.5.21.44,1.61.39,1.38-.09Z"/>
            </g>
            <g>
              <path class="cls-11" d="M228.7,157.86c-1.54.7-3.2,1.43-4.92,1.05-1.19-.26-2.19-1.06-2.62-2.22-.85-2.29.29-4.19,1.85-5.7.3.28.61.55.91.83-.53.43-1.03.9-1.44,1.45-.67.89-1.26,2.3-.46,3.3,1.6,1.98,4.61.72,6.44-.12.4-.18.73,1.18.24,1.4Z"/>
              <path class="cls-9" d="M227.48,155.95c-1.19.61-3.34,1.45-4.11-.2-.6-1.29.11-2.53,1.02-3.49.31.27.62.55.94.82-.31.27-.6.57-.85.89-.25.32-.82.98-.31,1.23.85.42,2.14-.18,2.89-.56.05-.03.1-.04.15-.03.11,0,.21.1.29.22h0c.21.35.26.99-.01,1.13Z"/>
            </g>
          </g>
        </g>
        <g>
          <g>
            <path class="cls-6" d="M143.07,132.51c-.85-1.01-1.84-1.91-2.92-2.66-2.33-1.61-5.25-1.59-7.83-2.56-2.03-.76-3.77-2.18-5.85-2.79-.49-.14-1.04-.23-1.47.04-.48.29-.63.94-.52,1.48.11.55.44,1.02.76,1.48,2.07,2.96,4.04,6.06,6.25,8.92,1.98,2.56,3.72,5.31,6.22,7.44,2.48,2.11,5.5,3.51,8.62,4.46.91.28,1.99.5,2.75-.08.7-.53.84-1.56.56-2.39-.67-2.03-2.15-3.79-2.92-5.83-.49-1.29-.85-2.63-1.4-3.89-.56-1.31-1.33-2.54-2.25-3.63Z"/>
            <g>
              <path class="cls-12" d="M189.16,65.52c-2.07,15.78,2.19,31.7,2.14,47.62-.01,3.59-.23,7.3,1.02,10.67,1.93,5.21,9.78,10.96,15.44,7.78,1.89-1.06,2.75-3.29,3.39-5.37,4.51-14.77,4.84-30.78,3-46.02-.5-4.15-1.2-8.33-2.93-12.13-1.73-3.8-4.61-7.23-8.46-8.85-5.62-2.38-12.74-.18-13.59,6.32Z"/>
              <path class="cls-6" d="M181.1,122.58c2.65-1.76,5.25-3.61,8.08-5.05,4.2-2.15,9.23-3.35,13.64-1.66,3.46,1.32,6.2,4.48,6.87,8.12,1.45,7.87-5.66,11.52-11.91,13.59-12.74,4.21-26.26,5.53-39.15,9.23-2.83.81-5.67,1.75-8.62,1.84-2.94.09-6.08-.8-7.96-3.06-1.21-1.46-1.89-3.86-1.48-5.72.51-2.29,3.96-2.4,5.93-2.86,8.27-1.95,16.1-5.36,23.89-8.76,2.3-1,4.6-2.01,6.78-3.23,1.35-.75,2.65-1.58,3.94-2.43Z"/>
              <path class="cls-12" d="M211.65,123.88c.15-2.04-.3-4.13-1.55-6.11-2.05-3.27-5.26-3.66-8.68-4.16-2.93-.43-5.49-1.09-8.33.22-1.93.9-3.59,2.28-5.28,3.57-3.47,2.65-7.19,4.96-11.09,6.92-2.84,1.43-7.01,1.17-8.67,4.44-.29.57-.37,1.23-.43,1.87-.33,4.01.38,8.09,2.01,11.77.67,1.5,1.14,3.05,2.94,3.02,1.94-.03,4.21-.96,6.09-1.41,9.82-2.36,21.75-4.48,29.07-12.07,2.21-2.29,3.69-5.13,3.91-8.06Z"/>
            </g>
            <g>
              <path class="cls-5" d="M134.8,133.15c-.82-1.14-2.05-1.85-3.24-2.53-1.18-.67-2.48-1.39-3.21-2.58-.24-.4-.44-.9-.31-1.36.05-.18.15-.36.28-.49.09-.09.24-.22.38-.21.11,0,.33.01.39-.11.06-.12-.13-.19-.22-.2-.42-.03-.84.08-1.13.41-.27.3-.39.68-.35,1.08.09.81.69,1.52,1.27,2.05,1.1,1,2.49,1.6,3.72,2.4.69.44,1.33.97,1.81,1.63.08.11.26.13.39.11.07,0,.3-.08.22-.2Z"/>
              <path class="cls-5" d="M145.91,137.83c-.11-.18-.72-.12-.6.09.58,1,.86,2.14.79,3.3-.01.21.61.23.63,0,.06-1.18-.22-2.36-.82-3.38Z"/>
            </g>
          </g>
          <g>
            <path class="cls-4" d="M214.31,81.51c-.02-.65-.04-1.3-.05-1.96,0-.22-.63-.22-.63,0,.16,5.3.22,10.6.17,15.91-.05,5.32-.2,10.64-.46,15.96-.21,4.43-.52,8.96-1.97,13.19-.7,2.05-1.68,4.01-3,5.74-1.25,1.64-2.78,3.06-4.45,4.27-3.39,2.46-7.29,4.1-11.17,5.6-.48.18-.95.37-1.43.55-.38.15.09.36.32.28,3.93-1.5,7.9-3.04,11.45-5.33,1.73-1.11,3.35-2.39,4.74-3.91,1.44-1.57,2.6-3.38,3.46-5.33,1.79-4.1,2.3-8.63,2.57-13.05.32-5.25.46-10.51.54-15.76.07-5.39.04-10.77-.09-16.15Z"/>
            <path class="cls-4" d="M146.36,62.96c-.12-.02-.31,0-.39.11-1,1.51-1.88,3.09-2.65,4.73-.76,1.63-1.41,3.31-1.97,5.02-.57,1.73-1.05,3.48-1.47,5.25-.42,1.78-.79,3.56-1.11,5.36-.33,1.8-.63,3.61-.92,5.42-.04.22-.07.44-.11.66-.03.2.59.23.63,0,.29-1.8.58-3.6.9-5.39.32-1.8.67-3.59,1.08-5.37.4-1.76.87-3.51,1.41-5.24.54-1.72,1.17-3.41,1.9-5.05.73-1.64,1.58-3.23,2.55-4.75.12-.19.24-.38.37-.56.08-.11-.15-.18-.22-.19Z"/>
            <path class="cls-4" d="M135.79,79.42c.04-.19-.58-.23-.63,0-.4,1.98-.58,3.99-.53,6.01,0,.22.63.22.63,0-.05-2.02.13-4.03.53-6.01Z"/>
            <path class="cls-4" d="M182.62,78.13c-.39,3.01-.79,6.01-1.39,8.98-.6,2.94-1.41,5.85-2.62,8.6-.67,1.53-1.47,3.01-2.41,4.39-.08.12.15.19.22.2.13.02.31,0,.39-.11,1.68-2.48,2.9-5.24,3.79-8.1.9-2.89,1.48-5.87,1.95-8.86.26-1.69.49-3.4.71-5.1.03-.21-.6-.23-.63,0Z"/>
            <path class="cls-4" d="M190.07,49.47c-1.03,1.84-1.85,3.8-2.45,5.82-.17.57-.32,1.15-.46,1.73-.04.19.57.23.63,0,.47-2.03,1.17-4.01,2.07-5.89.25-.53.53-1.06.82-1.58.11-.2-.5-.27-.6-.08Z"/>
            <path class="cls-4" d="M191.27,107.03c-.05-2.9-.26-5.8-.54-8.69-.28-2.89-.62-5.78-.93-8.67-.32-2.89-.61-5.77-.79-8.67-.18-2.89-.25-5.78-.12-8.67.02-.37.04-.73.06-1.1.01-.21-.61-.23-.63,0-.18,2.89-.16,5.78,0,8.67.15,2.91.43,5.82.74,8.71.31,2.89.65,5.77.94,8.67.29,2.88.53,5.76.62,8.65.09,2.88.04,5.77-.25,8.64-.01.13-.03.26-.04.39-1.51,1.41-3.09,2.73-4.76,3.95-1.7,1.25-3.48,2.38-5.32,3.41-1.04.58-2.1,1.12-3.18,1.63-.12.06-.11.17,0,.22.13.07.31.06.44,0,1.93-.9,3.79-1.93,5.59-3.06,1.79-1.13,3.51-2.37,5.16-3.71.68-.55,1.34-1.13,1.99-1.72.03.18.6.19.62-.03.02-.2.04-.41.07-.61,0,0,.02-.01.02-.02.06-.06.04-.12,0-.16.27-2.6.35-5.22.31-7.84Z"/>
            <path class="cls-4" d="M178.49,143.21c-.85-1.95-1.56-3.97-2.09-6.04-.54-2.06-.91-4.16-1.12-6.28-.12-1.19-.18-2.39-.2-3.59,0-.22-.63-.22-.63,0,.02,2.15.22,4.29.58,6.41.36,2.1.88,4.17,1.56,6.2.38,1.15.82,2.27,1.3,3.38.08.19.7.14.6-.08Z"/>
          </g>
          <g>
            <path class="cls-11" d="M193.69,48.52c-.08.04-.15.07-.22.11-3.31,1.78-5.31,5.24-6.44,8.68-2.85,8.67-4.99,17.58-6.39,26.61-.06.4-.12.8-.06,1.2.3,2,3.01,2.36,4.58,3.63,1.79,1.45,1.99,4.06,3.06,6.1.76,1.45,2.2,2.9,3.76,3.49,1.67.63,1.97.53,2.77-1.52,2.87-7.28,5.43-14.82,9-21.79,1.05-2.05,2.23-4.07,3.9-5.64,3.46-3.27,6.22-2.5,10.11-.68-.11-.05-.82-4.61-1.03-5.16-.66-1.71-1.63-2.84-2.78-4.21-2.46-2.91-4.77-5.87-7.9-8.11-3.22-2.29-8.52-4.56-12.36-2.7Z"/>
            <path class="cls-13" d="M203.9,54.06c-.11-.06-.33-.07-.44,0-1.76,1.12-3.41,2.4-4.91,3.85-1.5,1.44-2.85,3.04-4.04,4.75-.67.97-1.28,1.98-1.83,3.02-.11.21.5.27.6.09.96-1.82,2.11-3.53,3.42-5.12,1.31-1.59,2.78-3.04,4.38-4.33.9-.73,1.84-1.4,2.82-2.02.11-.07.12-.16,0-.23Z"/>
            <path class="cls-13" d="M189.95,72.55c-.92,3.85-1.74,7.72-2.44,11.62-.2,1.11-.39,2.22-.57,3.34-.03.2.59.23.63,0,.63-3.91,1.38-7.79,2.24-11.66.24-1.1.5-2.2.76-3.3.05-.19-.57-.23-.63,0Z"/>
            <path class="cls-13" d="M213.07,61.17c-.13-.07-.31-.06-.44,0-1.6.66-3.11,1.52-4.49,2.56-1.38,1.04-2.62,2.26-3.69,3.61-.6.76-1.15,1.56-1.63,2.4-.12.2.5.27.6.09.85-1.47,1.89-2.83,3.09-4.04,1.19-1.2,2.53-2.25,3.98-3.11.83-.49,1.69-.92,2.58-1.28.13-.05.11-.17,0-.23Z"/>
          </g>
        </g>
      </g>
    </g>
  </g>
</svg>