<?xml version="1.0" encoding="UTF-8"?>
<svg id="Layer_2" data-name="Layer 2" xmlns="http://www.w3.org/2000/svg" viewBox="0 0 90.6 90.6">
  <defs>
    <style>
      .cls-1 {
        fill: #984e54;
      }

      .cls-1, .cls-2, .cls-3, .cls-4, .cls-5, .cls-6, .cls-7, .cls-8, .cls-9 {
        stroke-width: 0px;
      }

      .cls-2 {
        fill: #382b73;
      }

      .cls-3 {
        fill: #fff;
      }

      .cls-4 {
        fill: #e43d91;
      }

      .cls-5 {
        fill: #e7ad27;
      }

      .cls-6 {
        fill: #d1d3d4;
      }

      .cls-7 {
        fill: #ef5a9d;
      }

      .cls-8 {
        fill: #fede3a;
      }

      .cls-9 {
        fill: #fe828c;
      }
    </style>
  </defs>
  <g id="information">
    <g>
      <g>
        <circle class="cls-1" cx="45.3" cy="45.3" r="45.3"/>
        <circle class="cls-9" cx="45.3" cy="45.3" r="38.69"/>
      </g>
      <path class="cls-2" d="M64.27,34.77s.03-.03.05-.05c.02-.02.04-.04.06-.06.02-.02.04-.04.05-.06.01-.02.03-.03.04-.05.02-.02.04-.05.07-.07,0,0,0,0,0,0,.02-.02.03-.04.05-.05,0,0,.02-.02.03-.03.01-.02.03-.03.04-.05.01-.01.02-.02.03-.04.01-.01.02-.03.04-.04.01-.01.02-.03.04-.04.01-.02.02-.03.04-.05.01-.01.02-.03.03-.04.01-.02.03-.03.04-.05.01-.01.02-.03.03-.04.01-.02.02-.03.04-.05.01-.01.02-.03.03-.04.01-.01.02-.03.03-.04.01-.02.02-.03.04-.05,0-.01.02-.03.03-.04.01-.02.03-.03.04-.05.01-.01.02-.03.03-.04.01-.01.02-.03.03-.04.01-.02.02-.03.03-.05.01-.02.02-.03.03-.05.01-.01.02-.03.03-.04.01-.02.02-.03.03-.05.01-.02.02-.03.03-.04.01-.02.02-.03.03-.05s.02-.03.03-.05c0-.01.02-.03.03-.04.01-.02.02-.03.03-.05,0-.02.02-.03.03-.05.01-.02.02-.03.03-.05,0-.02.02-.03.03-.05.01-.02.02-.03.03-.05,0-.02.02-.03.03-.04.01-.02.02-.03.03-.05,0-.02.02-.03.03-.05.01-.02.02-.03.03-.05,0-.02.02-.03.03-.05,0-.02.02-.03.03-.05,0-.02.02-.03.03-.05,0-.02.02-.03.03-.05,0-.02.02-.03.03-.05,0-.02.02-.03.02-.05,0-.02.02-.04.03-.05,0-.02.02-.03.02-.05,0-.02.02-.04.03-.05,0-.02.02-.03.02-.05,0-.02.02-.04.03-.05,0-.02.02-.03.02-.05,0-.02.02-.03.02-.05,0-.02.02-.03.02-.05,0-.02.02-.03.02-.05,0-.02.02-.04.02-.05,0-.02.02-.03.02-.05,0-.02.02-.04.02-.05,0-.02.01-.03.02-.05,0-.02.02-.04.02-.05,0-.02.01-.04.02-.05s.01-.03.02-.05c0-.02.01-.04.02-.05,0-.02.01-.04.02-.05,0-.02.01-.04.02-.05,0-.02.01-.03.02-.05,0-.02.01-.04.02-.05,0-.02.01-.03.02-.05,0-.02.01-.04.02-.05,0-.02.01-.04.02-.06,0-.02.01-.04.02-.05,0-.02.01-.04.02-.05,0-.02.01-.04.02-.06,0-.02.01-.04.02-.05,0-.02.01-.04.02-.05,0-.02.01-.04.02-.05,0-.02.01-.04.02-.06,0-.02.01-.04.02-.05,0-.02.01-.04.02-.06,0-.02.01-.04.02-.06,0-.02.01-.04.02-.06,0-.02,0-.04.01-.05,0-.02.01-.04.02-.06,0-.02,0-.03.01-.05,0-.02,0-.04.01-.06,0-.02,0-.04.01-.06,0-.02,0-.04.01-.05,0-.02,0-.04.01-.06,0-.02,0-.04.01-.05,0-.02,0-.04.01-.06s0-.04.01-.06c0-.02,0-.04.01-.06,0-.02,0-.04.01-.06,0-.02,0-.04.01-.06,0-.02,0-.04.01-.06,0-.02,0-.04.01-.06,0-.02,0-.04.01-.06,0-.02,0-.03,0-.05,0-.02,0-.04.01-.06,0-.02,0-.03,0-.05,0-.02,0-.04,0-.06,0-.02,0-.04,0-.05,0-.02,0-.04,0-.06,0-.02,0-.03,0-.05,0-.02,0-.04,0-.06,0-.02,0-.04,0-.06,0-.02,0-.04,0-.05,0-.02,0-.04,0-.06,0-.02,0-.04,0-.06,0-.02,0-.04,0-.06,0-.02,0-.04,0-.06,0-.02,0-.04,0-.06,0-.02,0-.04,0-.06,0-.02,0-.04,0-.06,0-.02,0-.04,0-.06,0-.02,0-.04,0-.06,0-.02,0-.05,0-.08,0-.01,0-.03,0-.04,0-.02,0-.05,0-.07,0-.02,0-.03,0-.05,0-.02,0-.04,0-.07,0-.02,0-.04,0-.05,0-.04,0-.08,0-.12h0c0-5.2-4.21-9.42-9.41-9.42-2.72,0-5.17,1.15-6.89,3h-21.59c-.87,0-1.58.71-1.58,1.58v48.21c0,.87.71,1.58,1.58,1.58h32.56c.87,0,1.58-.71,1.58-1.58v-34.34h0v-1.51s.02-.01.02-.02c.02-.01.03-.02.05-.04.01-.01.03-.02.04-.03.02-.01.03-.02.05-.04.01-.01.03-.02.04-.03.01-.01.03-.02.04-.04.01-.01.03-.02.04-.04.01-.01.03-.02.04-.04.01-.01.03-.02.04-.03.02-.01.03-.02.04-.04.01-.01.03-.02.04-.04.01-.01.03-.03.04-.04.01-.01.03-.02.04-.04.01-.01.03-.02.04-.04s.03-.02.04-.04c.01-.01.03-.03.04-.04.01-.01.02-.02.04-.03.01-.01.03-.03.04-.04.01-.01.03-.02.04-.04.01-.01.03-.03.04-.04.01-.01.03-.02.04-.04.01-.01.03-.03.04-.04.01-.01.03-.03.04-.04.01-.01.02-.02.04-.04.01-.01.02-.03.04-.04.01-.01.03-.03.04-.04.01,0,.02-.02.03-.03Z"/>
      <g>
        <path class="cls-6" d="M61.58,70.53H29.02c-.87,0-1.58-.71-1.58-1.58V22.29c0-.87.71-1.58,1.58-1.58h32.56c.87,0,1.58.71,1.58,1.58v46.66c0,.87-.71,1.58-1.58,1.58Z"/>
        <path class="cls-3" d="M61.58,68.99H29.02c-.87,0-1.58-.71-1.58-1.58V20.75c0-.87.71-1.58,1.58-1.58h32.56c.87,0,1.58.71,1.58,1.58v46.66c0,.87-.71,1.58-1.58,1.58Z"/>
        <path class="cls-6" d="M47.22,38.9h-14.44c-.63,0-1.13-.51-1.13-1.13s.51-1.13,1.13-1.13h14.43c.63,0,1.13.51,1.13,1.13,0,.63-.51,1.13-1.13,1.13Z"/>
        <path class="cls-6" d="M43.44,25.47h-10.66c-.63,0-1.13-.51-1.13-1.13s.51-1.13,1.13-1.13h10.66c.63,0,1.13.51,1.13,1.13,0,.63-.51,1.13-1.13,1.13Z"/>
        <path class="cls-6" d="M43.44,30.02h-10.66c-.63,0-1.13-.51-1.13-1.13s.51-1.13,1.13-1.13h10.66c.63,0,1.13.51,1.13,1.13,0,.63-.51,1.13-1.13,1.13Z"/>
        <path class="cls-6" d="M58.54,44.57h-25.76c-.63,0-1.13-.51-1.13-1.13s.51-1.13,1.13-1.13h25.76c.63,0,1.13.51,1.13,1.13,0,.63-.51,1.13-1.13,1.13Z"/>
        <path class="cls-6" d="M58.54,50.24h-25.76c-.63,0-1.13-.51-1.13-1.13s.51-1.13,1.13-1.13h25.76c.63,0,1.13.51,1.13,1.13s-.51,1.13-1.13,1.13Z"/>
        <path class="cls-6" d="M58.54,55.91h-25.76c-.63,0-1.13-.51-1.13-1.13s.51-1.13,1.13-1.13h25.76c.63,0,1.13.51,1.13,1.13s-.51,1.13-1.13,1.13Z"/>
        <path class="cls-6" d="M58.54,61.57h-25.76c-.63,0-1.13-.51-1.13-1.13s.51-1.13,1.13-1.13h25.76c.63,0,1.13.51,1.13,1.13,0,.63-.51,1.13-1.13,1.13Z"/>
        <path class="cls-6" d="M52.32,38.22s.02.03.02.05c0-.02-.02-.03-.02-.05ZM52.96,38.68s.03,0,.05,0c-.02,0-.04,0-.05,0Z"/>
        <path class="cls-6" d="M61.58,19.16h-9.16c-2.61,1.67-4.33,4.6-4.33,7.93h0s0,.08,0,.13c0,.02,0,.03,0,.04,0,.03,0,.06,0,.08,0,.02,0,.03,0,.05,0,.03,0,.05,0,.08,0,.02,0,.03,0,.04,0,.03,0,.06,0,.09,0,.01,0,.02,0,.03,0,.04,0,.08,0,.12,0,0,0,.02,0,.03,0,.03,0,.07,0,.1,0,.01,0,.03,0,.04,0,.03,0,.06,0,.09,0,.01,0,.03,0,.04,0,.03,0,.06,0,.09,0,.01,0,.03,0,.04,0,.03,0,.07.01.1,0,0,0,.01,0,.02,0,.04.01.08.02.12,0,.01,0,.03,0,.04,0,.03,0,.05.01.08,0,.02,0,.03,0,.05,0,.02,0,.05.01.07,0,.02,0,.03,0,.05,0,.03,0,.05.01.08,0,.01,0,.03,0,.04,0,.04.01.07.02.11,0,0,0,.01,0,.02,0,.04.02.07.02.11,0,.01,0,.03,0,.04,0,.03.01.05.02.08,0,.01,0,.03.01.04,0,.03.01.05.02.08,0,.01,0,.03,0,.04,0,.03.01.06.02.08,0,.01,0,.02,0,.04.01.04.02.08.03.12,0,0,0,.01,0,.02,0,.03.02.07.03.1,0,.01,0,.03.01.04,0,.03.02.05.02.08,0,.01,0,.03.01.04,0,.03.02.05.02.08,0,.01,0,.02.01.04.01.03.02.06.03.09,0,0,0,.01,0,.02.01.04.03.08.04.11,0,.01,0,.02.01.04,0,.03.02.05.03.08,0,.02.01.03.02.04,0,.02.02.05.03.07l.02.04s.02.05.03.08c0,.01,0,.02.01.04.03.07.06.15.09.22,0,.01.01.02.02.03.01.02.02.05.03.07,0,.01.01.03.02.04.01.02.02.05.03.07,0,.01.01.03.02.04.01.03.03.05.04.08,0,0,0,.02.01.02.02.04.04.07.05.11,0,0,0,.01,0,.02.01.03.03.06.04.09,0,.01.01.02.02.03.01.02.02.05.04.07,0,.01.01.03.02.04.01.02.02.04.04.07,0,.01.01.03.02.04.01.03.03.05.04.08,0,0,0,.02.01.02.02.03.04.07.06.1,0,.01.01.02.02.03.01.02.03.05.04.07,0,.01.01.02.02.03.01.02.03.05.04.07,0,.01.01.02.02.03.01.02.03.05.04.07,0,.01.01.02.02.03.04.07.09.13.13.2,0,.01.02.02.02.03.02.02.03.04.05.06,0,.01.02.02.02.03.02.02.03.04.05.07,0,.01.02.02.02.03.02.02.03.05.05.07,0,0,.01.02.02.03.02.03.05.06.07.09,0,0,0,.01.01.02.02.03.04.05.06.08,0,.01.02.02.02.03.02.02.03.04.05.06,0,.01.02.02.03.03.02.02.03.04.05.06l.03.03s.04.05.06.07c0,0,.01.01.02.02.03.03.05.06.08.09,0,0,.01.02.02.02.02.02.04.04.06.06,0,.01.02.02.03.03.02.02.04.04.05.06,0,.01.02.02.03.03.02.02.04.04.06.06,0,0,.02.02.03.03.05.06.11.11.16.17,0,0,.02.02.02.02.02.02.04.04.06.06,0,0,.02.02.03.03.02.02.04.04.06.06.01,0,.02.02.03.03.02.02.04.04.06.06,0,0,.02.02.03.02.03.03.06.05.09.08,0,0,0,0,.01.01.02.02.05.04.08.07.01,0,.02.02.03.03.02.02.04.03.06.05.01,0,.02.02.03.03.02.02.04.03.06.05,0,0,.01.01.02.02v4.93s0,.01,0,.02c0,0,0-.01,0-.02v1.41c0,.75.9,1.12,1.43.59l4.8-4.8s.04,0,.06,0c.02,0,.04,0,.06,0,.02,0,.05,0,.07,0,.02,0,.03,0,.04,0,.03,0,.06,0,.09,0,0,0,.02,0,.03,0,.02,0,.04,0,.07,0,.09,0,.19-.01.28-.02h0s.04,0,.06,0c.02,0,.04,0,.05,0,.01,0,.03,0,.04,0,.03,0,.05,0,.08,0,0,0,.02,0,.02,0,.03,0,.06,0,.09-.01.01,0,.02,0,.04,0,.03,0,.05,0,.08-.01.01,0,.03,0,.04,0,.02,0,.05,0,.07-.01.02,0,.03,0,.05,0,.02,0,.04,0,.06-.01.02,0,.04,0,.06-.01.02,0,.04,0,.05,0,.02,0,.04,0,.05-.01.02,0,.04,0,.06-.01.02,0,.03,0,.05,0,.02,0,.04,0,.07-.01.02,0,.03,0,.05-.01.02,0,.04,0,.06-.01.02,0,.03,0,.05-.01.02,0,.04-.01.07-.02.02,0,.03,0,.05-.01.02,0,.04-.01.07-.02.02,0,.03,0,.05-.01.02,0,.04-.01.06-.02.02,0,.03,0,.05-.01.02,0,.04-.01.06-.02.02,0,.04-.01.06-.02.02,0,.04-.01.06-.02.02,0,.04-.01.05-.02s.04-.01.05-.02c.02,0,.04-.01.05-.02.02,0,.04-.01.06-.02.02,0,.03-.01.05-.02.02,0,.04-.01.06-.02.02,0,.03-.01.05-.02.02,0,.04-.01.06-.02.02,0,.03-.01.05-.02.02,0,.04-.01.06-.02.02,0,.03-.01.05-.02.02,0,.04-.01.06-.02.02,0,.04-.01.05-.02s.04-.01.05-.02c.02,0,.04-.01.05-.02.02,0,.04-.01.05-.02.02,0,.03-.01.05-.02.02,0,.04-.01.05-.02.02,0,.03-.01.05-.02.02,0,.03-.01.05-.02.02,0,.04-.02.05-.02.02,0,.03-.01.05-.02.02,0,.04-.02.05-.02s.04-.02.05-.02c.02,0,.03-.01.05-.02.02,0,.04-.02.06-.03.02,0,.03-.02.05-.02.02,0,.04-.02.05-.03.02,0,.03-.02.05-.02.02,0,.04-.02.05-.03.02,0,.03-.02.05-.02.02,0,.04-.02.05-.03.02,0,.03-.02.05-.03s.03-.02.05-.03c.02,0,.03-.02.05-.03.02,0,.03-.02.05-.03.02,0,.03-.02.05-.03.02,0,.03-.02.05-.03.02,0,.03-.02.05-.03.02,0,.03-.02.05-.03.02,0,.03-.02.05-.03.02-.01.03-.02.05-.03.02,0,.03-.02.05-.03.02,0,.03-.02.05-.03s.03-.02.05-.03c.02,0,.03-.02.05-.03l.05-.03s.03-.02.05-.03c.02,0,.03-.02.05-.03.02-.01.03-.02.05-.03.02-.01.03-.02.05-.03.02-.01.03-.02.05-.03s.03-.02.05-.03c.02-.01.03-.02.05-.03.01-.01.03-.02.04-.03s.03-.02.04-.03c.02-.01.03-.02.05-.04.01,0,.03-.02.04-.03.02-.01.03-.02.05-.04,0,0,.01,0,.02-.01v-13.86c0-.87-.71-1.58-1.58-1.58ZM52.59,40.1s.07-.02.1-.04c-.03.01-.07.03-.1.04Z"/>
        <g>
          <g>
            <path class="cls-7" d="M48.08,25.58c0-5.2,4.21-9.41,9.41-9.41s9.41,4.21,9.41,9.41-4.21,9.41-9.41,9.41c-.37,0-.74-.02-1.1-.06l-3.45,3.45c-.53.53-1.43.15-1.43-.59v-4.93c-2.1-1.73-3.44-4.34-3.44-7.27Z"/>
            <path class="cls-4" d="M48.08,25.58c0-.3.02-.59.04-.88.45,4.78,4.47,8.53,9.37,8.53s8.93-3.75,9.37-8.53c.03.29.04.58.04.88,0,5.11-4.08,9.28-9.16,9.41l-4.8,4.8c-.53.53-1.43.15-1.43-.59v-1.41c0,.75.9,1.12,1.43.59l3.45-3.45c-4.68-.55-8.31-4.52-8.31-9.35Z"/>
          </g>
          <g>
            <g>
              <path class="cls-4" d="M57.14,21.27h.83c.35,0,.64-.29.64-.64v-.87c0-.35-.29-.64-.64-.64h-.83c-.35,0-.64.29-.64.64v.87c0,.35.29.64.64.64Z"/>
              <path class="cls-4" d="M59.6,29.48c-.05-.24-.24-.44-.49-.49h0c-.29-.06-.5-.32-.5-.62v-5.16c0-.35-.29-.64-.64-.64h-1.95c-.33,0-.61.26-.63.59,0,.02,0,.03,0,.05v.67c0,.31.22.57.52.63l.09.02c.3.06.52.32.52.63v3.22c0,.3-.21.56-.5.62h0c-.28.06-.48.3-.5.58,0,.01,0,.03,0,.04v.67c0,.35.29.64.64.64h2.85c.35,0,.64-.29.64-.64v-.71s0-.08-.02-.1Z"/>
            </g>
            <g>
              <path class="cls-5" d="M55.99,28.99h0c.29-.06.5-.32.5-.62v-3.79c0-.31-.22-.57-.52-.63l-.09-.02c-.3-.06-.52-.32-.52-.63v-.67c0-.35.29-.07.64-.07h1.95c.35,0,.64.29.64.64v5.16c0,.3.21.56.5.62h0c.29.06.5-.28.5.02v.71c0,.35-.29.64-.64.64h-2.85c-.35,0-.64-.29-.64-.64v-.67c0-.3.21,0,.51-.06ZM57.97,20.71h-.83c-.35,0-.64-.29-.64-.64v-.79c0-.35.29-.15.64-.15h.83c.35,0,.64-.2.64.15v.79c0,.35-.29.64-.64.64Z"/>
              <path class="cls-8" d="M55.99,28.42h0c.29-.06.5-.32.5-.62v-3.79c0-.31-.22-.57-.52-.63l-.09-.02c-.3-.06-.52-.32-.52-.63v-.1c0-.35.29-.64.64-.64h1.95c.35,0,.64.29.64.64v5.16c0,.3.21.56.5.62h0c.29.06.5.32.5.62v.11c0,.35-.29.64-.64.64h-2.85c-.35,0-.64-.29-.64-.64v-.11c0-.3.21-.56.51-.62ZM57.97,20.14h-.83c-.35,0-.64-.29-.64-.64v-.3c0-.35.29-.64.64-.64h.83c.35,0,.64.29.64.64v.3c0,.35-.29.64-.64.64Z"/>
            </g>
          </g>
        </g>
      </g>
    </g>
  </g>
</svg>