<?xml version="1.0" encoding="UTF-8"?>
<svg id="Layer_2" data-name="Layer 2" xmlns="http://www.w3.org/2000/svg" viewBox="0 0 193.78 125.72">
  <defs>
    <style>
      .cls-1 {
        fill: #fff3f4;
      }

      .cls-1, .cls-2 {
        stroke-width: 0px;
      }

      .cls-2 {
        fill: #fe828c;
      }
    </style>
  </defs>
  <g id="logo">
    <g>
      <rect class="cls-2" x="0" width="193.78" height="125.72" rx="26.22" ry="26.22"/>
      <g>
        <g>
          <path class="cls-1" d="M134.78,61.99c-.32-1.37-1.2-2.05-2.57-2.04-1.35.01-2.26.73-2.51,2.11-.14.76-.19,1.55-.19,2.32,0,3.26.04,6.51.05,9.77,0,.27.06.66-.19.77-.32.13-.41-.3-.58-.49-.38-.42-.71-.88-1.09-1.3-.28-.32-.61-.67-1.08-.33-.52.39-.25.81.03,1.2.91,1.26,1.82,2.52,2.73,3.79.25.35.5.74,1.01.59.55-.16.58-.63.57-1.12-.02-4.18-.03-8.35-.03-12.53,0-.74-.02-1.49.05-2.23.09-.88.7-1.27,1.58-1.12.88.15.98.8.98,1.51,0,3.47,0,6.94,0,10.41,0,3.36,0,6.73,0,10.09,0,.77-.02,1.52-.9,1.84-.92.33-1.37-.3-1.81-.92-3.74-5.19-7.48-10.39-11.22-15.59-.28-.39-.55-.78-1.11-.61-.56.17-.56.64-.56,1.12.02,4.64.03,9.27.03,13.91,0,.39-.01.78-.09,1.16-.14.69-.58.99-1.3.97-1.18-.04-1.25-.86-1.25-1.71-.02-3.22,0-6.44,0-9.66,0-.54-.06-1.03-.77-1-.69.03-.61.56-.61,1.01,0,3.04-.01,6.09,0,9.13,0,.53.06,1.06.18,1.57.37,1.49,1.37,2.2,2.87,2.09,1.23-.09,2.14-1.08,2.27-2.52.06-.74.1-1.48.1-2.22.01-3.33,0-6.65.01-9.98,0-.22-.13-.55.19-.64.24-.07.33.21.45.37,2.26,3.13,4.5,6.26,6.77,9.38,1.14,1.57,2.26,3.17,3.49,4.67.89,1.08,1.97,1.23,3.15.67,1.14-.54,1.52-1.53,1.52-2.7.01-6.83,0-13.66,0-20.49,0-.42-.07-.85-.17-1.26Z"/>
          <path class="cls-1" d="M97.97,81.31c-2.41-.1-4.82-.11-7.22-.07-1.94.03-2.12-.19-2.05-2.18.09-2.65.05-5.31.05-7.96,0-.46-.06-.95-.72-.96-.67,0-.69.45-.69.94,0,3.22,0,6.44,0,9.66,0,1.62.3,1.93,1.91,1.93,2.8,0,5.6,0,8.4,0,1.22,0,1.8.55,1.66,1.54-.17,1.15-1.09,1.17-1.95,1.17-3.47.02-6.95,0-10.42,0-1.94,0-2.36-.42-2.36-2.37,0-5.24,0-10.48,0-15.72,0-1.59.02-3.18.04-4.78.01-.89.34-1.53,1.34-1.55,1.04-.02,1.34.68,1.37,1.53.05,1.56.04,3.11.05,4.67,0,.45.19.79.67.77.39-.02.63-.28.64-.71.03-1.8.22-3.61-.07-5.4-.17-1.04-.67-1.84-1.78-2.14-2.06-.56-3.56.6-3.59,2.93-.05,3.5-.01,7.01-.01,10.51-.02,0-.04,0-.07,0,0,1.73,0,3.47,0,5.2.01,1.77.02,3.54.07,5.31.06,2.1.99,3.06,3.08,3.08,3.83.04,7.65.03,11.48,0,1.71-.01,2.95-1.17,2.98-2.68.03-1.47-1.1-2.68-2.78-2.75Z"/>
          <path class="cls-1" d="M158.56,81.59c-2.17-2.84-4.32-5.69-6.54-8.5-.65-.82-.59-1.41.18-2.07.67-.57,1.3-1.21,1.92-1.83,1.58-1.58,3.19-3.12,4.71-4.76,1.29-1.4,1.19-3.01-.11-4.11-1.04-.87-2.41-.84-3.67.28-1.37,1.22-2.63,2.57-3.94,3.87-1.98,1.98-3.96,3.96-5.94,5.93-.22.22-.45.57-.77.47-.41-.13-.16-.55-.16-.84,0-1.24-.01-2.48,0-3.72,0-.5-.05-1-.66-.99-.64.01-.74.5-.72,1.07.03.99,0,1.98,0,2.97,0,0-.01,0-.02,0,0,.99,0,1.98,0,2.97,0,.47-.04.96.5,1.17.54.22.92-.07,1.3-.45,3.66-3.7,7.32-7.4,10.99-11.09.22-.22.48-.42.74-.6.6-.42,1.14-.27,1.6.24.76.83.3,1.49-.32,2.11-2.31,2.3-4.62,4.6-6.94,6.88-1.12,1.1-1.17,1.58-.22,2.81,1.16,1.52,2.34,3.02,3.5,4.54,1.29,1.69,2.58,3.37,3.86,5.07.53.7.69,1.39-.13,2.03-.79.62-1.38.29-1.9-.36-.83-1.06-1.65-2.12-2.48-3.18-.26-.34-.61-.53-1.02-.29-.36.21-.46.58-.2.91,1.11,1.41,1.96,3.05,3.45,4.14.99.73,2.07.66,3.03-.12,1.01-.83,1.33-1.9.89-3.02-.22-.57-.58-1.05-.95-1.53Z"/>
          <path class="cls-1" d="M149.53,76.45c-1.8-2.29-1.51-3.25-4.45-.33-1.81,1.8-2.75,3.9-2.26,6.51.09.51.06,1.06,0,1.58-.1.73-.58,1.12-1.32,1.1-.68-.02-1.13-.38-1.21-1.09-.04-.39-.07-.77-.07-1.16,0-6.58,0-13.16,0-19.74,0-.35,0-.71.05-1.06.09-.7.51-1.03,1.22-1.08.85-.05,1.21.42,1.39,1.15.12.49.42.74.93.59.52-.15.43-.57.37-.96-.23-1.51-1.61-2.47-3.1-2.17-1.52.31-2.24,1.26-2.25,2.99-.01,3.47,0,6.93,0,10.4,0,1.13,0,2.26,0,3.4,0,2.51-.02,5.02.05,7.53.04,1.42,1.14,2.5,2.47,2.6,1.4.1,2.54-.71,2.77-2.07.17-1,.33-2.01.08-3.05-.3-1.26.05-2.39.9-3.34.52-.58,1.12-1.09,1.61-1.69.54-.66.87-.45,1.29.12.81,1.12,1.65,2.21,2.5,3.3.28.35.61.81,1.13.39.48-.38.24-.83-.04-1.21-.67-.91-1.34-1.82-2.04-2.71Z"/>
          <path class="cls-1" d="M109.4,77.85c-.72,0-.67.58-.68,1.08-.02,1.7-.04,3.39-.07,5.09-.02.81-.48,1.24-1.27,1.27-.8.03-1.25-.4-1.32-1.2-.03-.32-.02-.64-.02-.95,0-4.1,0-8.21,0-12.31,0-.52.03-1.15-.76-1.13-.74.02-.65.62-.65,1.1,0,2.16,0,4.32,0,6.47,0,2.19-.03,4.39.01,6.58.03,1.77,1.12,2.86,2.74,2.86,1.56,0,2.64-1.06,2.7-2.78.06-1.66.04-3.32.04-4.99,0-.51-.02-1.08-.71-1.09Z"/>
          <path class="cls-1" d="M109.91,61.57c-.3-1.32-1.19-2-2.5-2.02-1.36-.02-2.32.66-2.61,2.01-.42,1.96-.15,3.95-.17,5.92,0,.37.25.57.61.6.42.03.68-.16.73-.58.04-.31.07-.63.07-.95.02-1.45.02-2.9.04-4.35.01-.75.39-1.19,1.16-1.23.79-.03,1.29.33,1.39,1.13.06.45.08.92.08,1.37,0,3.78,0,7.57,0,11.35,0,.47-.02.98.65,1,.71.02.74-.49.74-1.02,0-1.98,0-3.96,0-5.94h0c0-.64.02-1.27,0-1.91-.07-1.8.21-3.61-.19-5.39Z"/>
          <path class="cls-1" d="M113.94,68.91c0,.5-.05,1.08.67,1.1.8.02.71-.62.72-1.14,0-.42,0-.85,0-1.27,0-1.66,0-3.33.02-4.99,0-.62.25-1.1.88-1.31.61-.2,1.11.02,1.52.48.19.21.34.45.51.68,2.06,2.83,4.11,5.67,6.18,8.5.26.35.5.88,1.08.48.57-.39.36-.87.06-1.29-2.25-3.09-4.49-6.19-6.77-9.25-.79-1.06-1.82-1.31-3.02-.92-1.14.37-1.79,1.24-1.83,2.58-.03,1.06,0,2.12,0,3.19,0,1.06,0,2.12,0,3.19Z"/>
        </g>
        <g>
          <path class="cls-1" d="M83.14,47.35c0-2.05-.02-4.11,0-6.16.01-.94.15-1.88,1.25-2.22,1.12-.35,2.11.31,2.25,1.58.1.95.04,1.91.04,2.86,0,.3-.08.61-.42.65-.47.05-.48-.37-.49-.66-.04-.85-.01-1.7-.04-2.55-.02-.54-.18-1-.85-.96-.61.04-.73.49-.73.98,0,4.32-.01,8.64,0,12.95,0,.84.48,1.2,1.29,1.2,2.2,0,4.39,0,6.59,0,.56,0,1.13-.13,1.14-.83,0-.72-.59-.81-1.14-.82-1.63-.01-3.26-.02-4.88.03-.98.03-1.43-.31-1.4-1.34.05-1.77.01-3.54.02-5.31,0-.21,0-.43.04-.63.05-.27.08-.61.47-.59.36.02.42.34.42.63.01,1.38.02,2.76.03,4.14,0,.32,0,.64-.02.95-.04.91.41,1.28,1.29,1.27,1.38-.02,2.76-.02,4.14,0,1.43.02,2.07.59,2.04,1.73-.03,1.13-.69,1.67-2.1,1.7-2.16.04-4.31.12-6.48.02-1.76-.08-2.4-.63-2.44-2.45-.04-1.73,0-3.47,0-5.2,0-.32,0-.64,0-.96Z"/>
          <path class="cls-1" d="M96.68,54.09c-.02-.32.08-.62.19-.92,1.57-4.2,3.13-8.4,4.7-12.6.34-.91.81-1.68,1.94-1.65,1.08.02,1.5.79,1.83,1.65.39,1.02.78,2.05,1.15,3.07.12.33.27.77-.18.92-.47.16-.55-.3-.68-.62-.41-1.09-.83-2.18-1.23-3.27-.17-.46-.43-.86-.97-.84-.47.02-.74.38-.9.8-1.63,4.33-3.26,8.65-4.89,12.98-.2.53-.26,1.09.47,1.28.73.18,1-.27,1.15-.9.47-2.04,1.19-2.64,3.28-2.75.49-.03.99-.03,1.49-.03,2.39,0,2.92.42,3.56,2.72.15.54.29,1.19,1.09.98.83-.23.72-.85.49-1.45-.83-2.22-1.66-4.43-2.49-6.64-.14-.37-.51-.85.1-1.07.61-.22.63.38.77.75.85,2.28,1.72,4.55,2.55,6.84.42,1.15.16,1.94-.71,2.36-1.09.53-2.06.13-2.45-1.02-.84-2.49-2.96-3.42-5.41-2.38-.63.26-1.04.71-1.24,1.36-.11.37-.21.75-.35,1.11-.35.9-1.05,1.22-1.95,1.07-.96-.16-1.36-.8-1.33-1.74Z"/>
          <path class="cls-1" d="M159.68,54.16c0,.83-.37,1.44-1.18,1.68-.82.25-1.46-.07-1.9-.77-.29-.45-.49-.94-.57-1.47-.16-1.12-.83-1.56-1.92-1.54-.92.02-1.84.06-2.76.02-.67-.03-1.04.23-1.25.87-.22.67-.47,1.34-.82,1.95-.55.98-1.3,1.22-2.22.82-.9-.39-1.25-1.13-.87-2.2,1.15-3.19,2.35-6.36,3.54-9.53.44-1.19.89-2.38,1.34-3.57.32-.85.84-1.48,1.84-1.5,1.05-.03,1.49.69,1.81,1.51.42,1.09.8,2.19,1.21,3.28.13.35.24.73-.22.89-.43.15-.52-.27-.63-.55-.42-1.09-.81-2.19-1.22-3.27-.18-.46-.36-.98-.99-.94-.53.03-.78.42-.95.88-1.59,4.23-3.19,8.46-4.77,12.69-.14.36-.23.77-.01,1.13.17.28.45.47.79.42.4-.06.56-.37.68-.73.88-2.66,1.38-3.02,4.18-3.02.5,0,.99-.01,1.49.02,1.57.11,2.23.71,2.66,2.25.18.65.12,1.73,1.26,1.38,1.11-.35.51-1.21.27-1.86-.74-2.02-1.52-4.03-2.28-6.04-.09-.23-.18-.46-.23-.7-.04-.21,0-.44.25-.52.27-.1.51-.02.61.26.96,2.62,1.92,5.23,2.87,7.85.03.09,0,.21,0,.32Z"/>
          <path class="cls-1" d="M121.26,39.34c-2.63.17-5.28,1.49-6.81,4.44-1.49,2.89-.94,5.68.96,8.24.13.17.26.34.37.52.12.19.16.41-.03.58-.23.21-.46.12-.66-.08-.12-.12-.23-.27-.34-.4-2.18-2.6-2.64-5.53-1.38-8.63,1.32-3.25,3.87-5.06,7.34-5.51,2.18-.28,4.21.23,6.06,1.44,1.23.81,1.5,1.64.87,2.64-.63,1-1.54,1.14-2.74.38-1.14-.72-2.36-1.1-3.71-1.04-.3.01-.72.09-.71-.39,0-.42.38-.44.71-.45,1.41-.06,2.74.18,3.95.97.51.33,1.12.88,1.64.06.53-.83-.21-1.22-.75-1.58-1.24-.82-2.62-1.21-4.75-1.19Z"/>
          <path class="cls-1" d="M136.17,48.29c0,1.73-.03,3.47.01,5.2.01.59-.12,1.44.86,1.39.88-.04.74-.8.74-1.38.01-1.91,0-3.82,0-5.73,0-.38-.05-.9.47-.91.55-.01.46.53.46.9,0,1.98.02,3.96,0,5.94,0,.78-.07,1.58-.9,2.01-1.26.66-2.54-.16-2.59-1.76-.06-2.02-.02-4.03-.03-6.05,0-1.38-.03-2.76,0-4.14.03-1-.43-1.39-1.4-1.43-.81-.03-1.63.09-2.42-.2-.75-.27-1.07-.79-1.04-1.54.03-.77.36-1.35,1.15-1.6.33-.1.65-.16.82.22.16.36-.14.48-.4.61-.36.18-.68.4-.59.89.1.52.53.67.95.69.56.03,1.13-.03,1.69-.09,1.73-.2,2.35.38,2.32,2.11-.03,1.62,0,3.25,0,4.87-.04,0-.08,0-.12,0Z"/>
          <path class="cls-1" d="M121.86,55.92c-1.41.04-2.72-.38-4.02-.85-.37-.14-.68-.32-.46-.76.2-.42.53-.21.82-.08,2.72,1.18,5.35,1.08,7.91-.47.58-.35,1.13-.73.63-1.5-.5-.77-1.03-.29-1.53.03-2.42,1.53-5.52,1.32-7.7-.52-2.01-1.7-2.68-4.5-1.68-6.93.51-1.23,1.45-2.07,2.47-2.84.28-.22.62-.45.9-.02.26.42-.07.61-.38.83-2.22,1.57-3.05,3.73-2.3,5.94.99,2.92,4.44,4.43,7.28,3.18.55-.24,1.06-.58,1.61-.8.88-.35,1.67-.25,2.22.62.55.87.43,1.62-.46,2.31-1.55,1.2-3.33,1.84-5.3,1.86Z"/>
          <path class="cls-1" d="M138.46,38.88c1.13,0,2.26-.03,3.39,0,1.12.03,1.7.59,1.74,1.59.04.98-.51,1.67-1.56,1.8-.63.08-1.27,0-1.91,0-1.06,0-1.57.54-1.47,1.59.03.31.1.63.07.94-.02.24-.17.47-.49.46-.31-.01-.44-.22-.45-.49-.01-.81-.05-1.63.01-2.44.05-.63.52-.89,1.12-.9.78-.01,1.56-.02,2.34-.03.62,0,1.31,0,1.32-.85.02-.89-.68-.81-1.3-.81-2.16,0-4.32,0-6.48-.01-.37,0-.88.12-.87-.48.02-.57.55-.46.9-.47,1.2-.03,2.41-.01,3.61-.01,0,.03,0,.05,0,.08Z"/>
          <path class="cls-1" d="M104.5,49.57c-.85,0-1.69,0-2.54,0-.44,0-.8-.13-.7-.67.1-.54.09-1.18.79-1.36.26-.06.32.17.38.39.19.65,1.16,1.04,1.77.72.38-.2.32-.5.19-.81-.17-.39-.33-.78-.52-1.15-.18-.34-.15-1.43-.84-.27-.09.16-.28.23-.46.15-.22-.1-.33-.3-.26-.52.21-.64.36-1.31.69-1.87.33-.55.77-.42,1,.16.53,1.31,1.06,2.61,1.53,3.94.35.97-.01,1.4-1.04,1.31Z"/>
          <path class="cls-1" d="M152.99,49.57c-.56,0-.91.01-1.27,0-.34-.02-.77.13-.95-.27-.2-.44-.07-.9.17-1.31.13-.22.3-.43.56-.43.37,0,.27.32.33.55.14.56,1.11.89,1.82.56.63-.3.08-.71,0-1.06-.08-.37-.26-.73-.39-1.09-.18-.51-.36-.94-.79-.15-.09.17-.25.25-.44.18-.24-.1-.28-.36-.23-.54.17-.61.31-1.24.61-1.79.3-.56.82-.46,1.04.08.57,1.4,1.08,2.83,1.56,4.26.24.72-.16,1.07-.86,1.09-.46.01-.92-.05-1.17-.06Z"/>
        </g>
        <path class="cls-1" d="M74.5,53.64c-.25-.4-.44-.81-.5-1.27-.75-5.44-3.58-9.51-8.22-12.36-.85-.52-1.07-1.06-.68-2,1.12-2.66,1.38-5.47,1.18-8.32-.18-2.56-1.84-4.33-4.26-4.45-1.77-.09-3.35.55-4.69,1.67-2.64,2.21-3.65,5.21-3.99,8.51-.2,1.95-.41,2.22-2.35,2.66-4.58,1.03-7.96,3.68-10.29,7.71-.58,1-1.11,1.98-2.39,2.22-.21.04-.47.25-.57.44-.94,2.01-1.79,4.06-.79,6.28.36.8.22,1.27-.38,1.83-1.65,1.54-2.68,3.45-3.15,5.65-1.45,6.7-2.9,13.39-4.35,20.09-.44,2.04-.9,4.09-.55,6.19.55,3.33,2.71,5.41,5.53,6.96,6.12,3.35,12.7,4.88,19.86,4.9,2.07.14,4.32-.2,6.56-.51,5.02-.69,8.32-3.43,9.81-8.31.64-2.1.99-4.26,1.45-6.4,1.58-7.46,2.82-14.95,1.96-22.61-.07-.58.18-1.01.51-1.45,1.71-2.33,1.83-4.97.31-7.42ZM42.41,46.51c2.36-3.96,5.82-6.26,10.38-6.92,1.7-.24,2.08-.65,2.2-2.4.13-1.88.35-3.73,1.08-5.49.79-1.89,1.96-3.44,3.91-4.26,2.47-1.04,4.3.06,4.56,2.72.02.25,0,.49,0,.74-.14,2.55-.43,5.07-1.52,7.42-.7,1.51-.52,2.03.97,2.79,4.19,2.15,6.8,5.53,7.94,10.08.36,1.46.23,1.61-1.26,1.36-9.2-1.56-18.41-3.12-27.61-4.69-1.11-.19-1.22-.38-.64-1.36ZM70.47,82.26c-.53,2.88-1.34,5.71-1.96,8.57-.86,3.97-3.39,6.05-7.17,6.87-2.67.58-5.38.87-8.27.88-6.15-.04-12.09-1.57-17.68-4.46-4.1-2.12-5.47-4.65-4.98-9.12.14-1.3.41-2.58.69-3.86,1.29-5.9,2.63-11.79,3.91-17.69.52-2.39,1.65-4.4,3.36-6.13.7-.71,1.45-.91,2.39-.75,6.31,1.08,12.62,2.15,18.94,3.22,3.52.6,7.05,1.19,10.57,1.8,1.5.26,1.56.4,1.69,1.91.53,6.34-.33,12.56-1.48,18.76ZM73.8,56.42c-.13.8-.26,1.6-.42,2.4-.19.95-.74,1.37-1.76,1.19-5.78-.99-11.57-1.95-17.36-2.93-4.77-.81-9.55-1.62-14.32-2.43-.96-.16-1.74-.49-1.57-1.71.12-.8.2-1.61.37-2.4.21-1.01.75-1.39,2-1.22,1.96.26,3.91.62,5.86.95,8.26,1.39,16.52,2.78,24.78,4.18.49.08.97.19,1.44.34.8.25,1.11.82.98,1.64Z"/>
        <path class="cls-1" d="M49.36,74.03c-1.11-.23-2.21-.47-3.32-.69-1.16-.23-1.37-.08-1.59,1.05-.24,1.21-.44,2.44-.76,3.63-.23.82.1,1.12.81,1.25,1.18.22,2.36.43,3.54.66.65.13,1.16.42,1.02,1.2-.14.77-.75.78-1.32.68-1.22-.2-2.45-.39-3.64-.7-.71-.18-.96.07-1.16.66-1.09,3.13-.91,3.47,2.32,4.29.82.21,1.64.44,2.44.7.58.18.91.58.69,1.21-.21.59-.66.64-1.21.5-2.05-.54-4.11-1.05-6.16-1.58-.72-.19-.92-.66-.78-1.37,1.4-6.88,2.79-13.77,4.2-20.66.21-1.05.72-1.43,1.72-1.23,2.11.43,4.21.9,6.32,1.35.69.15,1.28.4,1.07,1.25-.21.86-.9.75-1.55.62-1.56-.31-3.12-.61-4.67-.96-.77-.17-1.2-.03-1.31.85-.14,1.12-.38,2.23-.6,3.34-.16.83.19,1.29.98,1.45,1.07.23,2.15.45,3.22.66.57.12.88.43.82,1.03-.07.63-.48.81-1.07.81Z"/>
        <g>
          <path class="cls-1" d="M66.42,83.32c-.15-.07-.39-.13-.59-.27-.78-.54-1.56-1.1-2.32-1.67-.44-.33-.44-.77-.17-1.22.29-.5.67-.53,1.16-.29.97.46,1.79,1.13,2.56,1.85.32.3.39.65.16,1.05-.16.29-.36.53-.81.54Z"/>
          <path class="cls-1" d="M65.7,72.5c1.07.38,2.21,1.05,3.1,2.09.27.31.08.74-.22,1.05-.29.31-.64.35-.96.15-.93-.59-1.83-1.2-2.74-1.82-.34-.23-.4-.59-.25-.94.14-.35.42-.57,1.07-.53Z"/>
          <path class="cls-1" d="M68.94,68.55c-1.2-.33-2.21-1.08-3.03-2.08-.21-.26-.1-.61.1-.89.23-.34.61-.46.93-.31,1.06.47,2.12.96,2.82,1.96.22.32.28.66.09.99-.18.31-.51.35-.91.33Z"/>
          <path class="cls-1" d="M65.25,89.87c-.24.63-.62,1.11-1.27.81-.98-.47-1.87-1.11-2.71-1.82-.3-.25-.37-.59-.18-.95.2-.38.55-.66.94-.52,1.2.44,2.27,1.11,3.08,2.13.08.1.1.25.14.36Z"/>
          <path class="cls-1" d="M64.76,75.78c.76.01,2.81,1.6,3.02,2.34.1.34-.02.63-.24.88-.23.26-.51.32-.86.18-1.13-.45-1.99-1.22-2.67-2.18-.41-.59.03-1.23.74-1.21Z"/>
          <path class="cls-1" d="M65.19,86.8c-1.07-.34-2.05-.99-2.65-2.1-.15-.28-.13-.62.14-.87.27-.25.61-.47.95-.28.96.51,1.97.98,2.47,2.04.35.75,0,1.28-.91,1.21Z"/>
          <path class="cls-1" d="M66.12,68.86c.45-.02,2.96,1.68,3.11,2.09.12.35-.02.63-.24.87-.25.26-.54.49-.93.29-.96-.47-1.86-1.02-2.6-1.79-.26-.27-.31-.56-.15-.87.17-.32.4-.59.81-.6Z"/>
        </g>
      </g>
    </g>
  </g>
</svg>