<?xml version="1.0" encoding="UTF-8"?>
<svg id="Layer_2" data-name="Layer 2" xmlns="http://www.w3.org/2000/svg" viewBox="0 0 64 64">
  <defs>
    <style>
      .cls-1 {
        fill: #fefefe;
      }

      .cls-1, .cls-2, .cls-3, .cls-4, .cls-5, .cls-6, .cls-7, .cls-8, .cls-9, .cls-10, .cls-11, .cls-12, .cls-13, .cls-14, .cls-15, .cls-16, .cls-17, .cls-18, .cls-19 {
        stroke-width: 0px;
      }

      .cls-2 {
        fill: #f78ab7;
      }

      .cls-3 {
        fill: #feb4ba;
      }

      .cls-4 {
        fill: #afa1c8;
      }

      .cls-5 {
        fill: none;
      }

      .cls-6 {
        fill: #cb6870;
      }

      .cls-7 {
        fill: #fbc9b1;
      }

      .cls-8 {
        fill: #f5e5ba;
      }

      .cls-9 {
        fill: #ce987a;
      }

      .cls-10 {
        fill: #337c80;
      }

      .cls-11 {
        fill: #837996;
      }

      .cls-12 {
        fill: #fee5d7;
      }

      .cls-13 {
        fill: #f68cb6;
      }

      .cls-14 {
        fill: #c58562;
      }

      .cls-15 {
        fill: #fedbc7;
      }

      .cls-16 {
        fill: #ef6ea0;
      }

      .cls-17 {
        fill: #ba7253;
      }

      .cls-18 {
        fill: #cd9678;
      }

      .cls-19 {
        fill: #fe828c;
      }
    </style>
  </defs>
  <g id="icon-set">
    <g id="meet_up">
      <rect class="cls-5" width="64" height="64"/>
      <g id="shake_hands">
        <path class="cls-14" d="M17.12,53.92c-.31-1.05-.08-1.95.74-2.7.15-.14.35-.23.42-.44.68-.55,1.37-1.08,2.03-1.65,1.2-1.03,2.49-1.95,3.63-3.06.45-.44.53-1.07.2-1.45-.31-.35-1.05-.39-1.48-.03-1.51,1.24-3.02,2.49-4.51,3.76-.67.58-1.36,1.03-2.3.91-.27-.04-.53-.08-.8-.12-.34-.94-.09-1.76.48-2.52,2.5-2.11,5.02-4.21,7.51-6.33,1.2-1.03,2.47-1.98,3.6-3.09,1.45-1.08,2.78-2.3,4.1-3.54.36-.4.72-.35,1.14-.06.38.26.79.47,1.19.7,1.57.9,3.13,1.84,4.72,2.7,1.37.74,3.03.11,3.42-1.25.2-.16.22-.38.24-.62.14-1.3-.49-2.12-1.57-2.74-2.01-1.15-4-2.33-6-3.5,2.87-1.25,5.64-1.09,8.3.58.45.28.86.43,1.39.43,3.19-.02,6.37,0,9.56,0,0,4.72,0,9.45,0,14.17-.9,0-1.79.03-2.68,0-.54-.02-.96.13-1.34.5-.48.46-1,.88-1.5,1.31-.74-.36-1.24-1.03-1.91-1.49-.89-.6-1.79-.73-2.75-.15-.42.11-.64.44-.88.76-.58.79-.41,1.66-.25,2.52-.33.01-.5-.27-.73-.43-.9-.65-1.82-.76-2.79-.2-1.4.72-1.75,2.63-.71,3.78.17.18.32.38.48.57-.73-.21-1.45-.32-2.16.07-.64.26-1.02.76-1.25,1.38-.38,1-.02,1.86.52,2.69-.73-.27-1.45-.3-2.16.07-.62.21-.91.76-1.26,1.25-.77.63-1.59,1.2-2.31,1.89-.93.89-1.98,1.16-3.2.88-.32-.73-.04-1.43.09-2.14.51-.52,1.05-1,1.61-1.45.86-.69,1.7-1.41,2.53-2.13.27-.24.46-.53.34-.94-.26-.89-1.16-1.02-1.99-.3-1.4,1.21-2.83,2.39-4.23,3.6-.84.73-1.78,1.06-2.88.75-.04-.01-.1.06-.15.09-.39-.72-.1-1.43,0-2.15,0,0,0,0,0,0,.11.02.13-.05.13-.13.67-.83,1.56-1.43,2.36-2.12,1.04-.89,2.13-1.73,3.17-2.62.47-.4.5-1.03.14-1.46-.36-.43-1-.48-1.46-.09-1.84,1.53-3.71,3.02-5.48,4.63-.99.9-2.03,1.25-3.31.91Z"/>
        <path class="cls-15" d="M26.63,37.19c-1.14,1.11-2.4,2.07-3.6,3.09-2.49,2.12-5,4.22-7.51,6.33-.44-.82-1.03-1.56-1.41-2.41-.12-.27-.37-.22-.6-.22-.88,0-1.75,0-2.63,0,0-4.7,0-9.4,0-14.1,2.26,0,4.53-.08,6.79.02,2.4.11,4.69-.23,6.92-1.13,2.2-.89,4.34-.69,6.42.53,2.9,1.71,5.84,3.34,8.74,5.03.58.34,1.23.66,1.46,1.4-.39,1.36-2.05,1.99-3.42,1.25-1.59-.86-3.15-1.8-4.72-2.7-.4-.23-.81-.44-1.19-.7-.41-.28-.78-.34-1.14.06-.23-.03-.39.12-.57.22-2.22,1.27-4.57,1.74-7.09,1.15-.79-.19-1.21.03-1.36.73-.13.58.2,1,.9,1.18,1.32.34,2.67.3,4.01.25Z"/>
        <path class="cls-16" d="M59.18,44.07c-.09,1.09-.69,1.77-1.75,1.94-.76.12-1.52.15-2.28-.01,0-5.61,0-11.22,0-16.84,0-.83.44-1.27,1.26-1.28.92,0,1.84,0,2.76,0,0,0,0,.02,0,.02,0,.67,0,1.33,0,2,0,4.73,0,9.45,0,14.18Z"/>
        <path class="cls-16" d="M10.88,29.88c0,4.7,0,9.4,0,14.1-.11,1.21-.7,1.88-1.89,2.04-.72.1-1.45.13-2.16-.03,0-5.59,0-11.18,0-16.76,0-.95.41-1.35,1.37-1.36.88,0,1.76,0,2.64,0,0,0,.03-.01.03-.01,0,.67,0,1.34,0,2.02Z"/>
        <path class="cls-12" d="M10.88,29.88c0-.67,0-1.34,0-2.02,3.31,0,6.61.03,9.92-.01,1.03-.01,1.97-.51,2.92-.88,2.18-.84,4.35-1.15,6.55-.12.51.24,1,.51,1.49.77.65.52,1.39.89,2.12,1.26,2,1.17,3.99,2.35,6,3.5,1.08.61,1.71,1.44,1.57,2.74-.03.23-.04.46-.24.62-.23-.74-.87-1.06-1.46-1.4-2.9-1.69-5.84-3.32-8.74-5.03-2.07-1.22-4.21-1.42-6.42-.53-2.23.9-4.52,1.24-6.92,1.13-2.26-.11-4.52-.02-6.79-.02Z"/>
        <path class="cls-14" d="M59.18,44.07c0-4.73,0-9.45,0-14.18,1.33,0,2.66,0,3.99,0,0,4.59,0,9.17.03,13.76,0,.41-.21.42-.51.42-1.17,0-2.35,0-3.52,0Z"/>
        <path class="cls-15" d="M4.81,43.99c-1.13,0-2.26-.02-3.39,0-.45,0-.62-.09-.62-.59.02-4.51.02-9.01.02-13.52,1.34,0,2.67,0,4.01,0,0,4.7,0,9.4,0,14.1Z"/>
        <path class="cls-2" d="M4.81,43.99c0-4.7,0-9.4,0-14.1,0-.67,0-1.34,0-2.02.18-1.29.95-1.98,2.22-1.99.59,0,1.17-.01,1.76,0,1.19.03,2,.83,2.06,2-.88,0-1.76,0-2.64,0-.96,0-1.37.41-1.37,1.36,0,5.59,0,11.18,0,16.76-1.16-.03-1.87-.73-2.03-2.01Z"/>
        <path class="cls-13" d="M59.17,27.87c-.92,0-1.84,0-2.76,0-.82,0-1.26.46-1.26,1.28,0,5.61,0,11.22,0,16.84-1.14-.03-1.85-.71-2.02-1.93,0-4.72,0-9.45,0-14.17,0-.67,0-1.33,0-2,.12-1.24.91-1.99,2.13-2.01.61-.01,1.21-.01,1.82,0,1.19.03,1.98.79,2.09,1.99Z"/>
        <path class="cls-18" d="M53.13,27.89c0,.67,0,1.33,0,2-3.19,0-6.37-.01-9.56,0-.53,0-.94-.15-1.39-.43-2.65-1.67-5.43-1.82-8.3-.58-.74-.37-1.47-.75-2.12-1.26,1.36-.47,2.66-1.12,4.09-1.4,2.4-.46,4.61,0,6.62,1.39.28.19.54.28.87.28,3.27,0,6.53,0,9.8,0Z"/>
        <path class="cls-15" d="M38.29,46.88c.98-.56,1.9-.45,2.79.2.23.16.39.44.73.43,0,0,0,0,0,0-.05.14.05.21.13.28.17.24.39.42.62.6,1.26.99,2.52,2,3.78,3,.25.43.72.68.9,1.17.24.63.33,1.23,0,1.85-1.05.25-2,.12-2.85-.61-1.46-1.26-2.94-2.51-4.45-3.71-1.05-.84-1.82-1.77-1.64-3.21Z"/>
        <path class="cls-7" d="M38.29,46.88c-.17,1.44.59,2.37,1.64,3.21,1.51,1.2,2.99,2.45,4.45,3.71.86.74,1.8.87,2.85.61-.36,1.52-2.42,2.2-3.74,1.26-.4-.29-.69-.72-1.18-.88,0-.14-.11-.2-.2-.29-1.27-1.19-2.7-2.18-4.04-3.27-.16-.19-.31-.39-.48-.57-1.05-1.15-.69-3.06.71-3.78Z"/>
        <path class="cls-17" d="M17.12,53.92c1.28.33,2.31-.01,3.31-.91,1.77-1.61,3.64-3.1,5.48-4.63.46-.39,1.1-.33,1.46.09.36.43.33,1.06-.14,1.46-1.05.89-2.14,1.72-3.17,2.62-.8.69-1.69,1.28-2.36,2.12-.08,0-.13.04-.13.13,0,0,0,0,0,0-.26.05-.41.27-.61.41-1.42.99-3.32.36-3.83-1.27Z"/>
        <path class="cls-15" d="M42.94,44.22c.95-.58,1.86-.44,2.75.15.67.45,1.17,1.13,1.91,1.49.42.61,1.09.94,1.57,1.49.64.73.72,1.53.45,2.42-1.28.33-2.37.06-3.3-.94-.51-.54-1.13-.98-1.73-1.44-1.04-.8-1.83-1.73-1.65-3.16Z"/>
        <path class="cls-15" d="M38.07,51.22c1.35,1.09,2.78,2.08,4.04,3.27.09.09.2.15.2.29.23.71.59,1.4.15,2.15-1.42.42-2.49-.17-3.48-1.12-.6-.58-1.24-1.12-1.9-1.61-1-.74-1.46-1.67-1.17-2.91.71-.39,1.44-.28,2.16-.07Z"/>
        <path class="cls-17" d="M21.55,56.94c.05-.03.11-.1.15-.09,1.11.31,2.04-.03,2.88-.75,1.4-1.21,2.83-2.39,4.23-3.6.83-.72,1.73-.59,1.99.3.12.41-.06.7-.34.94-.83.72-1.67,1.44-2.53,2.13-.57.46-1.11.93-1.61,1.45-.6.36-1.04.94-1.76,1.14-1.27.35-2.54-.27-3.02-1.52Z"/>
        <path class="cls-17" d="M15.04,49.14c.27.04.53.08.8.12.94.13,1.63-.33,2.3-.91,1.49-1.27,3-2.52,4.51-3.76.43-.35,1.18-.32,1.48.03.33.38.25,1.01-.2,1.45-1.13,1.11-2.43,2.03-3.63,3.06-.66.57-1.35,1.1-2.03,1.65-.43-.07-.85.13-1.3.02-.95-.22-1.6-.74-1.93-1.66Z"/>
        <path class="cls-7" d="M42.94,44.22c-.18,1.44.61,2.36,1.65,3.16.59.46,1.22.9,1.73,1.44.93,1,2.01,1.28,3.3.94-.42,1.26-1.58,1.94-2.85,1.67-.14-.03-.29-.03-.43-.05-1.26-1-2.51-2.01-3.78-3-.23-.18-.45-.36-.62-.6,0-.11,0-.23-.13-.28,0,0,0,0,0,0-.15-.87-.33-1.74.25-2.52.23-.32.46-.65.88-.76Z"/>
        <path class="cls-7" d="M35.9,51.29c-.29,1.24.18,2.17,1.17,2.91.66.5,1.31,1.03,1.9,1.61.99.96,2.06,1.54,3.48,1.12-.45,1.66-2.57,2.25-3.99,1.11-.17-.14-.29-.36-.56-.36,0,0,0,0,0,0l-.13-.15c0-.19-.15-.27-.27-.38-.74-.66-1.52-1.25-2.34-1.8-.54-.82-.9-1.69-.52-2.69.24-.62.61-1.13,1.25-1.38Z"/>
        <path class="cls-15" d="M35.17,55.36c.82.55,1.6,1.15,2.34,1.8.13.11.27.19.27.38.04.05.09.1.13.15,0,0,0,0,0,0,.19.66.44,1.32.13,2.02-1.12.39-2.12.22-2.98-.64-.26-.26-.57-.49-.87-.72-1-.73-1.5-1.65-1.18-2.91.71-.37,1.43-.35,2.16-.07Z"/>
        <path class="cls-7" d="M33.01,55.43c-.32,1.26.18,2.18,1.18,2.91.3.22.6.45.87.72.86.86,1.86,1.03,2.98.64-.41,1.78-2.67,2.35-4.16,1.06-.63-.55-1.27-1.07-1.91-1.6-.32-.8-.48-1.62-.22-2.47.35-.49.63-1.04,1.26-1.25Z"/>
        <path class="cls-17" d="M31.75,56.68c-.27.85-.11,1.67.22,2.47-.57.46-1.12.92-1.7,1.37-1.48,1.15-3.3.67-4.03-1.07,1.22.28,2.27,0,3.2-.88.72-.69,1.53-1.26,2.31-1.89Z"/>
        <path class="cls-12" d="M4.81,27.87c0,.67,0,1.34,0,2.02-1.34,0-2.67,0-4.01,0,0-.48.02-.96-.01-1.44-.03-.43.11-.59.56-.58,1.15.03,2.3,0,3.46,0Z"/>
        <path class="cls-9" d="M63.18,29.89c-1.33,0-2.66,0-3.99,0,0-.67,0-1.33,0-2,1.16,0,2.33.01,3.49,0,.38,0,.58.08.54.51-.04.5-.02,1-.03,1.49Z"/>
        <path class="cls-7" d="M26.63,37.19c-1.35.05-2.69.09-4.01-.25-.71-.18-1.03-.6-.9-1.18.16-.7.57-.92,1.36-.73,2.52.59,4.87.12,7.09-1.15.18-.1.34-.25.57-.22-1.32,1.24-2.65,2.45-4.1,3.54Z"/>
        <path class="cls-1" d="M21.55,54.8c0-.09.05-.12.13-.13,0,.08-.03.15-.13.13Z"/>
        <path class="cls-14" d="M41.81,47.5c.13.05.13.16.13.28-.09-.07-.18-.14-.13-.28Z"/>
        <path class="cls-1" d="M37.92,57.69s-.09-.1-.13-.15c.04.05.09.1.13.15Z"/>
      </g>
      <g id="milk_basket">
        <g id="bottles">
          <g>
            <path class="cls-3" d="M27.15,7.01c.1.8-.56,1.54-1.5,1.64s-1.76-.46-1.87-1.26.56-1.54,1.5-1.64,1.76.46,1.87,1.26Z"/>
            <path class="cls-10" d="M27.99,8.21c.08.62-.45,1.19-1.19,1.27l-2.06.23c-.73.08-1.4-.35-1.48-.97l-.02-.15c-.08-.62.45-1.19,1.19-1.27l2.06-.23c.73-.08,1.4.35,1.48.97l.02.15Z"/>
            <path class="cls-4" d="M30.32,20.44c.08.62-.3,1.17-.85,1.23l-4.04.46c-.54.06-1.05-.39-1.13-1.01l-1.44-11.28c-.08-.62.3-1.17.85-1.23l4.05-.46c.54-.06,1.05.39,1.13,1.01l1.44,11.28h0Z"/>
            <path class="cls-11" d="M23.83,8.61c-.1,0-.34.02-.56.17-.27.18-.35.44-.38.56-.08.25-.04.47-.02.59l1.41,11.2c.01.1.04.26.14.43.06.11.2.36.51.49.27.12.53.09.64.06l-1.73-13.5h0Z"/>
            <path class="cls-3" d="M26.14,5.85c.05.4-.25.76-.68.81h0c-.42.05-.81-.24-.86-.64l-.14-1.09c-.05-.4.25-.76.68-.81h0c.42-.05.81.24.86.64l.14,1.09h0Z"/>
            <polygon class="cls-8" points="27.72 11.44 29.14 11.28 29.17 11.51 27.74 11.67 27.72 11.44"/>
            <polygon class="cls-8" points="27.94 13.16 29.36 13 29.39 13.22 27.96 13.38 27.94 13.16"/>
            <polygon class="cls-8" points="28.13 14.65 29.55 14.49 29.58 14.71 28.15 14.87 28.13 14.65"/>
            <polygon class="cls-8" points="28.34 16.36 29.77 16.2 29.8 16.42 28.37 16.58 28.34 16.36"/>
            <polygon class="cls-8" points="28.48 17.44 29.91 17.27 29.94 17.5 28.51 17.66 28.48 17.44"/>
            <polygon class="cls-8" points="28.7 19.15 30.13 18.99 30.16 19.21 28.73 19.38 28.7 19.15"/>
          </g>
          <g>
            <path class="cls-3" d="M34.28,7.05c0,.81-.74,1.47-1.68,1.47s-1.7-.64-1.7-1.45.74-1.47,1.68-1.47,1.7.64,1.7,1.45Z"/>
            <path class="cls-10" d="M34.97,8.33c0,.62-.59,1.13-1.33,1.14h-2.07c-.74.02-1.35-.48-1.35-1.1v-.15c0-.62.59-1.13,1.33-1.14h2.07c.74-.02,1.35.48,1.35,1.1v.15Z"/>
            <path class="cls-4" d="M35.82,20.73c0,.62-.44,1.13-.99,1.13l-4.07.03c-.55,0-1-.5-1-1.12l-.09-11.36c0-.62.44-1.13.99-1.13l4.08-.03c.55,0,1,.5,1,1.12l.09,11.36h0Z"/>
            <path class="cls-11" d="M30.79,8.28c-.1,0-.34-.02-.58.11-.29.15-.4.4-.45.51-.1.24-.1.46-.09.59l.07,11.28c0,.1,0,.26.08.44.05.11.16.37.45.54.26.15.51.14.62.13l-.11-13.6h0Z"/>
            <path class="cls-3" d="M33.41,5.79c0,.4-.34.73-.77.74h0c-.43,0-.78-.32-.78-.73v-1.1c-.01-.4.33-.73.76-.74h0c.43,0,.78.32.78.73v1.1s0,0,0,0Z"/>
            <rect class="cls-8" x="34.32" y="11.51" width="1.44" height=".23" transform="translate(-.08 .24) rotate(-.39)"/>
            <rect class="cls-8" x="34.33" y="13.24" width="1.44" height=".23" transform="translate(-.09 .24) rotate(-.39)"/>
            <rect class="cls-8" x="34.34" y="14.74" width="1.44" height=".23" transform="translate(-.1 .24) rotate(-.39)"/>
            <rect class="cls-8" x="34.35" y="16.46" width="1.44" height=".23" transform="translate(-.11 .24) rotate(-.39)"/>
            <rect class="cls-8" x="34.36" y="17.55" width="1.44" height=".23" transform="translate(-.12 .24) rotate(-.39)"/>
            <rect class="cls-8" x="34.38" y="19.27" width="1.44" height=".23" transform="translate(-.13 .24) rotate(-.39)"/>
          </g>
          <g>
            <path class="cls-3" d="M39.38,6.6c-.05.8-.84,1.42-1.78,1.37s-1.65-.75-1.6-1.55.84-1.42,1.78-1.37,1.65.75,1.6,1.55Z"/>
            <path class="cls-10" d="M39.99,7.91c-.04.62-.67,1.09-1.41,1.05l-2.07-.11c-.74-.04-1.31-.58-1.27-1.2v-.15c.05-.62.68-1.09,1.42-1.05l2.07.11c.74.04,1.31.58,1.27,1.2v.15Z"/>
            <path class="cls-4" d="M39.98,20.34c-.04.62-.52,1.1-1.06,1.07l-4.07-.22c-.55-.03-.96-.56-.92-1.18l.7-11.34c.04-.62.52-1.1,1.06-1.07l4.07.22c.55.03.96.56.92,1.18l-.7,11.34h0Z"/>
            <path class="cls-11" d="M35.82,7.61c-.1-.02-.34-.04-.59.07-.3.13-.43.38-.48.49-.12.23-.13.45-.13.58l-.71,11.26c0,.1-.01.26.05.44.04.12.13.38.41.57.25.16.5.17.61.17l.84-13.58h0Z"/>
            <path class="cls-3" d="M38.61,5.28c-.02.4-.39.71-.82.69h0c-.43-.02-.76-.37-.73-.77l.07-1.09c.02-.4.39-.71.82-.69h0c.43.02.76.37.73.77l-.07,1.1h0Z"/>
            <polygon class="cls-8" points="39.11 11.05 40.55 11.13 40.53 11.36 39.1 11.28 39.11 11.05"/>
            <polygon class="cls-8" points="39 12.78 40.44 12.86 40.43 13.08 38.99 13 39 12.78"/>
            <polygon class="cls-8" points="38.91 14.27 40.35 14.35 40.33 14.58 38.9 14.5 38.91 14.27"/>
            <polygon class="cls-8" points="38.81 15.99 40.24 16.07 40.23 16.29 38.79 16.22 38.81 15.99"/>
            <polygon class="cls-8" points="38.74 17.08 40.18 17.15 40.16 17.38 38.73 17.3 38.74 17.08"/>
            <polygon class="cls-8" points="38.63 18.8 40.07 18.88 40.06 19.1 38.62 19.03 38.63 18.8"/>
          </g>
        </g>
        <g id="basket">
          <rect class="cls-19" x="21.57" y="13.59" width="20.81" height="1.75"/>
          <polygon class="cls-19" points="39.76 23.3 24.2 23.3 22.67 15.34 41.29 15.34 39.76 23.3"/>
          <polygon class="cls-6" points="41.1 16.3 41.29 15.34 22.67 15.34 22.86 16.3 41.1 16.3"/>
          <path class="cls-4" d="M39.78,23.04l-8.46-7.96c-.36-.34-.36-.89,0-1.23h0c.36-.34.95-.34,1.31,0l8.46,7.96c.36.34.36.89,0,1.23h0c-.36.34-.95.34-1.31,0Z"/>
          <ellipse class="cls-11" cx="31.98" cy="14.47" rx=".42" ry=".4"/>
        </g>
      </g>
    </g>
  </g>
</svg>