<?xml version="1.0" encoding="UTF-8"?>
<svg id="Layer_2" data-name="Layer 2" xmlns="http://www.w3.org/2000/svg" viewBox="0 0 502.8 335.2">
  <defs>
    <style>
      .cls-1 {
        fill: #48adb2;
      }

      .cls-1, .cls-2, .cls-3, .cls-4, .cls-5, .cls-6, .cls-7, .cls-8, .cls-9, .cls-10, .cls-11, .cls-12, .cls-13, .cls-14, .cls-15, .cls-16, .cls-17, .cls-18, .cls-19 {
        stroke-width: 0px;
      }

      .cls-20 {
        stroke: #61bec8;
      }

      .cls-20, .cls-8, .cls-21, .cls-22 {
        fill: none;
      }

      .cls-20, .cls-23, .cls-21, .cls-22 {
        stroke-linecap: round;
        stroke-width: .75px;
      }

      .cls-20, .cls-23, .cls-22 {
        stroke-linejoin: round;
      }

      .cls-2 {
        fill: #e6e7e8;
      }

      .cls-3 {
        fill: #e0525f;
      }

      .cls-4 {
        fill: #ce4746;
      }

      .cls-5 {
        fill: #61bec8;
      }

      .cls-6 {
        fill: #b7b9bb;
      }

      .cls-7 {
        fill: #c27a68;
      }

      .cls-23, .cls-15 {
        fill: #433a65;
      }

      .cls-23, .cls-22 {
        stroke: #433a65;
      }

      .cls-9 {
        fill: #383938;
      }

      .cls-10 {
        fill: #fff;
      }

      .cls-11 {
        fill: #9c6a58;
      }

      .cls-12 {
        fill: #686969;
      }

      .cls-13 {
        fill: #fffaef;
      }

      .cls-14 {
        fill: #b7ddba;
      }

      .cls-16 {
        fill: #efa484;
      }

      .cls-17 {
        fill: #379c9c;
      }

      .cls-21 {
        stroke: #fff;
        stroke-miterlimit: 10;
      }

      .cls-18 {
        fill: #a3c7a5;
      }

      .cls-19 {
        fill: #fef3f4;
      }
    </style>
  </defs>
  <g id="Layer_5" data-name="Layer 5">
    <g>
      <g id="BACKGROUND">
        <rect class="cls-8" width="502.8" height="335.2"/>
        <path class="cls-6" d="M94.38,249.76h314.37c29.38,0,53.43-23.62,53.67-53,.18-22.95-7.75-49.12-36.71-69.3-65.67-45.77-122.08-5.58-207.11-70.12C140.86-1.67,16.35,54.7,41.47,205.07c4.31,25.82,26.74,44.7,52.91,44.7Z"/>
      </g>
      <g id="OBJECTS">
        <g id="HUMANITARIAN_TRUCK" data-name="HUMANITARIAN TRUCK">
          <g>
            <path class="cls-14" d="M374.3,137.18h-154.61c-2.84,0-5.13-2.3-5.13-5.13h0c0-2.84,2.3-5.13,5.13-5.13h154.61c2.84,0,5.13,2.3,5.13,5.13h0c0,2.84-2.3,5.13-5.13,5.13Z"/>
            <path class="cls-1" d="M286.84,116.92V52.89l-46.96,2.05c-7.46,15.39-9.95,28.64-9.95,28.64l-5.2,3.26-2.3,30.07h64.41Z"/>
            <path class="cls-2" d="M228.31,94.77v-3.07c0-1.42-1.15-2.56-2.56-2.56h-1.2l-.8,10.43c2.54-.13,4.56-2.23,4.56-4.8Z"/>
            <path class="cls-23" d="M241.65,57.62c-5.43,11.59-7.99,21.8-8.76,25.24h32.44v-26.28l-23.68,1.04Z"/>
            <path class="cls-17" d="M286.84,111.5h-64.57c-.84,0-1.53.68-1.53,1.53v2.37c0,.84.68,1.53,1.53,1.53h64.57v-5.42h0Z"/>
            <path class="cls-17" d="M231.76,116.92h38.49c0-10.61-8.63-19.25-19.25-19.25s-19.25,8.63-19.25,19.25Z"/>
            <path class="cls-22" d="M232.89,82.86c-2.32,9.87-2.16,28.64-2.16,28.64"/>
            <line class="cls-22" x1="265.33" y1="82.86" x2="265.33" y2="104.07"/>
            <path class="cls-22" d="M260.6,88.34h-3.87c-.3,0-.54-.24-.54-.54h0c0-.3.24-.54.54-.54h3.87c.3,0,.54.24.54.54h0c0,.3-.24.54-.54.54Z"/>
            <path class="cls-3" d="M376.37,111.5h-5.46v-9.7h3.16c1.27,0,2.3,1.03,2.3,2.3v7.4Z"/>
            <path class="cls-17" d="M376.37,111.5h-89.53v5.42h89.53c.84,0,1.53-.68,1.53-1.53v-2.37c0-.84-.68-1.53-1.53-1.53Z"/>
            <path class="cls-5" d="M374.21,111.5h-87.37v-58.91c0-3.7,3-6.71,6.71-6.71h65.58c6.81,0,12.42,5.36,12.72,12.17l2.36,53.45Z"/>
            <path class="cls-17" d="M346.93,41.41h-35.56c-1.47,0-2.76.98-3.15,2.4l-.57,2.07h42.99l-.57-2.07c-.39-1.42-1.68-2.4-3.15-2.4Z"/>
            <circle class="cls-9" cx="251.02" cy="116.92" r="15.12" transform="translate(46.94 304.08) rotate(-67.5)"/>
            <circle class="cls-10" cx="251.01" cy="116.9" r="11.13" transform="translate(-20.15 60.81) rotate(-13.29)"/>
            <path class="cls-12" d="M255.71,116.92c0-2.59-2.1-4.7-4.7-4.7s-4.7,2.1-4.7,4.7,2.1,4.7,4.7,4.7c2.59,0,4.7-2.1,4.7-4.7Z"/>
            <circle class="cls-9" cx="337.77" cy="116.92" r="15.12" transform="translate(100.49 384.23) rotate(-67.5)"/>
            <circle class="cls-10" cx="337.76" cy="116.92" r="11.13" transform="translate(16.25 273.08) rotate(-45)"/>
            <path class="cls-12" d="M342.46,116.92c0-2.59-2.1-4.7-4.7-4.7s-4.7,2.1-4.7,4.7,2.1,4.7,4.7,4.7c2.59,0,4.7-2.1,4.7-4.7Z"/>
            <g>
              <circle class="cls-1" cx="330.25" cy="78.41" r="17.19"/>
              <path class="cls-21" d="M332.23,93.47c-9.92,1.26-18.3-7.12-17.04-17.03.86-6.76,6.32-12.22,13.08-13.08,9.92-1.26,18.3,7.12,17.04,17.03-.86,6.76-6.32,12.22-13.08,13.08Z"/>
              <g id="logo-icon-transparent">
                <g>
                  <rect class="cls-8" x="314.2" y="62.14" width="31.23" height="31.23"/>
                  <g>
                    <path class="cls-19" d="M335.23,75.6c-.06-.09-.1-.19-.12-.3-.18-1.29-.85-2.25-1.94-2.92-.17-.1-.23-.31-.16-.49.26-.63.32-1.28.27-1.95-.04-.61-.43-1.03-1.01-1.05-.42-.02-.79.13-1.11.39-.63.53-.87,1.24-.95,2.03-.03.32-.28.55-.59.62-1.07.25-1.86.87-2.4,1.82-.14.24-.26.47-.56.53-.05.01-.11.06-.13.1-.22.48-.42.96-.19,1.49.09.2.05.31-.1.44-.42.37-.64.91-.76,1.46-.33,1.54-.67,3.08-1,4.62-.1.48-.21.97-.13,1.47.13.79.64,1.28,1.31,1.65,1.45.79,3,1.15,4.7,1.16.49.03,1.02-.05,1.55-.12,1.07-.14,1.98-.88,2.31-1.92.16-.51.25-1.04.36-1.56.37-1.76.67-3.54.46-5.35-.01-.11.02-.22.09-.31.43-.56.47-1.2.1-1.79h0ZM327.64,73.92c.55-.93,1.36-1.47,2.43-1.64.29-.04.53-.27.55-.56.03-.45.08-.89.26-1.31.19-.45.46-.81.93-1.01.59-.25,1.02.01,1.08.64,0,.06,0,.12,0,.18-.03.61-.1,1.21-.37,1.77-.12.25,0,.53.25.65.99.51,1.6,1.31,1.87,2.38.05.21-.09.35-.3.32-2.18-.37-4.36-.74-6.53-1.11-.16-.03-.24-.18-.15-.32ZM334.28,82.38c-.13.68-.32,1.35-.46,2.03-.2.94-.8,1.43-1.7,1.63-.63.14-1.27.21-1.96.21-1.45-.01-2.86-.37-4.18-1.06-.97-.5-1.29-1.1-1.18-2.16.03-.31.1-.61.16-.91.31-1.4.62-2.79.92-4.19.12-.57.4-1.05.81-1.47.14-.14.36-.2.55-.17,1.49.26,2.99.51,4.48.76.83.14,1.67.28,2.5.42.21.04.38.21.4.42.13,1.51-.07,2.99-.35,4.47h0ZM335.06,76.26c-.03.19-.06.38-.1.57-.05.23-.18.32-.41.28-1.37-.23-2.74-.46-4.11-.69-1.13-.19-2.26-.38-3.39-.57-.23-.04-.41-.12-.37-.4.03-.19.05-.38.09-.57.05-.24.18-.33.47-.29.46.06.93.14,1.39.22,1.95.33,3.91.66,5.86.99.11.02.23.05.34.08.19.06.26.2.23.39h0Z"/>
                    <path class="cls-19" d="M329.28,80.43c-.26-.05-.52-.11-.78-.16-.27-.06-.33-.02-.38.25-.06.29-.1.58-.18.86-.05.19.02.26.19.3.28.05.56.1.84.16.16.03.27.1.24.28-.03.18-.18.18-.31.16-.29-.05-.58-.09-.86-.17-.17-.04-.23.02-.27.16-.26.74-.21.82.55,1.01.19.05.39.1.58.17.14.04.22.14.16.29-.05.14-.16.15-.29.12-.49-.13-.97-.25-1.46-.37-.13-.03-.22-.17-.19-.3.33-1.64.66-3.27,1-4.91.05-.25.17-.34.41-.29.5.1,1,.21,1.5.32.16.04.3.09.25.3-.05.2-.21.18-.37.14-.37-.07-.74-.14-1.11-.23-.18-.04-.28,0-.31.2-.03.26-.09.53-.14.79-.04.2.05.31.23.34.25.05.51.1.76.16.13.03.21.1.19.24-.02.15-.11.19-.25.19h0Z"/>
                    <g>
                      <path class="cls-19" d="M333.32,82.63s-.09-.03-.14-.06c-.19-.13-.37-.26-.55-.39-.1-.08-.1-.18-.04-.29.07-.12.16-.12.27-.07.23.11.42.27.61.44.08.07.09.16.04.25-.04.07-.08.12-.19.13h0Z"/>
                      <path class="cls-19" d="M333.15,80.07c.25.09.52.25.73.49.06.07.02.18-.05.25s-.15.08-.23.04c-.22-.14-.43-.28-.65-.43-.08-.06-.09-.14-.06-.22.03-.08.1-.13.25-.12Z"/>
                      <path class="cls-19" d="M333.92,79.13c-.28-.08-.52-.25-.72-.49-.05-.06-.02-.14.02-.21.06-.08.14-.11.22-.07.25.11.5.23.67.47.05.07.07.16.02.24-.04.07-.12.08-.22.08Z"/>
                      <path class="cls-19" d="M333.04,84.18c-.06.15-.14.26-.3.19-.23-.11-.44-.26-.64-.43-.07-.06-.09-.14-.04-.23.05-.09.13-.16.22-.12.28.1.54.26.73.5.02.03.02.06.03.08h0Z"/>
                      <path class="cls-19" d="M332.93,80.84c.18,0,.66.38.71.55.02.08,0,.15-.06.21-.06.06-.12.08-.2.04-.27-.1-.47-.29-.63-.52-.1-.14,0-.29.18-.29Z"/>
                      <path class="cls-19" d="M333.03,83.45c-.25-.08-.49-.23-.63-.5-.04-.07-.03-.15.03-.21.06-.06.14-.11.23-.07.23.12.47.23.58.48.08.18,0,.3-.22.29h0Z"/>
                      <path class="cls-19" d="M333.25,79.21c.11,0,.7.4.74.5.03.08,0,.15-.06.21-.06.06-.13.11-.22.07-.23-.11-.44-.24-.62-.42-.06-.06-.07-.13-.04-.21.04-.08.09-.14.19-.14h0Z"/>
                    </g>
                  </g>
                </g>
              </g>
            </g>
          </g>
        </g>
        <g id="VOLUNTARY_02" data-name="VOLUNTARY 02">
          <path class="cls-18" d="M398.52,290.23h-43.86c-5.63,0-10.2-4.57-10.2-10.2h0c0-5.63,4.57-10.2,10.2-10.2h43.86c5.63,0,10.2,4.57,10.2,10.2h0c0,5.63-4.57,10.2-10.2,10.2Z"/>
          <g>
            <path class="cls-15" d="M377.18,169.65l-.08-.06-.5.03-.5-.03-.08.06-18.58,1.04s.51,36.6,4.97,80.67l5.67,5.01,4.69-5.49c.68-20.78,1.89-48.92,3.83-69.91,1.94,20.99,3.14,49.13,3.83,69.91l4.69,5.49,5.67-5.01c4.47-44.07,4.97-80.67,4.97-80.67l-18.58-1.04Z"/>
            <path class="cls-13" d="M385.19,172.48c13.77-2.53,1.02-40.73,1.02-40.73l-3.47-16.07h0c-1.91-.52-4.01-.78-6.31-.74-2.1.04-4.09.37-5.97.93h0l-4.35,19.74,1.14,36.86s8.95,1.65,17.93,0Z"/>
            <path class="cls-11" d="M382.46,115.62c-1.84-.47-3.84-.72-6.03-.67-1.89.04-3.69.32-5.4.78.28,1.56,1.38,4.89,5.56,5.28,4.53.43,5.33-3.34,5.87-5.4Z"/>
            <path class="cls-15" d="M365.92,93.86c-2.2-4.28-2.49-9.6,5.26-12.79,7.75-3.18,14.52,4.57,14.52,4.57,0,0,7.19.05,6.88,7.69-.46,11.63-12.44,16.08-12.44,16.08l-14.23-15.56Z"/>
            <circle class="cls-15" cx="391.04" cy="84.81" r="6.7" transform="translate(54.56 301.35) rotate(-45)"/>
            <path class="cls-4" d="M362.4,251.36c.77,7.55,1.65,15.33,2.66,23.17l-6.77,4.69h13.71s.22-11.86.76-28.34l-10.37.48Z"/>
            <path class="cls-4" d="M390.79,251.36c-.77,7.55-1.65,15.33-2.66,23.17l6.77,4.69h-13.71s-.22-11.86-.76-28.34l10.37.48Z"/>
            <path class="cls-2" d="M356.5,158.94l-2.66,17.93c9.37,2.55,15.16,1.56,15.16,1.56l.58-23.22s.52-26.13.89-39.34c-4.05,1.21-7.58,3.51-10.61,6.45-.79,10.15-2.39,30.08-3.36,36.61Z"/>
            <path class="cls-2" d="M396.32,152.06s-.84-15.02-2.99-29.64c-2.84-3.08-6.24-5.56-10.59-6.74l-.44,38.58-.35,24.81c10.41,1.62,16.43-2.2,16.43-2.2l-2.06-24.82Z"/>
            <path class="cls-1" d="M363.11,138.24l3.79,25.45c.17,1.16,1.25,1.97,2.41,1.81l14.75-2.02c1.18-.16,2-1.25,1.83-2.43l-3.63-25.58c-.17-1.18-1.26-1.99-2.43-1.82l-14.91,2.16c-1.18.17-1.99,1.26-1.81,2.44Z"/>
            <path class="cls-2" d="M346.06,155.38l10.44,3.56,5.65-11.73-2.3-24.88h0c-9.63,9.36-14.15,25.21-13.8,33.06Z"/>
            <path class="cls-2" d="M375.79,157.83l1.62-4.29-3.44-1.73h0c-1.83.48-5.34.97-11.58.49-10.47-.81-16.34,3.1-16.34,3.1-.15,2.14.17,5.2,1.91,6.6,5.68,4.56,17.53,1.74,22.04-1.13,2.01-1.28,4.09-2.29,5.79-3.03h0Z"/>
            <path class="cls-4" d="M385.56,148.21c-.98-1.21-3.89.91-3.89.91.95-.87,1.35-2.5.2-3.02-.72-.32-1.4,1.65-3.31,2.3-1.91.65-2.88,2.76-2.88,2.76,0,0-.46.32-1.7.64.37,1.69.98,4.04,1.82,6.02,2.11-.92,3.62-1.4,3.62-1.4,0,0,3.1.43,4.93-.4,1.82-.84,1.54-2.55,1.59-3.76.06-1.22.77-2.62-.38-4.05Z"/>
            <path class="cls-2" d="M441.6,132.91c-.95-.74-2.69,2.25-2.69,2.25,0,0,2.86-5.85,1.65-6.2-1.21-.35-3.51,5.77-3.51,5.77,0,0,2.47-7.55,1.04-7.77-1.43-.22-2.95,7.03-2.95,7.03,0,0,1.13-7.94,0-7.98s-2.73,7.68-2.73,7.68c0,0-1.56-3.34-2.65-3.04-1.08.3,1,7.81,1,7.81,0,0-8.99,11.1-17.69,8.87h0c-.97-.25-1.93-.66-2.88-1.27-6.06-3.91-9.59-15.75-16.85-23.64l-4.9,24.79,8.18,8.37-.29-3.51c2.95,2.33,7.23,4.57,13.2,5.39,1.54.21,3.18.33,4.95.33,18.17,0,21.93-17.02,21.93-17.02,2.39-1.04,6.16-7.11,5.21-7.85Z"/>
            <path class="cls-11" d="M372.7,117v-9.31s-5.16.64-7.42-4.34c-2.26-4.98.64-9.49.64-9.49,0,0,2.68-.46,5.34-3.56,0,0,1.57,4.97,6.34,6.74,0,0,0,6.54,1.33,6.65,1.33.12,1.22-6.02,1.22-6.02,0,0,2.14-2.89,4.11,0s-3.59,6.83-3.59,6.83l.27,12.29s-3.6,2.2-8.24.2Z"/>
            <path class="cls-7" d="M376.59,101.82c0-1.04-.84-1.88-1.88-1.88s-1.88.84-1.88,1.88.84,1.88,1.88,1.88,1.88-.84,1.88-1.88Z"/>
            <g>
              <path class="cls-22" d="M369.94,96.03s-1.71,1.48-1.27,2.05c.43.58,1.82,0,1.82,0"/>
              <path class="cls-22" d="M366.12,95.57s1.21-2.09,2.48.26"/>
              <path class="cls-22" d="M371.94,96.03s1.5-1.62,3.12.55"/>
              <path class="cls-22" d="M367.84,100.37s1.12,1.06,3.11.59"/>
              <line class="cls-22" x1="381.52" y1="98.82" x2="383.48" y2="98.82"/>
            </g>
            <path class="cls-7" d="M364.43,99.65c.03,1.12.26,2.33.8,3.57.63-.3,1.07-.94,1.07-1.69,0-1.04-.84-1.87-1.87-1.88Z"/>
            <g>
              <path class="cls-5" d="M364.5,98.23c1.47.49,5.51,1.6,10.05.97,0,0-.45,4.94.94,7.96,0,0-5.16,2.52-9.19-.76-3.15-2.56-2.84-6.24-2.56-7.72.07-.35.42-.56.75-.45Z"/>
              <line class="cls-20" x1="380.15" y1="97.68" x2="373.64" y2="99.65"/>
              <line class="cls-20" x1="380.67" y1="104.51" x2="374.94" y2="107.15"/>
              <path class="cls-22" d="M374.21,107.63c-1.79.53-5.12,1.04-7.91-1.24-3.15-2.56-2.84-6.24-2.56-7.72"/>
            </g>
            <path class="cls-4" d="M441.6,132.91c-.95-.74-2.69,2.25-2.69,2.25,0,0,2.86-5.85,1.65-6.2-1.21-.35-3.51,5.77-3.51,5.77,0,0,2.47-7.55,1.04-7.77-1.43-.22-2.95,7.03-2.95,7.03,0,0,1.13-7.94,0-7.98s-2.73,7.68-2.73,7.68c0,0-1.56-3.34-2.65-3.04-1.08.3,1,7.81,1,7.81,0,0-.65.8-1.77,1.93l6,4.29c1.05-2.27,1.41-3.91,1.41-3.91,2.39-1.04,6.16-7.12,5.21-7.85Z"/>
            <path class="cls-22" d="M371.75,152.22c-2.05.27-5.05.4-9.35.07-1.23-.1-2.4-.13-3.5-.1,1.37-4.05,3.25-11.88,3.25-11.88"/>
          </g>
        </g>
        <g id="BOXES">
          <path class="cls-18" d="M370.59,304.24h-215.21c-5.63,0-10.2-4.57-10.2-10.2h0c0-5.63,4.57-10.2,10.2-10.2h215.21c5.63,0,10.2,4.57,10.2,10.2h0c0,5.63-4.57,10.2-10.2,10.2Z"/>
          <g>
            <rect class="cls-5" x="163.35" y="227.66" width="27.19" height="63.21"/>
            <rect class="cls-1" x="163.35" y="219.29" width="27.19" height="8.37"/>
            <rect class="cls-17" x="190.54" y="219.29" width="40.32" height="8.37"/>
            <rect class="cls-1" x="190.54" y="227.66" width="40.32" height="63.21"/>
            <g>
              <ellipse class="cls-1" cx="176.94" cy="259.29" rx="7.46" ry="17.19"/>
              <path class="cls-21" d="M176.94,274.47c-3.63,0-6.59-6.81-6.59-15.18s2.96-15.18,6.59-15.18,6.59,6.81,6.59,15.18-2.96,15.18-6.59,15.18Z"/>
              <g id="logo-icon-transparent-2" data-name="logo-icon-transparent">
                <g>
                  <rect class="cls-8" x="169.97" y="243.02" width="13.56" height="31.23"/>
                  <g>
                    <path class="cls-19" d="M179.1,256.48c-.03-.09-.05-.19-.05-.3-.08-1.29-.37-2.25-.84-2.93-.09-.12-.11-.25-.07-.47.11-.63.14-1.29.12-1.97-.02-.61-.19-1.03-.44-1.05-.18-.02-.34.13-.48.39-.27.52-.38,1.23-.41,2.01-.02.46-.04.53-.24.63-.47.24-.82.87-1.06,1.82-.06.24-.11.47-.25.53-.02.01-.05.06-.06.1-.1.48-.18.96-.08,1.49.04.19.02.3-.04.43-.17.36-.27.82-.32,1.34-.15,1.58-.3,3.17-.45,4.75-.05.48-.09.97-.06,1.47.06.79.28,1.28.57,1.65.63.79,1.3,1.15,2.04,1.16.21.03.44-.05.67-.12.52-.17.85-.81,1.01-1.97.07-.5.1-1.01.15-1.52.16-1.77.29-3.54.2-5.35,0-.14.02-.24.05-.34.18-.55.19-1.18.03-1.76h0ZM175.81,254.79c.24-.94.6-1.48,1.07-1.64.17-.06.21-.15.23-.57.01-.44.04-.88.11-1.3.08-.45.2-.81.4-1.01.25-.25.44.01.47.64,0,.06,0,.12,0,.18-.01.6-.04,1.2-.16,1.76-.07.36-.05.48.1.66.43.51.7,1.31.82,2.38.04.35.02.38-.13.32-.95-.37-1.89-.74-2.84-1.11-.11-.05-.13-.09-.07-.32ZM178.69,263.26c-.06.68-.14,1.35-.2,2.03-.09.94-.35,1.43-.74,1.63-.27.14-.55.21-.85.21-.63-.01-1.24-.37-1.82-1.06-.42-.5-.56-1.1-.51-2.16.01-.31.04-.61.07-.91.13-1.4.27-2.79.4-4.19.05-.57.17-1.04.35-1.45.07-.17.15-.22.25-.18.65.26,1.3.51,1.94.76.36.14.72.28,1.09.42.15.06.16.09.17.45.06,1.5-.03,2.97-.15,4.44h0ZM179.03,257.14c-.01.19-.03.38-.04.57-.02.23-.08.32-.18.28-.59-.23-1.19-.46-1.78-.69-.49-.19-.98-.38-1.47-.57-.1-.04-.18-.12-.16-.4.01-.19.02-.38.04-.57.02-.24.08-.33.21-.29.2.06.4.14.6.22.85.33,1.7.66,2.55.99.05.02.1.05.15.08.08.06.11.2.1.39h0Z"/>
                    <path class="cls-19" d="M176.52,261.31c-.11-.05-.23-.11-.34-.16-.12-.06-.14-.02-.16.25-.02.29-.04.58-.08.86-.02.19,0,.26.08.3.12.05.24.1.36.16.07.03.12.1.1.28-.01.18-.08.18-.14.16-.13-.05-.25-.09-.37-.17-.07-.04-.1.02-.12.16-.11.74-.09.82.24,1.01.08.05.17.1.25.17.06.04.09.14.07.29-.02.14-.07.15-.12.12-.21-.13-.42-.25-.63-.37-.07-.04-.09-.16-.08-.33.14-1.63.29-3.26.43-4.89.02-.25.07-.34.18-.29.22.1.43.21.65.32.07.04.13.09.11.3-.02.2-.09.18-.16.14-.16-.07-.32-.14-.48-.23-.08-.04-.12,0-.13.2-.01.26-.04.53-.06.79-.02.2.02.31.1.34.11.05.22.1.33.16.06.03.09.1.08.24,0,.15-.05.19-.11.19h0Z"/>
                    <g>
                      <path class="cls-19" d="M178.27,263.5s-.04-.03-.06-.06c-.08-.13-.16-.26-.24-.39-.05-.08-.05-.18-.02-.29.03-.12.07-.12.12-.07.1.11.18.27.26.44.03.07.04.16.02.25-.02.07-.04.12-.08.13h0Z"/>
                      <path class="cls-19" d="M178.2,260.95c.11.09.23.25.32.49.03.07,0,.18-.02.25s-.07.08-.1.04c-.09-.14-.19-.28-.28-.43-.04-.06-.04-.14-.03-.22.01-.08.04-.13.11-.12Z"/>
                      <path class="cls-19" d="M178.53,260.01c-.12-.08-.23-.25-.31-.49-.02-.06,0-.14,0-.21.02-.08.06-.11.1-.07.11.11.22.23.29.47.02.07.03.16,0,.24-.02.07-.05.08-.09.08Z"/>
                      <path class="cls-19" d="M178.15,265.06c-.02.15-.06.26-.13.19-.1-.11-.19-.26-.28-.43-.03-.06-.04-.14-.02-.23.02-.09.06-.16.1-.12.12.1.23.26.32.5,0,.03,0,.06.01.08h0Z"/>
                      <path class="cls-19" d="M178.1,261.72c.08,0,.29.38.31.55,0,.08,0,.15-.02.21-.02.06-.05.08-.09.04-.12-.1-.2-.29-.27-.52-.04-.14,0-.29.08-.29Z"/>
                      <path class="cls-19" d="M178.15,264.33c-.11-.08-.21-.23-.27-.5-.02-.07-.01-.15.01-.21.03-.06.06-.11.1-.07.1.12.2.23.25.48.04.18,0,.3-.09.29h0Z"/>
                      <path class="cls-19" d="M178.24,260.09s.3.4.32.5c.01.08,0,.15-.03.21-.03.06-.06.11-.09.07-.1-.11-.19-.24-.27-.42-.03-.06-.03-.13-.02-.21.02-.08.04-.14.08-.14h0Z"/>
                    </g>
                  </g>
                </g>
              </g>
            </g>
          </g>
          <g>
            <rect class="cls-5" x="207.57" y="156.08" width="15.01" height="63.21"/>
            <rect class="cls-1" x="207.57" y="147.72" width="15.01" height="8.37"/>
            <rect class="cls-17" x="222.58" y="147.72" width="50.07" height="8.37"/>
            <rect class="cls-1" x="222.58" y="156.08" width="50.07" height="63.21"/>
            <g>
              <ellipse class="cls-1" cx="215.33" cy="187.53" rx="3.87" ry="17.19"/>
              <path class="cls-21" d="M215.33,202.72c-1.88,0-3.42-6.81-3.42-15.18s1.53-15.18,3.42-15.18,3.42,6.81,3.42,15.18-1.53,15.18-3.42,15.18Z"/>
              <g id="logo-icon-transparent-3" data-name="logo-icon-transparent">
                <g>
                  <rect class="cls-8" x="211.72" y="171.26" width="7.03" height="31.23"/>
                  <g>
                    <path class="cls-19" d="M216.45,184.73c-.01-.09-.02-.19-.03-.3-.04-1.29-.19-2.25-.44-2.93-.05-.12-.06-.25-.04-.47.06-.63.07-1.29.06-1.97,0-.61-.1-1.03-.23-1.05-.09-.02-.18.13-.25.39-.14.52-.19,1.23-.21,2.01-.01.46-.02.53-.13.63-.24.24-.42.87-.55,1.82-.03.24-.06.47-.13.53-.01.01-.03.06-.03.1-.05.48-.09.96-.04,1.49.02.19.01.3-.02.43-.09.36-.14.82-.17,1.34-.08,1.58-.15,3.17-.23,4.75-.02.48-.05.97-.03,1.47.03.79.14,1.28.29,1.65.33.79.68,1.15,1.06,1.16.11.03.23-.05.35-.12.27-.17.44-.81.52-1.97.03-.5.05-1.01.08-1.52.08-1.77.15-3.54.1-5.35,0-.14,0-.24.03-.34.09-.55.1-1.18.02-1.76h0ZM214.74,183.04c.13-.94.31-1.48.55-1.64.09-.06.11-.15.12-.57,0-.44.02-.88.06-1.3.04-.45.1-.81.21-1.01.13-.25.23.01.24.64,0,.06,0,.12,0,.18,0,.6-.02,1.2-.08,1.76-.04.36-.03.48.05.66.22.51.36,1.31.42,2.38.02.35.01.38-.07.32-.49-.37-.98-.74-1.47-1.11-.06-.05-.07-.09-.03-.32ZM216.24,191.5c-.03.68-.07,1.35-.1,2.03-.05.94-.18,1.43-.38,1.63-.14.14-.29.21-.44.21-.33-.01-.64-.37-.94-1.06-.22-.5-.29-1.1-.26-2.16,0-.31.02-.61.04-.91.07-1.4.14-2.79.21-4.19.03-.57.09-1.04.18-1.45.04-.17.08-.22.13-.18.34.26.67.51,1.01.76.19.14.38.28.56.42.08.06.08.09.09.45.03,1.5-.02,2.97-.08,4.44h0ZM216.41,185.38c0,.19-.01.38-.02.57-.01.23-.04.32-.09.28-.31-.23-.62-.46-.92-.69-.25-.19-.51-.38-.76-.57-.05-.04-.09-.12-.08-.4,0-.19.01-.38.02-.57.01-.24.04-.33.11-.29.1.06.21.14.31.22.44.33.88.66,1.32.99.03.02.05.05.08.08.04.06.06.2.05.39h0Z"/>
                    <path class="cls-19" d="M215.11,189.55c-.06-.05-.12-.11-.18-.16-.06-.06-.07-.02-.08.25-.01.29-.02.58-.04.86-.01.19,0,.26.04.3.06.05.13.1.19.16.03.03.06.1.05.28,0,.18-.04.18-.07.16-.07-.05-.13-.09-.19-.17-.04-.04-.05.02-.06.16-.06.74-.05.82.12,1.01.04.05.09.1.13.17.03.04.05.14.04.29-.01.14-.04.15-.06.12-.11-.13-.22-.25-.33-.37-.04-.04-.05-.16-.04-.33.07-1.63.15-3.26.22-4.89.01-.25.04-.34.09-.29.11.1.22.21.34.32.04.04.07.09.06.3-.01.2-.05.18-.08.14-.08-.07-.17-.14-.25-.23-.04-.04-.06,0-.07.2,0,.26-.02.53-.03.79,0,.2.01.31.05.34.06.05.11.1.17.16.03.03.05.1.04.24,0,.15-.03.19-.06.19h0Z"/>
                    <g>
                      <path class="cls-19" d="M216.02,191.75s-.02-.03-.03-.06c-.04-.13-.08-.26-.12-.39-.02-.08-.02-.18,0-.29.02-.12.04-.12.06-.07.05.11.09.27.14.44.02.07.02.16,0,.25,0,.07-.02.12-.04.13h0Z"/>
                      <path class="cls-19" d="M215.98,189.19c.06.09.12.25.16.49.01.07,0,.18-.01.25s-.03.08-.05.04c-.05-.14-.1-.28-.15-.43-.02-.06-.02-.14-.01-.22,0-.08.02-.13.06-.12Z"/>
                      <path class="cls-19" d="M216.15,188.25c-.06-.08-.12-.25-.16-.49-.01-.06,0-.14,0-.21.01-.08.03-.11.05-.07.06.11.11.23.15.47.01.07.01.16,0,.24,0,.07-.03.08-.05.08Z"/>
                      <path class="cls-19" d="M215.96,193.3c-.01.15-.03.26-.07.19-.05-.11-.1-.26-.14-.43-.02-.06-.02-.14,0-.23.01-.09.03-.16.05-.12.06.1.12.26.16.5,0,.03,0,.06,0,.08h0Z"/>
                      <path class="cls-19" d="M215.93,189.97s.15.38.16.55c0,.08,0,.15-.01.21-.01.06-.03.08-.05.04-.06-.1-.11-.29-.14-.52-.02-.14,0-.29.04-.29Z"/>
                      <path class="cls-19" d="M215.95,192.58c-.06-.08-.11-.23-.14-.5,0-.07,0-.15,0-.21.01-.06.03-.11.05-.07.05.12.1.23.13.48.02.18,0,.3-.05.29h0Z"/>
                      <path class="cls-19" d="M216,188.33s.16.4.17.5c0,.08,0,.15-.01.21-.01.06-.03.11-.05.07-.05-.11-.1-.24-.14-.42-.01-.06-.02-.13,0-.21,0-.08.02-.14.04-.14h0Z"/>
                    </g>
                  </g>
                </g>
              </g>
            </g>
          </g>
          <g>
            <rect class="cls-5" x="212.22" y="227.66" width="62.63" height="63.21"/>
            <rect class="cls-1" x="212.22" y="219.29" width="62.63" height="8.37"/>
            <rect class="cls-17" x="274.85" y="219.29" width="12.11" height="8.37"/>
            <rect class="cls-1" x="274.85" y="227.66" width="12.11" height="63.21"/>
            <g>
              <circle class="cls-1" cx="243.54" cy="258.93" r="17.19"/>
              <path class="cls-21" d="M243.54,274.11c-8.37,0-15.18-6.81-15.18-15.18s6.81-15.18,15.18-15.18,15.18,6.81,15.18,15.18-6.81,15.18-15.18,15.18Z"/>
              <g id="logo-icon-transparent-4" data-name="logo-icon-transparent">
                <g>
                  <rect class="cls-8" x="227.49" y="242.66" width="31.23" height="31.23"/>
                  <g>
                    <path class="cls-19" d="M248.52,256.12c-.06-.09-.1-.19-.12-.3-.18-1.29-.85-2.25-1.94-2.93-.2-.12-.25-.25-.16-.47.26-.63.33-1.29.28-1.97-.04-.61-.43-1.03-1.01-1.05-.42-.02-.79.13-1.11.39-.63.52-.86,1.23-.94,2.01-.05.46-.1.53-.56.63-1.08.24-1.88.87-2.43,1.82-.14.24-.26.47-.56.53-.05.01-.11.06-.13.1-.22.48-.42.96-.19,1.49.09.19.05.3-.09.43-.39.36-.63.82-.75,1.34-.34,1.58-.68,3.17-1.03,4.75-.1.48-.21.97-.13,1.47.13.79.64,1.28,1.31,1.65,1.45.79,3,1.15,4.7,1.16.49.03,1.02-.05,1.55-.12,1.19-.17,1.97-.81,2.32-1.97.15-.5.23-1.01.34-1.52.37-1.77.67-3.54.46-5.35-.02-.14.04-.24.12-.34.4-.55.43-1.18.07-1.76h0ZM240.92,254.43c.56-.94,1.38-1.48,2.46-1.64.4-.06.49-.15.52-.57.03-.44.08-.88.26-1.3.19-.45.46-.81.93-1.01.59-.25,1.02.01,1.08.64,0,.06,0,.12,0,.18-.03.6-.1,1.2-.36,1.76-.17.36-.12.48.23.66.99.51,1.61,1.31,1.88,2.38.09.35.05.38-.3.32-2.18-.37-4.36-.74-6.53-1.11-.26-.05-.29-.09-.15-.32ZM247.56,262.89c-.13.68-.32,1.35-.46,2.03-.2.94-.8,1.43-1.7,1.63-.63.14-1.27.21-1.96.21-1.45-.01-2.86-.37-4.18-1.06-.97-.5-1.29-1.1-1.18-2.16.03-.31.1-.61.16-.91.31-1.4.62-2.79.92-4.19.12-.57.39-1.04.8-1.45.17-.17.34-.22.57-.18,1.49.26,2.99.51,4.48.76.83.14,1.67.28,2.5.42.35.06.37.09.4.45.13,1.5-.08,2.97-.35,4.44h0ZM248.35,256.78c-.03.19-.06.38-.1.57-.05.23-.18.32-.41.28-1.37-.23-2.74-.46-4.11-.69-1.13-.19-2.26-.38-3.39-.57-.23-.04-.41-.12-.37-.4.03-.19.05-.38.09-.57.05-.24.18-.33.47-.29.46.06.93.14,1.39.22,1.95.33,3.91.66,5.86.99.11.02.23.05.34.08.19.06.26.2.23.39h0Z"/>
                    <path class="cls-19" d="M242.57,260.94c-.26-.05-.52-.11-.78-.16-.27-.06-.33-.02-.38.25-.06.29-.1.58-.18.86-.05.19.02.26.19.3.28.05.56.1.84.16.16.03.27.1.24.28-.03.18-.18.18-.31.16-.29-.05-.58-.09-.86-.17-.17-.04-.23.02-.27.16-.26.74-.21.82.55,1.01.19.05.39.1.58.17.14.04.22.14.16.29-.05.14-.16.15-.29.12-.49-.13-.97-.25-1.46-.37-.17-.04-.22-.16-.18-.33.33-1.63.66-3.26.99-4.89.05-.25.17-.34.41-.29.5.1,1,.21,1.5.32.16.04.3.09.25.3-.05.2-.21.18-.37.14-.37-.07-.74-.14-1.11-.23-.18-.04-.28,0-.31.2-.03.26-.09.53-.14.79-.04.2.05.31.23.34.25.05.51.1.76.16.13.03.21.1.19.24-.02.15-.11.19-.25.19h0Z"/>
                    <g>
                      <path class="cls-19" d="M246.61,263.14s-.09-.03-.14-.06c-.19-.13-.37-.26-.55-.39-.1-.08-.1-.18-.04-.29.07-.12.16-.12.27-.07.23.11.42.27.61.44.08.07.09.16.04.25-.04.07-.08.12-.19.13h0Z"/>
                      <path class="cls-19" d="M246.44,260.58c.25.09.52.25.73.49.06.07.02.18-.05.25s-.15.08-.23.04c-.22-.14-.43-.28-.65-.43-.08-.06-.09-.14-.06-.22.03-.08.1-.13.25-.12Z"/>
                      <path class="cls-19" d="M247.2,259.65c-.28-.08-.52-.25-.72-.49-.05-.06-.02-.14.02-.21.06-.08.14-.11.22-.07.25.11.5.23.67.47.05.07.07.16.02.24-.04.07-.12.08-.22.08Z"/>
                      <path class="cls-19" d="M246.33,264.69c-.06.15-.14.26-.3.19-.23-.11-.44-.26-.64-.43-.07-.06-.09-.14-.04-.23.05-.09.13-.16.22-.12.28.1.54.26.73.5.02.03.02.06.03.08h0Z"/>
                      <path class="cls-19" d="M246.21,261.36c.18,0,.66.38.71.55.02.08,0,.15-.06.21-.06.06-.12.08-.2.04-.27-.1-.47-.29-.63-.52-.1-.14,0-.29.18-.29Z"/>
                      <path class="cls-19" d="M246.31,263.97c-.25-.08-.49-.23-.63-.5-.04-.07-.03-.15.03-.21.06-.06.14-.11.23-.07.23.12.47.23.58.48.08.18,0,.3-.22.29h0Z"/>
                      <path class="cls-19" d="M246.53,259.72c.11,0,.7.4.74.5.03.08,0,.15-.06.21-.06.06-.13.11-.22.07-.23-.11-.44-.24-.62-.42-.06-.06-.07-.13-.04-.21.04-.08.09-.14.19-.14h0Z"/>
                    </g>
                  </g>
                </g>
              </g>
            </g>
          </g>
          <g>
            <rect class="cls-5" x="259.79" y="156.08" width="62.63" height="63.21"/>
            <rect class="cls-1" x="259.79" y="147.72" width="62.63" height="8.37"/>
            <rect class="cls-17" x="322.42" y="147.72" width="12.11" height="8.37"/>
            <rect class="cls-1" x="322.42" y="156.08" width="12.11" height="63.21"/>
            <g>
              <circle class="cls-1" cx="291.1" cy="187.69" r="17.19"/>
              <path class="cls-21" d="M291.1,202.87c-8.37,0-15.18-6.81-15.18-15.18s6.81-15.18,15.18-15.18,15.18,6.81,15.18,15.18-6.81,15.18-15.18,15.18Z"/>
              <g id="logo-icon-transparent-5" data-name="logo-icon-transparent">
                <g>
                  <rect class="cls-8" x="275.05" y="171.42" width="31.23" height="31.23"/>
                  <g>
                    <path class="cls-19" d="M296.08,184.88c-.06-.09-.1-.19-.12-.3-.18-1.29-.85-2.25-1.94-2.93-.2-.12-.25-.25-.16-.47.26-.63.33-1.29.28-1.97-.04-.61-.43-1.03-1.01-1.05-.42-.02-.79.13-1.11.39-.63.52-.86,1.23-.94,2.01-.05.46-.1.53-.56.63-1.08.24-1.88.87-2.43,1.82-.14.24-.26.47-.56.53-.05.01-.11.06-.13.1-.22.48-.42.96-.19,1.49.09.19.05.3-.09.43-.39.36-.63.82-.75,1.34-.34,1.58-.68,3.17-1.03,4.75-.1.48-.21.97-.13,1.47.13.79.64,1.28,1.31,1.65,1.45.79,3,1.15,4.7,1.16.49.03,1.02-.05,1.55-.12,1.19-.17,1.97-.81,2.32-1.97.15-.5.23-1.01.34-1.52.37-1.77.67-3.54.46-5.35-.02-.14.04-.24.12-.34.4-.55.43-1.18.07-1.76h0ZM288.49,183.19c.56-.94,1.38-1.48,2.46-1.64.4-.06.49-.15.52-.57.03-.44.08-.88.26-1.3.19-.45.46-.81.93-1.01.59-.25,1.02.01,1.08.64,0,.06,0,.12,0,.18-.03.6-.1,1.2-.36,1.76-.17.36-.12.48.23.66.99.51,1.61,1.31,1.88,2.38.09.35.05.38-.3.32-2.18-.37-4.36-.74-6.53-1.11-.26-.05-.29-.09-.15-.32ZM295.13,191.65c-.13.68-.32,1.35-.46,2.03-.2.94-.8,1.43-1.7,1.63-.63.14-1.27.21-1.96.21-1.45-.01-2.86-.37-4.18-1.06-.97-.5-1.29-1.1-1.18-2.16.03-.31.1-.61.16-.91.31-1.4.62-2.79.92-4.19.12-.57.39-1.04.8-1.45.17-.17.34-.22.57-.18,1.49.26,2.99.51,4.48.76.83.14,1.67.28,2.5.42.35.06.37.09.4.45.13,1.5-.08,2.97-.35,4.44h0ZM295.92,185.54c-.03.19-.06.38-.1.57-.05.23-.18.32-.41.28-1.37-.23-2.74-.46-4.11-.69-1.13-.19-2.26-.38-3.39-.57-.23-.04-.41-.12-.37-.4.03-.19.05-.38.09-.57.05-.24.18-.33.47-.29.46.06.93.14,1.39.22,1.95.33,3.91.66,5.86.99.11.02.23.05.34.08.19.06.26.2.23.39h0Z"/>
                    <path class="cls-19" d="M290.13,189.7c-.26-.05-.52-.11-.78-.16-.27-.06-.33-.02-.38.25-.06.29-.1.58-.18.86-.05.19.02.26.19.3.28.05.56.1.84.16.16.03.27.1.24.28-.03.18-.18.18-.31.16-.29-.05-.58-.09-.86-.17-.17-.04-.23.02-.27.16-.26.74-.21.82.55,1.01.19.05.39.1.58.17.14.04.22.14.16.29-.05.14-.16.15-.29.12-.49-.13-.97-.25-1.46-.37-.17-.04-.22-.16-.18-.33.33-1.63.66-3.26.99-4.89.05-.25.17-.34.41-.29.5.1,1,.21,1.5.32.16.04.3.09.25.3-.05.2-.21.18-.37.14-.37-.07-.74-.14-1.11-.23-.18-.04-.28,0-.31.2-.03.26-.09.53-.14.79-.04.2.05.31.23.34.25.05.51.1.76.16.13.03.21.1.19.24-.02.15-.11.19-.25.19h0Z"/>
                    <g>
                      <path class="cls-19" d="M294.17,191.9s-.09-.03-.14-.06c-.19-.13-.37-.26-.55-.39-.1-.08-.1-.18-.04-.29.07-.12.16-.12.27-.07.23.11.42.27.61.44.08.07.09.16.04.25-.04.07-.08.12-.19.13h0Z"/>
                      <path class="cls-19" d="M294,189.34c.25.09.52.25.73.49.06.07.02.18-.05.25s-.15.08-.23.04c-.22-.14-.43-.28-.65-.43-.08-.06-.09-.14-.06-.22.03-.08.1-.13.25-.12Z"/>
                      <path class="cls-19" d="M294.77,188.41c-.28-.08-.52-.25-.72-.49-.05-.06-.02-.14.02-.21.06-.08.14-.11.22-.07.25.11.5.23.67.47.05.07.07.16.02.24-.04.07-.12.08-.22.08Z"/>
                      <path class="cls-19" d="M293.89,193.45c-.06.15-.14.26-.3.19-.23-.11-.44-.26-.64-.43-.07-.06-.09-.14-.04-.23.05-.09.13-.16.22-.12.28.1.54.26.73.5.02.03.02.06.03.08h0Z"/>
                      <path class="cls-19" d="M293.78,190.12c.18,0,.66.38.71.55.02.08,0,.15-.06.21-.06.06-.12.08-.2.04-.27-.1-.47-.29-.63-.52-.1-.14,0-.29.18-.29Z"/>
                      <path class="cls-19" d="M293.88,192.73c-.25-.08-.49-.23-.63-.5-.04-.07-.03-.15.03-.21.06-.06.14-.11.23-.07.23.12.47.23.58.48.08.18,0,.3-.22.29h0Z"/>
                      <path class="cls-19" d="M294.1,188.48c.11,0,.7.4.74.5.03.08,0,.15-.06.21-.06.06-.13.11-.22.07-.23-.11-.44-.24-.62-.42-.06-.06-.07-.13-.04-.21.04-.08.09-.14.19-.14h0Z"/>
                    </g>
                  </g>
                </g>
              </g>
            </g>
          </g>
          <g>
            <rect class="cls-5" x="285.67" y="227.66" width="43.87" height="63.21"/>
            <rect class="cls-1" x="285.67" y="219.29" width="43.87" height="8.37"/>
            <rect class="cls-17" x="329.53" y="219.29" width="35.37" height="8.37"/>
            <rect class="cls-1" x="329.53" y="227.66" width="35.37" height="63.21"/>
            <g>
              <ellipse class="cls-1" cx="306.9" cy="259.28" rx="11.34" ry="17.19"/>
              <path class="cls-21" d="M306.9,274.47c-5.52,0-10.01-6.81-10.01-15.18s4.49-15.18,10.01-15.18,10.01,6.81,10.01,15.18-4.49,15.18-10.01,15.18Z"/>
              <g id="logo-icon-transparent-6" data-name="logo-icon-transparent">
                <g>
                  <rect class="cls-8" x="296.31" y="243.01" width="20.6" height="31.23"/>
                  <g>
                    <path class="cls-19" d="M310.18,256.48c-.04-.09-.07-.19-.08-.3-.12-1.29-.56-2.25-1.28-2.93-.13-.12-.17-.25-.11-.47.17-.63.22-1.29.18-1.97-.03-.61-.29-1.03-.67-1.05-.28-.02-.52.13-.73.39-.41.52-.57,1.23-.62,2.01-.03.46-.06.53-.37.63-.71.24-1.24.87-1.61,1.82-.09.24-.17.47-.37.53-.03.01-.07.06-.09.1-.15.48-.28.96-.12,1.49.06.19.04.3-.06.43-.26.36-.42.82-.49,1.34-.23,1.58-.45,3.17-.68,4.75-.07.48-.14.97-.09,1.47.09.79.42,1.28.86,1.65.95.79,1.98,1.15,3.1,1.16.32.03.67-.05,1.02-.12.78-.17,1.3-.81,1.53-1.97.1-.5.15-1.01.23-1.52.25-1.77.44-3.54.31-5.35-.01-.14.03-.24.08-.34.27-.55.29-1.18.05-1.76h0ZM305.17,254.79c.37-.94.91-1.48,1.62-1.64.27-.06.32-.15.34-.57.02-.44.05-.88.17-1.3.12-.45.31-.81.61-1.01.39-.25.67.01.71.64,0,.06,0,.12,0,.18-.02.6-.07,1.2-.24,1.76-.11.36-.08.48.15.66.65.51,1.06,1.31,1.24,2.38.06.35.04.38-.2.32-1.44-.37-2.87-.74-4.31-1.11-.17-.05-.19-.09-.1-.32ZM309.55,263.25c-.08.68-.21,1.35-.31,2.03-.13.94-.53,1.43-1.12,1.63-.42.14-.84.21-1.29.21-.96-.01-1.89-.37-2.76-1.06-.64-.5-.85-1.1-.78-2.16.02-.31.06-.61.11-.91.2-1.4.41-2.79.61-4.19.08-.57.26-1.04.53-1.45.11-.17.23-.22.37-.18.98.26,1.97.51,2.95.76.55.14,1.1.28,1.65.42.23.06.24.09.26.45.08,1.5-.05,2.97-.23,4.44h0ZM310.07,257.13c-.02.19-.04.38-.07.57-.03.23-.12.32-.27.28-.9-.23-1.8-.46-2.71-.69-.74-.19-1.49-.38-2.23-.57-.15-.04-.27-.12-.24-.4.02-.19.03-.38.06-.57.03-.24.12-.33.31-.29.31.06.61.14.91.22,1.29.33,2.58.66,3.87.99.08.02.15.05.22.08.12.06.17.2.15.39h0Z"/>
                    <path class="cls-19" d="M306.26,261.3c-.17-.05-.35-.11-.52-.16-.18-.06-.21-.02-.25.25-.04.29-.07.58-.12.86-.04.19.02.26.13.3.18.05.37.1.55.16.1.03.18.1.16.28-.02.18-.12.18-.21.16-.19-.05-.38-.09-.57-.17-.11-.04-.15.02-.18.16-.17.74-.14.82.36,1.01.13.05.25.1.38.17.09.04.14.14.11.29-.03.14-.1.15-.19.12-.32-.13-.64-.25-.96-.37-.11-.04-.14-.16-.12-.33.22-1.63.44-3.26.65-4.89.03-.25.11-.34.27-.29.33.1.66.21.99.32.11.04.2.09.17.3-.03.2-.14.18-.24.14-.24-.07-.49-.14-.73-.23-.12-.04-.19,0-.2.2-.02.26-.06.53-.09.79-.03.2.03.31.15.34.17.05.34.1.5.16.09.03.14.1.13.24-.01.15-.08.19-.17.19h0Z"/>
                    <g>
                      <path class="cls-19" d="M308.92,263.5s-.06-.03-.09-.06c-.12-.13-.24-.26-.36-.39-.07-.08-.07-.18-.03-.29.05-.12.1-.12.18-.07.15.11.28.27.4.44.05.07.06.16.03.25-.03.07-.06.12-.13.13h0Z"/>
                      <path class="cls-19" d="M308.81,260.94c.17.09.35.25.48.49.04.07.01.18-.03.25s-.1.08-.15.04c-.14-.14-.29-.28-.43-.43-.05-.06-.06-.14-.04-.22.02-.08.07-.13.17-.12Z"/>
                      <path class="cls-19" d="M309.31,260c-.19-.08-.35-.25-.47-.49-.03-.06-.02-.14.02-.21.04-.08.09-.11.15-.07.17.11.33.23.44.47.04.07.04.16.01.24-.03.07-.08.08-.14.08Z"/>
                      <path class="cls-19" d="M308.73,265.05c-.04.15-.1.26-.2.19-.15-.11-.29-.26-.42-.43-.05-.06-.06-.14-.03-.23.03-.09.09-.16.15-.12.19.1.35.26.48.5.01.03.02.06.02.08h0Z"/>
                      <path class="cls-19" d="M308.66,261.72c.12,0,.44.38.47.55.02.08,0,.15-.04.21-.04.06-.08.08-.13.04-.18-.1-.31-.29-.42-.52-.06-.14,0-.29.12-.29Z"/>
                      <path class="cls-19" d="M308.73,264.33c-.17-.08-.32-.23-.41-.5-.02-.07-.02-.15.02-.21.04-.06.09-.11.15-.07.15.12.31.23.38.48.06.18,0,.3-.14.29h0Z"/>
                      <path class="cls-19" d="M308.87,260.08c.07,0,.46.4.48.5.02.08,0,.15-.04.21-.04.06-.08.11-.14.07-.15-.11-.29-.24-.41-.42-.04-.06-.05-.13-.02-.21.03-.08.06-.14.13-.14h0Z"/>
                    </g>
                  </g>
                </g>
              </g>
            </g>
          </g>
        </g>
        <g id="VOLUNTARY_01" data-name="VOLUNTARY 01">
          <path class="cls-18" d="M118.57,290.87h-43.86c-5.63,0-10.2-4.57-10.2-10.2h0c0-5.63,4.57-10.2,10.2-10.2h43.86c5.63,0,10.2,4.57,10.2,10.2h0c0,5.63-4.57,10.2-10.2,10.2Z"/>
          <g>
            <path class="cls-13" d="M130.9,95.37l7.97,1.74c8.02,13.76,11.27,59.41,11.27,59.41,0,0-6.82,9.44-19.68,9.1-12.85-.34-26.87-11.09-26.87-11.09,6.57-38.9,27.31-59.16,27.31-59.16Z"/>
            <path class="cls-15" d="M103.59,154.53c-3.09,30.62-8.99,72.08-12.86,98.19h0l4.36,6.02,7.03-2.69,27.55-76.44c5.41,7.48,12.62,17.86,8.07,27.76-2.54,5.51-7.33,12.16-12.34,18.33h0l-1.4,8.4,8.12,3.12c8.99-6.96,19.37-16.91,25.14-28.94,11.6-24.23-7.11-51.75-7.11-51.75-26.16,4.32-46.55-1.99-46.55-1.99Z"/>
            <path class="cls-15" d="M140.01,91.7c3.41,1.52,11.61,1.54,12.24-4.34.5-4.61-.85-6.52-.85-6.52l-2.15-2.03,1.8-3.05s6.09-2.22,5.4-6.6c-.68-4.38-9.06-9.21-17.03-4.21,0,0-4.94-2.9-8.52,2.16-1.61,2.28-1.51,4.91-.72,7.05,0,0-2.27,1.44-1.76,4.05.51,2.61,4.67,7.07,3.85,11.9l2.93,1.42,4.82.17Z"/>
            <path class="cls-2" d="M130.9,95.37s2.69,35.64-5.02,75.88c0,0-18.51,2.79-28.98-9.27,0,0,5.57-34.24,11.15-50.5,6.71-19.56,22.85-16.11,22.85-16.11Z"/>
            <path class="cls-4" d="M96.33,272.09l5.78-16.04-11.39-3.32c-2.22,14.92-3.77,24.82-3.77,24.82l17.74,1.36-8.36-6.82Z"/>
            <path class="cls-4" d="M125.4,225.7c-8.43,10.37-17.49,19.39-17.49,19.39l7.73,13.65-.34-10.46s7.69-4,16.81-11.06l-6.71-11.52Z"/>
            <path class="cls-2" d="M138.86,97.11s3.68,52.59,1.04,74.42c0,0,8.39,1.22,19.73,0,0,0-2.3-49.67-2.9-56.24-.6-6.57-10.08-15.22-17.87-18.18Z"/>
            <path class="cls-16" d="M138.86,97.11s-1.66,1.4-4.05,1.12c-1.93-.23-3.91-2.86-3.91-2.86l3.7-14.25s-1.88-2.18-2.15-4.05.68-4.2,2.88-2.92,2,3.69,1.79,7.91c-.21,4.22-.3,7.85,2.9,9.64l-1.15,5.41Z"/>
            <path class="cls-16" d="M139.46,76.42s-.38,3.17,1.15,4.15,4.31-.94,7-.77c2.69.17,3.8,1.05,3.8,1.05l-.36-5.09s-1.69-1.25-2.93-3.77c0,0-2.01,3.5-8.66,4.43Z"/>
            <path class="cls-22" d="M142.43,77.7s1.13-1.71,2.73-.34"/>
            <path class="cls-22" d="M147.08,78.22s1.36-.11,1.36.58c0,.62-1.11.62-1.11.62"/>
            <g>
              <rect class="cls-5" x="132.22" y="111.84" width="54.01" height="60.45" transform="translate(-11.78 14.43) rotate(-5)"/>
              <polygon class="cls-1" points="182.79 101.63 191.91 104.8 197.17 161.91 188.75 169.83 182.79 101.63"/>
              <polygon class="cls-17" points="180.19 107.97 183.49 109.61 192.49 111.07 191.91 104.8 182.79 101.63 180.19 107.97"/>
              <polygon class="cls-10" points="171.68 132.28 163.76 132.97 163.07 125.05 154.59 125.79 155.29 133.71 147.37 134.4 148.11 142.88 156.03 142.19 156.72 150.1 165.2 149.36 164.5 141.44 172.42 140.75 171.68 132.28"/>
              <rect class="cls-1" x="129.24" y="103.96" width="54.01" height="8.01" transform="translate(-8.82 14.04) rotate(-5)"/>
              <g>
                <ellipse class="cls-1" cx="159.39" cy="137.19" rx="16.88" ry="17.19"/>
                <path class="cls-21" d="M159.39,152.37c-8.22,0-14.9-6.81-14.9-15.18s6.69-15.18,14.9-15.18,14.9,6.81,14.9,15.18-6.68,15.18-14.9,15.18Z"/>
                <g id="logo-icon-transparent-7" data-name="logo-icon-transparent">
                  <g>
                    <rect class="cls-8" x="143.64" y="120.92" width="30.66" height="31.23"/>
                    <g>
                      <path class="cls-19" d="M164.28,134.38c-.06-.09-.1-.19-.12-.3-.17-1.29-.83-2.25-1.91-2.93-.2-.12-.25-.25-.16-.47.26-.63.32-1.29.27-1.97-.04-.61-.43-1.03-.99-1.05-.41-.02-.78.13-1.09.39-.61.52-.85,1.23-.93,2.01-.04.46-.09.53-.55.63-1.06.24-1.85.87-2.39,1.82-.13.24-.26.47-.55.53-.05.01-.11.06-.13.1-.22.48-.41.96-.18,1.49.08.19.05.3-.09.43-.38.36-.62.82-.73,1.34-.34,1.58-.67,3.17-1.01,4.75-.1.48-.21.97-.13,1.47.13.79.63,1.28,1.28,1.65,1.42.79,2.95,1.15,4.61,1.16.48.03,1-.05,1.52-.12,1.17-.17,1.93-.81,2.28-1.97.15-.5.23-1.01.34-1.52.37-1.77.65-3.54.45-5.35-.01-.14.04-.24.12-.34.4-.55.42-1.18.07-1.76h0ZM156.83,132.69c.55-.94,1.35-1.48,2.41-1.64.39-.06.48-.15.51-.57.03-.44.08-.88.25-1.3.18-.45.45-.81.91-1.01.57-.25,1,.01,1.06.64,0,.06,0,.12,0,.18-.03.6-.1,1.2-.35,1.76-.16.36-.12.48.22.66.97.51,1.58,1.31,1.84,2.38.08.35.05.38-.29.32-2.14-.37-4.28-.74-6.41-1.11-.26-.05-.28-.09-.15-.32ZM163.34,141.15c-.12.68-.31,1.35-.45,2.03-.2.94-.79,1.43-1.67,1.63-.62.14-1.25.21-1.92.21-1.43-.01-2.81-.37-4.11-1.06-.95-.5-1.27-1.1-1.16-2.16.03-.31.09-.61.16-.91.3-1.4.61-2.79.91-4.19.12-.57.38-1.04.78-1.45.16-.17.34-.22.56-.18,1.47.26,2.93.51,4.4.76.82.14,1.64.28,2.45.42.35.06.36.09.39.45.12,1.5-.08,2.97-.34,4.44h0ZM164.12,135.04c-.03.19-.06.38-.1.57-.04.23-.17.32-.41.28-1.34-.23-2.69-.46-4.03-.69-1.11-.19-2.22-.38-3.33-.57-.22-.04-.4-.12-.36-.4.03-.19.05-.38.08-.57.05-.24.17-.33.46-.29.45.06.91.14,1.36.22,1.92.33,3.84.66,5.75.99.11.02.22.05.33.08.18.06.26.2.23.39h0Z"/>
                      <path class="cls-19" d="M158.44,139.2c-.26-.05-.51-.11-.77-.16-.27-.06-.32-.02-.37.25-.05.29-.1.58-.18.86-.05.19.02.26.19.3.27.05.55.1.82.16.15.03.27.1.24.28-.03.18-.17.18-.31.16-.28-.05-.57-.09-.85-.17-.16-.04-.22.02-.27.16-.25.74-.21.82.54,1.01.19.05.38.1.57.17.13.04.21.14.16.29-.05.14-.15.15-.28.12-.48-.13-.95-.25-1.43-.37-.17-.04-.21-.16-.18-.33.33-1.63.65-3.26.97-4.89.05-.25.17-.34.4-.29.49.1.98.21,1.47.32.16.04.3.09.25.3-.05.2-.21.18-.36.14-.36-.07-.72-.14-1.09-.23-.18-.04-.28,0-.3.2-.03.26-.09.53-.14.79-.04.2.04.31.23.34.25.05.5.1.75.16.13.03.2.1.19.24-.01.15-.11.19-.25.19h0Z"/>
                      <g>
                        <path class="cls-19" d="M162.4,141.4s-.09-.03-.14-.06c-.18-.13-.36-.26-.54-.39-.1-.08-.1-.18-.04-.29.07-.12.15-.12.27-.07.22.11.41.27.59.44.07.07.09.16.04.25-.04.07-.08.12-.19.13h0Z"/>
                        <path class="cls-19" d="M162.24,138.84c.25.09.51.25.72.49.06.07.02.18-.05.25s-.15.08-.22.04c-.21-.14-.42-.28-.64-.43-.08-.06-.09-.14-.06-.22.03-.08.1-.13.25-.12Z"/>
                        <path class="cls-19" d="M162.99,137.91c-.28-.08-.51-.25-.7-.49-.05-.06-.02-.14.02-.21.05-.08.14-.11.22-.07.25.11.49.23.66.47.05.07.06.16.02.24-.04.07-.12.08-.21.08Z"/>
                        <path class="cls-19" d="M162.13,142.95c-.05.15-.14.26-.29.19-.23-.11-.43-.26-.63-.43-.07-.06-.08-.14-.04-.23.04-.09.13-.16.22-.12.28.1.53.26.71.5.02.03.02.06.03.08h0Z"/>
                        <path class="cls-19" d="M162.02,139.62c.18,0,.65.38.7.55.02.08,0,.15-.05.21-.05.06-.12.08-.2.04-.26-.1-.46-.29-.62-.52-.09-.14,0-.29.17-.29Z"/>
                        <path class="cls-19" d="M162.12,142.23c-.25-.08-.48-.23-.62-.5-.03-.07-.03-.15.03-.21.06-.06.14-.11.22-.07.22.12.46.23.57.48.08.18,0,.3-.21.29h0Z"/>
                        <path class="cls-19" d="M162.33,137.98c.1,0,.69.4.72.5.03.08,0,.15-.06.21-.06.06-.12.11-.21.07-.22-.11-.43-.24-.6-.42-.06-.06-.07-.13-.03-.21.04-.08.09-.14.19-.14h0Z"/>
                      </g>
                    </g>
                  </g>
                </g>
              </g>
            </g>
            <path class="cls-22" d="M149.13,77.63s.75-1,1.8-.23"/>
            <path class="cls-4" d="M169.42,156.35s3.1-2.16,2.39-3.38-4.95,2.16-4.95,2.16c0,0-.77-.11-2.09-.43h0l-5.72,3.61,4.76,4.78c2.24.16,3.51.14,3.51.14,0,0,8.57,2,8.66.53.09-1.38-4.37-1.49-4.37-1.49,0,0,5.66.2,5.57-1.19-.07-1.1-3-1.01-4.57-.88,1.68-.2,4.99-.71,4.97-1.71-.02-1.07-3.9-.8-5.42-.65,1.59-.19,5.73-.79,5.59-1.94-.17-1.42-8.33.46-8.33.46Z"/>
            <line class="cls-22" x1="133.9" y1="77.37" x2="135.45" y2="76.11"/>
            <path class="cls-2" d="M164.76,154.7c-5.48-1.33-20.47-6.32-29.64-22.34l-.07-.02s.02-.04.03-.06c-9.12-15.96-15.98-34.98-15.98-34.98,0,0-12.1,4-11.76,18.93.23,10,6.15,21.83,15.03,30.56h0c4.38,4.31,9.49,7.86,15,10.05,11.52,4.59,21.42,5.89,26.44,6.26.86-3.48,1.01-6.43.96-8.39Z"/>
            <g>
              <path class="cls-5" d="M140.63,80.68s5.9-2.53,11.3-.03c0,0,3.56,10.4-3.93,11.91-5.25,1.06-9.34-2.98-9.34-2.98,0,0,1.88-4.07,1.96-8.89Z"/>
              <line class="cls-20" x1="136.2" y1="74.85" x2="140.81" y2="80.92"/>
              <line class="cls-20" x1="134.6" y1="81.12" x2="138.88" y2="89.45"/>
            </g>
            <path class="cls-22" d="M108.84,125.05c2.32,7.63,7.16,15.48,13.53,21.73h0c4.38,4.31,9.49,7.86,15,10.05,6.96,2.77,13.32,4.34,18.38,5.23"/>
          </g>
        </g>
        <g id="DOTS">
          <polygon class="cls-18" points="433.56 63.56 428.22 64.03 427.75 58.69 422.04 59.19 422.51 64.53 417.17 65 417.67 70.71 423.01 70.24 423.47 75.58 429.19 75.08 428.72 69.74 434.06 69.28 433.56 63.56"/>
          <polygon class="cls-18" points="484.25 126.44 478.95 125.64 479.75 120.35 474.08 119.49 473.28 124.79 467.98 123.99 467.13 129.66 472.43 130.46 471.63 135.76 477.3 136.62 478.1 131.32 483.4 132.12 484.25 126.44"/>
          <polygon class="cls-18" points="40.92 303.59 35.74 302.21 37.12 297.03 31.58 295.55 30.2 300.73 25.02 299.35 23.54 304.89 28.72 306.27 27.33 311.45 32.88 312.93 34.26 307.75 39.44 309.14 40.92 303.59"/>
          <polygon class="cls-18" points="64.85 35.59 57.2 34.08 58.71 26.43 50.53 24.81 49.02 32.46 41.37 30.94 39.75 39.13 47.4 40.64 45.88 48.29 54.07 49.91 55.58 42.26 63.23 43.78 64.85 35.59"/>
          <polygon class="cls-18" points="458.27 278.89 450.49 279.41 449.97 271.63 441.65 272.19 442.17 279.96 434.39 280.48 434.95 288.81 442.72 288.29 443.24 296.06 451.57 295.51 451.05 287.73 458.82 287.21 458.27 278.89"/>
          <polygon class="cls-14" points="48.9 153.76 43.55 153.55 43.76 148.19 38.03 147.96 37.81 153.31 32.46 153.1 32.23 158.83 37.58 159.05 37.37 164.4 43.1 164.63 43.32 159.28 48.67 159.49 48.9 153.76"/>
          <polygon class="cls-14" points="101.68 80.62 96.86 82.96 94.52 78.14 89.36 80.66 91.71 85.47 86.89 87.82 89.4 92.98 94.22 90.63 96.56 95.45 101.72 92.94 99.38 88.12 104.19 85.77 101.68 80.62"/>
          <polygon class="cls-14" points="428.4 204.06 423.08 203.47 423.66 198.14 417.96 197.52 417.37 202.84 412.05 202.26 411.42 207.96 416.75 208.54 416.16 213.87 421.86 214.5 422.45 209.17 427.77 209.76 428.4 204.06"/>
          <polygon class="cls-14" points="189.45 192.11 184.24 193.39 182.96 188.19 177.39 189.56 178.67 194.76 173.47 196.04 174.84 201.61 180.05 200.33 181.33 205.54 186.9 204.16 185.62 198.96 190.82 197.68 189.45 192.11"/>
        </g>
      </g>
    </g>
  </g>
</svg>