<?xml version="1.0" encoding="UTF-8"?>
<svg id="Layer_2" data-name="Layer 2" xmlns="http://www.w3.org/2000/svg" viewBox="0 0 64 64">
  <defs>
    <style>
      .cls-1 {
        fill: #feb4ba;
      }

      .cls-1, .cls-2, .cls-3, .cls-4, .cls-5, .cls-6, .cls-7, .cls-8 {
        stroke-width: 0px;
      }

      .cls-2 {
        fill: #afa1c8;
      }

      .cls-3 {
        fill: none;
      }

      .cls-4 {
        fill: #cb6870;
      }

      .cls-5 {
        fill: #f5e5ba;
      }

      .cls-6 {
        fill: #337c80;
      }

      .cls-7 {
        fill: #837996;
      }

      .cls-8 {
        fill: #fe828c;
      }
    </style>
  </defs>
  <g id="icon-set">
    <g id="milk_basket">
      <rect class="cls-3" width="64" height="64"/>
      <g id="bottles">
        <g>
          <path class="cls-1" d="M17.38,12.84c.31,2.42-1.71,4.65-4.52,4.97s-5.34-1.39-5.65-3.82,1.71-4.65,4.52-4.97c2.81-.32,5.34,1.39,5.65,3.82Z"/>
          <path class="cls-6" d="M19.92,16.45c.24,1.87-1.37,3.59-3.6,3.84l-6.22.7c-2.22.25-4.23-1.06-4.46-2.93l-.06-.45c-.24-1.87,1.37-3.59,3.6-3.84l6.22-.7c2.22-.25,4.23,1.06,4.46,2.93l.06.45Z"/>
          <path class="cls-2" d="M26.97,53.46c.24,1.87-.91,3.54-2.56,3.72l-12.24,1.39c-1.65.19-3.19-1.18-3.42-3.05L4.38,21.41c-.24-1.87.91-3.54,2.56-3.72l12.25-1.39c1.65-.19,3.19,1.18,3.42,3.05l4.37,34.11h-.02Z"/>
          <path class="cls-7" d="M7.34,17.66c-.31,0-1.03.06-1.7.51-.82.55-1.06,1.34-1.16,1.69-.23.76-.13,1.42-.05,1.79l4.28,33.88c.04.3.12.78.41,1.3.19.33.61,1.08,1.55,1.49.83.36,1.59.26,1.92.19L7.36,17.66h-.02Z"/>
          <path class="cls-1" d="M14.32,9.31c.15,1.2-.76,2.31-2.05,2.46h0c-1.28.14-2.46-.71-2.62-1.93l-.42-3.29c-.15-1.2.76-2.31,2.05-2.46h0c1.28-.14,2.46.71,2.62,1.93l.42,3.31v-.02Z"/>
          <polygon class="cls-5" points="19.1 26.24 23.42 25.76 23.51 26.43 19.19 26.92 19.1 26.24"/>
          <polygon class="cls-5" points="19.77 31.43 24.08 30.94 24.17 31.62 19.85 32.11 19.77 31.43"/>
          <polygon class="cls-5" points="20.34 35.93 24.66 35.44 24.75 36.12 20.43 36.61 20.34 35.93"/>
          <polygon class="cls-5" points="21 41.11 25.32 40.62 25.41 41.29 21.09 41.78 21 41.11"/>
          <polygon class="cls-5" points="21.42 44.37 25.74 43.88 25.83 44.56 21.51 45.05 21.42 44.37"/>
          <polygon class="cls-5" points="22.09 49.56 26.41 49.07 26.49 49.75 22.17 50.24 22.09 49.56"/>
        </g>
        <g>
          <path class="cls-1" d="M38.96,12.96c.02,2.44-2.25,4.44-5.09,4.46-2.84.02-5.14-1.95-5.16-4.39s2.25-4.44,5.09-4.46,5.14,1.95,5.16,4.39Z"/>
          <path class="cls-6" d="M41.05,16.81c.01,1.88-1.79,3.42-4.03,3.44l-6.27.04c-2.24.02-4.07-1.5-4.09-3.38v-.45c-.02-1.88,1.79-3.42,4.03-3.44l6.27-.04c2.24-.02,4.07,1.5,4.09,3.38v.45Z"/>
          <path class="cls-2" d="M43.63,54.34c.01,1.88-1.33,3.42-2.99,3.43l-12.32.08c-1.66.01-3.02-1.51-3.04-3.39l-.27-34.36c-.01-1.88,1.33-3.42,2.99-3.43l12.34-.08c1.66-.01,3.02,1.51,3.04,3.39l.27,34.36h-.02Z"/>
          <path class="cls-7" d="M28.41,16.69c-.31-.03-1.03-.05-1.75.33-.88.46-1.21,1.22-1.36,1.55-.32.73-.3,1.4-.26,1.77l.2,34.12c0,.3.02.79.25,1.33.15.35.48,1.13,1.37,1.64.78.45,1.55.43,1.89.4l-.32-41.15h-.02Z"/>
          <path class="cls-1" d="M36.34,9.13c0,1.21-1.03,2.22-2.33,2.23h0c-1.29,0-2.36-.97-2.37-2.2l-.03-3.32c0-1.21,1.03-2.22,2.33-2.23h0c1.29,0,2.36.97,2.37,2.2l.03,3.33v-.02Z"/>
          <rect class="cls-5" x="39.07" y="26.45" width="4.35" height=".68" transform="translate(-.18 .28) rotate(-.39)"/>
          <rect class="cls-5" x="39.11" y="31.67" width="4.35" height=".68" transform="translate(-.22 .28) rotate(-.39)"/>
          <rect class="cls-5" x="39.14" y="36.2" width="4.35" height=".68" transform="translate(-.25 .28) rotate(-.39)"/>
          <rect class="cls-5" x="39.18" y="41.41" width="4.35" height=".68" transform="translate(-.29 .28) rotate(-.39)"/>
          <rect class="cls-5" x="39.21" y="44.7" width="4.35" height=".68" transform="translate(-.31 .28) rotate(-.39)"/>
          <rect class="cls-5" x="39.25" y="49.93" width="4.35" height=".68" transform="translate(-.34 .29) rotate(-.39)"/>
        </g>
        <g>
          <path class="cls-1" d="M54.4,11.58c-.15,2.44-2.56,4.29-5.39,4.14-2.83-.15-4.99-2.26-4.84-4.69s2.56-4.29,5.39-4.14c2.83.15,4.99,2.26,4.84,4.69Z"/>
          <path class="cls-6" d="M56.22,15.55c-.12,1.88-2.03,3.3-4.26,3.18l-6.26-.34c-2.24-.12-3.96-1.75-3.84-3.62l.03-.45c.12-1.88,2.03-3.3,4.26-3.18l6.26.34c2.24.12,3.96,1.75,3.84,3.62l-.03.45Z"/>
          <path class="cls-2" d="M56.2,53.15c-.12,1.88-1.56,3.33-3.22,3.24l-12.3-.67c-1.66-.09-2.91-1.69-2.8-3.57l2.11-34.3c.12-1.88,1.56-3.33,3.22-3.24l12.32.67c1.66.09,2.91,1.69,2.8,3.57l-2.11,34.3h-.02Z"/>
          <path class="cls-7" d="M43.61,14.65c-.3-.05-1.03-.12-1.77.22-.91.41-1.3,1.14-1.46,1.47-.37.71-.39,1.37-.38,1.75l-2.16,34.06c-.02.3-.03.79.16,1.34.12.36.4,1.16,1.25,1.72.74.5,1.52.52,1.86.51l2.53-41.08h-.02Z"/>
          <path class="cls-1" d="M52.05,7.6c-.07,1.21-1.18,2.15-2.48,2.08h0c-1.29-.07-2.29-1.11-2.21-2.34l.2-3.31c.07-1.21,1.18-2.15,2.48-2.08h0c1.29.07,2.29,1.11,2.21,2.34l-.2,3.33v-.02Z"/>
          <polygon class="cls-5" points="53.57 25.06 57.92 25.29 57.87 25.97 53.53 25.74 53.57 25.06"/>
          <polygon class="cls-5" points="53.25 30.28 57.6 30.51 57.55 31.19 53.21 30.96 53.25 30.28"/>
          <polygon class="cls-5" points="52.97 34.8 57.32 35.03 57.28 35.71 52.93 35.48 52.97 34.8"/>
          <polygon class="cls-5" points="52.65 40 57 40.24 56.96 40.92 52.61 40.68 52.65 40"/>
          <polygon class="cls-5" points="52.45 43.28 56.8 43.52 56.75 44.2 52.41 43.96 52.45 43.28"/>
          <polygon class="cls-5" points="52.13 48.5 56.47 48.74 56.43 49.42 52.09 49.18 52.13 48.5"/>
        </g>
      </g>
      <g id="basket">
        <rect class="cls-8" x=".52" y="32.74" width="62.96" height="5.3"/>
        <polygon class="cls-8" points="55.55 62.11 8.45 62.11 3.85 38.04 60.15 38.04 55.55 62.11"/>
        <polygon class="cls-4" points="59.6 40.93 60.15 38.04 3.85 38.04 4.4 40.93 59.6 40.93"/>
        <path class="cls-2" d="M55.61,61.32l-25.6-24.07c-1.1-1.03-1.1-2.7,0-3.73h0c1.1-1.03,2.87-1.03,3.97,0l25.6,24.07c1.1,1.03,1.1,2.7,0,3.73h0c-1.1,1.03-2.87,1.03-3.97,0Z"/>
        <ellipse class="cls-7" cx="32" cy="35.39" rx="1.28" ry="1.2"/>
      </g>
    </g>
  </g>
</svg>