<?xml version="1.0" encoding="UTF-8"?>
<svg id="Layer_2" data-name="Layer 2" xmlns="http://www.w3.org/2000/svg" viewBox="0 0 313.41 335.97">
  <defs>
    <style>
      .cls-1, .cls-2 {
        opacity: .5;
      }

      .cls-1, .cls-2, .cls-3, .cls-4, .cls-5, .cls-6, .cls-7, .cls-8, .cls-9, .cls-10, .cls-11, .cls-12, .cls-13, .cls-14, .cls-15 {
        stroke-width: 0px;
      }

      .cls-1, .cls-2, .cls-12 {
        isolation: isolate;
      }

      .cls-1, .cls-6 {
        fill: #61c5b7;
      }

      .cls-16 {
        stroke: #c1382f;
        stroke-width: 2px;
      }

      .cls-16, .cls-17 {
        fill: none;
        stroke-miterlimit: 10;
      }

      .cls-17 {
        stroke: #f26a4d;
        stroke-width: 1.89px;
      }

      .cls-2, .cls-11 {
        fill: #f26a4d;
      }

      .cls-3 {
        fill: #f8a280;
      }

      .cls-4 {
        fill: #fff;
      }

      .cls-5 {
        fill: #c1382f;
      }

      .cls-7 {
        fill: #161735;
      }

      .cls-8 {
        fill: #f05138;
      }

      .cls-9, .cls-12 {
        fill: #addee0;
      }

      .cls-10 {
        fill: #fddac8;
      }

      .cls-12 {
        opacity: .4;
      }

      .cls-13 {
        fill: #f599a3;
      }

      .cls-14 {
        fill: #222454;
      }

      .cls-15 {
        fill: #95c7c9;
      }
    </style>
  </defs>
  <g id="Layer_6" data-name="Layer 6">
    <g>
      <g id="BACKGROUND">
        <path class="cls-13" d="M118.76,6.46s137.51-38.81,178.4,73.77c40.89,112.57,4.06,195.89-104.32,217.89C84.47,320.12,13.11,259.84.99,152.96-12.63,32.94,118.76,6.46,118.76,6.46Z"/>
      </g>
      <g id="OBJECTS">
        <g>
          <g>
            <g>
              <path class="cls-8" d="M183.49,225.26l20.52-4.09s36.64,47.41,21.66,114.52h-52.4l-12.87-62.44,23.08-47.98Z"/>
              <path class="cls-8" d="M131.82,211.13s-28.73,27.55-34.44,71.79c-3.65,28.25-2.71,52.77-2.71,52.77h73.06l3.68-18.92s34.08-11.16,54.96-42.4c0,0-11.18-44.41-26.57-57.06-15.39-12.65-67.96-6.17-67.96-6.17Z"/>
            </g>
            <g>
              <g>
                <path class="cls-14" d="M139.32,222.79c-11.39-1.57-18.54-3.45-18.54-3.45l-6.86,12.19c7.94,1.63,15.46,2.89,22.54,3.86,1.16-4.16,2.16-8.35,2.85-12.6Z"/>
                <path class="cls-14" d="M204.61,221.11c-20.99,4.79-38.93,4.34-55.02,2.86-.52,4.29-1.36,8.51-2.4,12.7,42.61,4.38,63.76-3.62,63.76-3.62l-6.35-11.94Z"/>
              </g>
              <g>
                <path class="cls-5" d="M134.25,296.31c.86.23,1.69.53,2.54.79.84.28,1.67.61,2.5.91.84.3,1.66.63,2.48.99l2.46,1.03c.83.33,1.62.73,2.43,1.11l2.4,1.16c.8.38,1.61.77,2.38,1.21l2.35,1.27,2.35,1.27c.79.41,1.54.89,2.3,1.35,1.52.93,3.05,1.83,4.56,2.78.38.24.76.46,1.13.71l1.1.76,2.2,1.52,4.39,3.04-.92.07c.89-.95,1.78-1.97,2.62-3,.86-1.02,1.67-2.08,2.48-3.14.82-1.06,1.57-2.16,2.37-3.23l2.27-3.31,2.14-3.39,2.01-3.47c.68-1.15,1.24-2.37,1.87-3.55.3-.6.62-1.18.91-1.79l.83-1.83.83-1.83.42-.91.37-.93,1.49-3.72c.46-1.25.85-2.53,1.28-3.8l.63-1.91.5-1.94,1.01-3.89.76-3.95c.12-.66.27-1.32.37-1.98l.22-2,.48-4.01-.21,4.03-.12,2.02c-.06.67-.18,1.34-.26,2l-.56,4.01c-.25,1.33-.57,2.64-.86,3.96l-.45,1.98-.57,1.94c-.39,1.29-.75,2.6-1.17,3.89l-1.39,3.82c-.43,1.29-1.03,2.5-1.56,3.75l-.82,1.86c-.28.62-.6,1.21-.9,1.82-.62,1.2-1.18,2.44-1.86,3.61l-2,3.54-2.13,3.46-2.26,3.37c-.8,1.1-1.59,2.19-2.42,3.26-.84,1.07-1.67,2.13-2.56,3.16-.87,1.04-1.77,2.05-2.73,3.05l-.41.43-.51-.36-4.33-3.06-2.16-1.53-1.08-.77c-.37-.25-.74-.48-1.12-.71-1.5-.94-2.97-1.92-4.46-2.87-.75-.48-1.47-.98-2.25-1.41l-2.29-1.33-2.29-1.33c-.76-.46-1.54-.87-2.33-1.27l-2.35-1.23c-.78-.41-1.55-.86-2.36-1.22l-2.39-1.15c-.79-.39-1.6-.77-2.41-1.11-1.62-.71-3.25-1.41-4.92-2.01Z"/>
                <path class="cls-5" d="M183.78,259.47c-.07,2.35-.32,4.69-.65,7.02-.33,2.33-.74,4.65-1.21,6.95-.99,4.6-2.24,9.15-3.69,13.63-.38,1.12-.73,2.24-1.14,3.35-.4,1.11-.81,2.21-1.24,3.31-.85,2.2-1.75,4.37-2.7,6.53-.94,2.16-1.94,4.29-2.98,6.41-.51,1.06-1.06,2.1-1.59,3.16-.54,1.05-1.1,2.08-1.67,3.12l-.18-.95,5.12,4.22-.5-.16c.94-.07,1.92-.17,2.87-.28.96-.11,1.92-.25,2.88-.39.96-.16,1.92-.29,2.88-.47.96-.18,1.91-.33,2.86-.54.95-.2,1.91-.37,2.85-.6l2.84-.65,2.83-.7,2.82-.77c.94-.25,1.87-.54,2.8-.83.93-.3,1.87-.56,2.78-.88l2.76-.95c.93-.3,1.83-.67,2.75-1,.91-.35,1.84-.66,2.73-1.04l2.7-1.12c.91-.36,1.79-.78,2.68-1.18l2.67-1.2c-1.73.9-3.43,1.88-5.21,2.7l-2.66,1.26c-.88.43-1.79.78-2.69,1.18-.91.37-1.79.8-2.71,1.13l-2.75,1.04c-.91.36-1.85.65-2.78.97-.93.32-1.85.64-2.79.92l-2.81.86-2.84.79c-.95.26-1.9.49-2.86.72-.95.24-1.92.43-2.88.64-.96.22-1.93.39-2.89.57-.96.19-1.94.34-2.9.51-.97.14-1.94.3-2.92.42-.98.13-1.95.24-2.96.32l-.28.02-.23-.18-5.16-4.17-.48-.39.3-.56,1.66-3.08c.53-1.04,1.09-2.06,1.61-3.11,1.05-2.09,2.06-4.19,3.02-6.32.97-2.13,1.88-4.28,2.74-6.45.87-2.17,1.68-4.36,2.48-6.55,1.57-4.4,2.95-8.87,4.07-13.42.58-2.26,1.11-4.55,1.55-6.85.22-1.15.42-2.3.6-3.46.18-1.15.35-2.32.46-3.48Z"/>
                <path class="cls-5" d="M136.79,239.66c-.54,2.7-1.26,5.37-2.09,8-.83,2.63-1.75,5.24-2.79,7.8-1.03,2.57-2.21,5.07-3.5,7.52-1.29,2.45-2.71,4.84-4.27,7.13-1.57,2.29-3.28,4.5-5.17,6.54-.94,1.03-1.94,2-2.98,2.93-1.04.93-2.12,1.82-3.26,2.64-2.26,1.65-4.71,3.06-7.3,4.16-1.3.54-2.63,1-3.98,1.39-1.36.37-2.74.66-4.13.88l.63-.67-.54,7.37-.87-.81c1.43-.25,2.92-.62,4.36-1.03,1.45-.42,2.88-.9,4.29-1.44,2.82-1.07,5.56-2.35,8.19-3.84,2.63-1.49,5.14-3.17,7.5-5.05,2.35-1.89,4.57-3.95,6.6-6.18,4.07-4.47,7.35-9.65,9.74-15.23.62-1.38,1.16-2.81,1.68-4.23.49-1.44.96-2.89,1.35-4.36.41-1.47.75-2.95,1.07-4.44.32-1.49.58-2.99.82-4.5-.16,1.52-.35,3.04-.59,4.55-.26,1.51-.54,3.01-.9,4.5-.34,1.49-.76,2.97-1.2,4.44-.47,1.46-.96,2.92-1.53,4.34-2.29,5.7-5.5,11.06-9.56,15.72-2.02,2.34-4.25,4.49-6.65,6.43-2.4,1.94-4.96,3.69-7.64,5.23-2.68,1.54-5.47,2.88-8.35,3.99-1.44.56-2.9,1.06-4.39,1.51-1.49.44-2.97.83-4.55,1.11l-.95.17.08-.98.6-7.36.05-.58.58-.09c1.33-.2,2.65-.46,3.95-.81,1.3-.36,2.57-.79,3.82-1.3,2.49-1.03,4.86-2.37,7.05-3.95,1.1-.78,2.15-1.64,3.17-2.54,1.02-.89,1.99-1.85,2.93-2.82,1.89-1.95,3.61-4.08,5.21-6.29,3.18-4.44,5.79-9.3,8.03-14.3,1.12-2.5,2.14-5.06,3.06-7.65.91-2.59,1.76-5.21,2.44-7.88Z"/>
                <path class="cls-16" d="M167.72,335.69s3.2-10.98,3.68-18.92"/>
              </g>
            </g>
          </g>
          <g>
            <g>
              <path class="cls-7" d="M148.32,19.27s.85-.16,2.45-.39c1.6-.23,3.96-.52,6.97-.76,3.01-.24,6.68-.41,10.9-.32,4.21.08,8.98.45,14.07,1.52,2.54.56,5.16,1.29,7.79,2.3,2.62,1.03,5.23,2.39,7.66,4.17,2.42,1.78,4.64,4.03,6.33,6.72.39.69.81,1.37,1.18,2.09.32.74.63,1.48.95,2.22.26.77.48,1.55.72,2.33.26.8.38,1.57.57,2.36,1.42,6.36,2.1,13.08,2.2,19.9.14,6.82-.32,13.73-.33,20.6-.05,6.85.5,13.78,2.86,20.08.56,1.58,1.27,3.09,2.02,4.58.41.72.79,1.46,1.22,2.16.45.7.86,1.39,1.33,2.1,1.84,2.78,3.58,5.6,5.18,8.42,3.22,5.64,5.89,11.35,7.83,17,.97,2.82,1.76,5.62,2.34,8.36.56,2.75.91,5.45,1.03,8.05.26,5.21-.53,10.03-2.02,13.99-1.49,3.97-3.56,7.09-5.52,9.38-.24.29-.48.57-.71.85-.25.26-.49.51-.73.75-.48.48-.9.95-1.33,1.34-.89.77-1.61,1.46-2.26,1.95-1.29.98-1.97,1.51-1.97,1.51,0,0,.67-.54,1.94-1.55.64-.5,1.34-1.21,2.21-1.99.43-.4.84-.88,1.3-1.36.23-.24.47-.5.71-.76.22-.28.45-.56.69-.86,1.9-2.32,3.89-5.45,5.27-9.4.66-1.98,1.24-4.14,1.5-6.46.29-2.32.43-4.79.25-7.35-.15-2.56-.53-5.22-1.11-7.93-.6-2.71-1.41-5.46-2.4-8.24-1.98-5.56-4.7-11.19-7.9-16.78-1.61-2.8-3.33-5.57-5.18-8.34-.46-.68-.91-1.42-1.36-2.13-.45-.72-.84-1.48-1.26-2.22-.77-1.52-1.5-3.07-2.09-4.69-2.45-6.47-3.03-13.55-3-20.46.05-6.93.52-13.81.41-20.58-.08-6.76-.73-13.41-2.1-19.69-.19-.78-.32-1.6-.56-2.33-.23-.75-.43-1.51-.68-2.25-.3-.72-.6-1.43-.9-2.14-.35-.69-.74-1.34-1.11-2.01-1.6-2.6-3.7-4.79-6.03-6.54-2.33-1.75-4.87-3.11-7.43-4.15-2.57-1.02-5.15-1.77-7.65-2.36-5.03-1.09-9.76-1.57-13.95-1.73-4.19-.18-7.86-.08-10.87.1-3.01.17-5.37.42-6.98.61-1.6.19-2.46.33-2.46.33Z"/>
              <path class="cls-7" d="M140.85,33.09l8.05-15.76s51.76-7.59,58.09,22.19c6.33,29.78-5.75,50.21,7.48,71.23s27.03,53.71.57,71.81c-26.46,18.1-76.5-56.63-74.2-149.46Z"/>
            </g>
            <g>
              <g>
                <g>
                  <path class="cls-3" d="M189.72,120s14.63-5.71,18.61,7.97c3.98,13.68,10.06,36.95,19.22,56.86,10.76,23.39,21.84,46.66,2.23,52.88-11.02,3.5-32.48-39.77-32.48-39.77l-7.58-77.94Z"/>
                  <path class="cls-2" d="M209.42,181.32c-.6-9.28-2.51-6.45-7.59-14.24-2.3,1.81-4.64,3.57-7.02,5.29l2.49,25.58s3.3,7.14,7.97,15.6c2.68-6.68,6.95-17.49,4.15-32.22Z"/>
                </g>
                <path class="cls-3" d="M232.64,236.3s10.72-2.47,7.42-18.14c-3.3-15.67-14.63-14.66-30.3-.64-15.67,14.02-27.05,27.82-27.05,27.82l.05,4.98s31.33-.82,49.89-14.02Z"/>
              </g>
              <g>
                <g>
                  <path class="cls-3" d="M108.84,165.27s3.66,34.96,16.86,52.07c0,0,41.53,16.01,76.71,1.87l-10.02-40.93-16.12-35.71-67.42,22.69Z"/>
                  <path class="cls-2" d="M188.97,191.39c-11.61-.25-23.42-.99-34.49-4.8-10.82-3.73-20.94-9.37-30.65-15.37-3.75-2.32-7.69-4.56-11.25-7.2l-3.74,1.26s3.66,34.96,16.86,52.07c0,0,41.53,16.01,76.71,1.87l-7.37-31.41c-1.75.06-4.3,3.61-6.06,3.57Z"/>
                </g>
                <g>
                  <path class="cls-3" d="M136.22,71.27s9.89,39.61,0,44.08c-9.89,4.46-31.33-10.6-41.22,27.34-9.89,37.94,102.78,35.15,110.48,15.06,7.7-20.09,0-40.73-10.44-39.06s-30.78,10.04-30.23-16.18c.55-26.22-14.29-48.54-28.58-31.24Z"/>
                  <path class="cls-2" d="M143.37,99.12c2.71,4.6,5.95,9.23,10.26,12.44,4.19,3.12,9.5,4.59,14.65,5.4-2.27-2.85-3.63-7.4-3.48-14.44.55-26.22-14.29-48.54-28.58-31.24,0,0,2.66,10.67,3.84,21.56,1.01,2.15,2.11,4.25,3.31,6.29Z"/>
                </g>
              </g>
              <g>
                <g>
                  <path class="cls-3" d="M127.43,126.51s-15.12-9.76-25.56,1.95c-10.44,11.72-47.36,115.77-20.61,112.14,13.59-1.84,41.86-69.09,52.03-89.73,10.17-20.64-5.86-24.36-5.86-24.36Z"/>
                  <path class="cls-2" d="M93.26,228.96c6.82-8.54,14.85-23.45,22.33-38.63-4.31-.69-3.68,2.67-4.43-1.82-.3-1.81-13.02,20.38-24.25,24.5,2.2,5.28,4.32,10.6,6.35,15.95Z"/>
                </g>
                <path class="cls-17" d="M81.26,240.61c13.59-1.84,30.51-43.43,40.67-64.07"/>
              </g>
            </g>
            <g>
              <g>
                <g>
                  <path class="cls-4" d="M184.59,120.74s8.34,43.5-11.78,66.42l.06,19.12s17.95,6.69,30.41-6.69c14.77-15.87,0-39.8-12.46-50.21,0,0-2.1-14.62-1.1-29.38l-5.13.74Z"/>
                  <path class="cls-10" d="M206.65,170.9c-.44,1.83-.99,3.62-1.66,5.34-2.41,6.14-6.75,11.59-12.22,15.19-5.86,3.85-12.4,5.08-19.28,4.03-.1-.02-.2-.04-.3-.05l-3.07,10.48s20.35,8.77,33.16-6.29c7.42-8.72,7.36-19,3.38-28.7Z"/>
                </g>
                <g>
                  <g>
                    <path class="cls-3" d="M157.11,165.01s29.85,15.79,14.06,37.37c-13.29,18.16-48.25,12.28-49.24-25.84l-7.75-8.52"/>
                    <path class="cls-11" d="M157.11,165.01c2.24,1.15,4.37,2.51,6.39,4.02,2.02,1.51,3.95,3.16,5.7,5,1.75,1.84,3.3,3.88,4.55,6.13,1.23,2.24,2.14,4.71,2.5,7.29.35,2.57.15,5.24-.59,7.73-.73,2.5-1.93,4.83-3.38,6.96-.19.27-.35.52-.56.8l-.57.75c-.42.51-.84,1.02-1.28,1.49-.88.95-1.85,1.82-2.88,2.62-2.05,1.59-4.36,2.85-6.8,3.74-4.88,1.78-10.29,2.01-15.31.78-2.51-.62-4.94-1.58-7.18-2.88-2.23-1.31-4.29-2.91-6.08-4.76-.9-.92-1.74-1.9-2.52-2.92-.77-1.03-1.47-2.11-2.11-3.22-1.27-2.23-2.3-4.58-3.09-7-1.58-4.85-2.26-9.94-2.27-14.98l.08.2-3.77-4.35c-1.26-1.45-2.5-2.91-3.75-4.37,1.33,1.38,2.68,2.75,4,4.14l3.98,4.17.07.08v.12c.13,2.5.41,4.98.83,7.44.43,2.45,1.04,4.87,1.88,7.2,1.64,4.67,4.23,9.01,7.7,12.47,1.73,1.73,3.7,3.22,5.82,4.43,2.13,1.19,4.41,2.1,6.78,2.67,4.74,1.14,9.8.88,14.38-.75,2.29-.82,4.45-1.99,6.38-3.47.96-.74,1.87-1.56,2.71-2.43.42-.44.81-.89,1.2-1.35l.58-.74.53-.73c1.41-2,2.57-4.18,3.28-6.5.72-2.31,1-4.76.74-7.18-.26-2.42-1.05-4.77-2.17-6.96-1.13-2.19-2.6-4.2-4.23-6.08-1.63-1.88-3.45-3.6-5.39-5.19-1.94-1.58-3.98-3.06-6.14-4.35Z"/>
                  </g>
                  <path class="cls-2" d="M169.99,195.49c-13.95,12.56-37.53,8.57-47.2-10.54,5.53,30.47,36.14,34.16,48.38,17.43,3.61-4.93,4.83-9.56,4.57-13.76-1.37,2.32-3.25,4.62-5.75,6.87Z"/>
                  <g>
                    <path class="cls-3" d="M171.5,163.59s-1.83,4.09-.37,13.76"/>
                    <path class="cls-11" d="M170.18,175.28c.02.32.04.62.05.88.23.22.43.5.59.75.09.15.18.3.27.45l1.36,1.71s-.65-2.69-.88-3.95c-.06-.32-.12-.66-.19-1.02-.06-.36-.09-.75-.14-1.15-.05-.4-.09-.81-.14-1.23-.02-.21-.05-.42-.07-.64l-.03-.64c-.02-.43-.04-.86-.06-1.28-.03-.43,0-.84,0-1.24.01-.4.01-.8.04-1.17.04-.37.07-.72.1-1.04.02-.32.09-.61.13-.87.04-.26.08-.49.13-.67.09-.37.16-.57.16-.57,0,0-.1.19-.23.55-.07.18-.14.4-.21.65-.07.26-.17.54-.24.86-.07.32-.15.67-.23,1.04-.07.37-.12.76-.18,1.17-.05.41-.14.83-.15,1.26-.03.43-.06.87-.1,1.31l-.05.66c0,.22,0,.44,0,.65,0,.43,0,.86,0,1.27,0,.41-.01.82,0,1.19.02.38.05.74.07,1.07Z"/>
                  </g>
                </g>
                <g>
                  <path class="cls-4" d="M81.33,172.66s16.84,10.53,40.47,12.4c0,0,.23,11.23,3.04,14.74l-7.49,2.34-4.21-9.12s-18.25-4.44-33.22-15.21l1.4-5.15Z"/>
                  <path class="cls-10" d="M122.56,185c-2.95-.23-6.52-.55-9.26-1.01-1.44,2.7-3.27,5.15-5.16,7.56,3.09.99,5,1.46,5,1.46l4.21,9.12,10.29-2.92c-2.81-3.51-5.09-14.21-5.09-14.21Z"/>
                </g>
              </g>
              <g>
                <g>
                  <g>
                    <path class="cls-4" d="M171.7,185.46s-4.98-10.33-15.32-7.01c-10.34,3.32-21.83,29.53-4.98,36.17,16.85,6.64,29.1-18.45,20.3-29.16Z"/>
                    <path class="cls-12" d="M156.67,207.95c-11.28-4.45-9.86-17.65-4.59-26.9-8.68,7.64-15.18,27.85-.67,33.57,8.92,3.52,16.55-1.86,20.45-9.29-4.05,3.41-9.34,4.92-15.19,2.62Z"/>
                    <path class="cls-15" d="M171.7,185.46s-.12-.22-.38-.6c-.25-.39-.67-.93-1.2-1.6-.57-.64-1.26-1.42-2.19-2.16-.93-.72-2.03-1.48-3.37-2-1.33-.51-2.86-.8-4.48-.74-.4.04-.81.1-1.22.15-.41.03-.82.15-1.23.27-.4.12-.86.21-1.21.35-.43.17-.86.34-1.21.55-1.51.8-2.93,2.05-4.19,3.44-1.26,1.4-2.39,2.98-3.35,4.65-.98,1.66-1.81,3.41-2.47,5.2-.65,1.79-1.16,3.59-1.45,5.37-.28,1.78-.37,3.53-.22,5.17.15,1.63.54,3.15,1.1,4.47.55,1.33,1.35,2.4,2.1,3.29.41.42.78.84,1.19,1.15.4.32.75.64,1.13.85.36.23.68.45.96.62.3.16.55.29.75.4.41.22.63.33.63.33,0,0-.23-.09-.66-.26-.22-.08-.49-.19-.8-.31-.31-.14-.65-.33-1.04-.53-.4-.19-.79-.48-1.23-.77-.46-.28-.87-.68-1.34-1.08-.88-.86-1.83-1.93-2.49-3.32-.69-1.37-1.21-2.97-1.44-4.71-.24-1.74-.24-3.6.02-5.49.26-1.89.71-3.81,1.39-5.68.67-1.87,1.52-3.72,2.54-5.47,1.03-1.74,2.22-3.39,3.58-4.87,1.36-1.48,2.9-2.75,4.69-3.66.46-.25.89-.4,1.32-.56.5-.18.93-.24,1.4-.36.45-.11.9-.21,1.36-.23.46-.03.9-.08,1.35-.1,1.79,0,3.45.44,4.85,1.07,1.41.63,2.5,1.54,3.4,2.37.89.85,1.53,1.7,2.05,2.4.49.72.83,1.32,1.04,1.73.22.41.31.64.31.64Z"/>
                  </g>
                  <g>
                    <path class="cls-3" d="M80.16,242.74s-9.53-5.58-8.06-16.74c1.47-11.16,13.56-16.74,29.68-19.71,16.12-2.98,32.61-8.93,32.61-8.93,0,0,27.66-19.56,8.06,1.49,0,0-.37,4.46,16.49,15.62,0,0,10.26-5.21,15.02-2.6,0,0-8.06,5.58-14.29,7.07s9.89-7.07,13.19-4.46c0,0-11.73,8.55-19.05,8.55s13.92-5.58,17.95-2.23c0,0-18.43,5.61-21.62,4.46-6.23-2.23-18.32-11.9-18.32-11.9,0,0-36.28,34.96-51.67,29.38Z"/>
                    <g>
                      <path class="cls-11" d="M80.16,242.74c2.43.83,5.07.64,7.54.09,2.48-.56,4.87-1.49,7.17-2.56,4.61-2.16,8.93-4.89,13.1-7.81,4.16-2.93,8.2-6.04,12.11-9.3,3.91-3.26,7.74-6.64,11.4-10.15l.31-.29.34.26c2.89,2.25,5.85,4.42,8.88,6.46.76.52,1.53,1.01,2.29,1.51.77.48,1.54.98,2.33,1.43.78.47,1.58.9,2.38,1.31.41.19.81.4,1.22.58.4.16.84.35,1.22.48.29.08.76.09,1.19.08.43-.01.88-.05,1.32-.1.89-.1,1.79-.25,2.68-.42,1.79-.34,3.57-.75,5.35-1.18,3.55-.88,7.09-1.87,10.6-2.92l-.22,1.07c-.2-.15-.43-.28-.7-.39-.27-.11-.56-.19-.86-.26-.6-.13-1.23-.2-1.87-.24-1.28-.07-2.59,0-3.89.11l-3.03.26,2.68-1.45c.75-.41,1.52-.78,2.26-1.22.75-.42,1.49-.85,2.22-1.3.73-.45,1.46-.91,2.17-1.38.72-.47,1.43-.96,2.12-1.45l-.02,1.04c-.18-.14-.46-.24-.78-.29-.32-.05-.67-.06-1.02-.05l-2.43.09,2.06-1.31c1.1-.7,2.23-1.37,3.29-2.1l.06,1.13-.38-.18-.4-.15c-.28-.08-.56-.16-.86-.2-.29-.05-.59-.09-.9-.1-.3-.02-.61-.02-.92-.01-1.24.05-2.5.26-3.74.57-1.24.31-2.46.7-3.67,1.15-.6.23-1.2.46-1.79.72-.59.25-1.19.52-1.75.8l-.34.17-.3-.2-2.39-1.63c-.8-.53-1.57-1.12-2.36-1.68-.79-.56-1.55-1.16-2.32-1.75-.78-.58-1.51-1.21-2.27-1.82-.38-.3-.74-.63-1.1-.95-.36-.33-.73-.64-1.09-.98l-1.05-1.02c-.35-.34-.68-.71-1.01-1.06-.34-.35-.65-.75-.97-1.12-.31-.39-.61-.78-.9-1.19l-.41-.63-.37-.68c-.1-.25-.23-.47-.31-.74-.04-.13-.09-.26-.12-.41-.03-.16-.06-.26-.06-.53v-.18s.15-.16.15-.16c1.63-1.84,3.23-3.7,4.7-5.64.36-.49.72-.98,1.05-1.48.33-.5.64-1.01.85-1.51.11-.23.16-.53.14-.56-.02,0,.08.11.07.09,0,0-.11-.02-.22,0-.47.06-1.05.28-1.58.52-1.09.49-2.15,1.09-3.2,1.71-1.05.62-2.09,1.28-3.11,1.95-2.05,1.34-4.08,2.74-6.06,4.18l-.06.04-.06.02c-4.18,1.45-8.39,2.75-12.63,3.98-2.12.6-4.25,1.19-6.39,1.74-2.14.54-4.28,1.06-6.44,1.53-1.08.25-2.16.46-3.24.68-1.08.23-2.17.42-3.25.62l-3.25.6c-1.08.23-2.15.44-3.22.7-1.07.25-2.14.51-3.2.81-1.07.27-2.11.63-3.16.94-1.03.37-2.09.71-3.1,1.14-1.03.39-2.02.87-3.02,1.33.99-.48,1.97-.98,3-1.39,1.01-.45,2.05-.81,3.08-1.2,1.05-.34,2.09-.72,3.15-1.01,1.05-.32,2.12-.6,3.19-.88,1.07-.28,2.15-.51,3.22-.76l3.24-.67c1.08-.23,2.16-.43,3.23-.68,1.07-.24,2.15-.48,3.22-.75,2.14-.51,4.27-1.07,6.39-1.65,2.13-.57,4.24-1.18,6.35-1.81,4.21-1.27,8.41-2.62,12.54-4.1l-.11.06c1.98-1.48,3.99-2.91,6.04-4.3,1.03-.69,2.06-1.37,3.12-2.02,1.06-.65,2.13-1.28,3.29-1.82.59-.26,1.16-.53,1.92-.64.2-.02.41-.04.7.06.29.06.63.43.66.74.09.58-.08.9-.19,1.23-.27.64-.6,1.18-.94,1.71-.35.53-.71,1.04-1.08,1.54-1.5,2-3.11,3.87-4.74,5.73l.15-.34s.01.1.04.18c.01.09.05.19.08.28.05.19.17.39.25.59l.32.59.38.57c.26.38.55.75.84,1.11.31.35.6.72.93,1.06.33.34.65.69.98,1.02l1.03.98c.34.33.71.63,1.06.95.36.31.71.63,1.08.93.74.6,1.47,1.22,2.24,1.79.76.58,1.51,1.17,2.3,1.72.78.55,1.54,1.13,2.34,1.66l2.38,1.61-.64-.04c.61-.3,1.21-.57,1.82-.84.61-.26,1.22-.51,1.85-.75,1.24-.47,2.51-.88,3.81-1.21,1.3-.33,2.63-.56,4.01-.62.34,0,.69-.01,1.04,0,.35.01.7.05,1.05.11.35.05.7.14,1.05.25.35.11.69.26,1.02.43l.97.51-.91.62c-1.11.76-2.25,1.42-3.37,2.13l-.36-1.22c.42-.01.85,0,1.3.07.44.08.93.22,1.36.56l.69.53-.71.51c-.72.51-1.44,1-2.17,1.48-.73.48-1.47.94-2.22,1.39-.74.45-1.5.89-2.26,1.32-.76.44-1.54.82-2.31,1.24l-.34-1.2c1.35-.11,2.7-.17,4.07-.09.69.04,1.38.12,2.08.27.35.08.7.18,1.05.32.35.14.7.33,1.03.59l.92.73-1.13.34c-3.54,1.05-7.09,2.03-10.67,2.9-1.79.43-3.59.84-5.42,1.18-.91.17-1.83.32-2.77.42-.47.05-.94.09-1.42.1-.5,0-.96.01-1.55-.14-.49-.17-.89-.36-1.34-.53-.43-.2-.85-.41-1.27-.61-.83-.43-1.65-.88-2.44-1.36-.81-.46-1.58-.97-2.36-1.46-.77-.51-1.54-1.02-2.3-1.54-3.04-2.1-5.98-4.31-8.87-6.61l.64-.03c-3.74,3.5-7.61,6.84-11.57,10.07-3.97,3.22-8.04,6.33-12.28,9.18-4.25,2.84-8.64,5.5-13.32,7.58-2.34,1.02-4.76,1.91-7.27,2.43-1.25.26-2.53.41-3.81.4-1.28-.01-2.56-.2-3.76-.64Z"/>
                      <path class="cls-11" d="M158.65,218.28s.78-.37,1.95-.93c1.17-.56,2.74-1.3,4.32-2.01,1.58-.73,3.17-1.43,4.41-1.9.32-.11.6-.22.86-.31.27-.08.51-.16.7-.22.43-.1.7-.14.7-.14l.08,1.67s-.17,0-.48.02c-.17.02-.39.05-.63.09-.25.05-.53.11-.84.17-1.24.28-2.9.76-4.55,1.28-1.64.53-3.28,1.1-4.5,1.54-1.22.44-2.03.75-2.03.75Z"/>
                    </g>
                  </g>
                </g>
                <g>
                  <g>
                    <g>
                      <path class="cls-4" d="M164.87,191.27s-9.43,5.59-1.75,14.32c0,0,4.19-1.4,14.32-.35,10.13,1.05,10.48-9.78,2.1-10.13-8.38-.35-7.68.7-14.67-3.84Z"/>
                      <path class="cls-15" d="M164.87,191.27c-.59.39-1.12.85-1.63,1.33-.5.49-.97,1.01-1.37,1.58-.4.57-.75,1.17-1.01,1.81-.13.32-.25.65-.32.98-.09.33-.15.67-.18,1.01-.04.34-.04.68-.04,1.02.03.34.05.68.12,1.02.04.34.15.67.24,1,.12.32.22.65.37.96.13.32.3.62.47.92.16.3.37.58.55.88.2.28.41.55.62.83l.67.79-.32-.08c1.04-.31,2.06-.45,3.09-.57.52-.07,1.03-.08,1.55-.13.52-.05,1.04-.07,1.55-.07l1.55-.03c.52,0,1.03.03,1.55.04l1.55.05,1.55.12c1.04.08,2.05.17,3.07.22.97.02,1.99-.07,2.92-.35.93-.28,1.81-.76,2.48-1.45.33-.34.6-.74.82-1.16.2-.43.33-.89.39-1.36.1-.94-.13-1.92-.65-2.72-.51-.81-1.3-1.43-2.18-1.84-.88-.42-1.88-.6-2.87-.65l-3.08-.12c-1.02-.02-2.05-.06-3.09-.12-.52-.04-1.04-.14-1.55-.21-.5-.16-1.01-.28-1.49-.48-.47-.23-.94-.44-1.4-.68l-1.33-.8c-.88-.54-1.72-1.14-2.57-1.71ZM164.87,191.27c.89.52,1.76,1.06,2.65,1.57l1.35.74c.46.22.93.41,1.4.61.48.17.97.27,1.46.41.51.05,1,.12,1.51.15,1.02.03,2.04.04,3.08.04l3.09.04c1.05.03,2.13.19,3.12.63.99.43,1.89,1.13,2.48,2.06.61.92.89,2.05.78,3.15-.06.55-.21,1.09-.44,1.59-.24.5-.56.96-.94,1.36-.76.8-1.75,1.34-2.78,1.66-1.04.32-2.1.43-3.18.39-1.04-.06-2.07-.16-3.08-.24l-1.53-.13-1.53-.06c-.51-.02-1.02-.05-1.53-.05l-1.53.02c-.51,0-1.02.02-1.53.06-.51.04-1.02.05-1.52.11-1,.12-2.04.23-2.98.48l-.2.06-.11-.14-.67-.83c-.21-.29-.42-.58-.62-.88-.18-.31-.39-.6-.55-.93-.17-.32-.33-.64-.46-.97-.15-.33-.25-.68-.37-1.02-.09-.35-.19-.7-.23-1.06-.06-.36-.08-.72-.1-1.08,0-.36.02-.72.07-1.08.05-.36.13-.71.24-1.05.1-.35.23-.68.38-1.01.3-.65.68-1.26,1.11-1.82.88-1.12,1.95-2.07,3.16-2.79Z"/>
                    </g>
                    <g>
                      <polygon class="cls-4" points="177.44 197.56 176.74 214.32 186.18 216.07 188.97 194.06 178.14 191.97 177.44 197.56"/>
                      <path class="cls-15" d="M188.97,194.06c-.91-.12-1.82-.26-2.73-.4-.91-.14-1.82-.28-2.72-.43-1.81-.31-3.63-.59-5.44-.94l.39-.29-.65,5.59v-.03s-.2,4.19-.2,4.19c-.08,1.4-.12,2.79-.23,4.19l-.28,4.19c-.12,1.39-.22,2.79-.36,4.18-.03-1.4,0-2.8-.01-4.2l.07-4.2c.01-1.4.08-2.8.12-4.19l.14-4.19v-.02s0-.02,0-.02l.74-5.58.05-.35.35.07c1.81.35,3.59.77,5.39,1.16.9.19,1.79.4,2.69.62.9.21,1.79.42,2.68.65Z"/>
                    </g>
                  </g>
                  <g>
                    <g>
                      <path class="cls-9" d="M176.39,209.78s-8.03.35-10.13,9.78c-2.1,9.43-5.25,37.43-2.8,38.83s15.65,7.24,26.48,3.05c0,0,3.92-1.01,6.01-20.57,1.34-12.47,1.23-17.15,1.23-17.15,0,0,1.24-12.57-10.29-12.57,0,0-4.56,3.18-10.5-1.36Z"/>
                      <path class="cls-1" d="M176.39,209.78s-8.03.35-10.13,9.78c-2.1,9.43-5.25,37.43-2.8,38.83s15.65,7.24,26.48,3.05c0,0,3.92-1.01,6.01-20.57,1.34-12.47,1.23-17.15,1.23-17.15,0,0,1.24-12.57-10.29-12.57,0,0-4.56,3.18-10.5-1.36Z"/>
                    </g>
                    <path class="cls-6" d="M186.9,211.14s-3.08,2.14-7.48.39c-5.15,5.56-4.93,15.7-5.24,22.62-.41,9.03-1.13,18.3-2.86,27.29,5.31,1.49,12.36,2.42,18.63,0,0,0,3.92-1.01,6.01-20.57,1.34-12.47,1.23-17.15,1.23-17.15,0,0,1.24-12.57-10.29-12.57Z"/>
                  </g>
                </g>
              </g>
              <g>
                <g>
                  <path class="cls-3" d="M221.84,211.82s-3.65-1.45-16.65,11.28c-13,12.73-18.16,14.22-18.16,14.22,0,0-6.71-4.36-12.25-7.41-6.72-3.7.45,4.87,3.91,7.84-4.64.66-18.55,2.91-18.55,6.44,0,3.14,1.42,3.34,2.14,3.24,0,0,0,.02,0,.02-.51.22-1.33.75-1.35,1.95-.03,1.76,2.15,2.46,2.15,2.46,0,0-1.79-.38-1.66,1.2.06.7.82,1.35,1.64,1.84-.78.24-2.78,1.15.07,3.82,3.44,3.23,29.24,4.2,72.64-23.79l-13.94-23.11Z"/>
                  <path class="cls-2" d="M191.83,256.21c-7.89,2.27-14.43,2.73-20.88,1.14-3.61-.89-1.96-4.41-1.96-4.41-3.25-.96-1.42-4.28-1.42-4.28-3.14-1.67-.88-4.15-.88-4.15-2.1-1.93-.26-3.35.42-4.46-3.81,1.07-6.97,2.46-6.96,4.14,0,3.14,1.42,3.34,2.14,3.24,0,0,0,.02,0,.02-.51.22-1.33.75-1.35,1.95-.03,1.76,2.15,2.46,2.15,2.46,0,0-1.79-.38-1.66,1.2.06.7.82,1.35,1.64,1.84-.78.24-2.78,1.15.07,3.82,2.04,1.92,11.95,3.03,28.74-2.21-.02-.1-.03-.2-.05-.29Z"/>
                </g>
                <path class="cls-11" d="M221.84,211.82c-.91-.11-1.81.16-2.66.45-.43.13-.84.35-1.26.52-.4.2-.81.41-1.21.62l-1.18.68-1.14.74c-.75.51-1.49,1.04-2.21,1.59-.71.57-1.44,1.11-2.12,1.71-.69.59-1.39,1.17-2.05,1.79-.67.62-1.35,1.22-1.99,1.86l-1.96,1.91-3.92,3.81c-.66.63-1.35,1.23-2.02,1.85l-2.03,1.84-2.09,1.78c-.69.6-1.42,1.16-2.14,1.72-.71.58-1.47,1.11-2.22,1.63-.37.27-.77.51-1.17.76-.2.12-.39.25-.61.36-.22.11-.4.22-.68.33l-.21.08-.21-.13c-.99-.63-2-1.25-3-1.87-1-.63-2.01-1.22-3.02-1.83-1.01-.6-2.02-1.22-3.05-1.79l-3.06-1.75c-.51-.29-1.01-.54-1.52-.74-.24-.09-.51-.17-.66-.17-.03,0-.05,0-.03,0,.02,0,.08-.04.12-.1.07-.12.02-.09.05,0,.08.38.4.91.7,1.37.31.47.66.93,1.02,1.39.72.91,1.49,1.79,2.29,2.64.8.85,1.63,1.68,2.49,2.42l1.01.87-1.32.19c-2.03.29-4.06.64-6.07,1.03-2.01.4-4.01.86-5.96,1.43-.97.29-1.94.61-2.86.99-.46.19-.91.4-1.34.63-.42.23-.83.49-1.16.78-.33.29-.56.62-.59.88v.09s0,.19,0,.19l.02.38c.02.22.04.44.09.67.08.44.24.85.46,1.07.21.23.47.31.82.27l.58-.07.15.54v.02s.17.57.17.57l-.54.22c-.35.15-.63.38-.78.67-.08.14-.13.31-.15.49,0,.04,0,.09-.01.14v.04s0,.02,0,.02h0s0,.06,0-.04h0s0,.1,0,.1v.19c.02.06.03.07.04.1.02.12.1.3.19.45.1.15.23.29.38.42.15.13.33.25.51.36.09.05.19.1.29.15.09.04.21.09.28.11l-.33,1.25s-.14-.02-.21-.02c-.08,0-.15,0-.22,0-.14.01-.26.05-.32.08-.06.04-.08.06-.11.13-.01.03-.02.09-.03.14,0,.05,0,.16,0,.18.02.15.01.07.04.16.02.05.05.11.09.17.08.12.18.24.31.36.25.24.56.46.89.66l1.22.75-1.36.4c-.34.1-.66.27-.81.46-.15.18-.18.34-.1.64.17.58.78,1.26,1.35,1.76.51.39,1.35.68,2.14.86.81.19,1.65.31,2.49.38,3.39.28,6.86-.01,10.26-.52,3.42-.51,6.79-1.3,10.13-2.2,3.34-.91,6.64-1.99,9.9-3.19,3.26-1.2,6.47-2.52,9.64-3.94,3.17-1.42,6.3-2.94,9.4-4.51,6.2-3.15,12.22-6.65,18.14-10.31-5.78,3.88-11.75,7.49-17.88,10.82-3.06,1.67-6.18,3.23-9.34,4.71-3.16,1.47-6.37,2.85-9.63,4.11-3.26,1.26-6.57,2.39-9.93,3.37-3.36.97-6.78,1.76-10.25,2.31-3.47.53-6.99.86-10.55.58-.89-.08-1.78-.19-2.67-.4-.44-.1-.89-.22-1.33-.39-.45-.18-.87-.36-1.33-.71-.38-.33-.68-.64-.99-1.02-.3-.37-.59-.79-.76-1.34-.08-.27-.12-.6-.07-.93.06-.33.22-.65.42-.89.42-.47.92-.69,1.4-.85l-.14,1.15c-.38-.23-.76-.49-1.12-.83-.18-.17-.35-.36-.5-.59-.07-.12-.15-.24-.2-.39-.05-.1-.12-.39-.12-.45-.02-.18-.02-.29-.02-.45.01-.15.03-.31.09-.47.1-.33.36-.65.66-.82.3-.18.6-.24.87-.27.14-.01.27-.01.4,0,.14,0,.25.02.41.05l-.33,1.25c-.17-.06-.28-.11-.42-.17-.13-.06-.26-.13-.38-.19-.25-.14-.49-.31-.72-.5-.23-.2-.44-.42-.62-.69-.17-.28-.32-.55-.39-.93-.02-.09-.04-.2-.05-.26v-.19s-.02-.09-.02-.09v-.08s0-.03,0-.03v-.06c0-.08,0-.16.02-.24.04-.32.13-.64.29-.94.32-.61.87-1.03,1.44-1.27l-.38.8v-.02s.72.47.72.47c-.34.05-.7.04-1.06-.08-.36-.11-.69-.34-.92-.6-.49-.54-.66-1.16-.77-1.72-.06-.28-.08-.57-.11-.87v-.39s-.02-.19-.02-.19c0-.12,0-.2.02-.3.12-.78.59-1.3,1.02-1.69.45-.39.92-.68,1.41-.94.48-.26.97-.48,1.46-.68.99-.4,1.99-.73,2.99-1.02,2.01-.58,4.04-1.03,6.08-1.43,2.04-.39,4.08-.73,6.14-1.01l-.31,1.06c-.92-.8-1.76-1.65-2.57-2.53-.81-.88-1.6-1.78-2.34-2.73-.37-.48-.73-.96-1.07-1.48-.33-.53-.67-1.01-.86-1.79-.03-.2-.09-.49.14-.86.12-.18.32-.3.48-.35.16-.05.29-.06.4-.06.44.02.74.14,1.05.25.59.23,1.15.52,1.66.81l3.08,1.78c1.03.59,2.03,1.22,3.04,1.84,1.01.62,2.02,1.24,3.01,1.88,1,.64,1.99,1.27,2.98,1.92l-.41-.05c.15-.06.36-.17.55-.26.19-.09.38-.21.57-.32.38-.23.77-.45,1.13-.71.75-.5,1.49-1.01,2.2-1.57.72-.55,1.45-1.08,2.14-1.67l2.1-1.73,2.04-1.8c.68-.6,1.37-1.2,2.03-1.81l3.99-3.73,2.01-1.86c.66-.63,1.36-1.22,2.05-1.82.68-.61,1.4-1.18,2.11-1.75.7-.59,1.45-1.12,2.17-1.67.74-.54,1.49-1.05,2.26-1.54l1.17-.72,1.21-.65c.41-.2.83-.39,1.24-.58.43-.16.84-.36,1.29-.48.86-.27,1.78-.51,2.69-.37Z"/>
              </g>
            </g>
          </g>
          <g>
            <g>
              <g>
                <path class="cls-3" d="M165.58,29.49s-35.08-12-32.21,32.95c2.88,45.04,27.73,49.34,36.81,48.88,10.93-.55,24.16-19.22,23.58-38.44-.77-25.82-3.45-38.99-28.18-43.39Z"/>
                <path class="cls-3" d="M134.52,71.03s-4.6-11.09-10.93-3.5c-6.33,7.59,8.05,26.86,16.1,16.93,8.05-9.93-5.18-13.43-5.18-13.43Z"/>
              </g>
              <g>
                <path class="cls-14" d="M175.94,17.32s-2.3,42.91-36.81,51.67c0,0,.29,30.94-4.6,2.04,0,0-4.98-9.24-10.35-2.04-5.48,7.35,8.15,20.24,13.9,17.32,0,0,17.01,51.74-3.46,61.97-13.94,6.97-27.43-35.98-46.85,10.08,0,0-17.65-19.02,1.33-41.79,15.77-18.91,28.76-28.61,28.18-64.81-.57-36.2,22.14-44.08,58.67-34.45h0Z"/>
                <path class="cls-14" d="M141.4,72.02s1.03-.23,2.74-.89c.85-.34,1.88-.77,3.01-1.35,1.13-.59,2.4-1.28,3.7-2.14,1.3-.87,2.69-1.85,4.04-3.03.7-.56,1.35-1.21,2.05-1.84.65-.68,1.36-1.33,1.99-2.07,1.33-1.43,2.55-3.04,3.74-4.7,1.14-1.7,2.25-3.46,3.19-5.31l.71-1.38.64-1.41c.21-.47.43-.94.63-1.41.19-.48.38-.96.56-1.43.39-.94.71-1.9,1.03-2.85.16-.47.31-.95.47-1.41.13-.48.27-.95.4-1.42.27-.93.53-1.85.72-2.77.2-.91.43-1.8.6-2.68.32-1.76.64-3.41.82-4.96.1-.77.21-1.51.29-2.21.06-.71.12-1.38.18-2.01.06-.63.11-1.22.16-1.76.03-.55.05-1.05.08-1.5.09-1.81.14-2.85.14-2.85l2.38.11s-.09,1.06-.25,2.91c-.04.46-.09.97-.13,1.53-.07.56-.15,1.16-.23,1.8-.08.64-.17,1.32-.26,2.04-.11.72-.25,1.47-.38,2.25-.24,1.57-.63,3.26-1.02,5.04-.2.89-.47,1.79-.71,2.72-.23.93-.54,1.86-.84,2.81-.15.47-.31.95-.46,1.43-.18.47-.35.95-.53,1.43-.36.96-.72,1.93-1.16,2.88-.21.48-.42.96-.63,1.44-.22.48-.46.95-.7,1.42l-.71,1.42-.78,1.39c-1.03,1.86-2.22,3.61-3.44,5.31-1.28,1.65-2.57,3.25-3.97,4.65-.67.73-1.41,1.37-2.09,2.03-.73.62-1.41,1.25-2.14,1.8-1.41,1.14-2.85,2.09-4.19,2.92-1.35.83-2.64,1.48-3.8,2.03-1.16.54-2.21.94-3.07,1.25-1.74.61-2.78.8-2.78.8Z"/>
              </g>
            </g>
            <g>
              <path class="cls-7" d="M173.19,66.45s-.07-.05-.21-.14c-.13-.08-.33-.21-.58-.36-.24-.16-.55-.32-.89-.52-.35-.18-.72-.4-1.15-.59-.41-.22-.88-.39-1.35-.6-.24-.08-.49-.17-.74-.26-.12-.04-.25-.09-.38-.14-.13-.03-.26-.07-.4-.1-.26-.07-.53-.14-.8-.22-.28-.04-.55-.09-.83-.15-.14-.02-.27-.06-.41-.08-.14,0-.28-.02-.43-.03l-.85-.08c-.57.02-1.15-.02-1.72.02-.57.09-1.14.07-1.69.17-.55.11-1.09.19-1.62.26-.51.13-1.01.25-1.47.35-.24.05-.46.09-.68.13-.21.06-.41.12-.6.17-.38.11-.73.18-1.01.25-.57.13-.93.18-.93.18,0,0,.21-.27.63-.69.21-.21.47-.47.78-.75.16-.14.32-.29.5-.45.19-.13.4-.27.61-.41.43-.28.91-.58,1.43-.88.55-.24,1.14-.48,1.76-.72.3-.14.65-.18.98-.26.34-.08.68-.15,1.03-.21.7-.11,1.44-.09,2.16-.12l1.09.13c.36.04.72.11,1.06.21.35.09.69.2,1.02.31.33.13.64.28.95.42.31.14.61.29.87.48.27.18.54.34.79.53.47.4.92.76,1.27,1.16.37.38.65.77.89,1.12.24.36.41.68.55.95.27.54.35.89.35.89Z"/>
              <path class="cls-7" d="M181.3,67.79s.16-1.07,1.01-2.35c.42-.64,1-1.34,1.78-1.96.39-.31.82-.61,1.31-.85.48-.26,1.02-.44,1.58-.59.57-.11,1.16-.2,1.75-.14.59.03,1.16.17,1.68.38.51.21.97.48,1.34.78.39.3.68.63.94.94.23.33.44.62.58.92.14.29.25.54.32.76.14.43.19.69.19.69,0,0-.25-.11-.63-.31-.18-.11-.43-.2-.68-.34-.25-.14-.55-.24-.84-.39-.31-.11-.62-.24-.95-.33-.32-.1-.66-.16-.99-.21-.17-.02-.33-.02-.5-.04-.17.02-.33,0-.5.01-.34.02-.68.08-1.03.15-1.41.32-2.94,1.13-4.17,1.77-.61.32-1.15.6-1.54.79-.39.2-.63.31-.63.31Z"/>
              <path class="cls-7" d="M168.92,74.5s-.07.24-.25.65c-.18.4-.47.97-.92,1.59-.45.62-1.06,1.3-1.87,1.87-.2.14-.42.26-.64.4-.23.11-.46.23-.71.32-.51.17-.99.31-1.6.35-.26,0-.47.03-.79-.05l-.45-.09c-.14-.04-.26-.11-.39-.16-.53-.21-.93-.58-1.29-.93-.17-.19-.32-.38-.47-.57-.13-.2-.25-.4-.36-.59-.22-.39-.38-.77-.52-1.13-.27-.72-.39-1.34-.46-1.77-.07-.44-.08-.69-.08-.69,0,0,.09.24.26.63.17.4.43.96.78,1.59.18.31.39.64.62.98.12.16.25.32.38.48.15.14.28.31.44.45.32.28.67.53,1.05.68.1.04.19.08.29.11l.28.05c.16.06.44.03.68.03h.17c-.1,0-.02,0-.04,0h.01s.17-.03.17-.03l.33-.05c.22-.04.43-.12.65-.18.21-.08.42-.16.62-.25.2-.11.4-.2.58-.31.37-.23.73-.47,1.04-.73.31-.26.61-.52.86-.78,1.03-1.03,1.6-1.86,1.6-1.86Z"/>
              <path class="cls-7" d="M189.94,73.98s.04.2.05.55c.01.35,0,.87-.15,1.48-.14.6-.43,1.33-1.05,1.93-.31.29-.7.55-1.14.68-.43.14-.9.19-1.33.17-1-.07-1.8-.69-2.27-1.35-.48-.66-.74-1.35-.89-1.95-.31-1.19-.25-2.01-.25-2.01,0,0,.07.19.2.51.13.32.32.78.57,1.3.26.51.59,1.1,1.04,1.6.22.25.48.46.76.63.27.16.6.27.89.28.7.06,1.35-.13,1.85-.52.5-.4.85-.95,1.09-1.46.24-.52.39-.98.49-1.32.1-.33.14-.53.14-.53Z"/>
              <path class="cls-11" d="M180.41,70.27l.09,4.12c.03.68.04,1.36.08,2.04.04.68.06,1.35.13,2.02.03.33.06.67.09,1.01l.12,1c.03.33.11.66.16.98.05.33.1.65.19.97.08.31.13.65.24.95l.31.91.39.86c.17.25.35.5.51.76l.45.71-.67.22c-2.02.67-4.05,1.31-6.14,1.78,1.86-1.08,3.78-1.98,5.72-2.86l-.22.93c-.24-.29-.48-.6-.71-.9l-.54-.98c-.16-.33-.26-.68-.39-1.02-.14-.34-.19-.69-.29-1.04-.1-.35-.17-.7-.22-1.05-.05-.35-.12-.7-.15-1.05l-.1-1.05c-.02-.35-.03-.7-.04-1.05-.02-.35,0-.7,0-1.05,0-.35,0-.7.03-1.05.04-.7.09-1.39.17-2.08.16-1.38.4-2.75.79-4.09Z"/>
              <path class="cls-4" d="M178.67,95.69s-9.42,6.14-16.8-1.38"/>
              <path class="cls-11" d="M137.02,84.17c-.49.17-1,.31-1.52.39-.26.04-.53.06-.8.05-.27-.02-.57-.05-.85-.28-.14-.11-.23-.29-.25-.47-.03-.17,0-.34.03-.49.07-.3.2-.55.34-.79.28-.47.62-.89.96-1.3l-.1.31c-.2-1.08-.45-2.17-.75-3.23-.29-1.07-.62-2.12-1.03-3.13-.4-1.01-.86-2-1.47-2.86-.3-.43-.63-.83-1.01-1.15-.38-.32-.79-.56-1.24-.67-.46-.11-.88-.12-1.42.01-.45.11-.89.3-1.22.61-.64.62-.8,1.71-.63,2.75.14,1.05.52,2.1.98,3.09.24.5.5.98.81,1.44.32.45.64.91,1.11,1.23-.52-.23-.94-.65-1.32-1.07-.38-.43-.71-.89-1.02-1.37-.62-.96-1.09-2.03-1.36-3.18-.12-.58-.18-1.19-.1-1.81.08-.62.33-1.28.8-1.77.47-.49,1.08-.79,1.71-.96.55-.17,1.28-.22,1.91-.05.65.15,1.22.48,1.71.88.49.4.88.87,1.22,1.36.68.98,1.16,2.05,1.56,3.12.39,1.08.69,2.18.94,3.29.24,1.12.43,2.23.54,3.37l.02.19-.12.12c-.36.35-.71.72-1,1.11-.14.2-.27.4-.35.6-.04.1-.06.2-.06.28,0,.08.02.15.08.21.11.13.35.21.58.26.24.04.49.05.75.05.51-.01,1.03-.06,1.54-.15Z"/>
            </g>
          </g>
        </g>
      </g>
    </g>
  </g>
</svg>