<?xml version="1.0" encoding="UTF-8"?>
<svg id="Layer_2" data-name="Layer 2" xmlns="http://www.w3.org/2000/svg" xmlns:xlink="http://www.w3.org/1999/xlink" viewBox="0 0 248.59 237.41">
  <defs>
    <style>
      .cls-1 {
        fill: #944a20;
      }

      .cls-1, .cls-2, .cls-3, .cls-4, .cls-5, .cls-6, .cls-7, .cls-8, .cls-9, .cls-10, .cls-11, .cls-12, .cls-13, .cls-14, .cls-15, .cls-16, .cls-17, .cls-18, .cls-19, .cls-20, .cls-21, .cls-22, .cls-23, .cls-24, .cls-25, .cls-26, .cls-27, .cls-28, .cls-29, .cls-30, .cls-31, .cls-32, .cls-33, .cls-34, .cls-35, .cls-36, .cls-37, .cls-38 {
        stroke-width: 0px;
      }

      .cls-2 {
        fill: #fac008;
      }

      .cls-3 {
        fill: #ec6825;
      }

      .cls-4 {
        fill: #bc744b;
      }

      .cls-5 {
        fill: #afa1c8;
      }

      .cls-6 {
        fill: #613713;
      }

      .cls-7 {
        fill: #c18902;
      }

      .cls-8 {
        fill: #fea9ce;
      }

      .cls-9 {
        fill: #be7246;
      }

      .cls-10 {
        opacity: .25;
      }

      .cls-11 {
        fill: #fd7db4;
      }

      .cls-39 {
        fill: none;
        stroke: #cb6870;
        stroke-width: 1.5px;
      }

      .cls-39, .cls-40 {
        stroke-miterlimit: 10;
      }

      .cls-12 {
        fill: #c45285;
      }

      .cls-13 {
        fill: #911e38;
      }

      .cls-14 {
        fill: #cb6870;
      }

      .cls-15 {
        fill: #663811;
      }

      .cls-16, .cls-40 {
        fill: #fea29d;
      }

      .cls-17 {
        fill: #f5e5ba;
      }

      .cls-18 {
        fill: #c24806;
      }

      .cls-19 {
        fill: #837996;
      }

      .cls-20 {
        fill: #fd9564;
      }

      .cls-21 {
        fill: url(#radial-gradient-2);
      }

      .cls-22 {
        fill: #ec8a5a;
      }

      .cls-23 {
        fill: #dbc9fa;
      }

      .cls-24 {
        fill: url(#radial-gradient);
      }

      .cls-25 {
        fill: #89cff0;
      }

      .cls-26 {
        fill: #fbcd39;
      }

      .cls-27 {
        fill: #99bdbf;
      }

      .cls-28 {
        fill: #603814;
      }

      .cls-29 {
        fill: #603813;
      }

      .cls-30 {
        fill: #dc6c86;
      }

      .cls-31 {
        fill: #64360f;
      }

      .cls-32 {
        fill: #fed85f;
      }

      .cls-33 {
        fill: url(#radial-gradient-3);
      }

      .cls-34 {
        fill: #ffcdd1;
      }

      .cls-35 {
        fill: #603713;
      }

      .cls-36 {
        fill: #b83252;
      }

      .cls-37 {
        fill: url(#radial-gradient-4);
      }

      .cls-40 {
        stroke: #603813;
        stroke-linecap: round;
        stroke-width: .25px;
      }

      .cls-38 {
        fill: #fe828c;
      }
    </style>
    <radialGradient id="radial-gradient" cx="183.96" cy="71.46" fx="183.96" fy="71.46" r="16.32" gradientUnits="userSpaceOnUse">
      <stop offset="0" stop-color="#fdaa83"/>
      <stop offset=".99" stop-color="#fd9564"/>
    </radialGradient>
    <radialGradient id="radial-gradient-2" cx="36.51" cy="32.95" fx="36.51" fy="32.95" r="19.27" gradientUnits="userSpaceOnUse">
      <stop offset="0" stop-color="#e3899e"/>
      <stop offset="1" stop-color="#dc6c86"/>
    </radialGradient>
    <radialGradient id="radial-gradient-3" cx="40.9" cy="195.48" fx="40.9" fy="195.48" r="13.49" gradientUnits="userSpaceOnUse">
      <stop offset="0" stop-color="#fee07f"/>
      <stop offset="1" stop-color="#fed85f"/>
    </radialGradient>
    <radialGradient id="radial-gradient-4" cx="203.93" cy="212.21" fx="203.93" fy="212.21" r="13.7" gradientUnits="userSpaceOnUse">
      <stop offset="0" stop-color="#febad8"/>
      <stop offset="1" stop-color="#fea9ce"/>
    </radialGradient>
  </defs>
  <g id="base">
    <circle class="cls-39" cx="123.72" cy="118.7" r="117.95"/>
    <circle class="cls-39" cx="123.72" cy="118.7" r="77.54"/>
    <circle class="cls-14" cx="183.96" cy="66.3" r="20.96"/>
    <circle class="cls-14" cx="40.95" cy="190.87" r="17.58"/>
    <circle class="cls-14" cx="203.84" cy="207.62" r="17.55"/>
    <circle class="cls-14" cx="36.56" cy="26.71" r="24.32"/>
    <circle class="cls-14" cx="123.72" cy="118.7" r="37.34"/>
    <circle class="cls-38" cx="241.67" cy="111.79" r="6.92"/>
    <circle class="cls-23" cx="112.69" cy="196.25" r="8.41"/>
    <circle class="cls-25" cx="5.76" cy="125.62" r="5.76"/>
    <circle class="cls-26" cx="123.72" cy="18" r="4.89"/>
  </g>
  <g id="milk-bottle-group">
    <g id="shadow">
      <path class="cls-10" d="M122.55,128.73l-.1-.06c-.38-.23-1.14-.43-1.94-.54-.03-.03-.06-.05-.1-.08-.48-.3-1.43-.56-2.42-.7,0,0,0,0,0,0l-.97-.6c-.35-.22-1.16-.4-1.79-.41s-.87.17-.52.39l.91.57c-.67.12-.84.39-.34.71.04.03.1.05.15.08-.24.05-.38.13-.42.22-.25-.05-.51-.09-.75-.11l-.11-.07c-.41-.26-1.24-.49-2.13-.62-.04-.03-.06-.06-.11-.09-.52-.34-1.55-.63-2.65-.8,0,0,0,0,0,0l-1.03-.68c-.38-.25-1.26-.46-1.97-.47s-.99.19-.62.44l.97.65c-.76.14-.98.44-.45.81.04.03.11.06.16.09-.53.11-.69.34-.31.6l.14.09s.02.01.03.02c0,0-.01,0-.02,0-.08.02-.14.05-.19.07-.42-.2-1.06-.36-1.73-.46,0,0,0,0,0,0l-.76-.53c-.28-.19-.95-.36-1.51-.36s-.79.15-.52.34l.71.51c-.6.11-.8.34-.4.63.03.02.08.05.12.07-.42.09-.56.26-.28.47l.06.04c-.52.03-.65.25-.28.53,1.37,1.01,2.74,2.02,4.12,3.04.08.07.25.17.55.29.15.06.31.11.44.14.1,0,.21.02.31.03.96,0,1.93,0,2.89,0,.81,0,1.62.02,2.43.02,2.16,1.51,3.75,2.62,4.14,2.9.04.03.19.14.54.28.19.07.62.23,1.32.34.08.01.15.02.22.03,0,0,.01,0,.02,0,.12.01.24.03.35.03.03,0,.06,0,.09,0,.28.02.5.02.61.02h0s7.4,0,7.4,0c.83,0,1.21-.2,1.02-.48-.58-.41-1.17-.83-1.75-1.24h5.4c.83.01,1.65.02,2.48.03-3.09-1.85-6.18-3.71-9.26-5.56-.02-.02-.27-.27-1.1-.46-.48-.11-.89-.13-1.03-.14Z"/>
    </g>
    <g id="bundle">
      <g>
        <g>
          <path class="cls-34" d="M118.05,110.35c0,1.24-1.1,2.25-2.45,2.25s-2.45-1.01-2.45-2.25,1.1-2.25,2.45-2.25c1.35,0,2.45,1.01,2.45,2.25Z"/>
          <path class="cls-27" d="M119.04,112.32c0,.96-.87,1.73-1.94,1.73h-3c-1.07,0-1.94-.78-1.94-1.73v-.23c0-.96.87-1.73,1.94-1.73h3c1.07,0,1.94.78,1.94,1.73v.23Z"/>
          <path class="cls-5" d="M120.13,131.42c0,.96-.64,1.73-1.44,1.73h-5.9c-.79,0-1.44-.78-1.44-1.73v-17.48c0-.96.64-1.73,1.44-1.73h5.9c.79,0,1.44.78,1.44,1.73v17.48h0Z"/>
          <path class="cls-19" d="M114.86,112.2h-2.55c-.69,0-1.24.78-1.24,1.73v17.48c0,.96.56,1.73,1.24,1.73h2.55v-20.95Z"/>
          <path class="cls-34" d="M116.8,108.39c0,.62-.5,1.12-1.12,1.12h0c-.62,0-1.12-.5-1.12-1.12v-1.69c0-.62.5-1.12,1.12-1.12h0c.62,0,1.12.5,1.12,1.12v1.69Z"/>
        </g>
        <rect class="cls-17" x="117.73" y="116.9" width="2.39" height=".4"/>
        <rect class="cls-17" x="117.73" y="119.95" width="2.39" height=".4"/>
        <rect class="cls-17" x="117.73" y="122.6" width="2.39" height=".4"/>
        <rect class="cls-17" x="117.73" y="125.65" width="2.39" height=".4"/>
        <rect class="cls-17" x="117.73" y="127.57" width="2.39" height=".4"/>
        <rect class="cls-17" x="117.73" y="130.62" width="2.39" height=".4"/>
      </g>
      <g>
        <path class="cls-34" d="M134.34,108.85c0,1.43-1.26,2.59-2.82,2.59s-2.82-1.16-2.82-2.59,1.26-2.59,2.82-2.59c1.56,0,2.82,1.16,2.82,2.59Z"/>
        <path class="cls-27" d="M135.47,111.11c0,1.1-1,1.99-2.23,1.99h-3.44c-1.23,0-2.23-.89-2.23-1.99v-.27c0-1.1,1-1.99,2.23-1.99h3.44c1.23,0,2.23.89,2.23,1.99v.27Z"/>
        <path class="cls-5" d="M136.73,133.04c0,1.1-.74,1.99-1.65,1.99h-6.78c-.91,0-1.65-.89-1.65-1.99v-20.08c0-1.1.74-1.99,1.65-1.99h6.78c.91,0,1.65.89,1.65,1.99v20.08h0Z"/>
        <path class="cls-19" d="M129.79,110.97h-2.34c-.63,0-1.14.89-1.14,1.99v20.08c0,1.1.51,1.99,1.14,1.99h2.34v-24.05Z"/>
        <path class="cls-34" d="M132.91,106.61c0,.71-.58,1.29-1.29,1.29h0c-.71,0-1.29-.58-1.29-1.29v-1.95c0-.71.58-1.29,1.29-1.29h0c.71,0,1.29.58,1.29,1.29v1.95Z"/>
        <rect class="cls-17" x="134.34" y="116.74" width="2.39" height=".4"/>
        <rect class="cls-17" x="134.34" y="119.79" width="2.39" height=".4"/>
        <rect class="cls-17" x="134.34" y="122.44" width="2.39" height=".4"/>
        <rect class="cls-17" x="134.34" y="125.49" width="2.39" height=".4"/>
        <rect class="cls-17" x="134.34" y="127.41" width="2.39" height=".4"/>
        <rect class="cls-17" x="134.34" y="130.46" width="2.39" height=".4"/>
      </g>
      <g>
        <path class="cls-34" d="M125.97,107.01c0,1.61-1.42,2.92-3.18,2.92s-3.18-1.31-3.18-2.92,1.42-2.92,3.18-2.92c1.76,0,3.18,1.31,3.18,2.92Z"/>
        <path class="cls-27" d="M127.25,109.56c0,1.24-1.13,2.25-2.52,2.25h-3.89c-1.39,0-2.52-1.01-2.52-2.25v-.3c0-1.24,1.13-2.25,2.52-2.25h3.89c1.39,0,2.52,1.01,2.52,2.25v.3Z"/>
        <path class="cls-5" d="M128.67,134.33c0,1.24-.84,2.25-1.87,2.25h-7.65c-1.03,0-1.87-1.01-1.87-2.25v-22.68c0-1.24.84-2.25,1.87-2.25h7.66c1.03,0,1.87,1.01,1.87,2.25v22.68h0Z"/>
        <path class="cls-19" d="M119.4,109.41c-.19-.02-.64-.04-1.09.21-.55.3-.76.8-.85,1.02-.2.48-.19.92-.17,1.17-.02,7.51-.03,15.02-.05,22.53,0,.2.01.52.15.88.09.23.29.75.84,1.09.48.3.96.29,1.17.27v-27.17Z"/>
        <path class="cls-34" d="M124.35,104.47c0,.8-.65,1.46-1.46,1.46h0c-.8,0-1.46-.65-1.46-1.46v-2.2c0-.8.65-1.46,1.46-1.46h0c.8,0,1.46.65,1.46,1.46v2.2Z"/>
        <rect class="cls-17" x="125.97" y="115.92" width="2.7" height=".45"/>
        <rect class="cls-17" x="125.97" y="119.36" width="2.7" height=".45"/>
        <rect class="cls-17" x="125.97" y="122.36" width="2.7" height=".45"/>
        <rect class="cls-17" x="125.97" y="125.8" width="2.7" height=".45"/>
        <rect class="cls-17" x="125.97" y="127.97" width="2.7" height=".45"/>
        <rect class="cls-17" x="125.97" y="131.41" width="2.7" height=".45"/>
      </g>
    </g>
  </g>
  <g id="avatar-1">
    <g>
      <path class="cls-20" d="M195.24,50.86c-.36.23-.65.36-.65.36,0,0-.24.11-.58.23v.02c.19.83,0,1.74-.38,3.4l-.08-.08c-.23-.29-.58-.52-.97-.66-.11-.05-.24-.03-.34.04-.1.08-.15.21-.13.34-.41,1.23-.81,2.46-1.22,3.7-.02.07-.04.14-.08.2-.03.07-.08.14-.14.2-.04.04-.08.07-.12.1-.03.03-.06.06-.09.07-.06.04-.13.07-.2.09-.32.09-.64,0-.84-.19-.18-.15-.24-.34-.27-.43,0,0,0-.02,0-.02-.23-.75-.54-1.48-.76-2.24,0-.04-.22-.67-.65-1.92-.02-.07-.08-.23-.23-.31-.12-.06-.25-.03-.28-.02-.22.04-2.29-.1-7.69-.58,0-.7,0-1.38,0-2.08-.04-.02-.08-.04-.12-.07-.49.67-.99,1.34-1.47,1.99-.43,0-.86,0-1.29,0,0,0-.06-.12-.11-.27,0,0-.08-.25-.09-.53-.07-2.07.62-3.6.62-3.6,0-.03.04-.08.08-.17-7.09,2.69-12.17,9.49-12.31,17.54-.03,1.9.22,3.74.71,5.48h0c.43,1.55,1.06,3.02,1.85,4.38,1.18,2.03,2.71,3.84,4.53,5.3h0s.07.05.11.09c.04.03.07.06.11.08.2.17.41.32.62.47.12.09.24.18.37.26.24.17.49.34.75.5.28.17.57.34.86.5.06.04.13.07.2.11.31.16.62.31.93.46.24.12.48.22.72.32.48.21.97.39,1.47.55.18.06.36.11.55.17.26.08.52.15.79.21.14.03.27.07.4.09.03,0,.05.02.08.02.17.04.33.07.5.1.19.04.39.08.58.1.27.04.54.08.82.11.3.04.61.07.92.09.31.02.62.03.94.04,2.41.04,4.71-.37,6.84-1.16.06-.02.11-.04.17-.06h0c.24-.09.48-.19.71-.29.24-.1.47-.2.7-.31.22-.1.44-.21.66-.32.25-.13.5-.26.74-.4.1-.06.2-.12.3-.18.28-.17.56-.35.83-.53.22-.14.42-.28.63-.44.64-.46,1.24-.96,1.81-1.49.18-.17.36-.35.54-.53.48-.49.94-1,1.36-1.53.14-.18.28-.37.41-.56.21-.27.4-.54.58-.82,1.07-1.61,1.89-3.39,2.44-5.3h0c.43-1.56.68-3.2.71-4.88.1-6.45-2.99-12.19-7.82-15.73ZM190.45,61.53c.1-.82.21-1.62.32-2.43v-.09s0-.05,0-.08c0-.03,0-.05,0-.08,0-.02,0-.04.02-.06,0-.03.03-.07.06-.1.13-.15.34-.14.53-.15.53-.03.97-.25,1.39-.54-.16.45-.37.9-.64,1.36-.04.07-.08.15-.12.22-.56.95-1.17,1.65-1.6,2.11,0-.06,0-.11.02-.17Z"/>
      <path class="cls-24" d="M202.35,71.47h0c-.55,1.92-1.37,3.7-2.44,5.31-.18.28-.37.55-.58.82-.13.19-.27.38-.41.56-.43.54-.89,1.05-1.36,1.53-.18.18-.36.36-.54.53-.58.54-1.18,1.04-1.81,1.49-.21.16-.41.3-.63.44-.27.18-.55.36-.83.53-.1.06-.2.12-.3.18-.24.14-.49.27-.74.4-.22.11-.44.22-.66.32-.23.11-.46.21-.7.31-.23.1-.47.2-.71.28h0c-.06.03-.11.05-.17.07-2.13.79-4.43,1.2-6.84,1.16-.32,0-.63-.02-.94-.04-.31-.02-.62-.05-.92-.09-.28-.03-.55-.07-.82-.11-.19-.02-.39-.06-.58-.1-.17-.03-.33-.06-.5-.1-.03,0-.05,0-.08-.02-.13-.02-.26-.06-.4-.09-.27-.06-.53-.13-.79-.21-.19-.06-.37-.11-.55-.17-.51-.16-1-.34-1.47-.55-.24-.1-.48-.2-.72-.32-.31-.15-.62-.3-.93-.46-.07-.04-.14-.07-.2-.11-.29-.16-.58-.33-.86-.5-.26-.16-.51-.33-.75-.5-.13-.08-.25-.17-.37-.26-.21-.15-.42-.3-.62-.47-.04-.02-.07-.05-.11-.08-.04-.04-.07-.07-.11-.09h0c-1.82-1.46-3.36-3.27-4.53-5.3-.8-1.36-1.42-2.83-1.85-4.37h0c1.56-5.56,5.57-10.07,10.76-12.33.86-.38,1.74-.7,2.66-.94.16-.05.32-.09.49-.13.44-.11.9-.2,1.35-.27.32-.06.64-.1.98-.13h0c.81-.1,1.62-.14,2.46-.13,1.69.03,3.34.28,4.9.72.03.09.09.28.27.43.2.18.52.28.84.19.07-.02.14-.05.2-.09.03,0,.06-.04.09-.07.08.03.16.06.24.09,0,.02-.02.04-.02.06,0,.03-.02.05,0,.08,0,.03-.02.06,0,.08v.09c-.11.81-.22,1.61-.32,2.43,0,.06-.02.11-.02.17.44-.46,1.05-1.17,1.6-2.11.04-.07.08-.15.12-.22,4.94,2.35,8.71,6.75,10.2,12.09Z"/>
      <path class="cls-28" d="M195.95,50.34c-.15.14-.31.26-.47.37-.08.06-.16.11-.24.16-.36.23-.65.36-.65.36,0,0-.24.11-.58.23v.02c.19.83,0,1.74-.38,3.4l-.08-.08c-.23-.29-.58-.52-.97-.66-.11-.05-.24-.03-.34.04-.1.08-.15.21-.13.34-.41,1.23-.81,2.46-1.22,3.7-.02.07-.04.14-.08.2-.03.07-.08.14-.14.2-.04.04-.08.07-.12.1-.03.03-.06.06-.09.07-.06.04-.13.07-.2.09-.32.09-.64,0-.84-.19-.18-.15-.24-.34-.27-.43,0,0,0-.02,0-.02-.23-.75-.54-1.48-.76-2.24,0-.04-.22-.67-.65-1.92-.02-.07-.08-.23-.23-.31-.12-.06-.25-.03-.28-.02-.22.04-2.29-.1-7.69-.58,0-.7,0-1.38,0-2.08-.04-.02-.08-.04-.12-.07-.49.67-.99,1.34-1.47,1.99-.43,0-.86,0-1.29,0,0,0-.06-.12-.11-.27,0,0-.08-.25-.09-.53-.07-2.07.62-3.6.62-3.6,0-.03.04-.08.08-.17.04-.08.1-.18.16-.31.17-.32.42-.74.73-1.11,1.97-2.33,5.92-2.84,8.91-1.93.36.11.69.23,1.01.37.05,0,.09-.02.14-.04.31-.14.4-.51.48-.73.37-1.1,1.4-1.75,1.87-2.06,1.15-.74,2.42-.64,2.74-.61,1.77.18,3.44,1.48,4.03,3.34.67,2.11-.31,4.11-1.29,4.99Z"/>
      <path class="cls-28" d="M192.79,58.01c-.16.45-.37.9-.64,1.36-.04.07-.08.15-.12.22-.56.95-1.17,1.65-1.6,2.11,0-.06,0-.11.02-.17.1-.82.21-1.62.32-2.43v-.09s0-.05,0-.08c0-.03,0-.05,0-.08,0-.02,0-.04.02-.06,0-.03.03-.07.06-.1.13-.15.34-.14.53-.15.53-.03.97-.25,1.39-.54Z"/>
      <path class="cls-3" d="M199.91,76.78c-2.24,3.41-5.54,6.05-9.42,7.45-2.13.79-4.43,1.2-6.84,1.16-4.43-.08-8.49-1.65-11.69-4.25h0c-1.82-1.46-3.36-3.27-4.53-5.3,1.06-2.26,3.17-4.25,4.79-5.34,1.87-1.28,3.74-1.77,4.79-2.06.99-.27,1.89-.43,2.76-.51,0,.07-.02.14-.03.21,0,.1-.02.21-.02.32-.02.18-.03.38-.05.57,0,.05,0,.12,0,.18v.03s0,.03,0,.05c0,.02,0,.04,0,.05,0,.05.03.11.07.16.11.15.27.21.36.23.31.08.76.18,1.31.27.68.1,1.18.11,2.49.11,1.63,0,2.44,0,2.96-.03.95-.09,1.72-.23,2.26-.34.03,0,.05-.02.09-.04.04-.02.08-.04.11-.07.05-.03.1-.07.15-.13.03-.04.05-.08.07-.12.02-.05.05-.14.07-.26,0-.05.02-.11.03-.17,0-.05,0-.11,0-.18,0-.09,0-.19,0-.3.31.07.63.16.95.26,1.94.6,4.36,1.34,6.48,3.55.42.44,2.17,2.25,2.85,4.51Z"/>
      <path class="cls-16" d="M193.62,57.37c-.08.08-.17.16-.17.16-.09.08-.2.17-.37.28-.1.07-.19.14-.29.2-.43.29-.87.51-1.39.54-.19,0-.4,0-.53.15-.03.03-.05.07-.06.1,0,.02-.02.04-.02.06,0,.03-.02.05,0,.08,0,.03-.02.06,0,.08,0,.03,0,.06,0,.09-.11.81-.22,1.61-.32,2.43,0,.06-.02.11-.02.17-.3,2.28-.57,4.54-.79,6.75,0,.11,0,.21,0,.3,0,.07,0,.13,0,.18-.02.18-.04.31-.1.43-.02.04-.04.08-.07.12-.05.06-.1.1-.15.13-.03.03-.07.05-.11.07-.04.02-.06.03-.09.04-.54.11-1.32.25-2.26.34-.52.04-1.33.04-2.96.03-1.32,0-1.81,0-2.49-.11-.55-.09-1-.19-1.31-.27-.09-.02-.25-.08-.36-.23-.04-.05-.06-.1-.07-.16,0,0,0-.03,0-.05,0-.03,0-.05,0-.08,0-.06,0-.13,0-.18.02-.19.03-.39.05-.57,0-.18.03-.36.05-.53.03-.25.06-.49.09-.74.08-.65.15-1.3.23-1.94-.47-.22-1.19-.62-1.85-1.32-1.04-1.09-1.37-2.28-1.62-3.23-.15-.56-.23-1.06-.28-1.56-.06-.71-.05-1.41-.04-2.27.02-.98.11-2.3.39-3.87.43,0,.86,0,1.29,0,.49-.66.99-1.33,1.47-1.99.04.03.08.05.12.07,0,.7,0,1.38,0,2.08,5.4.48,7.47.62,7.69.58.03,0,.16-.04.28.02.15.08.21.24.23.31.43,1.26.64,1.88.65,1.92.22.76.53,1.49.76,2.24,0,0,0,0,0,.02.03.09.09.28.27.43.2.18.52.28.84.19.07-.02.14-.05.2-.09.03,0,.06-.04.09-.07.05-.02.09-.06.12-.1.06-.06.11-.13.14-.2.04-.06.06-.13.08-.2.41-1.24.81-2.47,1.22-3.7-.02-.13.03-.26.13-.34.1-.07.23-.09.34-.04.44.2.81.52.97.66l.08.08c.68,1,.21,2.26-.02,2.5Z"/>
      <path class="cls-6" d="M186.97,64.54c-.04.18-.12.44-.28.71-.02.03-.03.05-.04.07-.18.27-.39.47-.66.66-.02.03-.03.04-.05.05-.05.04-.11.08-.17.12-.88.59-1.65.92-1.8.99h0s-.05.02-.08.03c-.59.24-1.24.44-1.97.55-1.19.2-1.57.02-1.79-.17-.1-.09-.17-.18-.23-.27,0-.03-.03-.06-.04-.09.08-.65.15-1.3.23-1.94.45.12,1.11.27,1.9.34.71.06,1.73.14,2.99-.19.49-.13,1.21-.37,2-.85Z"/>
      <ellipse class="cls-28" cx="177.92" cy="56.74" rx=".88" ry=".61" transform="translate(99.79 226.36) rotate(-82.96)"/>
      <ellipse class="cls-28" cx="181.32" cy="57.2" rx=".91" ry=".61" transform="translate(102.32 230.13) rotate(-82.96)"/>
      <path class="cls-28" d="M179.23,55.84s-.11.05-.16.02c-.03-.03-.06-.07-.11-.11-.08-.07-.16-.11-.21-.14-.27-.14-.41-.21-.56-.24-.35-.06-.64.08-.77.14-.16.08-.28.17-.36.25-.03,0-.07,0-.12-.02-.04-.01-.06-.02-.07-.04-.03-.05.01-.14.04-.16.18-.18.36-.27.48-.32.57-.24,1.27-.12,1.7.27.09.08.16.16.2.22,0,0,.01.08-.05.14Z"/>
      <path class="cls-28" d="M180.36,55.75c-.01.1.03.18.08.19,0,0,.03,0,.07-.01.09-.04.23-.09.39-.12.24-.04.6-.07.89.08.18.09.3.21.36.29.12.13.19.25.24.35,0,.01.04.05.09.06.07.01.13-.03.13-.04.05-.05.06-.11.06-.12-.07-.15-.23-.41-.52-.62-.58-.42-1.25-.29-1.37-.26-.09.01-.16.03-.21.05-.1.03-.14.05-.16.08-.03.03-.05.06-.06.08Z"/>
      <path class="cls-18" d="M173.41,74.68s-.32,1.3-.73,3.26c-.29,1.38-.49,2.52-.62,3.27-.05-.04-.1-.08-.15-.12.16-1.03.37-2.13.64-3.28.4-1.7.82-3.14.85-3.13Z"/>
      <path class="cls-18" d="M192.16,76.05c-.35,1.45-.68,2.99-.97,4.61-.21,1.21-.39,2.38-.54,3.51-.06.02-.11.04-.17.06.07-.54.17-1.26.3-2.12.08-.54.2-1.27.39-2.23.14-.65.32-1.55.65-2.72.13-.46.25-.85.34-1.11Z"/>
      <path class="cls-29" d="M179.59,57.15c-.47.83-.87,1.7-1.31,2.54-.08.13.05.29.16.36.24.18.55.27.85.17.08-.03.12.1.04.13-.35.11-.68.03-1.02-.09,0,0,.03.02.03.02-.15,0-.3-.13-.34-.29-.05-.14.09-.37.13-.39.45-.83.93-1.65,1.35-2.5.04-.08.16-.02.11.06h0Z"/>
      <path class="cls-40" d="M180.19,62.48c.16.04.39.08.65.04.23-.03.4-.11.51-.16.21-.1.37-.22.48-.31"/>
    </g>
  </g>
  <g id="avatar-2">
    <g>
      <path class="cls-30" d="M59.19,26.64c0,2.19-.31,4.31-.9,6.31-.52,1.84-1.29,3.59-2.24,5.2-1.49,2.53-3.45,4.73-5.77,6.5-.05.04-.1.08-.16.12-3.78,2.85-8.5,4.54-13.61,4.54-2.89,0-5.66-.54-8.19-1.53-.04-.01-.08-.03-.11-.05-4.35-1.7-8.04-4.72-10.58-8.56-1.28-1.89-2.25-4-2.9-6.23-.58-2-.9-4.12-.9-6.31,0-8.87,5.09-16.56,12.52-20.28-.37.57-.87,1.43-1.21,2.53-.34,1.09-.29,1.63-.81,3.25-.14.41-.18.5-.69,1.83-.46,1.22-1.01,2.63-1.38,3.67-.34.99-.78,2.2-1.17,3.75-.15.58-.28,1.11-.39,1.6,2.21-2.15,4.86-3.86,7.8-4.96-.02-.06-.06-.12-.11-.18-.16-.17-.4-.19-.49-.2-.72-.07-1.85-.48-2.46-.95-.14-.1-.57-.44-.81-1.05-.26-.69-.19-1.59.34-2.27.67-.9,1.72-.94,1.86-.94.52,1.66,1.06,3.32,1.58,4.98.01.03.13.3.4.48.47-.18.97-.33,1.46-.47.59-1.63,1.18-3.27,1.76-4.9.01-.05.05-.26.24-.41.2-.18.44-.17.49-.17l12.36-.63c.12-.12.29-.31.45-.58,1.23-2.05-.48-4.91-.61-5.13,8.32,3.35,14.2,11.51,14.2,21.04Z"/>
      <path class="cls-21" d="M58.29,32.95c-.52,1.84-1.29,3.59-2.24,5.2-1.49,2.53-3.45,4.73-5.77,6.5-.05.04-.1.08-.16.12-3.78,2.85-8.5,4.54-13.61,4.54-2.89,0-5.66-.54-8.19-1.53-.04-.01-.08-.03-.11-.05-4.35-1.7-8.04-4.72-10.58-8.56-1.28-1.89-2.25-4-2.9-6.23,1.1-3.84,3.19-7.25,5.98-9.96,2.21-2.15,4.86-3.86,7.8-4.96.1-.05.21-.09.32-.12.47-.18.97-.33,1.46-.47,1.97-.56,4.07-.87,6.22-.87.91,0,1.8.05,2.68.16h.01c.34.04.67.08,1.01.14.11.01.22.03.32.06.64.11,1.29.25,1.91.42.06.01.12.03.19.05h.01c1.03.29,2.03.64,3,1.08,6.1,2.69,10.79,7.97,12.65,14.46Z"/>
      <path class="cls-28" d="M45.6,10.74c-.16.27-.33.46-.45.58l-12.36.63c-.05,0-.29-.01-.49.17-.19.15-.23.36-.24.41-.58,1.63-1.17,3.27-1.76,4.9-.03.11-.07.21-.11.32-.03.02-.42.42-.99.31-.14-.03-.26-.08-.36-.16-.27-.18-.39-.45-.4-.48-.52-1.66-1.06-3.32-1.58-4.98-.14,0-1.19.04-1.86.94-.53.68-.6,1.58-.34,2.27.23.6.66.95.81,1.05.6.46,1.73.88,2.46.95.09.01.33.03.49.2.05.06.09.12.11.18.06.12.08.25.08.35.43,3.61.87,7.23,1.3,10.84h0c-2.06.49-4.36,1.34-6.48,2.81h-.03c-.5-.28-1.26-.8-1.88-1.66-.92-1.26-1.04-2.56-1.13-3.62-.12-1.34.03-2.43.34-3.75.11-.49.24-1.02.39-1.6.39-1.55.83-2.77,1.17-3.75.37-1.05.92-2.46,1.38-3.67.51-1.33.55-1.42.69-1.83.51-1.62.46-2.16.81-3.25.34-1.1.84-1.95,1.21-2.53.15-.21.27-.38.37-.52,1.52-2.05,3.37-3.01,3.77-3.22,2.17-1.09,4.13-1.04,5.44-1.06,1.43-.03,3.45.16,5.56,1.21,1.07.52,2.49,1.23,3.48,2.83h.01c.13.23,1.84,3.09.61,5.14Z"/>
      <path class="cls-36" d="M56.05,38.16c-1.49,2.53-3.45,4.73-5.77,6.5-.05.04-.1.08-.16.12-3.78,2.85-8.5,4.54-13.61,4.54-2.89,0-5.66-.54-8.19-1.53-.04-.01-.08-.03-.11-.05-4.35-1.7-8.04-4.72-10.58-8.56.57-1.39,1.43-2.91,2.69-4.38.96-1.11,2-2.02,3.09-2.77,2.12-1.47,4.42-2.32,6.48-2.8.05.35.09.7.13,1.06-.01.03-.04.23.1.4.09.11.22.14.26.15.22.08.56.19,1,.28.62.14,1.19.2,2.72.22.18.01.73.02,1.96.01,1.11,0,.59-.01,2.23-.03h.26s1.13-.02,2.46-.35c.18-.05.54-.15.67-.44.05-.12.05-.23.04-.3-.05-.52-.11-1.04-.16-1.56,3.54.39,8.13,1.66,11.64,5.36,1.29,1.34,2.19,2.78,2.85,4.13Z"/>
      <path class="cls-9" d="M45.64,18.49c-.01.05-.01.09-.02.14-.22,1.69-.46,3.35-1.73,4.91-.9,1.09-1.93,1.69-2.65,2.02.09.93.19,1.84.28,2.77.02.11.03.23.04.34.05.52.11,1.04.16,1.56.01.07.01.18-.04.3-.13.29-.49.39-.67.44-1.33.33-2.46.35-2.46.35h-.26c-1.64.02-1.13.03-2.23.03-1.23.01-1.78,0-1.96-.01-1.53-.02-2.09-.08-2.72-.22-.43-.09-.78-.2-1-.28-.04-.01-.17-.04-.26-.15-.14-.17-.11-.37-.1-.4-.04-.35-.08-.7-.13-1.06h0c-.43-3.62-.87-7.24-1.3-10.85,0-.1-.02-.23-.08-.35-.02-.06-.06-.12-.11-.18-.16-.17-.4-.19-.49-.2-.72-.07-1.85-.48-2.46-.95-.14-.1-.57-.44-.81-1.05-.26-.69-.19-1.59.34-2.27.67-.9,1.72-.94,1.86-.94.52,1.66,1.06,3.32,1.58,4.98.01.03.13.3.4.48.1.08.22.13.36.16.56.11.96-.29.99-.31.04-.11.08-.21.11-.32.59-1.63,1.18-3.27,1.76-4.9.01-.05.05-.26.24-.41.2-.18.44-.17.49-.17l12.36-.63c.8,3.07.69,5.59.49,7.17Z"/>
      <path class="cls-28" d="M41.24,25.57c-1.35.39-2.49.49-3.3.5-1.06.02-2.35.02-3.77-.65-.37-.18-.66-.36-.86-.49-.12-.02-.23-.04-.35-.07.16.35.44.86.9,1.36.72.78,1.49,1.11,2.18,1.41,1.4.6,2.61.68,3.44.74.84.05,1.55.02,2.04-.03-.09-.92-.19-1.84-.28-2.77Z"/>
      <path class="cls-13" d="M28.32,47.79s-.08-.03-.11-.05c-.09-.64-.15-1.3-.26-1.93-.41-2.23-.87-4.47-1.5-6.65-.05-.16-.06-.33.02-.55.48,1.58.85,3.12,1.16,4.67.29,1.5.63,2.98.69,4.52Z"/>
      <path class="cls-13" d="M50.28,44.66c-.05.04-.1.08-.16.12-.02-.25-.06-.51-.11-.77-.4-2.23-.86-4.46-1.49-6.64-.05-.17-.06-.34.01-.56.48,1.58.86,3.12,1.16,4.67.21,1.06.45,2.11.59,3.18Z"/>
      <g>
        <path class="cls-31" d="M41.76,15.79l1.73,3.23c.27.81-.78.94-1.33.76-.05-.01-.04-.09.02-.08.43-.03,1.27-.06,1.12-.58,0,0-1.61-3.29-1.61-3.29-.02-.05.05-.09.08-.04h0Z"/>
        <ellipse class="cls-31" cx="39.7" cy="16.08" rx=".7" ry="1.06" transform="translate(-1.44 4.17) rotate(-5.9)"/>
        <ellipse class="cls-15" cx="43.69" cy="15.52" rx=".65" ry=".98" transform="translate(-1.36 4.57) rotate(-5.9)"/>
        <path class="cls-31" d="M38.18,15.05c.52-.87,1.72-1.28,2.62-.78.08.05.11.15.06.23-.05.09-.17.11-.25.05-.7-.51-1.76-.03-2.14.66-.11.2-.42.02-.3-.17h0Z"/>
        <path class="cls-15" d="M42.16,14.44c.45-1.01,1.98-1.07,2.74-.39.07.06.08.15.02.22s-.15.08-.22.02c-.74-.66-1.77-.43-2.39.25-.07.05-.17-.02-.15-.1h0Z"/>
        <path class="cls-1" d="M39.25,21.72c.44.48,1.14.67,1.77.51.07-.02.14.02.15.09.02.07-.02.14-.09.15-.71.17-1.5-.07-1.97-.62-.09-.09.06-.22.14-.13h0Z"/>
      </g>
    </g>
  </g>
  <g id="avatar-3">
    <g>
      <path class="cls-32" d="M56.97,190.83c0,2.86-.75,5.54-2.05,7.86-.34.62-.72,1.2-1.14,1.76-.04.04-.07.09-.11.13-2.92,3.85-7.56,6.33-12.77,6.33-4.75,0-9.02-2.06-11.97-5.34-.27-.31-.54-.63-.78-.96-.14-.17-.27-.34-.39-.52-1.85-2.62-2.94-5.81-2.94-9.26,0-8.88,7.2-16.07,16.08-16.07s16.07,7.19,16.07,16.07Z"/>
      <path class="cls-33" d="M56.18,195.54c-.31,1.09-.74,2.13-1.28,3.11-.09.18-.19.36-.3.54-.25.43-.53.85-.82,1.26-.04.04-.07.09-.11.13-2.92,3.85-7.56,6.33-12.77,6.33-4.75,0-9.02-2.06-11.97-5.34-.29-.31-.54-.63-.78-.96-.14-.18-.27-.36-.39-.54-.04-.05-.07-.11-.11-.16-.89-1.33-1.58-2.8-2.03-4.37.77-2.69,2.24-5.09,4.19-6.98,1.56-1.52,3.41-2.71,5.48-3.49.07-.03.14-.06.22-.08.33-.13.68-.23,1.03-.33,1.38-.4,2.85-.61,4.36-.61.63,0,1.26.04,1.88.11.24.03.48.06.71.1.08.01.16.02.23.04.45.08.9.18,1.34.3.04.01.08.02.13.04h.01c.72.2,1.43.45,2.1.75,4.28,1.89,7.57,5.59,8.88,10.15Z"/>
      <path class="cls-2" d="M54.92,198.69c-.34.62-.72,1.2-1.14,1.76-.04.04-.07.09-.11.13-2.92,3.85-7.56,6.33-12.77,6.33-4.75,0-9.02-2.06-11.97-5.34-.27-.31-.54-.63-.78-.96-.14-.17-.27-.34-.39-.52v-.02c.39-2,1.83-3.64,2.23-4.09,1.95-2.22,4.4-2.88,6.46-3.44.47-.13,2.69-.71,5.78-.6,2.53.08,5.59.19,8.49,2.14.78.52,3.23,2.18,4.18,4.57,0,.01,0,.03.02.04Z"/>
      <path class="cls-22" d="M47.49,185.72c-.05.25-.41,1.89-1.26,2.91-.3.36-.78.78-1.05.89-.14.05-.26.14-.41.19-.05.02-.14.04-.22.12-.04.06-.07.12-.08.16.16,1.48.28,2.56.35,3.02.02.1.06.37-.09.54-.1.11-.25.14-.34.15-1.68.26-3,.32-3.89.33-1.17.01-1.91-.07-2.42-.15-.49-.08-.89-.17-1.17-.25-.1-.02-.24-.09-.32-.22-.06-.1-.06-.19-.07-.29-.02-.16.01-.22-.01-.37-.02-.09-.04-.17-.06-.21-.02-.39-.06-.97-.13-1.66-.1-1.01-.22-1.72-.33-2.36-.02-.1-.03-.2-.05-.3-.13-.82-.29-2-.39-3.47-.01-.06-.03-.15-.1-.25-.07-.11-.17-.17-.22-.19-.23,0-.52-.04-.83-.14-.25-.09-.45-.19-.59-.28-.06-.03-.11-.06-.15-.09-.2-.14-.38-.25-.54-.44-.11-.14-.41-.54-.4-1.08.02-.72.58-1.27,1.11-1.49.11-.05.21-.08.3-.1.18-.04.33-.05.44-.04h.92l.07.1c.01.96.02,1.93.02,2.9.05.49.18,1.14.5,1.82.1.24.22.44.34.63.01.03.04.05.06.05.04,0,.07-.05.06-.11-.02-.45-.02-.92-.02-1.4,0-.91.04-1.79.1-2.63,0-.02-.02-.21.13-.36.13-.13.3-.11.33-.11.56-.05,1.13-.1,1.69-.15,1.51-.14,3.01-.27,4.52-.4.04,0,.17.01.3-.08.08-.05.13-.12.15-.16.06-.16.13-.35.22-.55.07-.16.15-.3.22-.43.06.3.12.59.17.89,0,.01,0,.15.12.24.09.07.2.05.22.05l2.8-.23c.09.58.19,1.4.2,2.39.01.82.01,1.6-.2,2.61Z"/>
      <path class="cls-28" d="M44.55,189.83c-.65.22-1.89.55-3.42.34-1.14-.16-2.01-.55-2.56-.85.27.45.73,1.06,1.46,1.57.86.59,1.69.75,2.43.88.55.1,1.31.19,2.22.12-.04-.69-.08-1.37-.12-2.06Z"/>
      <path class="cls-28" d="M47.49,180.72l-2.8.23s-.13.02-.22-.05c-.12-.09-.12-.23-.12-.24-.05-.3-.11-.59-.17-.89-.07.13-.15.27-.22.43-.09.2-.16.39-.22.55-.02.04-.07.11-.15.16-.13.09-.26.08-.3.08-1.51.13-3.01.26-4.52.4-.56.05-1.13.1-1.69.15-.03,0-.2-.02-.33.11-.15.15-.13.34-.13.36-.06.84-.1,1.72-.1,2.63,0,.48,0,.95.02,1.4.01.06-.02.11-.06.11-.02,0-.05-.02-.06-.05-.12-.19-.24-.39-.34-.63-.32-.68-.45-1.33-.5-1.82,0-.97-.01-1.94-.02-2.9l-.07-.1c-.04-.67-.01-2,.68-3.47.47-.98,1.07-1.68,1.54-2.14.12-.11.22-.21.32-.29-.02-.01-.04-.01-.06-.02.61-.25,1.57-.38,1.66-.39.6-.07,1.11-.07,1.47-.05.63-.03,1.61,0,2.72.37.76.26,1.37.61,1.79.9.26.19.6.5.87.95.2.32.31.76.54,1.61.15.53.23.87.32,1.35.09.49.13.92.15,1.25Z"/>
      <path class="cls-28" d="M35.99,188.52c-.38-.18-1-.55-1.46-1.24-.43-.63-.51-1.21-.61-1.97-.05-.4-.09-.9-.11-1.42.14.09.34.19.59.28.31.1.6.14.83.14.05.02.15.08.22.19.07.1.09.19.1.25.1,1.47.26,2.65.39,3.47.02.1.03.2.05.3Z"/>
      <path class="cls-36" d="M38.03,174.75c-.1.08-.2.18-.32.29-.47.46-1.07,1.16-1.54,2.14-.69,1.47-.72,2.8-.68,3.47h-.92c-.1-.64-.22-1.98.34-3.52.49-1.35,1.27-2.25,1.75-2.7.03-.03.05-.05.07-.07.04-.01.1-.02.18-.02.14.01.24.07.27.09.11.07.33.16.79.3.02.01.04.01.06.02Z"/>
      <path class="cls-28" d="M34.91,177.13c-.56,1.54-.44,2.88-.34,3.52-.11-.01-.26,0-.44.04.02-.1.01-.21-.04-.32-.07-.15-.21-.23-.29-.28-.35-.14-.7-.28-1.05-.43-.17-.04-.64-.15-1.08.1-.14.08-.3.21-.51.56-.36.58-.47,1.1-.53,1.33-.24,1.03-.66,1.84-.85,2.17-.25.42-.69.99-1.52,1.54-.47.31-1.16.66-2.02.75-.42.05-.91.09-1.35-.2-.24-.17-.39-.38-.47-.52-.15-.31-.37-.76-.66-1.29-.41-.77-.64-1.18-1-1.68-.23-.3-.57-.73-1.06-1.18h.84c.66,0,.99,0,1.15-.02,1.01-.08,1.76-.56,1.88-.65.27-.17.7-.51,1.08-1.07.26-.47.63-1.18.96-2.09.44-1.22.31-1.4.65-2.22.23-.58.88-2.17,2.48-2.95.38-.19,1.16-.5,2.29-.43.41.04,1.27.17,2.13.77.86.6,1.29,1.37,1.5,1.85-.48.45-1.26,1.35-1.75,2.7Z"/>
      <path class="cls-7" d="M33.75,198.97c.11.46.27,1.12.46,1.93.15.64.28,1.2.38,1.64.16.75.37,1.84.52,3.24.03.01.07.03.1.04-.08-1.09-.24-2.33-.54-3.69-.26-1.18-.58-2.24-.92-3.16Z"/>
      <path class="cls-7" d="M49.35,197.9c.07.11.13.23.2.34.22.72.43,1.49.62,2.32.24,1.07.41,2.07.52,2.99-.04.04-.09.08-.13.11-.18-1.02-.36-2.04-.54-3.06-.19-.76-.39-1.51-.58-2.27-.03-.15-.06-.29-.09-.44Z"/>
      <g>
        <path class="cls-31" d="M44.82,182.99l1.2,2.23c.18.56-.54.65-.92.52-.04,0-.03-.06.01-.06.29-.02.87-.04.77-.4,0,0-1.11-2.27-1.11-2.27-.02-.03.04-.06.05-.03h0Z"/>
        <ellipse class="cls-31" cx="43.4" cy="183.19" rx=".48" ry=".73" transform="translate(-18.6 5.43) rotate(-5.9)"/>
        <ellipse class="cls-15" cx="46.15" cy="182.8" rx=".45" ry=".68" transform="translate(-18.54 5.71) rotate(-5.9)"/>
        <path class="cls-31" d="M42.35,182.48c.36-.6,1.19-.89,1.81-.54.06.03.08.1.04.16-.03.06-.11.08-.17.04-.48-.36-1.21-.02-1.48.46-.07.14-.29.02-.2-.12h0Z"/>
        <path class="cls-15" d="M45.09,182.06c.31-.69,1.36-.74,1.89-.27.05.04.05.11.01.15s-.11.05-.15.01c-.51-.45-1.22-.3-1.65.17-.05.04-.12-.01-.1-.07h0Z"/>
        <path class="cls-1" d="M43.08,187.08c.3.33.79.46,1.22.35.05-.01.09.02.11.06.01.05-.02.09-.06.11-.49.12-1.04-.05-1.36-.43-.06-.06.04-.15.1-.09h0Z"/>
      </g>
    </g>
  </g>
  <g id="avatar-4">
    <g>
      <path class="cls-8" d="M220.07,207.68c0,1.55-.22,3.06-.63,4.47-.43,1.5-1.07,2.9-1.89,4.19-1.6,2.52-3.88,4.56-6.57,5.88-.05.02-.1.04-.15.06-2.1,1-4.43,1.55-6.89,1.55-3.3,0-6.35-.99-8.91-2.67-.04-.03-.09-.07-.14-.1-1.92-1.3-3.55-3.02-4.77-5.02h0c-.73-1.21-1.3-2.51-1.69-3.88-.42-1.42-.63-2.92-.63-4.47,0-6.24,3.54-11.66,8.73-14.34,2.22-1.15,4.74-1.8,7.41-1.8,3.29,0,6.36.99,8.92,2.68,4.35,2.9,7.22,7.84,7.22,13.46Z"/>
      <path class="cls-37" d="M219.44,212.15c-.43,1.5-1.07,2.9-1.89,4.19-1.6,2.52-3.88,4.56-6.57,5.88-.05.02-.1.04-.15.06-2.1,1-4.43,1.55-6.89,1.55-3.3,0-6.35-.99-8.91-2.67-.04-.03-.09-.07-.14-.1-1.92-1.3-3.55-3.02-4.77-5.02h0c-.73-1.21-1.3-2.51-1.69-3.88.79-2.68,2.27-5.07,4.22-6.96,1.46-1.42,3.17-2.56,5.06-3.34.17-.08.35-.15.52-.21.07-.03.14-.06.22-.08.34-.13.69-.23,1.05-.34.05-.02.11-.03.16-.04.05-.02.1-.03.15-.04,1.31-.36,2.7-.54,4.12-.54.64,0,1.28.04,1.91.11.24.03.49.06.72.1.08.01.16.02.23.04.46.08.92.18,1.36.31.04.01.08.02.13.04h.01c.53.14,1.05.32,1.56.54.19.06.39.14.58.22.3.13.6.27.89.43,3.88,2,6.84,5.5,8.11,9.76Z"/>
      <path class="cls-11" d="M217.54,216.33c-1.6,2.52-3.88,4.56-6.57,5.88-.05.02-.1.04-.15.06-2.1,1-4.43,1.55-6.89,1.55-3.3,0-6.35-.99-8.91-2.67-.04-.03-.09-.07-.14-.1-1.92-1.3-3.55-3.02-4.77-5.02h0c.57-2.09,2.65-3.82,3.27-4.34,1.97-1.64,4-2.13,5.3-2.43,2.06-.49,3.65-.41,5.86-.31,2.32.1,3.71.16,5.5.73,1.58.5,4.38,1.4,6.21,4.09.38.55.99,1.48,1.3,2.56Z"/>
      <path class="cls-4" d="M212.82,199.08c-.02.38-.17.65-.25.78-.07.1-.18.23-.35.38-.29.26-.57.38-.92.51-.25.1-.61.21-1.05.31-.03,0-.15.02-.25.12-.09.11-.09.22-.09.25-.13,1.06-.25,2.11-.38,3.16h0c-.04.09-.08.22-.11.38-.06.26-.05.48-.05.53,0,.15-.07.67-.21,1.7-.16,1.23-.22,1.46-.22,2.04-.01.31,0,.56.02.72-.04.08-.12.26-.32.41-.22.18-.47.2-.56.2-1.08.15-2.34.26-3.75.24-1.26-.01-2.4-.12-3.39-.26-.04-.02-.17-.06-.26-.18-.1-.12-.11-.25-.12-.36-.03-.46-.05-.69-.01-1.04.04-.33.09-.56.1-.61.08-.38.17-.92.22-1.66-.52-.23-1.42-.72-2.12-1.69-.44-.59-.7-1.26-.92-2.3-.42-2.08-.22-3.91.03-5.83.04-.31.08-.56.1-.71.24.17.47.26.62.32.35.11.73.24,1.01.07.15-.1.22-.25.39-.25.08.01.14.06.18.09.32.24.71.34.84.37.3.05.55-.04.74-.12.38-.14.52-.34.73-.29.14.03.23.15.29.25.05.26.15.45.22.56.26.39.66.58.66.58.17.09.32.12.36.24.03.1-.01.2-.06.29.01.18.06.59.36.96.33.42.9.74,1.53.64.42-.07.69-.31.81-.43.01-.01.11-.08.24-.04.09.03.16.11.17.21.03.19.11.53.37.87.12.16.34.44.73.58.39.14.72.08.87.04.22-.05.6-.17.86-.5.07-.09.38-.48.36-.92-.01-.09-.03-.25.06-.4.06-.09.14-.15.2-.18.13-.04.33-.13.51-.3.31-.29.41-.61.45-.75,0-.14.04-.2.09-.23.06-.05.12-.03.3-.04.21-.01.23-.04.32-.03.2.02.34.22.42.36s.26.49.24.97Z"/>
      <path class="cls-35" d="M200.87,206.7c.79.22,1.46.3,1.93.32.65.03,1.77.07,3.01-.44.41-.17.73-.36.94-.49-.12.28-.33.68-.7,1.07-.96,1.03-2.25,1.25-3.3,1.43-.52.09-1.27.17-2.18.11.1-.67.19-1.34.29-2.01Z"/>
      <path class="cls-28" d="M214.02,198.37c-.02.19-.05.47-.22.75-.13.19-.29.33-.39.4-.03.02-.08.06-.12.13-.06.11-.04.21-.03.24.02.13.1.59-.14,1.06-.19.37-.47.55-.58.61-.24.14-.47.19-.6.21-.05,0-.11,0-.19.01-.1.02-.17.03-.23.07-.08.06-.12.14-.13.2-.02.09-.03.17-.04.26,0,.15-.03.35-.12.53-.05.1-.11.2-.47.54-.11.1-.25.24-.43.39-.11.1-.24.22-.38.37-.12.14-.22.29-.32.41-.03.01-.06.02-.09.03.12-1.05.24-2.1.38-3.16,0-.03,0-.14.09-.25.1-.1.22-.12.25-.12.44-.09.79-.2,1.05-.31.35-.13.63-.24.92-.51.16-.14.27-.27.35-.38.08-.13.23-.41.25-.78.02-.48-.16-.84-.24-.97s-.21-.34-.42-.36c-.08-.01-.1.02-.32.03-.17.01-.23-.01-.3.04-.05.03-.09.09-.09.23-.04.14-.14.47-.45.75-.18.16-.38.25-.51.3-.06.03-.14.09-.2.18-.09.14-.07.31-.06.4.02.44-.29.82-.36.92-.25.33-.63.45-.86.5-.14.04-.48.1-.87-.04-.4-.14-.61-.42-.73-.58-.25-.34-.34-.67-.37-.87-.01-.1-.08-.18-.17-.21-.13-.04-.23.03-.24.04-.12.12-.4.36-.81.43-.63.1-1.2-.22-1.53-.64-.3-.37-.35-.77-.36-.96.05-.08.09-.18.06-.29-.04-.12-.18-.15-.36-.24,0,0-.4-.19-.66-.58-.07-.11-.17-.3-.22-.56-.05-.1-.14-.22-.29-.25-.21-.05-.36.14-.73.29-.19.08-.45.17-.74.12-.12-.03-.52-.12-.84-.37-.04-.03-.1-.08-.18-.09-.16,0-.23.15-.39.25-.27.17-.66.04-1.01-.07-.15-.05-.38-.14-.62-.32-.02-.06-.06-.17-.15-.26-.17-.18-.39-.21-.46-.22-.13-.06-.61-.31-.87-.87-.33-.7-.04-1.36.01-1.46.08-.08.2-.2.29-.39.07-.17.03-.23.09-.53.04-.17.08-.39.22-.61.02-.03.13-.2.33-.37.17-.14.22-.12.36-.24.15-.15.15-.24.27-.42.02-.03.19-.26.47-.4.34-.16.81-.18,1.04-.12.03.01.1.03.18,0,.08-.03.12-.11.14-.15.11-.21.34-.32.58-.44.19-.1.4-.15.4-.15.11-.03.2-.05.32-.11.05-.03.1-.06.18-.13.2-.18.24-.3.36-.41.09-.08.23-.17.49-.21.2-.06.37-.07.47-.06.2.01.6.09.78.25.02.01.07.06.14.06.06,0,.13-.03.17-.08.02-.04.02-.06.05-.1.03-.03.07-.05.1-.05,0-.02.02-.07.07-.11.04-.03.07-.04.09-.04.07-.06.17-.14.33-.2.57-.24,1.13.03,1.24.09.33.16.5.38.53.42.08.11.14.21.17.3.01.01.04.07.11.1.08.04.14.02.16.01.06-.02.15-.05.26-.06.43-.07.76.06.85.09.37.15.57.42.65.53.12-.01.59-.06,1.04.24.54.36.64.93.65,1.02.01.01.02.06.07.08.03.02.07.01.08.01.15-.04.56-.13,1.01.05.07.03.32.13.54.38.17.18.22.32.35.54.35.65.51.55.67.97.19.53.08,1.02.02,1.17-.09.23-.14.31-.14.31-.05.07-.09.11-.1.17,0,.08.06.15.12.19.08.05.2.12.29.25.03.06.03.08.09.24.11.27.14.27.17.41.02.07.05.2.03.38-.02.13-.05.17-.06.34-.01.14.01.2.04.25.03.07.08.1.12.13.09.06.2.15.34.31.06.07.14.19.21.36.11.32.09.58.08.75Z"/>
      <g>
        <path class="cls-31" d="M200.43,199.72l-1.22,2.27c-.19.57.55.66.93.53.04,0,.03-.06-.01-.06-.3-.02-.89-.04-.78-.41,0,0,1.13-2.31,1.13-2.31.02-.03-.04-.06-.05-.03h0Z"/>
        <ellipse class="cls-31" cx="201.88" cy="199.93" rx=".74" ry=".49" transform="translate(-17.74 380.19) rotate(-84.1)"/>
        <ellipse class="cls-15" cx="199.08" cy="199.53" rx=".69" ry=".46" transform="translate(-19.86 377.05) rotate(-84.1)"/>
        <path class="cls-31" d="M202.95,199.2c-.37-.61-1.21-.9-1.84-.55-.06.03-.08.11-.04.16.03.06.12.08.17.04.49-.36,1.24-.02,1.5.46.07.14.29.02.21-.12h0Z"/>
        <path class="cls-15" d="M200.15,198.77c-.31-.71-1.39-.76-1.92-.27-.05.04-.05.11-.02.16s.11.05.16.02c.52-.46,1.24-.3,1.68.17.05.04.12-.01.1-.07h0Z"/>
        <path class="cls-1" d="M202.2,203.89c-.31.34-.8.47-1.24.36-.05-.01-.1.02-.11.06-.01.05.02.1.06.11.5.12,1.06-.05,1.39-.43.06-.07-.04-.16-.1-.09h0Z"/>
      </g>
      <path class="cls-12" d="M196.34,214.7c0,.11-.33,1.36-.72,3.25-.27,1.34-.47,2.44-.6,3.2-.04-.03-.09-.07-.14-.1.16-1.02.37-2.1.63-3.24.37-1.59.76-2.96.84-3.11Z"/>
      <path class="cls-12" d="M212.26,215.6c-.31,1.2-.59,2.47-.84,3.82-.18.96-.34,1.89-.45,2.79-.05.02-.1.04-.15.06.06-.44.15-1,.25-1.66.07-.44.17-1.05.34-1.84.12-.54.27-1.28.55-2.25.11-.38.21-.7.3-.92Z"/>
    </g>
  </g>
</svg>