<?xml version="1.0" encoding="UTF-8"?>
<svg id="Layer_2" data-name="Layer 2" xmlns="http://www.w3.org/2000/svg" xmlns:xlink="http://www.w3.org/1999/xlink" viewBox="0 0 281.55 286.11">
  <defs>
    <style>
      .cls-1, .cls-2, .cls-3, .cls-4, .cls-5, .cls-6, .cls-7, .cls-8, .cls-9, .cls-10, .cls-11, .cls-12, .cls-13, .cls-14, .cls-15, .cls-16, .cls-17 {
        stroke-width: 0px;
      }

      .cls-1, .cls-11 {
        fill: #66c8c7;
      }

      .cls-2, .cls-4 {
        fill: #161a43;
      }

      .cls-3 {
        fill: #ffde77;
      }

      .cls-4, .cls-11 {
        isolation: isolate;
      }

      .cls-4, .cls-11, .cls-18 {
        opacity: .2;
      }

      .cls-5 {
        fill: #d75551;
      }

      .cls-19 {
        stroke: #fff;
      }

      .cls-19, .cls-13, .cls-20 {
        fill: none;
      }

      .cls-19, .cls-20 {
        stroke-miterlimit: 10;
        stroke-width: .91px;
      }

      .cls-21 {
        clip-path: url(#clippath-2);
      }

      .cls-6 {
        fill: #db8683;
      }

      .cls-7 {
        fill: #e5e5e5;
      }

      .cls-8 {
        fill: #cf524f;
      }

      .cls-9 {
        fill: #e0c069;
      }

      .cls-10 {
        fill: #22bbb3;
      }

      .cls-12 {
        fill: #fef6a8;
      }

      .cls-22 {
        opacity: .7;
      }

      .cls-23 {
        clip-path: url(#clippath-1);
      }

      .cls-14 {
        fill: #f79e99;
      }

      .cls-15 {
        fill: #fff;
      }

      .cls-24 {
        clip-path: url(#clippath);
      }

      .cls-25 {
        clip-path: url(#clippath-3);
      }

      .cls-16 {
        fill: #027f8a;
      }

      .cls-17 {
        fill: #f2695d;
      }

      .cls-20 {
        stroke: #e5e5e5;
      }
    </style>
    <clipPath id="clippath">
      <rect class="cls-13" x="58.93" y="90.39" width="21.35" height="42.96" transform="translate(-58.72 81.99) rotate(-45)"/>
    </clipPath>
    <clipPath id="clippath-1">
      <rect class="cls-13" x="49.63" y="101.63" width="21.35" height="42.96" transform="translate(-69.39 78.7) rotate(-45)"/>
    </clipPath>
    <clipPath id="clippath-2">
      <polygon class="cls-13" points="47.76 157.98 69.13 136.61 38.75 106.23 20.39 124.58 47.76 157.98"/>
    </clipPath>
    <clipPath id="clippath-3">
      <polygon class="cls-13" points="38.87 169.39 60.24 148.02 29.86 117.64 11.5 135.99 38.87 169.39"/>
    </clipPath>
  </defs>
  <g id="Layer_4" data-name="Layer 4">
    <g>
      <g id="BACKGROUND">
        <path class="cls-11" d="M60.48,209.04S-3.03,204.55,13.79,97.86C30.62-8.82,181.53-18.48,245.59,22.24c64.06,40.72,35.83,179.68-32.03,180.33-67.86.65-153.08,6.46-153.08,6.46Z"/>
      </g>
      <g id="OBJECTS">
        <g>
          <ellipse class="cls-4" cx="85.3" cy="223.4" rx="71.98" ry="5.38"/>
          <g>
            <g>
              <path class="cls-17" d="M21.04,159.58l5.81-42.7.66-4.16v.02c.84-4.55,4.82-8,9.62-8h127.18c5.4,0,9.78,4.38,9.78,9.78v87.72c0,5.4-4.38,9.78-9.78,9.78H13.74c-5.4,0-9.78-4.38-9.78-9.78v-.48l1.21-28.7,15.87-13.48Z"/>
              <g>
                <rect class="cls-8" x="89.62" y="109.82" width="74.98" height="54.71"/>
                <rect class="cls-8" x="89.62" y="167.98" width="75.01" height="1.72"/>
                <rect class="cls-8" x="89.62" y="173.72" width="75.01" height="1.72"/>
                <rect class="cls-8" x="89.62" y="179.45" width="75.01" height="1.72"/>
                <rect class="cls-8" x="89.62" y="185.19" width="75.01" height="1.72"/>
              </g>
            </g>
            <g>
              <g>
                <rect class="cls-8" x="58.9" y="109.9" width="27.97" height="95.64"/>
                <path class="cls-17" d="M83.52,160.31c0,.86-.7,1.55-1.55,1.55h-6.67c-.86,0-1.55-.7-1.55-1.55h0c0-.86.7-1.55,1.55-1.55h6.67c.86,0,1.55.7,1.55,1.55h0Z"/>
              </g>
              <g>
                <rect class="cls-1" x="62.37" y="113.88" width="21.35" height="42.96"/>
                <rect class="cls-1" x="62.37" y="113.88" width="21.35" height="42.96"/>
                <g class="cls-22">
                  <g class="cls-24">
                    <rect class="cls-15" x="-9.66" y="120.21" width="105.26" height="15.11" transform="translate(-77.76 67.81) rotate(-45)"/>
                  </g>
                  <g class="cls-23">
                    <rect class="cls-15" x="-.74" y="140.84" width="105.26" height="7.56" transform="translate(-87.07 79.05) rotate(-45)"/>
                  </g>
                </g>
              </g>
            </g>
            <g>
              <polygon class="cls-1" points="26.78 156.84 57.01 156.84 57.01 113.88 31.05 113.88 26.78 156.84"/>
              <g class="cls-22">
                <g class="cls-21">
                  <rect class="cls-15" x="-8.45" y="124.54" width="94.2" height="15.11" transform="translate(-82.09 66.02) rotate(-45)"/>
                </g>
                <g class="cls-25">
                  <rect class="cls-15" x=".88" y="144.75" width="94.2" height="7.56" transform="translate(-90.98 77.43) rotate(-45)"/>
                </g>
              </g>
            </g>
            <g>
              <g>
                <g>
                  <path class="cls-16" d="M4.54,205.54c1.36,3.78,4.96,6.48,9.2,6.48h150.58c4.24,0,7.85-2.71,9.2-6.48H4.54Z"/>
                  <path class="cls-16" d="M60.28,212.02c.08-.74.13-1.49.13-2.25,0-11.36-9.21-20.57-20.57-20.57s-20.57,9.21-20.57,20.57c0,.76.04,1.51.12,2.25h40.88Z"/>
                  <path class="cls-16" d="M146.95,212.02c.08-.74.12-1.49.12-2.25,0-11.36-9.21-20.57-20.57-20.57s-20.57,9.21-20.57,20.57c0,.76.04,1.51.13,2.25h40.88Z"/>
                </g>
                <path class="cls-10" d="M152.56,198.2h23.53v7.07s.72,3.51-2.91,3.51h-20.88l.26-10.59Z"/>
              </g>
              <g>
                <g>
                  <path class="cls-2" d="M24.12,209.77c0,8.69,7.04,15.73,15.73,15.73s15.73-7.04,15.73-15.73-7.04-15.73-15.73-15.73-15.73,7.04-15.73,15.73Z"/>
                  <path class="cls-10" d="M32.86,209.77c0,3.85,3.12,6.98,6.98,6.98s6.98-3.12,6.98-6.98-3.12-6.98-6.98-6.98-6.98,3.12-6.98,6.98Z"/>
                  <path class="cls-16" d="M35.89,209.77c0,2.18,1.77,3.95,3.96,3.95s3.95-1.77,3.95-3.95-1.77-3.96-3.95-3.96-3.96,1.77-3.96,3.96Z"/>
                </g>
                <g>
                  <path class="cls-2" d="M110.78,209.77c0,8.69,7.04,15.73,15.73,15.73s15.73-7.04,15.73-15.73-7.04-15.73-15.73-15.73-15.73,7.04-15.73,15.73Z"/>
                  <path class="cls-10" d="M119.53,209.77c0,3.85,3.12,6.98,6.98,6.98s6.98-3.12,6.98-6.98-3.12-6.98-6.98-6.98-6.98,3.12-6.98,6.98Z"/>
                  <path class="cls-16" d="M122.55,209.77c0,2.18,1.77,3.95,3.95,3.95s3.96-1.77,3.96-3.95-1.77-3.96-3.96-3.96-3.95,1.77-3.95,3.96Z"/>
                </g>
              </g>
            </g>
          </g>
        </g>
        <g>
          <ellipse class="cls-4" cx="210.14" cy="280.53" rx="47.59" ry="5.58"/>
          <g>
            <g>
              <g>
                <path class="cls-2" d="M197.65,249.94s-3.72,30.44-5.76,30.96c-1.53.39-49.77,1.16-6.67-7.01l2.65-29.25,9.78,5.31Z"/>
                <path class="cls-2" d="M225.21,248.17s-1.03,30.65.91,31.47c1.45.62,48.99,8.84,7.68-5.89l1.9-29.31-10.48,3.73Z"/>
              </g>
              <g>
                <path class="cls-16" d="M192.94,151.68s-9.17,90.59-10.15,117.18c0,0,10.65,2.24,12.72,2.15l16.16-98.21,5.22.62,6.86,97.99s6.54.91,12.7-.61c0,0,.64-55.24,2.53-120.65,1.89-65.41-46.05,1.52-46.05,1.52Z"/>
                <g class="cls-18">
                  <path class="cls-2" d="M191.65,164.65c-2.56,26.02-8.11,83.86-8.86,104.21,0,0,10.65,2.24,12.72,2.15l16.16-98.21s-11.42-3.34-20.02-8.16Z"/>
                  <path class="cls-2" d="M238.8,157.11c.06-2.31.13-4.62.2-6.96,1.89-65.41-46.05,1.52-46.05,1.52,0,0-.09.92-.26,2.57,9.37,2.94,26.62,6.69,46.11,2.87Z"/>
                </g>
              </g>
            </g>
            <g>
              <g>
                <g>
                  <path class="cls-14" d="M217.6,63.93s.27,6.48-1.51,8.79c-1.78,2.3-16.74.43-17.29,9.36-.55,8.93,45.28,10.23,49.53,5.62,4.25-4.61-2.93-12.21-8.78-12.96-7.82-1.01-8.64-6.19-7.55-15.99s-14.41,5.18-14.41,5.18Z"/>
                  <path class="cls-6" d="M215.31,73.24c5.86-1.89,11.53-4.3,16.31-8.22-.03-1.83.12-3.92.39-6.28,1.1-9.79-14.41,5.19-14.41,5.19,0,0,.27,6.48-1.51,8.79-.16.21-.43.38-.78.53Z"/>
                </g>
                <path class="cls-14" d="M203.4,35.77s-5.11,23.75,3.44,28.24,26.69,8.73,28.18-14.15c1.49-22.88-9.49-29.01-20.27-26.35-10.79,2.65-11.35,12.26-11.35,12.26Z"/>
              </g>
              <g>
                <g>
                  <path class="cls-6" d="M213.12,44.25s-.11.46-.35,1.13c-.23.66-.59,1.53-.99,2.37-.4.84-.85,1.66-1.22,2.26-.36.6-.65.98-.65.98,0,0,.11-.46.35-1.13.23-.66.59-1.53.99-2.37.4-.84.85-1.66,1.22-2.26.36-.6.65-.98.65-.98Z"/>
                  <path class="cls-2" d="M204.19,46.17s-.03-.18-.05-.5c-.02-.32-.02-.78.08-1.33.05-.27.11-.57.23-.88.11-.31.26-.63.47-.95.23-.3.5-.63.88-.84l.29-.15c.1-.04.21-.07.32-.1.21-.08.43-.09.65-.1h.16s.02,0,.02,0h.08s.03.01.03.01h.07s.26.05.26.05c.05,0,.08.01.14.03l.18.06c.12.04.23.09.35.14.4.23.72.58.88.94.2.36.26.72.31,1.05.04.33.03.64.01.92-.05.56-.17,1-.27,1.3-.1.3-.18.47-.18.47,0,0-.01-.18-.03-.49-.02-.31-.06-.75-.14-1.25-.05-.25-.11-.52-.18-.78-.09-.26-.19-.52-.34-.73-.13-.24-.35-.36-.54-.49-.05-.01-.1-.03-.14-.05l-.07-.03s-.08-.01-.12-.02l-.26-.03h-.07s-.03-.01-.03-.01c.11.01.03,0,.05,0h0s0,0,0,0h-.01s-.1.01-.1.01c-.14,0-.27,0-.4.05-.06.02-.13.03-.19.05l-.17.09c-.23.12-.45.3-.64.5-.18.22-.35.45-.49.7-.14.25-.26.49-.37.72-.21.47-.36.88-.46,1.18-.1.3-.16.47-.16.47Z"/>
                  <path class="cls-2" d="M217.4,46.58s-.03-.18-.05-.5c-.02-.32-.02-.78.08-1.33.05-.27.11-.57.23-.88.11-.31.26-.63.47-.95.23-.3.5-.63.88-.84l.29-.16c.1-.04.21-.07.32-.1.21-.08.43-.09.65-.1h.16s.02,0,.02,0h.08s.03.01.03.01h.07s.26.05.26.05c.05,0,.08.01.14.03l.18.06c.12.04.23.09.35.14.4.23.72.58.88.94.2.36.26.72.31,1.05.04.33.03.64.01.92-.05.56-.17,1-.27,1.3-.1.3-.18.47-.18.47,0,0-.01-.18-.03-.49-.02-.31-.06-.75-.14-1.25-.05-.25-.11-.52-.18-.78-.09-.26-.19-.52-.34-.73-.13-.24-.35-.36-.54-.49-.05-.01-.1-.03-.14-.05l-.07-.03s-.08-.01-.12-.02l-.26-.03h-.07s-.03-.01-.03-.01c.11.01.03,0,.05,0h0s0,0,0,0h-.01s-.1.01-.1.01c-.14,0-.27,0-.4.05-.06.02-.13.03-.19.05l-.17.09c-.23.12-.45.3-.64.5-.18.22-.35.45-.49.7-.14.25-.26.49-.37.72-.21.47-.36.88-.46,1.18-.1.3-.16.47-.16.47Z"/>
                </g>
                <g>
                  <path class="cls-15" d="M229.16,50.83s-12.42-3.22-17.3-3.52c-3.68-.23-8.32,1.54-10.37,2.43-.51,7.07,1.31,13.97,5.07,16.11,5.44,3.1,14.33,4.9,20.65,0,2.37-6.59,1.95-15.02,1.95-15.02Z"/>
                  <path class="cls-7" d="M211.54,65.11c-1.92-.07-4.28-.25-6.68-.7.51.59,1.08,1.09,1.7,1.44,5.44,3.1,14.33,4.9,20.65,0,1.06-2.93,1.56-6.23,1.79-8.99-4.38,5.27-10.63,8.5-17.46,8.25Z"/>
                  <path class="cls-20" d="M225.12,50.68s5.86,1.07,8.37-1.53l1.53,4.29s-3.49,7.35-8.65,9.81"/>
                  <path class="cls-19" d="M225.12,50.68s5.86,1.07,8.37-1.53"/>
                </g>
                <g>
                  <path class="cls-14" d="M233.91,45.32s2.7-3.94,4.93-.31c2.24,3.64-.66,9.47-4.47,8.66-2.55-.54-.46-8.35-.46-8.35Z"/>
                  <path class="cls-2" d="M228.61,37.35s-1.67,6.59,3.21,8.43l-.42,4.14,1.81-.15s.28-6.28,3.77-6.13l.14-5.98-8.51-.31Z"/>
                  <path class="cls-6" d="M234.33,52.2c.26-.14.52-.3.73-.49.11-.09.21-.2.28-.31.07-.11.13-.23.12-.34.01-.06,0-.11-.03-.16,0-.05-.05-.1-.08-.15-.03-.05-.07-.1-.12-.14-.05-.04-.09-.09-.15-.13-.12-.07-.23-.15-.35-.22l-.38-.19-.15-.07v-.17c.09-.83.22-1.64.43-2.45.11-.4.23-.8.41-1.19.18-.39.38-.78.76-1.1.19-.15.44-.28.71-.29.28-.01.52.09.72.22l.25.17.26.24c.16.17.29.35.39.55.19.41.24.86.17,1.28-.06.42-.2.82-.41,1.17.25-.77.3-1.64-.1-2.27-.1-.16-.22-.3-.35-.42l-.21-.16-.27-.15c-.14-.07-.3-.13-.44-.11-.14.01-.27.08-.39.19-.24.22-.44.56-.59.92-.15.36-.28.73-.39,1.11-.21.77-.38,1.56-.5,2.35l-.13-.24.4.24c.13.08.26.19.38.29.06.06.11.12.17.18.06.06.11.13.15.21.04.08.09.15.1.25.02.09.03.18.01.28-.02.19-.13.34-.23.46-.11.12-.24.21-.37.3-.26.16-.54.28-.83.35Z"/>
                </g>
              </g>
              <g>
                <path class="cls-17" d="M212.56,19.65c-8.84,1.08-9.62,14.14-9.68,16.71-39.95,2,34.77,4.38,34.77,4.38,2.09-19.7-15.29-22.28-25.09-21.08Z"/>
                <path class="cls-5" d="M237.65,40.74c-30.09-1.94-34.77-4.38-34.77-4.38-39.95,2,34.77,4.38,34.77,4.38Z"/>
              </g>
            </g>
            <g>
              <g>
                <path class="cls-17" d="M210.51,73.91s2.75,6.95,11.29,7.26,13.43-8.21,13.43-8.21c0,0,11.59,1.26,14.04,8.21,2.44,6.95-6.1,71.7-6.1,71.7,0,0-29.6,6.95-53.4-2.21,0,0,3.97-57.17,4.58-61.59.61-4.42,1.22-14.53,16.17-15.16Z"/>
                <path class="cls-5" d="M218.57,116.83c-8.85,2.09-17.78,3.63-26.76,4.82-1.06,14.8-2.05,29.01-2.05,29.01,23.8,9.16,53.4,2.21,53.4,2.21,0,0,3.48-26.38,5.36-47.27-9.47,5.17-19.79,8.83-29.95,11.23Z"/>
                <path class="cls-5" d="M221.55,82.78c8.61.32,14.24-6.67,16.1-9.39-1.45-.32-2.43-.43-2.43-.43,0,0-4.88,8.53-13.43,8.21-8.54-.32-11.29-7.26-11.29-7.26-.99.04-1.91.13-2.78.25,1.01,2.02,4.87,8.29,13.82,8.62Z"/>
              </g>
              <g>
                <g>
                  <g>
                    <rect class="cls-3" x="164.25" y="89.37" width="53.1" height="62.54" transform="translate(54.28 300.41) rotate(-85.09)"/>
                    <rect class="cls-12" x="153.67" y="99.08" width="53.1" height="41.3" transform="translate(45.51 289.04) rotate(-85.09)"/>
                    <rect class="cls-9" x="208.47" y="98.19" width="10.64" height="6.23" transform="translate(94.56 305.64) rotate(-85.09)"/>
                  </g>
                  <path class="cls-15" d="M158.72,128.91s-2.08-.27-1.45-4.16c0,0-.99-3.8.9-5.06,0,0-.85-1.98,1.68-2.2,2.53-.21,9.26,2.11.42,2.11,0,0,17.51,2.8-.21,2.32,0,0,16.81,2.38-.21,2.11,0,0,12.69,2.53-.63,1.9l-.5,2.99Z"/>
                </g>
                <g>
                  <g>
                    <path class="cls-14" d="M253.35,94.75l-17.37,1.26,1.26,20.53-27.93,8.5c.1.44.17.9.2,1.37.16,2.54.37,5.08.56,7.62,16.1-.65,41.04-2.86,42.64-5.17,2.84-4.11.63-34.11.63-34.11Z"/>
                    <path class="cls-6" d="M212.17,124.18l-2.85.87c.1.44.17.9.2,1.37.16,2.54.37,5.08.56,7.62,1.16-.05,2.36-.1,3.6-.16-.52-3.23-1.04-6.45-1.51-9.69Z"/>
                    <path class="cls-6" d="M253.96,105.87c-.24-6.16-.61-11.11-.61-11.11l-17.37,1.26.6,9.79c5.79,0,11.58.02,17.38.06Z"/>
                  </g>
                  <path class="cls-15" d="M210.72,124.02l-2.73.84c-11.99-5.02-3,.34-3,.34-20.65,0-2,2.01-2,2.01-19.32,0-.33,2.34-.33,2.34-22.65,1.34.67,2.34.67,2.34-14.77,2.3-5.88,2.7,8.41,2.05-.3-3.31-.64-6.62-1.02-9.92Z"/>
                  <path class="cls-17" d="M233.13,104.55l22.43-2.53s2.5-25.36-18.33-28.63l-4.09,31.16Z"/>
                </g>
              </g>
            </g>
          </g>
        </g>
      </g>
    </g>
  </g>
</svg>