<?xml version="1.0" encoding="UTF-8"?>
<svg id="Layer_2" data-name="Layer 2" xmlns="http://www.w3.org/2000/svg" viewBox="0 0 64 64">
  <defs>
    <style>
      .cls-1 {
        fill: #feb4ba;
      }

      .cls-1, .cls-2, .cls-3, .cls-4, .cls-5, .cls-6, .cls-7, .cls-8, .cls-9, .cls-10 {
        stroke-width: 0px;
      }

      .cls-2 {
        fill: #afa1c8;
      }

      .cls-3 {
        fill: #dad7e5;
      }

      .cls-4 {
        fill: none;
      }

      .cls-5 {
        fill: #cb6870;
      }

      .cls-6 {
        fill: #f5e5ba;
      }

      .cls-7 {
        fill: #337c80;
      }

      .cls-8 {
        fill: #837996;
      }

      .cls-9 {
        fill: #edebf2;
      }

      .cls-10 {
        fill: #fe828c;
      }
    </style>
  </defs>
  <g id="icon-set">
    <g id="pick_up">
      <rect class="cls-4" width="64" height="64"/>
      <g id="milk_basket">
        <g id="bottles">
          <g>
            <path class="cls-1" d="M19.22,19.85c.27,2.12-1.49,4.06-3.95,4.34s-4.67-1.22-4.94-3.34,1.49-4.06,3.95-4.34,4.67,1.22,4.94,3.34Z"/>
            <path class="cls-7" d="M21.44,23c.21,1.63-1.2,3.14-3.14,3.36l-5.44.62c-1.94.22-3.69-.93-3.9-2.56l-.05-.39c-.21-1.63,1.2-3.14,3.14-3.36l5.44-.62c1.94-.22,3.69.93,3.9,2.56l.05.39Z"/>
            <path class="cls-2" d="M27.6,55.35c.21,1.63-.8,3.09-2.24,3.25l-10.69,1.21c-1.44.16-2.78-1.03-2.99-2.66l-3.82-29.82c-.21-1.63.8-3.09,2.24-3.25l10.71-1.21c1.44-.16,2.78,1.03,2.99,2.66l3.82,29.82h-.01Z"/>
            <path class="cls-8" d="M10.45,24.05c-.27,0-.9.05-1.49.45-.72.48-.93,1.17-1.02,1.48-.2.66-.11,1.24-.04,1.57l3.74,29.61c.03.26.1.68.36,1.13.16.29.53.94,1.36,1.3.72.32,1.39.23,1.68.17l-4.57-35.71h-.01Z"/>
            <path class="cls-1" d="M16.55,16.76c.13,1.05-.66,2.02-1.8,2.15h0c-1.12.13-2.15-.62-2.29-1.69l-.37-2.88c-.13-1.05.66-2.02,1.8-2.15h0c1.12-.13,2.15.62,2.29,1.69l.37,2.89h0Z"/>
            <polygon class="cls-6" points="20.73 31.56 24.5 31.13 24.58 31.72 20.8 32.15 20.73 31.56"/>
            <polygon class="cls-6" points="21.31 36.1 25.08 35.67 25.16 36.26 21.38 36.69 21.31 36.1"/>
            <polygon class="cls-6" points="21.81 40.03 25.58 39.6 25.66 40.19 21.89 40.62 21.81 40.03"/>
            <polygon class="cls-6" points="22.39 44.55 26.16 44.12 26.24 44.71 22.46 45.14 22.39 44.55"/>
            <polygon class="cls-6" points="22.75 47.4 26.53 46.97 26.61 47.57 22.83 47.99 22.75 47.4"/>
            <polygon class="cls-6" points="23.34 51.94 27.11 51.51 27.19 52.1 23.41 52.53 23.34 51.94"/>
          </g>
          <g>
            <path class="cls-1" d="M38.08,19.95c.02,2.13-1.97,3.88-4.45,3.9-2.48.02-4.49-1.7-4.51-3.84s1.97-3.88,4.45-3.9,4.49,1.7,4.51,3.84Z"/>
            <path class="cls-7" d="M39.91,23.31c.01,1.64-1.57,2.99-3.53,3l-5.48.04c-1.96.01-3.56-1.31-3.57-2.96v-.4c-.02-1.64,1.56-2.99,3.52-3l5.48-.04c1.96-.01,3.56,1.31,3.57,2.96v.4Z"/>
            <path class="cls-2" d="M42.17,56.11c.01,1.64-1.16,2.99-2.61,3l-10.77.07c-1.45,0-2.64-1.32-2.66-2.96l-.23-30.03c-.01-1.64,1.16-2.99,2.61-3l10.79-.07c1.45,0,2.64,1.32,2.66,2.96l.23,30.03h-.01Z"/>
            <path class="cls-8" d="M28.86,23.2c-.27-.02-.9-.05-1.53.29-.77.4-1.06,1.07-1.19,1.36-.28.64-.26,1.22-.23,1.55l.17,29.82c0,.26.02.69.22,1.16.13.3.42.99,1.19,1.44.68.39,1.35.37,1.65.35l-.28-35.96h-.01Z"/>
            <path class="cls-1" d="M35.79,16.6c0,1.06-.9,1.94-2.04,1.95h0c-1.13,0-2.06-.85-2.07-1.92l-.02-2.9c0-1.06.9-1.94,2.04-1.95h0c1.13,0,2.06.85,2.07,1.92l.02,2.91h0Z"/>
            <rect class="cls-6" x="38.18" y="31.74" width="3.8" height=".6" transform="translate(-.22 .28) rotate(-.39)"/>
            <rect class="cls-6" x="38.21" y="36.3" width="3.8" height=".6" transform="translate(-.25 .28) rotate(-.39)"/>
            <rect class="cls-6" x="38.24" y="40.26" width="3.8" height=".6" transform="translate(-.28 .28) rotate(-.39)"/>
            <rect class="cls-6" x="38.28" y="44.82" width="3.8" height=".6" transform="translate(-.31 .28) rotate(-.39)"/>
            <rect class="cls-6" x="38.3" y="47.69" width="3.8" height=".6" transform="translate(-.33 .28) rotate(-.39)"/>
            <rect class="cls-6" x="38.34" y="52.26" width="3.8" height=".6" transform="translate(-.36 .28) rotate(-.39)"/>
          </g>
          <g>
            <path class="cls-1" d="M51.58,18.74c-.13,2.13-2.23,3.75-4.71,3.62-2.47-.13-4.36-1.97-4.23-4.1s2.23-3.75,4.71-3.62,4.36,1.97,4.23,4.1Z"/>
            <path class="cls-7" d="M53.17,22.21c-.1,1.64-1.77,2.89-3.73,2.78l-5.47-.3c-1.95-.11-3.46-1.53-3.36-3.17l.02-.4c.1-1.64,1.77-2.89,3.73-2.78l5.47.3c1.95.11,3.46,1.53,3.36,3.17l-.02.4Z"/>
            <path class="cls-2" d="M53.15,55.08c-.1,1.64-1.36,2.91-2.81,2.83l-10.75-.58c-1.45-.08-2.55-1.48-2.45-3.12l1.84-29.98c.1-1.64,1.36-2.91,2.81-2.83l10.77.59c1.45.08,2.55,1.48,2.45,3.12l-1.84,29.98h-.01Z"/>
            <path class="cls-8" d="M42.15,21.43c-.27-.04-.9-.1-1.55.19-.8.35-1.13,1-1.28,1.28-.32.62-.34,1.2-.33,1.53l-1.89,29.77c-.02.26-.03.69.14,1.17.11.31.35,1.01,1.09,1.51.65.43,1.33.46,1.62.45l2.21-35.91h-.01Z"/>
            <path class="cls-1" d="M49.52,15.26c-.07,1.06-1.03,1.88-2.17,1.82h0c-1.12-.06-2-.97-1.93-2.04l.18-2.9c.07-1.06,1.03-1.88,2.17-1.82h0c1.12.06,2,.97,1.93,2.04l-.18,2.91h0Z"/>
            <polygon class="cls-6" points="50.86 30.52 54.65 30.73 54.62 31.32 50.82 31.12 50.86 30.52"/>
            <polygon class="cls-6" points="50.58 35.08 54.37 35.29 54.34 35.88 50.54 35.68 50.58 35.08"/>
            <polygon class="cls-6" points="50.33 39.04 54.13 39.24 54.09 39.84 50.3 39.63 50.33 39.04"/>
            <polygon class="cls-6" points="50.05 43.58 53.85 43.79 53.81 44.39 50.02 44.18 50.05 43.58"/>
            <polygon class="cls-6" points="49.88 46.45 53.67 46.66 53.64 47.25 49.84 47.05 49.88 46.45"/>
            <polygon class="cls-6" points="49.6 51.01 53.39 51.22 53.36 51.81 49.56 51.61 49.6 51.01"/>
          </g>
        </g>
        <g id="basket">
          <rect class="cls-10" x="4.48" y="37.24" width="55.03" height="4.63"/>
          <polygon class="cls-10" points="52.58 62.91 11.42 62.91 7.39 41.87 56.61 41.87 52.58 62.91"/>
          <polygon class="cls-5" points="56.13 44.39 56.61 41.87 7.39 41.87 7.87 44.39 56.13 44.39"/>
          <path class="cls-2" d="M52.64,62.22l-22.37-21.04c-.96-.9-.96-2.36,0-3.26h0c.96-.9,2.51-.9,3.47,0l22.37,21.04c.96.9.96,2.36,0,3.26h0c-.96.9-2.51.9-3.47,0Z"/>
          <ellipse class="cls-8" cx="32" cy="39.55" rx="1.12" ry="1.05"/>
        </g>
      </g>
      <g id="pin">
        <path class="cls-5" d="M63.2,11.75c0,5.22-7.99,14.54-11.56,18.16,0,0-11.56-11.77-11.56-18.16S45.26.19,51.64.19s11.56,5.17,11.56,11.56Z"/>
        <path class="cls-10" d="M63.2,11.75c0,4.19-4.95,10.7-8.4,14.69-1.39-1.49-11.41-12.05-11.41-17.99,0-2.26.65-4.47,1.9-6.36,5.33-3.51,12.5-2.03,16.01,3.3,1.24,1.89,1.91,4.1,1.9,6.36Z"/>
        <path class="cls-3" d="M56.59,11.75c0,2.74-2.21,4.95-4.95,4.96-2.74,0-4.95-2.21-4.96-4.95,0-1.73.9-3.33,2.38-4.23,2.34-1.42,5.38-.68,6.81,1.65.47.77.72,1.66.72,2.57Z"/>
        <path class="cls-9" d="M55.87,14.32c-2.34,1.42-5.38.67-6.8-1.67-.95-1.58-.95-3.55,0-5.13,2.34-1.42,5.38-.67,6.8,1.67.95,1.58.95,3.55,0,5.13Z"/>
      </g>
    </g>
  </g>
</svg>