<?xml version="1.0" encoding="UTF-8"?>
<svg id="Layer_2" data-name="Layer 2" xmlns="http://www.w3.org/2000/svg" viewBox="0 0 64 64">
  <defs>
    <style>
      .cls-1 {
        fill: #fe9ba3;
      }

      .cls-1, .cls-2, .cls-3, .cls-4, .cls-5, .cls-6, .cls-7, .cls-8, .cls-9, .cls-10, .cls-11, .cls-12, .cls-13, .cls-14 {
        stroke-width: 0px;
      }

      .cls-2 {
        fill: #feb4ba;
      }

      .cls-3 {
        fill: #afa1c8;
      }

      .cls-4 {
        fill: #df8761;
      }

      .cls-5 {
        fill: #dad7e5;
      }

      .cls-6 {
        fill: none;
      }

      .cls-7 {
        fill: #cb6870;
      }

      .cls-8 {
        fill: #f5e5ba;
      }

      .cls-9 {
        fill: #337c80;
      }

      .cls-10 {
        fill: #837996;
      }

      .cls-11 {
        fill: #4b415d;
      }

      .cls-12 {
        fill: #64577b;
      }

      .cls-13 {
        fill: #edebf2;
      }

      .cls-14 {
        fill: #fe828c;
      }
    </style>
  </defs>
  <g id="icon-set">
    <g id="scooter_with_basket">
      <rect class="cls-6" width="64" height="64"/>
      <g id="scooter">
        <path class="cls-7" d="M52.54,11.81v10.95h-13.69c0-4.71,3.01-8.9,7.47-10.39,2.02-.56,4.13-.75,6.22-.56Z"/>
        <path class="cls-14" d="M52.54,11.81v9.58h-7.74c-1.51,0-2.74-1.21-2.75-2.73,0-.29.04-.58.13-.86.75-2.22,2.19-4.14,4.11-5.48,2.03-.55,4.15-.73,6.24-.52Z"/>
        <path class="cls-5" d="M51.17,44.66l-4.11,10.95H.51v-8.21c0-5.29,2.55-10.26,6.85-13.35,5.17-3.72,9.31-3.08,17.8-3.08v13.69c0,3.02,2.45,5.48,5.48,5.48h10.95v-27.38h5.48l4.11,21.9Z"/>
        <path class="cls-13" d="M22.42,33.71v13.69c0,3.02,2.45,5.48,5.48,5.48h8.21c1.51,0,2.74-1.23,2.74-2.74h-8.21c-3.02,0-5.48-2.45-5.48-5.48v-13.69c-8.32,0-15.26-1.11-21.1,6.27,5.39-4.24,9.62-3.53,18.36-3.53Z"/>
        <path class="cls-13" d="M51.17,44.66l-2.26,6.04c-.78-4.27-4.11-22.19-4-22-.26-1.49.74-2.91,2.23-3.16.17-.03.34-.04.51-.04.07,0-.3-1.23,3.52,19.17Z"/>
        <path class="cls-7" d="M63.49,55.62h-16.43l4.11-10.95c3.46,0,6.3.4,9.12,3.2,2.05,2.06,3.21,4.84,3.2,7.75Z"/>
        <path class="cls-14" d="M61.19,52.88h-11.13c-.76,0-1.36-.62-1.36-1.38,0-.16.03-.32.09-.47l2.38-6.37h1.37c4.21,0,8.05,2.42,9.87,6.22.35.67.09,1.5-.59,1.85-.2.1-.41.15-.63.15Z"/>
        <path class="cls-7" d="M19.68,36.45v13.69H5.99c0-3.4-.38-8.21,4.71-11.72,3.2-2.26,6.05-1.97,8.98-1.97Z"/>
        <path class="cls-14" d="M19.68,36.45v10.95h-10.95c0-3.37-.22-5.87,1.97-8.98,3.2-2.26,6.05-1.97,8.98-1.97Z"/>
        <path class="cls-1" d="M19.68,41.93v2.74h-2.74c-.76,0-1.37-.61-1.37-1.37s.61-1.37,1.37-1.37h2.74Z"/>
        <path class="cls-12" d="M51.17,63.83c-3.78,0-6.85-3.06-6.85-6.84,0-.46.05-.92.14-1.37h13.42c.76,3.7-1.63,7.32-5.34,8.08-.45.09-.91.14-1.37.14Z"/>
        <path class="cls-11" d="M57.87,55.62h-13.42c-.09.45-.14.91-.14,1.37h10.82c.51,2.49-.41,5.05-2.4,6.64,3.59-.85,5.86-4.39,5.13-8.01Z"/>
        <path class="cls-12" d="M12.83,63.83c-3.78,0-6.85-3.06-6.85-6.84,0-.46.05-.92.14-1.37h13.42c.76,3.7-1.63,7.32-5.34,8.08-.45.09-.91.14-1.37.14Z"/>
        <path class="cls-11" d="M19.54,55.62H6.13c-.09.45-.14.91-.14,1.37h10.82c.51,2.49-.41,5.05-2.4,6.64,3.59-.85,5.86-4.39,5.13-8.01Z"/>
        <path class="cls-5" d="M15.57,56.99c0,1.51-1.23,2.74-2.74,2.74s-2.74-1.23-2.74-2.74h5.48Z"/>
        <path class="cls-5" d="M53.9,56.99c0,1.51-1.23,2.74-2.74,2.74s-2.74-1.23-2.74-2.74h5.48Z"/>
        <path class="cls-4" d="M29.26,28.24v2.74c-12.25,0-16.51-.81-21.9,3.08v-8.56h19.17c1.51,0,2.74,1.23,2.74,2.74Z"/>
        <path class="cls-11" d="M29.26,28.24v2.74c-12.25,0-16.51-.81-21.9,3.08v-8.56h19.17c1.51,0,2.74,1.23,2.74,2.74Z"/>
        <path class="cls-12" d="M27.89,29.6v1.37h-10.95c-3.44.01-6.78,1.09-9.58,3.08,0-3.97,3.22-7.19,7.19-7.19h10.61c1.51,0,2.74,1.23,2.74,2.74Z"/>
        <path class="cls-12" d="M42.95,18.65h-8.21c-.76,0-1.37-.61-1.37-1.37s.61-1.37,1.37-1.37h8.21c.76,0,1.37.61,1.37,1.37s-.61,1.37-1.37,1.37Z"/>
      </g>
      <g id="milk_basket">
        <g id="bottles">
          <g>
            <path class="cls-2" d="M10.14,9.26c.1.81-.57,1.55-1.51,1.66s-1.78-.46-1.88-1.27.57-1.55,1.51-1.66,1.78.46,1.88,1.27Z"/>
            <path class="cls-9" d="M10.99,10.46c.08.62-.46,1.2-1.2,1.28l-2.07.23c-.74.08-1.41-.35-1.49-.98l-.02-.15c-.08-.62.46-1.2,1.2-1.28l2.07-.23c.74-.08,1.41.35,1.49.98l.02.15Z"/>
            <path class="cls-3" d="M13.34,22.8c.08.62-.3,1.18-.85,1.24l-4.08.46c-.55.06-1.06-.39-1.14-1.02l-1.46-11.37c-.08-.62.3-1.18.85-1.24l4.08-.46c.55-.06,1.06.39,1.14,1.02l1.46,11.37h0Z"/>
            <path class="cls-10" d="M6.79,10.86c-.1,0-.34.02-.57.17-.27.18-.35.45-.39.56-.08.25-.04.47-.02.6l1.43,11.29c.01.1.04.26.14.43.06.11.2.36.52.5.28.12.53.09.64.06l-1.74-13.62h0Z"/>
            <path class="cls-2" d="M9.12,8.08c.05.4-.25.77-.68.82h0c-.43.05-.82-.24-.87-.64l-.14-1.1c-.05-.4.25-.77.68-.82h0c.43-.05.82.24.87.64l.14,1.1h0Z"/>
            <polygon class="cls-8" points="10.71 13.72 12.15 13.56 12.18 13.79 10.74 13.95 10.71 13.72"/>
            <polygon class="cls-8" points="10.94 15.45 12.38 15.29 12.4 15.52 10.96 15.68 10.94 15.45"/>
            <polygon class="cls-8" points="11.13 16.95 12.57 16.79 12.6 17.01 11.16 17.18 11.13 16.95"/>
            <polygon class="cls-8" points="11.35 18.68 12.79 18.51 12.82 18.74 11.38 18.9 11.35 18.68"/>
            <polygon class="cls-8" points="11.49 19.77 12.93 19.6 12.96 19.83 11.52 19.99 11.49 19.77"/>
            <polygon class="cls-8" points="11.71 21.49 13.15 21.33 13.18 21.56 11.74 21.72 11.71 21.49"/>
          </g>
          <g>
            <path class="cls-2" d="M17.33,9.3c0,.81-.75,1.48-1.7,1.49s-1.71-.65-1.72-1.46.75-1.48,1.7-1.49,1.71.65,1.72,1.46Z"/>
            <path class="cls-9" d="M18.03,10.58c0,.63-.6,1.14-1.34,1.15h-2.09c-.75.02-1.36-.49-1.36-1.11v-.15c0-.63.6-1.14,1.34-1.15h2.09c.75-.02,1.36.49,1.36,1.11v.15Z"/>
            <path class="cls-3" d="M18.89,23.09c0,.63-.44,1.14-1,1.14l-4.11.03c-.55,0-1.01-.5-1.01-1.13l-.09-11.45c0-.63.44-1.14,1-1.14l4.11-.03c.55,0,1.01.5,1.01,1.13l.09,11.45h0Z"/>
            <path class="cls-10" d="M13.82,10.54c-.1,0-.34-.02-.58.11-.29.15-.4.41-.45.52-.11.24-.1.47-.09.59l.07,11.37c0,.1,0,.26.08.44.05.12.16.38.46.55.26.15.52.14.63.13l-.11-13.72h0Z"/>
            <path class="cls-2" d="M16.46,8.02c0,.4-.34.74-.78.74h0c-.43,0-.79-.32-.79-.73v-1.11c-.01-.4.33-.74.77-.74h0c.43,0,.79.32.79.73v1.11s0,0,0,0Z"/>
            <rect class="cls-8" x="17.37" y="13.79" width="1.45" height=".23" transform="translate(-.09 .12) rotate(-.39)"/>
            <rect class="cls-8" x="17.38" y="15.53" width="1.45" height=".23" transform="translate(-.11 .12) rotate(-.39)"/>
            <rect class="cls-8" x="17.4" y="17.04" width="1.45" height=".23" transform="translate(-.12 .12) rotate(-.39)"/>
            <rect class="cls-8" x="17.41" y="18.78" width="1.45" height=".23" transform="translate(-.13 .12) rotate(-.39)"/>
            <rect class="cls-8" x="17.42" y="19.88" width="1.45" height=".23" transform="translate(-.14 .12) rotate(-.39)"/>
            <rect class="cls-8" x="17.43" y="21.62" width="1.45" height=".23" transform="translate(-.15 .12) rotate(-.39)"/>
          </g>
          <g>
            <path class="cls-2" d="M22.48,8.84c-.05.81-.85,1.43-1.8,1.38s-1.66-.75-1.61-1.56.85-1.43,1.8-1.38,1.66.75,1.61,1.56Z"/>
            <path class="cls-9" d="M23.09,10.16c-.04.63-.68,1.1-1.42,1.06l-2.09-.11c-.75-.04-1.32-.58-1.28-1.21v-.15c.05-.63.68-1.1,1.43-1.06l2.09.11c.75.04,1.32.58,1.28,1.21v.15Z"/>
            <path class="cls-3" d="M23.08,22.69c-.04.63-.52,1.11-1.07,1.08l-4.1-.22c-.55-.03-.97-.56-.93-1.19l.7-11.43c.04-.63.52-1.11,1.07-1.08l4.11.22c.55.03.97.56.93,1.19l-.7,11.43h0Z"/>
            <path class="cls-10" d="M18.89,9.86c-.1-.02-.34-.04-.59.07-.3.14-.43.38-.49.49-.12.24-.13.46-.13.58l-.72,11.35c0,.1-.01.26.05.45.04.12.13.39.42.57.25.17.51.17.62.17l.84-13.69h0Z"/>
            <path class="cls-2" d="M21.7,7.51c-.02.4-.39.72-.83.69h0c-.43-.02-.76-.37-.74-.78l.07-1.1c.02-.4.39-.72.83-.69h0c.43.02.76.37.74.78l-.07,1.11h0Z"/>
            <polygon class="cls-8" points="22.21 13.33 23.65 13.41 23.64 13.63 22.19 13.55 22.21 13.33"/>
            <polygon class="cls-8" points="22.1 15.07 23.55 15.15 23.53 15.37 22.08 15.29 22.1 15.07"/>
            <polygon class="cls-8" points="22.01 16.57 23.45 16.65 23.44 16.88 21.99 16.8 22.01 16.57"/>
            <polygon class="cls-8" points="21.9 18.31 23.35 18.39 23.33 18.61 21.89 18.54 21.9 18.31"/>
            <polygon class="cls-8" points="21.83 19.4 23.28 19.48 23.27 19.71 21.82 19.63 21.83 19.4"/>
            <polygon class="cls-8" points="21.73 21.14 23.17 21.22 23.16 21.45 21.71 21.37 21.73 21.14"/>
          </g>
        </g>
        <g id="basket">
          <rect class="cls-14" x="4.52" y="15.89" width="20.99" height="1.77"/>
          <polygon class="cls-14" points="22.86 25.68 7.16 25.68 5.63 17.65 24.4 17.65 22.86 25.68"/>
          <polygon class="cls-7" points="24.22 18.62 24.4 17.65 5.63 17.65 5.81 18.62 24.22 18.62"/>
          <path class="cls-3" d="M22.89,25.42l-8.53-8.02c-.37-.34-.37-.9,0-1.24h0c.37-.34.96-.34,1.32,0l8.53,8.02c.37.34.37.9,0,1.24h0c-.37.34-.96.34-1.32,0Z"/>
          <ellipse class="cls-10" cx="15.01" cy="16.77" rx=".43" ry=".4"/>
        </g>
      </g>
    </g>
  </g>
</svg>