<?xml version="1.0" encoding="UTF-8"?>
<svg id="Layer_2" data-name="Layer 2" xmlns="http://www.w3.org/2000/svg" viewBox="0 0 233.94 223.25">
  <defs>
    <style>
      .cls-1 {
        fill: #a86d55;
      }

      .cls-1, .cls-2, .cls-3, .cls-4, .cls-5, .cls-6, .cls-7, .cls-8, .cls-9, .cls-10, .cls-11, .cls-12, .cls-13 {
        stroke-width: 0px;
      }

      .cls-2 {
        fill: #7c533d;
      }

      .cls-3 {
        fill: #d85165;
      }

      .cls-4 {
        fill: #ec7d6b;
      }

      .cls-5 {
        fill: #fab18f;
      }

      .cls-6 {
        fill: #ee9497;
      }

      .cls-7 {
        fill: #fff;
      }

      .cls-8 {
        fill: #fdded6;
      }

      .cls-9 {
        fill: #94b8b1;
      }

      .cls-10 {
        fill: #ffd581;
      }

      .cls-11 {
        fill: #f06b78;
      }

      .cls-12 {
        fill: #febf32;
      }

      .cls-13 {
        fill: #382b2b;
      }
    </style>
  </defs>
  <g id="Layer_1-2" data-name="Layer 1">
    <g>
      <g>
        <g>
          <g>
            <rect class="cls-2" x="-15.47" y="177.08" width="80.94" height="3.01" transform="translate(-155.25 173.45) rotate(-80.4)"/>
            <rect class="cls-2" x="148.47" y="138.1" width="3.01" height="80.94" transform="translate(-27.68 27.52) rotate(-9.6)"/>
          </g>
          <g>
            <rect class="cls-2" x="2.4" y="169.01" width="69.55" height="3.01" transform="translate(-137.06 180.58) rotate(-81.01)"/>
            <rect class="cls-2" x="136.28" y="135.68" width="3.01" height="69.55" transform="translate(-24.95 23.63) rotate(-8.99)"/>
          </g>
          <path class="cls-11" d="M102.49,31.47h-30.05C32.43,31.47,0,63.9,0,103.91h0c0,24.18,19.6,43.78,43.78,43.78h87.37c24.18,0,43.78-19.6,43.78-43.78h0c0-40.01-32.43-72.44-72.43-72.44Z"/>
          <g>
            <path class="cls-3" d="M149.44,119.3c-.09.21-.18.42-.27.63-.33.1-.66.2-.99.3-8.58,2.67-16.78,6.14-24.39,10.29-.32.18-1.42.03-.86-.28,2.51-1.37,5.07-2.67,7.7-3.88,5.7-2.64,11.67-4.9,17.82-6.77.33-.1.66-.2.99-.3Z"/>
            <path class="cls-3" d="M50.53,130.53c-7.4-4.05-15.36-7.43-23.68-10.07-.33-.11-.66-.21-1-.31-.09-.21-.18-.43-.27-.64.33.1.67.2,1,.3,5.9,1.82,11.63,4.01,17.12,6.56,2.63,1.22,5.19,2.51,7.7,3.88.56.3-.54.46-.87.28Z"/>
          </g>
          <g>
            <path class="cls-3" d="M33.81,143.54c-1.9-6.33-3.81-12.67-6.15-18.86-.57-1.52-1.18-3.04-1.81-4.53-.09-.21-.18-.43-.27-.64-1.58-3.68-3.35-7.28-5.41-10.71-.77-1.29-1.61-2.55-2.46-3.8-.15-.21-.29-.43-.44-.65-2.13-3.14-4.27-6.29-5.51-9.88-.98-2.86-1.16-5.85-1.03-8.85.13-2.98.45-5.96.94-8.91,1-5.97,2.72-11.81,5.13-17.37.11-.26.94-.18.81.11-2.71,6.28-4.56,12.91-5.46,19.69-.4,2.98-.67,6.01-.6,9.02.07,2.95.69,5.76,1.94,8.43,1.17,2.5,2.71,4.8,4.25,7.08.22.33.44.65.66.98.15.22.29.44.43.65,1.21,1.83,2.37,3.7,3.44,5.62,1.6,2.89,3.01,5.86,4.3,8.89.09.21.18.43.27.64,3.11,7.46,5.45,15.25,7.77,22.97.1.33-.73.38-.81.11Z"/>
            <path class="cls-3" d="M163.16,94.46c-1.19,3.46-3.22,6.51-5.28,9.54-.15.21-.29.42-.43.64-.93,1.37-1.86,2.74-2.7,4.15-2.01,3.37-3.76,6.9-5.32,10.51-.09.21-.18.42-.27.63-.67,1.57-1.3,3.15-1.9,4.75-2.34,6.19-4.24,12.53-6.15,18.86-.08.26-.91.21-.81-.12,2.34-7.8,4.71-15.67,7.86-23.19.09-.21.18-.43.27-.64,1.26-2.96,2.65-5.85,4.21-8.68,1.14-2.05,2.39-4.04,3.68-5.99.14-.21.28-.43.43-.64.14-.21.28-.42.42-.62,1.54-2.28,3.09-4.58,4.25-7.08,1.25-2.68,1.88-5.48,1.94-8.43.07-3.01-.21-6.04-.6-9.02-.9-6.78-2.75-13.41-5.46-19.69-.13-.3.7-.38.81-.11,2.4,5.56,4.13,11.4,5.13,17.37.49,2.95.81,5.92.94,8.91.13,3-.04,5.99-1.03,8.85Z"/>
          </g>
        </g>
        <g>
          <g>
            <g>
              <path class="cls-5" d="M101.49,210.87c.41,2.66,4.12,1.75,6.13,1.63,1.05-.06,2.11-.1,3.15-.11.76,0,1.1.18,1.17-.93.3-5.1.54-10.2.71-15.3.08-2.51.14-5.03.19-7.54.05-2.07.6-3.9-.16-5.97-.9-2.43-3.22-4.16-5.73-4.8-2.76-.71-7.14.23-8.3,3.19-.48,1.23-.34,2.6-.2,3.91.95,8.62,1.96,17.23,3.02,25.84,0,.03,0,.06.01.09Z"/>
              <path class="cls-5" d="M99.15,217.57c-.02.51,0,1.06.29,1.48.49.73,1.51.8,2.38.86.62.04,1.38.17,1.83.63.23.23.22.53.38.76.23.34.67.62,1.02.85,1.09.71,2.43.95,3.73,1.04,2.05.15,4.16-.03,6.22-.11,2.12-.09,4.24-.29,6.34-.6.26-.04.59-.15.6-.41,0-.1-.05-.2-.1-.28-1.02-1.75-2.99-2.43-4.24-3.91-1.43-1.69-2.71-3.51-3.8-5.44-.4-.7-.78-1.42-1.28-2.06-1.65-2.09-4.45-2.99-7.11-3.08-.67-.02-1.36,0-1.98.25-1.05.43-1.74,1.46-2.26,2.47-1.2,2.33-1.93,4.93-2.01,7.56Z"/>
              <g>
                <path class="cls-4" d="M111.57,209.22c-.94-.48-2.03-.64-3.07-.46-.07.01-.21.05-.17.15.04.09.22.1.3.09.89-.16,1.8-.02,2.61.4.1.05.24.05.34,0,.08-.05.09-.13,0-.17Z"/>
                <path class="cls-4" d="M103.34,219.57c-.28-.48-.72-.86-1.23-1.09-.1-.05-.24-.05-.34,0-.08.04-.09.13,0,.17.45.2.84.54,1.1.98.05.09.2.1.3.09.06,0,.22-.06.17-.15Z"/>
                <path class="cls-4" d="M112.12,221.28c-.58-.38-1.33-.46-1.99-.27-.08.02-.16.09-.09.17.08.08.24.07.33.04,1.04-.29,2.06.5,2.25,1.52.03.18.51.15.48,0-.11-.6-.46-1.13-.98-1.46Z"/>
                <path class="cls-4" d="M115.67,221.73c-.12-.23-.29-.45-.5-.61-.47-.37-1.09-.51-1.67-.41-.07.01-.21.05-.17.15.04.09.22.1.3.09.44-.08.88.06,1.2.36.16.15.29.32.39.52.11.23.15.47.19.72.02.18.5.16.48,0-.04-.28-.09-.56-.21-.82Z"/>
                <path class="cls-4" d="M117.53,220.96c-.41-.33-.94-.49-1.47-.47-.07,0-.24.02-.24.12,0,.1.18.13.24.12.84-.04,1.54.62,1.67,1.43.02.1.16.12.24.12.06,0,.26-.02.24-.12-.08-.47-.32-.91-.69-1.21Z"/>
                <path class="cls-4" d="M120.1,220.93c-.42-.27-.92-.46-1.4-.57-.1-.02-.25-.03-.33.04-.08.07,0,.15.09.17.44.11.87.27,1.25.5.34.2.63.55.55.97-.02.1.19.12.24.12.09,0,.22-.02.24-.12.1-.48-.26-.87-.63-1.11Z"/>
              </g>
            </g>
            <g>
              <path class="cls-5" d="M154.96,185.01c.92.92,1.61,1.91,1.91,3.25.13.57.14,1.25-.24,1.67-.69.78-2.33.08-2.78-.73.35.64.23,1.54-.29,2.04-.59.57-1.18.37-1.82.12-.7-.28-.43-.11-.59.6-.14.57-.61,1.02-1.17,1.04-.26,0-1.32-.35-1.31-.73,0,.63-.11,1.31-.67,1.63-.65.37-1.33-.09-1.86-.49.49.37-.61,1.19-.8,1.28-.95.46-1.93-.44-2.63-1.03-.79-.66-1.45-1.49-2.08-2.33-.97-1.27-1.91-2.58-2.81-3.91-.85-1.24-1.67-2.52-2.25-3.93-.47-1.15-.83-2.49-.76-3.76.06-.92.73-1.82,1.38-2.4,1-.89,2.32-1.22,3.6-1.47,1.9-.37,3.87-.61,5.75-.17.97.22,1.99.68,2.56,1.59.44.72.65,1.42,1.24,2.05,1.82,1.95,3.77,3.77,5.65,5.65Z"/>
              <g>
                <path class="cls-4" d="M153.49,188.6c-.22-.31-.5-.57-.84-.76-.05-.03-.12-.04-.17-.04s-.12,0-.17.04c-.03.02-.07.05-.07.09,0,.04.04.07.07.09.04.02.07.04.11.07t0,0s.02.01.02.02c.02.01.04.02.05.04.07.05.14.11.2.16.06.06.12.12.18.18.01.02.03.03.04.05h0s0,0,0,0c0,0,.01.02.02.03.03.04.05.07.08.11.06.09.2.1.3.09.05,0,.11-.02.15-.06.03-.03.05-.06.03-.1Z"/>
                <path class="cls-4" d="M151.13,190.73s-.03,0-.04-.02h0s0,0,0,0c-.03-.01-.05-.02-.07-.03-.02-.01-.05-.03-.07-.04-.01,0-.03-.02-.04-.02,0,0-.01,0-.02-.01-.09-.07-.18-.14-.25-.22,0,0-.02-.02-.03-.03,0,0,0-.01-.01-.01-.02-.02-.03-.04-.05-.07-.03-.05-.07-.1-.09-.15-.03-.05-.05-.1-.07-.15s-.04-.11-.05-.15c-.02-.1-.15-.13-.24-.12-.06,0-.12,0-.17.04-.03.02-.08.05-.07.09.12.53.52.95,1.04,1.12.1.03.25.03.33-.04.08-.07-.01-.14-.09-.17Z"/>
                <path class="cls-4" d="M148.38,192.04s-.04-.02-.05-.03c0,0-.02,0-.02-.01h0s-.06-.05-.09-.07c-.03-.03-.06-.06-.09-.09-.01-.01-.03-.03-.04-.04,0,0-.02-.02-.02-.03h0c-.1-.13-.18-.27-.22-.42-.01-.04-.08-.06-.11-.07-.06-.02-.13-.02-.19-.01-.05,0-.11.02-.14.06-.03.03-.04.05-.02.1.11.34.36.63.67.8.05.03.12.04.17.04s.12,0,.17-.04c.03-.02.07-.05.07-.09-.01-.04-.05-.07-.08-.09Z"/>
                <path class="cls-4" d="M146.17,193.17c-.05-.02-.1-.05-.15-.08,0,0-.01,0-.02-.01s-.02-.01-.02-.01c-.02-.02-.05-.03-.07-.05-.04-.03-.08-.07-.12-.11-.05-.05-.06-.07-.1-.11-.13-.18-.22-.38-.25-.59-.01-.1-.16-.13-.24-.12-.06,0-.12,0-.17.04-.03.02-.08.05-.07.09.07.5.41.94.87,1.15.1.04.24.06.34,0,.03-.02.07-.04.07-.09,0-.04-.04-.07-.07-.09Z"/>
              </g>
            </g>
            <path class="cls-10" d="M48.75,127.26c1.69,3.16,4.43,5.75,8.4,7.44,3.41,1.45,7.01,2.43,10.69,2.91,2.63.34,2.94,1.8,3.01,4.25.33,11.33,1.6,22.64,3.78,33.77,1.1,5.64,2.44,11.23,4.01,16.75.85,2.98.7,4.3,3.97,4.7,2.73.33,5.55.03,8.14-.9,3.04-1.09,5.73-2.99,8.75-4.15,8.52-3.3,17.78-.44,26.57-.63,5.33-.11,10.34-2.02,14.92-4.65,2.24-1.29,4.39-2.74,6.5-4.23,2.21-1.56,3.29-2.44,1.28-4.93-6.84-8.5-13.68-17.01-20.52-25.51-.67-.83-1.34-1.67-1.76-2.65-.47-1.1-.58-2.31-.7-3.49-.83-9.03-1.83-18.08-3.89-26.92-1.02-4.34-1.21-8.82-1.73-13.25-.54-4.63-1.18-9.26-1.9-13.87-.16-1.04-.34-2.11-.88-3.02-.74-1.26-2.07-2.04-3.43-2.59-2.76-1.11-5.76-1.43-8.72-1.7-11.11-1.02-22.26-1.52-33.41-1.88-3.04-.1-12.98-2.02-15.32-.21-2.09,1.62-2.35,8.47-3.2,10.83-2.27,6.26-5.12,12.38-6.28,18.94-.97,5.48-.56,10.75,1.72,15Z"/>
            <g>
              <path class="cls-12" d="M124.45,145.14c-6.2-5.98-12.4-11.96-18.6-17.94-1.76-1.7-3.52-3.39-5.28-5.09-.17-.16-.86-.04-.62.19,6.2,5.98,12.4,11.96,18.6,17.94,1.76,1.7,3.52,3.39,5.28,5.09.17.16.86.04.62-.19Z"/>
              <path class="cls-12" d="M118.54,179.86c-7.36-7.23-14.51-14.68-21.41-22.35-1.96-2.17-3.9-4.37-5.82-6.58-.15-.18-.85-.07-.62.19,6.77,7.79,13.78,15.37,21.01,22.72,2.05,2.09,4.12,4.15,6.21,6.2.17.16.86.05.62-.19Z"/>
              <path class="cls-12" d="M94.15,179.77c-2.49-4.29-4.84-8.66-7.05-13.1-.11-.22-.82-.15-.7.1,2.21,4.44,4.56,8.81,7.05,13.1.12.21.83.13.7-.1Z"/>
            </g>
          </g>
          <path class="cls-2" d="M93.48.97c.2-.02.4-.05.59-.08,1.27-.19,2.51-.59,3.79-.78,3.65-.54,7.53.83,10.04,3.53,1.6,1.72,2.63,3.88,3.63,6,.64,1.35,1.28,2.7,1.92,4.05.44.92.88,1.86,1.49,2.68.52.7,1.16,1.31,1.88,1.8,2.71,1.83,7.31,2.55,8.14,6.28.52,2.33-.59,5.07.8,7,1.01,1.41,2.92,1.74,4.51,2.43,3.79,1.63,6.21,5.95,5.62,10.03-.26,1.83-1.06,3.7-.49,5.46.65,2,2.92,3.24,3.32,5.31.37,1.94-.83,3.93.06,5.8.99,2.06,2.83,3.63,3.86,5.68.69,1.38,1.06,2.93,1.06,4.47,0,.72-.09,1.46-.43,2.1-.87,1.62-2.64,1.91-4.29,2-1.71.09-3.41.1-5.12.02-3.46-.17-6.9-.67-10.26-1.51-3.64-.91-7.19-2.2-10.88-2.88-4.8-.89-9.73-.73-14.61-1.02-7.14-.43-14.33-1.88-20.58-5.35-2.22-1.23-4.38-2.79-5.58-5.03-.98-1.83-1.25-3.94-1.49-6-.5-4.14-.99-8.28-1.48-12.42-.27-2.26-.53-4.62.29-6.74,1.18-3.05,4.41-5.08,5.16-8.26.57-2.4-.31-5.3,1.33-7.14.69-.78,1.71-1.18,2.48-1.89,2.09-1.91,1.82-5.09,3.13-7.42,1.5-2.65,4.38-3.64,6.4-5.74,1-1.03,1.81-1.8,3.28-2.1.8-.16,1.61-.2,2.42-.29Z"/>
          <g>
            <path class="cls-7" d="M148.05,90.74v4.71c0,3.87-1.01,7.5-2.79,10.64-.34.61-.72,1.2-1.12,1.77h0c-2.89,4.12-7.17,7.18-12.16,8.49-.64.17-1.3.31-1.97.42-1.16.19-2.36.29-3.57.29H39.7c-.6,0-1.19-.02-1.77-.07-.67-.05-1.32-.14-1.97-.25-5.05-.88-9.5-3.51-12.69-7.25-.49-.57-.95-1.17-1.38-1.8h0c-1.46-2.12-2.55-4.51-3.18-7.09-.26-1.07-.45-2.18-.54-3.3h0c-.05-.61-.08-1.24-.08-1.86v-4.71c0-8.85,5.55-16.4,13.36-19.36h0c.32-.12.64-.23.96-.34,2.01-.65,4.15-1,6.37-1h88.57c2.65,0,5.18.5,7.51,1.4.62.24,1.22.51,1.8.8,6.75,3.41,11.38,10.41,11.38,18.49Z"/>
            <g>
              <path class="cls-8" d="M33,74.12c-.24.47-.93.65-1.33.27-.48-.43-.37-1.58-.35-2.15,0-.31.03-.63.14-.86h0c.32-.12.64-.23.96-.34.17.04.31.13.41.24.09.03.17.07.19.14.28.82.4,1.89-.02,2.7Z"/>
              <path class="cls-8" d="M42.23,71.29c-.17-.18-.41-.28-.73-.27-.73.03-.77.62-.79,1.23-.02.57-.12,1.72.35,2.15.41.37,1.09.19,1.33-.28.42-.81.3-1.87.02-2.7-.02-.07-.1-.11-.19-.14Z"/>
              <path class="cls-8" d="M51.63,71.29c-.17-.18-.41-.28-.73-.27-.73.03-.77.62-.79,1.23-.02.57-.12,1.72.35,2.15.41.37,1.09.19,1.33-.28.42-.81.3-1.87.02-2.7-.02-.07-.1-.11-.19-.14Z"/>
              <path class="cls-8" d="M61.04,71.29c-.17-.18-.41-.28-.73-.27-.73.03-.77.62-.79,1.23-.02.57-.12,1.72.35,2.15.41.37,1.09.19,1.33-.28.42-.81.3-1.87.02-2.7-.02-.07-.1-.11-.19-.14Z"/>
              <path class="cls-8" d="M70.44,71.29c-.17-.18-.41-.28-.73-.27-.73.03-.77.62-.79,1.23-.02.57-.12,1.72.35,2.15.41.37,1.09.19,1.33-.28.42-.81.3-1.87.02-2.7-.02-.07-.1-.11-.19-.14Z"/>
              <path class="cls-8" d="M79.85,71.29c-.17-.18-.41-.28-.73-.27-.73.03-.77.62-.79,1.23-.02.57-.12,1.72.35,2.15.41.37,1.09.19,1.33-.28.42-.81.3-1.87.02-2.7-.02-.07-.1-.11-.19-.14Z"/>
              <path class="cls-8" d="M89.25,71.29c-.17-.18-.41-.28-.73-.27h0c-.73.03-.77.62-.79,1.23-.02.57-.12,1.72.35,2.15.16.14.35.2.54.2.32,0,.65-.18.8-.47.42-.81.3-1.87.02-2.7-.02-.07-.1-.11-.19-.14Z"/>
              <path class="cls-8" d="M98.65,71.29c-.17-.18-.41-.28-.73-.27h0c-.73.03-.77.62-.79,1.23-.02.57-.12,1.72.35,2.15.16.14.35.2.54.2.32,0,.65-.18.8-.47.42-.81.3-1.87.02-2.7-.02-.07-.1-.11-.19-.14Z"/>
              <path class="cls-8" d="M108.06,71.29c-.17-.18-.41-.28-.73-.27h0c-.73.03-.77.62-.79,1.23-.02.57-.12,1.72.35,2.15.16.14.35.2.54.2.32,0,.65-.18.8-.47.42-.81.3-1.87.02-2.7-.02-.07-.1-.11-.19-.14Z"/>
              <path class="cls-8" d="M28.1,80.05c-.17-.18-.41-.28-.73-.27-.73.03-.77.62-.79,1.23-.02.57-.12,1.72.35,2.15.41.37,1.09.19,1.33-.28.42-.81.3-1.87.02-2.7-.02-.07-.1-.11-.19-.14Z"/>
              <path class="cls-8" d="M37.5,80.05c-.17-.18-.41-.28-.73-.27-.73.03-.77.62-.79,1.23-.02.57-.12,1.72.35,2.15.41.37,1.09.19,1.33-.28.42-.81.3-1.87.02-2.7-.02-.07-.1-.11-.19-.14Z"/>
              <path class="cls-8" d="M46.91,80.05c-.17-.18-.41-.28-.73-.27-.73.03-.77.62-.79,1.23-.02.57-.12,1.72.35,2.15.41.37,1.09.19,1.33-.28.42-.81.3-1.87.02-2.7-.02-.07-.1-.11-.19-.14Z"/>
              <path class="cls-8" d="M56.31,80.05c-.17-.18-.41-.28-.73-.27-.73.03-.77.62-.79,1.23-.02.57-.12,1.72.35,2.15.41.37,1.09.19,1.33-.28.42-.81.3-1.87.02-2.7-.02-.07-.1-.11-.19-.14Z"/>
              <path class="cls-8" d="M65.71,80.05c-.17-.18-.41-.28-.73-.27-.73.03-.77.62-.79,1.23-.02.57-.12,1.72.35,2.15.41.37,1.09.19,1.33-.28.42-.81.3-1.87.02-2.7-.02-.07-.1-.11-.19-.14Z"/>
              <path class="cls-8" d="M75.12,80.05c-.17-.18-.41-.28-.73-.27-.73.03-.77.62-.79,1.23-.02.57-.12,1.72.35,2.15.41.37,1.09.19,1.33-.28.42-.81.3-1.87.02-2.7-.02-.07-.1-.11-.19-.14Z"/>
              <path class="cls-8" d="M84.52,80.05c-.17-.18-.41-.28-.73-.27h0c-.73.03-.77.62-.79,1.23-.02.57-.12,1.72.35,2.15.16.14.35.2.54.2.32,0,.65-.18.8-.48.42-.81.3-1.87.02-2.7-.02-.07-.1-.11-.19-.14Z"/>
              <path class="cls-8" d="M93.93,80.05c-.17-.18-.41-.28-.73-.27h0c-.73.03-.77.62-.79,1.23-.02.57-.12,1.72.35,2.15.16.14.35.2.54.2.32,0,.65-.18.8-.48.42-.81.3-1.87.02-2.7-.02-.07-.1-.11-.19-.14Z"/>
              <path class="cls-8" d="M103.33,80.05c-.17-.18-.41-.28-.73-.27h0c-.73.03-.77.62-.79,1.23-.02.57-.12,1.72.35,2.15.16.14.35.2.54.2.32,0,.65-.18.8-.48.42-.81.3-1.87.02-2.7-.02-.07-.1-.11-.19-.14Z"/>
              <path class="cls-8" d="M23.42,88.81c-.17-.18-.41-.28-.73-.27-.73.03-.77.62-.79,1.23-.02.57-.12,1.72.35,2.15.41.37,1.09.19,1.33-.28.42-.81.3-1.87.02-2.7-.02-.07-.1-.11-.19-.14Z"/>
              <path class="cls-8" d="M32.82,88.81c-.17-.18-.41-.28-.73-.27-.73.03-.77.62-.79,1.23-.02.57-.12,1.72.35,2.15.41.37,1.09.19,1.33-.28.42-.81.3-1.87.02-2.7-.02-.07-.1-.11-.19-.14Z"/>
              <path class="cls-8" d="M42.23,88.81c-.17-.18-.41-.28-.73-.27-.73.03-.77.62-.79,1.23-.02.57-.12,1.72.35,2.15.41.37,1.09.19,1.33-.28.42-.81.3-1.87.02-2.7-.02-.07-.1-.11-.19-.14Z"/>
              <path class="cls-8" d="M51.63,88.81c-.17-.18-.41-.28-.73-.27-.73.03-.77.62-.79,1.23-.02.57-.12,1.72.35,2.15.41.37,1.09.19,1.33-.28.42-.81.3-1.87.02-2.7-.02-.07-.1-.11-.19-.14Z"/>
              <path class="cls-8" d="M61.04,88.81c-.17-.18-.41-.28-.73-.27-.73.03-.77.62-.79,1.23-.02.57-.12,1.72.35,2.15.41.37,1.09.19,1.33-.28.42-.81.3-1.87.02-2.7-.02-.07-.1-.11-.19-.14Z"/>
              <path class="cls-8" d="M70.44,88.81c-.17-.18-.41-.28-.73-.27-.73.03-.77.62-.79,1.23-.02.57-.12,1.72.35,2.15.41.37,1.09.19,1.33-.28.42-.81.3-1.87.02-2.7-.02-.07-.1-.11-.19-.14Z"/>
              <path class="cls-8" d="M79.85,88.81c-.17-.18-.41-.28-.73-.27-.73.03-.77.62-.79,1.23-.02.57-.12,1.72.35,2.15.41.37,1.09.19,1.33-.28.42-.81.3-1.87.02-2.7-.02-.07-.1-.11-.19-.14Z"/>
              <path class="cls-8" d="M89.25,88.81c-.17-.18-.41-.28-.73-.27h0c-.73.03-.77.62-.79,1.23-.02.57-.12,1.72.35,2.15.16.14.35.2.54.2.32,0,.65-.18.8-.48.42-.81.3-1.87.02-2.7-.02-.07-.1-.11-.19-.14Z"/>
              <path class="cls-8" d="M98.65,88.81c-.17-.18-.41-.28-.73-.27h0c-.73.03-.77.62-.79,1.23-.02.57-.12,1.72.35,2.15.16.14.35.2.54.2.32,0,.65-.18.8-.48.42-.81.3-1.87.02-2.7-.02-.07-.1-.11-.19-.14Z"/>
              <path class="cls-8" d="M108.06,88.81c-.17-.18-.41-.28-.73-.27h0c-.73.03-.77.62-.79,1.23-.02.57-.12,1.72.35,2.15.16.14.35.2.54.2.32,0,.65-.18.8-.48.42-.81.3-1.87.02-2.7-.02-.07-.1-.11-.19-.14Z"/>
              <path class="cls-8" d="M18.86,100.4c-.04.08-.09.15-.16.21-.26-1.07-.45-2.18-.54-3.3.22.03.4.12.53.26.09.03.17.07.19.14.28.82.4,1.89-.02,2.7Z"/>
              <path class="cls-8" d="M28.1,97.57c-.17-.18-.41-.28-.73-.27-.73.02-.77.62-.79,1.23-.02.57-.12,1.72.35,2.15.41.37,1.09.19,1.33-.27.42-.81.3-1.87.02-2.7-.02-.07-.1-.12-.19-.14Z"/>
              <path class="cls-8" d="M37.5,97.57c-.17-.18-.41-.28-.73-.27-.73.02-.77.62-.79,1.23-.02.57-.12,1.72.35,2.15.41.37,1.09.19,1.33-.27.42-.81.3-1.87.02-2.7-.02-.07-.1-.12-.19-.14Z"/>
              <path class="cls-8" d="M46.91,97.57c-.17-.18-.41-.28-.73-.27-.73.02-.77.62-.79,1.23-.02.57-.12,1.72.35,2.15.41.37,1.09.19,1.33-.27.42-.81.3-1.87.02-2.7-.02-.07-.1-.12-.19-.14Z"/>
              <path class="cls-8" d="M56.31,97.57c-.17-.18-.41-.28-.73-.27-.73.02-.77.62-.79,1.23-.02.57-.12,1.72.35,2.15.41.37,1.09.19,1.33-.27.42-.81.3-1.87.02-2.7-.02-.07-.1-.12-.19-.14Z"/>
              <path class="cls-8" d="M65.71,97.57c-.17-.18-.41-.28-.73-.27-.73.02-.77.62-.79,1.23-.02.57-.12,1.72.35,2.15.41.37,1.09.19,1.33-.27.42-.81.3-1.87.02-2.7-.02-.07-.1-.12-.19-.14Z"/>
              <path class="cls-8" d="M75.12,97.57c-.17-.18-.41-.28-.73-.27-.73.02-.77.62-.79,1.23-.02.57-.12,1.72.35,2.15.41.37,1.09.19,1.33-.27.42-.81.3-1.87.02-2.7-.02-.07-.1-.12-.19-.14Z"/>
              <path class="cls-8" d="M84.52,97.57c-.17-.18-.41-.28-.73-.27h0c-.73.02-.77.62-.79,1.23-.02.57-.12,1.72.35,2.15.16.14.35.2.54.2.32,0,.65-.18.8-.47.42-.81.3-1.87.02-2.7-.02-.07-.1-.12-.19-.14Z"/>
              <path class="cls-8" d="M93.93,97.57c-.17-.18-.41-.28-.73-.27h0c-.73.02-.77.62-.79,1.23-.02.57-.12,1.72.35,2.15.16.14.35.2.54.2.32,0,.65-.18.8-.47.42-.81.3-1.87.02-2.7-.02-.07-.1-.12-.19-.14Z"/>
              <path class="cls-8" d="M103.33,97.57c-.17-.18-.41-.28-.73-.27h0c-.73.02-.77.62-.79,1.23-.02.57-.12,1.72.35,2.15.16.14.35.2.54.2.32,0,.65-.18.8-.47.42-.81.3-1.87.02-2.7-.02-.07-.1-.12-.19-.14Z"/>
              <path class="cls-8" d="M23.59,109.16c-.07.14-.18.26-.32.34-.49-.57-.95-1.17-1.38-1.8h0c0-.16.01-.3.02-.42.02-.6.06-1.2.79-1.22.32,0,.56.09.73.27.09.03.17.07.19.14.28.82.4,1.89-.02,2.69Z"/>
              <path class="cls-8" d="M32.82,106.32c-.17-.18-.41-.28-.73-.27-.73.02-.77.62-.79,1.23-.02.57-.12,1.72.35,2.15.41.37,1.09.19,1.33-.27.42-.81.3-1.87.02-2.7-.02-.07-.1-.11-.19-.14Z"/>
              <path class="cls-8" d="M42.23,106.32c-.17-.18-.41-.28-.73-.27-.73.02-.77.62-.79,1.23-.02.57-.12,1.72.35,2.15.41.37,1.09.19,1.33-.27.42-.81.3-1.87.02-2.7-.02-.07-.1-.11-.19-.14Z"/>
              <path class="cls-8" d="M51.63,106.32c-.17-.18-.41-.28-.73-.27-.73.02-.77.62-.79,1.23-.02.57-.12,1.72.35,2.15.41.37,1.09.19,1.33-.27.42-.81.3-1.87.02-2.7-.02-.07-.1-.11-.19-.14Z"/>
              <path class="cls-8" d="M61.04,106.32c-.17-.18-.41-.28-.73-.27-.73.02-.77.62-.79,1.23-.02.57-.12,1.72.35,2.15.41.37,1.09.19,1.33-.27.42-.81.3-1.87.02-2.7-.02-.07-.1-.11-.19-.14Z"/>
              <path class="cls-8" d="M70.44,106.32c-.17-.18-.41-.28-.73-.27-.73.02-.77.62-.79,1.23-.02.57-.12,1.72.35,2.15.41.37,1.09.19,1.33-.27.42-.81.3-1.87.02-2.7-.02-.07-.1-.11-.19-.14Z"/>
              <path class="cls-8" d="M79.85,106.32c-.17-.18-.41-.28-.73-.27-.73.02-.77.62-.79,1.23-.02.57-.12,1.72.35,2.15.41.37,1.09.19,1.33-.27.42-.81.3-1.87.02-2.7-.02-.07-.1-.11-.19-.14Z"/>
              <path class="cls-8" d="M89.25,106.32c-.17-.18-.41-.28-.73-.27h0c-.73.02-.77.62-.79,1.23-.02.57-.12,1.72.35,2.15.16.14.35.2.54.2.32,0,.65-.18.8-.47.42-.81.3-1.87.02-2.7-.02-.07-.1-.11-.19-.14Z"/>
              <path class="cls-8" d="M98.65,106.32c-.17-.18-.41-.28-.73-.27h0c-.73.02-.77.62-.79,1.23-.02.57-.12,1.72.35,2.15.16.14.35.2.54.2.32,0,.65-.18.8-.47.42-.81.3-1.87.02-2.7-.02-.07-.1-.11-.19-.14Z"/>
              <path class="cls-8" d="M108.06,106.32c-.17-.18-.41-.28-.73-.27h0c-.73.02-.77.62-.79,1.23-.02.57-.12,1.72.35,2.15.16.14.35.2.54.2.32,0,.65-.18.8-.47.42-.81.3-1.87.02-2.7-.02-.07-.1-.11-.19-.14Z"/>
              <path class="cls-8" d="M37.93,116.99c-.67-.05-1.32-.14-1.97-.25,0-.26.02-.52.02-.7.02-.6.06-1.2.79-1.22.32,0,.56.09.73.27.09.03.17.07.19.14.18.53.29,1.17.24,1.77Z"/>
              <path class="cls-8" d="M47.33,117.07h-1.95c-.02-.38,0-.76.01-1.03.02-.6.06-1.2.79-1.22.32,0,.56.09.73.27.09.03.17.07.19.14.19.55.3,1.22.23,1.84Z"/>
              <path class="cls-8" d="M56.73,117.07h-1.95c-.02-.38,0-.76.01-1.03.02-.6.06-1.2.79-1.22.32,0,.56.09.72.27.09.03.17.07.19.14.19.55.31,1.22.23,1.84Z"/>
              <path class="cls-8" d="M66.14,117.07h-1.95c-.02-.38,0-.76.01-1.03.02-.6.06-1.2.79-1.22.32,0,.56.09.72.27.09.03.17.07.19.14.19.55.31,1.22.23,1.84Z"/>
              <path class="cls-8" d="M75.54,117.07h-1.95c-.02-.38,0-.76.01-1.03.02-.6.06-1.2.79-1.22.31,0,.56.09.72.27.09.03.17.07.19.14.19.55.31,1.22.23,1.84Z"/>
              <path class="cls-8" d="M84.94,117.07h-1.96c-.02-.38,0-.76.02-1.03.02-.6.06-1.2.79-1.22h0c.32,0,.56.09.73.27.09.03.17.07.19.14.19.55.3,1.22.23,1.84Z"/>
              <path class="cls-8" d="M94.35,117.07h-1.96c-.02-.38,0-.76.02-1.03.02-.6.06-1.2.79-1.22h0c.32,0,.56.09.73.27.09.03.17.07.19.14.19.55.3,1.22.23,1.84Z"/>
              <path class="cls-8" d="M103.75,117.07h-1.96c-.02-.38,0-.76.02-1.03.02-.6.06-1.2.79-1.22h0c.32,0,.56.09.73.27.09.03.17.07.19.14.19.55.3,1.22.23,1.84Z"/>
              <path class="cls-8" d="M117.46,71.29c-.17-.18-.41-.28-.73-.27-.73.03-.77.62-.79,1.23-.02.57-.12,1.72.35,2.15.41.37,1.09.19,1.33-.28.42-.81.3-1.87.02-2.7-.02-.07-.1-.11-.19-.14Z"/>
              <path class="cls-8" d="M126.86,71.29c-.17-.18-.41-.28-.73-.27-.73.03-.77.62-.79,1.23-.02.57-.12,1.72.35,2.15.41.37,1.09.19,1.33-.28.42-.81.3-1.87.02-2.7-.02-.07-.1-.11-.19-.14Z"/>
              <path class="cls-8" d="M136.44,74.12c-.24.47-.92.65-1.33.27-.48-.43-.37-1.58-.35-2.15,0-.28.02-.57.11-.79.62.24,1.22.51,1.8.8.1.63.06,1.31-.22,1.86Z"/>
              <path class="cls-8" d="M112.73,80.05c-.17-.18-.41-.28-.73-.27-.73.03-.77.62-.79,1.23-.02.57-.12,1.72.35,2.15.41.37,1.09.19,1.33-.28.42-.81.3-1.87.02-2.7-.02-.07-.1-.11-.19-.14Z"/>
              <path class="cls-8" d="M122.13,80.05c-.17-.18-.41-.28-.73-.27-.73.03-.77.62-.79,1.23-.02.57-.12,1.72.35,2.15.41.37,1.09.19,1.33-.28.42-.81.3-1.87.02-2.7-.02-.07-.1-.11-.19-.14Z"/>
              <path class="cls-8" d="M131.54,80.05c-.17-.18-.41-.28-.73-.27-.73.03-.77.62-.79,1.23-.02.57-.12,1.72.35,2.15.41.37,1.09.19,1.33-.28.42-.81.3-1.87.02-2.7-.02-.07-.1-.11-.19-.14Z"/>
              <path class="cls-8" d="M140.94,80.05c-.17-.18-.41-.28-.73-.27-.73.03-.77.62-.79,1.23-.02.57-.12,1.72.35,2.15.41.37,1.09.19,1.33-.28.42-.81.3-1.87.02-2.7-.02-.07-.1-.11-.19-.14Z"/>
              <path class="cls-8" d="M117.46,88.81c-.17-.18-.41-.28-.73-.27-.73.03-.77.62-.79,1.23-.02.57-.12,1.72.35,2.15.41.37,1.09.19,1.33-.28.42-.81.3-1.87.02-2.7-.02-.07-.1-.11-.19-.14Z"/>
              <path class="cls-8" d="M126.86,88.81c-.17-.18-.41-.28-.73-.27-.73.03-.77.62-.79,1.23-.02.57-.12,1.72.35,2.15.41.37,1.09.19,1.33-.28.42-.81.3-1.87.02-2.7-.02-.07-.1-.11-.19-.14Z"/>
              <path class="cls-8" d="M136.26,88.81c-.17-.18-.41-.28-.73-.27-.73.03-.77.62-.79,1.23-.02.57-.12,1.72.35,2.15.41.37,1.09.19,1.33-.28.42-.81.3-1.87.02-2.7-.02-.07-.1-.11-.19-.14Z"/>
              <path class="cls-8" d="M145.67,88.81c-.17-.18-.41-.28-.73-.27-.73.03-.77.62-.79,1.23-.02.57-.12,1.72.35,2.15.41.37,1.09.19,1.33-.28.42-.81.3-1.87.02-2.7-.02-.07-.1-.11-.19-.14Z"/>
              <path class="cls-8" d="M112.73,97.57c-.17-.18-.41-.28-.73-.27-.73.02-.77.62-.79,1.23-.02.57-.12,1.72.35,2.15.41.37,1.09.19,1.33-.27.42-.81.3-1.87.02-2.7-.02-.07-.1-.12-.19-.14Z"/>
              <path class="cls-8" d="M122.13,97.57c-.17-.18-.41-.28-.73-.27-.73.02-.77.62-.79,1.23-.02.57-.12,1.72.35,2.15.41.37,1.09.19,1.33-.27.42-.81.3-1.87.02-2.7-.02-.07-.1-.12-.19-.14Z"/>
              <path class="cls-8" d="M131.54,97.57c-.17-.18-.41-.28-.73-.27-.73.02-.77.62-.79,1.23-.02.57-.12,1.72.35,2.15.41.37,1.09.19,1.33-.27.42-.81.3-1.87.02-2.7-.02-.07-.1-.12-.19-.14Z"/>
              <path class="cls-8" d="M140.94,97.57c-.17-.18-.41-.28-.73-.27-.73.02-.77.62-.79,1.23-.02.57-.12,1.72.35,2.15.41.37,1.09.19,1.33-.27.42-.81.3-1.87.02-2.7-.02-.07-.1-.12-.19-.14Z"/>
              <path class="cls-8" d="M117.46,106.32c-.17-.18-.41-.28-.73-.27-.73.02-.77.62-.79,1.23-.02.57-.12,1.72.35,2.15.41.37,1.09.19,1.33-.27.42-.81.3-1.87.02-2.7-.02-.07-.1-.11-.19-.14Z"/>
              <path class="cls-8" d="M126.86,106.32c-.17-.18-.41-.28-.73-.27-.73.02-.77.62-.79,1.23-.02.57-.12,1.72.35,2.15.41.37,1.09.19,1.33-.27.42-.81.3-1.87.02-2.7-.02-.07-.1-.11-.19-.14Z"/>
              <path class="cls-8" d="M136.26,106.32c-.17-.18-.41-.28-.73-.27-.73.02-.77.62-.79,1.23-.02.57-.12,1.72.35,2.15.41.37,1.09.19,1.33-.27.42-.81.3-1.87.02-2.7-.02-.07-.1-.11-.19-.14Z"/>
              <path class="cls-8" d="M145.25,106.08c-.34.61-.72,1.2-1.12,1.77,0-.22.02-.42.02-.57.02-.6.06-1.2.79-1.22.11,0,.22,0,.31.03Z"/>
              <path class="cls-8" d="M113.15,117.07h-1.95c-.02-.38,0-.76.01-1.03.02-.6.06-1.2.79-1.22.32,0,.56.09.73.27.09.03.17.07.19.14.19.55.3,1.22.23,1.84Z"/>
              <path class="cls-8" d="M122.56,117.07h-1.95c-.02-.38,0-.76.01-1.03.02-.6.06-1.2.79-1.22.32,0,.56.09.72.27.09.03.17.07.19.14.19.55.31,1.22.23,1.84Z"/>
              <path class="cls-8" d="M131.97,116.35c-.64.17-1.3.31-1.97.42,0-.28.02-.54.02-.73.02-.6.06-1.2.79-1.22.32,0,.56.09.72.27.09.03.17.07.19.14.12.34.21.73.24,1.12Z"/>
            </g>
            <g>
              <path class="cls-8" d="M53.62,85.21c-4.99,1.02-9.93,2.25-14.82,3.7-.45.13.11.4.37.32,4.83-1.43,9.71-2.66,14.64-3.66.47-.1.15-.43-.19-.36Z"/>
              <path class="cls-8" d="M29.03,110.92c-3.34-2.69-5.82-6.3-7.14-10.37-.07-.22-.79-.18-.7.1,1.33,4.11,3.85,7.75,7.21,10.46.18.15.87.02.62-.19Z"/>
              <path class="cls-8" d="M143.79,101.8c-2.02,4.75-6.11,8.48-11.04,10.03-.45.14.11.4.36.32,5.06-1.58,9.29-5.37,11.37-10.25.11-.26-.6-.32-.7-.1Z"/>
            </g>
          </g>
          <path class="cls-5" d="M78.61,36.74c1.94-.11,3.79-.12,5.72.22,2.25.4,4.46.99,6.65,1.64,4.08,1.21,8.87,1.15,13.09.84,1.63-.12,3.37-.3,4.81.49,1.28.7,2.09,2.07,2.43,3.49.39,1.61.15,3.2.68,4.74.59,1.71,1.16,3.43,1.73,5.15,1.11,3.32,2.3,6.67,4.12,9.68,1.13,1.86,1.99,3.28,2.63,5.45,1.16,3.97,2.45,8.09-.58,11.55-1.12,1.27-2.55,2.24-4,3.1-2.29,1.36-4.72,2.54-7.34,3.03-3.07.58-6.24.19-9.32-.34-5.31-.91-10.55-2.24-15.65-3.97-2.32-.79-4.64-1.66-7.06-2.01-2.37-.34-4.79-.18-7.18-.37-2.57-.2-5.12-.81-7.5-1.8-.94-.39-1.88-.86-2.57-1.61-.97-1.06-.83-1.9-.52-3.11.34-1.37.33-2.91.41-4.32.3-5.71.59-11.42.89-17.14.17-3.32.2-6.42.75-9.74.32-1.97.99-2.53,2.91-2.95,4.65-1.02,9.39-1.68,14.14-1.98.26-.02.52-.03.78-.05Z"/>
          <path class="cls-5" d="M53.29,42.33c-2.21,1.81-3.88,4.17-5.41,6.7-2.45,4.06-4.38,8.46-7.07,12.37-2.51,3.65-5.34,7.1-7.38,11.05-.38.75-.74,1.51-1.05,2.29-.49,1.2-.88,2.46-.83,3.75.05,1.29.61,2.62,1.69,3.32.83.54,1.74.55,2.69.67.77.09,1.43.39,2.23.4,2.24.02,4.39-.87,6.38-1.89,1.98-1.01,3.91-2.18,5.52-3.72,3.04-2.9,4.75-6.91,6.19-10.85,2.42-6.6,4.35-13.39,5.76-20.28.24-1.18.47-2.37.39-3.57-.05-.77-.12-2.19-.77-2.73-.27-.23-.65-.3-1-.33-1.53-.14-3.06.29-4.44.96-1.07.52-2.02,1.15-2.9,1.87Z"/>
          <path class="cls-10" d="M94.5,87.3c4.55.83,9.31,1.53,13.94,1.04,2.24-.24,4.41-.76,6.17-2.23,2.52-2.1,1.38-3.82,1.33-6.72-.04-2.57-.09-5.15-.13-7.72-.03-1.67-.19-3.6-1.56-4.55-.67-.46-1.52-.59-2.34-.56-4.2.15-7.23,3.86-10.61,6.35-2.96,2.19-6.53,3.56-10.19,3.92-1.7.17-3.57.07-4.88-1.03-1.96-1.64-3.11-4.13-5.12-5.81-3.2-2.7-6.98-4.88-10.43-7.26-1.24-.85-2.48-1.72-3.47-2.84-1.24-1.41-1.67-2.99-1.74-4.82-.2-5.44-.02-10.89.53-16.3.02-.16.02-.36-.12-.45-.09-.06-.2-.05-.31-.03-1.76.23-3.52.47-5.28.7-.33.04-.68.09-.94.29-.76.56-.46,2.43-.49,3.28-.07,1.66.07,3.34.05,5-.02,2.1-.13,4.22-.42,6.3-.18,1.29-.43,2.58-.77,3.85-.97,3.58-2.68,6.95-3.43,10.58-.48,2.34-.44,4.72-.73,7.07-.18,1.46.19,2.85.66,4.23.26.76.54,1.51.79,2.27.4,1.25,1.27,3.01,2.4,3.76.88.58,1.99.65,3.04.65,4,0,7.87-1.01,11.84-1.2,4.28-.19,8.76.41,13.05.62,1.6.08,3.39,0,4.95.38,1.38.33,2.74.95,4.2,1.22Z"/>
          <g>
            <path class="cls-5" d="M110.21,39.81c3.82,1.09,6.68,5.08,8.98,8.17,5.95,8.02,11.66,16.22,17.09,24.59,1.48,2.28,2.98,4.71,3.08,7.42.04,1.23-.23,2.51-1,3.47-1.01,1.28-2.71,1.82-4.34,2-1.7.19-3.48.05-4.99-.76-1.69-.91-2.85-2.55-3.94-4.13-4.14-6-8.28-12-12.42-18.01-1.11-1.61-2.22-3.22-3.21-4.91-.79-1.35-1.5-2.74-2.21-4.13-.79-1.55-1.58-3.09-2.37-4.64-.55-1.08-1.11-2.17-1.42-3.35-.44-1.69-.73-3.52.73-4.78.66-.56,1.49-.9,2.34-1.08,1.31-.28,2.53-.21,3.67.11Z"/>
            <path class="cls-10" d="M106.56,79.57c.78.32,1.56.47,2.2-.21,3.7-3.91,7.16-8.05,10.36-12.38,1.58-2.14,3.09-4.32,4.54-6.55,1.46-2.25,2.64-3.68,1.15-6.25-.64-1.11-1.32-2.65-2.31-3.49-1.24-1.06-1.72.61-2.26,1.6-3.69,6.83-9.43,12.01-14.1,18.15-1.13,1.48-2.19,3.04-2.85,4.78-.18.48-.67,1.26-.68,1.76-.02,1.13,1.85,1.7,2.66,2.03.41.16.84.39,1.28.57Z"/>
          </g>
          <path class="cls-12" d="M74.96,68.44c-3.38-3.27-6.91-6.62-11.46-8.15-.26-.09-.81.17-.37.32,4.44,1.5,7.9,4.83,11.2,8.02.17.16.87.05.63-.18Z"/>
          <g>
            <path class="cls-4" d="M111.78,57.69c-.55-1.11-1.24-2.14-2.04-3.09-.13-.15-.7-.06-.52.16.78.92,1.44,1.94,1.98,3.02.09.18.68.13.58-.08Z"/>
            <path class="cls-4" d="M56.15,55.04c-.06-.15-.54-.11-.47.07.52,1.22.81,2.52.86,3.84,0,.17.49.17.48,0-.06-1.34-.35-2.67-.88-3.9Z"/>
          </g>
          <g>
            <g>
              <path class="cls-5" d="M43.27,71.03c.49.04.98.09,1.47.14,8.7.9,17.42,1.55,26.16,1.96.46.02,1.18.08,1.5.47.33.39.25,1.1.33,1.6.13.87.2,1.76.22,2.64.01.64.16,1.68-.07,2.28-.42,1.08-2.14,1.27-3.1,1.36-4.32.4-8.66.53-12.98,1-4.05.44-7.92,1.37-12,1.5-1.74.06-3.49.03-5.23-.01-2.52-.07-6.84-.11-7.84-3.03-1.82-5.36,4.8-9.62,9.37-9.93.72-.05,1.45-.02,2.17.03Z"/>
              <path class="cls-4" d="M53.18,71.39c-2.47-.31-4.95-.62-7.42-.92-1.19-.15-2.38-.24-3.59-.12-1.12.11-2.23.38-3.29.75-1.2.42-2.35.96-3.46,1.58-.11.06-.11.16,0,.22.12.06.31.07.43,0,1.9-1.06,3.94-1.93,6.11-2.21,1.13-.15,2.25-.08,3.38.05,1.2.14,2.4.3,3.6.45l4.09.51c.11.01.32,0,.37-.11.06-.12-.13-.18-.21-.19Z"/>
              <g>
                <path class="cls-5" d="M87.33,67.63c.42-.08,1.22-.26,1.41.23.23.58-.4,1.25-.8,1.58-1.08.89-2.42,1.33-3.68,1.9-1.09.49-3.28,1.4-2.71,2.94.15.4.42.75.69,1.08.54.67,1.09,1.35,1.79,1.84.37.26.79.47,1.19.69,1.96,1.09,3.24,2.83,4.59,4.59.42.54.84,1.11,1.01,1.78.17.66.04,1.45-.49,1.88-.29.23-.66.34-1.03.41-.7.12-1.41.12-2.12.1-2.47-.05-4.94-.19-7.4-.43-1.26-.12-2.52-.27-3.72-.67-1.68-.55-3.21-1.57-4.36-2.92-.97-1.14-1.66-2.49-2.26-3.86-.29-.67-.58-1.22-.53-1.96.05-.76.23-1.5.6-2.17.41-.75,1.09-1.22,1.79-1.68.87-.57,1.73-1.14,2.6-1.7.89-.58,1.78-1.17,2.77-1.54.67-.25,1.39-.48,2.07-.69.83-.25,1.85-.2,2.72-.31,1.9-.24,3.79-.58,5.66-1.03.07-.02.15-.04.23-.05Z"/>
                <g>
                  <path class="cls-4" d="M85.21,81.7c-1.7-.72-3.5-1.57-4.58-3.14-.08-.11-.25-.13-.37-.11-.07,0-.29.08-.21.19,1.12,1.63,2.96,2.53,4.73,3.28.13.05.3.07.43,0,.1-.05.12-.17,0-.22Z"/>
                  <path class="cls-4" d="M86.53,84.67c-1.18-.28-2.38-.53-3.54-.89-1.03-.32-2.05-.75-2.89-1.44-.45-.36-.85-.79-1.15-1.28-.11-.18-.7-.1-.58.08,1.24,1.99,3.59,2.76,5.75,3.29.7.17,1.41.33,2.11.5.12.03.31.04.41-.06.09-.09,0-.18-.11-.21Z"/>
                  <path class="cls-4" d="M79.67,84.97c-1.09-.47-2.06-1.19-2.84-2.09-.13-.15-.71-.06-.52.16.8.93,1.81,1.66,2.94,2.15.13.06.3.07.43,0,.1-.05.12-.17,0-.22Z"/>
                  <path class="cls-4" d="M88.92,67.74c-.35-.43-.99-.31-1.46-.2-1.25.28-2.5.52-3.77.72-1.42.22-2.84.39-4.27.5-.07,0-.21.06-.17.15.04.1.22.09.3.09,2.39-.19,4.77-.53,7.12-1.01.29-.06.58-.12.87-.19.22-.05.48-.14.71-.1.48.09.4.78.25,1.09-.39.86-1.45,1.22-2.24,1.59-1.23.57-2.47,1.15-3.7,1.72-.09.04-.08.13,0,.17.1.06.24.05.34,0l3.51-1.63c.49-.23.99-.44,1.46-.71.4-.23.78-.52,1.02-.92.21-.37.33-.9.04-1.25Z"/>
                </g>
              </g>
            </g>
            <g>
              <g>
                <g>
                  <path class="cls-4" d="M103.71,61.58c-.07,0-.14,0-.2,0-.69-.02-1.41-.12-2.35-.32-.11-.02-.22-.05-.33-.08-.23-.06-.46-.12-.67-.12h0c-.34,0-.8-.14-1.09-.46-.18-.21-.26-.46-.23-.72.03-.27.2-.52.45-.65.19-.1.4-.12.56-.13l1.08-.09c.14,0,.23-.06.25-.09,0,0-.02-.13-.37-.4-.19-.14-.39-.25-.61-.37-.14-.08-.29-.16-.44-.24-.37-.23-.89-.55-1.13-1.07-.07-.16-.22-.58,0-.92.27-.43.78-.27.94-.22.18.05.35.12.52.18-.06-.05-.11-.1-.17-.15-.44-.42-.5-.96-.16-1.39.18-.22.61-.5,1.55.04,0-.03-.02-.05-.03-.08-.09-.3-.03-.57.18-.75.31-.26.88-.23,1.23-.05.33.17.6.4.84.66.03-.24.13-.42.3-.54.19-.13.44-.15.67-.06.18.07.32.19.43.3.43.43.75.98,1,1.7.14.4.19.79.25,1.18.07.48.14.92.34,1.34.03.06.06.12.1.18.1.18.2.37.26.59.05.17.19.75-.13,1.08-.11.11-.23.2-.34.28-.11.08-.2.15-.28.23-.24.24-.51.43-.76.6-.29.19-.62.39-1,.48-.22.05-.45.07-.66.07ZM100.16,60.44c.28,0,.56.07.82.14.11.03.21.06.31.08.9.19,1.59.29,2.24.31.22,0,.47,0,.69-.05.29-.07.56-.23.81-.4h0c.23-.15.47-.32.67-.52.11-.12.24-.21.35-.29.1-.08.2-.15.28-.23.03-.03.05-.23-.02-.47-.05-.16-.13-.32-.22-.48-.03-.07-.07-.13-.1-.2-.25-.5-.32-1.02-.4-1.52-.06-.37-.11-.72-.22-1.07-.21-.63-.49-1.11-.85-1.47-.07-.07-.14-.14-.22-.17-.05-.02-.1-.02-.11,0-.03.02-.06.11-.04.28.03.3.13.6.23.9l.71,2.15-1.25-1.89c-.37-.56-.8-1.21-1.41-1.52-.19-.1-.48-.1-.56-.03-.01.01,0,.07,0,.11.03.1.11.21.18.31l1.07,1.48-.45.4-.72-.67c-.28-.26-.56-.53-.89-.71-.39-.23-.74-.31-.83-.2-.18.22-.04.43.1.57.29.28.61.54.93.79h.02c.17.14.35.27.47.5.1.19.03.33,0,.39-.07.11-.24.21-.47.12-.24-.1-.48-.21-.71-.32-.4-.19-.78-.37-1.18-.49-.2-.06-.25-.04-.26-.04-.04.06-.03.2.04.36.15.33.5.56.9.81.13.08.26.15.4.23.23.12.47.25.69.42.24.18.57.47.6.81.02.17-.03.33-.14.46-.2.24-.53.29-.66.3l-1.08.09c-.12,0-.24.02-.32.06-.07.04-.12.11-.13.19,0,.06,0,.15.09.25.15.17.44.26.64.26,0,0,0,0,0,0Z"/>
                  <path class="cls-5" d="M105.19,60.78c-.28.19-.57.36-.9.44-.25.06-.51.06-.77.06-.77-.03-1.54-.16-2.3-.32-.34-.07-.72-.21-1.07-.21-.44,0-1.09-.3-1.02-.84.02-.18.13-.34.29-.42.13-.07.29-.08.44-.1.36-.03.72-.06,1.08-.09.23-.02.55-.14.53-.43-.02-.23-.31-.47-.48-.6-.33-.25-.72-.41-1.07-.63-.4-.25-.82-.52-1.01-.94-.09-.19-.15-.45-.03-.64.14-.21.4-.16.6-.1.67.2,1.27.55,1.92.81.04.01.08.02.1,0,.02-.02,0-.05,0-.08-.09-.17-.25-.28-.4-.39-.34-.25-.66-.52-.96-.81-.29-.28-.4-.65-.13-.98.28-.34.9-.05,1.21.13.35.2.64.48.94.75l.72.67c-.36-.5-.71-.99-1.07-1.48-.09-.12-.18-.25-.22-.4-.19-.61.6-.63.98-.44.67.34,1.11.99,1.53,1.62-.1-.31-.21-.63-.24-.96-.02-.2,0-.45.17-.56.11-.08.26-.08.39-.03.13.05.23.14.33.24.44.44.73,1,.93,1.59.29.85.2,1.74.61,2.55.12.24.26.47.34.73.07.22.12.6-.06.77-.19.19-.44.32-.63.52-.22.22-.47.39-.72.56Z"/>
                </g>
                <path class="cls-8" d="M121.64,71.54h0c-.11.73-.44,1.42-1.05,1.92-.33.27-.75.42-1.18.48-.76.1-1.54-.09-2.19-.5-.32-.2-.61-.45-.84-.75-.8-.99-1.56-2.05-2.57-2.85-1.25-.98-2.82-1.47-4.38-1.75-.32-.06-.65-.11-.94-.27-.29-.16-.52-.45-.51-.78,0-.13.04-.25.11-.36.02-.03.04-.06.06-.1.14-.19.33-.37.51-.54.04-.04.08-.08.1-.13.03-.07-.08-.19-.27-.36-.79-.69-3.02-2.01-3.37-2.25-.46-.31-.88-.64-1.36-.91-.41-.22-.58-.61-.6-1.08-.04-1,.83-1.66,1.57-2.18.55-.38,1.15-.7,1.78-.92.69-.25,1.16-.19,1.88-.13,1.05.09,2.11.22,3.14.43.99.2,1.77.58,2.68,1,.6.27,1.21.57,1.79.89.4.22.8.46,1.18.72.67.46,1.29.98,1.83,1.59.89,1.01,1.52,2.24,1.92,3.52.17.55.4,1.14.49,1.7,0,0,0,0,0,0,.13.79.18,1.61.26,2.41h0s0,.07,0,.11c.04.36.03.72-.02,1.08Z"/>
              </g>
              <path class="cls-8" d="M125.95,72.87c-.11-.21-.22-.41-.34-.61-1.36-2.18-3.84-4.36-6.18-5.41-.25-.11-.51-.21-.76-.31-1.48-.56-3.06-.87-4.64-.98-.02,0-.04,0-.06,0-.03,0-.07,0-.1,0-1.16-.07-2.34-.04-3.47.23-.39.09-.76.21-1.14.34-.38.14-.75.3-1.12.47-.03.01-.06.03-.1.04,0,0,0,0-.01,0-.53.24-1.04.51-1.56.78-1.77.92-3.74,1.87-5.33,3.18-.35.28-.67.58-.98.9-.29.3-.56.62-.81.97-.71.99-1.29,2.15-1.74,3.36-.12.32-.23.64-.33.97-.3.98-.53,1.97-.67,2.93-.3,1.99-.18,4.08.56,5.95.07.17.14.33.21.5.19.39.4.77.66,1.11.21.28.44.54.7.78,2.33,2.06,6.02,2.35,9.01,2.33,3.45-.02,6.87-.74,10.11-1.9,2.47-.88,4.95-2.07,6.58-4.12,2.46-3.08,3.31-7.92,1.49-11.5Z"/>
              <g>
                <path class="cls-4" d="M99.03,88.87c-1.25,0-2.57-.17-3.94-.51-.39-.09-.79-.2-1.19-.34-3.12-.98-5.62-2.62-7.23-4.71-1.75-2.29-2.41-5.26-1.72-7.77.52-2.55,2.45-4.9,5.04-6.15,2.38-1.15,5.35-1.47,8.59-.94.41.06.82.14,1.21.24,2.4.55,4.43,1.49,6.02,2.79,2.17,1.77,3.48,4.22,3.6,6.7.05.96-.08,1.98-.38,3.1-.24,1.14-.59,2.11-1.06,2.94-1.23,2.16-3.5,3.75-6.24,4.36-.86.19-1.76.29-2.69.29ZM95.63,68.93c-1.98,0-3.79.38-5.33,1.12-2.4,1.15-4.18,3.32-4.65,5.65v.03c-.64,2.29-.03,5.03,1.59,7.14,1.52,1.98,3.9,3.52,6.88,4.47.38.13.76.24,1.13.32,2.29.57,4.41.65,6.31.22,2.5-.55,4.65-2.05,5.76-4.01.44-.77.76-1.67.98-2.74v-.02c.29-1.06.41-2,.36-2.89-.11-2.25-1.35-4.56-3.33-6.18-1.51-1.24-3.44-2.13-5.73-2.65h0c-.37-.1-.76-.17-1.15-.23-.97-.16-1.92-.24-2.84-.24Z"/>
                <path class="cls-5" d="M99.7,69.04c-.39-.1-.78-.18-1.19-.23-2.82-.46-5.8-.33-8.37.91-2.38,1.14-4.34,3.35-4.85,5.91-.7,2.52.05,5.37,1.66,7.46,1.74,2.26,4.34,3.73,7.06,4.59.38.13.77.24,1.16.33,2.12.53,4.34.7,6.47.23,2.45-.54,4.76-2,6-4.18.5-.88.82-1.85,1.02-2.85.26-.98.42-1.99.37-3-.12-2.51-1.52-4.85-3.47-6.44-1.69-1.38-3.75-2.24-5.88-2.72Z"/>
                <path class="cls-4" d="M105,71.79c-.4-.48-.96-.83-1.57-.99-.07-.02-.18-.02-.23.03-.05.05,0,.11.06.12.48.13.92.38,1.27.74.37.38.66.88.69,1.42.02.46-.19.97-.62,1.19-.24.12-.52.11-.78.09-.27-.02-.54-.07-.8-.14-.6-.16-1.17-.42-1.67-.79-.07-.05-.16-.06-.23-.03-.05.01-.13.07-.06.12.5.36,1.05.63,1.64.81.29.09.59.15.89.18.33.04.66.06.99-.02.53-.13.9-.6.97-1.13.08-.58-.19-1.17-.55-1.6Z"/>
              </g>
              <g>
                <path class="cls-6" d="M114.97,65.22c-1.55-.72-3.38-.74-4.96-.11-.44.18-.86.41-1.24.69-.07.05.02.11.06.12.08.02.17.02.23-.03,1.26-.91,2.89-1.25,4.42-.95.43.08.85.22,1.25.41.07.03.17.04.24,0,.06-.03.07-.09,0-.12Z"/>
                <path class="cls-6" d="M116.95,73.34c-.41-1.37-1.15-2.65-2.16-3.67-1.05-1.06-2.4-1.79-3.86-2.09-.84-.17-1.72-.19-2.56-.05-.05,0-.15.04-.12.11.03.07.16.07.21.06,1.43-.24,2.91.03,4.19.7,1.25.65,2.29,1.66,3.02,2.86.41.67.73,1.39.96,2.14.03.11.37.09.33-.05Z"/>
                <path class="cls-6" d="M122.03,69.84c-.05-.56-.19-1.11-.41-1.63-.05-.11-.38-.08-.33.05.38.9.51,1.91.35,2.88-.14.88-.52,1.71-1.07,2.41-.3.38-.66.72-1.06,1-.07.05.02.11.06.12.08.02.17.02.23-.03,1.53-1.08,2.39-2.93,2.23-4.79Z"/>
              </g>
            </g>
            <g>
              <path class="cls-5" d="M107.02,78.74c-.02.6-.18,1.21-.13,1.8.05.68.24,1.35.35,2.02.15.89.18,1.86-.28,2.64-.4.68-1.13,1.13-1.89,1.34-.76.22-1.57.24-2.36.26-2.46.07-4.92.13-7.38.19-.82.02-2.74.75-1.07,1.35,1,.36,2.22.41,3.27.63.92.2,1.83.43,2.73.71.87.27,1.79.36,2.67.6,1.85.5,3.62,1.24,5.46,1.73,2.02.54,4.12.78,6.21.71,2.37-.08,1.07-3.37.61-4.64-.43-1.19-.94-2.28-1.62-3.34-.68-1.06-1.63-1.9-2.5-2.8-.44-.46-.88-.94-1.09-1.54-.16-.46-.19-.95-.25-1.42-.07-.51-.18-1.02-.34-1.51-.16-.48-.38-.97-.83-1.21-.73-.38-1.22.29-1.38.91-.14.51-.17,1.03-.19,1.55Z"/>
              <path class="cls-5" d="M127.79,76.37c-.96.39-1.9.84-2.8,1.35-.92.52-1.8,1.1-2.69,1.67-1.97,1.26-3.97,2.48-5.98,3.67-1.67.99-3.46,1.91-4.54,3.6-.82,1.29-.91,2.99-.33,4.39.67,1.61,2.24,1.77,3.83,1.83,5.03.19,10.18-.17,14.78-2.42,3.11-1.53,5.55-3.81,7.94-6.26,1.5-1.53,1.9-3.5.89-5.47-.6-1.19-1.56-2.06-2.56-2.91-1.01-.85-1.72-1.12-3.1-.93-1.86.27-3.7.76-5.44,1.46Z"/>
              <path class="cls-4" d="M134.14,75.7c-.33-.32-.76-.52-1.21-.64-.5-.14-1.03-.25-1.56-.24-1.07,0-2.02.59-2.94,1.07-.56.29-1.12.58-1.68.87-.11.06-.11.16,0,.22.12.07.31.06.43,0,.88-.46,1.76-.92,2.65-1.37.39-.2.8-.39,1.24-.46.44-.07.89.01,1.31.11.45.11.89.26,1.23.59.1.1.29.09.41.06.1-.03.21-.11.11-.21Z"/>
              <path class="cls-4" d="M113.76,84.95c-.11-.18-.7-.1-.58.08.57.9.86,1.96.83,3.03,0,.21.6.22.6,0,.04-1.09-.26-2.19-.85-3.11Z"/>
              <path class="cls-4" d="M109.04,76.54c-.05-.08-.11-.17-.13-.19-.18-.13-.42-.17-.64-.15-.31.03-.57.18-.74.44-.17.26-.24.59-.29.9-.07.36-.11.72-.12,1.09-.07,1.53.13,3.07.08,4.6-.02.69-.13,1.39-.49,1.99-.15.25-.34.48-.57.67-.26.2-.56.31-.87.4-.73.21-1.47.41-2.22.55-.75.14-1.5.21-2.27.22-1.77.03-3.55-.02-5.32-.03-.09,0-.3.03-.3.15,0,.13.22.15.3.15,1.54,0,3.07.03,4.6.03.78,0,1.56,0,2.34-.11.74-.09,1.46-.26,2.18-.44.67-.18,1.41-.31,1.99-.72.47-.33.8-.85.99-1.39.23-.68.26-1.41.24-2.12-.01-.75-.04-1.51-.07-2.26-.02-.81-.06-1.63.05-2.44.06-.48.11-1.13.7-1.22.21-.04.44,0,.64.07.03.01-.02-.1-.08-.2Z"/>
            </g>
          </g>
          <g>
            <path class="cls-5" d="M79.6,37.39c-.39.57-.72,1.18-.85,1.86-.21,1.08.11,2.22.73,3.13,1.89,2.78,5.75,4.23,8.84,5.1,2.58.73,5.86.61,7.92-1.35,1.24-1.17,1.73-2.84,2.24-4.41.47-1.45,1.55-3.04,1.54-4.59,0-.91-.55-1.72-1.14-2.41-1.9-2.17-4.52-3.61-7.27-4.45-1.7-.52-3.42-1.09-5.21-1.24-.78-.06-1.73-.1-2.43.31-.99.6-1.18,2.16-1.53,3.19-.4,1.18-.97,2.29-1.69,3.3-.37.52-.78,1.02-1.14,1.55Z"/>
            <path class="cls-4" d="M84.18,35.71c.37,1.35,1.02,2.62,1.93,3.67,2.63,3.04,7.28,3.51,10.67,1.51.9-.53,1.74-1.23,2.26-2.14.52-.91.68-2.07.25-3.02-.19-.42-.48-.78-.8-1.11-.97-.98-2.23-1.77-3.56-2.09-1.59-.38-3.19-.76-4.78-1.13-1.08-.26-2.18-.51-3.29-.45-1.03.07-2.2.47-2.86,1.32-.32.41-.2,1.02-.16,1.51.05.65.17,1.3.34,1.93Z"/>
            <path class="cls-5" d="M82.27,26.26c.24,2.13.65,4.23,1.39,6.24,1.44,3.88,4.59,8.35,9.09,8.4,3.82.04,7.43-2.13,9.85-5.09,2.42-2.96,3.81-6.63,4.81-10.32.9-3.32,1.53-6.79.99-10.19-.54-3.4-2.41-6.72-5.46-8.3-4.1-2.12-9.26-.93-13.21.9-1.17.54-2.32,1.15-3.31,1.97-2.06,1.69-3.35,4.2-3.95,6.8-.6,2.6-.57,5.31-.36,7.97.04.54.1,1.09.16,1.63Z"/>
            <path class="cls-2" d="M84.21,16.37c.13-.26.26-.52.37-.78.33-.74.59-1.51.99-2.21,2.32-4.07,7.26-5.16,11.58-4.89.7.04,1.42.09,2.07.36,1.19.49,1.99,1.67,2.38,2.9.39,1.23.45,2.54.58,3.82.13,1.28.36,2.6,1.05,3.69.8,1.28,2.1,2.07,3.3,2.94.81.59,1.9,2.26,2.87,2.41.57.09,1.11-.39,1.3-.93.57-1.65-.3-3.91-.69-5.52-.48-2.01-1.03-4-1.68-5.96-.67-2-1.47-4-2.84-5.6-1.57-1.84-3.79-3.02-6.09-3.81-1.69-.58-3.51-.67-5.28-.49-1.85.18-2.81.64-4.26,1.68-2.97,2.13-5.54,4.56-7.48,7.7-.6.98-.93,2.16-1.05,3.3-.11,1.11-.28,2.24-.03,3.34.02.09.04.18.1.25.09.12.24.16.39.18.8.06,1.43-.65,1.85-1.33.21-.33.4-.67.57-1.01Z"/>
            <path class="cls-5" d="M83.65,18.93c-.48-.39-1.1-.6-1.72-.59-.35,0-.72.1-1,.3-.56.41-.71,1.19-.73,1.88-.05,1.35.18,2.71.66,3.98.3.78.71,1.54,1.32,2.11.23.21.49.4.79.47,1,.25,1.26-.67,1.43-1.41.35-1.49.23-3.05.06-4.55-.08-.72-.11-1.54-.67-2.06-.05-.04-.1-.08-.15-.13Z"/>
            <path class="cls-4" d="M99.08,39.62c-.71,1.7-1.56,3.33-2.55,4.87-.12.19.5.27.62.09.99-1.55,1.84-3.18,2.55-4.87.09-.23-.53-.29-.62-.09Z"/>
            <path class="cls-4" d="M80,36.7c-.13-.02-.31,0-.39.11-.58.82-1.29,1.54-2.09,2.14-.12.09.03.2.12.22.14.04.32.03.44-.06.83-.63,1.55-1.38,2.16-2.22.08-.12-.15-.19-.22-.2Z"/>
            <g>
              <g>
                <g>
                  <path class="cls-13" d="M102.78,25.17c-.11-.2-.29-.36-.56-.42-.25-.06-.51-.05-.76.02-.24.07-.45.21-.56.44-.13.25-.19.54-.22.82,0,.03,0,.06,0,.09,0,0,0,.01,0,.02-.09.5.06,1.08.59,1.25.1.03.2.05.31.05.16.01.3-.02.44-.08.27-.1.51-.3.66-.56.09-.16.14-.32.18-.5.09-.37.1-.8-.08-1.12Z"/>
                  <path class="cls-13" d="M90.94,22.48c-.11-.2-.29-.36-.56-.42-.24-.06-.51-.05-.76.02-.24.07-.45.21-.56.44-.13.25-.19.54-.22.82,0,.03,0,.06,0,.09,0,0,0,.01,0,.02-.09.5.06,1.08.59,1.25.1.03.2.05.31.05.16.01.3-.02.44-.08.27-.1.51-.3.66-.56.09-.16.14-.32.18-.5.1-.37.1-.8-.07-1.12Z"/>
                  <path class="cls-2" d="M92.1,18.62c.27.07.53.15.79.24.34.12.66.44.58.79-.02.07-.05.14-.1.19-.13.12-.34.09-.52.05-1.08-.22-2.18-.35-3.29-.36-.99-.01-1.98.11-2.96.12-.07,0-.14,0-.19-.03-.48-.21.6-.65.71-.69.74-.26,1.51-.46,2.29-.55.88-.1,1.81,0,2.69.22Z"/>
                  <path class="cls-2" d="M101.68,20.34s-.08,0-.12-.01c-.3-.03-.74-.1-1,.06-.32.2-.51.69-.14.94.32.22.81.14,1.18.22.49.1.97.25,1.44.44.95.38,1.85.89,2.77,1.34.23.11.67.17.55-.2-.06-.17-.49-.51-.63-.65-.47-.46-1-.84-1.55-1.19-.76-.48-1.62-.84-2.5-.96Z"/>
                </g>
                <path class="cls-7" d="M90.19,31.91c.09-.06.2-.1.34-.1.39,0,.75.21,1.1.39,1.42.74,3.05,1.08,4.65.96.32-.02.66-.06.97.04s.59.38.56.71c-.04.4-.48.74-.78.93-.51.33-1.1.51-1.69.61-1.65.28-3.42-.39-4.67-1.48-.49-.42-1.26-1.51-.47-2.06Z"/>
              </g>
              <path class="cls-4" d="M99,21.95c-.08-.03-.18-.01-.25.03-.62.42-1.19.94-1.58,1.59-.44.74-.52,1.57-.53,2.41-.02.92,0,1.84.08,2.76.04.47.11.94.1,1.42,0,.36-.04.86-.41,1.05-.19.1-.44.12-.65.13-.24.01-.47,0-.71-.04-.46-.08-.9-.26-1.28-.52-.07-.05-.17-.06-.25-.03-.04.01-.14.08-.07.13.71.48,1.55.7,2.4.64.38-.03.83-.08,1.08-.4s.25-.81.24-1.19c-.01-.49-.08-.98-.12-1.47-.04-.5-.06-1-.06-1.5,0-.49,0-.99.02-1.48.03-.47.09-.93.26-1.37.35-.86,1.04-1.51,1.78-2.02.07-.04-.02-.11-.07-.12Z"/>
            </g>
            <g>
              <path class="cls-1" d="M100.71,6.74c-.83-.97-2.03-1.61-3.29-1.8-2.56-.4-5.15,1.19-5.87,3.7-.08.28.63.32.7.1.63-2.21,2.85-3.9,5.2-3.4,1.14.24,2.2.93,2.87,1.9.76,1.08.96,2.42,1.14,3.7.04.26.76.24.72,0-.21-1.48-.47-3.01-1.47-4.18Z"/>
              <path class="cls-1" d="M120.3,28.12c-2.13.2-4.39.4-6.45-.34-1.95-.69-3.42-2.24-4.82-3.7-.16-.17-.86-.06-.62.19,1.52,1.6,3.12,3.2,5.27,3.9,2.19.71,4.55.52,6.81.31.48-.05.15-.39-.19-.36Z"/>
              <path class="cls-1" d="M117.07,25.33c-1.65.07-3.24-.41-4.58-1.38-.19-.13-.88,0-.62.19,1.52,1.1,3.33,1.65,5.21,1.57.43-.02.44-.39,0-.37Z"/>
              <path class="cls-1" d="M123.98,44.78c-2.19-.79-3.85-2.7-4.39-4.96-.06-.26-.78-.22-.72,0,.58,2.46,2.38,4.42,4.74,5.28.26.09.81-.16.37-.32Z"/>
              <path class="cls-1" d="M126.58,43.72c-1.6-.47-2.98-1.43-3.99-2.75-.15-.2-.85-.1-.7.1,1.1,1.44,2.59,2.46,4.32,2.97.26.08.82-.19.37-.32Z"/>
              <path class="cls-1" d="M132.96,37.56c-.6-.86-1.44-1.47-2.42-1.85-.26-.1-.81.15-.37.32.95.37,1.76,1.05,2.28,1.93.57.96.69,2.07.8,3.16.03.26.75.24.72,0-.13-1.25-.29-2.51-1.03-3.56Z"/>
              <path class="cls-1" d="M75.21,28.84c-1.73,1.56-3.05,3.78-2.3,6.16.07.22.79.18.7-.1-.72-2.27.58-4.4,2.22-5.88.24-.22-.45-.34-.62-.19Z"/>
              <path class="cls-1" d="M75.46,30.92c-.41,1.1-.43,2.23-.07,3.34.07.22.79.18.7-.1-.34-1.04-.31-2.12.07-3.15.1-.27-.61-.33-.7-.1Z"/>
              <path class="cls-1" d="M107.38,4.57c-1.07-.88-2.38-1.7-3.7-2.13-.26-.08-.81.17-.37.32,1.22.4,2.45,1.19,3.44,2,.96.78,1.72,1.8,1.94,3.04.05.26.76.23.72,0-.23-1.31-1.02-2.39-2.04-3.22Z"/>
              <path class="cls-1" d="M89.11,3.1c-1.37,1.39-2.7,3.58-1.19,5.38.15.18.84.08.62-.19-1.39-1.65-.04-3.75,1.19-5,.23-.24-.46-.35-.62-.19Z"/>
              <path class="cls-1" d="M86.15,9.82c-.6-.76-.67-1.77-.18-2.61.13-.23-.57-.31-.7-.1-.52.89-.45,1.99.18,2.8.15.19.85.09.7-.1Z"/>
            </g>
          </g>
          <g>
            <path class="cls-7" d="M131,94.37H47.31c.14-1.07.46-2.11,1-3.05.56-.97,1.24-1.8,2-2.51h0c.06-.06.11-.11.17-.16h0c3.55-3.2,8.93-4.02,13.81-4.35,1.27-.08,2.51-.14,3.67-.19,10.83-.48,21.47.69,31.69,4.29,2.25.79,4.54,1.46,6.86,2,.65.15,1.3.3,1.96.43,2.59.53,5.21.89,7.85,1.1.31.03.62.05.92.07,2.86.19,5.73.19,8.59,0,.23-.02.46-.03.69-.05.08,0,.15-.01.23-.02,1.45-.1,3.14-.04,3.89,1.18.22.37.32.81.35,1.25Z"/>
            <g>
              <path class="cls-8" d="M51.63,88.81c-.17-.18-.41-.28-.73-.27-.73.03-.77.62-.79,1.23-.02.57-.12,1.72.35,2.15.41.37,1.09.19,1.33-.28.42-.81.3-1.87.02-2.7-.02-.07-.1-.11-.19-.14Z"/>
              <path class="cls-8" d="M61.04,88.81c-.17-.18-.41-.28-.73-.27-.73.03-.77.62-.79,1.23-.02.57-.12,1.72.35,2.15.41.37,1.09.19,1.33-.28.42-.81.3-1.87.02-2.7-.02-.07-.1-.11-.19-.14Z"/>
              <path class="cls-8" d="M70.44,88.81c-.17-.18-.41-.28-.73-.27-.73.03-.77.62-.79,1.23-.02.57-.12,1.72.35,2.15.41.37,1.09.19,1.33-.28.42-.81.3-1.87.02-2.7-.02-.07-.1-.11-.19-.14Z"/>
              <path class="cls-8" d="M79.85,88.81c-.17-.18-.41-.28-.73-.27-.73.03-.77.62-.79,1.23-.02.57-.12,1.72.35,2.15.41.37,1.09.19,1.33-.28.42-.81.3-1.87.02-2.7-.02-.07-.1-.11-.19-.14Z"/>
              <path class="cls-8" d="M89.25,88.81c-.17-.18-.41-.28-.73-.27h0c-.73.03-.77.62-.79,1.23-.02.57-.12,1.72.35,2.15.16.14.35.2.54.2.32,0,.65-.18.8-.48.42-.81.3-1.87.02-2.7-.02-.07-.1-.11-.19-.14Z"/>
              <path class="cls-8" d="M98.65,88.81c-.17-.18-.41-.28-.73-.27h0c-.73.03-.77.62-.79,1.23-.02.57-.12,1.72.35,2.15.16.14.35.2.54.2.32,0,.65-.18.8-.48.42-.81.3-1.87.02-2.7-.02-.07-.1-.11-.19-.14Z"/>
              <path class="cls-8" d="M108.48,90.84c-.04.28-.12.55-.24.8-.15.29-.48.47-.8.47-.19,0-.39-.06-.54-.2-.33-.3-.38-.95-.37-1.51.65.16,1.3.3,1.96.43Z"/>
              <path class="cls-8" d="M117.25,92.01c-.29.15-.66.15-.92-.07.31.03.62.05.92.07Z"/>
              <path class="cls-8" d="M126.76,91.95c-.27.18-.63.23-.92.07.23-.02.46-.03.69-.05.08,0,.15,0,.23-.02Z"/>
            </g>
          </g>
        </g>
      </g>
      <g>
        <g>
          <rect class="cls-9" x="177.1" y="136.11" width="52.08" height="65.94"/>
          <g>
            <rect class="cls-9" x="181.5" y="190.36" width="6.39" height="26.76"/>
            <rect class="cls-9" x="218.39" y="190.36" width="6.39" height="26.76"/>
          </g>
          <g>
            <g>
              <rect class="cls-7" x="182.34" y="141.6" width="41.59" height="14.83"/>
              <circle class="cls-8" cx="203.17" cy="149.07" r="2.53"/>
            </g>
            <g>
              <rect class="cls-7" x="182.41" y="181.74" width="41.59" height="14.83"/>
              <circle class="cls-8" cx="203.2" cy="189.16" r="2.53"/>
            </g>
            <g>
              <rect class="cls-7" x="182.41" y="161.67" width="41.59" height="14.83"/>
              <circle class="cls-8" cx="203.2" cy="169.09" r="2.53"/>
            </g>
          </g>
        </g>
        <g>
          <g>
            <rect class="cls-6" x="209.17" y="69.87" width="2.29" height="66.25"/>
            <g>
              <path class="cls-6" d="M217.37,136.12h-14.12c0-1.72,1.39-3.11,3.11-3.11h7.89c1.72,0,3.12,1.39,3.12,3.11h0Z"/>
              <path class="cls-6" d="M214.15,134.56h-7.58c0-1.72,1.39-3.11,3.11-3.11h1.35c1.72,0,3.11,1.39,3.11,3.11h0Z"/>
            </g>
          </g>
          <path class="cls-10" d="M233.94,95.2h-47.25l1.1-2.57c.17-.39.33-.78.49-1.17.09-.21.17-.41.25-.62.45-1.1.89-2.2,1.32-3.31.08-.21.16-.42.24-.62,2.77-7.3,5.03-14.84,6.74-22.55.05-.21.09-.42.14-.62.22-1.03.44-2.07.65-3.11.04-.21.08-.41.12-.62.21-1.07.41-2.13.59-3.2h23.95c.17.96.34,1.92.53,2.87.04.21.08.41.12.62.2,1.04.42,2.07.64,3.1.04.21.09.41.14.62,1.71,7.77,3.97,15.38,6.76,22.74.08.21.16.41.24.62.43,1.11.86,2.21,1.31,3.31.08.21.17.41.26.62.19.45.37.9.57,1.35l1.09,2.57Z"/>
          <path class="cls-7" d="M232.02,90.66c-.81,0-1.62.02-2.42.03h-.7c-13.37.19-26.93.24-40.36.15-.08.21-.17.42-.25.62,4.6.03,9.21.05,13.82.05,8.96,0,17.92-.06,26.8-.18h.7c.88-.02,1.77-.03,2.67-.04-.09-.21-.17-.42-.26-.62ZM228.9,87.38h.7c.36-.02.73-.02,1.1-.02-.08-.21-.16-.41-.24-.62-.29,0-.58,0-.87.01h-.7c-12.86.19-25.88.23-38.8.16-.08.21-.16.42-.24.62,4.08.03,8.16.04,12.25.04,8.96,0,17.92-.06,26.8-.18ZM223.71,64c-.05-.21-.09-.41-.14-.62-8.83.27-17.72.39-26.6.35-.05.21-.09.42-.14.62,1.22,0,2.45,0,3.67,0,7.75,0,15.5-.12,23.21-.36ZM222.94,60.28c-.04-.21-.08-.41-.12-.62-8.33.25-16.7.36-25.07.33-.04.21-.08.42-.12.62.92,0,1.85,0,2.77,0,7.53,0,15.06-.12,22.54-.34Z"/>
        </g>
        <g>
          <path class="cls-6" d="M199.04,127.8c0,4.59-3.72,8.32-8.32,8.32s-8.32-3.72-8.32-8.32,3.72-8.32,8.32-8.32,8.32,3.72,8.32,8.32Z"/>
          <path class="cls-7" d="M197.47,127.8c0,3.73-3.02,6.75-6.75,6.75s-6.75-3.02-6.75-6.75,3.02-6.75,6.75-6.75c3.73,0,6.75,3.02,6.75,6.75Z"/>
          <path class="cls-10" d="M191.45,127.8c0,.4-.32.72-.72.72s-.72-.32-.72-.72.32-.72.72-.72c.4,0,.72.32.72.72Z"/>
          <polygon class="cls-10" points="195.81 129.89 190.42 128.01 190.42 122.62 191.02 122.62 191.02 127.59 196.01 129.32 195.81 129.89"/>
          <g>
            <path class="cls-6" d="M186.2,135.04c-.33.73-.86,1.2-1.2,1.05-.33-.15-.34-.86-.01-1.59.33-.73.86-1.2,1.2-1.05.33.15.34.86.01,1.59Z"/>
            <path class="cls-6" d="M195.24,135.04c.33.73.86,1.2,1.2,1.05.33-.15.34-.86.01-1.59-.33-.73-.86-1.2-1.2-1.05-.34.15-.34.86-.01,1.59Z"/>
          </g>
        </g>
      </g>
    </g>
  </g>
</svg>