<?xml version="1.0" encoding="UTF-8"?>
<svg id="Layer_2" data-name="Layer 2" xmlns="http://www.w3.org/2000/svg" viewBox="0 0 273.36 198.44">
  <defs>
    <style>
      .cls-1 {
        fill: #a86d55;
      }

      .cls-1, .cls-2, .cls-3, .cls-4, .cls-5, .cls-6, .cls-7, .cls-8, .cls-9, .cls-10, .cls-11, .cls-12 {
        stroke-width: 0px;
      }

      .cls-2 {
        fill: #7c533d;
      }

      .cls-3 {
        fill: #ec7d6b;
      }

      .cls-4 {
        fill: #fab18f;
      }

      .cls-5 {
        fill: #ee9497;
      }

      .cls-6 {
        fill: #fff;
      }

      .cls-7 {
        fill: #fdded6;
      }

      .cls-8 {
        fill: #94b8b1;
      }

      .cls-9 {
        fill: #ffd581;
      }

      .cls-10 {
        fill: #e77989;
      }

      .cls-11 {
        fill: #febf32;
      }

      .cls-12 {
        fill: #382b2b;
      }
    </style>
  </defs>
  <g id="Layer_1-2" data-name="Layer 1">
    <g>
      <g>
        <rect class="cls-8" x="0" y="129.24" width="272.51" height="69.2"/>
        <g>
          <path class="cls-6" d="M0,170.37c35.52-18.88,74.94-30.49,112.83-40.17,1.25-.32,2.51-.64,3.77-.96h-4.89c-19.24,4.93-44.21,11.69-68.36,20.61C27.47,155.71,13.13,162.04,0,168.99v1.38Z"/>
          <path class="cls-6" d="M0,141.07c5.86-1.88,11.8-3.56,17.68-5.21,3.69-1.04,7.5-2.11,11.2-3.21,3.63-1.08,7.24-2.22,10.85-3.4h-3.91c-2.42.77-4.85,1.52-7.28,2.25-3.7,1.1-7.5,2.17-11.18,3.21-5.77,1.62-11.6,3.27-17.36,5.11v1.26h0Z"/>
          <path class="cls-6" d="M93.09,163.95c-20.52,5.61-41.73,11.42-61.98,18.6-11.25,3.99-21.57,8.19-31.11,12.67v1.34c29.66-14,61.94-22.83,93.4-31.44,6.67-1.82,13.56-3.71,20.31-5.61,7.44-2.1,14.99-4.3,22.29-6.43,20.08-5.85,40.83-11.9,61.6-16.48,14.79-3.26,29.98-5.44,44.93-7.35h-9.21c-12.02,1.64-24.12,3.55-35.97,6.17-20.8,4.59-41.58,10.65-61.67,16.5-7.3,2.13-14.84,4.33-22.28,6.42-6.74,1.9-13.63,3.78-20.3,5.61Z"/>
          <path class="cls-6" d="M229.54,165.13c-9.59,2.87-19.51,5.84-29.5,7.79-5.61,1.09-11.37,1.89-16.94,2.66-5.64.78-11.47,1.58-17.16,2.7-11.34,2.22-20.91,6.84-31.05,11.72-4.05,1.95-8.23,3.97-12.5,5.8-2.07.89-4.15,1.77-6.23,2.64h3.1c1.2-.51,2.4-1.02,3.6-1.54,4.3-1.84,8.5-3.87,12.55-5.82,10.07-4.85,19.57-9.43,30.76-11.63,5.65-1.11,11.47-1.91,17.09-2.69,5.59-.77,11.37-1.57,17.01-2.67,10.04-1.96,19.99-4.93,29.61-7.82l27.18-8.14c5.1-1.53,10.25-3.07,15.45-4.53v-1.25c-5.32,1.49-10.59,3.07-15.8,4.63l-27.18,8.14Z"/>
          <path class="cls-6" d="M248.9,190.35c-5.92,1.94-12.09,3.63-18.06,5.26-3.35.92-6.73,1.84-10.1,2.82h4.4c2.01-.56,4.02-1.11,6.01-1.66,5.98-1.64,12.17-3.33,18.12-5.28,3.08-1.01,6.21-2.12,9.23-3.19,4.61-1.64,9.29-3.3,14.01-4.68v-1.25c-4.87,1.41-9.68,3.11-14.42,4.79-3.02,1.07-6.14,2.18-9.2,3.18Z"/>
          <path class="cls-6" d="M226.45,152.76c-19.98,4.37-40.64,8.88-60.59,14.69-2.35.68-4.73,1.4-7.03,2.09-9.37,2.81-19.06,5.71-28.84,7.27-3.77.6-7.58,1.09-11.27,1.57-12.27,1.58-23.86,3.07-35.24,8.5-7.97,3.81-16.02,7.71-23.95,11.57h2.75c7.2-3.5,14.49-7.03,21.71-10.48,11.2-5.34,22.7-6.82,34.87-8.39,3.69-.48,7.51-.97,11.31-1.57,9.87-1.58,19.59-4.49,29-7.31,2.3-.69,4.68-1.4,7.02-2.08,19.92-5.8,40.56-10.31,60.51-14.67,15.11-3.3,30.53-6.67,45.81-10.64v-1.25c-15.36,3.99-30.87,7.38-46.07,10.71Z"/>
          <path class="cls-6" d="M253.8,171.67c-7.17,2.92-14.58,5.95-22.21,7.69-3.85.88-7.9,1.46-11.82,2.02-8.54,1.22-17.38,2.49-25.07,6.9-6.14,3.52-13.49,6.89-22.25,10.16h3.38c7.54-2.94,13.99-5.96,19.48-9.11,7.49-4.3,16.2-5.55,24.63-6.75,3.94-.56,8.02-1.15,11.91-2.03,7.73-1.76,15.19-4.81,22.4-7.75,4.39-1.79,8.93-3.65,13.48-5.19,1.58-.54,3.17-1.04,4.78-1.51v-1.26c-1.73.51-3.45,1.05-5.16,1.62-4.58,1.55-9.14,3.41-13.55,5.21Z"/>
        </g>
      </g>
      <g>
        <g>
          <path class="cls-11" d="M61.32,59.79c-2.38-.32-4.78-.34-7.17-.07-.36.04-1.04.28-.84.76.2.47,1.09.47,1.48.43,1.46-.16,2.92-.19,4.37-.08-2.49.77-4.99,1.5-7.51,2.2-.4.11-.8.46-.43.84.37.39,1.19.35,1.65.22,2.79-.77,5.57-1.59,8.34-2.45.35-.11.72-.39.52-.73.19-.07.36-.18.43-.35.22-.48-.52-.71-.84-.76Z"/>
          <path class="cls-11" d="M61.48,64.34c-1.54-.49-3.17-.39-4.74-.11-1.57.29-3.13.64-4.7.97-.35.07-1.05.26-.84.76.18.45,1.11.51,1.48.43,1.35-.28,2.71-.56,4.06-.84,1.16-.23,2.36-.51,3.52-.15.47.15,1.27.16,1.65-.22.38-.39-.05-.72-.44-.84Z"/>
          <path class="cls-11" d="M62.78,69.4c-.13-.13-.31-.21-.52-.26-.2-.33-.88-.41-1.15-.41-2.02.03-4.03.09-6.04.18.48-.1.95-.24,1.41-.41,1.3-.47,2.61-1.25,4.04-1.2.37.01,1.19-.12,1.21-.61.01-.51-.88-.6-1.21-.61-1.44-.06-2.79.38-4.11.91-1.01.41-2.3,1.11-3.42.83-.49-.13-1.26-.17-1.65.22-.37.38.03.74.43.84.28.07.57.13.86.16-.29.02-.57.03-.86.05-.37.02-1.19.09-1.21.61-.01.49.88.63,1.21.61,2.27-.14,4.54-.23,6.81-.3-2.47.8-4.93,1.6-7.4,2.4-.39.13-.81.45-.43.84.36.37,1.2.37,1.65.22,3.32-1.08,6.64-2.15,9.96-3.23.38-.13.81-.45.43-.84Z"/>
          <path class="cls-11" d="M61.9,72.53c-.35-.36-1.22-.39-1.65-.22-2.61,1-5.28,1.83-8,2.46-.41.1-.79.47-.43.84.38.4,1.17.33,1.65.22,2.72-.64,5.39-1.46,8-2.46.37-.14.82-.44.43-.84Z"/>
          <path class="cls-11" d="M62.74,76.55c-.35-.36-1.21-.39-1.65-.22-3.11,1.18-6.38,1.71-9.7,1.55-.37-.02-1.19.12-1.21.61-.01.51.88.6,1.21.61,3.71.18,7.45-.4,10.92-1.72.37-.14.82-.44.43-.84Z"/>
          <path class="cls-11" d="M63.87,79.29c-.19-.46-1.1-.49-1.48-.43-2.67.39-5.31.91-7.93,1.55-.4.1-.79.47-.43.84.38.4,1.18.33,1.65.22,2.43-.59,4.88-1.06,7.35-1.42.35-.05,1.04-.27.84-.76Z"/>
          <path class="cls-11" d="M63.58,80.46c-.47-.26-1.23-.25-1.7,0-2.69,1.44-5.59,2.45-8.6,2.94-.35.06-1.04.27-.84.76.19.46,1.1.49,1.48.43,3.38-.56,6.64-1.64,9.67-3.26.43-.23.42-.63,0-.87Z"/>
          <path class="cls-11" d="M65.11,83.77c-.39-.4-1.17-.33-1.65-.22-2.96.66-5.91,1.31-8.86,1.97-.41.09-.79.47-.43.84.39.4,1.17.33,1.65.22,2.96-.66,5.91-1.31,8.86-1.97.41-.09.79-.47.43-.84Z"/>
          <path class="cls-11" d="M64.22,85.45c-.49-.27-1.22-.23-1.7,0-3.47,1.66-7.16,2.82-10.96,3.43-.35.06-1.04.27-.84.76.19.46,1.1.49,1.48.43,4.17-.67,8.22-1.92,12.03-3.74.45-.22.41-.64,0-.87Z"/>
          <path class="cls-11" d="M63.82,88.59c-.49-.27-1.22-.23-1.7,0-3.16,1.52-6.42,2.82-9.75,3.9-.39.13-.81.45-.43.84.36.37,1.2.37,1.65.22,3.5-1.13,6.93-2.5,10.24-4.1.45-.22.41-.64,0-.87Z"/>
          <path class="cls-11" d="M64.63,91.55c-.48-.26-1.23-.24-1.7,0-3.36,1.71-6.93,2.98-10.63,3.72-.35.07-1.05.26-.84.76.19.45,1.11.51,1.48.43,4.07-.81,8-2.14,11.7-4.03.44-.23.42-.64,0-.87Z"/>
          <path class="cls-11" d="M65.36,94.99c-.37-.38-1.19-.36-1.65-.22-3.57,1.05-7.04,2.42-10.37,4.09-.45.22-.41.64,0,.87.48.27,1.22.24,1.7,0,3.18-1.59,6.48-2.89,9.88-3.89.39-.12.8-.46.43-.84Z"/>
          <path class="cls-11" d="M65.71,98.99c-.37-.38-1.19-.35-1.65-.22-3.66,1.05-7.31,2.11-10.97,3.16-.39.11-.8.46-.43.84.37.38,1.19.35,1.65.22l10.97-3.16c.39-.11.8-.46.43-.84Z"/>
          <path class="cls-11" d="M65.28,101.71c-.48-.26-1.23-.24-1.7,0-3.34,1.7-6.93,2.79-10.65,3.24-.36.04-1.04.28-.84.76.19.47,1.09.48,1.48.43,4.08-.49,8.05-1.69,11.72-3.56.45-.23.42-.64,0-.87Z"/>
          <path class="cls-11" d="M66.05,104.37c-.48-.26-1.22-.24-1.7,0-3.04,1.54-6.32,2.45-9.72,2.72-.36.03-1.04.29-.84.76.2.48,1.09.46,1.48.43,3.75-.3,7.42-1.34,10.78-3.03.45-.22.42-.64,0-.87Z"/>
          <path class="cls-11" d="M66.32,107.47c-.37-.39-1.19-.35-1.65-.22-3.38.95-6.79,1.8-10.22,2.57-.41.09-.79.47-.43.84.39.4,1.17.33,1.65.22,3.43-.76,6.84-1.62,10.22-2.57.4-.11.8-.46.43-.84Z"/>
          <path class="cls-11" d="M65.96,109.94c-.37-.38-1.19-.36-1.65-.22-1.88.58-3.76,1.18-5.63,1.8-.9.3-1.79.6-2.69.91-.71.24-1.66.49-1.96,1.27-.33.89,2.04,1.08,2.33.33.21-.55,1.24-.67,1.74-.84.82-.28,1.64-.55,2.47-.83,1.65-.54,3.3-1.07,4.96-1.58.39-.12.81-.46.43-.84Z"/>
          <path class="cls-11" d="M64.74,112.34c-.38-.39-1.18-.34-1.65-.22-2.71.69-5.34,1.62-7.9,2.76-.46.21-.4.65,0,.87.5.28,1.2.22,1.7,0,2.39-1.07,4.87-1.92,7.41-2.57.4-.1.79-.47.43-.84Z"/>
          <path class="cls-11" d="M65.42,113.58c-.51-.28-1.19-.21-1.7,0-2.83,1.18-5.67,2.37-8.5,3.55-.47.2-.39.65,0,.87.28.16.62.2.95.18-.24.09-.48.18-.72.28-.48.19-.39.65,0,.87.51.28,1.19.21,1.7,0,.37-.15.74-.29,1.12-.43-.11.15-.12.34.07.53.38.4,1.17.33,1.65.22,1.36-.32,2.71-.63,4.07-.95.41-.1.79-.47.43-.84-.38-.4-1.17-.33-1.65-.22-.96.22-1.93.45-2.89.68,1.39-.46,2.81-.85,4.23-1.19.41-.1.79-.47.43-.84-.38-.4-1.17-.33-1.65-.22-1.52.36-3.01.79-4.49,1.28,2.31-.97,4.63-1.93,6.94-2.9.47-.19.39-.65,0-.87Z"/>
        </g>
        <g>
          <path class="cls-11" d="M255.18,13.76c-3.64.21-7.3.43-10.9,1.06.06-.02.12-.05.18-.09,1.38-.85,2.87-1.66,4.49-1.95,1.7-.3,3.38,0,5-.74.46-.21.4-.64,0-.87-.49-.27-1.21-.23-1.7,0-.67.31-1.44.25-2.17.27-.91.03-1.79.13-2.68.35-1.66.4-3.2,1.19-4.65,2.07-.41.25-.44.62,0,.87.24.14.59.2.94.19-.27.05-.55.11-.82.16-.35.07-1.05.26-.84.76.19.45,1.11.51,1.48.43,3.84-.81,7.76-1.06,11.67-1.29.37-.02,1.19-.09,1.21-.61.01-.49-.88-.63-1.21-.61Z"/>
          <path class="cls-11" d="M255.44,16.73c-.39-.4-1.17-.33-1.65-.22-3.07.7-6.26.94-9.4.69-.43-.03-1.26-.06-1.48.43-.21.47.51.73.84.76,3.79.3,7.55.04,11.26-.81.41-.09.79-.47.43-.84Z"/>
          <path class="cls-11" d="M255.7,18.43c-.19-.46-1.1-.5-1.48-.43-2.67.46-5.36.78-8.06.95-.37.02-1.19.09-1.21.61-.01.49.88.63,1.21.61,2.92-.18,5.82-.5,8.7-.99.35-.06,1.05-.27.84-.76Z"/>
          <path class="cls-11" d="M258.48,24.38c-3.44.03-6.88.13-10.31.32,3.02-1.01,6.12-1.74,9.28-2.16.35-.05,1.04-.27.84-.76-.09-.22-.34-.34-.61-.4.33-.07.64-.22.65-.54.01-.49-.88-.64-1.21-.61-4.51.3-9.03.33-13.55.08-.37-.02-1.19.12-1.21.61-.01.51.88.6,1.21.61,3.95.22,7.9.22,11.84.02-3.1.5-6.15,1.26-9.12,2.3-.38.13-.81.45-.43.84.05.05.11.1.18.14-.39.06-.84.19-.85.58-.01.49.88.63,1.21.61,4.02-.25,8.04-.39,12.07-.42.37,0,1.19-.11,1.21-.61.01-.5-.88-.61-1.21-.61Z"/>
          <path class="cls-11" d="M258.29,27.03c-.19-.47-1.09-.48-1.48-.43-2.8.33-5.61.43-8.42.33-.37-.01-1.19.12-1.21.61-.01.51.88.6,1.21.61,3.03.11,6.05-.02,9.06-.37.36-.04,1.04-.28.84-.76Z"/>
          <path class="cls-11" d="M257.92,29.76c-3.05-.38-6.11-.64-9.17-.79-.37-.02-1.19.12-1.21.61-.01.51.88.6,1.21.61,2.85.14,5.7.39,8.53.74.42.05,1.27.04,1.48-.43.22-.48-.52-.71-.84-.76Z"/>
          <path class="cls-11" d="M260.51,33.6c-.19-.47-1.1-.48-1.48-.43-3.08.43-6.18.55-9.29.39-.37-.02-1.19.12-1.21.61-.01.51.88.6,1.21.61,3.32.18,6.64.02,9.93-.43.35-.05,1.04-.27.84-.76Z"/>
          <path class="cls-11" d="M260.5,38.3c-.2-.48-1.09-.47-1.48-.43-2.97.29-5.92.68-8.85,1.19-.35.06-1.05.27-.84.76.19.46,1.1.5,1.48.43,2.94-.51,5.89-.9,8.85-1.19.36-.03,1.04-.28.84-.76Z"/>
          <path class="cls-11" d="M260.94,40.52c-3.03-.1-6.04.23-8.98.94-.4.1-.79.47-.43.84.38.4,1.18.33,1.65.22,2.54-.61,5.15-.86,7.76-.77.37.01,1.19-.12,1.21-.61.02-.51-.88-.61-1.2-.62Z"/>
          <path class="cls-11" d="M260.04,42.8s0,.02.02.01c-.13.02-.3.02-.41.03-.31.03-.62.06-.94.08-.67.06-1.35.1-2.03.13-1.37.06-2.74.08-4.12.05-.37,0-1.19.11-1.21.61-.01.51.88.61,1.21.61,1.76.03,3.53,0,5.29-.12.89-.06,1.78-.12,2.67-.21.69-.07,1.46-.24,1.84-.88.45-.75-1.9-1.04-2.33-.32Z"/>
          <path class="cls-11" d="M260.85,35.67c-.39-.4-1.17-.33-1.65-.22-2.82.65-5.72.84-8.61.64-.37-.02-1.19.13-1.21.61-.01.52.88.59,1.21.61,3.3.22,6.6-.07,9.83-.81.41-.09.79-.47.43-.84Z"/>
          <path class="cls-11" d="M261.81,45.94c-1.29-.72-2.83-.72-4.26-.69-1.57.03-3.13.17-4.68.43-.35.06-1.04.27-.84.76.19.46,1.1.49,1.48.43,1.19-.19,2.38-.33,3.58-.37.98-.03,2.13-.18,3.02.32.47.26,1.23.26,1.7,0,.44-.24.43-.62,0-.87Z"/>
          <path class="cls-11" d="M260.41,49.63c-2.09-.76-4.39-.92-6.57-.48-.35.07-1.05.26-.84.76.19.45,1.11.51,1.48.43,1.61-.32,3.16-.2,4.71.36.46.17,1.28.15,1.65-.22.39-.4-.06-.71-.43-.84Z"/>
          <path class="cls-11" d="M260.82,51.77c-2.16.1-4.31-.08-6.42-.57-.49-.12-1.25-.18-1.65.22-.37.37.03.75.43.84,2.5.59,5.07.86,7.64.74.37-.02,1.19-.1,1.21-.61.02-.49-.88-.63-1.2-.62Z"/>
          <path class="cls-11" d="M261.18,53.95c-2.46-.06-4.92-.11-7.39-.17-.37,0-1.19.12-1.21.61-.01.51.88.61,1.21.61,2.46.06,4.92.11,7.39.17.37,0,1.19-.12,1.21-.61.02-.51-.88-.61-1.21-.61Z"/>
          <path class="cls-11" d="M261.81,55.92c-2.78-.08-5.56.02-8.32.28-.36.03-1.04.28-.84.76.2.48,1.09.47,1.48.43,2.55-.24,5.12-.32,7.68-.24.37.01,1.19-.12,1.21-.61.01-.51-.88-.61-1.21-.62Z"/>
          <path class="cls-11" d="M262.05,58.75c-1.06-.62-2.5-.41-3.68-.41-1.36,0-2.72,0-4.08,0-.37,0-1.19.11-1.21.61-.01.5.88.61,1.21.61,1.12,0,2.24,0,3.36,0,.56,0,1.12,0,1.68,0,.37,0,.83-.05,1.02.05.46.27,1.24.26,1.7,0,.45-.25.43-.62,0-.87Z"/>
          <path class="cls-11" d="M262.87,60.73c-2.69-.22-5.39-.29-8.08-.15-.37.02-1.19.1-1.21.61-.01.49.88.63,1.21.61,2.48-.13,4.97-.1,7.44.11.43.04,1.26.05,1.48-.43.21-.47-.51-.73-.84-.76Z"/>
          <path class="cls-11" d="M264.1,63.24c-.45-.39-1.41-.35-1.97-.22-1.92.45-3.94.51-5.88.12-.59-.12-1.5-.18-1.97.22-.44.37.03.75.52.84,2.91.58,5.9.56,8.79-.12.47-.11.96-.47.52-.84Z"/>
          <path class="cls-11" d="M265.11,65.78c-.24-.48-1.3-.46-1.77-.43-2.29.14-4.6.06-6.87-.2-.5-.06-1.51-.04-1.77.43-.26.48.61.71,1,.76,2.79.31,5.59.37,8.4.2.43-.03,1.24-.29,1-.76Z"/>
          <path class="cls-11" d="M264.41,67.63c-2.9-.27-5.8-.26-8.7,0-.43.04-1.24.28-1,.76.23.47,1.3.47,1.77.43,2.38-.22,4.79-.22,7.17,0,.51.05,1.51.05,1.77-.43.26-.47-.61-.72-1-.76Z"/>
          <path class="cls-11" d="M265.05,70.2c-2.99.11-5.97.13-8.96.07-.44,0-1.42.12-1.44.61-.02.51,1.05.61,1.44.61,2.99.06,5.97.04,8.96-.07.44-.02,1.42-.1,1.44-.61.02-.49-1.05-.63-1.44-.61Z"/>
          <path class="cls-11" d="M264.81,73.07c-.19-.47-1.1-.48-1.48-.43-2.18.28-4.37.39-6.57.34-.37,0-1.19.12-1.21.61-.01.51.88.61,1.21.61,2.41.05,4.82-.08,7.22-.39.35-.05,1.04-.27.84-.76Z"/>
          <path class="cls-11" d="M267.08,74.95c-.23-.47-1.27-.48-1.73-.43-2.3.24-4.59.48-6.88.72-.41.04-1.21.28-.98.76.23.47,1.27.48,1.73.43,2.3-.24,4.59-.48,6.88-.72.41-.04,1.21-.28.98-.76Z"/>
          <path class="cls-11" d="M266.8,77.61c-.5-1.02-2.36-.83-3.38-.77-1.53.08-3.06.17-4.59.25-.43.02-1.39.09-1.4.61-.02.49,1.03.63,1.4.61,1.07-.06,2.13-.12,3.2-.18.51-.03,1.02-.06,1.53-.08.17,0,.42.01.62,0,.58.6,3.02.38,2.62-.45Z"/>
          <path class="cls-11" d="M267.35,79.19c-1.09-.87-2.72-.69-4.07-.56l-4.95.49c-.41.04-1.21.28-.98.76.23.47,1.27.47,1.73.43l3.58-.35c.55-.05,1.1-.11,1.65-.16.11,0,.35-.02.47-.04.03,0,.05,0,.07,0,.02.02.05.04.08.06.47.37,1.35.37,1.92.22.43-.11.98-.46.5-.84Z"/>
          <path class="cls-11" d="M267.43,81.8c-1.27-.6-2.75-.75-4.18-.69-1.44.06-2.9.39-4.33.17-.48-.08-1.48-.03-1.73.43-.26.49.6.7.98.76,1.4.22,2.8.09,4.2-.05,1.06-.1,2.1-.21,3.07.25.55.26,1.43.26,1.98,0,.51-.24.51-.63,0-.87Z"/>
          <path class="cls-11" d="M267.77,84.11c-.24-.48-1.34-.47-1.82-.43-2.2.18-4.43.07-6.59-.34-.6-.12-1.54-.18-2.03.22-.45.37.04.75.53.84,2.92.56,5.88.72,8.87.47.44-.04,1.28-.28,1.04-.76Z"/>
          <path class="cls-11" d="M267.62,85.83c-.24-.47-1.34-.47-1.82-.43-2.22.19-4.43.38-6.65.58-.44.04-1.28.28-1.03.76.24.47,1.34.47,1.82.43,2.22-.19,4.43-.38,6.65-.58.44-.04,1.28-.28,1.03-.76Z"/>
          <path class="cls-11" d="M269.22,90.5c-3.64-.33-7.28-.66-10.94-.57.07-.01.13-.03.19-.06,1.49-.63,3.09-1.22,4.73-1.26,1.72-.04,3.34.51,5.06,0,.49-.14.5-.58.13-.86-.45-.34-1.16-.41-1.69-.25-.71.21-1.46.03-2.18-.05-.9-.11-1.79-.14-2.7-.06-1.7.15-3.34.7-4.91,1.36-.45.19-.53.55-.13.86.22.17.56.29.9.33-.28,0-.56.02-.84.04-.35.02-1.08.1-.94.62.12.47,1.02.67,1.4.65,3.92-.22,7.83.11,11.73.46.37.03,1.19.08,1.28-.43.09-.48-.78-.76-1.1-.79Z"/>
          <path class="cls-11" d="M269.04,93.48c-.32-.45-1.11-.5-1.6-.46-3.14.24-6.33,0-9.4-.72-.42-.1-1.24-.24-1.53.2-.28.43.4.8.72.87,3.7.87,7.46,1.16,11.25.87.42-.03.85-.35.56-.77Z"/>
          <path class="cls-11" d="M269.05,95.19c-.12-.48-1.01-.65-1.4-.65-2.7.05-5.41-.02-8.11-.26-.37-.03-1.19-.08-1.28.43-.09.48.78.76,1.1.79,2.91.26,5.83.37,8.75.32.35,0,1.07-.11.94-.62Z"/>
          <path class="cls-11" d="M270.91,101.49c-3.4-.49-6.82-.89-10.24-1.22,3.14-.55,6.31-.81,9.5-.76.36,0,1.07-.12.94-.62-.06-.23-.28-.38-.55-.48.33-.02.67-.12.73-.44.09-.48-.78-.76-1.1-.79-4.5-.37-8.98-1.02-13.41-1.94-.36-.07-1.2-.06-1.28.43-.09.51.78.72,1.1.79,3.87.8,7.78,1.4,11.71,1.78-3.14.03-6.27.34-9.36.92-.4.08-.87.32-.55.77.04.06.1.11.16.16-.39,0-.86.07-.93.45-.09.48.78.76,1.1.79,4.01.35,8.01.81,12,1.38.36.05,1.19.07,1.28-.43.09-.49-.78-.74-1.1-.79Z"/>
          <path class="cls-11" d="M270.56,105.41c-.12-.5-1.01-.63-1.4-.64-2.81-.1-5.61-.41-8.38-.93-.36-.07-1.2-.06-1.28.43-.09.5.78.73,1.1.79,2.98.56,5.99.88,9.02.98.36.01,1.07-.12.94-.62Z"/>
          <path class="cls-11" d="M269.8,108.06c-2.96-.83-5.94-1.54-8.95-2.14-.36-.07-1.2-.06-1.28.43-.09.51.78.72,1.1.79,2.8.56,5.57,1.23,8.32,2,.41.12,1.25.23,1.53-.2.29-.44-.4-.78-.72-.87Z"/>
          <path class="cls-11" d="M271.54,110.91c-.12-.49-1.01-.64-1.4-.65-3.11-.03-6.2-.37-9.24-1-.36-.07-1.2-.06-1.28.43-.09.51.78.72,1.1.79,3.25.67,6.56,1.01,9.88,1.05.36,0,1.07-.11.94-.62Z"/>
          <path class="cls-11" d="M270.83,115.56c-.13-.5-1.01-.62-1.4-.65-2.98-.16-5.95-.21-8.93-.14-.36,0-1.07.11-.94.62.12.48,1.02.65,1.4.64,2.98-.06,5.96-.02,8.93.14.36.02,1.07-.12.95-.62Z"/>
          <path class="cls-11" d="M270.94,117.82c-2.98-.55-6-.67-9.02-.41-.41.04-.85.35-.55.77.32.45,1.11.51,1.6.46,2.61-.23,5.22-.08,7.79.39.36.07,1.2.06,1.28-.43.09-.5-.78-.73-1.1-.79Z"/>
          <path class="cls-11" d="M269.71,119.94s0,.02.02.02c-.13,0-.3-.03-.41-.03-.31-.02-.63-.04-.94-.06-.68-.05-1.35-.11-2.02-.18-1.36-.14-2.72-.33-4.08-.56-.36-.06-1.2-.07-1.28.43-.09.5.78.73,1.1.79,1.74.29,3.49.52,5.25.67.89.08,1.78.15,2.67.18.69.03,1.48-.02,1.95-.59.55-.68-1.72-1.31-2.25-.67Z"/>
          <path class="cls-11" d="M271.58,113.01c-.32-.45-1.11-.5-1.6-.46-2.89.22-5.78-.02-8.61-.65-.36-.08-1.2-.05-1.28.43-.09.51.78.72,1.1.79,3.23.71,6.54.91,9.84.66.42-.03.85-.35.55-.77Z"/>
          <path class="cls-11" d="M270.99,123.31c-1.17-.91-2.69-1.13-4.11-1.32-1.56-.2-3.12-.29-4.69-.28-.36,0-1.07.11-.94.62.12.48,1.01.65,1.4.65,1.2-.01,2.4.03,3.59.17.97.11,2.14.14,2.94.77.43.33,1.18.44,1.69.25.47-.18.52-.55.13-.86Z"/>
          <path class="cls-11" d="M270.37,125.71c-2.06-.82-4.36-1.05-6.55-.68-.35.06-1.05.23-.86.73.17.45,1.09.54,1.47.47,1.62-.28,3.17-.11,4.69.5.45.18,1.28.19,1.65-.17.4-.39-.04-.71-.41-.85Z"/>
          <path class="cls-11" d="M270.71,127.86c-2.16.04-4.31-.2-6.4-.76-.49-.13-1.25-.21-1.65.17-.38.36,0,.75.41.85,2.49.67,5.04,1.01,7.61.97.37,0,1.19-.06,1.22-.58.03-.49-.86-.66-1.19-.65Z"/>
          <path class="cls-11" d="M271.01,130.05c-2.46-.13-4.92-.26-7.38-.39-.37-.02-1.2.08-1.22.58-.03.51.86.63,1.19.65,2.46.13,4.92.26,7.38.39.37.02,1.19-.08,1.22-.58.03-.51-.86-.63-1.19-.65Z"/>
          <path class="cls-11" d="M271.57,132.04c-2.77-.17-5.55-.15-8.33.04-.36.02-1.05.25-.86.73.18.48,1.08.5,1.47.47,2.56-.17,5.12-.17,7.68-.01.37.02,1.2-.08,1.22-.58.03-.51-.86-.63-1.19-.65Z"/>
          <path class="cls-11" d="M271.74,134.88c-1.04-.65-2.49-.49-3.67-.52-1.36-.04-2.72-.07-4.08-.11-.37,0-1.19.07-1.22.58-.03.5.86.64,1.19.65,1.12.03,2.24.06,3.36.09.56.02,1.12.03,1.68.05.37,0,.84-.03,1.01.08.46.28,1.23.29,1.7.05.45-.23.45-.61.02-.87Z"/>
          <path class="cls-11" d="M272.5,136.88c-2.68-.3-5.38-.44-8.07-.39-.37,0-1.19.06-1.22.58-.03.49.86.66,1.19.65,2.48-.05,4.97.04,7.44.32.43.05,1.26.09,1.5-.39.23-.46-.49-.74-.82-.78Z"/>
          <path class="cls-11" d="M272.04,139.38c-.36-.4-1.18-.39-1.64-.27-1.62.4-3.31.41-4.93-.02-.49-.13-1.25-.21-1.65.17-.38.36,0,.75.41.85,2.42.65,4.92.7,7.37.09.4-.1.81-.44.46-.83Z"/>
          <path class="cls-11" d="M271.24,142.18c-.19-.49-1.07-.49-1.47-.47-1.93.08-3.85-.06-5.75-.37-.42-.07-1.27-.08-1.5.39-.23.47.49.73.82.78,2.33.38,4.67.51,7.03.41.36-.01,1.04-.26.87-.73Z"/>
          <path class="cls-11" d="M270.61,144.01c-2.42-.34-4.85-.41-7.29-.21-.36.03-1.05.25-.86.73.18.48,1.08.51,1.47.47,2-.16,4.02-.11,6.01.17.42.06,1.26.08,1.5-.39.23-.47-.49-.74-.82-.78Z"/>
          <path class="cls-11" d="M271.07,146.6c-2.5.04-5.01-.01-7.51-.15-.37-.02-1.19.08-1.22.58-.03.51.86.63,1.19.65,2.5.14,5.01.19,7.51.15.37,0,1.19-.06,1.22-.58.03-.49-.87-.66-1.19-.65Z"/>
          <path class="cls-11" d="M272.51,149.52c-.18-.47-1.08-.51-1.47-.47-2.19.22-4.38.26-6.58.15-.37-.02-1.19.08-1.22.58-.03.51.86.63,1.19.65,2.41.12,4.82.06,7.22-.18.36-.03,1.05-.24.86-.73Z"/>
          <path class="cls-11" d="M272.6,151.78c-.18-.48-1.08-.51-1.47-.47-1.98.18-3.95.36-5.93.54-.36.03-1.05.25-.86.73.18.48,1.08.51,1.47.47,1.98-.18,3.95-.36,5.93-.54.36-.03,1.05-.25.86-.73Z"/>
          <path class="cls-11" d="M270.84,154.67c-.4-1.04-2-.89-2.88-.86-1.31.05-2.63.09-3.94.14-.37.01-1.19.06-1.22.58-.03.49.86.66,1.19.65.92-.03,1.83-.06,2.75-.09.44-.01.88-.03,1.31-.05.15,0,.36.02.53.01.49.61,2.59.45,2.26-.38Z"/>
        </g>
        <g>
          <path class="cls-9" d="M264.03,155.69c-1.68,1.53-4.08,1.9-6.32,2.21-.56.08-1.12.15-1.67.23-.17.02-.34.05-.5.07-1.13.16-2.26.31-3.39.46-.46.06-.91.12-1.37.19-.58.08-1.16.16-1.74.24l-1.83.25c-7.53,1.03-15.06,2.05-22.6,3.06-.48.07-.96.13-1.45.19-.38.05-.75.1-1.13.15-.54.07-1.09.15-1.63.22-8.56,1.14-17.13,2.27-25.7,3.38-.58.08-1.16.15-1.74.22-3.08.4-6.16.79-9.24,1.18-.45.06-.9.11-1.35.17-6.47.81-12.94,1.61-19.41,2.39-.46.06-.93.11-1.39.17-.2.02-.4.05-.59.07-.48.06-.95.12-1.43.17-.08,0-.17.02-.25.03-10.75,1.28-21.56,2.51-32.38,2.58-.77,0-1.54,0-2.3,0-1.95-.02-3.89-.07-5.83-.17-5.13-.27-10.23-.86-15.31-1.63-.46-.07-.92-.14-1.38-.21-5.85-.93-11.66-2.09-17.45-3.28-2.33-.48-4.76-1.01-6.58-2.55-.16-.13-.31-.27-.45-.41-.29-.29-.56-.6-.81-.92-.85-1.11-1.46-2.42-2.02-3.72-3.83-8.88-5.81-18.41-7.47-27.97-.09-.53-.18-1.05-.27-1.58-.23-1.34-.45-2.68-.67-4.02-1.28-7.72-2.57-15.43-3.76-23.16-.08-.53-.16-1.06-.24-1.59-.94-6.13-1.81-12.26-2.58-18.41-.09-.68-.17-1.37-.25-2.05-.22-1.85-.44-3.7-.64-5.55-.06-.56-.12-1.13-.18-1.69-.16-1.53-.32-3.06-.46-4.6-.29-3.07-.54-6.23.35-9.18.98-3.28,3.27-6.01,5.71-8.43.78-.78,1.58-1.52,2.39-2.24.31-.27.62-.54.93-.81,4.65-3.93,9.7-6.86,15.11-9.24.38-.17.76-.33,1.15-.49,1.7-.72,3.44-1.39,5.21-2.01.38-.14.77-.27,1.15-.4.35-.12.7-.24,1.05-.35,1.24-.41,2.5-.81,3.77-1.2,4.67-1.41,9.4-2.53,14.16-3.53.44-.09.88-.18,1.32-.27,3.8-.78,7.62-1.49,11.43-2.23.6-.12,1.21-.23,1.81-.35,5.5-1.08,10.98-2.25,16.39-3.77.4-.11.81-.23,1.21-.35.51-.15,1.02-.3,1.54-.46,5.96-1.83,11.79-4.15,17.61-6.5.81-.33,1.62-.66,2.44-.99,1.76-.71,3.51-1.42,5.27-2.11.38-.15.76-.3,1.15-.45,7.02-2.73,14.11-5.19,21.45-6.56.18-.03.36-.07.54-.1.43-.08.87-.15,1.3-.22,1.85-.3,3.71-.54,5.57-.71.56-.05,1.12-.1,1.68-.14,6.62-.5,13.28-.3,19.95.18.53.04,1.06.08,1.59.12,1.66.13,3.33.28,4.99.44.45.04.9.09,1.34.13,1.99.19,3.97.4,5.95.6,6.01.62,9.64,1.33,12.44,7.3.19.42.39.83.57,1.25.19.44.39.87.57,1.31,3.68,8.63,5.85,17.81,7.43,27.12.09.56.19,1.12.28,1.68.48,2.96.91,5.94,1.31,8.91.12.88.24,1.75.35,2.63.15,1.12.29,2.24.44,3.36.67,5.14,1.34,10.27,2.01,15.41.08.62.16,1.24.24,1.85.71,5.41,1.42,10.82,2.12,16.23.11.82.22,1.65.32,2.47.23,1.73.46,3.47.68,5.2.08.58.15,1.17.23,1.75,1.16,8.85,2.32,17.71,3.47,26.56.04.34.09.68.13,1.02.03.23.06.46.09.69,0,.08.02.16.03.23.08.63.17,1.26.25,1.9.12.92.25,2.03.36,3.26.06.69.12,1.42.16,2.18.31,5.51-.03,12.29-3.23,15.19Z"/>
          <path class="cls-11" d="M267.1,138.33c-.03-.34-.82-1.05-1.04-1.34-.34-.44-.68-.87-1.02-1.3-.04-.05-.08-.1-.12-.15.52-.79,1.05-1.58,1.58-2.36,0-.08-.02-.16-.03-.23-.03-.23-.06-.46-.09-.69-.04-.34-.09-.68-.13-1.02-.74,1.07-1.46,2.15-2.18,3.23-1.66-2.11-3.25-4.27-4.97-6.34-2.08-2.51-4.22-4.97-6.34-7.44-.25-.29-.49-.57-.74-.86,3.56-5.06,7.14-10.12,10.76-15.15-.08-.58-.15-1.17-.23-1.75-3.81,5.29-7.6,10.63-11.34,15.96-3.49-4.01-7.07-7.98-10.64-11.88,4.76-6.69,9.25-13.24,13.5-19.7,2.68,3.51,5.28,6.98,7.8,10.41-.11-.82-.21-1.65-.32-2.47-2.2-2.98-4.46-5.98-6.78-9.01,1.59-2.42,3.14-4.83,4.66-7.22-.08-.62-.16-1.24-.24-1.85-1.71,2.71-3.43,5.4-5.18,8.07-4.27-5.56-8.75-11.21-13.45-16.99.08-.13.17-.25.25-.38,3.61-5.47,7.26-11.01,11.06-16.48,1.63,2.33,3.25,4.67,4.86,7.01-.12-.88-.23-1.75-.35-2.63-1.25-1.81-2.51-3.62-3.77-5.43.81-1.16,1.63-2.32,2.46-3.48-.09-.56-.19-1.12-.28-1.68-.98,1.36-1.96,2.73-2.92,4.1-4.11-5.89-8.26-11.76-12.44-17.6.87-1.66,1.76-3.34,2.67-4.97,1.64-2.94,3.4-5.83,5.26-8.65-.19-.44-.38-.88-.57-1.31-2.04,3.05-3.96,6.18-5.74,9.37-.82,1.47-1.62,2.97-2.4,4.46-4.48-6.26-9-12.48-13.55-18.67.91-1.44,1.82-2.88,2.73-4.32-.45-.04-.9-.09-1.34-.13-.71,1.14-1.43,2.28-2.15,3.41-.94-1.28-1.89-2.56-2.84-3.84-.53-.04-1.06-.08-1.59-.12,1.25,1.68,2.49,3.37,3.73,5.05-4.27,6.67-8.67,13.26-13.18,19.77-5.12-6.44-10.1-13.02-14.79-19.78,1.42-1.75,2.85-3.49,4.29-5.23-.56.04-1.12.09-1.68.14-1.11,1.34-2.22,2.7-3.32,4.05-.76-1.11-1.51-2.22-2.25-3.34-.43.07-.87.14-1.3.22.91,1.37,1.83,2.74,2.76,4.1-4.89,6.02-9.71,12.11-14.47,18.24-3.47-5.22-6.9-10.45-10.28-15.68-.38.15-.76.3-1.15.45,3.5,5.41,7.04,10.83,10.65,16.23-6.07,7.83-12.04,15.73-17.94,23.63-3.08-4.13-6.04-8.34-8.85-12.64-1.53-2.34-3.03-4.73-4.51-7.12,5.11-6.02,10.24-12.02,15.38-17.99-.81.33-1.62.66-2.44.99-4.54,5.29-9.08,10.6-13.61,15.93-.56-.91-1.12-1.82-1.68-2.72-1.27-2.07-2.56-4.16-3.86-6.24-.4.12-.8.23-1.21.35,1.37,2.18,2.71,4.36,4.04,6.52.62,1.01,1.25,2.03,1.88,3.06-5.63,6.63-11.25,13.28-16.84,19.95-4.42-5.32-8.79-10.68-13.11-16.09,2.55-3.22,5.1-6.45,7.63-9.67-.6.12-1.21.24-1.81.35-2.19,2.78-4.39,5.57-6.59,8.35-1.62-2.03-3.23-4.07-4.84-6.12-.44.09-.88.18-1.32.27,1.78,2.28,3.58,4.55,5.38,6.82-5.2,6.56-10.43,13.1-15.7,19.6l-12.52-15.78c1.64-1.97,3.27-3.94,4.91-5.92-.35.12-.7.23-1.05.35-.39.13-.77.27-1.15.4-1.16,1.4-2.32,2.8-3.48,4.19l-1.73-2.18c-.38.16-.77.33-1.15.49l2.09,2.64c-4.25,5.13-8.48,10.26-12.7,15.41-.27-.54-.55-1.09-.82-1.62-1.2-2.39-2.41-4.8-3.68-7.18-.31.26-.63.53-.93.81,1.22,2.29,2.39,4.61,3.54,6.91.35.7.7,1.4,1.06,2.1-4.21,5.14-8.4,10.28-12.58,15.42.06.56.12,1.13.18,1.69,4.31-5.32,8.64-10.63,12.99-15.94,2.3,4.51,4.73,9.05,7.63,13.19,1.07,1.53,2.2,3.01,3.38,4.44-4.24,5.07-8.55,10.15-12.74,15.1-.99-1.04-1.97-2.07-2.95-3.1-2.35-2.46-4.78-5.01-7.13-7.55-.18-.2-.37-.4-.55-.6.08.68.17,1.37.25,2.05,2.17,2.33,4.39,4.67,6.55,6.93,1.01,1.06,2.02,2.12,3.04,3.19-2.33,2.75-4.67,5.52-7.01,8.29.08.53.16,1.06.24,1.59,2.54-3.02,5.08-6.01,7.61-9,4.54,4.8,9.07,9.76,13.13,14.98.12.16.25.32.37.48-2.04,2.53-4.08,5.06-6.11,7.58-1.16,1.44-2.32,2.89-3.48,4.33-2.35,2.92-4.7,5.86-7.08,8.8.09.53.18,1.05.27,1.58,2.6-3.22,5.18-6.43,7.75-9.62,1.16-1.44,2.32-2.89,3.48-4.33,1.97-2.45,3.95-4.9,5.93-7.36,5.41,7.18,10.16,14.98,14.76,22.54.37.6.74,1.22,1.11,1.83-7.65,9.69-15.47,19.26-23.54,28.62.25.33.52.64.81.92,6.39-7.41,12.91-15.27,19.6-23.65,1.27-1.59,2.54-3.19,3.8-4.79.55.9,1.11,1.81,1.66,2.71,3.59,5.83,7.3,11.6,11.12,17.3-3.86,4.86-7.76,9.76-11.71,14.67.46.07.92.15,1.38.21,3.72-4.63,7.39-9.25,11.04-13.83,3.42,5.09,6.93,10.12,10.52,15.09l-.42.54c.77,0,1.54,0,2.3,0-.13-.18-.26-.35-.38-.53l2.7-3.54c5.2-6.81,10.54-13.79,16.16-20.49.75,1.01,1.49,2.02,2.24,3.04,4.23,5.75,8.51,11.56,12.9,17.33-.41.54-.83,1.08-1.24,1.61.08-.01.17-.02.25-.03.48-.06.95-.11,1.43-.17.11-.14.22-.28.32-.42.09.12.18.23.27.35.46-.06.93-.11,1.39-.17-.3-.39-.6-.78-.9-1.17,3.69-4.77,7.39-9.46,11.11-14.06,2.67,3.64,5.31,7.3,7.89,10.98.44.62.87,1.24,1.3,1.86.45-.06.9-.11,1.35-.17-.56-.8-1.11-1.59-1.67-2.38-2.65-3.77-5.36-7.52-8.1-11.25.23-.28.46-.56.69-.85,5.39-6.64,10.98-13.3,16.38-19.75.93-1.11,1.87-2.23,2.81-3.35,5.01,5.55,10.05,11.12,15.09,16.69-5.3,6.66-10.63,13.23-15.95,19.72.58-.08,1.16-.15,1.74-.22,4.97-6.06,9.99-12.27,15.03-18.59,4.01,4.44,8.03,8.87,12.03,13.3-.45.64-.9,1.28-1.36,1.92.54-.07,1.09-.15,1.63-.22.19-.26.37-.53.55-.79.19.21.38.42.58.64.48-.06.96-.13,1.45-.19-.44-.48-.88-.97-1.31-1.45,4.58-6.51,9.1-13,13.59-19.46,1.86,2.19,3.7,4.39,5.5,6.61,2.3,2.84,4.56,5.72,6.79,8.63-.64.88-1.3,1.75-1.96,2.61l1.83-.25c.32-.42.64-.85.95-1.27.26.35.53.69.79,1.04.46-.06.91-.13,1.37-.19-.47-.62-.94-1.24-1.41-1.86,3.49-4.8,6.72-9.8,9.88-14.68,1.19-1.83,2.38-3.68,3.6-5.53,1.02,1.3,2.03,2.61,3.05,3.92-.04-.76-.1-1.5-.16-2.19ZM253.28,86.3c-4.41,6.7-8.93,13.3-13.55,19.8-1.29-1.41-2.58-2.82-3.86-4.21-3.45-3.75-6.97-7.58-10.45-11.46.84-1.17,1.68-2.33,2.51-3.51,4.08-5.78,8.06-11.78,11.91-17.63,4.7,5.78,9.17,11.44,13.44,17ZM129.66,99.05l7.75,9.77c2.39,3.01,4.79,6.03,7.19,9.07l-10.72,13.48c-4.76-6.19-9.66-12.31-14.78-18.22,3.54-4.7,7.06-9.41,10.56-14.11ZM118.29,112.23c-4.38-5.01-8.92-9.86-13.68-14.48-1.72-1.66-3.49-3.33-5.22-4.94,4.28-5.23,8.57-10.45,12.88-15.67l16.62,20.94c-3.5,4.72-7.03,9.44-10.59,14.15ZM138.35,108.07l-7.95-10.02c4.48-6.04,8.92-12.06,13.32-18.02.83-1.12,1.65-2.24,2.48-3.36,5.42,6.27,10.87,12.48,16.34,18.65-3.3,4.16-6.6,8.31-9.88,12.44l-7.29,9.16c-2.34-2.97-4.69-5.92-7.01-8.85ZM153.6,108.51c3.24-4.07,6.49-8.16,9.75-12.27,4.68,5.28,9.38,10.52,14.07,15.73-1.75,2.14-3.53,4.24-5.36,6.29-3.68,4.15-7.61,8.19-11.42,12.11-.87.89-1.74,1.79-2.61,2.69-3.95-5.1-7.93-10.16-11.89-15.17l7.46-9.39ZM164.11,95.28c4.64-5.86,9.27-11.75,13.89-17.69,4.58,5.22,9.27,10.35,13.99,15.39-4.45,5.99-9,12.13-13.8,18.04-4.69-5.21-9.39-10.46-14.08-15.75ZM178.75,76.62c5.57-7.18,11.1-14.44,16.54-21.77,4.19,5.8,8.5,11.51,12.94,17.12-5.44,6.49-10.55,13.35-15.52,20.03-4.71-5.04-9.39-10.16-13.97-15.38ZM209,72.92c2.78,3.49,5.61,6.94,8.51,10.32,2.08,2.44,4.21,4.86,6.36,7.27-4.68,6.44-9.58,12.76-14.58,18.98-1.1-1.16-2.2-2.31-3.29-3.46-4.14-4.34-8.3-8.72-12.45-13.14,4.94-6.66,10.03-13.5,15.44-19.97ZM209.79,71.98c.45-.54.9-1.07,1.36-1.6,1.86-2.15,3.8-4.31,5.67-6.39,3.2-3.55,6.47-7.18,9.5-11,.14.17.29.34.43.51,3.34,4,6.8,8.13,10.16,12.22.71.87,1.42,1.73,2.13,2.6-3.92,5.94-7.95,12.04-12.1,17.91-.78,1.1-1.56,2.19-2.35,3.28-2.08-2.33-4.15-4.69-6.17-7.05-2.94-3.44-5.82-6.94-8.64-10.48ZM224.69,91.43c3.42,3.82,6.89,7.58,10.28,11.28,1.34,1.45,2.68,2.92,4.04,4.4-4.6,6.46-9.3,12.82-14.05,19.1-4.91-5.36-9.88-10.63-14.83-15.83,4.98-6.21,9.88-12.52,14.56-18.94ZM238.77,32.87c4.14,5.8,8.26,11.62,12.33,17.46-3.89,5.6-7.64,11.27-11.33,16.87-.01.02-.03.04-.04.07-.63-.77-1.26-1.54-1.89-2.31-3.36-4.09-6.82-8.23-10.17-12.23-.2-.23-.39-.47-.59-.71,1.56-2.01,3.05-4.07,4.44-6.2,2.57-3.96,4.78-8.2,6.91-12.31.11-.21.22-.43.33-.65ZM224.36,13c4.57,6.22,9.12,12.48,13.62,18.78-.21.4-.41.8-.62,1.19-2.12,4.08-4.32,8.3-6.85,12.21-1.31,2.02-2.73,3.99-4.22,5.91-5.04-6.03-10.13-12.13-15.1-18.37,4.51-6.5,8.91-13.07,13.17-19.72ZM210.48,33.75c4.96,6.21,10.03,12.29,15.05,18.3-3.06,3.86-6.37,7.54-9.61,11.14-1.88,2.09-3.82,4.25-5.69,6.41-.41.47-.81.94-1.22,1.42-4.45-5.62-8.77-11.37-12.98-17.19,4.9-6.62,9.73-13.31,14.44-20.08ZM194.84,12.92c4.71,6.79,9.72,13.39,14.86,19.84-4.7,6.75-9.51,13.43-14.39,20.04-5.12-7.12-10.09-14.35-14.94-21.62,4.76-6.14,9.58-12.24,14.47-18.26ZM179.59,32.18c4.86,7.27,9.83,14.51,14.97,21.64-5.46,7.37-11.02,14.65-16.61,21.87-5.63-6.46-11.1-13.09-16.25-19.93,5.88-7.88,11.84-15.75,17.89-23.57ZM160.94,56.76c5.15,6.83,10.61,13.45,16.24,19.9-4.61,5.94-9.25,11.84-13.89,17.7-5.48-6.18-10.94-12.4-16.37-18.68,4.63-6.28,9.3-12.6,14.01-18.91ZM146.76,35.96c1.42,2.28,2.86,4.57,4.32,6.81,2.89,4.42,5.94,8.75,9.11,12.99-4.73,6.34-9.42,12.68-14.07,18.98-5.4-6.26-10.77-12.58-16.08-18.96,5.55-6.63,11.13-13.24,16.72-19.82ZM145.39,75.74c-.88,1.2-1.76,2.39-2.64,3.58-4.35,5.9-8.72,11.82-13.12,17.76l-16.58-20.89c5.38-6.5,10.78-12.99,16.2-19.47,5.33,6.4,10.71,12.74,16.14,19.02ZM115.38,39.71c4.32,5.4,8.68,10.75,13.09,16.06-5.42,6.47-10.81,12.95-16.18,19.44l-12.62-15.9c5.27-6.5,10.51-13.05,15.71-19.61ZM111.5,76.17c-4.35,5.26-8.68,10.53-13,15.81-4.81-4.49-9.74-9.09-14.03-14.18.61-.74,1.23-1.47,1.84-2.21,4.22-5.06,8.41-10.17,12.58-15.31l12.61,15.89ZM80.5,72.66c-2.95-4.22-5.43-8.89-7.78-13.52,4.27-5.21,8.56-10.42,12.87-15.62l12.53,15.79c-4.22,5.2-8.47,10.38-12.74,15.51-.56.68-1.13,1.35-1.7,2.03-1.11-1.36-2.18-2.75-3.18-4.19ZM84.29,108.94c-4.12-5.3-8.71-10.32-13.3-15.17,4.17-4.93,8.46-9.99,12.69-15.04,4.32,5.1,9.24,9.7,14.05,14.18-4.44,5.43-8.85,10.86-13.24,16.29-.07-.09-.13-.17-.2-.26ZM100.26,133.07c-4.67-7.67-9.49-15.59-15.01-22.88,4.44-5.49,8.9-10.97,13.37-16.45,1.71,1.6,3.46,3.23,5.15,4.87,4.8,4.65,9.37,9.55,13.78,14.6-5.39,7.13-10.86,14.25-16.41,21.3-.3-.48-.59-.96-.88-1.44ZM103.71,138.71c-.63-1.02-1.26-2.06-1.89-3.09,5.57-7.08,11.09-14.26,16.55-21.48,5.11,5.91,10,12.02,14.75,18.21l-18.52,23.3c-3.74-5.58-7.36-11.23-10.88-16.94ZM128.28,168.52l-2.49,3.25c-3.58-4.97-7.08-10-10.5-15.08l18.57-23.36c3.67,4.79,7.25,9.62,10.8,14.43-5.71,6.79-11.11,13.86-16.38,20.76ZM134.64,132.36l10.73-13.49c3.94,4.98,7.89,10.01,11.82,15.08-2.22,2.3-4.45,4.65-6.6,7.02-1.74,1.92-3.45,3.88-5.13,5.86-3.55-4.82-7.14-9.65-10.82-14.46ZM161.3,168.14c-4.32-5.67-8.53-11.39-12.69-17.05-.8-1.09-1.6-2.18-2.41-3.27,1.73-2.05,3.49-4.07,5.29-6.05,2.1-2.32,4.27-4.61,6.45-6.86,4.89,6.32,9.75,12.71,14.49,19.16-3.72,4.61-7.43,9.3-11.13,14.07ZM190.09,132.73c-5.41,6.45-11,13.12-16.4,19.76-.16.2-.33.4-.49.6-4.73-6.42-9.56-12.77-14.43-19.07.91-.94,1.83-1.88,2.73-2.81,3.81-3.92,7.76-7.98,11.46-12.15,1.79-2.02,3.55-4.09,5.27-6.19,4.94,5.49,9.87,10.95,14.78,16.37-.97,1.16-1.95,2.33-2.92,3.48ZM193.79,128.32c-4.91-5.43-9.85-10.89-14.79-16.39,4.81-5.92,9.37-12.06,13.82-18.06,4.1,4.38,8.22,8.7,12.3,12.99,1.13,1.19,2.27,2.38,3.4,3.58-4.87,6.05-9.83,12-14.74,17.88ZM209.67,145.89c-5.01-5.55-10.03-11.09-15.01-16.6-.02-.02-.04-.04-.05-.06,4.92-5.88,9.88-11.84,14.76-17.9,4.95,5.21,9.93,10.49,14.85,15.86-4.8,6.32-9.66,12.56-14.55,18.71ZM222.46,160.03c-3.99-4.41-7.99-8.82-11.98-13.24,4.86-6.12,9.72-12.37,14.55-18.72,3.74,4.1,7.44,8.26,11.04,12.47-4.5,6.46-9.03,12.97-13.61,19.49ZM236.78,139.52c-3.6-4.2-7.28-8.34-11.01-12.42,3.31-4.36,6.59-8.78,9.84-13.24,1.43-1.96,2.83-3.91,4.22-5.85,3.57,3.91,7.16,7.88,10.65,11.89-4.58,6.52-9.11,13.03-13.56,19.44-.04.06-.08.12-.13.18ZM259.52,141.41c-3.07,4.75-6.23,9.62-9.61,14.3-2.16-2.82-4.36-5.62-6.59-8.37-1.88-2.31-3.78-4.6-5.72-6.88.1-.15.2-.29.3-.44,4.4-6.33,8.87-12.75,13.39-19.19.18.21.36.42.54.63,2.14,2.5,4.26,5.03,6.35,7.58,1.75,2.14,3.48,4.3,5.19,6.46-1.3,1.97-2.58,3.95-3.85,5.91Z"/>
        </g>
      </g>
      <path class="cls-7" d="M209.97,89.05c-9.86,3.84-18.87,9.61-26.89,16.49-8.43,7.23-15.76,15.64-22.39,24.53-3.84,5.15-7.46,10.46-10.96,15.83-.14.21.56.31.7.1,6.17-9.47,12.7-18.75,20.18-27.25,7.08-8.04,15.03-15.38,24.03-21.24,4.95-3.22,10.2-5.99,15.71-8.14.44-.17-.11-.42-.36-.32Z"/>
      <g>
        <path class="cls-6" d="M245.15,122.96c.04-.67.05-1.35.06-2.01.34-28.46-3.26-56.23-15.42-82.3-.31-.66-.65-1.35-1.26-1.74-.66-.41-1.49-.39-2.26-.31-6.29.62-11.95,3.91-17.93,5.94-9.46,3.22-19.74,3.3-29.25,6.36-7.08,2.28-13.52,6.14-19.9,9.97-5.53,3.32-11.06,6.64-16.59,9.96-1.68,1.01-3.4,2.05-4.69,3.53-1.71,1.97-2.51,4.55-3.24,7.05-8.69,29.98-12.34,61.35-11.48,92.55.1,3.78,2.36,3.45,5.11,3.85,4.23.61,7.98,2.14,12.37,1.86,5.76-.36,11.29-2.11,17.2-2.48,7.89-.5,15.77-.99,23.66-1.49,8.15-.51,16.1-.73,24.27-.62,10.45.14,20.45-.12,30.62-2.99,2.79-.78,5.74-1.87,7.33-4.29,1.35-2.06,1.42-4.68,1.45-7.14.14-11.57.28-23.15-.03-34.71,0-.34-.02-.67-.03-1.01Z"/>
        <path class="cls-7" d="M233.41,61.53c-1.74-6.77-3.83-13.45-6.27-20-.08-.22-.8-.17-.7.1,2.43,6.52,4.51,13.16,6.24,19.9.07.27.78.22.72,0Z"/>
        <path class="cls-7" d="M239.43,91.46c-.26-6.45-1.52-12.85-3.7-18.93-.08-.22-.8-.17-.7.1,1.97,5.48,3.17,11.23,3.57,17.04.4,5.88-.11,11.7-1.18,17.49-1.09,5.92-2.5,11.76-3.37,17.72-.87,5.94-1.35,11.94-1.45,17.94-.12,6.78.26,13.57,1.12,20.3.03.26.75.24.72,0-1.53-11.99-1.52-24.17.05-36.15.78-6.01,2.11-11.9,3.28-17.85,1.15-5.83,1.89-11.7,1.65-17.65Z"/>
      </g>
      <g>
        <g>
          <path class="cls-5" d="M255.42,163.85c0,.12,0,.24-.02.37-.03.18-.08.37-.14.55-.11.31-.24.61-.37.89s-.25.52-.35.72c-.15.29-.3.56-.45.83-.08.16-.16.36-.3.42-.02,0-.05.01-.07.01-.03.02-.07.04-.11.05-.03,0-.06.02-.1.02l-1.13-4.12s.09.04.14.06c.17-.25.42-.47.72-.62.29-.16.64-.24.97-.23.03,0,.06,0,.09,0,.37-.02.76.09.96.41.13.19.16.43.15.66Z"/>
          <path class="cls-5" d="M256.69,181.22c.19.15.39.26.61.29.36.05.66-.15.86-.4.02-.02.03-.04.05-.06.42-.43.58-1.14.45-1.73.56-.21,1.06-.7,1.2-1.24,0-.02.02-.05.03-.07.11-.28.12-.6-.11-.88-.14-.17-.33-.3-.55-.39-.79-.43-2.02-.23-2.68-.09-.33.08-.65.17-.96.26-.18.05-.4.09-.49.22-.02.02-.03.05-.03.07-.03.03-.06.07-.07.1-.02.03-.04.08-.04.12-.02.02-.03.04-.04.07-.06.15.03.35.08.53.09.31.19.61.29.93.11.31.28.75.51,1.18.23.43.52.86.9,1.1Z"/>
        </g>
        <path class="cls-5" d="M220.06,192.42l-1-4.15s.02,0,.02,0c.02,0,.05-.02.07-.02.16-.02.32.13.48.22.27.17.55.34.83.53.4.27,1.02.74,1.44,1.3.06.08.12.17.16.25h0c.08.15.15.29.19.44.09.22.13.45.1.67-.05.36-.29.57-.58.69-.02,0-.05.02-.07.03-.46.25-1.11.25-1.64.04Z"/>
        <g>
          <path class="cls-9" d="M257.62,165.76c-.08.14-.2.25-.33.33-.13.09-.27.15-.42.18-.15.04-.3.05-.44.03-.15,0-.28-.05-.41-.12-.17-.08-.32-.22-.43-.39-.12-.17-.21-.36-.27-.57-.12-.42-.09-.9.27-1.26.17-.16.36-.26.58-.33.22-.06.46-.08.69-.04.23.04.46.12.65.26.09.07.18.14.25.23.07.09.13.19.18.29.23.54,0,1.04-.32,1.39Z"/>
          <path class="cls-6" d="M259.71,166.91c-.14.09-.29.13-.43.15-.15.02-.29.02-.42,0-.14-.02-.26-.06-.37-.12-.06-.03-.11-.06-.16-.1-.02-.02-.05-.04-.07-.07-.02-.02-.05-.04-.07-.07-.22-.27-.34-.69-.31-1.13.03-.43.21-.88.67-1.1.41-.2.96-.13,1.4.14.22.15.42.33.54.55.07.11.12.22.15.34.03.12.04.24.03.36-.02.3-.15.52-.33.69-.18.16-.41.27-.63.35Z"/>
          <path class="cls-9" d="M260.34,171.55c-.32-.05-.6-.16-.84-.31-.26-.15-.47-.32-.63-.52-.18-.19-.32-.38-.4-.59-.11-.19-.15-.41-.15-.64,0-.15,0-.31.05-.48.02-.09.04-.17.07-.26.02-.09.05-.17.08-.26.12-.36.31-.74.56-1.09.49-.7,1.22-1.28,2.26-1.11.12.02.23.05.35.08.11.04.22.09.33.15.21.12.43.27.62.44.2.17.35.39.51.62.14.23.29.47.37.73.17.52.26,1.06.17,1.55-.04.25-.1.48-.19.69-.09.21-.24.41-.39.58-.81.86-1.89.72-2.75.41Z"/>
          <path class="cls-6" d="M259.01,173.64c-.23-.24-.29-.59-.24-.92s.22-.64.44-.83c.16-.13.34-.21.54-.25.2-.04.42-.04.64,0,.43.08.84.33,1.02.78.04.1.07.21.08.32.01.11,0,.21,0,.32-.02.22-.1.42-.21.61-.22.36-.58.62-1.01.64-.56.04-1.01-.26-1.26-.67Z"/>
          <path class="cls-9" d="M257.76,176.02c-.25-.22-.34-.56-.31-.9,0-.09.02-.17.05-.25s.06-.18.1-.26c.04-.08.09-.17.14-.24.05-.07.11-.13.17-.19.34-.3.8-.36,1.22-.24s.79.43.95.86c.07.19.09.4.08.58,0,.09-.03.19-.05.27-.02.09-.06.17-.1.24-.02.04-.04.07-.07.12-.03.04-.06.08-.09.12-.06.08-.14.15-.22.21-.16.12-.35.21-.57.24-.55.09-1.03-.18-1.31-.57Z"/>
        </g>
        <path class="cls-9" d="M253.87,182c-.08-.15-.12-.3-.12-.46,0-.16.04-.31.09-.46.05-.15.14-.29.23-.4.1-.12.21-.22.34-.29.35-.19.8-.19,1.21-.03.41.16.76.49.85.96.04.21.02.43-.05.64-.07.21-.18.41-.34.57-.16.16-.34.3-.54.38-.21.08-.43.11-.65.07-.28-.04-.51-.18-.68-.36-.17-.18-.28-.4-.35-.63Z"/>
        <path class="cls-6" d="M251.86,183.59c-.05-.16-.06-.32-.02-.48.03-.16.1-.3.18-.44.08-.14.19-.26.31-.35.12-.1.25-.18.39-.22.19-.05.39-.06.6-.02.2.04.41.12.59.24.37.24.65.62.64,1.11,0,.44-.26.85-.62,1.12-.18.13-.39.22-.6.26-.22.04-.44.02-.64-.06-.53-.2-.78-.69-.82-1.16Z"/>
        <path class="cls-9" d="M247.15,185c.01-.68.4-1.23.91-1.64.25-.21.55-.35.84-.47s.6-.17.9-.15c.8.03,1.58.52,2.1,1.23.52.7.77,1.64.43,2.54-.16.4-.41.77-.74,1.05-.33.28-.73.5-1.15.62-.43.12-.87.15-1.3.08s-.83-.25-1.18-.53c-.88-.73-1.05-1.81-.82-2.74Z"/>
        <path class="cls-6" d="M244.6,186.07c.05-.33.29-.58.57-.74.29-.16.62-.23.91-.17.39.07.74.38.94.77.2.38.25.87.01,1.28-.11.19-.26.34-.44.46-.18.11-.4.19-.61.22-.43.05-.88-.07-1.17-.4-.38-.42-.39-.97-.21-1.41Z"/>
        <g>
          <path class="cls-9" d="M234.76,186.23c.14-.65,1.08-.96,1.68-.74.82.3,1.13,1.49.53,2.2-.54.64-1.57.64-2.08-.04-.33-.44-.34-.98-.13-1.42Z"/>
          <path class="cls-6" d="M232.07,186.51c.04-.33.28-.6.6-.76.16-.08.33-.14.51-.16.18-.02.35-.02.51.02.43.12.75.47.88.89.13.42.08.89-.18,1.27-.48.66-1.46.77-2.04.14-.37-.41-.44-.94-.27-1.4Z"/>
          <path class="cls-9" d="M227.15,187.44c-.03-1.19,1.43-2.14,2.58-2.02.78.07,1.45.6,1.81,1.28.37.69.44,1.55.08,2.3-.64,1.34-2.43,1.82-3.64.85-.77-.63-1.01-1.57-.83-2.41Z"/>
          <path class="cls-6" d="M224.3,188.57c-.03-.67.75-1.21,1.38-1.18.87.05,1.52,1.09,1.15,1.95-.33.77-1.34,1.09-2.03.56-.44-.34-.59-.86-.5-1.33Z"/>
          <path class="cls-9" d="M221.79,189.42c-.03-.66.73-1.21,1.36-1.19.86.03,1.54,1.05,1.19,1.92-.31.78-1.34,1.12-2.05.6-.45-.34-.58-.86-.5-1.33Z"/>
        </g>
        <g>
          <g>
            <path class="cls-5" d="M217.09,192.08c0-.12,0-.24.01-.37.02-.18.07-.37.13-.55.1-.31.24-.62.38-.89.14-.28.27-.52.38-.71.08-.14.16-.28.24-.42.08-.14.16-.27.24-.4.09-.16.17-.36.31-.41.02,0,.05-.01.07-.01.03-.02.07-.04.11-.04.03,0,.06-.01.09-.01l1,4.15s-.09-.04-.14-.06c-.19.24-.44.46-.74.6-.3.14-.63.22-.95.2-.03,0-.06,0-.09,0-.17,0-.35-.02-.51-.09-.16-.06-.3-.17-.39-.33-.12-.19-.16-.43-.15-.66Z"/>
            <path class="cls-5" d="M216.85,178.46c-.05-.23-.13-.45-.27-.62-.23-.28-.56-.33-.87-.27-.03,0-.05,0-.08.01-.57.04-1.18.45-1.5.98-.29-.11-.62-.14-.95-.1-.17.02-.33.06-.48.12-.16.06-.3.13-.43.23-.03.01-.05.03-.08.05-.3.18-.55.47-.54.85,0,.23.1.44.23.64.21.4.62.71,1.02.98.2.14.41.26.59.37.19.11.36.2.51.28.15.08.29.15.43.22.14.07.28.14.42.21.16.08.34.21.48.17.02,0,.05-.02.07-.03.04,0,.08,0,.12-.02.04,0,.07-.03.1-.06.02,0,.05,0,.07-.02.14-.07.2-.28.28-.44.14-.29.28-.58.41-.89.13-.31.3-.75.42-1.23.11-.48.16-.98.03-1.41Z"/>
          </g>
          <path class="cls-5" d="M235.91,171.47c-.09-.22-.21-.42-.37-.56-.27-.23-.58-.24-.84-.16-.02,0-.05.01-.07.02-.13.02-.25.07-.37.13-.12.06-.23.14-.34.23-.21.18-.38.42-.5.68-.53-.2-1.16-.2-1.58.09-.02,0-.04.02-.06.03-.25.12-.46.33-.49.69-.02.22.03.44.12.66.13.43.44.83.8,1.16.18.17.37.31.56.44.19.13.36.23.52.31.3.16.62.3.93.43.18.07.39.19.56.14.03,0,.06-.02.08-.04.05,0,.1-.02.14-.04.04-.01.09-.04.12-.07.03,0,.06-.02.08-.03.17-.09.23-.31.31-.49.14-.31.27-.62.37-.95.21-.65.44-1.87.03-2.68Z"/>
          <path class="cls-5" d="M252.39,163.58l1.13,4.12h-.03s-.05.02-.07.03c-.16.03-.33-.12-.5-.2-.28-.16-.57-.32-.85-.5-.41-.26-1.04-.73-1.45-1.28-.06-.08-.12-.16-.17-.25h0c-.08-.14-.15-.29-.19-.44-.09-.22-.14-.45-.11-.67.02-.18.09-.33.19-.44.1-.11.24-.2.38-.26.02-.01.05-.02.07-.03.45-.25,1.07-.27,1.6-.07Z"/>
          <g>
            <path class="cls-9" d="M214.85,190.22c.16-.29.45-.46.74-.54.3-.08.61-.05.85.07.17.09.32.21.44.38.12.16.22.36.28.57.12.42.09.9-.25,1.26-.3.32-.79.47-1.26.4-.47-.07-.9-.34-1.08-.75-.23-.53-.04-1.04.27-1.4Z"/>
            <path class="cls-6" d="M212.53,189.28c.24-.23.56-.31.86-.29.3.02.6.12.8.32.14.13.24.3.31.49.07.19.11.41.1.63,0,.43-.18.89-.61,1.13-.38.22-.9.21-1.32.01-.43-.2-.76-.58-.81-1.03-.07-.58.27-1,.67-1.26Z"/>
            <path class="cls-9" d="M211.63,185.82c.12.04.24.1.34.16.11.06.2.13.29.21.17.15.32.31.42.47.22.33.33.62.28.97-.07.47-.36,1.09-.81,1.61-.45.51-1.11.92-1.93.69-.36-.11-.71-.34-.99-.68-.14-.17-.26-.36-.36-.58-.1-.21-.18-.44-.22-.67-.02-.12-.04-.23-.05-.35,0-.12,0-.23,0-.34,0-.11.02-.22.03-.33.02-.11.05-.21.08-.31.03-.1.07-.2.11-.29.05-.09.1-.18.15-.26.11-.16.24-.3.4-.41.4-.28.8-.35,1.19-.3.38.05.75.21,1.07.4Z"/>
            <path class="cls-6" d="M210.89,183.36c.1.13.17.28.2.42.04.15.04.29.04.43-.02.28-.12.53-.3.7-.06.06-.13.11-.21.16-.08.05-.16.09-.25.12-.18.07-.39.12-.61.14-.43.04-.9-.06-1.18-.52-.25-.4-.23-.99,0-1.45.23-.47.67-.8,1.14-.82.29-.01.54.09.73.24.19.16.33.36.44.57Z"/>
            <path class="cls-9" d="M212.74,181.73c.05.16.05.32.02.47-.03.15-.09.3-.16.43-.08.13-.17.25-.28.34-.1.1-.23.17-.35.21-.09.03-.18.05-.27.06-.09,0-.19,0-.29,0-.2-.02-.41-.08-.61-.18-.19-.1-.38-.22-.52-.4-.14-.17-.23-.39-.25-.64-.03-.45.22-.92.6-1.22.38-.3.88-.41,1.3-.25.54.21.76.71.8,1.18Z"/>
          </g>
          <g>
            <path class="cls-9" d="M219.55,179.51c-.03.67-.86,1.13-1.47,1.05-.42-.06-.77-.36-.98-.74-.2-.39-.25-.86-.03-1.28.2-.38.57-.62.97-.7.4-.08.82.01,1.14.31.41.38.51.91.37,1.37Z"/>
            <path class="cls-6" d="M222.15,178.81c.01.33-.19.64-.48.85-.29.21-.67.32-.99.29-.88-.1-1.45-1.18-1.03-2.01.19-.37.53-.62.9-.71.37-.09.77-.02,1.1.25.43.34.59.86.5,1.33Z"/>
            <path class="cls-9" d="M226.83,177.43c.03.61-.34,1.16-.87,1.54-.53.38-1.21.58-1.79.52-1.59-.18-2.63-2.15-1.87-3.66.34-.68.96-1.12,1.63-1.28.67-.16,1.39-.03,1.99.45.77.62,1.08,1.56.9,2.42Z"/>
            <path class="cls-6" d="M229.43,175.63c0,.33-.18.63-.42.84-.24.21-.55.34-.83.34-.19,0-.38-.05-.57-.15-.18-.09-.36-.22-.5-.39-.29-.32-.47-.77-.33-1.25.13-.42.51-.77.93-.91.43-.15.89-.1,1.24.17.45.34.57.87.48,1.34Z"/>
            <path class="cls-9" d="M231.98,174.82c.02.33-.17.64-.44.86-.28.22-.65.35-.96.33-.43-.03-.8-.31-1.03-.68s-.3-.85-.1-1.28c.17-.39.52-.65.88-.75.36-.1.78-.06,1.13.2.44.33.6.85.52,1.32Z"/>
          </g>
          <g>
            <path class="cls-9" d="M238.66,171.99c.06.33-.09.65-.34.9-.24.24-.58.41-.9.44-.43.03-.84-.19-1.11-.54s-.4-.81-.27-1.25c.23-.81,1.2-1.24,1.95-.81.48.28.69.78.66,1.26Z"/>
            <path class="cls-6" d="M241.06,170.84c.12.66-.58,1.29-1.21,1.35-.86.07-1.66-.86-1.42-1.76.22-.81,1.19-1.27,1.95-.84.49.28.69.78.67,1.26Z"/>
            <path class="cls-9" d="M245.84,168.88c.22,1.3-1.15,2.56-2.38,2.66-1.69.15-3.3-1.68-2.82-3.48.42-1.61,2.39-2.54,3.89-1.68.96.55,1.37,1.55,1.31,2.5Z"/>
            <path class="cls-6" d="M248.27,167.53c.04.33-.12.65-.37.88-.12.12-.27.21-.42.28-.15.07-.31.11-.47.12-.84.04-1.63-.91-1.36-1.81.13-.4.44-.72.83-.87.39-.15.83-.13,1.2.1.47.3.64.82.58,1.3Z"/>
            <path class="cls-9" d="M250.74,166.6c.04.67-.69,1.21-1.3,1.21-.83,0-1.6-.97-1.28-1.87.14-.4.48-.7.87-.83.39-.13.84-.09,1.2.16.46.33.6.85.52,1.32Z"/>
          </g>
        </g>
        <path class="cls-1" d="M258.64,180.82c-.56-1.43-1.41-2.78-2.47-3.95-1.55-1.71-4.11-3.1-6.16-2.05-1.64.83-3.06,2.12-3.76,3.82-.29.69-.44,1.41-.45,2.15-.73.08-1.43.29-2.1.63-1.63.85-2.8,2.37-3.49,4.08-.86,2.13.74,4.56,2.57,5.96,1.25.96,2.67,1.68,4.14,2.12,3.41,1.01,6.9.47,10.21-.17.59-.12,1.28-.34,1.54-.81.45-.3.61-1,.68-1.6.35-3.35.59-6.87-.71-10.18ZM256.74,189.36c-.03.26-.08.54-.2.76-.06.12-.15.22-.25.29-.17.31-.62.46-1.01.54-2.18.42-4.48.78-6.73.11-.97-.29-1.91-.77-2.73-1.4-1.21-.92-2.27-2.53-1.7-3.93.41-1.02,1.09-1.95,2.01-2.52.09-.06.19-.11.29-.16.44-.23.9-.37,1.38-.42,0-.49.11-.96.3-1.42.47-1.12,1.4-1.97,2.48-2.52,1.35-.69,3.04.23,4.07,1.35.7.77,1.25,1.66,1.63,2.6.86,2.18.7,4.51.46,6.72Z"/>
        <path class="cls-5" d="M237.07,187.81c-.01.24.02.47.11.67.15.32.42.46.71.49.02,0,.05,0,.07,0,.51.12,1.13-.08,1.57-.47.42.4,1.05.62,1.6.51.03,0,.05,0,.08,0,.3-.03.6-.16.75-.49.09-.2.12-.43.1-.67.02-.45-.16-.93-.39-1.36-.23-.43-.51-.81-.73-1.08-.22-.26-.44-.5-.68-.74-.13-.14-.27-.32-.44-.34-.03,0-.06,0-.08,0-.04-.01-.09-.02-.13-.02-.04,0-.09,0-.14.01-.03,0-.06,0-.08,0-.18.02-.32.19-.46.33-.24.23-.49.46-.71.72-.46.51-1.18,1.53-1.13,2.43Z"/>
        <path class="cls-9" d="M241.99,186.22c.09-.32.34-.56.65-.69.31-.14.66-.16.95-.07.19.06.37.18.51.34.14.16.26.34.33.54.15.41.13.89-.16,1.28-.26.34-.68.53-1.1.54-.42,0-.84-.17-1.1-.52-.33-.45-.3-.99-.08-1.42Z"/>
      </g>
      <g>
        <g>
          <path class="cls-1" d="M173.96,182.12v-.08s-.55-3.06-.55-3.06v-.08s-39.53,5.93-39.53,5.93c-.62.09-1.04.68-.93,1.3h0l.54,3.06h0c.11.62.71,1.02,1.32.9l39.16-7.97Z"/>
          <path class="cls-1" d="M169.34,185.12c-1.6.28-3.19-1.16-3.55-3.23-.36-2.06.63-3.96,2.23-4.25,1.6-.28,3.19,1.16,3.55,3.23.37,2.06-.63,3.97-2.23,4.25Z"/>
          <path class="cls-1" d="M195.09,180.58c-1.6.28-3.19-1.16-3.55-3.23-.36-2.06.63-3.96,2.23-4.25,1.6-.28,3.19,1.16,3.55,3.23.36,2.06-.63,3.96-2.23,4.25Z"/>
          <path class="cls-9" d="M183.49,189.56c-5.78,1.02-11.29-2.83-12.31-8.61-1.02-5.78,2.83-11.29,8.61-12.31,5.78-1.02,11.29,2.83,12.31,8.61,1.02,5.78-2.83,11.29-8.61,12.31Z"/>
        </g>
        <g>
          <path class="cls-6" d="M188.57,172.09c-2.17-2.49-5.62-2.98-8.74-2.51-.54.08.08.46.39.41,2.76-.42,5.69.06,7.6,2.24.18.2,1,.14.75-.15Z"/>
          <path class="cls-6" d="M190.34,181.12c-.12,1.34-1.03,2.3-1.93,3.2-.19.2.59.4.8.19.93-.94,1.85-1.94,1.97-3.32.03-.3-.81-.38-.84-.08Z"/>
        </g>
      </g>
      <g>
        <path class="cls-5" d="M178.14,59.94c-4.66,2.07-8.72,5.3-12.28,8.93-2.1,2.14-4.05,4.42-5.94,6.75-1.98,2.45-8.01,6.2-4.68,9.86.93,1.02,2.29,1.53,3.62,1.89,9.27,2.5,19.33-.79,27.08-6.45,3.55-2.59,6.87-5.86,8.2-10.05,1.33-4.19.13-9.43-3.66-11.65-3.02-1.77-6.86-1.29-10.17-.14-.74.26-1.46.54-2.17.86Z"/>
        <path class="cls-4" d="M199.74,71.48c1.43,10.77-3.09,21.47-8.87,30.68-6.45,10.27-14.54,19.42-22.97,28.15-9.63,9.97-20.36,19.83-33.78,23.32-1.96.51-3.99.88-5.99.63-1.89-.23-3.68-1-5.35-1.91-5.37-2.92-9.86-7.43-12.75-12.82-.74-1.39-1.4-2.91-1.27-4.48.18-2.15,1.76-3.88,3.2-5.48,10.03-11.16,17.12-24.61,23.69-38.1,2.05-4.2,4.16-8.57,7.8-11.5,5.01-4.04,11.86-4.59,18.08-6.22,7.64-2,13.75-6.23,20.31-10.44,1.4-.9,2.81-1.8,4.38-2.34,2.86-.97,6.38-.21,8.84,1.45,3.08,2.08,4.22,5.53,4.69,9.07Z"/>
        <path class="cls-5" d="M163.12,137.18c-1.78-2.94-4.63-5.05-7.4-7.09-5.62-4.13-10-5.89-16.85-5.2-7.69.77-15.65.2-23.34-.28-6.95-.44-13.93-.56-20.9-.82-5.66-.21-12.36.42-17.71-1.84-5.43-2.3-10.77-5.56-16.13-8.15-11.29-5.43-22.64-10.71-34.07-15.85-4.43-1.99-8.95-3.98-13.77-4.53-3.96-.45-8.92-.26-12.96,1.38v94.41c6.98-1.06,14.03-2.06,21.02-3.21,2.23-.37,4.46-.73,6.71-.78,5.95-.12,11.61-1.33,17.56-1.55,6.24-.23,12.48.21,18.68.84,3.26.33,6.54.72,9.81.45,3.75-.31,7.55-2.36,11.24-3.33,4.29-1.12,8.66-1.96,13.06-2.52,7.94-1,15.68-.75,23.63-.24,3.03.19,5.98-.28,9.07-.08,4.08.27,8.16.53,12.25.65,2.73.08,5.52.09,8.14-.7,5.08-1.53,6.9-6.19,8.95-10.64,2.42-5.26,4.08-10.88,4.87-16.62.67-4.86.66-10.12-1.88-14.31Z"/>
        <g>
          <g>
            <path class="cls-4" d="M202.63,57.6c-.09,3.81-.33,7.64-1.21,11.34-.37,1.57-.91,3.18-2.1,4.26-.68.62-1.5.99-2.35,1.26-.97.3-2.01.46-2.99.68-.81.18-1.6.64-2.38.79-.95.19-1.97-.13-2.94.01-1.24.19-2.49.3-3.74.27-2.38-.05-4.77-.6-6.8-1.89-.68-.43-1.37-1.07-1.33-1.87.04-.78.75-1.32,1.27-1.89.62-.67,1.03-1.5,1.39-2.34.28-.67.53-1.35.73-2.05.69-2.34.94-4.81.78-7.25-.1-1.54-.57-2.77.07-4.22.08-.18.17-.37.27-.54.58-1.09,1.39-2.05,2.38-2.8,1.34-1.01,2.95-1.59,4.55-2.08,1.98-.6,4-1.08,6.04-1.44,1.39-.24,2.86-.42,4.2.04,1.79.61,3.05,2.29,3.64,4.09.58,1.8.58,3.73.53,5.62Z"/>
            <path class="cls-3" d="M190.73,56.02c-.12-.9-.87-1.62-1.71-1.97-1.35-.56-3.35-.53-4.81-.62-1.05-.06-2.04.2-2.9.73-.1.18-.19.36-.27.54-.64,1.45-.17,2.69-.07,4.22.16,2.44-.09,4.91-.78,7.25.02,0,.04,0,.05,0-.55,1.28-1.35,2.48-2.14,3.63-.15.22.58.32.73.1.82-1.19,1.64-2.43,2.2-3.76.86-.09,1.7-.39,2.46-.81,1.19-.66,2.2-1.6,3.16-2.57,1.45-1.47,2.82-3.07,3.69-4.95.26-.56.47-1.19.39-1.8Z"/>
          </g>
          <path class="cls-4" d="M165.58,19.9c-2.97,7.22,4.09,15.1-1.35,19.94-1.28,1.68-3.38,3.61-3.05,5.87.29,1.07,1.37,1.68,2.34,2.2,1.94,1.04,2.69,3.74,3.1,5.76.9,4.41,1.38,8.96,6.61,10.07,5.12,1.09,10.66-1.58,14.6-4.59,1.72-1.32,3.26-2.87,4.57-4.6,1.17-1.55,2.58-3.57,3.01-5.5.54-2.37,2.8-2.66,4.94-2.4,1.88.11,4.68.01,6.04-1.48,1.54-1.68,2.34-3.88,3.11-6.02.71-1.96,1.41-3.93,1.94-5.95.58-2.21.3-4.18-.25-6.37-1.58-6.23-2.96-12.88-8.76-16.59-12.31-9.4-32.16-6.19-36.85,9.65Z"/>
          <g>
            <path class="cls-2" d="M177.14,31.02c-.9-2.13-4.28-2.88-6.4-2.69-1.4-.18-4.43,1.97-1.65,2.46,2.7-.59,5.42-1.23,8.05.23Z"/>
            <path class="cls-12" d="M170.2,36.74c-.08-.88.53-1.75,1.5-1.77,1.35-.06,1.96,1.94,1.97,2.96.41,1.13-.78,2.03-1.85,1.66-1.06-.41-1.6-1.78-1.61-2.85Z"/>
          </g>
          <path class="cls-6" d="M176.5,50.99c.16-.26.28-.54.31-.84.05-.41-.11-.87-.47-1.07-.48-.27-1.07.01-1.56.26-1.25.63-2.59,1.07-3.97,1.3-.49.08-1.08.2-1.14.76-.05.47.24,1.03.38,1.47.06.2.13.39.26.55.28.34.77.44,1.21.42,1.17-.03,2.25-.63,3.22-1.29.6-.4,1.34-.92,1.76-1.57Z"/>
        </g>
        <path class="cls-5" d="M190.05,70.29c-5.31,6.36-10.15,12.87-16.09,18.77-2.14,2.13-4.35,4.2-6.83,5.93-9.66,6.72-22.41,7.32-34,5.24-.63-.11-1.28-.23-1.89-.04-.88.27-1.45,1.11-1.92,1.9-3.45,5.73-6,12-7.54,18.5-.76,3.23.56,7.12,1.24,10.34.88,4.21,2.05,8.38,3.96,12.25,1.11,2.24,2.88,4.05,4.03,6.21,1.14,2.13,1.58,4.03,3.54,5.74,2.59,2.32,4.88,4.84,7.01,7.55,2.21,2.81,5.23,4.73,8.08,6.88.87.66,1.77,1.33,2.81,1.66,2.07.65,4.38-.19,6.03-1.6,1.66-1.4,2.8-3.3,3.97-5.13,5.57-8.73,12.25-16.76,19.83-23.83,4.95-4.61,9.71-8.98,13.72-14.45,3.63-4.95,7.7-9.57,12.15-13.8,1.1-1.05,1.87-2.09,2.58-3.41,6.13-11.33,11.53-25.01,8.39-38.01-1.06-4.38-3.25-8.6-6.73-11.46-2.5-2.05-5.69-3.34-8.94-3.4-1.34-.03-2.73-.01-3.71.92-1.11,1.06-2.03,2.72-2.83,4.03-1.96,3.21-4.41,6.23-6.88,9.2Z"/>
        <g>
          <g>
            <path class="cls-4" d="M120.19,80c-2.62-3.94-3.55-8.76-2.28-13.33.59-2.13,1.69-4.12,3.16-5.77,2.87-3.24,6.97-5.21,11.19-6.15,2.13-.47,4.33-.7,6.49-.42,2.16.28,4.29,1.08,5.94,2.5,1.4,1.2,2.41,2.78,3.39,4.34.64,1.02,1.17,1.95,1.32,3.14.16,1.2,0,2.41-.31,3.57,0,.04-.02.07-.03.11-.44,1.62-1.14,3.17-1.59,4.79-.21.76-.37,1.55-.31,2.33.11,1.37,1.36,2.22,1.5,3.52.07.67-.31,1.33-.83,1.76-.58.49-1.34.59-1.96,1-.04.03-.08.05-.11.1-.03.05-.03.1-.03.15-.04,1.28,0,2.6-.42,3.84-.49,1.42-1.55,2.58-2.77,3.46-1.81,1.3-4,2.03-6.22,2.17-1.1.07-2.21,0-3.29-.21-1.06-.21-2.14-.39-3.1-.9-.91-.49-1.67-1.23-2.42-1.95-2.62-2.52-5.33-5.01-7.35-8.04Z"/>
            <path class="cls-2" d="M143.93,62.75c-.27-.05-.55-.09-.83-.13-3.08-.4-6.49.08-8.82,2.29-2.2,2.09-3.06,3.82-6.35,3.44-.73-.09-1.49-.27-2.2-.04-.78.26-1.33,1-1.6,1.78-.31.89-.28,1.85-.54,2.74-.28.98-.39,1.99-.56,3-.18,1.03-.46,2.08-1.05,2.94-.59.86-2.21,2.11-3.33,1.42-2.7-1.67-4.6-5.86-5.44-8.77-1.77-6.09.3-12.64,4.88-16.93,5.07-4.75,12.76-6.12,19.33-4.28,2.78.78,5.53,1.78,7.92,3.4,1.9,1.29,3.17,3.73,5.49,4.16.71.13,1.54.44,1.69,1.14.13.61-.32,1.18-.74,1.64.42.01.85.03,1.23.21s.69.57.65.99c-.03.24-.16.45-.31.63-.99,1.18-2.71,1.4-4.25,1.28-1.75-.14-3.45-.61-5.18-.91Z"/>
            <g>
              <path class="cls-3" d="M149.05,78.67c-.06-.54-.31-1.03-.57-1.5-.08-.15-.55-.09-.47.07.23.44.48.89.54,1.39.06.48-.06.93-.39,1.29-.36.38-.8.67-1.26.91-.43.22-1.03.34-1.38.67-.07.07-.12.18-.1.27.58-.16,1.18-.46,1.71-.72.54-.26,1.07-.59,1.47-1.05.33-.38.49-.83.43-1.33Z"/>
              <path class="cls-3" d="M145.83,82.89c-.05-1.37-.4-2.77-1.34-3.81-.1-.11-.57-.04-.42.12.81.89,1.15,2.09,1.25,3.26.05.61.04,1.22,0,1.83-.03.37-.07.73-.17,1.09-.09.32-.23.63-.4.93-.66,1.16-1.56,2.21-2.71,2.88-.61.36-1.25.67-1.89.97-.64.3-1.29.56-1.97.73-1.53.38-3.13.34-4.67.03-.08-.02-.25,0-.3.09-.05.1.11.14.17.15,1.45.3,2.96.35,4.42.08,1.47-.27,2.79-.92,4.1-1.61.64-.33,1.24-.71,1.76-1.22.48-.46.89-.99,1.26-1.55.39-.58.69-1.23.85-1.91.16-.67.1-1.38.07-2.06Z"/>
            </g>
            <path class="cls-12" d="M143.81,73.3c-.08-.04-.17-.08-.28-.11-.4-.1-.84.05-1.17.26-.34.22-.59.56-.72.95-.14.43-.27,1.09.16,1.4.38.27.87.2,1.25-.03.19-.09.37-.21.53-.35.54-.49,1-1.7.23-2.13Z"/>
            <path class="cls-4" d="M127.33,68.04c-.08-.07-.17-.14-.26-.2-.67-.48-1.47-.41-2.23-.13-1.19.44-1.93,1.17-2.16,2.41-.34,1.81.2,3.7,1.18,5.25.37.58.81,1.14,1.4,1.49.59.35,1.36.46,1.97.15.85-.44,1.14-1.5,1.29-2.44.26-1.56.36-3.33-.12-4.86-.2-.66-.56-1.22-1.08-1.66Z"/>
            <path class="cls-2" d="M146.54,69.72c-.08-.32-.33-.59-.66-.77-.78-.43-1.87-.35-2.75-.23-1.04.14-2.04.45-2.93.92-.07.04-.1.09-.06.13-.03.02-.05.06-.03.1.05.09.26.1.35.09.93-.11,1.88-.18,2.82-.14.45.02.9.08,1.33.17.22.05.44.1.65.17.22.07.44.19.68.22.19.02.43,0,.54-.16.1-.14.09-.33.05-.48Z"/>
            <g>
              <path class="cls-1" d="M116.17,58.45c-1.57,2.33-2.37,5.16-2.27,7.97.03.8.13,1.59.3,2.37.04.18.52.15.48,0-.61-2.74-.32-5.66.81-8.23.31-.72.69-1.4,1.13-2.05.1-.14-.37-.2-.46-.07Z"/>
              <path class="cls-1" d="M116.7,61.85c-.79,1.26-1.07,2.82-.78,4.28.04.18.51.15.48,0-.29-1.44-.01-2.96.76-4.21.09-.15-.38-.21-.46-.07Z"/>
              <path class="cls-1" d="M138.45,51.63c-1.98-.86-4.18-1.18-6.33-.9-.07,0-.21.06-.17.15.04.09.22.1.3.09,1.99-.25,4.03.04,5.86.84.1.04.24.06.34,0,.08-.04.1-.13,0-.17Z"/>
              <path class="cls-1" d="M147.88,61.94c-1.76.03-3.64.05-5.21-.86-.09-.05-.25-.05-.34,0-.09.05-.09.12,0,.18,1.67.97,3.68.96,5.55.93.07,0,.24-.02.24-.12,0-.1-.17-.13-.24-.12Z"/>
              <path class="cls-1" d="M148.27,60.27c-.07-.08-.24-.07-.33-.04-.96.27-1.97.32-2.96.14-.08-.01-.25,0-.3.09-.04.1.1.14.17.15,1.11.2,2.25.14,3.33-.17.08-.02.16-.09.09-.17Z"/>
            </g>
          </g>
          <path class="cls-6" d="M118.1,77.41c.98.57,1.85,1.31,2.74,2.01,1.75,1.37,3.63,2.57,5.53,3.72,2.26,1.37,4.71,2.84,5.73,5.28.36.86.51,1.8.59,2.73.18,2.31-.12,4.64-.85,6.84-.3.89-.29,1.7-.48,2.61-.24,1.13-.53,2.25-.85,3.37-1.29,4.49-3.15,8.8-5.26,12.96-1.66,3.27-3.47,6.45-5.35,9.59-2.77,4.66-5.69,9.32-9.71,12.96-4.01,3.64-9.3,6.2-14.71,5.83-2.95-.2-5.57-1.34-8.17-2.63-2.58-1.28-5.22-2.82-7.14-5-2.37-2.68-3.51-6.28-3.75-9.85-.58-8.46,2.54-15.97,7.55-22.61,2.54-3.37,5.4-6.48,8.25-9.59,3.3-3.6,6.6-7.19,9.9-10.79,3.71-4.05,9.43-10.83,15.58-7.66.14.07.27.15.4.22Z"/>
          <g>
            <path class="cls-6" d="M63.81,171.97c-.08.36-.16.73-.22,1.09-.12.67-.22,1.37-.03,2.02.37,1.26,2.12,2.28,3.22,2.86.7.37,1.44.66,2.18.92,2.93,1.02,2.77-.59,3.8-2.65,1.64-3.24,3.71-6.5,3.94-10.23.21-3.28-1.1-7.92-4.93-8.21-2.57-.19-4.88,2.19-5.68,4.43-.56,1.58-.71,3.28-1.05,4.92-.34,1.63-.86,3.21-1.24,4.84Z"/>
            <path class="cls-4" d="M85.33,155.3c.28.88.51,1.77.61,2.66.22,1.94.78,3.86,1.69,5.6,1.32,2.54,3.8,4.73,6.67,4.75,4.83.04,8.21-5.03,9.89-9.02,1.51-3.59,2.13-7.49,2.51-11.36.53-5.39-.83-11.16-3.61-15.83-2.01-3.38-5.55-7.04-9.72-7.3-3.2-.19-6.45.62-9.2,2.26-2.53,1.5-5.16,3.39-5.28,6.58-.07,1.82.5,3.59,1.07,5.32,1.41,4.34,2.83,8.68,4.24,13.03.35,1.08.78,2.19,1.14,3.31Z"/>
            <path class="cls-4" d="M70.55,161.81c-.41,1.89-.33,3.9.3,5.55,1.76,4.61,7.03,4.12,11.01,3.88,2.43-.15,4.87-.12,7.28-.46,2.82-.39,5.68-1.14,8.02-2.79,2.24-1.58,3.17-3.5,3.41-6.19.2-2.14-.03-4.36-.99-6.28-1.19-2.39-3.13-3.18-5.34-4.32-2.51-1.3-5.39-2.56-8.29-2.18-2.89.39-5.66,2.74-7.91,4.43-1.67,1.25-3.44,2.27-5.01,3.71-1.25,1.15-2.09,2.84-2.49,4.65Z"/>
            <path class="cls-6" d="M76.74,170.79c-1.13-1.09-2.07-2.38-2.74-3.79-.67-1.41-1.08-2.92-1.22-4.47-.14-1.58.02-3.19.45-4.71.11-.39.23-.77.38-1.15-.19.16-.39.33-.57.5-1.25,1.15-2.09,2.84-2.49,4.65-.41,1.89-.33,3.9.3,5.55,1.14,2.98,3.74,3.83,6.51,3.99-.21-.18-.42-.36-.62-.56Z"/>
            <path class="cls-3" d="M86.98,161.65c-.78-3.02-1.24-6.13-2.26-9.09-.29-.84-.62-1.66-1.01-2.46-.09-.18-.68-.13-.58.08,1.38,2.8,1.98,5.88,2.65,8.91.19.85.38,1.7.6,2.55.06.22.65.18.6,0Z"/>
            <path class="cls-7" d="M72.11,167.57c-1.27-2.09-1.34-4.64-.83-6.98.16-.71.37-1.41.61-2.1.08-.22-.52-.27-.58-.08-.83,2.36-1.28,4.93-.58,7.39.18.65.45,1.27.8,1.85.11.18.7.11.58-.08Z"/>
          </g>
          <g>
            <path class="cls-3" d="M151.15,96.17c-.54,0-1.03-.11-1.47-.33-.62-.31-1.14-.78-1.58-1.19-.19-.18-.37-.36-.54-.55-.22-.23-.43-.45-.66-.65-.23-.21-.51-.4-.77-.59-.16-.12-.33-.24-.49-.36-.1-.08-.24-.18-.32-.35-.07-.15-.09-.29-.1-.43-.08-1.37.21-2.56.54-3.64.3-.98.66-1.96,1.01-2.9l.17-.46c.08-.22.18-.48.33-.7h0c.05-.07.1-.14.16-.2.36-.39.85-.52,1.29-.34.48.19.78.68.77,1.24,0,.4-.12.77-.23,1.13-.03.11-.06.21-.09.32.14-.14.27-.31.38-.44.06-.08.12-.15.18-.21.13-.15.26-.31.39-.47.24-.29.48-.6.75-.88.13-.13.24-.26.35-.39.4-.46.78-.89,1.51-1.13.67-.22,1.02,0,1.2.21.38.46.27,1.31.07,1.94.74-.59,1.56-.96,2.31-.57.39.2.63.54.66.9,0,.06,0,.12-.03.18-.06.42-.24.8-.46,1.14.26-.16.55-.28.94-.24.59.06,1.28.47,1.4,1.12.01.07,0,.14,0,.2,0,.11,0,.26-.07.48-.08.26-.25.5-.4.69l-.05.07c-.15.19-.3.38-.47.55.01,0,.03,0,.04-.02.27-.1.56-.18.87-.09.35.1.62.32.75.6.09.12.11.22.1.3-.01.55-.32.99-.58,1.3-1.04,1.24-2.3,2.34-3.77,3.27-1.6,1.01-2.95,1.51-4.09,1.51ZM147.78,84.35c-.11.17-.19.38-.26.58l-.17.46c-.35.93-.71,1.9-1,2.86-.31,1.02-.59,2.15-.52,3.43,0,.06,0,.15.03.19.02.05.09.1.16.15.15.12.32.24.47.35.27.2.56.4.82.63.25.22.48.46.69.69.17.18.34.36.52.52.41.38.89.81,1.43,1.09,1.19.59,2.81.21,4.97-1.15,1.41-.9,2.63-1.95,3.63-3.15.28-.34.42-.61.44-.87l-.02-.02-.02-.06c-.05-.12-.19-.23-.37-.28-.15-.04-.29,0-.51.08-.64.24-1.57.72-2.1,1.22l-.41-.44,1.23-1.17c.36-.34.73-.69,1.02-1.08l.05-.07c.12-.16.25-.34.3-.49.02-.09.05-.24.05-.29,0,.05.04.15.14.2.09.05.19.05.28,0l-.29-.53c-.08.04-.12.14-.11.2-.06-.34-.49-.58-.86-.62-.36-.03-.59.15-.94.45-.11.09-.22.19-.35.28-.7.51-1.32.97-1.89,1.43l-.38-.47c.4-.32.78-.76,1.16-1.19.13-.15.26-.29.38-.43.49-.54.93-1.07.99-1.69v-.07c-.04-.19-.23-.31-.32-.35-1-.53-2.57,1.35-3.32,2.25-.11.14-.21.26-.3.35l-.46-.39c.49-.59.92-1.23,1.3-1.9.27-.49.48-1.52.22-1.83-.09-.11-.27-.11-.55-.02-.57.19-.87.53-1.25.96-.12.13-.24.27-.37.41-.25.26-.49.56-.72.84-.13.16-.26.32-.4.48-.05.06-.1.13-.16.2-.32.4-.71.89-1.2.99l-.37.08v-.38c.02-.39.13-.76.24-1.11.1-.34.2-.65.2-.97,0-.35-.19-.59-.39-.67-.21-.09-.44-.02-.63.19-.04.04-.07.08-.1.13h0Z"/>
            <path class="cls-4" d="M147.53,84.18c.04-.06.08-.11.13-.16.64-.7,1.56-.17,1.55.69-.01.71-.41,1.37-.43,2.08.46-.1.9-.75,1.19-1.09.38-.44.72-.91,1.13-1.33.58-.6.9-1.17,1.74-1.45,1.35-.45,1.16,1.33.71,2.04-.32.51-.66,1.01-1.03,1.5-.19.26-.4.52-.48.83.29-.09.63-.71.83-.94.33-.38.67-.75,1.04-1.09.57-.51,1.47-1.21,2.28-.79.26.14.48.36.5.66,0,.03,0,.05-.02.06-.05.05-.06.34-.09.43-.06.18-.14.35-.24.52-.2.34-.47.62-.76.9-.53.51-1.28.97-1.64,1.62.26.07.65-.41.84-.55.38-.29.75-.57,1.14-.85.48-.34.83-.84,1.49-.78.47.04,1.04.36,1.13.87,0,.06,0,.1-.04.12.08-.05-.03.42-.03.43-.07.23-.26.47-.4.66-.64.86-1.63,1.36-2.29,2.18.34.01.66-.41.94-.58.4-.24.83-.44,1.26-.61.22-.08.45-.15.69-.08.24.07.48.23.57.47.04.04.07.09.06.14,0,.43-.24.8-.51,1.12-1.05,1.26-2.31,2.33-3.7,3.21-1.46.93-3.58,2-5.26,1.17-.56-.28-1.05-.7-1.51-1.14-.41-.39-.78-.83-1.2-1.21-.39-.35-.86-.64-1.27-.97-.09-.07-.19-.15-.24-.25-.05-.1-.06-.2-.06-.31-.07-1.25.17-2.36.53-3.53.34-1.13.76-2.23,1.17-3.34.09-.22.17-.45.3-.64Z"/>
            <path class="cls-6" d="M143.18,92.86c.93-.94,1.76-1.48,3.09-.81,1.56.79,3.01,1.77,4.32,2.91,2.07,1.81-.32,4.87-1.32,6.78-1.31,2.51-2.9,4.88-4.71,7.06-2.44,2.93-5.5,6.26-9.48,6.83-1.98.29-4.35-.19-5.51-1.91-1.04-1.54-1.28-3.59-.85-5.37.83-3.45,3.64-5.62,6.18-7.88,2.73-2.43,5.56-4.77,8.09-7.41.07-.07.14-.14.2-.21Z"/>
            <path class="cls-6" d="M128.96,85.05c3.61,3.16,4.46,8.37,6.81,12.55,1.12,2,2.62,3.82,3.29,6.01.18.58.24,1.19.39,1.78.16.6.3,1.18.37,1.8.14,1.22.06,2.46-.24,3.65-.12.47-.27.93-.48,1.37-.43.92-1.1,1.73-1.93,2.33-.99.71-2.2,1.09-3.41,1.19-2.04.17-4.03-.87-5.67-2.03-1.69-1.2-3.15-2.71-4.47-4.3-1.89-2.28-3.42-4.82-4.85-7.4-1.45-2.63-2.47-4.69-2.14-7.8.28-2.59,1.15-5.16,2.81-7.16,2.25-2.71,6.49-4.63,9.51-1.99Z"/>
            <g>
              <path class="cls-7" d="M126.48,112.21c-.91-.45-1.67-1.14-2.34-1.9-.7-.8-1.32-1.67-1.94-2.55-1.3-1.84-2.49-3.76-3.56-5.75-.6-1.12-1.17-2.26-1.69-3.41-.08-.18-.68-.13-.58.08.95,2.08,2.02,4.1,3.2,6.04.59.97,1.22,1.93,1.87,2.87.62.9,1.26,1.79,1.96,2.62.74.89,1.6,1.7,2.65,2.21.12.06.3.07.43,0,.11-.06.12-.16,0-.22Z"/>
              <path class="cls-7" d="M138.45,101.42c-.35-.69-.76-1.35-1.22-1.97-.08-.11-.24-.13-.37-.11-.06,0-.29.08-.21.19,1.61,2.19,2.56,4.84,2.7,7.55.04.76.02,1.51-.06,2.27-.02.2.58.22.6,0,.3-2.71-.22-5.49-1.45-7.92Z"/>
            </g>
          </g>
        </g>
        <g>
          <path class="cls-4" d="M109.8,94.2c.98-1.6,2.17-3.08,2.91-4.8,1.45-3.39.98-7.26.43-10.91-.09-.61-.19-1.24-.52-1.77-.32-.53-.93-.94-1.54-.84-1.09.18-1.36,1.6-2.07,2.45-.44-.37-1.09-.33-1.64-.18-2.85.78-4.43,3.72-6.59,5.73-1.94,1.8-4.65,3.05-6.28,5.13-1.71,2.17-2.03,5.35-2.29,8-.16,1.62-.18,3.55,1.12,4.54.65.5,1.49.64,2.31.73,3.36.39,6.9.18,9.89-1.39,2.93-1.54,2.73-4.13,4.29-6.68Z"/>
          <path class="cls-5" d="M190.93,79.24c-12.77,13.06-22.8,28.61-35.62,41.62-3.98,4.04-8.24,7.85-11.52,12.47-4.46,6.29-12.77,24.87-1.62,28.93,3.07,1.12,6.5.68,9.67-.13,14.96-3.83,23.6-15.46,33.49-26.34,5.58-6.15,11.17-12.3,16.75-18.44,6.24-6.87,11.91-13.61,14.65-22.61,1.66-5.47,3.45-12.75-.57-17.62-2.25-2.72-5.96-3.9-9.49-3.8-5.58.15-11.82,1.92-15.72,5.92Z"/>
          <path class="cls-4" d="M93.54,103.22c.46,1.27,1.01,2.5,1.48,3.59,1.81,4.2,3.92,8.27,6.21,12.23,2.17,3.76,4.23,7.47,7.63,10.3,2.04,1.69,4.54,2.94,7.19,3.05,2.65.12,5.42-1.04,6.85-3.27,1.26-1.99,1.33-4.52.92-6.84-1.12-6.24-4.97-11.45-8.76-16.33-1.76-2.27-3.6-4.55-5.28-6.85-1.31-1.79-2.25-3.93-3.94-5.45-2.81-2.52-7.24-2.78-10.5-1.02-3.94,2.12-3.12,6.96-1.8,10.59Z"/>
          <path class="cls-5" d="M154.54,148.56c-.8-3.19-2.07-6.57-4.17-8.71-3.05-3.1-5.27-6.86-8.56-9.82-4.9-4.41-11.29-7.33-15.6-12.35-2.14-2.49-4.27-4.98-6.41-7.47-.61-.71-1.28-2.05-2.01-2.61-1.03-.79-2.76-.31-3.87,0-5.03,1.44-10.21,3.7-13.71,7.73-2.16,2.48-.69,4.21.93,6.67,1.59,2.41,3.47,4.62,5.16,6.97,1.24,1.72,2.49,3.43,3.76,5.12,1.11,1.47,2.39,2.51,3.56,3.87,2.59,3.04,4.41,6.65,6.93,9.75,1.73,2.13,3.76,4,5.79,5.86,2.65,2.43,5.33,4.86,8.43,6.67,1.46.85,3,1.56,4.6,2.11,3.04,1.05,6.37,1.52,9.46.64,3.09-.88,5.86-3.29,6.54-6.43.34-1.56.16-3.17-.13-4.74-.19-1.03-.42-2.15-.71-3.3Z"/>
          <g>
            <path class="cls-3" d="M92.99,100.4c-.56-1.81-.47-3.74-.26-5.6.06-.53.13-1.06.21-1.59.02-.16-.46-.18-.48,0-.26,1.88-.52,3.8-.27,5.7.07.53.18,1.05.34,1.55.04.15.52.12.46-.06Z"/>
            <path class="cls-3" d="M109.67,78.62c-.04-.18-.51-.15-.48,0,.22,1.08.18,2.19,0,3.28-.09.54-.21,1.08-.34,1.61-.14.54-.27,1.09-.26,1.65,0,.17.49.17.48,0-.01-.56.12-1.11.26-1.65.14-.53.26-1.07.34-1.61.18-1.09.22-2.2,0-3.28Z"/>
            <path class="cls-3" d="M107.35,96.81c-.85-.32-1.77-.42-2.67-.31-.07,0-.21.06-.17.15.04.09.22.1.3.09.78-.1,1.56,0,2.3.28.09.03.26.03.33-.04.08-.08-.01-.14-.09-.17Z"/>
          </g>
        </g>
        <g>
          <path class="cls-10" d="M190.75,77.95c-6.35,6.95-12.26,14.29-18.1,21.67-5.91,7.46-11.76,14.98-17.97,22.19-3.28,3.81-6.66,7.53-10.19,11.11-3.02-2.96-6.39-5.62-9.55-8.22l-7.91-6.47c-.18-.15-.87-.02-.62.19,4.35,3.56,8.76,7.06,13.04,10.71,3.5,2.98,6.87,6.12,9.5,9.92.12.17.24.35.35.52,1.45,2.2,2.6,4.58,3.3,7.12.06.22.78.18.7-.1-1.45-5.22-4.62-9.49-8.4-13.27,6.49-6.56,12.46-13.6,18.26-20.77,5.95-7.37,11.72-14.88,17.72-22.21,3.4-4.15,6.88-8.24,10.5-12.21.22-.24-.47-.36-.63-.18Z"/>
          <path class="cls-10" d="M170.36,150.67c-4.24,1.89-7.85,4.83-11.65,7.43-3.87,2.64-8.25,5.06-13.06,5.11-4.56.05-8.87-1.96-12.57-4.48-3.72-2.54-7.08-5.65-10.14-8.94-3.51-3.77-6.61-7.91-9.26-12.34-.13-.21-.83-.13-.7.1,2.41,4.04,5.21,7.84,8.35,11.35,3.14,3.51,6.61,6.82,10.45,9.55,3.62,2.58,7.78,4.7,12.28,5.07,4.69.38,9.07-1.35,13-3.76,4.66-2.86,8.78-6.59,13.81-8.83.36-.16-.3-.35-.51-.26Z"/>
        </g>
        <g>
          <path class="cls-2" d="M211.57,53.1c6.48-6.46,9.17-16.22,7.86-25.28C217.68,15.76,208.02-.48,194.25.01c-1.41.05-2.81.28-4.15.74-1.2.41-2.26.5-3.49.77-6.05,1.32-11.83,3.94-16.77,7.68-2.89,2.19-5.54,5.19-3.43,8.88.76,1.32,1.95,2.37,3.29,3.1,1.93,1.05,4.13,1.49,6.11,2.43,4.52,2.14,7.41,6.6,10.06,10.85,1.74,2.78,3.77,5.54,5.02,8.58,1.12,2.72,2.98,5.05,3.95,7.87.19.57.36,1.21.13,1.78-.16.39-.48.68-.77.98-2.89,3.01-2.84,8.36.12,11.3-3.98,1.8-6.12,6.88-4.63,10.98-2.09.13-3.89,1.78-4.64,3.74s-.59,4.17-.04,6.19c-2.86.22-5.19,3.19-4.71,6.02.11.66.34,1.38,0,1.95-.25.42-.74.61-1.16.84-2.31,1.23-3.57,3.9-3.78,6.51s.45,5.2,1.13,7.73c-.45-1.67,3.34-6.79,4.23-8.22,1.53-2.47,2.53-4.47,5.11-5.98,1.43-.84,2.99-1.49,4.17-2.65,1.19-1.15,1.91-3.01,1.16-4.48,2.01-.32,4.13-.84,5.52-2.32,1.39-1.49,1.57-4.24-.14-5.35.56-.2,1.12-.42,1.67-.66,1.89-.85,3.64-1.98,4.88-3.62,1.6-2.1,2.15-5.18.75-7.42,2.46-1.12,4.99-2.35,6.74-4.41,1.75-2.07,2.51-5.22,1.08-7.52-.42-.67-1.03-1.36-.85-2.13.1-.44.44-.77.76-1.09Z"/>
          <path class="cls-4" d="M194.7,37.36c.29,2.28-.46,4.59-1.6,6.59-.92,1.6-2.31,3.17-4.15,3.35-1.5.15-2.97-.72-3.85-1.94-.88-1.22-1.25-2.74-1.37-4.23-.22-2.68.09-7.77,3.02-9.06,3.65-1.61,7.52,1.83,7.96,5.29Z"/>
          <g>
            <path class="cls-1" d="M184.34,23.02c-2.54-.61-5.08-1.35-7.42-2.55-2.11-1.08-4.03-2.58-5.41-4.52-.76-1.06-1.34-2.25-1.66-3.52-.06-.23-.68-.16-.63.05.59,2.31,1.99,4.32,3.76,5.89,1.92,1.71,4.27,2.86,6.68,3.7,1.43.5,2.9.89,4.37,1.25.13.03.34.02.43-.09.09-.11-.03-.19-.13-.21Z"/>
            <path class="cls-1" d="M185.14,19.91c-2.31-.75-4.5-1.82-6.5-3.2-.57-.39-1.12-.81-1.66-1.25-.11-.09-.31-.08-.44-.03-.1.04-.21.14-.1.23,1.91,1.56,4.04,2.84,6.31,3.78.64.27,1.29.51,1.95.72.14.05.32.05.45-.03.1-.07.12-.19-.01-.23Z"/>
            <path class="cls-1" d="M213.05,19.76c-.53-1.64-1.21-3.22-2.03-4.73-.82-1.51-1.79-2.95-2.87-4.28-1.09-1.33-2.29-2.57-3.61-3.69-1.31-1.11-2.72-2.09-4.22-2.93-.19-.11-.38-.21-.57-.31-.12-.07-.33-.04-.45.03-.12.07-.1.17.02.23,1.51.79,2.93,1.74,4.25,2.81,1.32,1.07,2.53,2.26,3.63,3.55,1.1,1.3,2.08,2.7,2.93,4.18.84,1.47,1.55,3.02,2.11,4.62.56,1.61.96,3.28,1.2,4.96.03.21.06.41.08.62.03.23.66.18.63-.05-.2-1.71-.57-3.4-1.1-5.03Z"/>
            <path class="cls-1" d="M205.26,14.5c-.33-.41-.69-.79-1.08-1.14-.15-.14-.75,0-.53.2,1.33,1.18,2.3,2.78,2.74,4.51.13.49.21.99.25,1.5.02.22.65.18.63-.05-.15-1.83-.86-3.6-2-5.03Z"/>
            <path class="cls-1" d="M208.21,54.51c-1.28.17-2.47.7-3.5,1.48-1.06.8-1.93,1.8-2.69,2.88-.53.75-1.02,1.52-1.5,2.3.04-2.09-.43-4.18-1.35-6.06-.09-.19-.71-.1-.6.13.54,1.11.92,2.29,1.13,3.5.2,1.14.37,2.47,0,3.59-.24.74-.78,1.41-1.18,2.06-.36.58-.72,1.16-1.08,1.74-.04.06-.07.12-.11.18-.8,1.29-1.6,2.58-2.4,3.87-.06.06-.12.13-.18.19-.05.06-.1.13-.15.19.16-1.18.23-2.37-.05-3.53-.05-.23-.68-.16-.63.05.37,1.56.12,3.15-.13,4.71,0,.02,0,.03,0,.04,0,.02-.02.03-.03.05-.61,1.15-1.17,2.33-1.75,3.5-.64,1.3-1.29,2.6-1.94,3.9-.15.06-.29.13-.43.22-.41.26-.74.6-1.05.97.08-.6.16-1.2.24-1.8.02-.13-.25-.14-.33-.14-.12,0-.29.05-.3.18-.12.91-.25,1.82-.37,2.73-.05.07-.11.15-.17.22-.57.81-1.06,1.67-1.47,2.57-.46,1.01-.81,2.07-1.05,3.16-.01.06.01.11.07.14-.05.03-.1.06-.15.09-.48.3-.85.75-1.17,1.23,0-.3,0-.61,0-.91,0-.13-.24-.15-.33-.14-.1,0-.31.05-.3.18,0,.56,0,1.13,0,1.69,0,.04.02.07.06.09,0,0,0,.01,0,.02-.5.81-.95,1.64-1.35,2.5-.46.97-.85,1.97-1.18,2.99-.08.23.55.25.62.04.55-1.71,1.29-3.37,2.19-4.93.23-.39.47-.78.71-1.16.23-.36.47-.72.77-1.03.6-.62,1.46-.84,2.3-.94,1.03-.13,2.08-.08,3.1.14.13.03.34.02.43-.09.09-.11-.02-.19-.13-.21-.98-.21-2-.29-3.01-.2-.65.05-1.34.15-1.96.38.41-1.77,1.12-3.47,2.11-5,.16-.24.32-.49.49-.73.02-.02.04-.04.05-.07.11-.28.45-.6.64-.83.25-.29.53-.57.85-.8.73-.53,1.55-.53,2.42-.51,1.19.03,2.37.2,3.52.5.13.03.34.02.43-.09.1-.11-.03-.19-.13-.21-1.08-.28-2.2-.45-3.32-.5-.66-.03-1.38-.07-2.06.05,1.08-2.17,2.15-4.35,3.24-6.52.2-.41.42-.81.66-1.2.19-.3.43-.56.66-.83.21-.25.37-.49.62-.71.81-.69,1.82-1.14,2.85-1.39,1.38-.33,2.82-.31,4.22-.19.11,0,.33-.01.38-.14.05-.13-.15-.18-.23-.18-2.37-.21-4.92-.09-6.99,1.2,1.23-1.97,2.45-3.95,3.68-5.92.74-1.19,1.47-2.4,2.24-3.57.72-1.08,1.52-2.13,2.5-2.99,1.01-.89,2.24-1.6,3.59-1.78.1-.01.31-.05.3-.18,0-.13-.24-.16-.32-.15Z"/>
            <path class="cls-1" d="M209.15,40.4c-1.13,3.26-2.68,6.37-4.59,9.24-.55.82-1.12,1.62-1.73,2.39-.18.23.43.29.56.12,2.14-2.75,3.93-5.77,5.31-8.97.39-.9.74-1.82,1.07-2.75.08-.23-.55-.24-.61-.04Z"/>
            <path class="cls-1" d="M211.29,42.1c-.52,1.16-1.05,2.33-1.57,3.49-.1.21.53.24.62.04.52-1.16,1.05-2.33,1.57-3.49.1-.21-.53-.24-.62-.04Z"/>
          </g>
        </g>
        <g>
          <path class="cls-4" d="M89.14,112.42c-1.51,2.1-3.53,3.87-4.72,6.18-.28.54-.52,1.12-.91,1.58-2.62,3.04-1.52-3.74-1.35-4.72.24-1.37.46-2.73.69-4.11-.18,1.05-1.11,1.96-1.62,2.87-.7,1.25-1.27,2.58-1.76,3.92-.97,2.68-1.53,5.51-1.65,8.35-.05,1.17.89,6.3-1.13,6.32-.6,0-1.04-.54-1.35-1.05-1.56-2.51-2.73-5.63-3.03-8.58-.4-3.9.04-7.9,1.38-11.6.85-2.35,2.32-3.81,4.16-5.48,4.58-4.14,9.16-8.29,13.74-12.43.43-.39.9-.8,1.48-.84,2.29-.16,1.05,4.54.55,5.57-.67,1.38-1.1,2.86-1.39,4.37-.54,2.88-.84,5.84-2.32,8.44-.23.41-.5.81-.77,1.19Z"/>
          <path class="cls-3" d="M75.9,130.8c-1-3.52-1.33-7.23-.97-10.87.1-1.03.26-2.05.47-3.07.03-.15-.45-.18-.48,0-.75,3.61-.81,7.36-.17,10.99.18,1.01.41,2.01.69,3,.04.15.52.13.46-.06Z"/>
          <path class="cls-3" d="M84.27,109.35c-.1-.01-.23,0-.3.09-.44.63-.87,1.26-1.31,1.9-.06.09.11.14.17.15.1.01.23,0,.3-.09.44-.63.87-1.26,1.31-1.9.06-.09-.12-.14-.17-.15Z"/>
        </g>
        <g>
          <path class="cls-10" d="M53.81,167.43c-6.76-5.43-13.52-10.87-20.04-16.58-6.48-5.67-12.74-11.62-18.47-18.05-3.38-3.79-6.59-7.74-9.42-11.96-.16-.24-.98-.13-.81.12,4.89,7.29,10.86,13.86,17.08,20.02,6.19,6.12,12.77,11.82,19.47,17.36,3.79,3.14,7.63,6.22,11.47,9.31.2.17,1.02.01.73-.22Z"/>
          <path class="cls-10" d="M17.15,163.41c-3.22-5.06-5.91-10.43-8.05-16.04-.1-.26-.93-.2-.81.11,2.14,5.6,4.83,10.97,8.05,16.04.16.25.98.14.81-.11Z"/>
        </g>
      </g>
    </g>
  </g>
</svg>