<?xml version="1.0" encoding="UTF-8"?>
<svg id="Layer_2" data-name="Layer 2" xmlns="http://www.w3.org/2000/svg" viewBox="0 0 248.56 231.09">
  <defs>
    <style>
      .cls-1 {
        fill: none;
        stroke: #e6e6e5;
        stroke-miterlimit: 10;
      }

      .cls-2 {
        fill: #e0e1e0;
      }

      .cls-2, .cls-3, .cls-4, .cls-5, .cls-6, .cls-7, .cls-8, .cls-9, .cls-10, .cls-11, .cls-12, .cls-13, .cls-14, .cls-15, .cls-16, .cls-17, .cls-18, .cls-19, .cls-20 {
        stroke-width: 0px;
      }

      .cls-3 {
        opacity: .4;
      }

      .cls-3, .cls-5, .cls-9, .cls-13, .cls-15, .cls-18, .cls-19 {
        isolation: isolate;
      }

      .cls-3, .cls-9, .cls-11, .cls-15 {
        fill: #fff;
      }

      .cls-4 {
        fill: #384850;
      }

      .cls-5 {
        opacity: .2;
      }

      .cls-5, .cls-6, .cls-13, .cls-18, .cls-19 {
        fill: #010101;
      }

      .cls-7 {
        fill: #f1f0f0;
      }

      .cls-8 {
        fill: #f3818c;
      }

      .cls-9 {
        opacity: .85;
      }

      .cls-10 {
        fill: #fafbfc;
      }

      .cls-12 {
        fill: #465b65;
      }

      .cls-13 {
        opacity: .15;
      }

      .cls-14 {
        fill: #ebebeb;
      }

      .cls-15 {
        opacity: .35;
      }

      .cls-16 {
        fill: #f5f6f6;
      }

      .cls-17 {
        fill: #273339;
      }

      .cls-18 {
        opacity: .1;
      }

      .cls-19 {
        opacity: .05;
      }

      .cls-20 {
        fill: #669da0;
      }
    </style>
  </defs>
  <g id="Layer_2-2" data-name="Layer 2">
    <g>
      <g id="Floor">
        <ellipse id="Floor-2" data-name="Floor" class="cls-16" cx="124.28" cy="159.33" rx="124.28" ry="71.75"/>
      </g>
      <g id="Shadow">
        <path id="Shadow-2" data-name="Shadow" class="cls-2" d="M146.59,218.83l60.97-35.2c1.34-.77,1.34-2.02,0-2.79l-115.44-66.65c-1.34-.77-3.5-.77-4.84,0l-60.97,35.2c-1.34.77-1.34,2.02,0,2.79l115.44,66.65c1.34.77,3.5.77,4.84,0Z"/>
      </g>
      <g id="Plants">
        <g id="Plants-2" data-name="Plants">
          <g>
            <path class="cls-8" d="M37.98,150.72l4.78-2.76s1.17-10.24.39-18.16c-1.09-11.14-8.29-24.54-16.87-21.39s3.93,14.49,6.72,23.94,4.98,18.38,4.98,18.38Z"/>
            <path class="cls-13" d="M37.98,150.72l4.78-2.76s1.17-10.24.39-18.16c-1.09-11.14-8.29-24.54-16.87-21.39s3.93,14.49,6.72,23.94,4.98,18.38,4.98,18.38Z"/>
            <path class="cls-11" d="M40.49,149.55h-.01c-.16,0-.28-.14-.28-.3.84-24.75-11.48-37.2-11.61-37.32-.11-.11-.12-.3,0-.41.11-.11.3-.12.41,0,.13.12,12.63,12.75,11.78,37.75,0,.16-.13.28-.29.28Z"/>
          </g>
          <g>
            <path class="cls-8" d="M35.43,152.69l3.4-1.96s.58-7.02-2.86-15.56c-3-7.43-10.44-13.59-14.18-12.3-3.74,1.29-3.65,3.95-1.82,6.73s12.92,9.42,15.47,23.08Z"/>
            <path class="cls-11" d="M37.22,151.94h0c-.16,0-.29-.13-.29-.29.07-15.65-14.63-26.22-14.77-26.33-.13-.09-.16-.27-.07-.4.09-.13.27-.16.4-.07.15.11,15.09,10.86,15.02,26.8,0,.16-.13.29-.29.29Z"/>
          </g>
        </g>
      </g>
      <g id="Clouds">
        <g>
          <path id="Cloud" class="cls-14" d="M201.23,2.63l4.81,2.78c-.02-.21-.04-.43-.04-.64v-1.39c0-2.48,1.74-3.49,3.89-2.25.87.5,1.67,1.3,2.32,2.23.35-3.12,2.8-4.28,5.77-2.56,3.21,1.86,5.82,6.37,5.82,10.08v2.08c0,.96-.18,1.77-.49,2.42l4,2.31c1.19.69,2.16,2.36,2.16,3.74s-.97,1.93-2.16,1.25l-26.07-15.05c-1.19-.69-2.16-2.36-2.16-3.74s.97-1.93,2.16-1.24Z"/>
          <path id="Cloud-2" data-name="Cloud" class="cls-14" d="M181.24,15.02l3.53,2.04c-.02-.16-.03-.31-.03-.47v-1.02c0-1.82,1.28-2.56,2.85-1.65.64.37,1.22.95,1.7,1.63.26-2.29,2.05-3.14,4.23-1.88,2.36,1.36,4.26,4.67,4.26,7.39v1.53c0,.7-.13,1.3-.36,1.77l2.93,1.69c.87.5,1.58,1.73,1.58,2.74s-.71,1.42-1.58.91l-19.11-11.03c-.87-.5-1.58-1.73-1.58-2.74,0-1.01.71-1.42,1.58-.91Z"/>
        </g>
      </g>
      <g id="Device">
        <g id="Device-2" data-name="Device">
          <g id="Device-3" data-name="Device">
            <path class="cls-12" d="M203.87,171.66c.87.67.77,1.62-.28,2.23l-57.55,33.23c-1.16.66-3.03.66-4.19,0l-109.98-63.5c-1.06-.61-1.15-1.58-.25-2.25-1.04.74-1.85,2.22-1.85,3.46v2.77c0,1.33.93,2.96,2.09,3.63l109.98,63.5c1.16.67,3.04.67,4.19,0l57.55-33.22c1.16-.66,2.09-2.29,2.09-3.63v-2.77c0-1.22-.78-2.69-1.81-3.44Z"/>
            <path class="cls-4" d="M203.59,171.47l-109.99-63.5c-1.15-.67-3.03-.67-4.19,0l-57.55,33.23c-1.16.66-1.15,1.75,0,2.41l109.99,63.5c1.15.67,3.03.67,4.19,0l57.55-33.23c1.16-.66,1.15-1.75,0-2.41ZM188.67,166.34c.99.57.99,1.5,0,2.07l-52.32,30.22c-.99.57-2.6.57-3.59,0l-85.63-49.44c-.99-.57-.99-1.5,0-2.07l52.33-30.21c.99-.57,2.02-.91,3.01-.33l86.21,49.78Z"/>
            <path class="cls-17" d="M31.62,141.36c-1.04.74-1.85,2.22-1.85,3.46v2.77c0,1.34.93,2.96,2.09,3.63l109.98,63.5c.58.33,1.34.5,2.1.5v-7.61c-.76,0-1.52-.17-2.09-.5l-109.98-63.5c-1.06-.61-1.15-1.58-.25-2.25Z"/>
            <path class="cls-6" d="M66.17,127.85c.77-.45.77-1.17,0-1.62s-2.03-.45-2.81,0-.77,1.17,0,1.62,2.03.45,2.81,0Z"/>
            <path class="cls-1" d="M172.68,188.62c1.82-1.05,1.82-2.76,0-3.82-1.83-1.05-4.78-1.05-6.61,0-1.82,1.05-1.83,2.76,0,3.82,1.82,1.05,4.78,1.05,6.61,0Z"/>
            <path class="cls-6" d="M64.78,133.23l10.83-6.25c.65-.37.68-.96.07-1.31-.61-.35-1.62-.33-2.27.04l-10.83,6.25c-.65.37-.68.96-.07,1.31.61.35,1.62.33,2.27-.04Z"/>
            <path class="cls-8" d="M102.46,116.56c-.99-.57-2.02-.24-3.01.33l-52.33,30.21c-.99.57-.99,1.5,0,2.07l85.63,49.44c.99.57,2.6.57,3.59,0l52.32-30.22c1-.57.99-1.5,0-2.07l-86.21-49.78Z"/>
            <path class="cls-9" d="M102.46,116.56c-.99-.57-2.02-.24-3.01.33l-52.33,30.21c-.99.57-.99,1.5,0,2.07l85.63,49.44c.99.57,2.6.57,3.59,0l52.32-30.22c1-.57.99-1.5,0-2.07l-86.21-49.78Z"/>
          </g>
          <g>
            <g>
              <g>
                <path class="cls-12" d="M53.15,149.83l-.56-.32c-.12-.07-.12-.18,0-.25l.06-.03c.12-.07.32-.07.44,0l.56.32c.12.07.12.18,0,.25l-.06.03c-.12.07-.32.07-.44,0Z"/>
                <path class="cls-12" d="M54.14,149.25l-.96-.56c-.12-.07-.12-.18,0-.25l.06-.04c.12-.07.32-.07.44,0l.96.56c.12.07.12.18,0,.25l-.06.04c-.12.07-.32.07-.44,0Z"/>
                <path class="cls-12" d="M55.14,148.68l-1.37-.79c-.12-.07-.12-.18,0-.25l.06-.03c.12-.07.32-.07.44,0l1.37.79c.12.07.12.18,0,.25l-.06.03c-.12.07-.32.07-.44,0Z"/>
                <path class="cls-12" d="M56.13,148.1l-2.36-1.36c-.12-.07-.12-.18,0-.25l.06-.04c.12-.07.32-.07.44,0l2.36,1.36c.12.07.12.18,0,.25l-.06.03c-.12.07-.31.07-.44,0Z"/>
              </g>
              <g>
                <path class="cls-12" d="M58.98,146.64s-.07,0-.11-.03l-.35-.2-1.11.64c-.06.04-.12.04-.17.01l-.12-.07s-.05-.03-.06-.04c0-.01-.01-.03-.02-.05l-.06-1.4s0-.04.01-.06c0-.01.03-.03.06-.05l.16-.09s.09-.04.13-.04c.04,0,.08,0,.12.03l1.21.7.25-.14s.09-.04.12-.04c.04,0,.07.01.11.03l.08.05s.05.04.05.06c0,.02-.03.04-.07.07l-.25.14.35.2s.05.04.05.06-.03.05-.08.07l-.19.11s-.09.04-.12.04ZM58.3,146.2l-.86-.5.06.97.81-.47Z"/>
                <path class="cls-12" d="M60.09,145.76c-.41.02-.78-.07-1.13-.27-.35-.2-.5-.42-.47-.65s.25-.47.64-.69c.16-.09.32-.17.49-.23.17-.06.32-.11.47-.13.03,0,.06,0,.07,0,.01,0,.02.02.02.03l.05.15s0,.03-.01.04c0,0-.03.01-.06.02-.24.05-.47.13-.68.26-.27.15-.41.31-.43.48-.02.16.1.32.37.48.27.15.54.23.82.22.28-.01.54-.09.8-.24.09-.05.18-.11.25-.17s.13-.11.16-.16l-.56-.33-.46.27s-.09.04-.12.04c-.04,0-.07,0-.11-.03l-.08-.05s-.06-.04-.05-.06c0-.02.03-.04.08-.07l.74-.43c.05-.03.1-.04.14-.05.04,0,.09.01.13.04l.8.46s.05.03.06.05c0,.01,0,.03,0,.05-.1.19-.33.4-.7.61-.4.23-.8.36-1.2.37Z"/>
              </g>
              <g>
                <path class="cls-12" d="M75.55,134.9l1.32.76c.1.06.26.06.36,0l1.32-.76c.1-.06.1-.15,0-.21l-1.32-.76c-.1-.06-.26-.06-.36,0l-1.32.76c-.1.06-.1.15,0,.21Z"/>
                <path class="cls-12" d="M76.46,133.87c-.14-.08-.34-.13-.56-.13-.22,0-.42.05-.57.13-.25.15-.25.38,0,.52l.45.26.33-.06-.45-.26c-.18-.11-.18-.29,0-.39.07-.04.16-.06.23-.06s.16.02.23.06l.45.26.33-.06-.45-.26Z"/>
              </g>
              <g>
                <path class="cls-12" d="M100.44,120.01c-.25,0-.47.05-.63.14l-3.34,1.93c-.29.17-.29.43,0,.59l1.22.7c.16.09.39.14.64.14.11,0,.21,0,.31-.03.13-.02.24-.06.33-.12l3.34-1.93c.29-.17.29-.43,0-.59l-1.22-.7c-.16-.09-.39-.14-.64-.14ZM98.31,123.38c-.09,0-.19-.03-.27-.07l-1.22-.7c-.21-.12-.21-.33,0-.45l3.34-1.93c.05-.03.11-.05.17-.06.03,0,.07,0,.1,0,.09,0,.19.03.27.07l1.22.7c.21.12.21.33,0,.45l-3.34,1.93c-.08.05-.18.07-.27.07Z"/>
                <path class="cls-12" d="M98.41,123.14s-.02-.01-.05-.03l-1.09-.63c-.15-.09-.15-.25,0-.33l3-1.73s.05-.02.06-.03c0,0,.02.01.05.03l1.09.63c.15.09.15.25,0,.33l-3,1.73s-.05.02-.06.03Z"/>
                <path class="cls-12" d="M101.24,120.07c.12-.07.42-.01.67.13l.23.13c.25.14.36.32.24.4l-.21.14-1.14-.67s.1-.06.22-.13Z"/>
              </g>
            </g>
            <g>
              <path class="cls-12" d="M82.15,152.9c.77-.03,1.69-.27,2.35-.65,1.36-.79,1.72-1.86-.45-3.21-.04.7-.64,1.46-1.42,1.91-1.86,1.07-3.97,1.35-5.67.37-1.62-.94-1.11-2.43.75-3.5,2.11-1.22,5.14-1.55,7.87.03,3.15,1.82,2.45,3.75.22,5.04-1.29.75-2.66,1.06-3.81,1.14l.16-1.12ZM82.94,148.46c-1.64-.71-3.03-.61-4.09,0-.89.51-1.07,1.25-.08,1.82.96.55,2.08.48,3.18-.15.61-.35,1.08-.93.99-1.67Z"/>
              <path class="cls-12" d="M86.83,144.94c.71-.41,1.68-.48,2.26-.15.58.33.45.89-.26,1.3-.71.41-1.7.49-2.27.16-.57-.33-.43-.9.28-1.31ZM91.2,147.46c.71-.41,1.68-.48,2.26-.15.57.33.45.89-.26,1.3-.72.41-1.7.49-2.27.16-.58-.33-.43-.9.28-1.31Z"/>
              <path class="cls-12" d="M91.95,144.42c-2.75-1.59-2.75-3.24-.5-4.53,2.25-1.3,5.12-1.29,7.85.29,2.75,1.59,2.82,3.28.58,4.58-2.25,1.3-5.18,1.25-7.93-.33ZM97.43,141.25c-2.3-1.33-3.78-1.31-4.83-.71-1.04.6-1.08,1.46,1.22,2.79,2.3,1.33,3.87,1.35,4.91.75,1.06-.61,1-1.51-1.3-2.83Z"/>
              <path class="cls-12" d="M100.69,139.38c-2.75-1.59-2.75-3.24-.5-4.53,2.25-1.3,5.12-1.29,7.85.29,2.75,1.59,2.82,3.28.58,4.58-2.25,1.3-5.18,1.25-7.93-.33ZM106.17,136.21c-2.3-1.33-3.78-1.32-4.83-.71-1.04.6-1.08,1.46,1.22,2.79,2.3,1.33,3.87,1.35,4.91.75,1.05-.61,1-1.51-1.3-2.83Z"/>
            </g>
            <g>
              <path class="cls-8" d="M86.6,165.16l43.96-25.38c.93-.54,2.43-.54,3.36,0l11.23,6.49c.93.54.93,1.41,0,1.94l-43.95,25.38c-.93.54-2.43.54-3.36,0l-11.24-6.49c-.93-.54-.93-1.41,0-1.94Z"/>
              <path class="cls-10" d="M91.31,166.01l7.86,4.54c.4.23,1.05.23,1.45,0l11.59-6.69c.4-.23.4-.61,0-.84l-7.86-4.54c-.4-.23-1.05-.23-1.45,0l-11.59,6.69c-.4.23-.4.61,0,.84Z"/>
              <polygon class="cls-8" points="103.18 163.83 112.51 163.46 103.22 163.33 103.59 158.31 102.07 164.5 91.01 165.59 100.04 165.17 99.82 170.72 100.51 165.14 103.09 165.02 103.18 163.83"/>
              <g>
                <path class="cls-10" d="M108.09,156.1l11.36-6.53c.52-.3,1.34-.31,1.83-.02.49.28.48.76-.04,1.06l-11.36,6.53c-.52.3-1.34.31-1.83.02-.49-.28-.47-.76.04-1.06Z"/>
                <path class="cls-10" d="M111.58,158.12l23.02-13.3c.52-.3,1.34-.31,1.83-.02.49.28.48.76-.04,1.06l-23.02,13.3c-.52.3-1.34.31-1.83.02-.49-.29-.48-.76.04-1.06Z"/>
                <path class="cls-10" d="M115.07,160.14l23.02-13.3c.52-.3,1.34-.31,1.83-.02.49.28.48.76-.04,1.06l-23.02,13.3c-.52.3-1.34.31-1.83.02-.49-.28-.47-.76.04-1.06Z"/>
              </g>
            </g>
          </g>
        </g>
      </g>
      <g id="Message">
        <g>
          <g id="Envelope">
            <g>
              <path class="cls-8" d="M81.57,73.48l74.52-43.02,2.98,1.72c.77.45,1.4,1.54,1.4,2.43v54.97c0,.89-.63,1.98-1.4,2.43l-71.71,41.4c-.77.45-2.03.45-2.8,0l-1.58-.91c-.77-.45-1.4-1.54-1.4-2.43v-56.59Z"/>
              <path class="cls-19" d="M81.57,73.48l74.52-43.02,2.98,1.72c.77.45,1.4,1.54,1.4,2.43v54.97c0,.89-.63,1.98-1.4,2.43l-71.71,41.4c-.77.45-2.03.45-2.8,0l-1.58-.91c-.77-.45-1.4-1.54-1.4-2.43v-56.59Z"/>
              <path class="cls-8" d="M155.67,25.63l.31-.17-1.16-.67h0c-.1-.06-.2-.11-.31-.15l-32.79-12.15c-.87-.32-2,.04-2.52.8l-36.68,53.57c-.52.76-.95,2.13-.95,3.06v3.56l1.14.66,73.38-43.68v-3.56c0-.43-.16-.88-.41-1.27Z"/>
              <path class="cls-18" d="M120.72,13.56c-.15.11-.27.25-.38.4l-36.69,53.57c-.27.4-.51.96-.68,1.53l-1.14-.66c.08-.28.18-.55.3-.81,0-.01,0-.02.01-.02.05-.11.1-.22.16-.32.01-.02.02-.03.03-.05.06-.12.13-.23.2-.32L119.2,13.3c.06-.08.12-.15.18-.22.06-.06.13-.12.2-.18l1.14.66Z"/>
              <path class="cls-15" d="M155.97,25.46c-.1-.06-.21-.11-.31-.15l-32.8-12.16c-.69-.26-1.55-.08-2.13.4l-1.14-.66c.59-.47,1.44-.66,2.14-.4l32.79,12.15c.11.04.21.09.31.15l1.15.66Z"/>
              <g>
                <path class="cls-8" d="M82.32,67.19c.06-.12.13-.22.2-.32-.07.1-.13.21-.2.32Z"/>
                <path class="cls-8" d="M119.38,13.07c.06-.06.13-.12.2-.18-.07.06-.14.11-.2.18Z"/>
                <path class="cls-8" d="M81.83,68.4c.08-.28.19-.56.3-.81-.11.26-.21.53-.3.81Z"/>
                <path class="cls-8" d="M82.14,67.56c.05-.11.1-.22.16-.32-.05.1-.11.21-.16.32Z"/>
                <path class="cls-5" d="M82.13,67.59s0-.02,0-.02c0,0,0,.02,0,.02Z"/>
                <path class="cls-5" d="M82.29,67.24s.02-.04.03-.05c0,.02-.02.04-.03.05Z"/>
                <path class="cls-5" d="M119.2,13.3c.05-.08.12-.15.18-.22-.07.07-.13.14-.18.22Z"/>
              </g>
              <path class="cls-8" d="M120.34,13.96l-36.68,53.57c-.52.76-.95,2.13-.95,3.06v3.56l74.52-43.02v-3.55c0-.93-.7-1.94-1.57-2.26l-32.79-12.15c-.87-.32-2,.04-2.52.8Z"/>
            </g>
            <g>
              <path class="cls-2" d="M90.81,125.93l-2.39-1.38h0l-.02-.02h0c-.35-.23-.57-.67-.57-1.31V48.74c0-.69.26-1.46.67-2.13l2.43,1.4c-.41.67-.67,1.44-.67,2.14v74.48c0,.63.22,1.08.56,1.3Z"/>
              <path class="cls-7" d="M92.31,46.59l59.85-34.55c1.13-.65,2.05-.12,2.05,1.18v74.47c0,1.31-.92,2.9-2.05,3.56l-59.85,34.55c-1.13.65-2.05.12-2.05-1.18V50.15c0-1.31.92-2.9,2.05-3.56Z"/>
              <path class="cls-10" d="M151.19,10.5l2.35,1.36c-.36-.17-.84-.13-1.37.2l-59.85,34.54c-.54.29-1.02.82-1.38,1.42l-2.43-1.4c.36-.6.85-1.11,1.38-1.42l59.85-34.55c.57-.33,1.09-.36,1.46-.13h0Z"/>
              <path class="cls-2" d="M96.98,50.49l49.78-28.74c.67-.39,1.21-.11,1.21.61s-.54,1.62-1.21,2.01l-49.77,28.74c-.67.39-1.21.11-1.21-.61,0-.72.54-1.62,1.21-2.01Z"/>
              <path class="cls-2" d="M96.98,55.71l49.78-28.74c.67-.39,1.21-.11,1.21.61s-.54,1.62-1.21,2.01l-49.77,28.74c-.67.39-1.21.11-1.21-.61,0-.72.54-1.62,1.21-2.01Z"/>
              <path class="cls-2" d="M96.98,60.94l49.78-28.74c.67-.39,1.21-.11,1.21.61s-.54,1.62-1.21,2.01l-49.77,28.74c-.67.39-1.21.11-1.21-.61,0-.72.54-1.62,1.21-2.01Z"/>
              <path class="cls-2" d="M96.98,66.16l49.78-28.74c.67-.39,1.21-.11,1.21.61s-.54,1.62-1.21,2.01l-49.77,28.74c-.67.39-1.21.11-1.21-.61,0-.72.54-1.62,1.21-2.01Z"/>
              <path class="cls-2" d="M96.98,71.38l49.78-28.74c.67-.39,1.21-.11,1.21.61s-.54,1.62-1.21,2.01l-49.77,28.74c-.67.39-1.21.11-1.21-.61s.54-1.62,1.21-2.01Z"/>
              <path class="cls-2" d="M96.98,76.61l49.78-28.74c.67-.39,1.21-.11,1.21.61s-.54,1.62-1.21,2.01l-49.77,28.74c-.67.39-1.21.11-1.21-.61,0-.72.54-1.62,1.21-2.01Z"/>
              <path class="cls-2" d="M96.98,81.83l49.78-28.74c.67-.39,1.21-.11,1.21.61s-.54,1.62-1.21,2.01l-49.77,28.74c-.67.39-1.21.11-1.21-.61s.54-1.62,1.21-2.01Z"/>
              <path class="cls-2" d="M96.98,87.05l49.78-28.74c.67-.39,1.21-.11,1.21.61s-.54,1.62-1.21,2.01l-49.77,28.74c-.67.39-1.21.11-1.21-.61,0-.72.54-1.62,1.21-2.01Z"/>
            </g>
            <g>
              <path class="cls-8" d="M158.58,90.31s-.04.07-.08.11l-31.05-13.77c-2.44-1.08-5.29-.2-6.71,2.07l-33.2,53.27-1.23.71h-.01c-.37.21-.71.24-.95.11l34.14-54.78c1.42-2.27,4.28-3.15,6.72-2.07l32.37,14.36Z"/>
              <path class="cls-3" d="M117.68,83.56l.08-.07-30.22,48.49-1.23.71h-.01c-.37.21-.7.23-.95.11l31.13-49.96,1.2.72Z"/>
              <path class="cls-3" d="M158.58,90.32s-.04.07-.08.11l-31.06-13.78c-2.44-1.08-5.29-.2-6.71,2.07l-1.23-.72c1.42-2.26,4.27-3.13,6.7-2.06l32.37,14.37Z"/>
              <path class="cls-8" d="M160.44,34.26h0c-.07-.4-.28-.51-.55-.32-.11.07-.23.2-.36.37l-.16.22-30.64,42.66-4.58,6.37c-.51.73-1.64,1.15-2.52.94l-3.95-.94-30.15-7.17c-.22-.05-.42-.06-.61-.02-.08.02-.16.04-.23.07l.83-.48,29.07,6.91,3.95.94c.87.21,2-.21,2.52-.94l4.58-6.37,30.79-42.88c.1-.14.22-.24.35-.32l-2.66-1.54,1.12-.64,1.84,1.06c.67.39,1.23,1.27,1.37,2.08Z"/>
              <path class="cls-3" d="M128.72,77.18l-4.58,6.37c-.51.73-1.64,1.15-2.52.94l-3.95-.94.08-.07.19-.3,2.59.61c.87.21,2-.21,2.52-.94l4.53-6.3,1.14.62Z"/>
              <path class="cls-18" d="M159.07,32.18l-1.84-1.06-1.12.64,2.66,1.54s0,0,0,0h0c-.13.08-.25.18-.35.32l-30.8,42.88-.04.06h0s1.14.63,1.14.63l30.64-42.66.16-.22c.13-.17.25-.3.36-.37.27-.19.49-.08.55.32h0c-.14-.81-.7-1.69-1.37-2.08Z"/>
              <path class="cls-8" d="M88.14,77.28l-6.57-3.8v56.59c0,.89.63,1.98,1.4,2.43l1.58.91c.77.45,2.03.45,2.8,0l.79-.46v-55.67h0Z"/>
              <path class="cls-13" d="M88.14,77.28l-6.57-3.8v56.59c0,.89.63,1.98,1.4,2.43l1.58.91c.77.45,2.03.45,2.8,0l.79-.46v-55.67h0Z"/>
              <path class="cls-12" d="M159.37,34.52v54.37c0,.46-.16.97-.44,1.42-.22.37-.5.7-.82.92l-.05.03s-.06.04-.09.06l-71.71,41.4h-.01c-.09.06-.18.11-.27.13-.01-.08-.02-.16-.02-.25v-54.97c0-.89.7-1.45,1.58-1.24l30.15,7.17,3.95.94c.88.2,2.01-.22,2.52-.94l4.58-6.37,30.64-42.66Z"/>
              <path class="cls-8" d="M160.47,34.61v54.97c0,.46-.17.97-.44,1.42-.22.37-.5.7-.82.92l-.06.03s-.06.04-.09.06l-71.71,41.4h-.01c-.37.22-.71.25-.96.12-.22-.11-.37-.34-.42-.67-.01-.08-.02-.16-.02-.25v-54.97c0-.89.7-1.45,1.58-1.24l30.15,7.17,3.95.94c.88.2,2.01-.22,2.52-.94l4.58-6.37,30.64-42.66.16-.22c.52-.72.94-.59.94.31Z"/>
              <path class="cls-8" d="M159.07,92.01s.06-.04.09-.06l.05-.03c.32-.22.6-.55.82-.92.27-.44.43-.94.44-1.4l-31.74-12.42,21.25,20.07,9.08-5.24Z"/>
              <path class="cls-5" d="M159.07,92.01s.06-.04.09-.06l.05-.03c.32-.22.6-.55.82-.92.27-.44.43-.94.44-1.4l-31.74-12.42,21.25,20.07,9.08-5.24Z"/>
              <path class="cls-8" d="M85.95,132.6c0,.46.17.78.44.92.25.13.58.1.96-.11h.01s24.69-14.26,24.69-14.26l5.64-35.59-31.73,48.13v.91h0Z"/>
              <path class="cls-13" d="M120.73,78.71l-34.34,54.81c-.27-.14-.44-.46-.44-.92v-.91l30.3-48.47.23-.37,3.01-4.83s0-.01.01-.02l1.22.71Z"/>
              <path class="cls-8" d="M160.03,91c-.22.37-.5.7-.82.92l-.05.03-71.8,41.46h-.01c-.37.22-.71.24-.96.11l34.34-54.82c1.42-2.27,4.3-3.15,6.75-2.07l32.55,14.37Z"/>
              <path class="cls-8" d="M160.03,91c-.22.37-.5.7-.82.92l-.05.03-71.81,41.46h-.01c-.37.21-.7.24-.96.11l.96-1.52,70.56-40.75.06-.03c.28-.2.54-.49.74-.8l1.32.59Z"/>
              <path class="cls-13" d="M81.83,68.4l1.14.66c-.16.54-.26,1.08-.26,1.53v3.55l-1.14-.66v-3.56c0-.44.1-.99.26-1.53Z"/>
              <polygon class="cls-8" points="88.57 76.21 87.52 75.96 86.69 76.44 85.54 75.78 82.7 74.14 83.8 73.49 88.57 76.21"/>
              <path class="cls-18" d="M88.57,76.21h0s-4.76-2.72-4.76-2.72l-1.1.65,2.83,1.63,1.15.66h.01c.07-.04.14-.06.22-.07.19-.03.4-.03.61.02l2.32.55,26.4,6.28.23-.37-27.91-6.64Z"/>
            </g>
          </g>
          <g id="Notification">
            <g>
              <path class="cls-20" d="M173.72,78.4l-5.3-3.07s0,0,0,0l-.05-.03h0c-2.31-1.3-5.49-1.1-9,.93-7.07,4.08-12.81,14.02-12.81,22.19,0,4.08,1.43,6.94,3.74,8.28h0s.01,0,.01,0h0s4.83,2.77,4.83,2.77l1.13-1.9c1.17-.27,2.39-.69,3.67-1.43,7.07-4.08,12.81-14.02,12.81-22.19,0-1.21-.16-2.28-.4-3.27l1.37-2.29Z"/>
              <path class="cls-13" d="M147.03,94.11c-.31,1.46-.48,2.91-.48,4.3,0,4.08,1.43,6.94,3.74,8.28h0s.01,0,.01,0h0s4.83,2.77,4.83,2.77l1.13-1.9c1.17-.27,2.39-.69,3.67-1.43,1.21-.7,2.38-1.57,3.49-2.58l-16.4-9.47Z"/>
              <path class="cls-20" d="M164.4,79.13c-7.07,4.08-12.81,14.02-12.81,22.19,0,8.17,5.74,11.48,12.81,7.4,7.07-4.08,12.81-14.02,12.81-22.19,0-8.17-5.73-11.48-12.81-7.4Z"/>
              <g>
                <path class="cls-11" d="M169.46,90.51v-3.14c0-3.58-2.18-5.23-4.86-3.68h0c-2.69,1.55-4.86,5.71-4.86,9.29v2.81c0,1.76-.61,3.77-1.64,5.48,0,0,0,0,0,.01-.24.44-.4.96-.4,1.43h0c0,.9.55,1.32,1.23.93l11.36-6.56c.68-.39,1.23-1.44,1.23-2.34h0c0-.45-.14-.78-.36-.95,0,0-.01,0-.02-.01-1-.45-1.66-1.58-1.66-3.27Z"/>
                <path class="cls-11" d="M166.93,99.98c0,1.72-1.05,3.72-2.33,4.46-1.29.74-2.33-.05-2.33-1.76l4.67-2.7Z"/>
              </g>
            </g>
          </g>
        </g>
      </g>
    </g>
  </g>
</svg>