<?xml version="1.0" encoding="UTF-8"?>
<svg id="Layer_2" data-name="Layer 2" xmlns="http://www.w3.org/2000/svg" viewBox="0 0 67.32 68.4">
  <defs>
    <style>
      .cls-1 {
        fill: #feb4ba;
      }

      .cls-1, .cls-2, .cls-3, .cls-4, .cls-5, .cls-6, .cls-7 {
        stroke-width: 0px;
      }

      .cls-2 {
        fill: #afa1c8;
      }

      .cls-3 {
        fill: #cb6870;
      }

      .cls-4 {
        fill: #f5e5ba;
      }

      .cls-5 {
        fill: #337c80;
      }

      .cls-6 {
        fill: #837996;
      }

      .cls-7 {
        fill: #fe828c;
      }
    </style>
  </defs>
  <g id="bottles">
    <g>
      <path class="cls-1" d="M18.03,12.39c.33,2.75-1.83,5.29-4.84,5.65s-5.71-1.59-6.04-4.34,1.83-5.29,4.84-5.65,5.71,1.59,6.04,4.34Z"/>
      <path class="cls-5" d="M20.75,16.49c.26,2.12-1.47,4.08-3.85,4.37l-6.65.8c-2.38.29-4.52-1.21-4.77-3.33l-.06-.51c-.26-2.12,1.47-4.08,3.85-4.37l6.65-.8c2.38-.29,4.52,1.21,4.77,3.33l.06.51Z"/>
      <path class="cls-2" d="M28.28,58.57c.26,2.12-.97,4.02-2.73,4.23l-13.08,1.58c-1.76.21-3.41-1.34-3.66-3.46L4.13,22.13c-.26-2.12.97-4.02,2.73-4.23l13.1-1.58c1.76-.21,3.41,1.34,3.66,3.46l4.67,38.79h-.02Z"/>
      <path class="cls-6" d="M7.29,17.86c-.33,0-1.1.06-1.82.58-.88.63-1.13,1.52-1.24,1.92-.24.86-.14,1.61-.05,2.04l4.57,38.52c.04.34.12.89.44,1.47.2.37.65,1.22,1.66,1.69.88.41,1.7.3,2.06.22L7.31,17.86h-.02Z"/>
      <path class="cls-1" d="M14.76,8.38c.16,1.37-.81,2.63-2.2,2.8h0c-1.37.16-2.63-.81-2.8-2.2l-.45-3.75c-.16-1.37.81-2.63,2.2-2.8h0c1.37-.16,2.63.81,2.8,2.2l.45,3.76v-.02Z"/>
      <rect class="cls-4" x="19.9" y="27.35" width="4.65" height=".78" transform="translate(-3.16 2.86) rotate(-6.87)"/>
      <rect class="cls-4" x="20.61" y="33.25" width="4.65" height=".78" transform="translate(-3.86 2.98) rotate(-6.87)"/>
      <rect class="cls-4" x="21.23" y="38.36" width="4.65" height=".78" transform="translate(-4.47 3.09) rotate(-6.87)"/>
      <rect class="cls-4" x="21.93" y="44.24" width="4.65" height=".78" transform="translate(-5.16 3.22) rotate(-6.87)"/>
      <rect class="cls-4" x="22.38" y="47.95" width="4.65" height=".78" transform="translate(-5.6 3.3) rotate(-6.87)"/>
      <rect class="cls-4" x="23.09" y="53.85" width="4.65" height=".78" transform="translate(-6.3 3.43) rotate(-6.87)"/>
    </g>
    <g>
      <path class="cls-1" d="M41.1,12.52c.02,2.77-2.41,5.05-5.44,5.07s-5.49-2.22-5.51-4.99,2.41-5.05,5.44-5.07,5.49,2.22,5.51,4.99Z"/>
      <path class="cls-5" d="M43.34,16.9c.02,2.14-1.92,3.89-4.31,3.91l-6.7.05c-2.39.02-4.35-1.71-4.37-3.84v-.52c-.02-2.14,1.91-3.89,4.31-3.91l6.7-.05c2.39-.02,4.35,1.71,4.37,3.84v.52Z"/>
      <path class="cls-2" d="M46.1,59.56c.02,2.14-1.42,3.89-3.19,3.9l-13.18.1c-1.77.01-3.23-1.72-3.25-3.85l-.28-39.07c-.02-2.14,1.42-3.89,3.19-3.9l13.19-.1c1.77-.01,3.23,1.72,3.25,3.85l.28,39.07h-.02Z"/>
      <path class="cls-6" d="M29.82,16.76c-.33-.03-1.1-.06-1.87.38-.94.52-1.3,1.39-1.45,1.77-.34.83-.32,1.59-.28,2.02l.21,38.79c0,.34.02.9.27,1.51.16.4.51,1.29,1.46,1.87.83.51,1.66.49,2.02.45l-.34-46.78h-.02Z"/>
      <path class="cls-1" d="M38.3,8.17c.01,1.38-1.1,2.52-2.5,2.53h0c-1.38.01-2.52-1.1-2.53-2.5l-.03-3.77c-.01-1.38,1.1-2.52,2.5-2.53h0c1.38-.01,2.52,1.1,2.53,2.5l.03,3.79v-.02Z"/>
      <rect class="cls-4" x="41.22" y="27.85" width="4.65" height=".78" transform="translate(-.2 .32) rotate(-.42)"/>
      <rect class="cls-4" x="41.26" y="33.8" width="4.65" height=".78" transform="translate(-.25 .32) rotate(-.42)"/>
      <rect class="cls-4" x="41.3" y="38.95" width="4.65" height=".78" transform="translate(-.29 .32) rotate(-.42)"/>
      <rect class="cls-4" x="41.34" y="44.87" width="4.65" height=".78" transform="translate(-.33 .32) rotate(-.42)"/>
      <rect class="cls-4" x="41.37" y="48.61" width="4.65" height=".78" transform="translate(-.36 .32) rotate(-.42)"/>
      <rect class="cls-4" x="41.41" y="54.55" width="4.65" height=".78" transform="translate(-.4 .32) rotate(-.42)"/>
    </g>
    <g>
      <path class="cls-1" d="M57.61,10.95c-.16,2.77-2.73,4.88-5.76,4.71s-5.34-2.57-5.18-5.34,2.73-4.88,5.76-4.71,5.34,2.57,5.18,5.34Z"/>
      <path class="cls-5" d="M59.56,15.47c-.12,2.13-2.17,3.76-4.56,3.62l-6.69-.39c-2.39-.14-4.23-1.99-4.11-4.12l.03-.52c.12-2.13,2.17-3.76,4.56-3.62l6.69.39c2.39.14,4.23,1.99,4.11,4.12l-.03.52Z"/>
      <path class="cls-2" d="M59.54,58.22c-.12,2.13-1.67,3.79-3.44,3.68l-13.16-.76c-1.77-.1-3.12-1.92-2.99-4.06l2.26-39c.12-2.13,1.67-3.79,3.44-3.68l13.17.76c1.77.1,3.12,1.92,2.99,4.06l-2.26,39h-.02Z"/>
      <path class="cls-6" d="M46.08,14.45c-.32-.05-1.1-.13-1.9.25-.98.46-1.39,1.3-1.56,1.67-.39.81-.42,1.56-.41,2l-2.31,38.72c-.02.34-.03.9.17,1.53.13.4.42,1.32,1.34,1.96.8.56,1.62.59,1.99.58l2.7-46.71h-.02Z"/>
      <path class="cls-1" d="M55.1,6.43c-.08,1.38-1.26,2.45-2.66,2.37h0c-1.38-.08-2.45-1.26-2.37-2.66l.22-3.77c.08-1.38,1.26-2.45,2.66-2.37h0c1.38.08,2.45,1.26,2.37,2.66l-.22,3.78v-.02Z"/>
      <rect class="cls-4" x="58.64" y="24.47" width=".78" height="4.65" transform="translate(28.87 84.18) rotate(-86.69)"/>
      <rect class="cls-4" x="58.3" y="30.4" width=".78" height="4.65" transform="translate(22.62 89.43) rotate(-86.69)"/>
      <rect class="cls-4" x="58" y="35.55" width=".78" height="4.65" transform="translate(17.21 93.97) rotate(-86.69)"/>
      <rect class="cls-4" x="57.66" y="41.46" width=".78" height="4.65" transform="translate(10.98 99.21) rotate(-86.69)"/>
      <rect class="cls-4" x="57.44" y="45.19" width=".78" height="4.65" transform="translate(7.05 102.51) rotate(-86.69)"/>
      <rect class="cls-4" x="57.1" y="51.13" width=".78" height="4.65" transform="translate(.8 107.76) rotate(-86.69)"/>
    </g>
  </g>
  <g id="basket">
    <rect class="cls-7" y="35.01" width="67.32" height="6.02"/>
    <polygon class="cls-7" points="58.84 68.4 8.48 68.4 3.56 41.03 63.76 41.03 58.84 68.4"/>
    <polygon class="cls-3" points="63.17 44.32 63.76 41.03 3.56 41.03 4.15 44.32 63.17 44.32"/>
    <path class="cls-2" d="M58.91,67.51l-27.37-27.37c-1.17-1.17-1.17-3.07,0-4.24h0c1.17-1.17,3.07-1.17,4.24,0l27.37,27.37c1.17,1.17,1.17,3.07,0,4.24h0c-1.17,1.17-3.07,1.17-4.24,0Z"/>
    <circle class="cls-6" cx="33.66" cy="38.02" r="1.37"/>
  </g>
</svg>