<?xml version="1.0" encoding="UTF-8"?>
<svg id="Layer_2" data-name="Layer 2" xmlns="http://www.w3.org/2000/svg" viewBox="0 0 61.19 60.16">
  <defs>
    <style>
      .cls-1 {
        fill: none;
      }

      .cls-1, .cls-2, .cls-3, .cls-4 {
        stroke-width: 0px;
      }

      .cls-2 {
        fill: #ffe1e3;
      }

      .cls-2, .cls-3, .cls-4 {
        fill-rule: evenodd;
      }

      .cls-3 {
        fill: #fe828c;
      }

      .cls-4 {
        fill: #b14952;
      }
    </style>
  </defs>
  <g id="broken-heart">
    <g>
      <rect class="cls-1" width="61.19" height="60.16"/>
      <g>
        <path class="cls-3" d="M35.91,37.83l-8.96,15.25-.3.55-.36-.32-18.14-15.8-3.05-2.66C-1.09,29.43-1.73,20.06,3.66,13.9c2.68-3.1,6.37-4.81,10.16-5.07,3.79-.26,7.68.93,10.78,3.64l2.25,1.96-4.29,10.87,11.82-.81-12.69,14.32,14.22-.98Z"/>
        <path class="cls-2" d="M5.3,27.31c-.47-6.9,4.74-12.88,11.64-13.35,1.22-.08,2.4.02,3.53.27-1.91-1.25-4.22-1.92-6.67-1.75-5.97.41-10.48,5.59-10.07,11.56.14,2.03.84,3.89,1.92,5.44-.17-.7-.3-1.42-.35-2.16Z"/>
      </g>
      <g>
        <path class="cls-3" d="M56.26,33.95l-3.02,2.7-18.39,16.46c-1.49,1.35-3.6,1.62-5.33.85l5.79-7.52,7.97-10.38-13.01-.71,14.36-12.65-13.78-.76,5.42-9.93.19-.17c3.04-2.75,6.91-3.99,10.71-3.79s7.5,1.87,10.25,4.93c.71.79,1.32,1.62,1.82,2.51v.02c.23.38.43.78.62,1.2.2.42.39.86.52,1.3.02.02.02.07.04.09.16.44.27.88.38,1.32.09.39.16.78.21,1.17.05.28.11.55.11.83.02.09.04.18.03.3.03.27.04.55.04.85.09,4.17-1.57,8.34-4.93,11.37Z"/>
        <path class="cls-4" d="M56.26,33.95l-3.02,2.7-18.39,16.46c-1.49,1.35-3.6,1.62-5.33.85l5.79-7.52,15.28-13.69,3.33-2.98c4.17-3.73,5.96-9.08,5.31-14.24.23.38.44.78.62,1.2.2.42.39.86.52,1.3.02.02.02.07.04.09.16.44.27.88.38,1.32.09.39.16.78.21,1.17.05.28.11.55.11.83.02.09.04.18.03.3.03.27.04.55.04.85.09,4.17-1.57,8.34-4.93,11.37Z"/>
      </g>
    </g>
  </g>
</svg>