<?xml version="1.0" encoding="UTF-8"?>
<svg id="Layer_2" data-name="Layer 2" xmlns="http://www.w3.org/2000/svg" viewBox="0 0 77.87 77.07">
  <defs>
    <style>
      .cls-1 {
        fill: #feb4ba;
      }

      .cls-1, .cls-2, .cls-3, .cls-4, .cls-5, .cls-6 {
        stroke-width: 0px;
      }

      .cls-2 {
        fill: #b3cecf;
      }

      .cls-3 {
        fill: #337c80;
      }

      .cls-4 {
        fill: #00494d;
      }

      .cls-5 {
        fill: #669da0;
      }

      .cls-6 {
        fill: #fe828c;
      }
    </style>
  </defs>
  <g id="company-office">
    <g>
      <rect class="cls-4" y="48.67" width="25.39" height="8.11"/>
      <path class="cls-3" d="M25.39,48.67v4.06H6.77c-1.87,0-3.39-1.82-3.39-4.06h22.01Z"/>
      <rect class="cls-5" y="24.34" width="8.46" height="12.17"/>
      <rect class="cls-5" y="36.5" width="8.46" height="12.17"/>
      <path class="cls-2" d="M8.46,36.5v8.11c-2.8,0-5.08-2.72-5.08-6.08v-2.03h5.08Z"/>
      <rect class="cls-5" x="8.46" y="36.5" width="8.46" height="12.17"/>
      <rect class="cls-5" x="16.93" y="36.5" width="8.46" height="12.17"/>
      <polygon class="cls-6" points="32.16 0 32.16 77.07 25.39 77.07 25.39 24.34 0 24.34 0 0 32.16 0"/>
      <path class="cls-1" d="M32.16,0c0,75.54-.17,73.01,0,73.01-1.87,0-3.39-1.82-3.39-4.06V22.31c0-1.12-.76-2.03-1.69-2.03H8.46c-2.8,0-5.08-2.72-5.08-6.08V0h28.78Z"/>
      <rect class="cls-6" x="3.39" y="56.78" width="22.01" height="20.28"/>
      <path class="cls-1" d="M25.39,56.78v16.22h-5.08c-7.48,0-13.54-7.26-13.54-16.22h18.62Z"/>
      <rect class="cls-5" x="16.93" y="24.34" width="8.46" height="12.17"/>
      <rect class="cls-5" x="8.46" y="24.34" width="8.46" height="12.17"/>
      <rect class="cls-6" x="32.16" y="56.78" width="45.71" height="20.28"/>
      <path class="cls-1" d="M77.87,56.78v16.22h-37.24c-2.8,0-5.08-2.72-5.08-6.08v-10.14h42.32Z"/>
      <rect class="cls-6" x="32.16" y="16.22" width="38.94" height="32.45"/>
      <path class="cls-1" d="M71.1,16.22v28.39h-30.47c-2.8,0-5.08-2.72-5.08-6.08v-22.31h35.55Z"/>
      <rect class="cls-3" x="59.25" y="64.9" width="8.46" height="12.17"/>
      <rect class="cls-3" x="42.32" y="64.9" width="8.46" height="12.17"/>
      <path class="cls-2" d="M50.79,64.9v8.11c-2.8,0-5.08-2.72-5.08-6.08v-2.03h5.08Z"/>
      <path class="cls-2" d="M67.71,64.9v8.11c-2.8,0-5.08-2.72-5.08-6.08v-2.03h5.08Z"/>
      <rect class="cls-4" x="32.16" y="48.67" width="45.71" height="8.11"/>
      <path class="cls-3" d="M77.87,48.67v4.06h-38.94c-1.87,0-3.39-1.82-3.39-4.06h42.32Z"/>
      <rect class="cls-3" x="50.79" y="28.39" width="20.31" height="12.17"/>
      <path class="cls-2" d="M71.1,28.39v8.11h-10.16c-3.74,0-6.77-3.63-6.77-8.11h16.93Z"/>
      <rect class="cls-4" x="32.16" y="8.11" width="42.32" height="8.11"/>
      <path class="cls-3" d="M74.49,8.11v4.06h-35.55c-1.87,0-3.39-1.82-3.39-4.06h38.94Z"/>
      <path class="cls-2" d="M16.93,36.5v8.11c-2.8,0-5.08-2.72-5.08-6.08v-2.03h5.08Z"/>
      <path class="cls-2" d="M25.39,36.5v8.11c-2.8,0-5.08-2.72-5.08-6.08v-2.03h5.08Z"/>
      <path class="cls-2" d="M8.46,24.34v8.11c-2.8,0-5.08-2.72-5.08-6.08v-2.03h5.08Z"/>
      <path class="cls-2" d="M16.93,24.34v8.11c-2.8,0-5.08-2.72-5.08-6.08v-2.03h5.08Z"/>
      <path class="cls-2" d="M25.39,24.34v8.11c-2.8,0-5.08-2.72-5.08-6.08v-2.03h5.08Z"/>
    </g>
  </g>
</svg>