<?xml version="1.0" encoding="UTF-8"?>
<svg id="Layer_2" data-name="Layer 2" xmlns="http://www.w3.org/2000/svg" viewBox="0 0 82.71 84.24">
  <defs>
    <style>
      .cls-1 {
        fill: none;
      }

      .cls-1, .cls-2, .cls-3, .cls-4, .cls-5, .cls-6, .cls-7, .cls-8 {
        stroke-width: 0px;
      }

      .cls-2 {
        fill: #ffe1e3;
      }

      .cls-2, .cls-3, .cls-4, .cls-5, .cls-6, .cls-7, .cls-8 {
        fill-rule: evenodd;
      }

      .cls-3 {
        fill: #fe9ba3;
      }

      .cls-4 {
        fill: #669da0;
      }

      .cls-5 {
        fill: #fe828c;
      }

      .cls-6 {
        fill: #b14952;
      }

      .cls-7 {
        fill: #005b60;
      }

      .cls-8 {
        fill: #cb6870;
      }
    </style>
  </defs>
  <g id="couple">
    <g>
      <g>
        <rect class="cls-1" x="28.5" width="25.03" height="25.03"/>
        <path class="cls-5" d="M51.5,13.29l-1.26,1.26-7.67,7.67c-.86.86-2.25.86-3.11,0l-7.67-7.67-1.26-1.26c-2.55-2.55-2.55-6.68,0-9.23,1.27-1.27,2.94-1.91,4.61-1.91s3.34.64,4.61,1.91l1.26,1.26,1.26-1.26c1.28-1.27,2.94-1.91,4.61-1.91s3.34.64,4.61,1.91c2.55,2.55,2.55,6.68,0,9.23Z"/>
        <path class="cls-2" d="M30.84,10c0-3.04,2.47-5.51,5.51-5.51.54,0,1.05.08,1.54.22-.8-.61-1.79-.97-2.87-.97-2.63,0-4.77,2.13-4.77,4.77,0,.9.25,1.73.68,2.45-.05-.31-.09-.63-.09-.96Z"/>
        <path class="cls-6" d="M52.36,5.13c.41,2.25-.25,4.65-1.99,6.39l-1.39,1.39-8.46,8.46c-.36.36-.8.58-1.26.67l.19.19c.86.86,2.25.86,3.11,0l7.67-7.67,1.26-1.26c2.22-2.22,2.51-5.64.86-8.17Z"/>
      </g>
      <g>
        <g>
          <path class="cls-3" d="M62.03,32.45c-.45.05-.91.11-1.38.11-5.33,0-9.65-3.24-9.65-7.24s4.32-7.24,9.65-7.24c.47,0,.92.06,1.38.11v14.26h0ZM62.03,34.62v49.63h-4.18c-1.53,0-3.04-.92-3.42-2.19l-3.07-12.28h-6.22l7.56-25.65s0-.01,0-.02c.15-.54-.32-1.08-1.04-1.19-.7-.11-1.37.22-1.55.73,0,.03,0,.06-.02.09l-6.11,15.89c-.53,1.37-2.44,2.16-4.27,1.77-1.83-.4-2.89-1.83-2.36-3.2l5.87-15.27c1.29-4.74,6.98-8.31,13.82-8.31h4.99Z"/>
          <path class="cls-8" d="M80,61.44c-1.86.31-3.7-.57-4.11-1.97l-4.67-15.9c-.23-.48-.89-.77-1.58-.65-.74.13-1.21.68-1.04,1.24,0,.02,0,.03,0,.04l7.54,25.58h-6.24l-3.1,12.28c-.38,1.27-1.89,2.19-3.43,2.19h-2.74v-49.63h3.61c6.18,0,11.42,2.92,13.32,6.98.13.19.24.39.3.61l4.74,16.15c.41,1.39-.76,2.77-2.62,3.08h0ZM60.65,32.55v-14.47c5.33,0,9.65,3.24,9.65,7.24s-4.32,7.24-9.65,7.24h0Z"/>
        </g>
        <g>
          <path class="cls-4" d="M22.06,32.45c-.45.05-.91.11-1.38.11-5.33,0-9.65-3.24-9.65-7.24s4.32-7.24,9.65-7.24c.47,0,.92.06,1.38.11v14.26h0ZM22.06,34.62v29.98c0-.57-.62-1.03-1.38-1.03s-1.38.46-1.38,1.03v16.02c0,2-2.16,3.62-4.83,3.62s-4.82-1.62-4.82-3.62v-36.7c0-.57-.61-1.03-1.38-1.03s-1.38.46-1.38,1.03v14.99c0,1.43-1.54,2.58-3.45,2.58s-3.44-1.16-3.44-2.58v-16.54c0-.22.05-.43.12-.63.75-4.02,5.34-7.12,10.91-7.12h11.03Z"/>
          <path class="cls-7" d="M42.67,61.46c-.6.08-1.18.03-1.71-.1,1.04-.3,1.77-1.04,1.77-1.93,0-1.14-1.23-2.07-2.76-2.07-.65,0-1.24.17-1.71.45l-3.44-13.89h-.01c-.1-.58-.73-1.04-1.54-1.04s-1.43.46-1.53,1.04h-.04v36.7c0,2-2.16,3.62-4.82,3.62s-4.82-1.62-4.82-3.62v-16.02c0-.57-.62-1.03-1.38-1.03v-28.95h9.65c5.04,0,9.28,2.53,10.6,5.99.1.17.18.36.23.55l4.28,17.28c.35,1.4-.89,2.75-2.76,3.01h0ZM20.68,32.55v-14.47c5.33,0,9.65,3.24,9.65,7.24,0,4-4.32,7.24-9.65,7.24h0Z"/>
        </g>
      </g>
    </g>
  </g>
</svg>