<?xml version="1.0" encoding="UTF-8"?>
<svg id="Layer_2" data-name="Layer 2" xmlns="http://www.w3.org/2000/svg" viewBox="0 0 92.71 93.79">
  <defs>
    <style>
      .cls-1 {
        fill: none;
      }

      .cls-1, .cls-2, .cls-3, .cls-4, .cls-5, .cls-6, .cls-7, .cls-8 {
        stroke-width: 0px;
      }

      .cls-2 {
        fill: #ffe1e3;
      }

      .cls-2, .cls-3, .cls-4, .cls-5, .cls-6, .cls-7, .cls-8 {
        fill-rule: evenodd;
      }

      .cls-3 {
        fill: #fe9ba3;
      }

      .cls-4 {
        fill: #669da0;
      }

      .cls-5 {
        fill: #fe828c;
      }

      .cls-6 {
        fill: #b14952;
      }

      .cls-7 {
        fill: #005b60;
      }

      .cls-8 {
        fill: #cb6870;
      }
    </style>
  </defs>
  <g id="divorced">
    <g>
      <g>
        <rect class="cls-1" x="30.07" width="31.78" height="31.25"/>
        <g>
          <path class="cls-5" d="M48.73,19.65l-4.65,7.92-.16.28-.19-.16-9.42-8.21-1.59-1.38c-3.21-2.81-3.55-7.68-.75-10.88,1.39-1.61,3.31-2.5,5.28-2.64s3.99.48,5.6,1.89l1.17,1.02-2.23,5.65,6.14-.42-6.59,7.44,7.39-.51Z"/>
          <path class="cls-2" d="M32.82,14.18c-.25-3.58,2.46-6.69,6.04-6.94.63-.04,1.25,0,1.83.14-.99-.65-2.19-1-3.46-.91-3.1.21-5.45,2.9-5.23,6,.07,1.05.44,2.02,1,2.83-.09-.36-.16-.74-.18-1.12Z"/>
        </g>
        <g>
          <path class="cls-5" d="M59.29,17.63l-1.57,1.4-9.55,8.55c-.77.7-1.87.84-2.77.44l3.01-3.9,4.14-5.39-6.76-.37,7.46-6.57-7.16-.39,2.81-5.16.1-.09c1.58-1.43,3.59-2.07,5.56-1.97s3.9.97,5.32,2.56c.37.41.69.84.95,1.31h0c.12.21.23.41.32.63.11.22.2.45.27.68.01.01,0,.04.02.05.08.23.14.46.2.69.05.2.08.41.11.61.03.14.06.29.06.43,0,.05.02.1.02.15.02.14.02.28.02.44.05,2.17-.82,4.33-2.56,5.9Z"/>
          <path class="cls-6" d="M59.29,17.63l-1.57,1.4-9.55,8.55c-.77.7-1.87.84-2.77.44l3.01-3.9,7.94-7.11,1.73-1.55c2.16-1.94,3.1-4.72,2.76-7.4.12.2.23.4.32.62.11.22.2.45.27.68.01.01,0,.04.02.05.08.23.14.46.2.69.05.2.08.41.11.61.03.14.06.29.06.43,0,.05.02.1.02.15.02.14.02.28.02.44.05,2.17-.82,4.33-2.56,5.9Z"/>
        </g>
      </g>
      <g>
        <path class="cls-3" d="M72.03,41.99c-.45.05-.91.11-1.38.11-5.33,0-9.65-3.24-9.65-7.24s4.32-7.24,9.65-7.24c.47,0,.92.06,1.38.11v14.26h0ZM72.03,44.16v49.63h-4.18c-1.53,0-3.04-.92-3.42-2.19l-3.07-12.28h-6.22l7.56-25.65s0-.01,0-.02c.15-.54-.32-1.08-1.04-1.19-.7-.11-1.37.22-1.55.73,0,.03,0,.06-.02.09l-6.11,15.89c-.53,1.37-2.44,2.16-4.27,1.77-1.83-.4-2.89-1.83-2.36-3.2l5.87-15.27c1.29-4.74,6.98-8.31,13.82-8.31h4.99Z"/>
        <path class="cls-8" d="M90,70.98c-1.86.31-3.7-.57-4.11-1.97l-4.67-15.9c-.23-.48-.89-.77-1.58-.65-.74.13-1.21.68-1.04,1.24,0,.02,0,.03,0,.04l7.54,25.58h-6.24l-3.1,12.28c-.38,1.27-1.89,2.19-3.43,2.19h-2.74v-49.63h3.61c6.18,0,11.42,2.92,13.32,6.98.13.19.24.39.3.61l4.74,16.15c.41,1.39-.76,2.77-2.62,3.08h0ZM70.65,42.1v-14.47c5.33,0,9.65,3.24,9.65,7.24s-4.32,7.24-9.65,7.24h0Z"/>
      </g>
      <path class="cls-4" d="M22.06,41.99c-.45.05-.91.11-1.38.11-5.33,0-9.65-3.24-9.65-7.24s4.32-7.24,9.65-7.24c.47,0,.92.06,1.38.11v14.26h0ZM22.06,44.16v29.98c0-.57-.62-1.03-1.38-1.03s-1.38.46-1.38,1.03v16.02c0,2-2.16,3.62-4.83,3.62s-4.82-1.62-4.82-3.62v-36.7c0-.57-.61-1.03-1.38-1.03s-1.38.46-1.38,1.03v14.99c0,1.43-1.54,2.58-3.45,2.58s-3.44-1.16-3.44-2.58v-16.54c0-.22.05-.43.12-.63.75-4.02,5.34-7.12,10.91-7.12h11.03Z"/>
      <path class="cls-7" d="M43.03,70.91c-1.53.47-3.28-.26-4.12-1.78-1.36-5.22-2.72-10.44-4.08-15.66h-.01c-.1-.58-.73-1.04-1.54-1.04s-1.43.46-1.53,1.04h-.04v36.7c0,2-2.16,3.62-4.82,3.62s-4.82-1.62-4.82-3.62v-16.02c0-.57-.62-1.03-1.38-1.03v-28.95h9.65c5.04,0,9.28,2.53,10.6,5.99.1.17.18.36.23.55l4.28,17.28c-.19,1.39-1.14,2.54-2.4,2.92ZM20.68,42.1v-14.47c5.33,0,9.65,3.24,9.65,7.24,0,4-4.32,7.24-9.65,7.24h0Z"/>
    </g>
  </g>
</svg>