<?xml version="1.0" encoding="UTF-8"?>
<svg id="Layer_2" data-name="Layer 2" xmlns="http://www.w3.org/2000/svg" viewBox="0 0 73.72 74.51">
  <defs>
    <style>
      .cls-1 {
        fill: #feb4ba;
      }

      .cls-1, .cls-2, .cls-3, .cls-4, .cls-5, .cls-6 {
        stroke-width: 0px;
      }

      .cls-2 {
        fill: #afa1c8;
      }

      .cls-3 {
        fill: #bdbdcc;
      }

      .cls-4 {
        fill: #f5e5ba;
      }

      .cls-5 {
        fill: #337c80;
      }

      .cls-6 {
        fill: #837996;
      }
    </style>
  </defs>
  <g id="send-milk">
    <g>
      <path class="cls-1" d="M65.87,6.77c3.57.81,5.85,4.13,5.1,7.4s-4.23,5.27-7.81,4.46-5.85-4.13-5.1-7.4,4.23-5.27,7.81-4.46Z"/>
      <path class="cls-5" d="M54.42,15.2c.57-2.52,3.34-4.04,6.16-3.4l7.9,1.8c2.82.64,4.65,3.22,4.07,5.73l-.14.61c-.57,2.52-3.34,4.04-6.16,3.4l-7.9-1.8c-2.82-.64-4.65-3.22-4.07-5.73l.14-.61Z"/>
      <path class="cls-2" d="M39.91,65.45h0l10.49-46.04c.57-2.52,2.75-4.18,4.84-3.7l15.55,3.54c2.09.48,3.33,2.92,2.75,5.43l-10.49,46.04c-.57,2.52-2.75,4.18-4.84,3.7l-15.53-3.54c-2.09-.48-3.33-2.92-2.75-5.43h-.02Z"/>
      <path class="cls-6" d="M70.26,19.15l-12.57,55.13c.42.14,1.39.38,2.5,0,1.27-.44,1.92-1.4,2.21-1.82.45-.67.62-1.31.71-1.72l10.34-45.73c.16-.5.38-1.39.2-2.45-.08-.49-.28-1.6-1.25-2.46-.8-.72-1.72-.88-2.12-.93h-.02Z"/>
      <path class="cls-1" d="M62.5,6.83l1.02-4.47c.37-1.64,2.02-2.66,3.64-2.29h0c1.64.37,2.66,2.02,2.29,3.64l-1.01,4.45c-.37,1.64-2.02,2.66-3.64,2.29h0c-1.64-.37-2.66-2.02-2.29-3.64v.02Z"/>
      <rect class="cls-4" x="50.62" y="26.33" width=".94" height="5.62" transform="translate(11.33 72.48) rotate(-77.16)"/>
      <rect class="cls-4" x="49.03" y="33.33" width=".94" height="5.62" transform="translate(3.26 76.37) rotate(-77.16)"/>
      <rect class="cls-4" x="47.64" y="39.4" width=".94" height="5.62" transform="translate(-3.74 79.74) rotate(-77.16)"/>
      <rect class="cls-4" x="46.05" y="46.39" width=".94" height="5.62" transform="translate(-11.79 83.62) rotate(-77.16)"/>
      <rect class="cls-4" x="45.05" y="50.79" width=".94" height="5.62" transform="translate(-16.86 86.07) rotate(-77.16)"/>
      <rect class="cls-4" x="43.45" y="57.79" width=".94" height="5.62" transform="translate(-24.93 89.96) rotate(-77.16)"/>
    </g>
    <g>
      <path class="cls-3" d="M41.72,21.71H10.41c-1.05,0-1.91.85-1.91,1.91s.85,1.91,1.91,1.91h31.31c1.05,0,1.91-.85,1.91-1.91s-.85-1.91-1.91-1.91Z"/>
      <path class="cls-3" d="M33.22,54.99H1.91c-1.05,0-1.91.85-1.91,1.91s.85,1.91,1.91,1.91h31.31c1.05,0,1.91-.85,1.91-1.91s-.85-1.91-1.91-1.91Z"/>
      <path class="cls-3" d="M37.62,38.35H6.31c-1.05,0-1.91.85-1.91,1.91s.85,1.91,1.91,1.91h31.31c1.05,0,1.91-.85,1.91-1.91s-.85-1.91-1.91-1.91Z"/>
    </g>
  </g>
</svg>