<?xml version="1.0" encoding="UTF-8"?>
<svg id="Layer_2" data-name="Layer 2" xmlns="http://www.w3.org/2000/svg" viewBox="0 0 82.81 82.81">
  <defs>
    <style>
      .cls-1, .cls-2, .cls-3 {
        fill: none;
      }

      .cls-1, .cls-3 {
        stroke: #414042;
        stroke-miterlimit: 10;
      }

      .cls-2, .cls-4, .cls-5, .cls-6, .cls-7 {
        stroke-width: 0px;
      }

      .cls-4 {
        fill: #fff;
      }

      .cls-5 {
        fill: #dbc9fa;
      }

      .cls-6 {
        fill: #414042;
      }

      .cls-3 {
        stroke-linecap: round;
      }

      .cls-7 {
        fill: #fe828c;
      }
    </style>
  </defs>
  <g id="female-icon">
    <g>
      <g>
        <path class="cls-7" d="M68.61,82.81v-3.82c0-15.9-13.08-28.99-28.99-28.99h0c-15.9,0-28.99,13.08-28.99,28.99v3.82h57.97Z"/>
        <line class="cls-1" x1="25.73" y1="72.34" x2="25.73" y2="82.81"/>
        <line class="cls-1" x1="55.12" y1="72.34" x2="55.12" y2="82.81"/>
        <path class="cls-4" d="M23.11,37.31h-1.01c-1.21,0-2.21-1.01-2.21-2.21v-3.62c0-1.21,1.01-2.21,2.21-2.21h1.01v8.05Z"/>
        <path class="cls-3" d="M23.11,37.31h-1.01c-1.21,0-2.21-1.01-2.21-2.21v-3.62c0-1.21,1.01-2.21,2.21-2.21h1.01v8.05Z"/>
        <path class="cls-4" d="M23.11,18.39v19.12c0,10.06,8.25,18.32,18.32,18.32h0c10.06,0,18.32-8.25,18.32-18.32v-19.12l-20.73-8.25-15.9,8.25Z"/>
        <path class="cls-3" d="M23.11,18.39v19.12c0,10.06,8.25,18.32,18.32,18.32h0c10.06,0,18.32-8.25,18.32-18.32v-19.12l-20.73-8.25-15.9,8.25Z"/>
        <path class="cls-5" d="M63.17,22.22C63.17,10.34,53.51.88,41.83.88s-21.34,9.66-21.34,21.34v5.64l17.91-12.88,19.32,26.77v24.15l5.43,11.07V22.22Z"/>
        <path class="cls-1" d="M41.83.68c-11.88,0-21.34,9.66-21.34,21.34v5.64l17.91-12.88,19.32,26.97v25.16l4.63,8.45c.6,1.01,1.01.81,1.01-.2V22.02c-.2-11.67-9.86-21.34-21.54-21.34Z"/>
        <circle class="cls-6" cx="41.43" cy="80.79" r="1.01"/>
        <circle class="cls-6" cx="41.43" cy="74.96" r="1.01"/>
        <circle class="cls-6" cx="41.43" cy="68.92" r="1.01"/>
        <circle class="cls-6" cx="41.43" cy="63.08" r="1.01"/>
      </g>
      <rect class="cls-2" width="82.81" height="82.81"/>
    </g>
  </g>
</svg>