<?xml version="1.0" encoding="UTF-8"?>
<svg id="Layer_2" data-name="Layer 2" xmlns="http://www.w3.org/2000/svg" viewBox="0 0 68.01 67.97">
  <defs>
    <style>
      .cls-1 {
        fill: #31a952;
      }

      .cls-1, .cls-2, .cls-3, .cls-4, .cls-5, .cls-6 {
        stroke-width: 0px;
      }

      .cls-2 {
        fill: #fabc00;
      }

      .cls-3 {
        fill: #3c79e5;
      }

      .cls-4 {
        fill: #ce2d48;
      }

      .cls-5 {
        fill: #0f9c58;
      }

      .cls-6 {
        fill: #ea4132;
      }
    </style>
  </defs>
  <g id="icon-set">
    <g id="google">
      <path class="cls-2" d="M7.18,54.75c-3.79-4.62-6-9.91-6.73-15.84-.49-.86.18-1.91-.46-2.75v-4.25c.56-.86.15-1.82.27-2.72-.23-5.5,2.16-10.11,4.97-14.57.43-.68.96-1.28,1.79-1.5.79-.06,1.29.47,1.78.95,2.93,2.88,5.83,5.79,8.72,8.72.49.5.99,1.01.97,1.79-3.41,6.28-3.41,12.57-.02,18.87.08.69-.31,1.18-.74,1.62-2.95,3.02-5.94,6-8.95,8.95-.44.43-.91.84-1.61.74Z"/>
      <path class="cls-6" d="M18.51,24.57c-3.76-3.76-7.52-7.52-11.29-11.28-.33-.78.02-1.42.51-1.94C13.59,5.1,20.26.4,29.27.27c1.05-.14,2.15.3,3.17-.27h1.6c.56.62.77,1.37.79,2.17.1,3.85.1,7.69,0,11.54-.02.79-.17,1.57-.79,2.16-6.64.29-11.74,3.32-15.52,8.7Z"/>
      <path class="cls-4" d="M34.03,15.87c0-5.29,0-10.58,0-15.87h1.6c1.02.67,2.25-.08,3.28.48,7.8.88,14.2,4.51,19.69,9.96.73.72.74,1.17,0,1.9-3.1,3.03-6.17,6.08-9.18,9.19-.9.93-1.46.88-2.34-.02-3.56-3.66-7.98-5.41-13.04-5.64Z"/>
      <path class="cls-3" d="M43.13,49.74c2.78-1.91,5.33-4.02,6.9-7.62-4.76,0-9.23-.09-13.7.04-1.91.06-2.4-.56-2.34-2.4.13-3.81.09-7.62.01-11.43-.03-1.49.21-2.23,1.98-2.21,9.75.08,19.49.04,29.24.03,1.13,0,2.06.01,2.28,1.52,1.99,13.25-1.94,24.27-12.27,32.92-.13.11-.32.15-.48.22-.36.02-.74,0-1-.25-3.66-3.49-7.48-6.84-10.64-10.83Z"/>
      <path class="cls-1" d="M7.18,54.75c3.77-3.77,7.54-7.54,11.3-11.31,3.77,5.43,8.9,8.45,15.55,8.76.48.45.7,1.03.73,1.66.18,4.15.18,8.3,0,12.46-.03.63-.25,1.21-.73,1.66-11.1-.06-20.05-4.46-26.86-13.23Z"/>
      <path class="cls-5" d="M34.04,67.97c0-5.26,0-10.52,0-15.77,3.21-.14,6.23-1,9.08-2.46,3.55,2.64,6.28,6.13,9.51,9.1.71.65,1.42,1.31,2.12,1.97-6.01,4.97-12.98,7.18-20.72,7.16Z"/>
    </g>
  </g>
</svg>