<?xml version="1.0" encoding="UTF-8"?>
<svg id="Layer_2" data-name="Layer 2" xmlns="http://www.w3.org/2000/svg" viewBox="0 0 57.34 57.34">
  <defs>
    <style>
      .cls-1 {
        fill: none;
      }

      .cls-1, .cls-2, .cls-3, .cls-4 {
        stroke-width: 0px;
      }

      .cls-2 {
        fill: #ffe1e3;
      }

      .cls-2, .cls-3, .cls-4 {
        fill-rule: evenodd;
      }

      .cls-3 {
        fill: #fe828c;
      }

      .cls-4 {
        fill: #b14952;
      }
    </style>
  </defs>
  <g id="heart">
    <g>
      <rect class="cls-1" width="57.34" height="57.34"/>
      <path class="cls-3" d="M52.7,30.46l-2.89,2.89-17.58,17.58c-1.97,1.97-5.16,1.97-7.13,0L7.53,33.35l-2.89-2.89c-5.84-5.84-5.84-15.31,0-21.15,2.91-2.91,6.75-4.38,10.57-4.38s7.66,1.47,10.57,4.38l2.9,2.9,2.89-2.9c2.92-2.91,6.75-4.38,10.57-4.38s7.65,1.47,10.57,4.38c5.84,5.84,5.84,15.3,0,21.15Z"/>
      <path class="cls-2" d="M5.36,22.91c0-6.97,5.65-12.62,12.62-12.62,1.23,0,2.41.18,3.53.51-1.83-1.39-4.11-2.22-6.58-2.22-6.03,0-10.92,4.89-10.92,10.92,0,2.05.58,3.96,1.56,5.6-.13-.72-.2-1.45-.2-2.2Z"/>
      <path class="cls-4" d="M54.67,11.75c.95,5.15-.57,10.66-4.55,14.65l-3.18,3.18-19.37,19.38c-.82.82-1.83,1.33-2.9,1.53l.44.44c1.97,1.97,5.16,1.97,7.13,0l17.58-17.58,2.89-2.89c5.09-5.09,5.74-12.92,1.97-18.71Z"/>
    </g>
  </g>
</svg>