<?xml version="1.0" encoding="UTF-8"?>
<svg id="Layer_2" data-name="Layer 2" xmlns="http://www.w3.org/2000/svg" viewBox="0 0 62 62">
  <defs>
    <style>
      .cls-1 {
        fill: #fff;
        stroke-width: 0px;
      }
    </style>
  </defs>
  <g id="icon-set">
    <g id="list">
      <path class="cls-1" d="M52.97,23.52c-8.31,0-15.05-6.84-15.05-15.29,0-2.45.57-4.77,1.58-6.82H15.34C6.87,1.41,0,8.4,0,17.01v29.41c0,8.61,6.87,15.58,15.34,15.58h28.94c8.47,0,15.33-6.98,15.33-15.58v-24.47c-2,1.01-4.26,1.57-6.65,1.57ZM13.41,32.55c.51-.52,1.22-.84,1.98-.84h15.57c1.55,0,2.81,1.27,2.81,2.86,0,.79-.32,1.5-.83,2.02-.51.51-1.21.83-1.98.83h-15.57c-1.55,0-2.81-1.27-2.81-2.85,0-.79.32-1.51.83-2.02ZM46.17,47.18c0,1.57-1.26,2.85-2.81,2.85H15.4c-1.55,0-2.81-1.27-2.81-2.85h0c0-1.58,1.26-2.86,2.81-2.86h27.96c1.55,0,2.81,1.27,2.81,2.85h0Z"/>
      <path id="circle" class="cls-1" d="M62,9.17c0,2.44-.94,4.65-2.46,6.3-1.65,1.77-3.99,2.88-6.58,2.88-4.99,0-9.03-4.11-9.03-9.18,0-3.03,1.45-5.71,3.67-7.38,1.49-1.12,3.36-1.79,5.36-1.79,4.99,0,9.03,4.11,9.03,9.17Z"/>
    </g>
  </g>
</svg>