<?xml version="1.0" encoding="UTF-8"?>
<svg id="Layer_2" data-name="Layer 2" xmlns="http://www.w3.org/2000/svg" viewBox="0 0 88.14 88.14">
  <defs>
    <style>
      .cls-1, .cls-2, .cls-3 {
        fill: none;
      }

      .cls-1, .cls-3 {
        stroke: #414042;
        stroke-miterlimit: 10;
      }

      .cls-2, .cls-4, .cls-5, .cls-6 {
        stroke-width: 0px;
      }

      .cls-4 {
        fill: #fff;
      }

      .cls-5 {
        fill: #337c80;
      }

      .cls-6 {
        fill: #dbc9fa;
      }

      .cls-3 {
        stroke-linecap: round;
      }
    </style>
  </defs>
  <g id="male-icon">
    <g>
      <g>
        <path class="cls-6" d="M75.63,87.98v-4.34c0-17.13-14.1-31.23-31.23-31.23h0c-17.13,0-31.23,14.1-31.23,31.23v4.34h62.46Z"/>
        <line class="cls-1" x1="29.43" y1="76.7" x2="29.43" y2="87.98"/>
        <line class="cls-1" x1="61.1" y1="76.7" x2="61.1" y2="87.98"/>
        <path class="cls-4" d="M22.49,41.57h-1.08c-1.52,0-2.6-1.08-2.6-2.6v-4.12c0-1.52,1.08-2.6,2.6-2.6h1.08v9.33Z"/>
        <path class="cls-4" d="M64.57,41.57h1.08c1.52,0,2.6-1.08,2.6-2.6v-4.12c0-1.52-1.08-2.6-2.6-2.6h-1.08v9.33Z"/>
        <path class="cls-3" d="M22.49,41.57h-1.08c-1.52,0-2.6-1.08-2.6-2.6v-4.12c0-1.52,1.08-2.6,2.6-2.6h1.08v9.33Z"/>
        <path class="cls-3" d="M64.57,41.57h1.08c1.52,0,2.6-1.08,2.6-2.6v-4.12c0-1.52-1.08-2.6-2.6-2.6h-1.08v9.33Z"/>
        <path class="cls-4" d="M22.49,24.22v17.78c0,11.49,9.33,21.04,21.04,21.04h0c11.49,0,21.04-9.33,21.04-21.04v-16.92c-2.39-14.75-15.83-19.09-22.34-18.87-6.07.22-17.57,6.51-19.74,18Z"/>
        <path class="cls-5" d="M64.57,30.51s-10.63-12.58-28.2-14.53c-1.24,2.24-2.99,4.93-5.43,7.7-2.91,3.3-5.86,5.65-8.24,7.27-.2-1.2-1.58-10.07,4.81-17.42,3.02-3.46,7.8-6.34,15.36-7.31-.22,0,21.91-.65,21.69,24.29Z"/>
        <path class="cls-1" d="M22.49,30.94s8.68-4.99,13.66-14.97c0,0,21.25,3.69,28.2,14.53"/>
        <path class="cls-1" d="M64.57,27.25c0-11.49-9.33-21.04-21.04-21.04h0c-11.49,0-21.04,9.33-21.04,21.04v14.53c0,11.49,9.33,21.04,21.04,21.04h0c11.49,0,21.04-9.33,21.04-21.04v-14.53Z"/>
        <path class="cls-5" d="M63.48,1.23s-14.75,14.75-27.98,8.24c0,0-3.25,12.58,14.75,11.28-.22.22,18.22-.43,13.23-19.52Z"/>
        <path class="cls-3" d="M35.51,13.81c.65,3.47,3.9,7.81,14.75,7.16,0,0,18.44-.43,13.23-19.52,0,0-5.42,5.21-12.36,8.24"/>
      </g>
      <rect class="cls-2" width="88.14" height="88.14"/>
    </g>
  </g>
</svg>