<?xml version="1.0" encoding="UTF-8"?>
<svg id="Layer_2" data-name="Layer 2" xmlns="http://www.w3.org/2000/svg" viewBox="0 0 19.92 61.66">
  <defs>
    <style>
      .cls-1 {
        fill: #feb4ba;
      }

      .cls-1, .cls-2, .cls-3, .cls-4, .cls-5 {
        stroke-width: 0px;
      }

      .cls-2 {
        fill: #afa1c8;
      }

      .cls-3 {
        fill: #f5e5ba;
      }

      .cls-4 {
        fill: #337c80;
      }

      .cls-5 {
        fill: #837996;
      }
    </style>
  </defs>
  <g id="bottles">
    <g>
      <path class="cls-1" d="M14.91,10.62c.02,2.77-2.41,5.05-5.44,5.07s-5.49-2.22-5.51-4.99,2.41-5.05,5.44-5.07,5.49,2.22,5.51,4.99Z"/>
      <path class="cls-4" d="M17.15,15c.02,2.14-1.92,3.89-4.31,3.91l-6.7.05c-2.39.02-4.35-1.71-4.37-3.84v-.52c-.02-2.14,1.91-3.89,4.31-3.91l6.7-.05c2.39-.02,4.35,1.71,4.37,3.84v.52Z"/>
      <path class="cls-2" d="M19.9,57.66c.02,2.14-1.42,3.89-3.19,3.9l-13.18.1c-1.77.01-3.23-1.72-3.25-3.85L0,18.74c-.02-2.14,1.42-3.89,3.19-3.9l13.19-.1c1.77-.01,3.23,1.72,3.25,3.85l.28,39.07h-.02Z"/>
      <path class="cls-5" d="M3.62,14.86c-.33-.03-1.1-.06-1.87.38-.94.52-1.3,1.39-1.45,1.77-.34.83-.32,1.59-.28,2.02l.21,38.79c0,.34.02.9.27,1.51.16.4.51,1.29,1.46,1.87.83.51,1.66.49,2.02.45l-.34-46.78h-.02Z"/>
      <path class="cls-1" d="M12.11,6.27c.01,1.38-1.1,2.52-2.5,2.53h0c-1.38.01-2.52-1.1-2.53-2.5l-.03-3.77C7.04,1.16,8.15.01,9.55,0h0c1.38-.01,2.52,1.1,2.53,2.5l.03,3.79v-.02Z"/>
      <rect class="cls-3" x="15.03" y="25.95" width="4.65" height=".78" transform="translate(-.19 .13) rotate(-.42)"/>
      <rect class="cls-3" x="15.07" y="31.9" width="4.65" height=".78" transform="translate(-.23 .13) rotate(-.42)"/>
      <rect class="cls-3" x="15.11" y="37.05" width="4.65" height=".78" transform="translate(-.27 .13) rotate(-.42)"/>
      <rect class="cls-3" x="15.15" y="42.97" width="4.65" height=".78" transform="translate(-.32 .13) rotate(-.42)"/>
      <rect class="cls-3" x="15.18" y="46.71" width="4.65" height=".78" transform="translate(-.34 .13) rotate(-.42)"/>
      <rect class="cls-3" x="15.22" y="52.65" width="4.65" height=".78" transform="translate(-.39 .13) rotate(-.42)"/>
    </g>
  </g>
</svg>