<?xml version="1.0" encoding="UTF-8"?>
<svg id="Layer_2" data-name="Layer 2" xmlns="http://www.w3.org/2000/svg" viewBox="0 0 92.71 89.19">
  <defs>
    <style>
      .cls-1 {
        fill: #fe9ba3;
      }

      .cls-1, .cls-2, .cls-3, .cls-4 {
        fill-rule: evenodd;
      }

      .cls-1, .cls-2, .cls-3, .cls-4, .cls-5 {
        stroke-width: 0px;
      }

      .cls-2 {
        fill: #669da0;
      }

      .cls-3 {
        fill: #005b60;
      }

      .cls-4 {
        fill: #cb6870;
      }

      .cls-5 {
        fill: #fe828c;
      }
    </style>
  </defs>
  <g id="separated">
    <g>
      <g>
        <path class="cls-1" d="M72.03,37.39c-.45.05-.91.11-1.38.11-5.33,0-9.65-3.24-9.65-7.24s4.32-7.24,9.65-7.24c.47,0,.92.06,1.38.11v14.26h0ZM72.03,39.56v49.63h-4.18c-1.53,0-3.04-.92-3.42-2.19l-3.07-12.28h-6.22l7.56-25.65s0-.01,0-.02c.15-.54-.32-1.08-1.04-1.19-.7-.11-1.37.22-1.55.73,0,.03,0,.06-.02.09l-6.11,15.89c-.53,1.37-2.44,2.16-4.27,1.77-1.83-.4-2.89-1.83-2.36-3.2l5.87-15.27c1.29-4.74,6.98-8.31,13.82-8.31h4.99Z"/>
        <path class="cls-4" d="M90,66.38c-1.86.31-3.7-.57-4.11-1.97l-4.67-15.9c-.23-.48-.89-.77-1.58-.65-.74.13-1.21.68-1.04,1.24,0,.02,0,.03,0,.04l7.54,25.58h-6.24l-3.1,12.28c-.38,1.27-1.89,2.19-3.43,2.19h-2.74v-49.63h3.61c6.18,0,11.42,2.92,13.32,6.98.13.19.24.39.3.61l4.74,16.15c.41,1.39-.76,2.77-2.62,3.08h0ZM70.65,37.5v-14.47c5.33,0,9.65,3.24,9.65,7.24s-4.32,7.24-9.65,7.24h0Z"/>
      </g>
      <path class="cls-2" d="M22.06,37.39c-.45.05-.91.11-1.38.11-5.33,0-9.65-3.24-9.65-7.24s4.32-7.24,9.65-7.24c.47,0,.92.06,1.38.11v14.26h0ZM22.06,39.56v29.98c0-.57-.62-1.03-1.38-1.03s-1.38.46-1.38,1.03v16.02c0,2-2.16,3.62-4.83,3.62s-4.82-1.62-4.82-3.62v-36.7c0-.57-.61-1.03-1.38-1.03s-1.38.46-1.38,1.03v14.99c0,1.43-1.54,2.58-3.45,2.58s-3.44-1.16-3.44-2.58v-16.54c0-.22.05-.43.12-.63.75-4.02,5.34-7.12,10.91-7.12h11.03Z"/>
      <path class="cls-3" d="M43.03,66.31c-1.53.47-3.28-.26-4.12-1.78-1.36-5.22-2.72-10.44-4.08-15.66h-.01c-.1-.58-.73-1.04-1.54-1.04s-1.43.46-1.53,1.04h-.04v36.7c0,2-2.16,3.62-4.82,3.62s-4.82-1.62-4.82-3.62v-16.02c0-.57-.62-1.03-1.38-1.03v-28.95h9.65c5.04,0,9.28,2.53,10.6,5.99.1.17.18.36.23.55l4.28,17.28c-.19,1.39-1.14,2.54-2.4,2.92ZM20.68,37.5v-14.47c5.33,0,9.65,3.24,9.65,7.24,0,4-4.32,7.24-9.65,7.24h0Z"/>
      <g>
        <path class="cls-5" d="M34.8,6.5h7.04c1.55,0,2.81,1.26,2.81,2.81v.83c0,1.55-1.26,2.81-2.81,2.81h-7.04v-6.44h0Z"/>
        <path class="cls-5" d="M24.63,10.78l7.82,8.19c.95,1,2.64.32,2.64-1.06v-8.19s0-8.19,0-8.19c0-1.38-1.69-2.06-2.64-1.06l-7.82,8.19c-.57.59-.57,1.52,0,2.12Z"/>
        <path class="cls-5" d="M47.89,6.5h7.04c1.55,0,2.81,1.26,2.81,2.81v.83c0,1.55-1.26,2.81-2.81,2.81h-7.04v-6.44h0Z" transform="translate(105.63 19.45) rotate(180)"/>
        <path class="cls-5" d="M67.91,10.78l-7.82,8.19c-.95,1-2.64.32-2.64-1.06v-8.19s0-8.19,0-8.19c0-1.38,1.69-2.06,2.64-1.06l7.82,8.19c.57.59.57,1.52,0,2.12Z"/>
      </g>
    </g>
  </g>
</svg>