<?xml version="1.0" encoding="UTF-8"?>
<svg id="Layer_2" data-name="Layer 2" xmlns="http://www.w3.org/2000/svg" viewBox="0 0 65.96 65.96">
  <defs>
    <style>
      .cls-1 {
        fill: none;
      }

      .cls-1, .cls-2, .cls-3 {
        stroke-width: 0px;
      }

      .cls-2 {
        fill: #fe9ba3;
      }

      .cls-2, .cls-3 {
        fill-rule: evenodd;
      }

      .cls-3 {
        fill: #cb6870;
      }
    </style>
  </defs>
  <g id="single">
    <g>
      <rect class="cls-1" width="65.96" height="65.96"/>
      <path class="cls-2" d="M34.52,14.32c-.44.05-.88.11-1.33.11-5.16,0-9.33-3.23-9.33-7.21S28.03,0,33.19,0c.46,0,.89.06,1.33.11v14.22h0ZM34.52,16.49v49.47h-4.04c-1.48,0-2.94-.92-3.31-2.18l-2.97-12.24h-6.02l7.32-25.57s0-.01,0-.02c.14-.54-.31-1.07-1.01-1.18-.68-.11-1.33.22-1.5.73,0,.03,0,.06-.02.09l-5.91,15.84c-.51,1.37-2.36,2.16-4.13,1.76-1.77-.39-2.79-1.82-2.28-3.19l5.68-15.22c1.25-4.72,6.75-8.28,13.37-8.28h4.83Z"/>
      <path class="cls-3" d="M51.91,43.22c-1.8.31-3.58-.57-3.97-1.96l-4.52-15.85c-.23-.48-.86-.77-1.53-.65-.72.13-1.17.68-1,1.23,0,.02,0,.03,0,.04l7.3,25.49h-6.04l-3,12.24c-.37,1.27-1.83,2.18-3.32,2.18h-2.65V16.49h3.49c5.98,0,11.05,2.91,12.89,6.96.12.19.23.39.29.61l4.59,16.1c.4,1.39-.74,2.76-2.54,3.07h0ZM33.19,14.43V0c5.15,0,9.34,3.23,9.34,7.21s-4.18,7.21-9.34,7.21h0Z"/>
    </g>
  </g>
</svg>