<?xml version="1.0" encoding="UTF-8"?>
<svg id="Layer_2" data-name="Layer 2" xmlns="http://www.w3.org/2000/svg" viewBox="0 0 83.12 79.44">
  <defs>
    <style>
      .cls-1 {
        fill: #fe9ba3;
      }

      .cls-1, .cls-2, .cls-3, .cls-4, .cls-5, .cls-6 {
        stroke-width: 0px;
      }

      .cls-2 {
        fill: #afa1c8;
      }

      .cls-3 {
        fill: #cb6870;
      }

      .cls-4 {
        fill: #337c80;
      }

      .cls-5 {
        fill: #f4ebd4;
      }

      .cls-6 {
        fill: #fff8e3;
      }
    </style>
  </defs>
  <g id="town-hall">
    <g>
      <path class="cls-1" d="M4.62,16.23h73.88c.36,0,.65.31.65.68v4.84c0,.38-.29.68-.65.68H4.62c-.36,0-.65-.31-.65-.68v-4.84c0-.38.29-.68.65-.68Z"/>
      <rect class="cls-2" x="7.39" y="22.43" width="68.34" height="50.37"/>
      <rect class="cls-6" x="57.16" y="28.54" width="5.26" height="38.92"/>
      <rect class="cls-6" x="20.7" y="28.54" width="5.26" height="38.92"/>
      <path class="cls-5" d="M56.67,67.47h6.24c1.33,0,2.41,1.13,2.41,2.53h0v2.81h-11.05v-2.81c0-1.4,1.08-2.53,2.41-2.53Z"/>
      <path class="cls-5" d="M20.21,67.47h6.24c1.33,0,2.41,1.13,2.41,2.53h0v2.81h-11.05v-2.81c0-1.4,1.08-2.53,2.41-2.53h0Z"/>
      <rect class="cls-3" x="17.61" y="22.43" width="47.9" height="6.11"/>
      <polygon class="cls-3" points="41.56 0 9.62 16.23 73.49 16.23 41.56 0"/>
      <path class="cls-4" d="M41.56,44.46h0c3.27,0,5.92,2.78,5.92,6.21v22.13h-11.83v-22.13c0-3.43,2.65-6.21,5.92-6.21Z"/>
      <ellipse class="cls-6" cx="41.56" cy="36.62" rx="2.4" ry="2.52"/>
      <path class="cls-6" d="M69.59,59.78c-.86,0-1.56-.73-1.56-1.63h0v-20.29c0-.9.7-1.63,1.56-1.63s1.56.73,1.56,1.63v20.28c0,.9-.7,1.63-1.55,1.63h0Z"/>
      <path class="cls-6" d="M13.52,59.78c-.86,0-1.56-.73-1.56-1.63h0v-20.29c0-.9.7-1.63,1.56-1.63s1.56.73,1.56,1.63v20.28c0,.9-.7,1.63-1.55,1.63h0Z"/>
      <rect class="cls-3" x="3.21" y="72.8" width="76.7" height="5"/>
      <path class="cls-4" d="M81.56,79.44H1.56c-.86,0-1.56-.73-1.56-1.63s.7-1.63,1.56-1.63h80c.86,0,1.56.73,1.56,1.63s-.7,1.63-1.56,1.63Z"/>
    </g>
  </g>
</svg>