<?xml version="1.0" encoding="UTF-8"?>
<svg id="Layer_2" data-name="Layer 2" xmlns="http://www.w3.org/2000/svg" viewBox="0 0 95.42 84.74">
  <defs>
    <style>
      .cls-1 {
        fill: #fe9ba3;
      }

      .cls-1, .cls-2, .cls-3, .cls-4, .cls-5, .cls-6, .cls-7, .cls-8, .cls-9, .cls-10, .cls-11 {
        stroke-width: 0px;
      }

      .cls-2 {
        fill: #feb4ba;
      }

      .cls-3 {
        fill: #afa1c8;
      }

      .cls-4 {
        fill: #cb6870;
      }

      .cls-5 {
        fill: #b3cecf;
      }

      .cls-6 {
        fill: #337c80;
      }

      .cls-7 {
        fill: #00494d;
      }

      .cls-8 {
        fill: #f4ebd4;
      }

      .cls-9 {
        fill: #fff8e3;
      }

      .cls-10 {
        fill: #669da0;
      }

      .cls-11 {
        fill: #fe828c;
      }
    </style>
  </defs>
  <g id="unknown-building">
    <g>
      <g>
        <rect class="cls-7" x="52.05" y="67.49" width="14.14" height="4.93"/>
        <path class="cls-6" d="M66.19,67.49v2.46h-10.37c-1.04,0-1.89-1.1-1.89-2.46h12.26Z"/>
        <rect class="cls-10" x="52.05" y="52.7" width="4.71" height="7.39"/>
        <rect class="cls-10" x="52.05" y="60.1" width="4.71" height="7.39"/>
        <path class="cls-5" d="M56.77,60.1v4.93c-1.56,0-2.83-1.66-2.83-3.7v-1.23h2.83Z"/>
        <rect class="cls-10" x="56.77" y="60.1" width="4.71" height="7.39"/>
        <rect class="cls-10" x="61.48" y="60.1" width="4.71" height="7.39"/>
        <polygon class="cls-11" points="69.96 37.92 69.96 84.74 66.19 84.74 66.19 52.7 52.05 52.7 52.05 37.92 69.96 37.92"/>
        <path class="cls-2" d="M69.96,37.92c0,45.9-.09,44.36,0,44.36-1.04,0-1.89-1.1-1.89-2.46v-28.34c0-.68-.42-1.23-.94-1.23h-10.37c-1.56,0-2.83-1.66-2.83-3.7v-8.63h16.03Z"/>
        <rect class="cls-11" x="53.94" y="72.42" width="12.26" height="12.32"/>
        <path class="cls-2" d="M66.19,72.42v9.86h-2.83c-4.17,0-7.54-4.41-7.54-9.86h10.37Z"/>
        <rect class="cls-10" x="61.48" y="52.7" width="4.71" height="7.39"/>
        <rect class="cls-10" x="56.77" y="52.7" width="4.71" height="7.39"/>
        <rect class="cls-11" x="69.96" y="72.42" width="25.45" height="12.32"/>
        <path class="cls-2" d="M95.42,72.42v9.86h-20.74c-1.56,0-2.83-1.66-2.83-3.7v-6.16h23.57Z"/>
        <rect class="cls-11" x="69.96" y="47.77" width="21.68" height="19.72"/>
        <path class="cls-2" d="M91.65,47.77v17.25h-16.97c-1.56,0-2.83-1.66-2.83-3.7v-13.56h19.8Z"/>
        <rect class="cls-6" x="85.05" y="77.35" width="4.71" height="7.39"/>
        <rect class="cls-6" x="75.62" y="77.35" width="4.71" height="7.39"/>
        <path class="cls-5" d="M80.33,77.35v4.93c-1.56,0-2.83-1.66-2.83-3.7v-1.23h2.83Z"/>
        <path class="cls-5" d="M89.76,77.35v4.93c-1.56,0-2.83-1.66-2.83-3.7v-1.23h2.83Z"/>
        <rect class="cls-7" x="69.96" y="67.49" width="25.45" height="4.93"/>
        <path class="cls-6" d="M95.42,67.49v2.46h-21.68c-1.04,0-1.89-1.1-1.89-2.46h23.57Z"/>
        <rect class="cls-6" x="80.33" y="55.17" width="11.31" height="7.39"/>
        <path class="cls-5" d="M91.65,55.17v4.93h-5.66c-2.08,0-3.77-2.21-3.77-4.93h9.43Z"/>
        <rect class="cls-7" x="69.96" y="42.85" width="23.57" height="4.93"/>
        <path class="cls-6" d="M93.53,42.85v2.46h-19.8c-1.04,0-1.89-1.1-1.89-2.46h21.68Z"/>
        <path class="cls-5" d="M61.48,60.1v4.93c-1.56,0-2.83-1.66-2.83-3.7v-1.23h2.83Z"/>
        <path class="cls-5" d="M66.19,60.1v4.93c-1.56,0-2.83-1.66-2.83-3.7v-1.23h2.83Z"/>
        <path class="cls-5" d="M56.77,52.7v4.93c-1.56,0-2.83-1.66-2.83-3.7v-1.23h2.83Z"/>
        <path class="cls-5" d="M61.48,52.7v4.93c-1.56,0-2.83-1.66-2.83-3.7v-1.23h2.83Z"/>
        <path class="cls-5" d="M66.19,52.7v4.93c-1.56,0-2.83-1.66-2.83-3.7v-1.23h2.83Z"/>
      </g>
      <g>
        <path class="cls-1" d="M2.57,47.48h41.14c.2,0,.36.18.36.4v2.85c0,.22-.16.4-.36.4H2.57c-.2,0-.36-.18-.36-.4v-2.85c0-.22.16-.4.36-.4Z"/>
        <rect class="cls-3" x="4.11" y="51.14" width="38.06" height="29.69"/>
        <rect class="cls-9" x="31.83" y="54.74" width="2.93" height="22.94"/>
        <rect class="cls-9" x="11.53" y="54.74" width="2.93" height="22.94"/>
        <path class="cls-8" d="M31.56,77.69h3.48c.74,0,1.34.67,1.34,1.49h0v1.66h-6.15v-1.66c0-.82.6-1.49,1.34-1.49Z"/>
        <path class="cls-8" d="M11.25,77.69h3.47c.74,0,1.34.67,1.34,1.49h0v1.66h-6.15v-1.66c0-.82.6-1.49,1.34-1.49h0Z"/>
        <rect class="cls-4" x="9.81" y="51.14" width="26.67" height="3.6"/>
        <polygon class="cls-4" points="23.14 37.92 5.36 47.48 40.93 47.48 23.14 37.92"/>
        <path class="cls-6" d="M23.14,64.13h0c1.82,0,3.29,1.64,3.29,3.66v13.04h-6.59v-13.04c0-2.02,1.48-3.66,3.29-3.66Z"/>
        <ellipse class="cls-9" cx="23.14" cy="59.5" rx="1.34" ry="1.49"/>
        <path class="cls-9" d="M38.76,73.16c-.48,0-.87-.43-.87-.96h0v-11.96c0-.53.39-.96.87-.96s.87.43.87.96v11.96c0,.53-.39.96-.87.96h0Z"/>
        <path class="cls-9" d="M7.53,73.16c-.48,0-.87-.43-.87-.96h0v-11.96c0-.53.39-.96.87-.96s.87.43.87.96v11.96c0,.53-.39.96-.87.96h0Z"/>
        <rect class="cls-4" x="1.79" y="80.83" width="42.71" height="2.95"/>
        <path class="cls-6" d="M45.42,84.74H.87c-.48,0-.87-.43-.87-.96s.39-.96.87-.96h44.55c.48,0,.87.43.87.96s-.39.96-.87.96Z"/>
      </g>
      <g>
        <g>
          <path class="cls-11" d="M38.9,23.59c-.2-.43-.38-.96-.54-1.58-.16-.62-.24-1.24-.24-1.85,0-1.11.25-2.08.74-2.89s1.17-1.58,2.03-2.31c.66-.58,1.29-1.13,1.91-1.65.62-.52,1.2-1.05,1.74-1.58.5-.5.94-1.06,1.31-1.65.37-.59.55-1.26.55-1.98,0-1.07-.4-1.95-1.21-2.63-.81-.68-1.86-1.03-3.17-1.03-1.19,0-2.25.31-3.19.93-.93.62-1.71,1.48-2.33,2.6l-4.63-2.03c.96-1.74,2.36-3.16,4.22-4.27,1.85-1.11,4.01-1.66,6.46-1.66,2.87,0,5.2.72,6.99,2.15,1.79,1.43,2.68,3.21,2.68,5.34,0,1.01-.16,1.92-.48,2.72-.32.8-.79,1.57-1.41,2.3-.59.7-1.24,1.35-1.96,1.95-.72.6-1.48,1.22-2.27,1.84-.89.67-1.59,1.31-2.09,1.92-.5.61-.76,1.29-.76,2.05,0,.45.06.84.19,1.19s.26.66.39.93l-4.94,1.2Z"/>
          <path class="cls-11" d="M41.64,32.96c-1.04,0-1.92-.32-2.63-.95-.71-.63-1.07-1.4-1.07-2.31s.36-1.67,1.07-2.29c.71-.62,1.59-.93,2.63-.93s1.91.31,2.62.93c.71.62,1.06,1.38,1.06,2.29s-.35,1.69-1.06,2.32-1.58.94-2.62.94Z"/>
        </g>
        <g>
          <path class="cls-11" d="M54.05,26.07c-.05-.29-.07-.64-.05-1.04.01-.4.07-.78.17-1.15.19-.67.5-1.2.94-1.6s.97-.75,1.61-1.04c.49-.24.97-.46,1.43-.66.46-.21.9-.42,1.31-.65.39-.22.74-.47,1.07-.76.32-.29.55-.66.67-1.09.18-.64.09-1.23-.27-1.78-.37-.55-.94-.93-1.72-1.16-.71-.2-1.4-.2-2.07.01-.66.21-1.28.6-1.84,1.16l-2.43-2.01c.87-.88,1.95-1.49,3.25-1.84,1.3-.35,2.68-.31,4.15.11,1.72.49,2.99,1.32,3.82,2.48.83,1.16,1.06,2.38.69,3.65-.17.61-.42,1.12-.75,1.55-.33.43-.74.8-1.24,1.13-.47.32-.97.6-1.51.83-.54.24-1.09.48-1.67.71-.65.25-1.17.51-1.58.79-.41.28-.67.65-.8,1.1-.08.27-.11.52-.09.75s.04.44.08.62l-3.16-.12Z"/>
          <path class="cls-11" d="M54.1,32.15c-.62-.18-1.09-.52-1.41-1.02-.32-.5-.4-1.02-.25-1.56s.5-.94,1.03-1.19c.53-.25,1.11-.28,1.73-.1s1.09.51,1.41,1c.32.49.4,1.01.24,1.55s-.5.95-1.03,1.21-1.1.29-1.73.11Z"/>
        </g>
      </g>
    </g>
  </g>
</svg>