<?xml version="1.0" encoding="UTF-8"?>
<svg id="Layer_2" data-name="Layer 2" xmlns="http://www.w3.org/2000/svg" viewBox="0 0 84.52 84.52">
  <defs>
    <style>
      .cls-1, .cls-2 {
        fill: none;
        stroke: #414042;
        stroke-miterlimit: 10;
      }

      .cls-3 {
        fill: #fff;
      }

      .cls-3, .cls-4, .cls-5, .cls-6, .cls-7 {
        stroke-width: 0px;
      }

      .cls-4 {
        fill: #337c80;
      }

      .cls-5 {
        fill: #dbc9fa;
      }

      .cls-6 {
        fill: #414042;
      }

      .cls-2 {
        stroke-linecap: round;
      }

      .cls-7 {
        fill: #fe828c;
      }
    </style>
  </defs>
  <g id="gender-other">
    <g>
      <g>
        <path class="cls-7" d="M84.52,84.52v-2.59c0-10.78-8.87-19.65-19.65-19.65h0c-10.78,0-19.65,8.87-19.65,19.65v2.59h39.29Z"/>
        <line class="cls-1" x1="55.46" y1="77.42" x2="55.46" y2="84.52"/>
        <line class="cls-1" x1="75.38" y1="77.42" x2="75.38" y2="84.52"/>
        <path class="cls-3" d="M53.69,53.68h-.68c-.82,0-1.5-.68-1.5-1.5v-2.46c0-.82.68-1.5,1.5-1.5h.68v5.46Z"/>
        <path class="cls-2" d="M53.69,53.68h-.68c-.82,0-1.5-.68-1.5-1.5v-2.46c0-.82.68-1.5,1.5-1.5h.68v5.46Z"/>
        <path class="cls-3" d="M53.69,40.86v12.96c0,6.82,5.59,12.42,12.42,12.42h0c6.82,0,12.42-5.59,12.42-12.42v-12.96l-14.05-5.59-10.78,5.59Z"/>
        <path class="cls-2" d="M53.69,40.86v12.96c0,6.82,5.59,12.42,12.42,12.42h0c6.82,0,12.42-5.59,12.42-12.42v-12.96l-14.05-5.59-10.78,5.59Z"/>
        <path class="cls-5" d="M80.84,43.45c0-8.05-6.55-14.46-14.46-14.46s-14.46,6.55-14.46,14.46v3.82l12.14-8.73,13.1,18.15v16.37l3.68,7.5v-37.11Z"/>
        <path class="cls-1" d="M66.38,28.85c-8.05,0-14.46,6.55-14.46,14.46v3.82l12.14-8.73,13.1,18.28v17.05l3.14,5.73c.41.68.68.55.68-.14v-36.02c-.14-7.91-6.69-14.46-14.6-14.46Z"/>
        <circle class="cls-6" cx="66.1" cy="83.15" r=".68"/>
        <circle class="cls-6" cx="66.1" cy="79.19" r=".68"/>
        <circle class="cls-6" cx="66.1" cy="75.1" r=".68"/>
        <circle class="cls-6" cx="66.1" cy="71.14" r=".68"/>
      </g>
      <g>
        <path class="cls-5" d="M42.34,84.52v-2.94c0-11.61-9.56-21.17-21.17-21.17h0c-11.61,0-21.17,9.56-21.17,21.17v2.94h42.34Z"/>
        <line class="cls-1" x1="11.03" y1="76.87" x2="11.03" y2="84.52"/>
        <line class="cls-1" x1="32.49" y1="76.87" x2="32.49" y2="84.52"/>
        <path class="cls-3" d="M6.32,53.06h-.74c-1.03,0-1.76-.74-1.76-1.76v-2.79c0-1.03.74-1.76,1.76-1.76h.74v6.32Z"/>
        <path class="cls-3" d="M34.84,53.06h.74c1.03,0,1.76-.74,1.76-1.76v-2.79c0-1.03-.74-1.76-1.76-1.76h-.74v6.32Z"/>
        <path class="cls-2" d="M6.32,53.06h-.74c-1.03,0-1.76-.74-1.76-1.76v-2.79c0-1.03.74-1.76,1.76-1.76h.74v6.32Z"/>
        <path class="cls-2" d="M34.84,53.06h.74c1.03,0,1.76-.74,1.76-1.76v-2.79c0-1.03-.74-1.76-1.76-1.76h-.74v6.32Z"/>
        <path class="cls-3" d="M6.32,41.3v12.05c0,7.79,6.32,14.26,14.26,14.26h0c7.79,0,14.26-6.32,14.26-14.26v-11.47c-1.62-10-10.73-12.94-15.14-12.79-4.12.15-11.91,4.41-13.38,12.2Z"/>
        <path class="cls-4" d="M34.84,45.56s-7.2-8.53-19.11-9.85c-.84,1.52-2.03,3.34-3.68,5.22-1.97,2.24-3.97,3.83-5.58,4.92-.14-.82-1.07-6.83,3.26-11.8,2.04-2.35,5.29-4.3,10.41-4.95-.15,0,14.85-.44,14.7,16.46Z"/>
        <path class="cls-1" d="M6.32,45.85s5.88-3.38,9.26-10.14c0,0,14.41,2.5,19.11,9.85"/>
        <path class="cls-1" d="M34.84,43.35c0-7.79-6.32-14.26-14.26-14.26h0c-7.79,0-14.26,6.32-14.26,14.26v9.85c0,7.79,6.32,14.26,14.26,14.26h0c7.79,0,14.26-6.32,14.26-14.26v-9.85Z"/>
        <path class="cls-4" d="M34.11,25.71s-10,10-18.96,5.59c0,0-2.21,8.53,10,7.64-.15.15,12.35-.29,8.97-13.23Z"/>
        <path class="cls-2" d="M15.14,34.24c.44,2.35,2.65,5.29,10,4.85,0,0,12.5-.29,8.97-13.23,0,0-3.68,3.53-8.38,5.59"/>
      </g>
      <g>
        <path class="cls-7" d="M38.09,20.94c-.18-.38-.34-.85-.48-1.41-.14-.55-.21-1.1-.21-1.64,0-.99.22-1.84.66-2.56s1.04-1.4,1.8-2.05c.58-.51,1.15-1,1.7-1.46.55-.46,1.07-.93,1.54-1.41.45-.45.83-.94,1.16-1.46.33-.53.49-1.11.49-1.76,0-.95-.36-1.73-1.07-2.34-.72-.61-1.65-.91-2.82-.91-1.06,0-2,.27-2.83.82-.83.55-1.52,1.32-2.07,2.31l-4.11-1.8c.85-1.54,2.1-2.81,3.74-3.79,1.65-.98,3.56-1.47,5.73-1.47,2.55,0,4.62.64,6.2,1.91,1.59,1.27,2.38,2.85,2.38,4.74,0,.9-.14,1.7-.42,2.41-.28.71-.7,1.39-1.25,2.04-.52.62-1.1,1.2-1.74,1.73-.64.53-1.31,1.08-2.01,1.63-.79.59-1.41,1.16-1.86,1.7-.45.54-.67,1.15-.67,1.82,0,.4.06.75.17,1.06s.23.58.35.82l-4.38,1.07Z"/>
        <path class="cls-7" d="M40.53,29.26c-.92,0-1.7-.28-2.34-.84-.63-.56-.95-1.24-.95-2.05s.32-1.48.95-2.03c.63-.55,1.41-.82,2.34-.82s1.7.27,2.32.82c.63.55.94,1.22.94,2.03s-.31,1.5-.94,2.06-1.4.83-2.32.83Z"/>
      </g>
      <g>
        <path class="cls-7" d="M51.43,22.42c-.02-.29,0-.63.06-1.02.05-.39.15-.76.29-1.1.25-.63.61-1.12,1.08-1.46s1.02-.63,1.67-.84c.5-.18.99-.34,1.46-.5.47-.15.92-.32,1.34-.5.4-.17.77-.38,1.12-.63.34-.25.6-.58.77-1,.24-.61.22-1.19-.08-1.76-.3-.57-.82-1.01-1.56-1.3-.67-.27-1.34-.34-2.01-.2-.67.14-1.3.45-1.91.94l-2.16-2.21c.94-.76,2.06-1.25,3.36-1.45,1.3-.2,2.65-.02,4.03.54,1.62.66,2.78,1.59,3.46,2.81.68,1.22.78,2.43.3,3.63-.23.57-.53,1.05-.89,1.43-.36.38-.8.71-1.32.98-.49.26-1.01.48-1.56.65-.55.18-1.11.35-1.7.52-.66.18-1.2.38-1.62.61-.42.23-.72.56-.9.99-.1.25-.16.49-.17.72s0,.43,0,.61l-3.07-.45Z"/>
        <path class="cls-7" d="M50.84,28.34c-.59-.24-1.01-.62-1.27-1.14-.26-.52-.28-1.04-.08-1.55s.58-.86,1.13-1.05c.54-.19,1.11-.16,1.7.08s1.01.61,1.27,1.12c.26.51.28,1.02.08,1.53s-.59.88-1.13,1.07-1.11.17-1.69-.07Z"/>
      </g>
    </g>
  </g>
</svg>