<?xml version="1.0" encoding="UTF-8"?>
<svg id="Layer_2" data-name="Layer 2" xmlns="http://www.w3.org/2000/svg" xmlns:xlink="http://www.w3.org/1999/xlink" viewBox="0 0 66.07 100.78">
  <defs>
    <style>
      .cls-1 {
        fill: #b14952;
      }

      .cls-1, .cls-2, .cls-3, .cls-4, .cls-5, .cls-6 {
        stroke-width: 0px;
      }

      .cls-2 {
        fill: url(#linear-gradient);
      }

      .cls-3 {
        fill: #afa1c8;
      }

      .cls-4 {
        fill: #f8f4fe;
      }

      .cls-5 {
        fill: #e2d4fb;
      }

      .cls-6 {
        fill: #fe828c;
      }
    </style>
    <linearGradient id="linear-gradient" x1="26.99" y1="-4.02" x2="26.99" y2="79.85" gradientTransform="translate(17.46 15.3) rotate(15.41) scale(.99 .92) skewX(-2.77)" gradientUnits="userSpaceOnUse">
      <stop offset="0" stop-color="#ffebed"/>
      <stop offset="1" stop-color="#feb4ba"/>
    </linearGradient>
  </defs>
  <g id="phone">
    <g>
      <rect class="cls-6" x="8.01" y="18.01" width="50.04" height="79.69" rx="10" ry="10" transform="translate(-15.36 12.06) rotate(-16.86)"/>
      <rect class="cls-2" x="9.68" y="20.24" width="45.24" height="70.39" rx="6.55" ry="6.55" transform="translate(-14.69 11.75) rotate(-16.86)"/>
      <ellipse class="cls-1" cx="44.13" cy="92.55" rx="2.23" ry="2.03" transform="translate(-24.94 16.77) rotate(-16.86)"/>
      <g>
        <path class="cls-3" d="M45.52,3.94v12.48c0,1.88-1.53,3.4-3.4,3.4h-4.54l-5,4.99c-.24.25-.67.08-.67-.27v-4.71h-15.88c-1.89,0-3.4-1.53-3.4-3.4V3.94c0-1.88,1.52-3.4,3.4-3.4h26.09c1.88,0,3.4,1.53,3.4,3.4Z"/>
        <path class="cls-5" d="M42.11,0h-26.09c-2.17,0-3.94,1.77-3.94,3.94v12.48c0,2.17,1.77,3.93,3.94,3.93h15.35v4.19c0,.37.22.71.57.86.12.05.23.07.36.07.23,0,.48-.1.65-.27l4.84-4.84h4.32c2.17,0,3.94-1.76,3.94-3.93V3.94c0-2.17-1.77-3.94-3.94-3.94ZM44.98,16.42c0,1.57-1.28,2.87-2.87,2.87h-4.54c-.14,0-.27.06-.37.16l-4.77,4.76v-4.38c0-.3-.23-.53-.52-.53h-15.88c-1.58,0-2.87-1.29-2.87-2.87V3.94c0-1.58,1.28-2.87,2.87-2.87h26.09c1.58,0,2.87,1.28,2.87,2.87v12.48Z"/>
        <path class="cls-4" d="M37.68,9.96c0,1.06-.85,1.91-1.91,1.91s-1.92-.85-1.92-1.91.86-1.92,1.92-1.92,1.91.86,1.91,1.92Z"/>
        <path class="cls-4" d="M30.98,9.96c0,1.06-.85,1.91-1.91,1.91s-1.91-.85-1.91-1.91.85-1.92,1.91-1.92,1.91.86,1.91,1.92Z"/>
        <path class="cls-4" d="M24.3,9.96c0,1.06-.86,1.91-1.92,1.91s-1.91-.85-1.91-1.91.85-1.92,1.91-1.92,1.92.86,1.92,1.92Z"/>
      </g>
      <g>
        <path class="cls-6" d="M28.28,41.48l-7.1,4,.26.64c.35.86,3.5,8.46,6.5,9.37,1.5.47,3.02.85,4.56,1.15l.39.07.29-.27c1.12-1.1,2.17-2.26,3.16-3.48,1.99-2.42.4-10.49.21-11.4l-.14-.68-8.13.62ZM35.11,51.94c-1.27,1.54-2.27,2.58-2.74,3.06-.65-.13-2.07-.44-3.98-1.02-1.6-.48-3.94-4.8-5.23-7.81l5.58-3.14,6.38-.48c.59,3.22,1.05,8.1-.02,9.4Z"/>
        <path class="cls-6" d="M28.45,48.29c-.4-.15-.84.03-1.02.4-.16.34-.05.77.27,1,.95.53,1.89,1.06,2.84,1.59.21.18.5.23.75.14.38-.14.47-.52.47-.55.56-1.84,1.11-3.68,1.67-5.52.03-.36-.17-.69-.49-.83-.36-.15-.81,0-1.02.37-.4,1.33-.81,2.67-1.21,4,0,.01-.05.24-.27.32-.17.06-.33-.02-.35-.03-.55-.3-1.1-.59-1.65-.89Z"/>
      </g>
    </g>
  </g>
</svg>