<?xml version="1.0" encoding="UTF-8"?>
<svg xmlns="http://www.w3.org/2000/svg" viewBox="0 0 80.02 76.81">
  <defs>
    <style>
      .cls-1 {
        fill: none;
        stroke: #ff9;
        stroke-miterlimit: 10;
      }

      .cls-2 {
        isolation: isolate;
      }

      .cls-3 {
        fill: #fe9ba3;
      }

      .cls-3, .cls-4, .cls-5, .cls-6 {
        fill-rule: evenodd;
        stroke-width: 0px;
      }

      .cls-4 {
        fill: #669da0;
      }

      .cls-7 {
        mix-blend-mode: multiply;
        opacity: .5;
      }

      .cls-5 {
        fill: #005b60;
      }

      .cls-6 {
        fill: #cb6870;
      }
    </style>
  </defs>
  <g class="cls-2">
    <g id="Layer_2" data-name="Layer 2">
      <g id="widowed">
        <g>
          <g>
            <path class="cls-3" d="M60.01,24.58c-.44.05-.88.11-1.33.11-5.16,0-9.33-3.27-9.33-7.3s4.18-7.3,9.33-7.3c.46,0,.89.06,1.33.11v14.38h0ZM60.01,26.77v50.04h-4.04c-1.48,0-2.94-.93-3.31-2.21l-2.97-12.39h-6.02l7.32-25.86s0-.01,0-.02c.14-.55-.31-1.09-1.01-1.2-.68-.11-1.33.22-1.5.74,0,.03,0,.06-.02.09l-5.91,16.03c-.51,1.38-2.36,2.18-4.13,1.78-1.77-.4-2.79-1.85-2.28-3.23l5.68-15.4c1.25-4.78,6.75-8.38,13.37-8.38h4.83Z"/>
            <path class="cls-6" d="M77.4,53.81c-1.8.31-3.58-.58-3.97-1.99l-4.52-16.03c-.23-.48-.86-.78-1.53-.66-.72.13-1.17.69-1,1.25,0,.02,0,.03,0,.04l7.3,25.79h-6.04l-3,12.39c-.37,1.28-1.83,2.21-3.32,2.21h-2.65V26.77h3.49c5.98,0,11.05,2.94,12.89,7.04.12.19.23.39.29.61l4.59,16.29c.4,1.41-.74,2.8-2.54,3.1h0ZM58.68,24.68v-14.6c5.15,0,9.34,3.27,9.34,7.3s-4.18,7.3-9.34,7.3h0Z"/>
          </g>
          <g class="cls-7">
            <path class="cls-4" d="M21.34,24.58c-.44.05-.88.11-1.33.11-5.16,0-9.34-3.27-9.34-7.3s4.18-7.3,9.34-7.3c.46,0,.89.06,1.33.11v14.38h0ZM21.34,26.77v30.23c0-.58-.6-1.04-1.33-1.04s-1.33.47-1.33,1.04v16.16c0,2.02-2.09,3.65-4.67,3.65s-4.67-1.63-4.67-3.65v-37.01c0-.57-.59-1.04-1.33-1.04s-1.34.47-1.34,1.04v15.12c0,1.44-1.49,2.61-3.33,2.61s-3.33-1.17-3.33-2.61v-16.68c0-.22.05-.43.11-.63.72-4.06,5.17-7.18,10.55-7.18h10.67Z"/>
            <path class="cls-5" d="M41.29,53.83c-.58.08-1.14.03-1.66-.1,1-.3,1.71-1.05,1.71-1.94,0-1.15-1.19-2.08-2.67-2.08-.63,0-1.2.18-1.65.46l-3.33-14.01h-.01c-.09-.59-.71-1.05-1.49-1.05s-1.39.46-1.48,1.05h-.04v37.01c0,2.02-2.09,3.65-4.67,3.65s-4.67-1.63-4.67-3.65v-16.16c0-.58-.6-1.04-1.33-1.04v-29.19h9.33c4.87,0,8.97,2.56,10.25,6.04.09.18.18.36.22.55l4.14,17.43c.33,1.41-.86,2.78-2.67,3.04h0ZM20.01,24.68v-14.6c5.15,0,9.33,3.27,9.33,7.3,0,4.03-4.18,7.3-9.33,7.3h0Z"/>
          </g>
          <ellipse class="cls-1" cx="19.93" cy="2.94" rx="9.26" ry="2.44"/>
        </g>
      </g>
    </g>
  </g>
</svg>