<?xml version="1.0" encoding="UTF-8"?>
<svg id="Layer_2" data-name="Layer 2" xmlns="http://www.w3.org/2000/svg" viewBox="0 0 295.92 169.31">
  <defs>
    <style>
      .cls-1 {
        fill: #cb6870;
      }

      .cls-1, .cls-2 {
        stroke-width: 0px;
      }

      .cls-2 {
        fill: #fe828c;
      }
    </style>
  </defs>
  <g id="Layer_1-2" data-name="Layer 1">
    <g>
      <path class="cls-2" d="M239.65,82.81c-.71-3.08-2.69-4.62-5.8-4.59-3.04.02-5.09,1.65-5.67,4.76-.32,1.71-.42,3.48-.42,5.23,0,7.33.08,14.67.1,22,0,.6.14,1.5-.44,1.73-.71.29-.92-.67-1.31-1.1-.85-.95-1.6-1.99-2.45-2.94-.64-.72-1.38-1.51-2.44-.73-1.18.87-.57,1.81.06,2.69,2.05,2.85,4.11,5.69,6.15,8.54.57.8,1.13,1.67,2.28,1.34,1.25-.36,1.3-1.41,1.29-2.51-.04-9.41-.06-18.82-.07-28.23,0-1.67-.05-3.36.12-5.02.21-1.99,1.58-2.85,3.56-2.51,1.99.34,2.21,1.8,2.21,3.4,0,7.82,0,15.63,0,23.45,0,7.58-.01,15.15,0,22.73,0,1.74-.04,3.43-2.03,4.14-2.06.74-3.09-.68-4.09-2.06-8.43-11.7-16.85-23.41-25.27-35.13-.62-.87-1.24-1.75-2.5-1.38-1.27.38-1.27,1.44-1.26,2.53.04,10.45.06,20.89.08,31.34,0,.87-.03,1.76-.2,2.61-.32,1.55-1.31,2.23-2.93,2.18-2.65-.08-2.81-1.95-2.82-3.85-.04-7.26-.02-14.51-.02-21.77,0-1.21-.13-2.32-1.74-2.24-1.56.08-1.37,1.26-1.37,2.28,0,6.86-.03,13.72,0,20.57,0,1.18.13,2.4.42,3.54.82,3.35,3.09,4.95,6.46,4.71,2.78-.2,4.83-2.43,5.11-5.68.14-1.66.22-3.34.22-5.01.02-7.5,0-14.99.02-22.49,0-.5-.3-1.24.43-1.44.53-.15.74.46,1.01.83,5.08,7.04,10.15,14.1,15.25,21.13,2.57,3.54,5.09,7.14,7.87,10.52,2.01,2.44,4.44,2.78,7.1,1.52,2.56-1.22,3.43-3.46,3.43-6.08.03-15.39.02-30.78,0-46.17,0-.94-.16-1.91-.38-2.83Z"/>
      <path class="cls-2" d="M156.72,126.35c-5.42-.22-10.85-.24-16.28-.16-4.37.07-4.78-.43-4.63-4.91.2-5.97.11-11.96.1-17.94,0-1.04-.13-2.15-1.63-2.15-1.51,0-1.55,1.01-1.55,2.13,0,7.26-.01,14.51,0,21.77,0,3.66.68,4.34,4.31,4.34,6.3,0,12.61-.02,18.91.01,2.75.02,4.06,1.25,3.74,3.46-.38,2.6-2.46,2.64-4.39,2.65-7.82.04-15.65.02-23.47.02-4.37,0-5.32-.95-5.33-5.34,0-11.8,0-23.61,0-35.41,0-3.59.04-7.18.08-10.76.02-2,.76-3.45,3.03-3.5,2.34-.05,3.02,1.54,3.09,3.45.12,3.51.09,7.02.11,10.52,0,1.02.44,1.78,1.51,1.74.87-.03,1.42-.64,1.43-1.6.06-4.06.5-8.13-.16-12.17-.39-2.35-1.52-4.14-4.02-4.81-4.65-1.25-8.01,1.35-8.09,6.59-.11,7.89-.03,15.79-.03,23.68-.05,0-.1,0-.15,0,0,3.91-.02,7.82,0,11.72.03,3.99.05,7.97.16,11.95.13,4.72,2.23,6.9,6.95,6.94,8.62.08,17.24.06,25.87,0,3.85-.02,6.64-2.63,6.71-6.04.07-3.32-2.48-6.04-6.27-6.19Z"/>
      <path class="cls-2" d="M293.24,126.97c-4.9-6.39-9.74-12.83-14.73-19.15-1.47-1.86-1.33-3.18.4-4.66,1.51-1.29,2.92-2.72,4.33-4.12,3.56-3.55,7.2-7.03,10.61-10.72,2.91-3.15,2.67-6.79-.26-9.25-2.33-1.96-5.44-1.89-8.26.62-3.09,2.75-5.93,5.79-8.87,8.72-4.47,4.45-8.92,8.91-13.38,13.36-.5.5-1.02,1.29-1.73,1.06-.92-.3-.37-1.24-.37-1.9-.02-2.79-.03-5.58,0-8.38.01-1.13-.11-2.26-1.49-2.23-1.44.03-1.67,1.13-1.63,2.4.08,2.23.02,4.46.02,6.69-.01,0-.03,0-.04,0,0,2.23.02,4.46,0,6.69-.01,1.06-.09,2.16,1.12,2.64,1.23.49,2.08-.16,2.93-1.02,8.24-8.35,16.5-16.67,24.77-24.99.5-.5,1.09-.94,1.67-1.35,1.35-.94,2.57-.61,3.61.53,1.71,1.86.67,3.36-.72,4.75-5.2,5.18-10.4,10.35-15.63,15.5-2.51,2.47-2.63,3.56-.5,6.34,2.62,3.41,5.27,6.81,7.89,10.23,2.91,3.8,5.82,7.6,8.7,11.42,1.18,1.57,1.55,3.12-.29,4.57-1.78,1.39-3.1.66-4.27-.82-1.88-2.38-3.72-4.79-5.59-7.17-.59-.76-1.37-1.2-2.29-.66-.82.47-1.03,1.3-.45,2.04,2.5,3.19,4.42,6.88,7.77,9.34,2.24,1.64,4.66,1.48,6.82-.27,2.29-1.86,3-4.28,2.01-6.8-.5-1.28-1.32-2.36-2.14-3.44Z"/>
      <path class="cls-2" d="M272.9,115.39c-4.06-5.16-3.39-7.32-10.02-.75-4.08,4.05-6.19,8.79-5.1,14.67.21,1.15.14,2.39-.01,3.56-.22,1.65-1.31,2.53-2.98,2.47-1.54-.05-2.55-.85-2.73-2.45-.1-.87-.17-1.74-.17-2.62,0-14.82,0-29.64,0-44.47,0-.79.02-1.6.12-2.38.21-1.58,1.15-2.33,2.75-2.43,1.91-.12,2.73.95,3.12,2.6.26,1.1.94,1.67,2.1,1.34,1.17-.34.96-1.28.83-2.16-.52-3.39-3.63-5.57-6.97-4.88-3.41.71-5.06,2.84-5.07,6.74-.03,7.81,0,15.62,0,23.43,0,2.55,0,5.1,0,7.65.02,5.66-.04,11.32.11,16.97.09,3.21,2.58,5.64,5.56,5.85,3.16.22,5.72-1.6,6.24-4.67.38-2.26.74-4.54.18-6.87-.68-2.83.11-5.38,2.03-7.54,1.16-1.31,2.53-2.45,3.63-3.8,1.22-1.49,1.96-1.02,2.9.28,1.82,2.52,3.71,4.98,5.63,7.43.62.79,1.37,1.82,2.55.87,1.09-.87.54-1.86-.09-2.73-1.51-2.05-3.02-4.11-4.59-6.11Z"/>
      <path class="cls-2" d="M182.48,118.55c-1.61-.02-1.52,1.31-1.53,2.44-.06,3.82-.09,7.65-.16,11.47-.04,1.83-1.09,2.79-2.86,2.86-1.81.08-2.82-.9-2.98-2.7-.06-.71-.04-1.43-.04-2.15,0-9.25.01-18.49-.02-27.74,0-1.16.07-2.6-1.72-2.55-1.68.04-1.46,1.39-1.46,2.48-.02,4.86,0,9.73,0,14.59,0,4.94-.07,9.88.02,14.82.08,3.99,2.52,6.45,6.17,6.45,3.52,0,5.94-2.39,6.08-6.27.14-3.74.09-7.49.09-11.24,0-1.14-.05-2.44-1.59-2.46Z"/>
      <path class="cls-2" d="M183.63,81.87c-.68-2.97-2.69-4.5-5.64-4.54-3.07-.05-5.22,1.49-5.88,4.53-.96,4.4-.33,8.89-.38,13.34-.01.84.55,1.3,1.37,1.36.94.08,1.52-.37,1.64-1.32.09-.71.15-1.42.16-2.13.04-3.27.04-6.53.1-9.8.03-1.68.87-2.69,2.62-2.76,1.78-.08,2.91.74,3.14,2.54.13,1.02.18,2.06.18,3.09.01,8.53,0,17.05.01,25.58,0,1.05-.05,2.21,1.45,2.25,1.6.04,1.67-1.11,1.67-2.31-.01-4.46,0-8.92,0-13.38h.01c0-1.43.05-2.87,0-4.3-.16-4.05.48-8.14-.44-12.15Z"/>
      <path class="cls-2" d="M192.7,98.4c0,1.12-.12,2.44,1.5,2.48,1.81.04,1.6-1.4,1.62-2.58.02-.96,0-1.91,0-2.87,0-3.75,0-7.49.04-11.24.01-1.39.57-2.49,1.98-2.95,1.38-.45,2.51.05,3.43,1.07.42.47.77,1.01,1.15,1.53,4.64,6.38,9.26,12.78,13.91,19.15.58.79,1.12,1.98,2.44,1.08,1.27-.87.82-1.96.13-2.91-5.06-6.96-10.11-13.94-15.26-20.83-1.78-2.38-4.11-2.95-6.8-2.08-2.58.83-4.03,2.8-4.12,5.8-.07,2.39-.02,4.78-.02,7.18,0,2.39-.01,4.78,0,7.18Z"/>
    </g>
    <g>
      <path class="cls-1" d="M123.31,49.84c0-4.62-.04-9.25.02-13.87.03-2.13.33-4.24,2.81-5.01,2.53-.79,4.75.7,5.06,3.57.23,2.13.09,4.3.1,6.45,0,.68-.18,1.37-.94,1.45-1.06.12-1.07-.84-1.1-1.48-.09-1.91-.03-3.83-.09-5.74-.04-1.21-.4-2.26-1.92-2.17-1.38.08-1.64,1.09-1.64,2.2-.02,9.73-.03,19.46-.02,29.18,0,1.89,1.08,2.7,2.9,2.7,4.95,0,9.9,0,14.85-.01,1.27,0,2.54-.29,2.56-1.86.02-1.63-1.33-1.83-2.56-1.84-3.67-.03-7.34-.05-11.01.07-2.21.07-3.22-.69-3.15-3.02.12-3.98.03-7.97.04-11.96,0-.48,0-.96.09-1.43.11-.62.19-1.38,1.05-1.34.82.04.94.76.95,1.41.03,3.11.05,6.22.06,9.33,0,.72-.02,1.43-.05,2.15-.1,2.04.92,2.88,2.91,2.85,3.11-.05,6.22-.05,9.33,0,3.21.05,4.67,1.33,4.6,3.89-.07,2.55-1.56,3.77-4.73,3.83-4.86.09-9.72.27-14.59.04-3.97-.19-5.41-1.42-5.5-5.52-.08-3.91-.02-7.81-.02-11.72,0-.72,0-1.44,0-2.15Z"/>
      <path class="cls-1" d="M153.82,65.02c-.04-.73.18-1.39.44-2.08,3.54-9.46,7.05-18.92,10.58-28.38.76-2.04,1.83-3.78,4.37-3.72,2.42.06,3.39,1.78,4.13,3.72.88,2.3,1.75,4.61,2.58,6.93.26.74.6,1.72-.4,2.07-1.05.36-1.25-.68-1.53-1.41-.93-2.45-1.86-4.91-2.77-7.37-.39-1.04-.97-1.94-2.18-1.89-1.05.04-1.67.85-2.02,1.8-3.67,9.74-7.35,19.49-11.01,29.24-.45,1.2-.58,2.47,1.06,2.88,1.63.41,2.26-.6,2.59-2.03,1.06-4.6,2.67-5.94,7.39-6.2,1.11-.06,2.23-.07,3.35-.07,5.38,0,6.58.94,8.03,6.14.34,1.21.66,2.69,2.47,2.2,1.86-.51,1.61-1.91,1.1-3.28-1.86-4.99-3.75-9.97-5.62-14.96-.31-.84-1.15-1.91.22-2.41,1.38-.51,1.42.86,1.73,1.7,1.92,5.14,3.87,10.26,5.75,15.42.95,2.6.36,4.36-1.61,5.32-2.45,1.2-4.64.29-5.51-2.29-1.88-5.61-6.67-7.71-12.19-5.37-1.41.6-2.34,1.61-2.78,3.07-.25.83-.47,1.68-.78,2.49-.78,2.02-2.36,2.75-4.39,2.42-2.17-.35-3.07-1.8-2.99-3.93Z"/>
      <path class="cls-1" d="M295.76,65.16c0,1.88-.83,3.24-2.66,3.8-1.85.56-3.28-.16-4.29-1.75-.65-1.02-1.11-2.12-1.28-3.32-.35-2.51-1.88-3.52-4.31-3.46-2.07.06-4.15.12-6.22.04-1.52-.06-2.35.52-2.83,1.96-.5,1.5-1.07,3.01-1.84,4.39-1.23,2.2-2.93,2.74-5.01,1.84-2.04-.88-2.82-2.55-1.95-4.95,2.6-7.18,5.31-14.32,7.98-21.47,1-2.68,2.01-5.36,3.03-8.04.73-1.91,1.88-3.32,4.15-3.38,2.36-.06,3.36,1.54,4.07,3.41.94,2.45,1.81,4.93,2.72,7.39.3.8.55,1.65-.49,2-.97.33-1.17-.61-1.41-1.24-.94-2.45-1.81-4.92-2.76-7.37-.4-1.04-.81-2.21-2.23-2.13-1.18.07-1.76.96-2.14,1.99-3.59,9.53-7.18,19.05-10.75,28.58-.31.82-.53,1.73-.03,2.55.38.64,1.01,1.06,1.79.95.91-.13,1.26-.83,1.53-1.64,1.98-5.99,3.11-6.81,9.42-6.81,1.12,0,2.24-.03,3.35.05,3.54.24,5.03,1.6,6,5.07.4,1.46.28,3.91,2.84,3.1,2.51-.79,1.14-2.72.61-4.18-1.67-4.55-3.43-9.08-5.15-13.61-.2-.52-.41-1.04-.52-1.58-.1-.48.02-.98.56-1.18.61-.22,1.14-.04,1.37.58,2.17,5.89,4.32,11.79,6.46,17.69.08.21,0,.47,0,.71Z"/>
      <path class="cls-1" d="M209.21,31.78c-5.92.39-11.89,3.35-15.34,10.01-3.37,6.51-2.13,12.79,2.16,18.57.28.38.59.76.83,1.16.26.43.36.92-.06,1.3-.52.46-1.04.26-1.48-.17-.28-.28-.52-.61-.77-.91-4.91-5.86-5.96-12.45-3.11-19.43,2.98-7.32,8.72-11.39,16.53-12.4,4.92-.64,9.5.51,13.65,3.25,2.76,1.82,3.37,3.69,1.95,5.95-1.41,2.25-3.46,2.57-6.17.86-2.57-1.62-5.32-2.47-8.37-2.35-.68.03-1.61.2-1.6-.88.01-.96.86-.99,1.6-1.02,3.18-.14,6.16.41,8.89,2.18,1.14.74,2.52,1.98,3.69.14,1.19-1.87-.47-2.74-1.69-3.55-2.79-1.85-5.9-2.72-10.7-2.68Z"/>
      <path class="cls-1" d="M242.79,51.95c0,3.91-.06,7.81.03,11.72.03,1.32-.28,3.23,1.93,3.13,1.99-.09,1.66-1.8,1.66-3.11.03-4.31,0-8.61.01-12.92,0-.87-.1-2.03,1.05-2.06,1.24-.02,1.04,1.18,1.04,2.02.02,4.46.04,8.93,0,13.39-.02,1.77-.17,3.55-2.03,4.53-2.84,1.49-5.71-.37-5.83-3.96-.14-4.54-.05-9.09-.06-13.63,0-3.11-.06-6.22.02-9.33.06-2.25-.97-3.13-3.15-3.21-1.82-.06-3.66.19-5.46-.44-1.68-.6-2.4-1.78-2.34-3.46.06-1.74.82-3.05,2.59-3.6.73-.23,1.47-.36,1.85.49.37.82-.31,1.09-.9,1.38-.82.41-1.54.91-1.33,2,.23,1.17,1.19,1.5,2.15,1.55,1.26.06,2.54-.06,3.81-.2,3.9-.44,5.3.86,5.23,4.75-.07,3.66-.01,7.31-.01,10.97-.09,0-.18,0-.27,0Z"/>
      <path class="cls-1" d="M210.56,69.13c-3.18.09-6.13-.85-9.05-1.92-.83-.31-1.53-.72-1.04-1.72.46-.94,1.19-.47,1.84-.19,6.12,2.66,12.06,2.44,17.82-1.06,1.31-.8,2.55-1.64,1.42-3.37-1.12-1.73-2.31-.66-3.45.06-5.45,3.45-12.44,2.98-17.34-1.17-4.53-3.84-6.04-10.13-3.78-15.6,1.14-2.77,3.28-4.65,5.57-6.41.64-.49,1.4-1.02,2.02-.04.59.94-.15,1.37-.85,1.86-5.01,3.54-6.87,8.4-5.18,13.39,2.22,6.57,9.99,9.98,16.39,7.17,1.24-.54,2.38-1.3,3.63-1.8,1.98-.8,3.75-.57,4.99,1.41,1.23,1.96.97,3.66-1.04,5.21-3.5,2.71-7.49,4.14-11.94,4.19Z"/>
      <path class="cls-1" d="M247.96,30.76c2.55,0,5.1-.06,7.65.02,2.52.07,3.82,1.33,3.92,3.59.09,2.21-1.16,3.77-3.51,4.06-1.41.17-2.86.02-4.29.01-2.4,0-3.53,1.22-3.32,3.59.06.71.23,1.42.16,2.12-.05.54-.38,1.07-1.1,1.04-.7-.03-1-.49-1-1.1-.03-1.83-.11-3.67.03-5.49.11-1.42,1.17-2,2.52-2.02,1.75-.03,3.51-.05,5.26-.07,1.4-.01,2.94-.01,2.98-1.91.04-2-1.54-1.83-2.93-1.82-4.87,0-9.73,0-14.6-.02-.82,0-1.99.27-1.95-1.08.04-1.29,1.25-1.05,2.03-1.06,2.71-.07,5.43-.03,8.14-.03,0,.06,0,.12,0,.19Z"/>
      <path class="cls-1" d="M171.44,54.83c-1.91,0-3.81,0-5.72,0-1,0-1.81-.3-1.57-1.51.23-1.21.19-2.67,1.79-3.06.58-.14.72.39.86.88.42,1.47,2.62,2.34,3.99,1.61.85-.45.73-1.12.42-1.83-.38-.87-.73-1.76-1.17-2.6-.4-.78-.34-3.22-1.89-.62-.21.35-.63.51-1.05.33-.49-.22-.75-.67-.59-1.16.46-1.43.81-2.95,1.56-4.22.74-1.25,1.74-.94,2.26.36,1.18,2.94,2.38,5.88,3.45,8.87.78,2.18-.03,3.16-2.34,2.94Z"/>
      <path class="cls-1" d="M280.68,54.84c-1.26,0-2.06.03-2.85,0-.76-.04-1.73.3-2.14-.61-.45-1-.15-2.02.37-2.96.28-.51.67-.96,1.27-.97.84,0,.61.72.74,1.23.32,1.26,2.5,2,4.1,1.25,1.42-.67.18-1.61,0-2.39-.19-.84-.58-1.64-.87-2.46-.4-1.15-.82-2.12-1.77-.33-.2.38-.57.57-1,.4-.54-.22-.63-.8-.51-1.22.38-1.37.7-2.8,1.37-4.03.68-1.25,1.85-1.04,2.34.17,1.28,3.16,2.43,6.38,3.52,9.61.55,1.62-.36,2.42-1.94,2.46-1.03.02-2.06-.11-2.63-.15Z"/>
    </g>
    <path class="cls-1" d="M103.85,64.01c-.56-.91-.99-1.83-1.13-2.86-1.69-12.26-8.08-21.42-18.51-27.85-1.91-1.17-2.42-2.39-1.53-4.51,2.51-6,3.12-12.31,2.66-18.75-.41-5.77-4.15-9.75-9.61-10.02-3.99-.2-7.54,1.23-10.57,3.76-5.95,4.98-8.23,11.74-8.98,19.16-.44,4.39-.92,5-5.29,5.99-10.32,2.33-17.94,8.29-23.19,17.36-1.3,2.24-2.49,4.46-5.37,5-.48.09-1.07.55-1.27,1-2.13,4.52-4.03,9.15-1.78,14.15.81,1.81.5,2.86-.85,4.13-3.71,3.47-6.03,7.78-7.1,12.74-3.28,15.08-6.52,30.17-9.79,45.26-1,4.6-2.03,9.21-1.25,13.95,1.24,7.5,6.11,12.2,12.46,15.68,13.79,7.56,28.61,11,44.73,11.05,4.67.3,9.72-.45,14.77-1.15,11.3-1.56,18.75-7.73,22.1-18.71,1.44-4.73,2.24-9.61,3.26-14.43,3.56-16.8,6.35-33.67,4.4-50.95-.15-1.32.41-2.28,1.14-3.27,3.86-5.24,4.13-11.19.71-16.73ZM31.55,47.93c5.31-8.91,13.11-14.11,23.4-15.59,3.82-.55,4.69-1.46,4.97-5.4.3-4.23.78-8.41,2.44-12.36,1.78-4.25,4.41-7.74,8.8-9.6,5.56-2.35,9.69.12,10.26,6.13.05.55,0,1.11,0,1.67-.32,5.74-.97,11.41-3.43,16.72-1.58,3.4-1.18,4.57,2.18,6.29,9.45,4.84,15.32,12.46,17.88,22.7.82,3.29.52,3.62-2.85,3.05-20.74-3.52-41.48-7.04-62.21-10.56-2.51-.43-2.75-.86-1.44-3.06ZM94.77,128.48c-1.2,6.49-3.01,12.86-4.41,19.31-1.94,8.95-7.63,13.64-16.16,15.48-6.01,1.3-12.11,1.97-18.64,1.99-13.85-.09-27.24-3.53-39.83-10.04-9.23-4.78-12.32-10.48-11.22-20.54.32-2.92.93-5.82,1.56-8.7,2.91-13.29,5.93-26.56,8.8-39.86,1.17-5.39,3.72-9.91,7.58-13.82,1.58-1.61,3.27-2.05,5.39-1.69,14.22,2.44,28.44,4.84,42.66,7.25,7.94,1.35,15.88,2.68,23.81,4.05,3.38.58,3.51.91,3.8,4.31,1.2,14.28-.75,28.3-3.34,42.27ZM102.28,70.27c-.29,1.8-.58,3.61-.94,5.4-.43,2.15-1.66,3.08-3.96,2.69-13.03-2.23-26.07-4.4-39.1-6.6-10.76-1.82-21.51-3.65-32.27-5.48-2.16-.37-3.92-1.11-3.54-3.85.27-1.81.45-3.63.83-5.41.48-2.28,1.69-3.12,4.5-2.75,4.42.58,8.81,1.39,13.2,2.13,18.61,3.13,37.22,6.27,55.83,9.42,1.09.19,2.18.44,3.24.77,1.8.56,2.5,1.86,2.2,3.69Z"/>
    <path class="cls-1" d="M47.2,109.94c-2.49-.52-4.98-1.05-7.47-1.55-2.61-.53-3.09-.18-3.58,2.36-.53,2.73-.98,5.49-1.72,8.17-.51,1.85.22,2.52,1.82,2.81,2.66.49,5.33.97,7.98,1.48,1.47.28,2.61.94,2.3,2.71-.31,1.75-1.69,1.75-2.98,1.54-2.75-.44-5.52-.87-8.21-1.57-1.59-.42-2.16.16-2.62,1.48-2.45,7.05-2.04,7.81,5.22,9.66,1.85.47,3.69.99,5.51,1.57,1.31.41,2.05,1.3,1.55,2.73-.46,1.33-1.49,1.45-2.73,1.13-4.62-1.21-9.25-2.37-13.88-3.57-1.62-.42-2.08-1.49-1.75-3.09,3.16-15.51,6.3-31.03,9.45-46.54.48-2.37,1.62-3.22,3.88-2.77,4.76.96,9.49,2.04,14.24,3.05,1.54.33,2.89.89,2.41,2.81-.48,1.93-2.03,1.68-3.49,1.39-3.51-.71-7.03-1.38-10.53-2.17-1.74-.39-2.7-.07-2.94,1.92-.31,2.52-.86,5.02-1.36,7.52-.37,1.87.43,2.9,2.21,3.27,2.42.51,4.84,1,7.26,1.49,1.28.26,1.99.97,1.84,2.33-.16,1.43-1.09,1.83-2.41,1.83Z"/>
    <g>
      <path class="cls-2" d="M85.65,130.86c-.33-.15-.88-.3-1.33-.6-1.76-1.22-3.51-2.47-5.22-3.76-.99-.75-.99-1.73-.39-2.75.66-1.12,1.5-1.19,2.62-.65,2.18,1.05,4.02,2.54,5.77,4.17.71.67.87,1.47.37,2.37-.37.65-.8,1.18-1.83,1.22Z"/>
      <path class="cls-2" d="M84.03,106.48c2.4.85,4.98,2.38,6.98,4.71.61.71.17,1.67-.49,2.37-.65.69-1.43.79-2.16.33-2.08-1.32-4.13-2.7-6.17-4.09-.77-.52-.89-1.32-.57-2.13.32-.79.94-1.27,2.41-1.19Z"/>
      <path class="cls-2" d="M91.31,97.59c-2.71-.75-4.98-2.43-6.82-4.69-.47-.58-.22-1.38.21-2.01.52-.76,1.37-1.03,2.11-.7,2.39,1.06,4.78,2.17,6.36,4.42.5.71.63,1.49.2,2.24-.4.7-1.14.79-2.06.73Z"/>
      <path class="cls-2" d="M83,145.63c-.53,1.41-1.39,2.51-2.86,1.82-2.21-1.05-4.22-2.51-6.1-4.1-.67-.57-.83-1.33-.4-2.15.45-.86,1.24-1.5,2.11-1.18,2.71.98,5.12,2.49,6.93,4.8.18.23.23.57.32.81Z"/>
      <path class="cls-2" d="M81.91,113.89c1.72.03,6.33,3.62,6.79,5.27.22.77-.04,1.42-.53,1.98-.53.6-1.14.72-1.93.41-2.54-1-4.49-2.74-6.01-4.92-.92-1.32.06-2.77,1.68-2.74Z"/>
      <path class="cls-2" d="M82.88,138.72c-2.41-.78-4.62-2.22-5.97-4.72-.34-.63-.29-1.4.32-1.97.61-.56,1.37-1.05,2.14-.64,2.15,1.15,4.43,2.21,5.56,4.6.8,1.7,0,2.88-2.05,2.73Z"/>
      <path class="cls-2" d="M84.97,98.3c1.01-.03,6.68,3.78,7.01,4.72.28.78-.04,1.42-.55,1.96-.55.59-1.21,1.1-2.09.66-2.15-1.06-4.18-2.29-5.87-4.04-.58-.6-.69-1.26-.33-1.96.38-.72.9-1.33,1.82-1.34Z"/>
    </g>
  </g>
</svg>