<?xml version="1.0" encoding="UTF-8"?>
<svg id="Layer_2" data-name="Layer 2" xmlns="http://www.w3.org/2000/svg" viewBox="0 0 217.07 217.07">
  <defs>
    <style>
      .cls-1 {
        fill: #fff3f4;
      }

      .cls-1, .cls-2 {
        stroke-width: 0px;
      }

      .cls-2 {
        fill: #fe828c;
      }
    </style>
  </defs>
  <g id="logo-icon">
    <rect class="cls-2" width="217.07" height="217.07" rx="50.22" ry="50.22"/>
    <path class="cls-1" d="M154.73,87.79c-.56-.91-.99-1.83-1.13-2.86-1.69-12.26-8.08-21.42-18.51-27.85-1.91-1.17-2.42-2.39-1.53-4.51,2.51-6,3.12-12.31,2.66-18.75-.41-5.77-4.15-9.75-9.61-10.02-3.99-.2-7.54,1.23-10.57,3.76-5.95,4.98-8.23,11.74-8.98,19.16-.44,4.39-.92,5-5.29,5.99-10.32,2.33-17.94,8.29-23.19,17.36-1.3,2.24-2.49,4.46-5.37,5-.48.09-1.07.55-1.27,1-2.13,4.52-4.03,9.15-1.78,14.15.81,1.81.5,2.86-.85,4.13-3.71,3.47-6.03,7.78-7.1,12.74-3.28,15.08-6.52,30.17-9.79,45.26-1,4.6-2.03,9.21-1.25,13.95,1.24,7.5,6.11,12.2,12.46,15.68,13.79,7.56,28.61,11,44.73,11.05,4.67.3,9.72-.45,14.77-1.15,11.3-1.56,18.75-7.73,22.1-18.71,1.44-4.73,2.24-9.61,3.26-14.43,3.56-16.8,6.35-33.67,4.4-50.95-.15-1.32.41-2.28,1.14-3.27,3.86-5.24,4.13-11.19.71-16.73ZM82.43,71.71c5.31-8.91,13.11-14.11,23.4-15.59,3.82-.55,4.69-1.46,4.97-5.4.3-4.23.78-8.41,2.44-12.36,1.78-4.25,4.41-7.74,8.8-9.6,5.56-2.35,9.69.12,10.26,6.13.05.55,0,1.11,0,1.67-.32,5.74-.97,11.41-3.43,16.72-1.58,3.4-1.18,4.57,2.18,6.29,9.45,4.84,15.32,12.46,17.88,22.7.82,3.29.52,3.62-2.85,3.05-20.74-3.52-41.48-7.04-62.21-10.56-2.51-.43-2.75-.86-1.44-3.06ZM145.65,152.26c-1.2,6.49-3.01,12.86-4.41,19.31-1.94,8.95-7.63,13.64-16.16,15.48-6.01,1.3-12.11,1.97-18.64,1.99-13.85-.09-27.24-3.53-39.83-10.04-9.23-4.78-12.32-10.48-11.22-20.54.32-2.92.93-5.82,1.56-8.7,2.91-13.29,5.93-26.56,8.8-39.86,1.17-5.39,3.72-9.91,7.58-13.82,1.58-1.61,3.27-2.05,5.39-1.69,14.22,2.44,28.44,4.84,42.66,7.25,7.94,1.35,15.88,2.68,23.81,4.05,3.38.58,3.51.91,3.8,4.31,1.2,14.28-.75,28.3-3.34,42.27ZM153.15,94.06c-.29,1.8-.58,3.61-.94,5.4-.43,2.15-1.66,3.08-3.96,2.69-13.03-2.23-26.07-4.4-39.1-6.6-10.76-1.82-21.51-3.65-32.27-5.48-2.16-.37-3.92-1.11-3.54-3.85.27-1.81.45-3.63.83-5.41.48-2.28,1.69-3.12,4.5-2.75,4.42.58,8.81,1.39,13.2,2.13,18.61,3.13,37.22,6.27,55.83,9.42,1.09.19,2.18.44,3.24.77,1.8.56,2.5,1.86,2.2,3.69Z"/>
    <path class="cls-1" d="M98.08,133.72c-2.49-.52-4.98-1.05-7.47-1.55-2.61-.53-3.09-.18-3.58,2.36-.53,2.73-.98,5.49-1.72,8.17-.51,1.85.22,2.52,1.82,2.81,2.66.49,5.33.97,7.98,1.48,1.47.28,2.61.94,2.3,2.71-.31,1.75-1.69,1.75-2.98,1.54-2.75-.44-5.52-.87-8.21-1.57-1.59-.42-2.16.16-2.62,1.48-2.45,7.05-2.04,7.81,5.22,9.66,1.85.47,3.69.99,5.51,1.57,1.31.41,2.05,1.3,1.55,2.73-.46,1.33-1.49,1.45-2.73,1.13-4.62-1.21-9.25-2.37-13.88-3.57-1.62-.42-2.08-1.49-1.75-3.09,3.16-15.51,6.3-31.03,9.45-46.54.48-2.37,1.62-3.22,3.88-2.77,4.76.96,9.49,2.04,14.24,3.05,1.54.33,2.89.89,2.41,2.81-.48,1.93-2.03,1.68-3.49,1.39-3.51-.71-7.03-1.38-10.53-2.17-1.74-.39-2.7-.07-2.94,1.92-.31,2.52-.86,5.02-1.36,7.52-.37,1.87.43,2.9,2.21,3.27,2.42.51,4.84,1,7.26,1.49,1.28.26,1.99.97,1.84,2.33-.16,1.43-1.09,1.83-2.41,1.83Z"/>
    <g>
      <path class="cls-1" d="M136.53,154.65c-.33-.15-.88-.3-1.33-.6-1.76-1.22-3.51-2.47-5.22-3.76-.99-.75-.99-1.73-.39-2.75.66-1.12,1.5-1.19,2.62-.65,2.18,1.05,4.02,2.54,5.77,4.17.71.67.87,1.47.37,2.37-.37.65-.8,1.18-1.83,1.22Z"/>
      <path class="cls-1" d="M134.9,130.27c2.4.85,4.98,2.38,6.98,4.71.61.71.17,1.67-.49,2.37-.65.69-1.43.79-2.16.33-2.08-1.32-4.13-2.7-6.17-4.09-.77-.52-.89-1.32-.57-2.13.32-.79.94-1.27,2.41-1.19Z"/>
      <path class="cls-1" d="M142.19,121.37c-2.71-.75-4.98-2.43-6.82-4.69-.47-.58-.22-1.38.21-2.01.52-.76,1.37-1.03,2.11-.7,2.39,1.06,4.78,2.17,6.36,4.42.5.71.63,1.49.2,2.24-.4.7-1.14.79-2.06.73Z"/>
      <path class="cls-1" d="M133.87,169.41c-.53,1.41-1.39,2.51-2.86,1.82-2.21-1.05-4.22-2.51-6.1-4.1-.67-.57-.83-1.33-.4-2.15.45-.86,1.24-1.5,2.11-1.18,2.71.98,5.12,2.49,6.93,4.8.18.23.23.57.32.81Z"/>
      <path class="cls-1" d="M132.79,137.67c1.72.03,6.33,3.62,6.79,5.27.22.77-.04,1.42-.53,1.98-.53.6-1.14.72-1.93.41-2.54-1-4.49-2.74-6.01-4.92-.92-1.32.06-2.77,1.68-2.74Z"/>
      <path class="cls-1" d="M133.76,162.5c-2.41-.78-4.62-2.22-5.97-4.72-.34-.63-.29-1.4.32-1.97.61-.56,1.37-1.05,2.14-.64,2.15,1.15,4.43,2.21,5.56,4.6.8,1.7,0,2.88-2.05,2.73Z"/>
      <path class="cls-1" d="M135.84,122.08c1.01-.03,6.68,3.78,7.01,4.72.28.78-.04,1.42-.55,1.96-.55.59-1.21,1.1-2.09.66-2.15-1.06-4.18-2.29-5.87-4.04-.58-.6-.69-1.26-.33-1.96.38-.72.9-1.33,1.82-1.34Z"/>
    </g>
  </g>
</svg>