<svg xmlns="http://www.w3.org/2000/svg" viewBox="0 0 295.92 169.31"><defs><style>.cls-1{fill:#293c63;}.cls-2{fill:#2a3e64;}.cls-3{fill:#293d63;}.cls-4{fill:#2a3d63;}.cls-5{fill:#32456a;}.cls-6{fill:#2c3f65;}.cls-7{fill:#2d4067;}.cls-8{fill:#2d4066;}.cls-9{fill:#2b3f64;}.cls-10{fill:#2e4267;}.cls-11{fill:#37496d;}.cls-12{fill:#3a4d70;}.cls-13{fill:#374a6d;}.cls-14{fill:#36496d;}.cls-15{fill:#283c63;}.cls-16{fill:#2f4268;}.cls-17{fill:#2e4167;}.cls-18{fill:#324569;}.cls-19{fill:#2f4368;}.cls-20{fill:#314469;}.cls-21{fill:#304369;}</style></defs><g id="Layer_2" data-name="Layer 2"><g id="Layer_1-2" data-name="Layer 1"><path class="cls-1" d="M236.85,108.3V84.86c0-1.6-.22-3.06-2.21-3.41s-3.36.53-3.56,2.52a46.5,46.5,0,0,0-.13,5q0,14.11.07,28.23c0,1.1,0,2.15-1.29,2.52s-1.71-.54-2.28-1.34c-2-2.85-4.1-5.69-6.15-8.54-.63-.88-1.24-1.82-.06-2.69s1.8,0,2.44.73c.84,1,1.59,2,2.44,2.94.39.43.6,1.39,1.31,1.1s.44-1.13.44-1.73c0-7.33-.1-14.67-.1-22a28.54,28.54,0,0,1,.42-5.23,5.85,5.85,0,0,1,11.46-.16,12.28,12.28,0,0,1,.38,2.83q0,23.08,0,46.17c0,2.62-.87,4.86-3.44,6.08s-5.08.93-7.09-1.52c-2.78-3.38-5.3-7-7.87-10.52-5.11-7-10.17-14.08-15.25-21.12-.27-.37-.48-1-1-.84-.72.21-.42.94-.42,1.44,0,7.5,0,15,0,22.49,0,1.67-.08,3.35-.22,5-.28,3.25-2.33,5.48-5.11,5.68-3.37.24-5.63-1.36-6.46-4.71a15.09,15.09,0,0,1-.41-3.54c0-6.86,0-13.72,0-20.58,0-1-.18-2.2,1.37-2.28s1.75,1,1.75,2.24c0,7.26,0,14.52,0,21.77,0,1.9.17,3.77,2.82,3.85a2.54,2.54,0,0,0,2.93-2.18,12.65,12.65,0,0,0,.2-2.61q0-15.68-.07-31.34c0-1.08,0-2.15,1.26-2.53s1.87.51,2.49,1.38q12.63,17.58,25.27,35.13c1,1.38,2,2.81,4.09,2.06s2-2.4,2-4.14C236.84,123.46,236.85,115.88,236.85,108.3Z"/><path class="cls-2" d="M123.46,108c0-7.9-.08-15.79,0-23.68.08-5.25,3.44-7.84,8.09-6.59,2.5.67,3.63,2.46,4,4.81.66,4,.22,8.11.16,12.17a1.46,1.46,0,0,1-1.43,1.6c-1.08,0-1.51-.72-1.51-1.74,0-3.51,0-7-.11-10.53-.07-1.9-.76-3.49-3.09-3.44s-3,1.5-3,3.5q-.06,5.37-.08,10.76,0,17.7,0,35.41c0,4.4,1,5.34,5.33,5.34,7.82,0,15.65,0,23.47,0,1.92,0,4-.05,4.39-2.65.32-2.22-1-3.45-3.74-3.46-6.31,0-12.61,0-18.92,0-3.62,0-4.3-.68-4.3-4.34,0-7.25,0-14.51,0-21.77,0-1.11,0-2.12,1.55-2.12s1.63,1.11,1.63,2.15c0,6,.1,12-.1,17.94-.15,4.48.26,5,4.63,4.91,5.42-.09,10.85-.06,16.27.16,3.79.15,6.34,2.87,6.27,6.19s-2.86,6-6.71,6c-8.62,0-17.24.07-25.86,0-4.72,0-6.82-2.22-6.95-6.94-.11-4-.13-8-.16-12s0-7.81,0-11.72Z"/><path class="cls-3" d="M257.89,99.43c0-2.23.06-4.47,0-6.69,0-1.28.19-2.38,1.63-2.41s1.51,1.1,1.49,2.23c0,2.79,0,5.58,0,8.37,0,.67-.56,1.6.36,1.9.71.24,1.23-.56,1.73-1q6.69-6.69,13.39-13.37c2.93-2.92,5.77-6,8.86-8.71,2.83-2.52,5.93-2.59,8.27-.63,2.93,2.46,3.16,6.11.25,9.25-3.41,3.69-7,7.17-10.6,10.72-1.41,1.41-2.82,2.83-4.33,4.13-1.73,1.47-1.87,2.79-.4,4.65,5,6.32,9.83,12.76,14.72,19.15a14.61,14.61,0,0,1,2.15,3.44c1,2.52.28,4.94-2,6.8a5.22,5.22,0,0,1-6.82.27c-3.35-2.46-5.27-6.15-7.77-9.34a1.29,1.29,0,0,1,.45-2,1.68,1.68,0,0,1,2.29.66c1.87,2.39,3.7,4.79,5.58,7.17,1.17,1.48,2.5,2.21,4.27.82s1.48-3,.3-4.57q-4.32-5.73-8.7-11.42-3.93-5.12-7.89-10.23c-2.13-2.78-2-3.86.5-6.34q7.85-7.71,15.63-15.5c1.39-1.38,2.43-2.89.72-4.75a2.5,2.5,0,0,0-3.61-.53,11.47,11.47,0,0,0-1.67,1.35q-12.41,12.48-24.77,25c-.85.85-1.71,1.5-2.93,1s-1.13-1.58-1.12-2.64c0-2.23,0-4.46,0-6.69Z"/><path class="cls-4" d="M248.75,108.07c0-7.81,0-15.62,0-23.43,0-3.91,1.66-6,5.07-6.75a5.79,5.79,0,0,1,7,4.88c.14.88.35,1.83-.82,2.16s-1.84-.23-2.1-1.33c-.4-1.66-1.22-2.72-3.13-2.6A2.59,2.59,0,0,0,252,83.43a17.25,17.25,0,0,0-.12,2.38q0,22.25,0,44.47a25.58,25.58,0,0,0,.16,2.62,2.56,2.56,0,0,0,2.74,2.45,2.65,2.65,0,0,0,3-2.47,11.25,11.25,0,0,0,0-3.57c-1.09-5.88,1-10.62,5.1-14.67,6.63-6.57,6-4.41,10,.75,1.58,2,3.08,4.06,4.59,6.11.64.87,1.19,1.87.1,2.73s-1.94-.08-2.56-.87c-1.92-2.44-3.81-4.91-5.63-7.43-.93-1.29-1.67-1.76-2.89-.27s-2.47,2.49-3.63,3.8a8,8,0,0,0-2,7.53,16.9,16.9,0,0,1-.18,6.87,5.59,5.59,0,0,1-6.24,4.67,6,6,0,0,1-5.57-5.84c-.15-5.66-.09-11.32-.11-17C248.74,113.17,248.75,110.62,248.75,108.07Z"/><path class="cls-5" d="M123.31,49.84c0-4.62,0-9.25,0-13.87,0-2.13.33-4.24,2.81-5s4.75.7,5,3.57a63,63,0,0,1,.1,6.45c0,.68-.17,1.36-.94,1.45-1.06.12-1.07-.84-1.1-1.48-.09-1.91,0-3.82-.09-5.73,0-1.21-.4-2.27-1.93-2.18s-1.64,1.1-1.64,2.2q0,14.59,0,29.19c0,1.89,1.08,2.7,2.91,2.7,4.94,0,9.89,0,14.84,0,1.27,0,2.54-.29,2.56-1.87s-1.33-1.83-2.56-1.84c-3.67,0-7.34,0-11,.07-2.21.07-3.22-.68-3.15-3,.11-4,0-8,0-12a8.52,8.52,0,0,1,.09-1.43c.11-.62.19-1.38,1.05-1.34s.94.76.95,1.41q0,4.66.06,9.33c0,.72,0,1.44,0,2.15-.1,2,.92,2.88,2.91,2.85,3.11,0,6.22,0,9.33,0s4.67,1.33,4.6,3.9-1.56,3.77-4.73,3.83c-4.86.09-9.72.26-14.58,0-4-.18-5.41-1.41-5.5-5.51-.09-3.91,0-7.82,0-11.72Z"/><path class="cls-6" d="M153.82,65a5,5,0,0,1,.44-2.07q5.31-14.19,10.58-28.39c.76-2,1.83-3.78,4.37-3.72s3.39,1.78,4.13,3.72c.88,2.3,1.75,4.61,2.58,6.93.26.74.6,1.72-.4,2.07s-1.25-.68-1.53-1.41c-.93-2.45-1.86-4.91-2.77-7.37-.39-1-1-1.93-2.18-1.89a2.36,2.36,0,0,0-2,1.8q-5.52,14.63-11,29.24c-.45,1.2-.58,2.47,1.06,2.88s2.26-.6,2.59-2c1.06-4.6,2.67-5.94,7.39-6.2,1.11-.06,2.23-.07,3.35-.07,5.38,0,6.58.94,8,6.14.34,1.21.66,2.69,2.46,2.2s1.62-1.91,1.11-3.28c-1.86-5-3.75-10-5.62-15-.31-.84-1.15-1.91.22-2.41s1.42.86,1.73,1.7c1.92,5.13,3.87,10.26,5.75,15.41.94,2.6.35,4.36-1.61,5.32A3.66,3.66,0,0,1,177,66.34c-1.88-5.61-6.66-7.71-12.19-5.37A4.65,4.65,0,0,0,162,64c-.26.84-.47,1.68-.78,2.49a3.66,3.66,0,0,1-4.4,2.42C154.65,68.6,153.74,67.15,153.82,65Z"/><path class="cls-6" d="M295.76,65.16a3.61,3.61,0,0,1-2.67,3.8,3.54,3.54,0,0,1-4.29-1.75,8.38,8.38,0,0,1-1.28-3.31c-.35-2.52-1.88-3.53-4.31-3.46-2.08.05-4.16.12-6.23,0a2.5,2.5,0,0,0-2.82,2,25.62,25.62,0,0,1-1.84,4.39c-1.23,2.2-2.93,2.74-5,1.84s-2.82-2.55-1.95-5c2.59-7.18,5.3-14.32,8-21.47,1-2.69,2-5.37,3-8,.73-1.91,1.89-3.32,4.15-3.38s3.35,1.55,4.07,3.41c.94,2.45,1.81,4.93,2.72,7.39.29.8.55,1.66-.49,2s-1.17-.6-1.41-1.24c-.94-2.45-1.81-4.92-2.76-7.37-.4-1-.8-2.21-2.22-2.13-1.19.07-1.76,1-2.15,2q-5.37,14.28-10.75,28.58a2.83,2.83,0,0,0,0,2.55,1.76,1.76,0,0,0,1.79.95c.9-.13,1.26-.84,1.52-1.64,2-6,3.11-6.81,9.42-6.81,1.12,0,2.24,0,3.35.05,3.54.24,5,1.6,6,5.07.4,1.45.28,3.91,2.84,3.1s1.15-2.72.61-4.18c-1.67-4.56-3.43-9.08-5.15-13.61a10.14,10.14,0,0,1-.51-1.59.93.93,0,0,1,.55-1.17,1,1,0,0,1,1.37.58q3.25,8.84,6.47,17.69A2.4,2.4,0,0,1,295.76,65.16Z"/><path class="cls-7" d="M171.7,117.24c0-4.86,0-9.72,0-14.58,0-1.09-.21-2.44,1.46-2.48s1.72,1.39,1.72,2.55c0,9.25,0,18.5,0,27.74,0,.72,0,1.44,0,2.15a2.62,2.62,0,0,0,3,2.7,2.67,2.67,0,0,0,2.86-2.86c.07-3.83.11-7.65.16-11.47,0-1.13-.08-2.46,1.54-2.44s1.59,1.32,1.59,2.46c0,3.74.05,7.49-.1,11.24s-2.56,6.27-6.08,6.27-6.1-2.46-6.17-6.46C171.63,127.13,171.7,122.18,171.7,117.24Z"/><path class="cls-8" d="M184.07,98.32c0,4.46,0,8.92,0,13.38,0,1.2-.07,2.35-1.67,2.31s-1.46-1.2-1.46-2.25q0-12.8,0-25.58a22.78,22.78,0,0,0-.18-3.09,2.69,2.69,0,0,0-3.14-2.54A2.49,2.49,0,0,0,175,83.31c-.06,3.27-.06,6.53-.1,9.8a18.9,18.9,0,0,1-.16,2.13,1.37,1.37,0,0,1-1.64,1.32,1.32,1.32,0,0,1-1.37-1.36c.06-4.45-.57-8.94.39-13.34.66-3,2.81-4.57,5.88-4.53a5.43,5.43,0,0,1,5.64,4.54c.92,4,.28,8.1.44,12.15.05,1.43,0,2.87,0,4.3Z"/><path class="cls-9" d="M192.7,91.22c0-2.39-.06-4.78,0-7.17.1-3,1.55-5,4.13-5.81a5.64,5.64,0,0,1,6.8,2.08c5.15,6.9,10.2,13.87,15.26,20.83.69.95,1.15,2-.12,2.91s-1.87-.29-2.44-1.07c-4.66-6.37-9.28-12.77-13.92-19.15a17.36,17.36,0,0,0-1.14-1.53,3.08,3.08,0,0,0-3.43-1.07,2.81,2.81,0,0,0-2,3c0,3.74,0,7.49,0,11.24,0,1,0,1.91,0,2.87,0,1.18.19,2.62-1.62,2.58-1.61,0-1.49-1.36-1.5-2.48C192.69,96,192.7,93.62,192.7,91.22Z"/><path class="cls-10" d="M209.21,31.78a18.12,18.12,0,0,0-15.34,10c-3.37,6.51-2.13,12.79,2.16,18.57.28.38.58.76.83,1.16a1,1,0,0,1-.06,1.3,1,1,0,0,1-1.48-.17c-.28-.28-.52-.61-.77-.91-4.91-5.86-6-12.46-3.12-19.44,3-7.31,8.72-11.39,16.53-12.4a19.58,19.58,0,0,1,13.65,3.25c2.76,1.82,3.37,3.69,1.95,6s-3.46,2.57-6.17.85A14.3,14.3,0,0,0,209,37.6c-.67,0-1.61.2-1.6-.88s.86-1,1.6-1a14.61,14.61,0,0,1,8.89,2.17c1.14.74,2.52,2,3.69.15s-.48-2.75-1.7-3.56C217.11,32.61,214,31.74,209.21,31.78Z"/><path class="cls-11" d="M242.79,52c0,3.91-.06,7.81,0,11.72,0,1.32-.27,3.23,1.93,3.13,2-.09,1.66-1.8,1.67-3.11,0-4.3,0-8.61,0-12.91,0-.87-.1-2,1.06-2.06s1,1.18,1,2c0,4.47,0,8.93,0,13.4,0,1.76-.17,3.55-2,4.53-2.84,1.49-5.71-.37-5.83-4-.14-4.54,0-9.08-.06-13.63,0-3.11-.06-6.22,0-9.33.07-2.25-1-3.13-3.14-3.21-1.82-.06-3.67.19-5.46-.44a3.23,3.23,0,0,1-2.34-3.47,3.55,3.55,0,0,1,2.59-3.6c.73-.23,1.47-.36,1.85.49s-.31,1.09-.89,1.38c-.83.41-1.55.91-1.34,2A2,2,0,0,0,234,36.43a24.39,24.39,0,0,0,3.81-.2c3.89-.44,5.29.86,5.22,4.75-.06,3.66,0,7.31,0,11Z"/><path class="cls-10" d="M210.56,69.13a24.12,24.12,0,0,1-9.06-1.92c-.83-.31-1.52-.71-1-1.72s1.18-.47,1.83-.19c6.12,2.66,12.07,2.43,17.82-1.06,1.31-.8,2.55-1.64,1.42-3.38s-2.31-.66-3.45.07a14.64,14.64,0,0,1-17.34-1.17A13.62,13.62,0,0,1,197,44.15c1.14-2.77,3.28-4.65,5.57-6.4.63-.49,1.4-1,2,0s-.15,1.37-.85,1.86c-5,3.54-6.87,8.4-5.18,13.39a12.31,12.31,0,0,0,16.39,7.17c1.24-.55,2.38-1.3,3.63-1.81,2-.8,3.76-.57,5,1.41s1,3.66-1.05,5.21A19.43,19.43,0,0,1,210.56,69.13Z"/><path class="cls-12" d="M248,30.76c2.55,0,5.1-.06,7.65,0s3.82,1.34,3.91,3.59A3.68,3.68,0,0,1,256,38.42a36.11,36.11,0,0,1-4.29,0c-2.4,0-3.53,1.23-3.32,3.59a12.69,12.69,0,0,1,.16,2.12,1,1,0,0,1-1.1,1,1,1,0,0,1-1-1.1c0-1.83-.11-3.67,0-5.49.11-1.42,1.17-2,2.52-2l5.27-.07c1.4,0,2.94,0,3-1.9s-1.54-1.83-2.93-1.83q-7.29,0-14.59,0c-.83,0-2,.27-2-1.08s1.25-1,2-1.06c2.71-.07,5.42,0,8.14,0Z"/><path class="cls-13" d="M171.44,54.83c-1.91,0-3.82,0-5.72,0-1,0-1.81-.3-1.58-1.51s.2-2.66,1.79-3.06c.58-.14.72.39.86.88a3,3,0,0,0,4,1.62c.85-.45.73-1.12.43-1.83-.38-.87-.74-1.76-1.17-2.6s-.34-3.22-1.89-.61a.82.82,0,0,1-1,.32.93.93,0,0,1-.59-1.16,20.66,20.66,0,0,1,1.56-4.22c.74-1.25,1.74-.94,2.26.36,1.19,2.95,2.38,5.89,3.46,8.87C174.56,54.07,173.75,55.06,171.44,54.83Z"/><path class="cls-14" d="M280.68,54.84c-1.25,0-2.05,0-2.85,0s-1.73.3-2.14-.6a3.26,3.26,0,0,1,.37-3,1.6,1.6,0,0,1,1.27-1c.84,0,.61.73.74,1.23.32,1.26,2.5,2,4.1,1.26,1.42-.67.18-1.61,0-2.39a25,25,0,0,0-.87-2.47c-.41-1.15-.82-2.12-1.78-.33a.74.74,0,0,1-1,.4,1,1,0,0,1-.52-1.21,19,19,0,0,1,1.37-4c.69-1.25,1.86-1,2.35.17,1.28,3.16,2.43,6.38,3.52,9.61.54,1.63-.37,2.42-1.94,2.46C282.29,55,281.25,54.88,280.68,54.84Z"/><path class="cls-15" d="M103.85,64a7.33,7.33,0,0,1-1.13-2.86C101,48.89,94.65,39.73,84.21,33.3c-1.91-1.17-2.42-2.39-1.53-4.51A40.4,40.4,0,0,0,85.34,10C84.92,4.27,81.19.29,75.73,0A15,15,0,0,0,65.16,3.78c-5.95,5-8.23,11.75-9,19.16-.44,4.4-.92,5-5.29,6C40.57,31.26,33,37.22,27.7,46.3c-1.29,2.24-2.49,4.46-5.37,5a2,2,0,0,0-1.28,1c-2.12,4.52-4,9.15-1.78,14.15a3.07,3.07,0,0,1-.85,4.13,24,24,0,0,0-7.1,12.73q-4.92,22.62-9.8,45.26c-1,4.6-2,9.21-1.24,14,1.24,7.5,6.11,12.2,12.46,15.68,13.78,7.55,28.6,11,44.73,11,4.67.31,9.72-.45,14.77-1.15,11.3-1.56,18.75-7.72,22.09-18.71,1.44-4.73,2.24-9.61,3.27-14.43,3.56-16.8,6.35-33.67,4.4-50.95a4.49,4.49,0,0,1,1.14-3.27A14.16,14.16,0,0,0,103.85,64ZM31.55,47.93A31.14,31.14,0,0,1,55,32.34c3.82-.55,4.68-1.46,5-5.4a38.62,38.62,0,0,1,2.43-12.36c1.78-4.25,4.42-7.75,8.81-9.6,5.56-2.35,9.69.12,10.26,6.13,0,.55,0,1.11,0,1.67-.32,5.74-1,11.41-3.44,16.72-1.58,3.4-1.18,4.57,2.18,6.3A33.39,33.39,0,0,1,98.05,58.5c.82,3.29.52,3.62-2.84,3L33,51C30.48,50.57,30.24,50.13,31.55,47.93Zm63.22,80.55c-1.2,6.49-3,12.86-4.41,19.31-1.93,9-7.63,13.64-16.15,15.48a88.58,88.58,0,0,1-18.64,2,87.31,87.31,0,0,1-39.84-10C6.5,150.44,3.41,144.73,4.51,134.67A82.82,82.82,0,0,1,6.07,126C9,112.69,12,99.42,14.88,86.12A27.49,27.49,0,0,1,22.45,72.3a5.59,5.59,0,0,1,5.39-1.69q21.33,3.66,42.66,7.25c7.94,1.35,15.88,2.68,23.81,4,3.38.58,3.51.9,3.8,4.31C99.31,100.49,97.36,114.52,94.77,128.48Zm7.51-58.21c-.29,1.81-.58,3.61-.94,5.4-.43,2.16-1.66,3.09-4,2.69-13-2.23-26.06-4.39-39.1-6.6Q42.16,69,26,66.28c-2.17-.37-3.92-1.11-3.55-3.85.27-1.8.46-3.63.83-5.41.48-2.28,1.7-3.12,4.5-2.76,4.42.59,8.81,1.4,13.2,2.14l55.83,9.42a25.44,25.44,0,0,1,3.24.77A3,3,0,0,1,102.28,70.27Z"/><path class="cls-3" d="M47.2,109.94c-2.49-.52-5-1-7.47-1.55s-3.09-.18-3.58,2.36c-.53,2.74-1,5.5-1.72,8.18-.51,1.84.22,2.51,1.82,2.81,2.66.49,5.33,1,8,1.48,1.47.29,2.61.94,2.3,2.71s-1.69,1.75-3,1.54c-2.76-.44-5.52-.87-8.21-1.57-1.6-.41-2.16.16-2.63,1.49-2.45,7-2,7.81,5.22,9.65,1.85.47,3.69,1,5.51,1.57,1.3.41,2,1.3,1.55,2.73s-1.49,1.45-2.73,1.13c-4.62-1.21-9.26-2.37-13.88-3.57-1.62-.42-2.08-1.49-1.75-3.09q4.75-23.27,9.45-46.54c.49-2.37,1.62-3.22,3.89-2.77,4.75,1,9.49,2,14.24,3,1.54.33,2.88.89,2.41,2.81s-2,1.68-3.5,1.39c-3.51-.71-7-1.39-10.53-2.17-1.74-.39-2.7-.07-2.94,1.92-.31,2.52-.86,5-1.36,7.52-.36,1.86.43,2.89,2.22,3.27,2.41.51,4.83,1,7.25,1.49a2,2,0,0,1,1.85,2.33C49.46,109.53,48.52,109.94,47.2,109.94Z"/><path class="cls-10" d="M85.65,130.86a6.68,6.68,0,0,1-1.33-.6q-2.64-1.83-5.21-3.76a1.89,1.89,0,0,1-.39-2.75c.65-1.12,1.5-1.19,2.62-.65a23.35,23.35,0,0,1,5.77,4.17,1.77,1.77,0,0,1,.37,2.37A2,2,0,0,1,85.65,130.86Z"/><path class="cls-16" d="M84,106.48a16.53,16.53,0,0,1,7,4.71c.6.71.17,1.67-.49,2.37a1.59,1.59,0,0,1-2.17.33c-2.08-1.32-4.12-2.7-6.16-4.09a1.64,1.64,0,0,1-.57-2.12C81.94,106.89,82.56,106.4,84,106.48Z"/><path class="cls-17" d="M91.31,97.59a13.51,13.51,0,0,1-6.82-4.69,1.69,1.69,0,0,1,.21-2,1.72,1.72,0,0,1,2.11-.71c2.39,1.06,4.78,2.18,6.36,4.43a2,2,0,0,1,.2,2.24C93,97.55,92.23,97.64,91.31,97.59Z"/><path class="cls-18" d="M83,145.63c-.53,1.41-1.39,2.51-2.86,1.82a28.6,28.6,0,0,1-6.1-4.1,1.64,1.64,0,0,1-.4-2.15c.45-.86,1.24-1.5,2.11-1.18a15.05,15.05,0,0,1,6.93,4.8A2.91,2.91,0,0,1,83,145.63Z"/><path class="cls-19" d="M81.91,113.89c1.72,0,6.33,3.62,6.8,5.27a2,2,0,0,1-.54,2,1.56,1.56,0,0,1-1.93.41,13.11,13.11,0,0,1-6-4.92C79.32,115.31,80.29,113.86,81.91,113.89Z"/><path class="cls-20" d="M82.88,138.72a10,10,0,0,1-6-4.72,1.57,1.57,0,0,1,.32-2c.61-.55,1.37-1.05,2.15-.63,2.15,1.15,4.43,2.2,5.55,4.59C85.73,137.69,84.94,138.87,82.88,138.72Z"/><path class="cls-21" d="M85,98.3c1,0,6.67,3.78,7,4.72a1.85,1.85,0,0,1-.55,2c-.55.59-1.21,1.09-2.09.66a20.3,20.3,0,0,1-5.87-4,1.57,1.57,0,0,1-.33-2A2.08,2.08,0,0,1,85,98.3Z"/></g></g></svg>