<?xml version="1.0" encoding="UTF-8"?>
<svg id="Layer_2" data-name="Layer 2" xmlns="http://www.w3.org/2000/svg" viewBox="0 0 1024 774.58">
  <defs>
    <style>
      .cls-1 {
        fill: none;
      }

      .cls-1, .cls-2, .cls-3 {
        stroke-width: 0px;
      }

      .cls-2 {
        fill: #fff3f4;
      }

      .cls-3 {
        fill: #fe828c;
      }
    </style>
  </defs>
  <g id="logo-set">
    <g id="logo">
      <rect id="background" class="cls-3" x="0" y="0" width="1024" height="774.58" rx="130.71" ry="130.71"/>
      <g id="logo-2" data-name="logo">
        <g id="logo_icon_half_filled_light">
          <g>
            <g id="bottle">
              <path class="cls-2" d="M335.1,313.66c11.69-19.6,28.85-31.07,51.49-34.28,8.39-1.22,10.3-3.22,10.91-11.91.7-9.3,1.74-18.51,5.39-27.2,3.91-9.34,9.69-17.03,19.38-21.12,12.25-5.17,21.33.26,22.59,13.47.09,1.22,0,2.48,0,3.69-.7,12.6-2.13,25.11-7.56,36.8-3.48,7.47-2.61,10.04,4.78,13.86,20.81,10.65,33.76,27.42,39.36,49.92,1.82,7.26,1.13,7.99-6.26,6.73-45.67-7.73-91.29-15.47-136.91-23.25-5.52-.91-6.08-1.87-3.17-6.73Z"/>
              <path class="cls-2" d="M481.56,397.91c-.65-7.47-.91-8.17-8.34-9.47-17.47-3-34.93-5.95-52.4-8.91-31.33-5.3-62.61-10.6-93.89-15.95-4.69-.78-8.39.17-11.86,3.69-8.47,8.65-14.12,18.55-16.68,30.41-6.3,29.28-12.95,58.48-19.38,87.72-1.39,6.34-2.74,12.73-3.43,19.16-2.43,22.16,4.39,34.72,24.68,45.23,27.72,14.29,57.18,21.9,87.68,22.07,14.38-.04,27.81-1.52,41.02-4.39,18.77-4.04,31.28-14.38,35.54-34.06,3.08-14.16,7.08-28.2,9.73-42.49,5.69-30.72,9.99-61.57,7.34-93.02ZM390.28,411.46c-1.09,4.26-4.48,3.69-7.69,3.04-7.73-1.56-15.47-3.04-23.16-4.78-3.87-.87-5.95-.13-6.52,4.21-.65,5.56-1.87,11.08-2.95,16.55-.83,4.13.91,6.39,4.87,7.21,5.3,1.13,10.65,2.22,15.95,3.3,2.82.56,4.39,2.13,4.08,5.08-.35,3.17-2.43,4.04-5.34,4.04-5.47-1.13-10.95-2.3-16.42-3.39-5.74-1.17-6.82-.39-7.91,5.17-1.13,6.04-2.13,12.12-3.78,17.99-1.09,4.08.52,5.56,4.04,6.21,5.87,1.09,11.73,2.13,17.55,3.26,3.26.61,5.78,2.09,5.08,5.95-.7,3.87-3.74,3.87-6.56,3.39-6.08-.96-12.17-1.91-18.07-3.43-3.52-.91-4.78.35-5.78,3.26-5.39,15.51-4.48,17.16,11.47,21.25,4.08,1.04,8.12,2.17,12.12,3.43,2.87.91,4.52,2.87,3.43,6.04-1.04,2.91-3.3,3.17-6,2.48-10.21-2.65-20.38-5.21-30.54-7.86-3.61-.91-4.61-3.26-3.87-6.82,6.95-34.11,13.86-68.26,20.81-102.41,1.04-5.21,3.56-7.08,8.52-6.08,10.47,2.13,20.9,4.48,31.37,6.69,3.39.74,6.34,2,5.3,6.21ZM442.02,532.69c-4.87-2.3-9.3-5.52-13.43-9.04-1.48-1.22-1.82-2.91-.87-4.69.96-1.91,2.69-3.3,4.65-2.61,5.95,2.13,11.25,5.47,15.21,10.56.43.52.52,1.26.74,1.78-1.17,3.08-3.08,5.52-6.3,4ZM448.06,513.48c-5.34-1.69-10.17-4.91-13.17-10.38-.74-1.39-.65-3.08.74-4.34,1.3-1.22,3-2.3,4.69-1.39,4.74,2.52,9.78,4.87,12.25,10.12,1.74,3.74,0,6.34-4.52,6ZM458.14,493.5c-.78,1.43-1.74,2.61-4,2.69-.74-.35-1.96-.65-2.91-1.35-3.87-2.69-7.73-5.43-11.51-8.26-2.17-1.65-2.17-3.82-.83-6.04,1.43-2.48,3.3-2.65,5.78-1.43,4.78,2.3,8.82,5.56,12.69,9.17,1.56,1.43,1.91,3.22.78,5.21ZM459.71,474.77c-1.17,1.3-2.52,1.61-4.26.91-5.6-2.22-9.91-6.04-13.21-10.82-2.04-2.91.13-6.08,3.65-6.04,3.82.09,13.95,7.99,14.99,11.6.48,1.69-.09,3.13-1.17,4.34ZM464.83,458.13c-1.39,1.52-3.13,1.74-4.74.7-4.61-2.87-9.08-5.95-13.6-8.99-1.69-1.13-1.96-2.91-1.22-4.65.7-1.74,2.04-2.82,5.3-2.65,5.26,1.87,10.95,5.21,15.34,10.38,1.35,1.52.39,3.65-1.09,5.21ZM466.88,439.23c-1.22,1.3-2.69,2.39-4.61,1.43-4.74-2.3-9.21-5.04-12.95-8.86-1.26-1.35-1.52-2.78-.7-4.3.83-1.61,1.96-2.95,4-2.95,2.22-.09,14.69,8.3,15.42,10.38.61,1.69-.09,3.13-1.17,4.3ZM471.13,421.33c-.87,1.52-2.52,1.74-4.52,1.61-5.95-1.61-10.99-5.34-15.03-10.3-1.04-1.26-.48-3.04.48-4.43,1.13-1.65,3-2.26,4.65-1.52,5.26,2.3,10.51,4.78,13.99,9.73,1.09,1.56,1.39,3.26.43,4.91Z"/>
              <path class="cls-2" d="M490.73,362.84c-.65,3.95-1.26,7.95-2.09,11.91-.91,4.74-3.65,6.78-8.69,5.91-28.68-4.91-57.35-9.69-86.03-14.56-23.68-4-47.36-8.04-71.04-12.04-4.74-.83-8.6-2.48-7.78-8.47.61-4,1-7.99,1.82-11.91,1.04-5.04,3.74-6.91,9.91-6.08,9.69,1.3,19.38,3.08,29.02,4.69,40.97,6.91,81.95,13.82,122.87,20.77,2.43.39,4.82.96,7.13,1.65,4,1.26,5.52,4.08,4.87,8.12Z"/>
            </g>
            <path id="ring" class="cls-2" d="M602.77,572.58c40.28-48.09,64.57-110.17,64.57-177.86,0-76.31-30.84-145.53-80.78-195.65,7.5-9.44,11.92-21.4,11.92-34.36,0-30.57-24.79-55.36-55.4-55.36-20.82,0-38.97,11.52-48.4,28.54-32.24-13.14-67.55-20.41-104.57-20.41-76.58,0-145.85,31.02-196.06,81.19-35.99,35.99-62.13,81.82-74,133.11v.05c-17.93.22-33.46,10.2-41.59,24.88-1.53,2.67-2.75,5.46-3.7,8.4-1.58,4.74-2.39,9.8-2.39,15.04,0,24.79,18.56,45.15,42.49,48.04,16.53,137.36,133.48,243.79,275.26,243.79,58.74,0,113.16-18.24,157.94-49.4h.05c2.08,2.08,4.42,3.84,6.95,5.33,5.51,3.2,11.92,5.06,18.74,5.06,20.5,0,37.16-16.66,37.16-37.21,0-6.19-1.53-12.01-4.25-17.11-1.13-2.17-2.44-4.2-3.93-6.05ZM543.78,121.1c23.67,0,42.86,19.19,42.86,42.85s-19.19,42.85-42.86,42.85-42.85-19.18-42.85-42.85,19.19-42.85,42.85-42.85ZM84.36,380.27c0-20.21,16.38-36.58,36.58-36.58s36.58,16.37,36.58,36.58-16.37,36.58-36.58,36.58-36.58-16.37-36.58-36.58ZM390.1,661.49c-135.96,0-248.17-101.68-264.69-233.17v-.05c10.25-.94,19.59-5.1,26.96-11.47,2.3-2.03,4.42-4.25,6.32-6.64,6.54-8.22,10.43-18.7,10.43-30.03,0-23.3-16.53-42.81-38.56-47.32v-.05c11.61-48.81,36.58-92.38,70.89-126.7,48.31-48.27,114.91-78.12,188.65-78.12,35.49,0,69.4,6.91,100.38,19.55-1.8,5.42-2.75,11.2-2.75,17.21,0,30.61,24.79,55.4,55.36,55.4,13.86,0,26.51-5.06,36.22-13.45,47.91,48.23,77.57,114.78,77.57,188.07,0,64.75-23.16,124.26-61.59,170.5-.05.09-.14.14-.18.22-6-4.33-13.37-6.81-21.31-6.81-20.54,0-37.16,16.66-37.16,37.11,0,6.77,1.8,13.09,4.97,18.56-43.04,29.81-95.18,47.19-151.49,47.19ZM574.12,623.99c-15.35,0-27.79-12.45-27.79-27.79s12.44-27.79,27.79-27.79,27.79,12.44,27.79,27.79-12.44,27.79-27.79,27.79Z"/>
          </g>
          <rect id="bg" class="cls-1" x="67.66" y="87.29" width="604.01" height="604.01"/>
        </g>
        <g id="text">
          <rect class="cls-3" x="535.14" y="241.34" width="411.11" height="308.5"/>
          <g id="Text">
            <g>
              <path class="cls-2" d="M812.11,389.46c-1.7-7.34-6.42-11-13.83-10.95-7.25.06-12.14,3.93-13.51,11.34-.75,4.08-1,8.3-1,12.46,0,17.49.2,34.97.25,52.46,0,1.43.34,3.57-1.05,4.13-1.7.68-2.2-1.59-3.13-2.62-2.03-2.26-3.81-4.74-5.83-7-1.53-1.71-3.29-3.61-5.81-1.75-2.81,2.07-1.36,4.33.14,6.42,4.88,6.79,9.79,13.56,14.66,20.36,1.36,1.9,2.69,3.98,5.44,3.18,2.98-.86,3.09-3.37,3.08-5.99-.1-22.43-.14-44.87-.17-67.3,0-3.99-.11-8.01.29-11.96.49-4.74,3.77-6.8,8.49-5.99,4.75.82,5.26,4.3,5.27,8.12.01,18.63,0,37.27,0,55.9,0,18.06-.03,36.13.02,54.19.01,4.15-.09,8.17-4.83,9.88-4.92,1.77-7.37-1.63-9.75-4.92-20.1-27.9-40.18-55.82-60.25-83.75-1.49-2.07-2.97-4.18-5.95-3.29-3.02.91-3.02,3.43-3.01,6.02.1,24.91.15,49.81.18,74.72,0,2.08-.06,4.21-.47,6.23-.75,3.7-3.13,5.31-6.99,5.19-6.32-.19-6.7-4.64-6.72-9.17-.08-17.3-.04-34.6-.04-51.91,0-2.87-.32-5.54-4.16-5.35-3.71.18-3.27,2.99-3.27,5.45-.02,16.35-.07,32.7.01,49.05.01,2.82.32,5.71.99,8.45,1.96,7.98,7.37,11.81,15.4,11.24,6.63-.47,11.5-5.79,12.18-13.54.34-3.97.52-7.96.53-11.95.05-17.87,0-35.75.06-53.62,0-1.19-.71-2.95,1.02-3.43,1.27-.36,1.77,1.1,2.41,1.99,12.12,16.79,24.19,33.61,36.36,50.37,6.14,8.45,12.15,17.03,18.77,25.09,4.79,5.82,10.59,6.63,16.92,3.62,6.11-2.91,8.17-8.24,8.18-14.5.06-36.7.05-73.39,0-110.09,0-2.25-.39-4.55-.9-6.75Z"/>
              <path class="cls-2" d="M614.37,493.27c-12.92-.52-25.87-.58-38.8-.38-10.41.17-11.4-1.02-11.03-11.71.48-14.24.27-28.51.24-42.77,0-2.49-.3-5.12-3.88-5.13-3.61,0-3.69,2.4-3.69,5.07.02,17.3-.03,34.6-.02,51.9,0,8.72,1.63,10.34,10.27,10.35,15.03.01,30.06-.05,45.1.03,6.56.04,9.69,2.98,8.91,8.26-.91,6.19-5.87,6.29-10.46,6.31-18.65.1-37.31.05-55.96.04-10.42,0-12.69-2.26-12.7-12.74-.02-28.14-.02-56.29,0-84.43,0-8.55.08-17.11.19-25.66.06-4.76,1.82-8.21,7.22-8.34,5.57-.13,7.21,3.67,7.36,8.21.28,8.36.2,16.73.26,25.09.02,2.43,1.04,4.25,3.6,4.15,2.08-.08,3.38-1.52,3.41-3.81.14-9.68,1.2-19.38-.38-29.02-.92-5.61-3.62-9.86-9.59-11.47-11.09-2.99-19.1,3.21-19.28,15.71-.27,18.82-.07,37.64-.07,56.46-.12,0-.24,0-.36,0,0,9.32-.05,18.64.01,27.95.06,9.5.11,19.01.37,28.5.31,11.26,5.32,16.44,16.56,16.55,20.56.2,41.11.15,61.67.02,9.18-.06,15.84-6.28,16-14.4.16-7.91-5.92-14.4-14.95-14.76Z"/>
              <path class="cls-2" d="M939.88,494.76c-11.68-15.24-23.23-30.58-35.12-45.66-3.5-4.43-3.16-7.58.95-11.1,3.61-3.09,6.96-6.47,10.33-9.83,8.48-8.46,17.16-16.76,25.29-25.55,6.93-7.5,6.38-16.19-.61-22.07-5.57-4.68-12.96-4.51-19.7,1.49-7.37,6.56-14.14,13.81-21.14,20.78-10.65,10.61-21.27,21.25-31.91,31.86-1.18,1.18-2.42,3.07-4.12,2.52-2.21-.72-.87-2.95-.88-4.53-.04-6.66-.06-13.31.02-19.97.03-2.7-.26-5.38-3.56-5.31-3.42.07-3.99,2.69-3.89,5.73.18,5.31.05,10.64.05,15.96-.04,0-.07,0-.11,0,0,5.32.04,10.64-.02,15.95-.03,2.53-.21,5.14,2.67,6.29,2.92,1.17,4.97-.37,6.99-2.42,19.64-19.9,39.34-39.74,59.06-59.58,1.2-1.2,2.59-2.24,3.99-3.21,3.23-2.25,6.12-1.45,8.61,1.27,4.07,4.44,1.59,8.02-1.71,11.32-12.39,12.35-24.8,24.69-37.27,36.97-5.99,5.9-6.28,8.48-1.19,15.11,6.26,8.14,12.56,16.25,18.81,24.39,6.94,9.05,13.87,18.11,20.73,27.22,2.82,3.75,3.68,7.45-.7,10.89-4.24,3.32-7.39,1.58-10.18-1.95-4.48-5.67-8.86-11.41-13.32-17.09-1.41-1.8-3.25-2.85-5.46-1.58-1.95,1.12-2.46,3.09-1.06,4.87,5.96,7.6,10.53,16.4,18.53,22.26,5.34,3.91,11.12,3.53,16.25-.64,5.45-4.44,7.15-10.21,4.78-16.21-1.2-3.05-3.14-5.63-5.1-8.2Z"/>
              <path class="cls-2" d="M891.37,467.15c-9.67-12.29-8.09-17.45-23.88-1.78-9.73,9.66-14.77,20.95-12.16,34.98.51,2.74.34,5.71-.03,8.5-.53,3.93-3.11,6.04-7.11,5.9-3.67-.13-6.09-2.02-6.52-5.85-.23-2.07-.39-4.16-.39-6.24-.02-35.34-.02-70.68,0-106.02,0-1.89.05-3.8.29-5.68.49-3.76,2.75-5.56,6.55-5.8,4.55-.29,6.51,2.25,7.45,6.19.63,2.63,2.25,3.98,5,3.19,2.79-.81,2.29-3.05,1.97-5.15-1.23-8.08-8.67-13.29-16.63-11.64-8.14,1.69-12.06,6.76-12.09,16.08-.07,18.62-.02,37.24-.02,55.86,0,6.08-.02,12.16,0,18.24.05,13.49-.09,26.98.27,40.46.2,7.65,6.14,13.45,13.26,13.94,7.53.52,13.64-3.81,14.89-11.14.92-5.39,1.76-10.82.42-16.38-1.62-6.75.27-12.82,4.84-17.97,2.77-3.12,6.03-5.83,8.66-9.06,2.9-3.56,4.68-2.43,6.91.66,4.33,6.01,8.85,11.88,13.42,17.71,1.48,1.88,3.26,4.33,6.09,2.08,2.6-2.06,1.3-4.44-.22-6.51-3.6-4.9-7.19-9.8-10.95-14.58Z"/>
              <path class="cls-2" d="M675.78,474.68c-3.85-.05-3.62,3.12-3.66,5.81-.13,9.12-.21,18.23-.39,27.35-.09,4.37-2.6,6.65-6.81,6.83-4.32.18-6.73-2.15-7.11-6.44-.15-1.7-.1-3.42-.1-5.13,0-22.05.03-44.09-.04-66.14,0-2.77.16-6.2-4.1-6.09-4,.1-3.47,3.32-3.48,5.91-.04,11.59-.02,23.19-.02,34.78,0,11.78-.17,23.56.06,35.33.18,9.52,6.02,15.38,14.72,15.39,8.39,0,14.16-5.69,14.51-14.96.34-8.92.21-17.86.22-26.79,0-2.72-.11-5.81-3.79-5.86Z"/>
              <path class="cls-2" d="M678.53,387.24c-1.63-7.07-6.4-10.72-13.44-10.82-7.33-.11-12.45,3.54-14.02,10.79-2.28,10.5-.79,21.19-.92,31.8-.02,2.01,1.32,3.09,3.27,3.25,2.24.18,3.63-.88,3.9-3.14.2-1.69.36-3.39.38-5.08.1-7.79.09-15.57.23-23.36.07-4.01,2.08-6.41,6.25-6.59,4.25-.18,6.93,1.76,7.49,6.06.32,2.44.43,4.92.43,7.38.03,20.33.01,40.65.03,60.98,0,2.51-.13,5.28,3.47,5.36,3.82.09,3.99-2.65,3.99-5.5-.03-10.64-.01-21.27-.01-31.91h.03c0-3.42.11-6.84-.02-10.26-.37-9.65,1.15-19.4-1.05-28.96Z"/>
              <path class="cls-2" d="M700.16,426.64c.01,2.66-.28,5.82,3.58,5.91,4.3.1,3.8-3.34,3.87-6.15.05-2.28,0-4.56.01-6.84.02-8.93,0-17.87.09-26.8.03-3.31,1.36-5.93,4.73-7.03,3.3-1.08,5.98.11,8.17,2.56,1.01,1.13,1.84,2.42,2.73,3.65,11.05,15.22,22.08,30.46,33.18,45.65,1.37,1.88,2.67,4.72,5.82,2.57,3.04-2.08,1.95-4.67.3-6.94-12.07-16.6-24.1-33.23-36.39-49.67-4.25-5.68-9.8-7.02-16.22-4.96-6.15,1.98-9.61,6.67-9.83,13.84-.18,5.7-.04,11.41-.04,17.11,0,5.7-.02,11.41,0,17.11Z"/>
            </g>
            <g>
              <path class="cls-2" d="M534.71,310.87c0-11.03-.1-22.06.04-33.08.06-5.07.8-10.11,6.7-11.94,6.04-1.87,11.33,1.67,12.06,8.5.55,5.08.21,10.25.24,15.38,0,1.63-.42,3.26-2.24,3.47-2.53.29-2.56-1.99-2.63-3.52-.22-4.55-.07-9.12-.22-13.68-.1-2.88-.94-5.4-4.59-5.18-3.3.19-3.92,2.61-3.92,5.25-.04,23.19-.06,46.39-.04,69.58,0,4.5,2.58,6.44,6.92,6.44,11.8-.02,23.6.02,35.4-.03,3.03-.01,6.06-.69,6.1-4.44.04-3.88-3.17-4.36-6.1-4.38-8.75-.06-17.5-.11-26.24.17-5.27.17-7.67-1.64-7.51-7.21.28-9.5.07-19.01.08-28.52,0-1.14.02-2.29.21-3.41.25-1.48.45-3.3,2.5-3.19,1.95.1,2.25,1.8,2.27,3.36.08,7.41.11,14.82.14,22.23,0,1.71-.04,3.42-.12,5.13-.23,4.87,2.2,6.87,6.94,6.8,7.42-.11,14.84-.12,22.25,0,7.66.13,11.13,3.17,10.97,9.29-.16,6.07-3.72,8.99-11.28,9.13-11.59.21-23.17.64-34.78.09-9.47-.45-12.9-3.38-13.11-13.15-.2-9.31-.05-18.63-.05-27.95,0-1.71,0-3.42,0-5.13Z"/>
              <path class="cls-2" d="M607.46,347.06c-.08-1.74.43-3.32,1.04-4.95,8.44-22.55,16.81-45.12,25.23-67.67,1.82-4.87,4.36-9.01,10.43-8.87,5.78.13,8.08,4.24,9.84,8.86,2.09,5.49,4.17,10.99,6.15,16.52.63,1.76,1.43,4.11-.96,4.94-2.51.87-2.98-1.61-3.64-3.35-2.21-5.85-4.44-11.7-6.61-17.56-.92-2.49-2.32-4.62-5.19-4.51-2.51.1-3.97,2.01-4.83,4.29-8.76,23.23-17.53,46.46-26.24,69.71-1.07,2.87-1.38,5.88,2.52,6.86,3.89.98,5.39-1.43,6.18-4.84,2.52-10.96,6.38-14.16,17.62-14.78,2.66-.15,5.32-.16,7.98-.16,12.84,0,15.69,2.24,19.15,14.63.81,2.89,1.58,6.41,5.88,5.24,4.43-1.21,3.85-4.56,2.63-7.82-4.44-11.9-8.94-23.78-13.39-35.67-.75-2-2.74-4.54.52-5.75,3.28-1.21,3.38,2.04,4.13,4.04,4.59,12.24,9.23,24.47,13.7,36.76,2.25,6.2.85,10.39-3.83,12.69-5.84,2.87-11.07.68-13.14-5.47-4.49-13.37-15.89-18.39-29.07-12.8-3.36,1.42-5.58,3.84-6.64,7.33-.6,1.99-1.11,4.01-1.86,5.94-1.85,4.82-5.63,6.55-10.47,5.77-5.17-.83-7.33-4.29-7.14-9.37Z"/>
              <path class="cls-2" d="M945.87,347.4c-.02,4.48-1.99,7.73-6.35,9.05-4.4,1.33-7.83-.38-10.23-4.16-1.54-2.42-2.65-5.04-3.05-7.91-.84-6-4.48-8.4-10.29-8.25-4.94.13-9.9.3-14.84.1-3.62-.14-5.61,1.25-6.74,4.67-1.19,3.58-2.55,7.18-4.38,10.46-2.93,5.24-6.98,6.53-11.95,4.39-4.85-2.09-6.72-6.08-4.65-11.81,6.19-17.12,12.65-34.14,19.02-51.2,2.39-6.39,4.79-12.78,7.22-19.16,1.74-4.56,4.49-7.92,9.88-8.05,5.63-.14,8,3.68,9.71,8.13,2.25,5.84,4.31,11.76,6.48,17.63.7,1.9,1.31,3.94-1.16,4.77-2.32.78-2.78-1.45-3.36-2.97-2.23-5.84-4.32-11.74-6.57-17.58-.95-2.47-1.92-5.27-5.31-5.07-2.82.17-4.19,2.28-5.11,4.74-8.55,22.72-17.12,45.42-25.64,68.15-.73,1.96-1.26,4.11-.08,6.08.91,1.52,2.4,2.53,4.27,2.26,2.16-.32,3.01-1.99,3.64-3.91,4.72-14.29,7.42-16.23,22.46-16.23,2.66,0,5.34-.06,7.99.12,8.44.57,12,3.8,14.29,12.08.96,3.47.66,9.32,6.78,7.39,5.99-1.88,2.73-6.48,1.45-9.97-3.98-10.86-8.17-21.64-12.27-32.45-.47-1.24-.97-2.49-1.23-3.78-.23-1.15.04-2.34,1.33-2.81,1.45-.53,2.72-.09,3.27,1.39,5.17,14.05,10.3,28.11,15.41,42.18.18.5.02,1.13.02,1.7Z"/>
              <path class="cls-2" d="M739.51,267.8c-14.1.94-28.35,7.98-36.56,23.86-8.03,15.53-5.07,30.5,5.14,44.28.68.91,1.4,1.8,1.98,2.77.62,1.02.86,2.2-.15,3.09-1.24,1.1-2.48.63-3.52-.41-.67-.67-1.23-1.45-1.84-2.17-11.7-13.97-14.2-29.69-7.42-46.33,7.1-17.44,20.79-27.16,39.41-29.57,11.72-1.52,22.64,1.22,32.54,7.74,6.59,4.34,8.03,8.81,4.65,14.18-3.37,5.36-8.25,6.13-14.72,2.04-6.12-3.87-12.68-5.89-19.95-5.61-1.61.06-3.85.47-3.81-2.11.03-2.28,2.05-2.35,3.8-2.43,7.57-.34,14.69.97,21.2,5.19,2.72,1.76,6.02,4.71,8.79.34,2.84-4.47-1.12-6.54-4.04-8.47-6.65-4.41-14.07-6.49-25.5-6.39Z"/>
              <path class="cls-2" d="M819.59,315.89c0,9.31-.14,18.63.08,27.94.07,3.16-.66,7.71,4.6,7.47,4.74-.21,3.95-4.3,3.97-7.42.06-10.26.01-20.53.03-30.79,0-2.07-.24-4.85,2.51-4.9,2.96-.06,2.47,2.82,2.48,4.83.04,10.64.1,21.29-.02,31.93-.05,4.21-.4,8.47-4.84,10.8-6.77,3.55-13.62-.87-13.89-9.45-.34-10.82-.13-21.67-.14-32.5-.01-7.41-.15-14.83.05-22.24.15-5.37-2.31-7.47-7.5-7.66-4.33-.15-8.74.46-13.01-1.06-4-1.42-5.73-4.24-5.59-8.26.15-4.16,1.96-7.27,6.18-8.59,1.75-.55,3.51-.85,4.42,1.17.88,1.95-.74,2.6-2.14,3.29-1.96.97-3.67,2.17-3.17,4.76.54,2.79,2.83,3.58,5.12,3.69,3.01.14,6.07-.14,9.07-.48,9.29-1.05,12.63,2.05,12.46,11.33-.16,8.71-.03,17.43-.03,26.15-.21,0-.43,0-.64,0Z"/>
              <path class="cls-2" d="M742.74,356.86c-7.58.21-14.61-2.02-21.59-4.59-1.98-.73-3.64-1.71-2.47-4.11,1.09-2.24,2.83-1.13,4.38-.45,14.59,6.35,28.76,5.81,42.48-2.53,3.12-1.9,6.08-3.9,3.38-8.04-2.68-4.12-5.51-1.57-8.23.15-12.99,8.23-29.66,7.11-41.34-2.79-10.8-9.15-14.4-24.15-9.01-37.21,2.72-6.6,7.81-11.09,13.28-15.27,1.51-1.16,3.35-2.44,4.82-.09,1.41,2.25-.37,3.26-2.03,4.43-11.93,8.44-16.37,20.03-12.35,31.92,5.3,15.67,23.83,23.8,39.08,17.09,2.95-1.3,5.68-3.1,8.66-4.3,4.72-1.91,8.95-1.36,11.91,3.35,2.93,4.67,2.3,8.73-2.49,12.43-8.35,6.46-17.86,9.86-28.47,10Z"/>
              <path class="cls-2" d="M831.9,265.37c6.08,0,12.16-.14,18.24.04,6,.18,9.11,3.18,9.34,8.55.22,5.27-2.76,8.99-8.37,9.67-3.36.41-6.82.04-10.24.04-5.71,0-8.41,2.92-7.92,8.55.15,1.68.54,3.39.38,5.04-.12,1.29-.91,2.54-2.61,2.47-1.67-.07-2.37-1.16-2.39-2.62-.06-4.36-.25-8.75.08-13.09.26-3.39,2.78-4.76,6.02-4.82,4.18-.08,8.37-.12,12.55-.16,3.34-.04,7.01-.03,7.1-4.54.1-4.78-3.66-4.36-6.97-4.35-11.6.02-23.2,0-34.8-.06-1.96-.01-4.75.64-4.65-2.57.09-3.07,2.97-2.49,4.85-2.54,6.46-.16,12.94-.06,19.4-.06,0,.15,0,.29,0,.44Z"/>
              <path class="cls-2" d="M649.46,322.77c-4.55,0-9.09.01-13.64,0-2.38,0-4.3-.71-3.75-3.6.55-2.89.46-6.36,4.26-7.29,1.39-.34,1.71.93,2.04,2.09,1.01,3.52,6.24,5.58,9.51,3.85,2.02-1.07,1.73-2.67,1.01-4.35-.9-2.08-1.75-4.19-2.79-6.19-.96-1.85-.8-7.67-4.51-1.47-.5.84-1.51,1.21-2.49.78-1.17-.51-1.8-1.59-1.41-2.77,1.11-3.41,1.93-7.03,3.73-10.07,1.76-2.97,4.14-2.25,5.4.87,2.82,7.02,5.67,14.03,8.23,21.14,1.87,5.19-.06,7.55-5.57,7.02Z"/>
              <path class="cls-2" d="M909.93,322.79c-3,0-4.91.08-6.8-.02-1.81-.1-4.12.71-5.1-1.45-1.08-2.38-.36-4.83.89-7.06.67-1.21,1.6-2.3,3.02-2.31,2-.02,1.46,1.73,1.76,2.93.77,3,5.96,4.77,9.77,2.99,3.4-1.59.43-3.83.02-5.69-.45-2.01-1.39-3.91-2.08-5.88-.96-2.74-1.95-5.06-4.23-.79-.49.91-1.37,1.37-2.38.95-1.29-.53-1.49-1.92-1.22-2.9.9-3.26,1.67-6.67,3.27-9.6,1.63-2.99,4.42-2.48,5.59.41,3.06,7.53,5.79,15.2,8.39,22.91,1.3,3.87-.86,5.77-4.62,5.86-2.45.06-4.92-.26-6.28-.35Z"/>
            </g>
          </g>
        </g>
      </g>
    </g>
  </g>
</svg>